<?xml version="1.0" encoding="utf-8" standalone="no"?>
<!DOCTYPE svg PUBLIC "-//W3C//DTD SVG 1.1//EN"
  "http://www.w3.org/Graphics/SVG/1.1/DTD/svg11.dtd">
<svg xmlns:xlink="http://www.w3.org/1999/xlink" width="247.266775pt" height="180.042634pt" viewBox="0 0 247.266775 180.042634" xmlns="http://www.w3.org/2000/svg" version="1.1">
 <metadata>
  <rdf:RDF xmlns:dc="http://purl.org/dc/elements/1.1/" xmlns:cc="http://creativecommons.org/ns#" xmlns:rdf="http://www.w3.org/1999/02/22-rdf-syntax-ns#">
   <cc:Work>
    <dc:type rdf:resource="http://purl.org/dc/dcmitype/StillImage"/>
    <dc:date>2025-03-27T11:13:12.625209</dc:date>
    <dc:format>image/svg+xml</dc:format>
    <dc:creator>
     <cc:Agent>
      <dc:title>Matplotlib v3.9.2, https://matplotlib.org/</dc:title>
     </cc:Agent>
    </dc:creator>
   </cc:Work>
  </rdf:RDF>
 </metadata>
 <defs>
  <style type="text/css">*{stroke-linejoin: round; stroke-linecap: butt}</style>
 </defs>
 <g id="figure_1">
  <g id="patch_1">
   <path d="M 0 180.042634 
L 247.266775 180.042634 
L 247.266775 0 
L 0 0 
L 0 180.042634 
z
" style="fill: none"/>
  </g>
  <g id="axes_1">
   <g id="patch_2">
    <path d="M 31.563388 154.684396 
L 215.703388 154.684396 
L 215.703388 16.084396 
L 31.563388 16.084396 
L 31.563388 154.684396 
z
" style="fill: none"/>
   </g>
   <g id="matplotlib.axis_1">
    <g id="xtick_1">
     <g id="line2d_1">
      <defs>
       <path id="m4aefcb4bb7" d="M 0 0 
L 0 -3 
" style="stroke: #000000; stroke-width: 0.5"/>
      </defs>
      <g>
       <use xlink:href="#m4aefcb4bb7" x="61.153106" y="154.684396" style="stroke: #000000; stroke-width: 0.5"/>
      </g>
     </g>
     <g id="line2d_2">
      <defs>
       <path id="mdaf0ad6aa2" d="M 0 0 
L 0 3 
" style="stroke: #000000; stroke-width: 0.5"/>
      </defs>
      <g>
       <use xlink:href="#mdaf0ad6aa2" x="61.153106" y="16.084396" style="stroke: #000000; stroke-width: 0.5"/>
      </g>
     </g>
     <g id="text_1">
      <!-- $\mathdefault{50}$ -->
      <g transform="translate(57.16805 163.588052) scale(0.08 -0.08)">
       <defs>
        <path id="NimbusRomNo9L-Regu-35" d="M 1158 3776 
L 2413 3776 
C 2515 3776 2541 3789 2560 3834 
L 2803 4403 
L 2746 4448 
C 2650 4314 2586 4282 2451 4282 
L 1114 4282 
L 416 2759 
C 410 2746 410 2740 410 2727 
C 410 2695 435 2676 486 2676 
C 691 2676 947 2631 1210 2547 
C 1946 2309 2285 1910 2285 1274 
C 2285 656 1894 173 1395 173 
C 1267 173 1158 218 966 360 
C 762 508 614 572 480 572 
C 294 572 205 495 205 334 
C 205 90 506 -64 986 -64 
C 1523 -64 1984 110 2304 438 
C 2598 728 2733 1094 2733 1583 
C 2733 2046 2611 2342 2291 2663 
C 2010 2947 1645 3094 890 3229 
L 1158 3776 
z
" transform="scale(0.015625)"/>
        <path id="NimbusRomNo9L-Regu-30" d="M 1626 4352 
C 1274 4352 1005 4244 768 4020 
C 397 3661 154 2925 154 2176 
C 154 1479 365 730 666 372 
C 902 90 1229 -64 1600 -64 
C 1926 -64 2202 45 2432 269 
C 2803 621 3046 1364 3046 2138 
C 3046 3450 2464 4352 1626 4352 
z
M 1606 4186 
C 2144 4186 2432 3463 2432 2125 
C 2432 788 2150 103 1600 103 
C 1050 103 768 788 768 2119 
C 768 3476 1056 4186 1606 4186 
z
" transform="scale(0.015625)"/>
       </defs>
       <use xlink:href="#NimbusRomNo9L-Regu-35" transform="scale(0.996264)"/>
       <use xlink:href="#NimbusRomNo9L-Regu-30" transform="translate(49.8132 0) scale(0.996264)"/>
      </g>
     </g>
    </g>
    <g id="xtick_2">
     <g id="line2d_3">
      <g>
       <use xlink:href="#m4aefcb4bb7" x="108.308036" y="154.684396" style="stroke: #000000; stroke-width: 0.5"/>
      </g>
     </g>
     <g id="line2d_4">
      <g>
       <use xlink:href="#mdaf0ad6aa2" x="108.308036" y="16.084396" style="stroke: #000000; stroke-width: 0.5"/>
      </g>
     </g>
     <g id="text_2">
      <!-- $\mathdefault{60}$ -->
      <g transform="translate(104.32298 163.588052) scale(0.08 -0.08)">
       <defs>
        <path id="NimbusRomNo9L-Regu-36" d="M 2854 4391 
C 2125 4327 1754 4205 1286 3879 
C 595 3386 218 2656 218 1802 
C 218 1248 390 688 666 370 
C 909 89 1254 -64 1651 -64 
C 2445 -64 2995 541 2995 1421 
C 2995 2236 2528 2752 1792 2752 
C 1510 2752 1376 2707 973 2464 
C 1146 3431 1862 4122 2867 4288 
L 2854 4391 
z
M 1549 2458 
C 2099 2458 2419 2000 2419 1204 
C 2419 504 2170 116 1722 116 
C 1158 116 813 714 813 1700 
C 813 2025 864 2203 992 2299 
C 1126 2400 1325 2458 1549 2458 
z
" transform="scale(0.015625)"/>
       </defs>
       <use xlink:href="#NimbusRomNo9L-Regu-36" transform="scale(0.996264)"/>
       <use xlink:href="#NimbusRomNo9L-Regu-30" transform="translate(49.8132 0) scale(0.996264)"/>
      </g>
     </g>
    </g>
    <g id="xtick_3">
     <g id="line2d_5">
      <g>
       <use xlink:href="#m4aefcb4bb7" x="155.462965" y="154.684396" style="stroke: #000000; stroke-width: 0.5"/>
      </g>
     </g>
     <g id="line2d_6">
      <g>
       <use xlink:href="#mdaf0ad6aa2" x="155.462965" y="16.084396" style="stroke: #000000; stroke-width: 0.5"/>
      </g>
     </g>
     <g id="text_3">
      <!-- $\mathdefault{70}$ -->
      <g transform="translate(151.477909 163.588052) scale(0.08 -0.08)">
       <defs>
        <path id="NimbusRomNo9L-Regu-37" d="M 2874 4250 
L 506 4250 
L 128 3310 
L 237 3258 
C 512 3693 627 3776 979 3776 
L 2368 3776 
L 1101 -32 
L 1517 -32 
L 2874 4148 
L 2874 4250 
z
" transform="scale(0.015625)"/>
       </defs>
       <use xlink:href="#NimbusRomNo9L-Regu-37" transform="scale(0.996264)"/>
       <use xlink:href="#NimbusRomNo9L-Regu-30" transform="translate(49.8132 0) scale(0.996264)"/>
      </g>
     </g>
    </g>
    <g id="xtick_4">
     <g id="line2d_7">
      <g>
       <use xlink:href="#m4aefcb4bb7" x="202.617895" y="154.684396" style="stroke: #000000; stroke-width: 0.5"/>
      </g>
     </g>
     <g id="line2d_8">
      <g>
       <use xlink:href="#mdaf0ad6aa2" x="202.617895" y="16.084396" style="stroke: #000000; stroke-width: 0.5"/>
      </g>
     </g>
     <g id="text_4">
      <!-- $\mathdefault{80}$ -->
      <g transform="translate(198.632839 163.588052) scale(0.08 -0.08)">
       <defs>
        <path id="NimbusRomNo9L-Regu-38" d="M 1856 2400 
C 2490 2740 2714 3008 2714 3444 
C 2714 3968 2253 4352 1613 4352 
C 915 4352 397 3924 397 3341 
C 397 2925 518 2740 1190 2151 
C 499 1626 358 1428 358 992 
C 358 372 864 -64 1587 -64 
C 2355 -64 2848 359 2848 1018 
C 2848 1511 2630 1824 1856 2400 
z
M 1741 1741 
C 2208 1408 2362 1178 2362 820 
C 2362 404 2074 116 1658 116 
C 1171 116 845 487 845 1044 
C 845 1453 986 1722 1357 2023 
L 1741 1741 
z
M 1670 2516 
C 1101 2887 870 3181 870 3540 
C 870 3911 1158 4173 1562 4173 
C 1997 4173 2272 3892 2272 3450 
C 2272 3085 2093 2797 1728 2554 
C 1696 2535 1696 2535 1670 2516 
z
" transform="scale(0.015625)"/>
       </defs>
       <use xlink:href="#NimbusRomNo9L-Regu-38" transform="scale(0.996264)"/>
       <use xlink:href="#NimbusRomNo9L-Regu-30" transform="translate(49.8132 0) scale(0.996264)"/>
      </g>
     </g>
    </g>
    <g id="xtick_5">
     <g id="line2d_9">
      <defs>
       <path id="mebd5d28abf" d="M 0 0 
L 0 -1.5 
" style="stroke: #000000; stroke-width: 0.5"/>
      </defs>
      <g>
       <use xlink:href="#mebd5d28abf" x="32.860148" y="154.684396" style="stroke: #000000; stroke-width: 0.5"/>
      </g>
     </g>
     <g id="line2d_10">
      <defs>
       <path id="me5c396df72" d="M 0 0 
L 0 1.5 
" style="stroke: #000000; stroke-width: 0.5"/>
      </defs>
      <g>
       <use xlink:href="#me5c396df72" x="32.860148" y="16.084396" style="stroke: #000000; stroke-width: 0.5"/>
      </g>
     </g>
    </g>
    <g id="xtick_6">
     <g id="line2d_11">
      <g>
       <use xlink:href="#mebd5d28abf" x="42.291134" y="154.684396" style="stroke: #000000; stroke-width: 0.5"/>
      </g>
     </g>
     <g id="line2d_12">
      <g>
       <use xlink:href="#me5c396df72" x="42.291134" y="16.084396" style="stroke: #000000; stroke-width: 0.5"/>
      </g>
     </g>
    </g>
    <g id="xtick_7">
     <g id="line2d_13">
      <g>
       <use xlink:href="#mebd5d28abf" x="51.72212" y="154.684396" style="stroke: #000000; stroke-width: 0.5"/>
      </g>
     </g>
     <g id="line2d_14">
      <g>
       <use xlink:href="#me5c396df72" x="51.72212" y="16.084396" style="stroke: #000000; stroke-width: 0.5"/>
      </g>
     </g>
    </g>
    <g id="xtick_8">
     <g id="line2d_15">
      <g>
       <use xlink:href="#mebd5d28abf" x="70.584092" y="154.684396" style="stroke: #000000; stroke-width: 0.5"/>
      </g>
     </g>
     <g id="line2d_16">
      <g>
       <use xlink:href="#me5c396df72" x="70.584092" y="16.084396" style="stroke: #000000; stroke-width: 0.5"/>
      </g>
     </g>
    </g>
    <g id="xtick_9">
     <g id="line2d_17">
      <g>
       <use xlink:href="#mebd5d28abf" x="80.015078" y="154.684396" style="stroke: #000000; stroke-width: 0.5"/>
      </g>
     </g>
     <g id="line2d_18">
      <g>
       <use xlink:href="#me5c396df72" x="80.015078" y="16.084396" style="stroke: #000000; stroke-width: 0.5"/>
      </g>
     </g>
    </g>
    <g id="xtick_10">
     <g id="line2d_19">
      <g>
       <use xlink:href="#mebd5d28abf" x="89.446064" y="154.684396" style="stroke: #000000; stroke-width: 0.5"/>
      </g>
     </g>
     <g id="line2d_20">
      <g>
       <use xlink:href="#me5c396df72" x="89.446064" y="16.084396" style="stroke: #000000; stroke-width: 0.5"/>
      </g>
     </g>
    </g>
    <g id="xtick_11">
     <g id="line2d_21">
      <g>
       <use xlink:href="#mebd5d28abf" x="98.87705" y="154.684396" style="stroke: #000000; stroke-width: 0.5"/>
      </g>
     </g>
     <g id="line2d_22">
      <g>
       <use xlink:href="#me5c396df72" x="98.87705" y="16.084396" style="stroke: #000000; stroke-width: 0.5"/>
      </g>
     </g>
    </g>
    <g id="xtick_12">
     <g id="line2d_23">
      <g>
       <use xlink:href="#mebd5d28abf" x="117.739021" y="154.684396" style="stroke: #000000; stroke-width: 0.5"/>
      </g>
     </g>
     <g id="line2d_24">
      <g>
       <use xlink:href="#me5c396df72" x="117.739021" y="16.084396" style="stroke: #000000; stroke-width: 0.5"/>
      </g>
     </g>
    </g>
    <g id="xtick_13">
     <g id="line2d_25">
      <g>
       <use xlink:href="#mebd5d28abf" x="127.170007" y="154.684396" style="stroke: #000000; stroke-width: 0.5"/>
      </g>
     </g>
     <g id="line2d_26">
      <g>
       <use xlink:href="#me5c396df72" x="127.170007" y="16.084396" style="stroke: #000000; stroke-width: 0.5"/>
      </g>
     </g>
    </g>
    <g id="xtick_14">
     <g id="line2d_27">
      <g>
       <use xlink:href="#mebd5d28abf" x="136.600993" y="154.684396" style="stroke: #000000; stroke-width: 0.5"/>
      </g>
     </g>
     <g id="line2d_28">
      <g>
       <use xlink:href="#me5c396df72" x="136.600993" y="16.084396" style="stroke: #000000; stroke-width: 0.5"/>
      </g>
     </g>
    </g>
    <g id="xtick_15">
     <g id="line2d_29">
      <g>
       <use xlink:href="#mebd5d28abf" x="146.031979" y="154.684396" style="stroke: #000000; stroke-width: 0.5"/>
      </g>
     </g>
     <g id="line2d_30">
      <g>
       <use xlink:href="#me5c396df72" x="146.031979" y="16.084396" style="stroke: #000000; stroke-width: 0.5"/>
      </g>
     </g>
    </g>
    <g id="xtick_16">
     <g id="line2d_31">
      <g>
       <use xlink:href="#mebd5d28abf" x="164.893951" y="154.684396" style="stroke: #000000; stroke-width: 0.5"/>
      </g>
     </g>
     <g id="line2d_32">
      <g>
       <use xlink:href="#me5c396df72" x="164.893951" y="16.084396" style="stroke: #000000; stroke-width: 0.5"/>
      </g>
     </g>
    </g>
    <g id="xtick_17">
     <g id="line2d_33">
      <g>
       <use xlink:href="#mebd5d28abf" x="174.324937" y="154.684396" style="stroke: #000000; stroke-width: 0.5"/>
      </g>
     </g>
     <g id="line2d_34">
      <g>
       <use xlink:href="#me5c396df72" x="174.324937" y="16.084396" style="stroke: #000000; stroke-width: 0.5"/>
      </g>
     </g>
    </g>
    <g id="xtick_18">
     <g id="line2d_35">
      <g>
       <use xlink:href="#mebd5d28abf" x="183.755923" y="154.684396" style="stroke: #000000; stroke-width: 0.5"/>
      </g>
     </g>
     <g id="line2d_36">
      <g>
       <use xlink:href="#me5c396df72" x="183.755923" y="16.084396" style="stroke: #000000; stroke-width: 0.5"/>
      </g>
     </g>
    </g>
    <g id="xtick_19">
     <g id="line2d_37">
      <g>
       <use xlink:href="#mebd5d28abf" x="193.186909" y="154.684396" style="stroke: #000000; stroke-width: 0.5"/>
      </g>
     </g>
     <g id="line2d_38">
      <g>
       <use xlink:href="#me5c396df72" x="193.186909" y="16.084396" style="stroke: #000000; stroke-width: 0.5"/>
      </g>
     </g>
    </g>
    <g id="xtick_20">
     <g id="line2d_39">
      <g>
       <use xlink:href="#mebd5d28abf" x="212.048881" y="154.684396" style="stroke: #000000; stroke-width: 0.5"/>
      </g>
     </g>
     <g id="line2d_40">
      <g>
       <use xlink:href="#me5c396df72" x="212.048881" y="16.084396" style="stroke: #000000; stroke-width: 0.5"/>
      </g>
     </g>
    </g>
    <g id="text_5">
     <!-- Distance (cm) -->
     <g transform="translate(101.169911 174.717171) scale(0.08 -0.08)">
      <defs>
       <path id="NimbusRomNo9L-Regu-44" d="M 666 679 
C 666 217 589 134 102 134 
L 102 0 
L 1920 0 
C 2662 0 3334 210 3731 568 
C 4147 944 4384 1512 4384 2131 
C 4384 2706 4192 3203 3840 3554 
C 3405 3994 2707 4224 1830 4224 
L 102 4224 
L 102 4102 
C 608 4057 666 4000 666 3525 
L 666 679 
z
M 1318 3738 
C 1318 3936 1389 3987 1651 3987 
C 2202 3987 2618 3885 2925 3668 
C 3424 3323 3686 2775 3686 2087 
C 3686 1334 3424 798 2906 498 
C 2579 314 2208 237 1651 237 
C 1395 237 1318 294 1318 498 
L 1318 3738 
z
" transform="scale(0.015625)"/>
       <path id="NimbusRomNo9L-Regu-69" d="M 1120 2929 
L 128 2579 
L 128 2484 
L 179 2490 
C 256 2502 339 2509 397 2509 
C 550 2509 608 2406 608 2125 
L 608 640 
C 608 179 544 109 102 109 
L 102 0 
L 1619 0 
L 1619 96 
C 1197 128 1146 191 1146 650 
L 1146 2910 
L 1120 2929 
z
M 819 4352 
C 646 4352 499 4205 499 4026 
C 499 3847 640 3699 819 3699 
C 1005 3699 1152 3840 1152 4026 
C 1152 4205 1005 4352 819 4352 
z
" transform="scale(0.015625)"/>
       <path id="NimbusRomNo9L-Regu-73" d="M 2016 2010 
L 1990 2880 
L 1920 2880 
L 1907 2867 
C 1850 2822 1843 2816 1818 2816 
C 1779 2816 1715 2829 1645 2861 
C 1504 2915 1363 2944 1197 2944 
C 691 2944 326 2616 326 2154 
C 326 1796 531 1539 1075 1231 
L 1446 1020 
C 1670 892 1779 737 1779 539 
C 1779 256 1574 77 1248 77 
C 1030 77 832 159 710 298 
C 576 455 518 600 435 960 
L 333 960 
L 333 -39 
L 416 -39 
C 461 33 486 48 563 48 
C 621 48 710 35 858 -2 
C 1037 -39 1210 -64 1325 -64 
C 1818 -64 2227 308 2227 757 
C 2227 1077 2074 1289 1690 1520 
L 998 1930 
C 819 2033 723 2194 723 2367 
C 723 2624 922 2803 1216 2803 
C 1581 2803 1773 2583 1920 2010 
L 2016 2010 
z
" transform="scale(0.015625)"/>
       <path id="NimbusRomNo9L-Regu-74" d="M 1632 2880 
L 986 2880 
L 986 3622 
C 986 3686 979 3706 941 3706 
C 896 3648 858 3590 813 3526 
C 570 3174 294 2867 192 2841 
C 122 2794 83 2748 83 2715 
C 83 2695 90 2682 109 2682 
L 448 2682 
L 448 751 
C 448 212 640 -64 1018 -64 
C 1331 -64 1574 90 1786 423 
L 1702 493 
C 1568 333 1459 269 1318 269 
C 1082 269 986 443 986 847 
L 986 2682 
L 1632 2682 
L 1632 2880 
z
" transform="scale(0.015625)"/>
       <path id="NimbusRomNo9L-Regu-61" d="M 2829 423 
C 2720 333 2643 301 2547 301 
C 2400 301 2355 390 2355 672 
L 2355 1920 
C 2355 2253 2323 2438 2227 2592 
C 2086 2822 1811 2944 1434 2944 
C 832 2944 358 2630 358 2227 
C 358 2080 486 1952 634 1952 
C 787 1952 922 2080 922 2221 
C 922 2246 915 2278 909 2323 
C 896 2381 890 2432 890 2477 
C 890 2650 1094 2790 1350 2790 
C 1664 2790 1837 2605 1837 2259 
L 1837 1869 
C 851 1472 742 1421 467 1178 
C 326 1050 237 832 237 621 
C 237 218 518 -64 909 -64 
C 1190 -64 1453 70 1843 403 
C 1875 70 1990 -64 2253 -64 
C 2470 -64 2605 13 2829 256 
L 2829 423 
z
M 1837 783 
C 1837 584 1805 526 1670 449 
C 1517 359 1338 301 1203 301 
C 979 301 800 520 800 796 
L 800 822 
C 800 1201 1062 1433 1837 1715 
L 1837 783 
z
" transform="scale(0.015625)"/>
       <path id="NimbusRomNo9L-Regu-6e" d="M 102 2579 
C 141 2598 205 2605 275 2605 
C 454 2605 512 2509 512 2195 
L 512 608 
C 512 243 442 154 115 128 
L 115 32 
L 1472 32 
L 1472 128 
C 1146 154 1050 230 1050 461 
L 1050 2259 
C 1357 2547 1498 2624 1709 2624 
C 2022 2624 2176 2426 2176 2003 
L 2176 666 
C 2176 262 2093 154 1773 128 
L 1773 32 
L 3104 32 
L 3104 128 
C 2790 160 2714 237 2714 550 
L 2714 2016 
C 2714 2618 2432 2976 1958 2976 
C 1664 2976 1466 2867 1030 2458 
L 1030 2963 
L 986 2976 
C 672 2861 454 2790 102 2688 
L 102 2579 
z
" transform="scale(0.015625)"/>
       <path id="NimbusRomNo9L-Regu-63" d="M 2547 998 
C 2240 550 2010 397 1645 397 
C 1062 397 653 909 653 1645 
C 653 2304 1005 2758 1523 2758 
C 1754 2758 1837 2688 1901 2451 
L 1939 2310 
C 1990 2131 2106 2016 2240 2016 
C 2406 2016 2547 2138 2547 2285 
C 2547 2643 2099 2944 1562 2944 
C 1248 2944 922 2816 659 2586 
C 339 2304 160 1869 160 1363 
C 160 531 666 -64 1376 -64 
C 1664 -64 1920 38 2150 237 
C 2323 390 2445 563 2637 941 
L 2547 998 
z
" transform="scale(0.015625)"/>
       <path id="NimbusRomNo9L-Regu-65" d="M 2611 1053 
C 2304 564 2029 378 1619 378 
C 1254 378 979 564 794 930 
C 678 1174 634 1386 621 1779 
L 2592 1779 
C 2541 2193 2477 2377 2317 2581 
C 2125 2811 1830 2944 1498 2944 
C 1178 2944 877 2829 634 2611 
C 333 2349 160 1894 160 1370 
C 160 486 621 -64 1357 -64 
C 1965 -64 2445 315 2714 1008 
L 2611 1053 
z
M 634 1984 
C 704 2479 922 2714 1312 2714 
C 1702 2714 1856 2535 1939 1984 
L 634 1984 
z
" transform="scale(0.015625)"/>
       <path id="NimbusRomNo9L-Regu-28" d="M 1888 4326 
C 1414 4019 1222 3853 986 3558 
C 531 3002 307 2362 307 1613 
C 307 800 544 173 1107 -480 
C 1370 -787 1536 -928 1869 -1133 
L 1946 -1030 
C 1434 -627 1254 -403 1082 77 
C 928 506 858 992 858 1632 
C 858 2304 941 2829 1114 3226 
C 1293 3622 1485 3853 1946 4224 
L 1888 4326 
z
" transform="scale(0.015625)"/>
       <path id="NimbusRomNo9L-Regu-6d" d="M 122 2547 
C 205 2566 256 2573 326 2573 
C 493 2573 550 2470 550 2162 
L 550 539 
C 550 192 461 96 102 96 
L 102 0 
L 1523 0 
L 1523 96 
C 1184 96 1088 166 1088 418 
L 1088 2234 
C 1088 2246 1139 2310 1184 2355 
C 1344 2502 1619 2611 1843 2611 
C 2125 2611 2266 2385 2266 1932 
L 2266 528 
C 2266 167 2195 96 1830 96 
L 1830 0 
L 3264 0 
L 3264 96 
C 2899 96 2803 205 2803 603 
L 2803 2221 
C 2995 2496 3206 2611 3501 2611 
C 3866 2611 3981 2438 3981 1907 
L 3981 557 
C 3981 192 3930 141 3558 96 
L 3558 0 
L 4960 0 
L 4960 96 
L 4794 115 
C 4602 115 4518 230 4518 480 
L 4518 1802 
C 4518 2559 4269 2944 3776 2944 
C 3405 2944 3078 2778 2733 2407 
C 2618 2771 2400 2944 2054 2944 
C 1773 2944 1594 2854 1062 2451 
L 1062 2931 
L 1018 2944 
C 691 2822 474 2752 122 2656 
L 122 2547 
z
" transform="scale(0.015625)"/>
       <path id="NimbusRomNo9L-Regu-29" d="M 243 -1133 
C 717 -826 909 -659 1146 -365 
C 1600 192 1824 832 1824 1581 
C 1824 2400 1587 3021 1024 3674 
C 762 3981 595 4122 262 4326 
L 186 4224 
C 698 3821 870 3597 1050 3117 
C 1203 2688 1274 2202 1274 1562 
C 1274 896 1190 365 1018 -26 
C 838 -429 646 -659 186 -1030 
L 243 -1133 
z
" transform="scale(0.015625)"/>
      </defs>
      <use xlink:href="#NimbusRomNo9L-Regu-44" transform="scale(0.996264)"/>
      <use xlink:href="#NimbusRomNo9L-Regu-69" transform="translate(71.929985 0) scale(0.996264)"/>
      <use xlink:href="#NimbusRomNo9L-Regu-73" transform="translate(99.625154 0) scale(0.996264)"/>
      <use xlink:href="#NimbusRomNo9L-Regu-74" transform="translate(138.378861 0) scale(0.996264)"/>
      <use xlink:href="#NimbusRomNo9L-Regu-61" transform="translate(166.07403 0) scale(0.996264)"/>
      <use xlink:href="#NimbusRomNo9L-Regu-6e" transform="translate(210.307599 0) scale(0.996264)"/>
      <use xlink:href="#NimbusRomNo9L-Regu-63" transform="translate(260.120799 0) scale(0.996264)"/>
      <use xlink:href="#NimbusRomNo9L-Regu-65" transform="translate(304.354368 0) scale(0.996264)"/>
      <use xlink:href="#NimbusRomNo9L-Regu-28" transform="translate(373.494537 0) scale(0.996264)"/>
      <use xlink:href="#NimbusRomNo9L-Regu-63" transform="translate(406.669767 0) scale(0.996264)"/>
      <use xlink:href="#NimbusRomNo9L-Regu-6d" transform="translate(450.903336 0) scale(0.996264)"/>
      <use xlink:href="#NimbusRomNo9L-Regu-29" transform="translate(528.411706 0) scale(0.996264)"/>
     </g>
    </g>
   </g>
   <g id="matplotlib.axis_2">
    <g id="ytick_1">
     <g id="line2d_41">
      <defs>
       <path id="ma61c1a1ff3" d="M 0 0 
L 3 0 
" style="stroke: #000000; stroke-width: 0.5"/>
      </defs>
      <g>
       <use xlink:href="#ma61c1a1ff3" x="31.563388" y="133.990383" style="stroke: #000000; stroke-width: 0.5"/>
      </g>
     </g>
     <g id="line2d_42">
      <defs>
       <path id="m350a08205b" d="M 0 0 
L -3 0 
" style="stroke: #000000; stroke-width: 0.5"/>
      </defs>
      <g>
       <use xlink:href="#m350a08205b" x="215.703388" y="133.990383" style="stroke: #000000; stroke-width: 0.5"/>
      </g>
     </g>
     <g id="text_6">
      <!-- $\mathdefault{8}$ -->
      <g transform="translate(24.078332 136.692211) scale(0.08 -0.08)">
       <use xlink:href="#NimbusRomNo9L-Regu-38" transform="scale(0.996264)"/>
      </g>
     </g>
    </g>
    <g id="ytick_2">
     <g id="line2d_43">
      <g>
       <use xlink:href="#ma61c1a1ff3" x="31.563388" y="105.263138" style="stroke: #000000; stroke-width: 0.5"/>
      </g>
     </g>
     <g id="line2d_44">
      <g>
       <use xlink:href="#m350a08205b" x="215.703388" y="105.263138" style="stroke: #000000; stroke-width: 0.5"/>
      </g>
     </g>
     <g id="text_7">
      <!-- $\mathdefault{9}$ -->
      <g transform="translate(24.078332 107.964966) scale(0.08 -0.08)">
       <defs>
        <path id="NimbusRomNo9L-Regu-39" d="M 378 -123 
C 1094 -40 1446 82 1882 396 
C 2547 882 2938 1676 2938 2539 
C 2938 3593 2349 4339 1523 4339 
C 762 4339 192 3694 192 2832 
C 192 2053 653 1536 1344 1536 
C 1696 1536 1965 1638 2304 1900 
C 2042 856 1331 172 358 5 
L 378 -123 
z
M 2317 2290 
C 2317 2162 2291 2104 2221 2047 
C 2042 1894 1805 1811 1574 1811 
C 1088 1811 781 2290 781 3050 
C 781 3413 883 3796 1018 3963 
C 1126 4090 1286 4160 1472 4160 
C 2029 4160 2317 3611 2317 2539 
L 2317 2290 
z
" transform="scale(0.015625)"/>
       </defs>
       <use xlink:href="#NimbusRomNo9L-Regu-39" transform="scale(0.996264)"/>
      </g>
     </g>
    </g>
    <g id="ytick_3">
     <g id="line2d_45">
      <g>
       <use xlink:href="#ma61c1a1ff3" x="31.563388" y="76.535893" style="stroke: #000000; stroke-width: 0.5"/>
      </g>
     </g>
     <g id="line2d_46">
      <g>
       <use xlink:href="#m350a08205b" x="215.703388" y="76.535893" style="stroke: #000000; stroke-width: 0.5"/>
      </g>
     </g>
     <g id="text_8">
      <!-- $\mathdefault{10}$ -->
      <g transform="translate(20.093276 79.237721) scale(0.08 -0.08)">
       <defs>
        <path id="NimbusRomNo9L-Regu-31" d="M 1862 4339 
L 710 3757 
L 710 3667 
C 787 3699 858 3725 883 3738 
C 998 3783 1107 3808 1171 3808 
C 1306 3808 1363 3711 1363 3505 
L 1363 592 
C 1363 379 1312 232 1210 173 
C 1114 116 1024 96 755 96 
L 755 0 
L 2522 0 
L 2522 96 
C 2016 96 1914 160 1914 470 
L 1914 4327 
L 1862 4339 
z
" transform="scale(0.015625)"/>
       </defs>
       <use xlink:href="#NimbusRomNo9L-Regu-31" transform="scale(0.996264)"/>
       <use xlink:href="#NimbusRomNo9L-Regu-30" transform="translate(49.8132 0) scale(0.996264)"/>
      </g>
     </g>
    </g>
    <g id="ytick_4">
     <g id="line2d_47">
      <g>
       <use xlink:href="#ma61c1a1ff3" x="31.563388" y="47.808648" style="stroke: #000000; stroke-width: 0.5"/>
      </g>
     </g>
     <g id="line2d_48">
      <g>
       <use xlink:href="#m350a08205b" x="215.703388" y="47.808648" style="stroke: #000000; stroke-width: 0.5"/>
      </g>
     </g>
     <g id="text_9">
      <!-- $\mathdefault{11}$ -->
      <g transform="translate(20.093276 50.510476) scale(0.08 -0.08)">
       <use xlink:href="#NimbusRomNo9L-Regu-31" transform="scale(0.996264)"/>
       <use xlink:href="#NimbusRomNo9L-Regu-31" transform="translate(49.8132 0) scale(0.996264)"/>
      </g>
     </g>
    </g>
    <g id="ytick_5">
     <g id="line2d_49">
      <g>
       <use xlink:href="#ma61c1a1ff3" x="31.563388" y="19.081403" style="stroke: #000000; stroke-width: 0.5"/>
      </g>
     </g>
     <g id="line2d_50">
      <g>
       <use xlink:href="#m350a08205b" x="215.703388" y="19.081403" style="stroke: #000000; stroke-width: 0.5"/>
      </g>
     </g>
     <g id="text_10">
      <!-- $\mathdefault{12}$ -->
      <g transform="translate(20.093276 21.783231) scale(0.08 -0.08)">
       <defs>
        <path id="NimbusRomNo9L-Regu-32" d="M 3040 875 
L 2957 907 
C 2720 544 2637 486 2349 486 
L 819 486 
L 1894 1609 
C 2464 2202 2714 2687 2714 3185 
C 2714 3823 2195 4313 1530 4313 
C 1178 4313 845 4173 608 3918 
C 403 3700 307 3496 198 3043 
L 333 3011 
C 589 3636 819 3840 1261 3840 
C 1798 3840 2163 3476 2163 2940 
C 2163 2443 1869 1850 1331 1282 
L 192 77 
L 192 0 
L 2688 0 
L 3040 875 
z
" transform="scale(0.015625)"/>
       </defs>
       <use xlink:href="#NimbusRomNo9L-Regu-31" transform="scale(0.996264)"/>
       <use xlink:href="#NimbusRomNo9L-Regu-32" transform="translate(49.8132 0) scale(0.996264)"/>
      </g>
     </g>
    </g>
    <g id="ytick_6">
     <g id="line2d_51">
      <defs>
       <path id="m66179f4eb7" d="M 0 0 
L 1.5 0 
" style="stroke: #000000; stroke-width: 0.5"/>
      </defs>
      <g>
       <use xlink:href="#m66179f4eb7" x="31.563388" y="151.22673" style="stroke: #000000; stroke-width: 0.5"/>
      </g>
     </g>
     <g id="line2d_52">
      <defs>
       <path id="mab1a706568" d="M 0 0 
L -1.5 0 
" style="stroke: #000000; stroke-width: 0.5"/>
      </defs>
      <g>
       <use xlink:href="#mab1a706568" x="215.703388" y="151.22673" style="stroke: #000000; stroke-width: 0.5"/>
      </g>
     </g>
    </g>
    <g id="ytick_7">
     <g id="line2d_53">
      <g>
       <use xlink:href="#m66179f4eb7" x="31.563388" y="145.481281" style="stroke: #000000; stroke-width: 0.5"/>
      </g>
     </g>
     <g id="line2d_54">
      <g>
       <use xlink:href="#mab1a706568" x="215.703388" y="145.481281" style="stroke: #000000; stroke-width: 0.5"/>
      </g>
     </g>
    </g>
    <g id="ytick_8">
     <g id="line2d_55">
      <g>
       <use xlink:href="#m66179f4eb7" x="31.563388" y="139.735832" style="stroke: #000000; stroke-width: 0.5"/>
      </g>
     </g>
     <g id="line2d_56">
      <g>
       <use xlink:href="#mab1a706568" x="215.703388" y="139.735832" style="stroke: #000000; stroke-width: 0.5"/>
      </g>
     </g>
    </g>
    <g id="ytick_9">
     <g id="line2d_57">
      <g>
       <use xlink:href="#m66179f4eb7" x="31.563388" y="128.244934" style="stroke: #000000; stroke-width: 0.5"/>
      </g>
     </g>
     <g id="line2d_58">
      <g>
       <use xlink:href="#mab1a706568" x="215.703388" y="128.244934" style="stroke: #000000; stroke-width: 0.5"/>
      </g>
     </g>
    </g>
    <g id="ytick_10">
     <g id="line2d_59">
      <g>
       <use xlink:href="#m66179f4eb7" x="31.563388" y="122.499485" style="stroke: #000000; stroke-width: 0.5"/>
      </g>
     </g>
     <g id="line2d_60">
      <g>
       <use xlink:href="#mab1a706568" x="215.703388" y="122.499485" style="stroke: #000000; stroke-width: 0.5"/>
      </g>
     </g>
    </g>
    <g id="ytick_11">
     <g id="line2d_61">
      <g>
       <use xlink:href="#m66179f4eb7" x="31.563388" y="116.754036" style="stroke: #000000; stroke-width: 0.5"/>
      </g>
     </g>
     <g id="line2d_62">
      <g>
       <use xlink:href="#mab1a706568" x="215.703388" y="116.754036" style="stroke: #000000; stroke-width: 0.5"/>
      </g>
     </g>
    </g>
    <g id="ytick_12">
     <g id="line2d_63">
      <g>
       <use xlink:href="#m66179f4eb7" x="31.563388" y="111.008587" style="stroke: #000000; stroke-width: 0.5"/>
      </g>
     </g>
     <g id="line2d_64">
      <g>
       <use xlink:href="#mab1a706568" x="215.703388" y="111.008587" style="stroke: #000000; stroke-width: 0.5"/>
      </g>
     </g>
    </g>
    <g id="ytick_13">
     <g id="line2d_65">
      <g>
       <use xlink:href="#m66179f4eb7" x="31.563388" y="99.517689" style="stroke: #000000; stroke-width: 0.5"/>
      </g>
     </g>
     <g id="line2d_66">
      <g>
       <use xlink:href="#mab1a706568" x="215.703388" y="99.517689" style="stroke: #000000; stroke-width: 0.5"/>
      </g>
     </g>
    </g>
    <g id="ytick_14">
     <g id="line2d_67">
      <g>
       <use xlink:href="#m66179f4eb7" x="31.563388" y="93.77224" style="stroke: #000000; stroke-width: 0.5"/>
      </g>
     </g>
     <g id="line2d_68">
      <g>
       <use xlink:href="#mab1a706568" x="215.703388" y="93.77224" style="stroke: #000000; stroke-width: 0.5"/>
      </g>
     </g>
    </g>
    <g id="ytick_15">
     <g id="line2d_69">
      <g>
       <use xlink:href="#m66179f4eb7" x="31.563388" y="88.026791" style="stroke: #000000; stroke-width: 0.5"/>
      </g>
     </g>
     <g id="line2d_70">
      <g>
       <use xlink:href="#mab1a706568" x="215.703388" y="88.026791" style="stroke: #000000; stroke-width: 0.5"/>
      </g>
     </g>
    </g>
    <g id="ytick_16">
     <g id="line2d_71">
      <g>
       <use xlink:href="#m66179f4eb7" x="31.563388" y="82.281342" style="stroke: #000000; stroke-width: 0.5"/>
      </g>
     </g>
     <g id="line2d_72">
      <g>
       <use xlink:href="#mab1a706568" x="215.703388" y="82.281342" style="stroke: #000000; stroke-width: 0.5"/>
      </g>
     </g>
    </g>
    <g id="ytick_17">
     <g id="line2d_73">
      <g>
       <use xlink:href="#m66179f4eb7" x="31.563388" y="70.790444" style="stroke: #000000; stroke-width: 0.5"/>
      </g>
     </g>
     <g id="line2d_74">
      <g>
       <use xlink:href="#mab1a706568" x="215.703388" y="70.790444" style="stroke: #000000; stroke-width: 0.5"/>
      </g>
     </g>
    </g>
    <g id="ytick_18">
     <g id="line2d_75">
      <g>
       <use xlink:href="#m66179f4eb7" x="31.563388" y="65.044995" style="stroke: #000000; stroke-width: 0.5"/>
      </g>
     </g>
     <g id="line2d_76">
      <g>
       <use xlink:href="#mab1a706568" x="215.703388" y="65.044995" style="stroke: #000000; stroke-width: 0.5"/>
      </g>
     </g>
    </g>
    <g id="ytick_19">
     <g id="line2d_77">
      <g>
       <use xlink:href="#m66179f4eb7" x="31.563388" y="59.299546" style="stroke: #000000; stroke-width: 0.5"/>
      </g>
     </g>
     <g id="line2d_78">
      <g>
       <use xlink:href="#mab1a706568" x="215.703388" y="59.299546" style="stroke: #000000; stroke-width: 0.5"/>
      </g>
     </g>
    </g>
    <g id="ytick_20">
     <g id="line2d_79">
      <g>
       <use xlink:href="#m66179f4eb7" x="31.563388" y="53.554097" style="stroke: #000000; stroke-width: 0.5"/>
      </g>
     </g>
     <g id="line2d_80">
      <g>
       <use xlink:href="#mab1a706568" x="215.703388" y="53.554097" style="stroke: #000000; stroke-width: 0.5"/>
      </g>
     </g>
    </g>
    <g id="ytick_21">
     <g id="line2d_81">
      <g>
       <use xlink:href="#m66179f4eb7" x="31.563388" y="42.063199" style="stroke: #000000; stroke-width: 0.5"/>
      </g>
     </g>
     <g id="line2d_82">
      <g>
       <use xlink:href="#mab1a706568" x="215.703388" y="42.063199" style="stroke: #000000; stroke-width: 0.5"/>
      </g>
     </g>
    </g>
    <g id="ytick_22">
     <g id="line2d_83">
      <g>
       <use xlink:href="#m66179f4eb7" x="31.563388" y="36.31775" style="stroke: #000000; stroke-width: 0.5"/>
      </g>
     </g>
     <g id="line2d_84">
      <g>
       <use xlink:href="#mab1a706568" x="215.703388" y="36.31775" style="stroke: #000000; stroke-width: 0.5"/>
      </g>
     </g>
    </g>
    <g id="ytick_23">
     <g id="line2d_85">
      <g>
       <use xlink:href="#m66179f4eb7" x="31.563388" y="30.572301" style="stroke: #000000; stroke-width: 0.5"/>
      </g>
     </g>
     <g id="line2d_86">
      <g>
       <use xlink:href="#mab1a706568" x="215.703388" y="30.572301" style="stroke: #000000; stroke-width: 0.5"/>
      </g>
     </g>
    </g>
    <g id="ytick_24">
     <g id="line2d_87">
      <g>
       <use xlink:href="#m66179f4eb7" x="31.563388" y="24.826852" style="stroke: #000000; stroke-width: 0.5"/>
      </g>
     </g>
     <g id="line2d_88">
      <g>
       <use xlink:href="#mab1a706568" x="215.703388" y="24.826852" style="stroke: #000000; stroke-width: 0.5"/>
      </g>
     </g>
    </g>
    <g id="text_11">
     <!-- Amplitude (mW) -->
     <g transform="translate(14.367812 112.944764) rotate(-90) scale(0.08 -0.08)">
      <defs>
       <path id="NimbusRomNo9L-Regu-41" d="M 4518 128 
C 4230 128 4166 192 3942 667 
L 2349 4320 
L 2221 4320 
L 890 1168 
C 480 231 403 128 96 128 
L 96 0 
L 1363 0 
L 1363 128 
C 1056 128 928 212 928 393 
C 928 470 947 560 979 645 
L 1274 1401 
L 2950 1401 
L 3213 778 
C 3290 602 3334 434 3334 342 
C 3334 180 3226 128 2886 128 
L 2886 0 
L 4518 0 
L 4518 128 
z
M 1382 1664 
L 2118 3416 
L 2861 1664 
L 1382 1664 
z
" transform="scale(0.015625)"/>
       <path id="NimbusRomNo9L-Regu-70" d="M 58 2516 
C 115 2522 160 2522 218 2522 
C 435 2522 480 2458 480 2155 
L 480 -855 
C 480 -1189 410 -1261 32 -1299 
L 32 -1408 
L 1581 -1408 
L 1581 -1293 
C 1101 -1293 1018 -1222 1018 -816 
L 1018 199 
C 1242 -13 1395 -77 1664 -77 
C 2419 -77 3008 643 3008 1575 
C 3008 2372 2560 2944 1939 2944 
C 1581 2944 1299 2784 1018 2438 
L 1018 2931 
L 979 2944 
C 634 2810 410 2726 58 2618 
L 58 2516 
z
M 1018 2136 
C 1018 2329 1376 2560 1670 2560 
C 2144 2560 2458 2071 2458 1324 
C 2458 611 2144 128 1683 128 
C 1382 128 1018 359 1018 552 
L 1018 2136 
z
" transform="scale(0.015625)"/>
       <path id="NimbusRomNo9L-Regu-6c" d="M 122 4000 
L 160 4000 
C 230 4000 307 4000 358 4000 
C 563 4000 627 3910 627 3610 
L 627 557 
C 627 211 538 128 134 96 
L 134 0 
L 1645 0 
L 1645 109 
C 1242 109 1165 173 1165 528 
L 1165 4371 
L 1139 4384 
C 806 4275 563 4211 122 4103 
L 122 4000 
z
" transform="scale(0.015625)"/>
       <path id="NimbusRomNo9L-Regu-75" d="M 3066 320 
L 3034 320 
C 2739 320 2669 390 2669 685 
L 2669 2880 
L 1658 2880 
L 1658 2758 
C 2054 2758 2131 2694 2131 2375 
L 2131 875 
C 2131 697 2099 607 2010 537 
C 1837 397 1638 320 1446 320 
C 1197 320 992 537 992 805 
L 992 2880 
L 58 2880 
L 58 2778 
C 365 2778 454 2682 454 2387 
L 454 770 
C 454 263 762 -64 1229 -64 
C 1466 -64 1715 38 1888 211 
L 2163 486 
L 2163 -45 
L 2189 -58 
C 2509 70 2739 141 3066 230 
L 3066 320 
z
" transform="scale(0.015625)"/>
       <path id="NimbusRomNo9L-Regu-64" d="M 2202 -64 
L 3142 269 
L 3142 365 
C 3027 365 3014 365 2995 365 
C 2765 365 2714 435 2714 731 
L 2714 4364 
L 2682 4377 
C 2374 4268 2150 4204 1741 4096 
L 1741 3994 
C 1792 4000 1830 4000 1882 4000 
C 2118 4000 2176 3936 2176 3672 
L 2176 2669 
C 1933 2874 1760 2944 1504 2944 
C 768 2944 173 2221 173 1312 
C 173 493 653 -64 1357 -64 
C 1715 -64 1958 64 2176 365 
L 2176 -45 
L 2202 -64 
z
M 2176 653 
C 2176 608 2131 531 2067 461 
C 1952 333 1792 269 1606 269 
C 1075 269 723 781 723 1568 
C 723 2291 1037 2765 1523 2765 
C 1862 2765 2176 2464 2176 2125 
L 2176 653 
z
" transform="scale(0.015625)"/>
       <path id="NimbusRomNo9L-Regu-57" d="M 5965 4224 
L 4698 4224 
L 4698 4102 
C 5024 4070 5139 4000 5139 3826 
C 5139 3692 5101 3524 5037 3345 
L 4237 1169 
L 3392 3358 
C 3379 3390 3322 3531 3315 3551 
C 3258 3685 3219 3807 3219 3877 
C 3219 4032 3366 4096 3712 4096 
L 3712 4224 
L 2003 4224 
L 2003 4096 
C 2368 4096 2432 4038 2650 3524 
L 2861 2998 
L 2176 1188 
L 1254 3612 
C 1210 3728 1184 3838 1184 3909 
C 1184 4051 1274 4096 1600 4096 
L 1600 4224 
L 32 4224 
L 32 4102 
C 358 4070 454 3955 691 3351 
L 1926 -96 
L 2022 -96 
L 3008 2619 
L 4032 -96 
L 4128 -96 
C 4672 1579 4736 1759 5434 3647 
C 5555 3981 5626 4038 5965 4102 
L 5965 4224 
z
" transform="scale(0.015625)"/>
      </defs>
      <use xlink:href="#NimbusRomNo9L-Regu-41" transform="scale(0.996264)"/>
      <use xlink:href="#NimbusRomNo9L-Regu-6d" transform="translate(71.929985 0) scale(0.996264)"/>
      <use xlink:href="#NimbusRomNo9L-Regu-70" transform="translate(149.438355 0) scale(0.996264)"/>
      <use xlink:href="#NimbusRomNo9L-Regu-6c" transform="translate(199.251555 0) scale(0.996264)"/>
      <use xlink:href="#NimbusRomNo9L-Regu-69" transform="translate(226.946725 0) scale(0.996264)"/>
      <use xlink:href="#NimbusRomNo9L-Regu-74" transform="translate(254.641895 0) scale(0.996264)"/>
      <use xlink:href="#NimbusRomNo9L-Regu-75" transform="translate(282.337064 0) scale(0.996264)"/>
      <use xlink:href="#NimbusRomNo9L-Regu-64" transform="translate(332.150265 0) scale(0.996264)"/>
      <use xlink:href="#NimbusRomNo9L-Regu-65" transform="translate(381.963465 0) scale(0.996264)"/>
      <use xlink:href="#NimbusRomNo9L-Regu-28" transform="translate(451.103634 0) scale(0.996264)"/>
      <use xlink:href="#NimbusRomNo9L-Regu-6d" transform="translate(484.278864 0) scale(0.996264)"/>
      <use xlink:href="#NimbusRomNo9L-Regu-57" transform="translate(561.787234 0) scale(0.996264)"/>
      <use xlink:href="#NimbusRomNo9L-Regu-29" transform="translate(655.834003 0) scale(0.996264)"/>
     </g>
    </g>
   </g>
   <g id="line2d_89">
    <path d="M 39.933388 148.384396 
L 47.006627 116.468558 
L 58.32381 95.710094 
L 158.292261 101.812755 
L 166.780148 107.776502 
L 175.739585 101.812755 
L 185.170571 92.605662 
L 193.658458 86.28854 
L 203.089444 62.99716 
" clip-path="url(#p798919c976)" style="fill: none; stroke: #000000; stroke-linecap: square"/>
   </g>
   <g id="line2d_90">
    <path d="M 44.648881 66.440517 
L 53.136768 52.426003 
L 62.096205 73.209435 
L 153.576768 30.156154 
L 163.007754 22.384396 
L 171.96719 26.292644 
L 180.455078 33.975439 
L 189.414514 41.483353 
L 197.902402 33.975439 
L 207.333388 37.751005 
" clip-path="url(#p798919c976)" style="fill: none; stroke-dasharray: 3.7,1.6; stroke-dashoffset: 0; stroke: #ff0000"/>
   </g>
   <g id="patch_3">
    <path d="M 31.563388 154.684396 
L 31.563388 16.084396 
" style="fill: none; stroke: #000000; stroke-width: 0.5; stroke-linejoin: miter; stroke-linecap: square"/>
   </g>
   <g id="patch_4">
    <path d="M 215.703388 154.684396 
L 215.703388 16.084396 
" style="fill: none; stroke: #000000; stroke-width: 0.5; stroke-linejoin: miter; stroke-linecap: square"/>
   </g>
   <g id="patch_5">
    <path d="M 31.563388 154.684396 
L 215.703388 154.684396 
" style="fill: none; stroke: #000000; stroke-width: 0.5; stroke-linejoin: miter; stroke-linecap: square"/>
   </g>
   <g id="patch_6">
    <path d="M 31.563388 16.084396 
L 215.703388 16.084396 
" style="fill: none; stroke: #000000; stroke-width: 0.5; stroke-linejoin: miter; stroke-linecap: square"/>
   </g>
   <g id="text_12">
    <!-- Received maximum and minimum power at different distances -->
    <g transform="translate(3.6 10.084396) scale(0.096 -0.096)">
     <defs>
      <path id="NimbusRomNo9L-Regu-52" d="M 4218 121 
C 3974 140 3846 205 3661 424 
L 2342 2061 
C 2771 2143 2963 2219 3174 2388 
C 3379 2553 3501 2818 3501 3113 
C 3501 3385 3418 3618 3251 3801 
C 3008 4059 2477 4224 1875 4224 
L 109 4224 
L 109 4102 
C 589 4051 653 3981 653 3528 
L 653 765 
C 653 236 589 159 109 121 
L 109 0 
L 1882 0 
L 1882 134 
C 1389 134 1306 219 1306 692 
L 1306 1984 
L 1664 1984 
L 3187 0 
L 4218 0 
L 4218 121 
z
M 1306 3762 
C 1306 3937 1376 3987 1632 3987 
C 2432 3987 2803 3716 2803 3123 
C 2803 2807 2669 2542 2438 2423 
C 2144 2258 1920 2221 1306 2221 
L 1306 3762 
z
" transform="scale(0.015625)"/>
      <path id="NimbusRomNo9L-Regu-76" d="M 3053 2854 
L 2163 2854 
L 2163 2758 
C 2368 2739 2464 2675 2464 2552 
C 2464 2488 2451 2424 2426 2359 
L 1792 695 
L 1139 2340 
C 1101 2431 1082 2520 1082 2578 
C 1082 2694 1152 2739 1376 2758 
L 1376 2854 
L 122 2854 
L 122 2752 
C 365 2752 410 2688 704 2024 
L 1472 175 
C 1485 137 1504 91 1523 40 
C 1562 -76 1600 -128 1638 -128 
C 1677 -128 1722 -44 1818 193 
L 2637 2257 
C 2822 2694 2861 2739 3053 2758 
L 3053 2854 
z
" transform="scale(0.015625)"/>
      <path id="NimbusRomNo9L-Regu-78" d="M 1779 0 
L 3066 0 
L 3066 96 
C 2867 96 2739 198 2541 480 
L 1722 1735 
L 2253 2502 
C 2374 2675 2566 2778 2771 2778 
L 2771 2880 
L 1760 2880 
L 1760 2778 
C 1952 2778 2016 2740 2016 2649 
C 2016 2571 1939 2430 1779 2229 
C 1747 2191 1670 2075 1587 1946 
L 1498 2074 
C 1318 2342 1203 2560 1203 2643 
C 1203 2733 1286 2778 1478 2778 
L 1478 2880 
L 154 2880 
L 154 2778 
L 211 2778 
C 403 2778 506 2695 704 2396 
L 1306 1479 
L 576 422 
C 384 160 320 115 109 96 
L 109 0 
L 1037 0 
L 1037 96 
C 858 96 781 128 781 211 
C 781 250 826 346 909 474 
L 1414 1261 
L 1997 365 
C 2022 326 2035 288 2035 250 
C 2035 123 1990 96 1779 96 
L 1779 0 
z
" transform="scale(0.015625)"/>
      <path id="NimbusRomNo9L-Regu-6f" d="M 1600 2944 
C 768 2944 186 2330 186 1446 
C 186 582 781 -64 1587 -64 
C 2394 -64 3008 614 3008 1498 
C 3008 2336 2419 2944 1600 2944 
z
M 1517 2765 
C 2054 2765 2432 2150 2432 1274 
C 2432 550 2144 115 1664 115 
C 1414 115 1178 269 1043 525 
C 864 858 762 1306 762 1760 
C 762 2368 1062 2765 1517 2765 
z
" transform="scale(0.015625)"/>
      <path id="NimbusRomNo9L-Regu-77" d="M 3654 2912 
L 3654 2816 
C 3872 2771 3936 2726 3936 2618 
C 3936 2521 3898 2367 3827 2194 
L 3251 770 
L 2714 2207 
C 2605 2501 2605 2501 2605 2586 
C 2605 2726 2675 2771 2976 2816 
L 2976 2912 
L 1677 2912 
L 1677 2816 
C 1914 2790 1990 2720 2118 2373 
C 2163 2252 2208 2129 2246 2014 
L 1664 738 
L 1030 2412 
C 1005 2476 992 2540 992 2605 
C 992 2739 1069 2790 1286 2816 
L 1286 2912 
L 134 2912 
L 134 2816 
C 282 2803 333 2739 474 2412 
L 1338 219 
C 1414 26 1466 -64 1504 -64 
C 1536 -64 1587 20 1664 186 
L 2381 1725 
L 2963 212 
C 3053 -25 3078 -64 3117 -64 
C 3162 -64 3194 -6 3296 251 
L 4179 2469 
C 4294 2739 4314 2771 4442 2816 
L 4442 2912 
L 3654 2912 
z
" transform="scale(0.015625)"/>
      <path id="NimbusRomNo9L-Regu-72" d="M 45 2496 
C 134 2515 192 2522 269 2522 
C 429 2522 486 2419 486 2138 
L 486 538 
C 486 218 442 173 32 96 
L 32 0 
L 1568 0 
L 1568 102 
C 1133 102 1024 199 1024 565 
L 1024 2013 
C 1024 2219 1299 2541 1472 2541 
C 1510 2541 1568 2509 1638 2445 
C 1741 2355 1811 2317 1894 2317 
C 2048 2317 2144 2426 2144 2605 
C 2144 2816 2010 2944 1792 2944 
C 1523 2944 1338 2797 1024 2343 
L 1024 2931 
L 992 2944 
C 653 2803 422 2721 45 2599 
L 45 2496 
z
" transform="scale(0.015625)"/>
      <path id="NimbusRomNo9L-Regu-66" d="M 1978 2880 
L 1190 2880 
L 1190 3611 
C 1190 3978 1312 4173 1555 4173 
C 1690 4173 1779 4110 1894 3927 
C 1997 3763 2074 3700 2182 3700 
C 2330 3700 2451 3814 2451 3959 
C 2451 4188 2170 4352 1786 4352 
C 1389 4352 1050 4181 883 3891 
C 717 3613 666 3385 659 2880 
L 134 2880 
L 134 2675 
L 659 2675 
L 659 656 
C 659 185 589 109 128 109 
L 128 0 
L 1792 0 
L 1792 109 
C 1267 109 1197 180 1197 661 
L 1197 2675 
L 1978 2675 
L 1978 2880 
z
" transform="scale(0.015625)"/>
     </defs>
     <use xlink:href="#NimbusRomNo9L-Regu-52" transform="scale(0.996264)"/>
     <use xlink:href="#NimbusRomNo9L-Regu-65" transform="translate(66.450031 0) scale(0.996264)"/>
     <use xlink:href="#NimbusRomNo9L-Regu-63" transform="translate(110.6836 0) scale(0.996264)"/>
     <use xlink:href="#NimbusRomNo9L-Regu-65" transform="translate(154.917169 0) scale(0.996264)"/>
     <use xlink:href="#NimbusRomNo9L-Regu-69" transform="translate(199.150737 0) scale(0.996264)"/>
     <use xlink:href="#NimbusRomNo9L-Regu-76" transform="translate(224.355277 0) scale(0.996264)"/>
     <use xlink:href="#NimbusRomNo9L-Regu-65" transform="translate(272.675085 0) scale(0.996264)"/>
     <use xlink:href="#NimbusRomNo9L-Regu-64" transform="translate(316.908654 0) scale(0.996264)"/>
     <use xlink:href="#NimbusRomNo9L-Regu-6d" transform="translate(391.628454 0) scale(0.996264)"/>
     <use xlink:href="#NimbusRomNo9L-Regu-61" transform="translate(469.136825 0) scale(0.996264)"/>
     <use xlink:href="#NimbusRomNo9L-Regu-78" transform="translate(513.370393 0) scale(0.996264)"/>
     <use xlink:href="#NimbusRomNo9L-Regu-69" transform="translate(563.183594 0) scale(0.996264)"/>
     <use xlink:href="#NimbusRomNo9L-Regu-6d" transform="translate(590.878763 0) scale(0.996264)"/>
     <use xlink:href="#NimbusRomNo9L-Regu-75" transform="translate(668.387133 0) scale(0.996264)"/>
     <use xlink:href="#NimbusRomNo9L-Regu-6d" transform="translate(718.200334 0) scale(0.996264)"/>
     <use xlink:href="#NimbusRomNo9L-Regu-61" transform="translate(820.615304 0) scale(0.996264)"/>
     <use xlink:href="#NimbusRomNo9L-Regu-6e" transform="translate(864.848873 0) scale(0.996264)"/>
     <use xlink:href="#NimbusRomNo9L-Regu-64" transform="translate(914.662073 0) scale(0.996264)"/>
     <use xlink:href="#NimbusRomNo9L-Regu-6d" transform="translate(989.381874 0) scale(0.996264)"/>
     <use xlink:href="#NimbusRomNo9L-Regu-69" transform="translate(1066.890244 0) scale(0.996264)"/>
     <use xlink:href="#NimbusRomNo9L-Regu-6e" transform="translate(1094.585414 0) scale(0.996264)"/>
     <use xlink:href="#NimbusRomNo9L-Regu-69" transform="translate(1144.398614 0) scale(0.996264)"/>
     <use xlink:href="#NimbusRomNo9L-Regu-6d" transform="translate(1172.093784 0) scale(0.996264)"/>
     <use xlink:href="#NimbusRomNo9L-Regu-75" transform="translate(1249.602154 0) scale(0.996264)"/>
     <use xlink:href="#NimbusRomNo9L-Regu-6d" transform="translate(1299.415355 0) scale(0.996264)"/>
     <use xlink:href="#NimbusRomNo9L-Regu-70" transform="translate(1401.830325 0) scale(0.996264)"/>
     <use xlink:href="#NimbusRomNo9L-Regu-6f" transform="translate(1451.643526 0) scale(0.996264)"/>
     <use xlink:href="#NimbusRomNo9L-Regu-77" transform="translate(1498.966096 0) scale(0.996264)"/>
     <use xlink:href="#NimbusRomNo9L-Regu-65" transform="translate(1570.896081 0) scale(0.996264)"/>
     <use xlink:href="#NimbusRomNo9L-Regu-72" transform="translate(1615.12965 0) scale(0.996264)"/>
     <use xlink:href="#NimbusRomNo9L-Regu-61" transform="translate(1673.21148 0) scale(0.996264)"/>
     <use xlink:href="#NimbusRomNo9L-Regu-74" transform="translate(1717.445049 0) scale(0.996264)"/>
     <use xlink:href="#NimbusRomNo9L-Regu-64" transform="translate(1770.046818 0) scale(0.996264)"/>
     <use xlink:href="#NimbusRomNo9L-Regu-69" transform="translate(1819.860019 0) scale(0.996264)"/>
     <use xlink:href="#NimbusRomNo9L-Regu-66" transform="translate(1847.555189 0) scale(0.996264)"/>
     <use xlink:href="#NimbusRomNo9L-Regu-66" transform="translate(1878.239789 0) scale(0.996264)"/>
     <use xlink:href="#NimbusRomNo9L-Regu-65" transform="translate(1911.414836 0) scale(0.996264)"/>
     <use xlink:href="#NimbusRomNo9L-Regu-72" transform="translate(1955.648405 0) scale(0.996264)"/>
     <use xlink:href="#NimbusRomNo9L-Regu-65" transform="translate(1988.823634 0) scale(0.996264)"/>
     <use xlink:href="#NimbusRomNo9L-Regu-6e" transform="translate(2033.057203 0) scale(0.996264)"/>
     <use xlink:href="#NimbusRomNo9L-Regu-74" transform="translate(2082.870404 0) scale(0.996264)"/>
     <use xlink:href="#NimbusRomNo9L-Regu-64" transform="translate(2135.472173 0) scale(0.996264)"/>
     <use xlink:href="#NimbusRomNo9L-Regu-69" transform="translate(2185.285374 0) scale(0.996264)"/>
     <use xlink:href="#NimbusRomNo9L-Regu-73" transform="translate(2212.980544 0) scale(0.996264)"/>
     <use xlink:href="#NimbusRomNo9L-Regu-74" transform="translate(2251.73425 0) scale(0.996264)"/>
     <use xlink:href="#NimbusRomNo9L-Regu-61" transform="translate(2279.429419 0) scale(0.996264)"/>
     <use xlink:href="#NimbusRomNo9L-Regu-6e" transform="translate(2323.662988 0) scale(0.996264)"/>
     <use xlink:href="#NimbusRomNo9L-Regu-63" transform="translate(2373.476189 0) scale(0.996264)"/>
     <use xlink:href="#NimbusRomNo9L-Regu-65" transform="translate(2417.709757 0) scale(0.996264)"/>
     <use xlink:href="#NimbusRomNo9L-Regu-73" transform="translate(2461.943326 0) scale(0.996264)"/>
    </g>
   </g>
  </g>
 </g>
 <defs>
  <clipPath id="p798919c976">
   <rect x="31.563388" y="16.084396" width="184.14" height="138.6"/>
  </clipPath>
 </defs>
</svg>
