<?xml version="1.0" encoding="utf-8" standalone="no"?>
<!DOCTYPE svg PUBLIC "-//W3C//DTD SVG 1.1//EN"
  "http://www.w3.org/Graphics/SVG/1.1/DTD/svg11.dtd">
<svg xmlns:xlink="http://www.w3.org/1999/xlink" width="460.8pt" height="345.6pt" viewBox="0 0 460.8 345.6" xmlns="http://www.w3.org/2000/svg" version="1.1">
 <metadata>
  <rdf:RDF xmlns:dc="http://purl.org/dc/elements/1.1/" xmlns:cc="http://creativecommons.org/ns#" xmlns:rdf="http://www.w3.org/1999/02/22-rdf-syntax-ns#">
   <cc:Work>
    <dc:type rdf:resource="http://purl.org/dc/dcmitype/StillImage"/>
    <dc:date>2025-02-28T13:20:48.677992</dc:date>
    <dc:format>image/svg+xml</dc:format>
    <dc:creator>
     <cc:Agent>
      <dc:title>Matplotlib v3.9.2, https://matplotlib.org/</dc:title>
     </cc:Agent>
    </dc:creator>
   </cc:Work>
  </rdf:RDF>
 </metadata>
 <defs>
  <style type="text/css">*{stroke-linejoin: round; stroke-linecap: butt}</style>
 </defs>
 <g id="figure_1">
  <g id="patch_1">
   <path d="M 0 345.6 
L 460.8 345.6 
L 460.8 0 
L 0 0 
L 0 345.6 
z
" style="fill: none"/>
  </g>
  <g id="axes_1">
   <g id="patch_2">
    <path d="M 57.6 307.584 
L 414.72 307.584 
L 414.72 41.472 
L 57.6 41.472 
L 57.6 307.584 
z
" style="fill: none"/>
   </g>
   <g id="matplotlib.axis_1">
    <g id="xtick_1">
     <g id="line2d_1">
      <defs>
       <path id="m591675957d" d="M 0 0 
L 0 3.5 
" style="stroke: #000000; stroke-width: 0.8"/>
      </defs>
      <g>
       <use xlink:href="#m591675957d" x="106.311173" y="307.584" style="stroke: #000000; stroke-width: 0.8"/>
      </g>
     </g>
     <g id="text_1">
      <!-- −1.0 -->
      <g transform="translate(94.169767 322.182437) scale(0.1 -0.1)">
       <defs>
        <path id="DejaVuSans-2212" d="M 678 2272 
L 4684 2272 
L 4684 1741 
L 678 1741 
L 678 2272 
z
" transform="scale(0.015625)"/>
        <path id="DejaVuSans-31" d="M 794 531 
L 1825 531 
L 1825 4091 
L 703 3866 
L 703 4441 
L 1819 4666 
L 2450 4666 
L 2450 531 
L 3481 531 
L 3481 0 
L 794 0 
L 794 531 
z
" transform="scale(0.015625)"/>
        <path id="DejaVuSans-2e" d="M 684 794 
L 1344 794 
L 1344 0 
L 684 0 
L 684 794 
z
" transform="scale(0.015625)"/>
        <path id="DejaVuSans-30" d="M 2034 4250 
Q 1547 4250 1301 3770 
Q 1056 3291 1056 2328 
Q 1056 1369 1301 889 
Q 1547 409 2034 409 
Q 2525 409 2770 889 
Q 3016 1369 3016 2328 
Q 3016 3291 2770 3770 
Q 2525 4250 2034 4250 
z
M 2034 4750 
Q 2819 4750 3233 4129 
Q 3647 3509 3647 2328 
Q 3647 1150 3233 529 
Q 2819 -91 2034 -91 
Q 1250 -91 836 529 
Q 422 1150 422 2328 
Q 422 3509 836 4129 
Q 1250 4750 2034 4750 
z
" transform="scale(0.015625)"/>
       </defs>
       <use xlink:href="#DejaVuSans-2212"/>
       <use xlink:href="#DejaVuSans-31" x="83.789062"/>
       <use xlink:href="#DejaVuSans-2e" x="147.412109"/>
       <use xlink:href="#DejaVuSans-30" x="179.199219"/>
      </g>
     </g>
    </g>
    <g id="xtick_2">
     <g id="line2d_2">
      <g>
       <use xlink:href="#m591675957d" x="171.268065" y="307.584" style="stroke: #000000; stroke-width: 0.8"/>
      </g>
     </g>
     <g id="text_2">
      <!-- −0.5 -->
      <g transform="translate(159.126659 322.182437) scale(0.1 -0.1)">
       <defs>
        <path id="DejaVuSans-35" d="M 691 4666 
L 3169 4666 
L 3169 4134 
L 1269 4134 
L 1269 2991 
Q 1406 3038 1543 3061 
Q 1681 3084 1819 3084 
Q 2600 3084 3056 2656 
Q 3513 2228 3513 1497 
Q 3513 744 3044 326 
Q 2575 -91 1722 -91 
Q 1428 -91 1123 -41 
Q 819 9 494 109 
L 494 744 
Q 775 591 1075 516 
Q 1375 441 1709 441 
Q 2250 441 2565 725 
Q 2881 1009 2881 1497 
Q 2881 1984 2565 2268 
Q 2250 2553 1709 2553 
Q 1456 2553 1204 2497 
Q 953 2441 691 2322 
L 691 4666 
z
" transform="scale(0.015625)"/>
       </defs>
       <use xlink:href="#DejaVuSans-2212"/>
       <use xlink:href="#DejaVuSans-30" x="83.789062"/>
       <use xlink:href="#DejaVuSans-2e" x="147.412109"/>
       <use xlink:href="#DejaVuSans-35" x="179.199219"/>
      </g>
     </g>
    </g>
    <g id="xtick_3">
     <g id="line2d_3">
      <g>
       <use xlink:href="#m591675957d" x="236.224957" y="307.584" style="stroke: #000000; stroke-width: 0.8"/>
      </g>
     </g>
     <g id="text_3">
      <!-- 0.0 -->
      <g transform="translate(228.273394 322.182437) scale(0.1 -0.1)">
       <use xlink:href="#DejaVuSans-30"/>
       <use xlink:href="#DejaVuSans-2e" x="63.623047"/>
       <use xlink:href="#DejaVuSans-30" x="95.410156"/>
      </g>
     </g>
    </g>
    <g id="xtick_4">
     <g id="line2d_4">
      <g>
       <use xlink:href="#m591675957d" x="301.181849" y="307.584" style="stroke: #000000; stroke-width: 0.8"/>
      </g>
     </g>
     <g id="text_4">
      <!-- 0.5 -->
      <g transform="translate(293.230286 322.182437) scale(0.1 -0.1)">
       <use xlink:href="#DejaVuSans-30"/>
       <use xlink:href="#DejaVuSans-2e" x="63.623047"/>
       <use xlink:href="#DejaVuSans-35" x="95.410156"/>
      </g>
     </g>
    </g>
    <g id="xtick_5">
     <g id="line2d_5">
      <g>
       <use xlink:href="#m591675957d" x="366.138741" y="307.584" style="stroke: #000000; stroke-width: 0.8"/>
      </g>
     </g>
     <g id="text_5">
      <!-- 1.0 -->
      <g transform="translate(358.187178 322.182437) scale(0.1 -0.1)">
       <use xlink:href="#DejaVuSans-31"/>
       <use xlink:href="#DejaVuSans-2e" x="63.623047"/>
       <use xlink:href="#DejaVuSans-30" x="95.410156"/>
      </g>
     </g>
    </g>
    <g id="text_6">
     <!-- ns -->
     <g transform="translate(230.386562 335.860562) scale(0.1 -0.1)">
      <defs>
       <path id="DejaVuSans-6e" d="M 3513 2113 
L 3513 0 
L 2938 0 
L 2938 2094 
Q 2938 2591 2744 2837 
Q 2550 3084 2163 3084 
Q 1697 3084 1428 2787 
Q 1159 2491 1159 1978 
L 1159 0 
L 581 0 
L 581 3500 
L 1159 3500 
L 1159 2956 
Q 1366 3272 1645 3428 
Q 1925 3584 2291 3584 
Q 2894 3584 3203 3211 
Q 3513 2838 3513 2113 
z
" transform="scale(0.015625)"/>
       <path id="DejaVuSans-73" d="M 2834 3397 
L 2834 2853 
Q 2591 2978 2328 3040 
Q 2066 3103 1784 3103 
Q 1356 3103 1142 2972 
Q 928 2841 928 2578 
Q 928 2378 1081 2264 
Q 1234 2150 1697 2047 
L 1894 2003 
Q 2506 1872 2764 1633 
Q 3022 1394 3022 966 
Q 3022 478 2636 193 
Q 2250 -91 1575 -91 
Q 1294 -91 989 -36 
Q 684 19 347 128 
L 347 722 
Q 666 556 975 473 
Q 1284 391 1588 391 
Q 1994 391 2212 530 
Q 2431 669 2431 922 
Q 2431 1156 2273 1281 
Q 2116 1406 1581 1522 
L 1381 1569 
Q 847 1681 609 1914 
Q 372 2147 372 2553 
Q 372 3047 722 3315 
Q 1072 3584 1716 3584 
Q 2034 3584 2315 3537 
Q 2597 3491 2834 3397 
z
" transform="scale(0.015625)"/>
      </defs>
      <use xlink:href="#DejaVuSans-6e"/>
      <use xlink:href="#DejaVuSans-73" x="63.378906"/>
     </g>
    </g>
    <g id="text_7">
     <!-- 1e−7 -->
     <g transform="translate(387.462188 334.860562) scale(0.1 -0.1)">
      <defs>
       <path id="DejaVuSans-65" d="M 3597 1894 
L 3597 1613 
L 953 1613 
Q 991 1019 1311 708 
Q 1631 397 2203 397 
Q 2534 397 2845 478 
Q 3156 559 3463 722 
L 3463 178 
Q 3153 47 2828 -22 
Q 2503 -91 2169 -91 
Q 1331 -91 842 396 
Q 353 884 353 1716 
Q 353 2575 817 3079 
Q 1281 3584 2069 3584 
Q 2775 3584 3186 3129 
Q 3597 2675 3597 1894 
z
M 3022 2063 
Q 3016 2534 2758 2815 
Q 2500 3097 2075 3097 
Q 1594 3097 1305 2825 
Q 1016 2553 972 2059 
L 3022 2063 
z
" transform="scale(0.015625)"/>
       <path id="DejaVuSans-37" d="M 525 4666 
L 3525 4666 
L 3525 4397 
L 1831 0 
L 1172 0 
L 2766 4134 
L 525 4134 
L 525 4666 
z
" transform="scale(0.015625)"/>
      </defs>
      <use xlink:href="#DejaVuSans-31"/>
      <use xlink:href="#DejaVuSans-65" x="63.623047"/>
      <use xlink:href="#DejaVuSans-2212" x="125.146484"/>
      <use xlink:href="#DejaVuSans-37" x="208.935547"/>
     </g>
    </g>
   </g>
   <g id="matplotlib.axis_2">
    <g id="ytick_1">
     <g id="line2d_6">
      <defs>
       <path id="mf20fcc9e33" d="M 0 0 
L -3.5 0 
" style="stroke: #000000; stroke-width: 0.8"/>
      </defs>
      <g>
       <use xlink:href="#mf20fcc9e33" x="57.6" y="289.861953" style="stroke: #000000; stroke-width: 0.8"/>
      </g>
     </g>
     <g id="text_8">
      <!-- 0 -->
      <g transform="translate(44.2375 293.661172) scale(0.1 -0.1)">
       <use xlink:href="#DejaVuSans-30"/>
      </g>
     </g>
    </g>
    <g id="ytick_2">
     <g id="line2d_7">
      <g>
       <use xlink:href="#mf20fcc9e33" x="57.6" y="242.978233" style="stroke: #000000; stroke-width: 0.8"/>
      </g>
     </g>
     <g id="text_9">
      <!-- 1 -->
      <g transform="translate(44.2375 246.777451) scale(0.1 -0.1)">
       <use xlink:href="#DejaVuSans-31"/>
      </g>
     </g>
    </g>
    <g id="ytick_3">
     <g id="line2d_8">
      <g>
       <use xlink:href="#mf20fcc9e33" x="57.6" y="196.094512" style="stroke: #000000; stroke-width: 0.8"/>
      </g>
     </g>
     <g id="text_10">
      <!-- 2 -->
      <g transform="translate(44.2375 199.89373) scale(0.1 -0.1)">
       <defs>
        <path id="DejaVuSans-32" d="M 1228 531 
L 3431 531 
L 3431 0 
L 469 0 
L 469 531 
Q 828 903 1448 1529 
Q 2069 2156 2228 2338 
Q 2531 2678 2651 2914 
Q 2772 3150 2772 3378 
Q 2772 3750 2511 3984 
Q 2250 4219 1831 4219 
Q 1534 4219 1204 4116 
Q 875 4013 500 3803 
L 500 4441 
Q 881 4594 1212 4672 
Q 1544 4750 1819 4750 
Q 2544 4750 2975 4387 
Q 3406 4025 3406 3419 
Q 3406 3131 3298 2873 
Q 3191 2616 2906 2266 
Q 2828 2175 2409 1742 
Q 1991 1309 1228 531 
z
" transform="scale(0.015625)"/>
       </defs>
       <use xlink:href="#DejaVuSans-32"/>
      </g>
     </g>
    </g>
    <g id="ytick_4">
     <g id="line2d_9">
      <g>
       <use xlink:href="#mf20fcc9e33" x="57.6" y="149.210791" style="stroke: #000000; stroke-width: 0.8"/>
      </g>
     </g>
     <g id="text_11">
      <!-- 3 -->
      <g transform="translate(44.2375 153.010009) scale(0.1 -0.1)">
       <defs>
        <path id="DejaVuSans-33" d="M 2597 2516 
Q 3050 2419 3304 2112 
Q 3559 1806 3559 1356 
Q 3559 666 3084 287 
Q 2609 -91 1734 -91 
Q 1441 -91 1130 -33 
Q 819 25 488 141 
L 488 750 
Q 750 597 1062 519 
Q 1375 441 1716 441 
Q 2309 441 2620 675 
Q 2931 909 2931 1356 
Q 2931 1769 2642 2001 
Q 2353 2234 1838 2234 
L 1294 2234 
L 1294 2753 
L 1863 2753 
Q 2328 2753 2575 2939 
Q 2822 3125 2822 3475 
Q 2822 3834 2567 4026 
Q 2313 4219 1838 4219 
Q 1578 4219 1281 4162 
Q 984 4106 628 3988 
L 628 4550 
Q 988 4650 1302 4700 
Q 1616 4750 1894 4750 
Q 2613 4750 3031 4423 
Q 3450 4097 3450 3541 
Q 3450 3153 3228 2886 
Q 3006 2619 2597 2516 
z
" transform="scale(0.015625)"/>
       </defs>
       <use xlink:href="#DejaVuSans-33"/>
      </g>
     </g>
    </g>
    <g id="ytick_5">
     <g id="line2d_10">
      <g>
       <use xlink:href="#mf20fcc9e33" x="57.6" y="102.32707" style="stroke: #000000; stroke-width: 0.8"/>
      </g>
     </g>
     <g id="text_12">
      <!-- 4 -->
      <g transform="translate(44.2375 106.126289) scale(0.1 -0.1)">
       <defs>
        <path id="DejaVuSans-34" d="M 2419 4116 
L 825 1625 
L 2419 1625 
L 2419 4116 
z
M 2253 4666 
L 3047 4666 
L 3047 1625 
L 3713 1625 
L 3713 1100 
L 3047 1100 
L 3047 0 
L 2419 0 
L 2419 1100 
L 313 1100 
L 313 1709 
L 2253 4666 
z
" transform="scale(0.015625)"/>
       </defs>
       <use xlink:href="#DejaVuSans-34"/>
      </g>
     </g>
    </g>
    <g id="ytick_6">
     <g id="line2d_11">
      <g>
       <use xlink:href="#mf20fcc9e33" x="57.6" y="55.443349" style="stroke: #000000; stroke-width: 0.8"/>
      </g>
     </g>
     <g id="text_13">
      <!-- 5 -->
      <g transform="translate(44.2375 59.242568) scale(0.1 -0.1)">
       <use xlink:href="#DejaVuSans-35"/>
      </g>
     </g>
    </g>
    <g id="text_14">
     <!-- V -->
     <g transform="translate(38.157812 177.948312) rotate(-90) scale(0.1 -0.1)">
      <defs>
       <path id="DejaVuSans-56" d="M 1831 0 
L 50 4666 
L 709 4666 
L 2188 738 
L 3669 4666 
L 4325 4666 
L 2547 0 
L 1831 0 
z
" transform="scale(0.015625)"/>
      </defs>
      <use xlink:href="#DejaVuSans-56"/>
     </g>
    </g>
   </g>
   <g id="line2d_12">
    <path d="M 73.832727 291.737302 
L 74.352382 291.737302 
L 74.482296 293.612651 
L 75.131865 293.612651 
L 75.261779 295.488 
L 75.391693 295.488 
L 75.521606 293.612651 
L 76.171175 293.612651 
L 76.301089 291.737302 
L 77.600227 291.737302 
L 77.730141 293.612651 
L 80.068589 293.612651 
L 80.198503 291.737302 
L 81.107899 291.737302 
L 81.237813 289.861953 
L 81.367727 289.861953 
L 81.497641 287.986605 
L 81.627554 287.986605 
L 81.757468 289.861953 
L 82.666865 289.861953 
L 82.796778 287.986605 
L 82.926692 289.861953 
L 83.576261 289.861953 
L 83.706175 291.737302 
L 83.836089 291.737302 
L 83.966002 289.861953 
L 84.615571 289.861953 
L 84.745485 287.986605 
L 84.875399 289.861953 
L 86.044623 289.861953 
L 86.174537 291.737302 
L 86.824106 291.737302 
L 86.954019 293.612651 
L 87.083933 293.612651 
L 87.213847 291.737302 
L 87.863416 291.737302 
L 87.99333 289.861953 
L 88.642899 289.861953 
L 88.772812 291.737302 
L 89.812123 291.737302 
L 89.942036 289.861953 
L 95.138588 289.861953 
L 95.268502 291.737302 
L 95.918071 291.737302 
L 96.047984 293.612651 
L 96.177898 293.612651 
L 96.307812 291.737302 
L 96.957381 291.737302 
L 97.087295 289.861953 
L 97.217208 289.861953 
L 97.347122 291.737302 
L 97.736863 291.737302 
L 97.866777 293.612651 
L 98.906088 293.612651 
L 99.036001 291.737302 
L 99.425743 291.737302 
L 99.555656 289.861953 
L 99.68557 289.861953 
L 99.815484 291.737302 
L 103.45307 291.737302 
L 103.582984 289.861953 
L 105.53169 289.861953 
L 105.661604 291.737302 
L 106.700915 291.737302 
L 106.830828 289.861953 
L 107.480397 289.861953 
L 107.610311 291.737302 
L 108.649621 291.737302 
L 108.779535 289.861953 
L 109.429104 289.861953 
L 109.559018 291.737302 
L 112.547035 291.737302 
L 112.676949 289.861953 
L 113.326518 289.861953 
L 113.456431 291.737302 
L 115.275224 291.737302 
L 115.405138 293.612651 
L 116.444448 293.612651 
L 116.574362 291.737302 
L 116.964103 291.737302 
L 117.094017 289.861953 
L 117.223931 289.861953 
L 117.353845 291.737302 
L 120.471776 291.737302 
L 120.601689 293.612651 
L 121.251258 293.612651 
L 121.381172 295.488 
L 121.511086 295.488 
L 121.641 293.612651 
L 122.290569 293.612651 
L 122.420482 291.737302 
L 122.810224 291.737302 
L 122.940138 289.861953 
L 123.070051 289.861953 
L 123.199965 291.737302 
L 124.239275 291.737302 
L 124.369189 289.861953 
L 125.668327 289.861953 
L 125.798241 291.737302 
L 126.837551 291.737302 
L 126.967465 289.861953 
L 127.097379 289.861953 
L 127.227292 291.737302 
L 127.617034 291.737302 
L 127.746948 293.612651 
L 128.786258 293.612651 
L 128.916172 291.737302 
L 129.435827 291.737302 
L 129.56574 289.861953 
L 130.215309 289.861953 
L 130.345223 291.737302 
L 132.683671 291.737302 
L 132.813585 289.861953 
L 132.943499 289.861953 
L 133.073413 291.737302 
L 133.463154 291.737302 
L 133.593068 293.612651 
L 134.632378 293.612651 
L 134.762292 291.737302 
L 135.411861 291.737302 
L 135.541775 293.612651 
L 136.06143 293.612651 
L 136.191343 295.488 
L 136.581085 295.488 
L 136.710999 293.612651 
L 136.970826 293.612651 
L 137.10074 291.737302 
L 137.230654 291.737302 
L 137.360567 289.861953 
L 137.490481 289.861953 
L 137.620395 291.737302 
L 138.14005 291.737302 
L 138.269964 293.612651 
L 138.399878 293.612651 
L 138.529792 291.737302 
L 139.17936 291.737302 
L 139.309274 289.861953 
L 139.958843 289.861953 
L 140.088757 291.737302 
L 141.128067 291.737302 
L 141.257981 289.861953 
L 143.206688 289.861953 
L 143.336602 291.737302 
L 144.375912 291.737302 
L 144.505826 289.861953 
L 146.454532 289.861953 
L 146.584446 291.737302 
L 147.234015 291.737302 
L 147.363929 293.612651 
L 147.493843 293.612651 
L 147.623756 291.737302 
L 148.273325 291.737302 
L 148.403239 289.861953 
L 149.052808 289.861953 
L 149.182722 291.737302 
L 150.222032 291.737302 
L 150.351946 289.861953 
L 151.001515 289.861953 
L 151.131429 291.737302 
L 151.780997 291.737302 
L 151.910911 293.612651 
L 152.040825 293.612651 
L 152.170739 291.737302 
L 152.820308 291.737302 
L 152.950222 289.861953 
L 153.59979 289.861953 
L 153.729704 291.737302 
L 154.379273 291.737302 
L 154.509187 293.612651 
L 154.639101 293.612651 
L 154.769015 291.737302 
L 155.418583 291.737302 
L 155.548497 289.861953 
L 156.198066 289.861953 
L 156.32798 291.737302 
L 161.394617 291.737302 
L 161.524531 293.612651 
L 162.1741 293.612651 
L 162.304014 295.488 
L 162.433928 295.488 
L 162.563842 293.612651 
L 163.21341 293.612651 
L 163.343324 291.737302 
L 163.862979 291.737302 
L 163.992893 289.861953 
L 164.642462 289.861953 
L 164.772376 291.737302 
L 165.811686 291.737302 
L 165.9416 289.861953 
L 166.591169 289.861953 
L 166.721083 291.737302 
L 167.760393 291.737302 
L 167.890307 289.861953 
L 169.059531 289.861953 
L 169.189445 287.986605 
L 169.839013 287.986605 
L 169.968927 289.861953 
L 170.098841 289.861953 
L 170.228755 291.737302 
L 171.008237 291.737302 
L 171.138151 289.861953 
L 171.78772 289.861953 
L 171.917634 291.737302 
L 172.956944 291.737302 
L 173.086858 289.861953 
L 173.216772 291.737302 
L 176.984272 291.737302 
L 177.114185 293.612651 
L 177.63384 293.612651 
L 177.763754 295.488 
L 178.153496 295.488 
L 178.283409 293.612651 
L 178.543237 293.612651 
L 178.673151 291.737302 
L 178.803064 291.737302 
L 178.932978 289.861953 
L 179.582547 289.861953 
L 179.712461 291.737302 
L 179.842375 291.737302 
L 179.972289 293.612651 
L 180.751771 293.612651 
L 180.881685 291.737302 
L 181.531254 291.737302 
L 181.661168 293.612651 
L 182.310737 293.612651 
L 182.44065 295.488 
L 182.570564 295.488 
L 182.700478 293.612651 
L 183.350047 293.612651 
L 183.479961 291.737302 
L 184.779099 291.737302 
L 184.909012 293.612651 
L 185.948323 293.612651 
L 186.078236 291.737302 
L 186.467978 291.737302 
L 186.597892 289.861953 
L 186.727805 289.861953 
L 186.857719 291.737302 
L 186.987633 291.737302 
L 187.117547 293.612651 
L 187.377374 293.612651 
L 187.507288 295.488 
L 187.897029 295.488 
L 188.026943 293.612651 
L 188.286771 293.612651 
L 188.416684 291.737302 
L 188.546598 291.737302 
L 188.676512 289.861953 
L 191.924357 289.861953 
L 192.05427 291.737302 
L 195.172201 291.737302 
L 195.302115 293.612651 
L 196.341425 293.612651 
L 196.471339 291.737302 
L 196.86108 291.737302 
L 196.990994 289.861953 
L 197.120908 289.861953 
L 197.250822 291.737302 
L 202.837114 291.737302 
L 202.967028 289.861953 
L 203.096942 291.737302 
L 208.683235 291.737302 
L 208.813149 289.861953 
L 209.982373 289.861953 
L 210.112286 287.986605 
L 211.411424 287.986605 
L 211.541338 289.861953 
L 212.060993 289.861953 
L 212.190907 291.737302 
L 213.230217 291.737302 
L 213.360131 289.861953 
L 213.490045 291.737302 
L 214.139614 291.737302 
L 214.269527 293.612651 
L 214.399441 293.612651 
L 214.529355 291.737302 
L 215.178924 291.737302 
L 215.308838 289.861953 
L 215.438752 291.737302 
L 216.607976 291.737302 
L 216.737889 293.612651 
L 217.517372 293.612651 
L 217.647286 291.737302 
L 217.7772 291.737302 
L 217.907113 289.861953 
L 218.556682 289.861953 
L 218.686596 291.737302 
L 219.725906 291.737302 
L 219.85582 289.861953 
L 220.505389 289.861953 
L 220.635303 291.737302 
L 221.674613 291.737302 
L 221.804527 289.861953 
L 222.454096 289.861953 
L 222.58401 291.737302 
L 223.62332 291.737302 
L 223.753234 289.861953 
L 223.883147 291.737302 
L 224.922458 291.737302 
L 225.052371 289.861953 
L 225.70194 289.861953 
L 225.831854 291.737302 
L 226.351509 291.737302 
L 226.481423 293.612651 
L 227.520733 293.612651 
L 227.650647 291.737302 
L 228.300216 291.737302 
L 228.43013 293.612651 
L 229.729268 293.612651 
L 229.859181 295.488 
L 229.989095 295.488 
L 230.119009 293.612651 
L 230.50875 293.612651 
L 230.638664 291.737302 
L 230.768578 291.737302 
L 230.898492 289.861953 
L 233.366854 289.861953 
L 233.496767 287.986605 
L 233.626681 287.986605 
L 233.756595 289.861953 
L 234.146336 289.861953 
L 234.27625 291.737302 
L 235.055733 291.737302 
L 235.185647 289.861953 
L 235.31556 289.861953 
L 235.445474 287.986605 
L 236.095043 287.986605 
L 236.224957 289.861953 
L 236.354871 289.861953 
L 236.484784 291.737302 
L 237.264267 291.737302 
L 237.394181 289.861953 
L 237.524095 291.737302 
L 238.563405 291.737302 
L 238.693319 289.861953 
L 238.823233 291.737302 
L 239.862543 291.737302 
L 239.992457 289.861953 
L 241.941163 289.861953 
L 242.071077 291.737302 
L 243.110387 291.737302 
L 243.240301 289.861953 
L 243.370215 291.737302 
L 244.019784 291.737302 
L 244.149698 293.612651 
L 244.279611 293.612651 
L 244.409525 291.737302 
L 245.059094 291.737302 
L 245.189008 289.861953 
L 245.318922 289.861953 
L 245.448836 291.737302 
L 245.838577 291.737302 
L 245.968491 293.612651 
L 247.007801 293.612651 
L 247.137715 291.737302 
L 247.527456 291.737302 
L 247.65737 289.861953 
L 247.917197 289.861953 
L 248.047111 291.737302 
L 248.436853 291.737302 
L 248.566766 293.612651 
L 249.086421 293.612651 
L 249.216335 295.488 
L 249.606077 295.488 
L 249.73599 293.612651 
L 249.995818 293.612651 
L 250.125732 291.737302 
L 250.255646 291.737302 
L 250.385559 289.861953 
L 251.035128 289.861953 
L 251.165042 291.737302 
L 251.814611 291.737302 
L 251.944525 293.612651 
L 252.074439 293.612651 
L 252.204352 291.737302 
L 252.853921 291.737302 
L 252.983835 289.861953 
L 253.373576 289.861953 
L 253.50349 287.986605 
L 253.633404 287.986605 
L 253.763318 289.861953 
L 253.893231 289.861953 
L 254.023145 291.737302 
L 254.282973 291.737302 
L 254.412887 293.612651 
L 254.802628 293.612651 
L 254.932542 291.737302 
L 255.192369 291.737302 
L 255.322283 289.861953 
L 255.452197 289.861953 
L 255.582111 287.986605 
L 256.23168 287.986605 
L 256.361593 289.861953 
L 256.491507 289.861953 
L 256.621421 291.737302 
L 257.400904 291.737302 
L 257.530817 289.861953 
L 257.660731 291.737302 
L 259.479524 291.737302 
L 259.609438 293.612651 
L 260.648748 293.612651 
L 260.778662 291.737302 
L 261.298317 291.737302 
L 261.428231 289.861953 
L 262.0778 289.861953 
L 262.207714 291.737302 
L 263.247024 291.737302 
L 263.376938 289.861953 
L 263.506851 291.737302 
L 264.546162 291.737302 
L 264.676076 289.861953 
L 265.8453 289.861953 
L 265.975213 287.986605 
L 266.624782 287.986605 
L 266.754696 289.861953 
L 266.88461 289.861953 
L 267.014524 291.737302 
L 267.794006 291.737302 
L 267.92392 289.861953 
L 268.053834 291.737302 
L 269.093144 291.737302 
L 269.223058 289.861953 
L 269.872627 289.861953 
L 270.002541 291.737302 
L 272.340989 291.737302 
L 272.470903 289.861953 
L 273.120471 289.861953 
L 273.250385 291.737302 
L 274.289696 291.737302 
L 274.419609 289.861953 
L 275.588833 289.861953 
L 275.718747 287.986605 
L 275.848661 289.861953 
L 276.887971 289.861953 
L 277.017885 287.986605 
L 277.147799 287.986605 
L 277.277713 289.861953 
L 277.667454 289.861953 
L 277.797368 291.737302 
L 277.927281 291.737302 
L 278.057195 293.612651 
L 278.317023 293.612651 
L 278.446937 295.488 
L 278.836678 295.488 
L 278.966592 293.612651 
L 279.486247 293.612651 
L 279.616161 291.737302 
L 283.38366 291.737302 
L 283.513574 289.861953 
L 284.163143 289.861953 
L 284.293057 291.737302 
L 287.930643 291.737302 
L 288.060557 289.861953 
L 288.710126 289.861953 
L 288.840039 291.737302 
L 289.489608 291.737302 
L 289.619522 293.612651 
L 289.749436 293.612651 
L 289.87935 291.737302 
L 290.528918 291.737302 
L 290.658832 289.861953 
L 290.788746 291.737302 
L 293.776763 291.737302 
L 293.906677 289.861953 
L 294.036591 291.737302 
L 295.075901 291.737302 
L 295.205815 289.861953 
L 296.375039 289.861953 
L 296.504953 287.986605 
L 296.634866 289.861953 
L 297.674177 289.861953 
L 297.80409 287.986605 
L 297.934004 289.861953 
L 298.583573 289.861953 
L 298.713487 291.737302 
L 298.843401 291.737302 
L 298.973314 289.861953 
L 299.622883 289.861953 
L 299.752797 287.986605 
L 299.882711 289.861953 
L 300.402366 289.861953 
L 300.53228 291.737302 
L 300.922021 291.737302 
L 301.051935 289.861953 
L 301.311763 289.861953 
L 301.441676 287.986605 
L 301.57159 287.986605 
L 301.701504 286.111256 
L 301.831418 286.111256 
L 301.961331 284.235907 
L 302.221159 284.235907 
L 302.351073 282.360558 
L 303.130555 282.360558 
L 303.260469 280.485209 
L 303.390383 280.485209 
L 303.650211 276.734512 
L 303.780124 276.734512 
L 304.29978 269.233116 
L 304.429693 269.233116 
L 304.559607 267.357767 
L 304.689521 267.357767 
L 305.079262 261.731721 
L 305.209176 261.731721 
L 305.469004 256.105674 
L 307.027969 233.601488 
L 307.157883 233.601488 
L 307.287797 231.72614 
L 307.547624 226.100093 
L 307.807452 222.349395 
L 308.197193 212.972651 
L 308.716848 205.471256 
L 308.976676 199.845209 
L 309.10659 197.96986 
L 309.496331 188.593116 
L 310.015986 181.091721 
L 310.275814 175.465674 
L 310.665555 169.839628 
L 310.925383 164.213581 
L 311.315124 158.587535 
L 311.574951 152.961488 
L 311.964693 147.335442 
L 312.22452 141.709395 
L 314.562968 107.953116 
L 314.822796 102.32707 
L 314.95271 102.32707 
L 315.342451 96.701023 
L 315.472365 96.701023 
L 315.602279 94.825674 
L 315.732193 94.825674 
L 315.99202 91.074977 
L 316.121934 91.074977 
L 316.641589 83.573581 
L 316.771503 83.573581 
L 316.901417 81.698233 
L 317.161244 81.698233 
L 317.291158 79.822884 
L 317.550985 79.822884 
L 317.680899 77.947535 
L 317.810813 77.947535 
L 317.940727 76.072186 
L 318.070641 76.072186 
L 318.200554 74.196837 
L 318.330468 74.196837 
L 318.590296 70.44614 
L 318.72021 70.44614 
L 318.850123 68.570791 
L 319.109951 68.570791 
L 319.239865 66.695442 
L 319.75952 66.695442 
L 319.889434 64.820093 
L 320.409089 64.820093 
L 320.539003 62.944744 
L 321.708227 62.944744 
L 321.83814 61.069395 
L 322.487709 61.069395 
L 322.617623 62.944744 
L 327.554347 62.944744 
L 327.684261 61.069395 
L 328.853485 61.069395 
L 328.983398 59.194047 
L 329.113312 61.069395 
L 329.762881 61.069395 
L 329.892795 62.944744 
L 330.022709 62.944744 
L 330.152623 61.069395 
L 330.802191 61.069395 
L 330.932105 59.194047 
L 332.750898 59.194047 
L 332.880812 57.318698 
L 333.010726 59.194047 
L 333.660295 59.194047 
L 333.790208 61.069395 
L 333.920122 61.069395 
L 334.050036 59.194047 
L 334.699605 59.194047 
L 334.829519 57.318698 
L 336.128657 57.318698 
L 336.25857 59.194047 
L 337.297881 59.194047 
L 337.427794 57.318698 
L 337.94745 57.318698 
L 338.077363 55.443349 
L 338.726932 55.443349 
L 338.856846 57.318698 
L 338.98676 57.318698 
L 339.116674 59.194047 
L 339.896156 59.194047 
L 340.02607 57.318698 
L 340.155984 59.194047 
L 341.195294 59.194047 
L 341.325208 57.318698 
L 341.455122 59.194047 
L 342.104691 59.194047 
L 342.234604 61.069395 
L 342.364518 61.069395 
L 342.494432 59.194047 
L 343.144001 59.194047 
L 343.273915 57.318698 
L 345.742277 57.318698 
L 345.87219 55.443349 
L 346.521759 55.443349 
L 346.651673 57.318698 
L 349.769604 57.318698 
L 349.899518 59.194047 
L 350.549087 59.194047 
L 350.679 61.069395 
L 350.808914 61.069395 
L 350.938828 59.194047 
L 351.588397 59.194047 
L 351.718311 57.318698 
L 352.237966 57.318698 
L 352.36788 55.443349 
L 354.836241 55.443349 
L 354.966155 53.568 
L 355.096069 55.443349 
L 356.135379 55.443349 
L 356.265293 53.568 
L 356.914862 53.568 
L 357.044776 55.443349 
L 358.084086 55.443349 
L 358.214 53.568 
L 358.863569 53.568 
L 358.993482 55.443349 
L 359.643051 55.443349 
L 359.772965 57.318698 
L 359.902879 57.318698 
L 360.032793 55.443349 
L 360.682362 55.443349 
L 360.812275 53.568 
L 360.942189 55.443349 
L 362.111413 55.443349 
L 362.241327 57.318698 
L 362.890896 57.318698 
L 363.02081 59.194047 
L 363.150724 59.194047 
L 363.280637 57.318698 
L 363.930206 57.318698 
L 364.06012 55.443349 
L 364.709689 55.443349 
L 364.839603 57.318698 
L 365.878913 57.318698 
L 366.008827 55.443349 
L 367.307965 55.443349 
L 367.437878 57.318698 
L 369.776327 57.318698 
L 369.90624 55.443349 
L 370.295982 55.443349 
L 370.425895 53.568 
L 370.555809 53.568 
L 370.685723 55.443349 
L 373.67374 55.443349 
L 373.803654 53.568 
L 373.933568 55.443349 
L 374.972878 55.443349 
L 375.102792 53.568 
L 375.752361 53.568 
L 375.882274 55.443349 
L 376.921585 55.443349 
L 377.051498 53.568 
L 377.181412 55.443349 
L 378.220722 55.443349 
L 378.350636 53.568 
L 378.48055 55.443349 
L 379.51986 55.443349 
L 379.649774 53.568 
L 379.779688 53.568 
L 379.909602 55.443349 
L 380.299343 55.443349 
L 380.429257 57.318698 
L 381.468567 57.318698 
L 381.598481 55.443349 
L 381.728395 57.318698 
L 382.377964 57.318698 
L 382.507877 59.194047 
L 382.637791 59.194047 
L 382.767705 57.318698 
L 383.417274 57.318698 
L 383.547188 55.443349 
L 383.936929 55.443349 
L 384.066843 53.568 
L 384.196757 53.568 
L 384.32667 55.443349 
L 390.042877 55.443349 
L 390.172791 57.318698 
L 391.212101 57.318698 
L 391.342015 55.443349 
L 398.487273 55.443349 
L 398.487273 55.443349 
" clip-path="url(#p91dec87f94)" style="fill: none; stroke: #1f77b4; stroke-width: 1.5; stroke-linecap: square"/>
   </g>
   <g id="line2d_13">
    <path d="M 73.832727 289.861953 
L 73.962641 291.737302 
L 74.092555 291.737302 
L 74.222469 289.861953 
L 74.872038 289.861953 
L 75.001951 287.986605 
L 75.131865 289.861953 
L 75.781434 289.861953 
L 75.911348 291.737302 
L 76.041262 291.737302 
L 76.171175 289.861953 
L 76.820744 289.861953 
L 76.950658 287.986605 
L 78.769451 287.986605 
L 78.899365 286.111256 
L 79.548934 286.111256 
L 79.678848 287.986605 
L 81.497641 287.986605 
L 81.627554 289.861953 
L 82.277123 289.861953 
L 82.407037 291.737302 
L 82.536951 291.737302 
L 82.666865 289.861953 
L 83.316433 289.861953 
L 83.446347 287.986605 
L 83.576261 289.861953 
L 84.22583 289.861953 
L 84.355744 291.737302 
L 84.485658 291.737302 
L 84.615571 289.861953 
L 85.26514 289.861953 
L 85.395054 287.986605 
L 85.524968 289.861953 
L 86.564278 289.861953 
L 86.694192 287.986605 
L 87.343761 287.986605 
L 87.473675 289.861953 
L 88.512985 289.861953 
L 88.642899 287.986605 
L 90.591605 287.986605 
L 90.721519 289.861953 
L 91.371088 289.861953 
L 91.501002 291.737302 
L 91.630916 291.737302 
L 91.760829 289.861953 
L 92.410398 289.861953 
L 92.540312 287.986605 
L 92.670226 289.861953 
L 93.189881 289.861953 
L 93.319795 291.737302 
L 93.709536 291.737302 
L 93.83945 289.861953 
L 94.099278 289.861953 
L 94.229191 287.986605 
L 94.359105 287.986605 
L 94.489019 286.111256 
L 94.618933 286.111256 
L 94.748846 287.986605 
L 95.268502 287.986605 
L 95.398415 289.861953 
L 95.528329 289.861953 
L 95.658243 287.986605 
L 96.307812 287.986605 
L 96.437726 286.111256 
L 96.567639 287.986605 
L 97.736863 287.986605 
L 97.866777 289.861953 
L 98.906088 289.861953 
L 99.036001 287.986605 
L 99.68557 287.986605 
L 99.815484 289.861953 
L 102.803501 289.861953 
L 102.933415 287.986605 
L 103.063329 289.861953 
L 104.102639 289.861953 
L 104.232553 287.986605 
L 104.882122 287.986605 
L 105.012035 289.861953 
L 106.051346 289.861953 
L 106.181259 287.986605 
L 106.311173 289.861953 
L 107.350483 289.861953 
L 107.480397 287.986605 
L 109.29919 287.986605 
L 109.429104 286.111256 
L 109.559018 287.986605 
L 110.728242 287.986605 
L 110.858156 289.861953 
L 111.897466 289.861953 
L 112.02738 287.986605 
L 113.326518 287.986605 
L 113.456431 289.861953 
L 114.106 289.861953 
L 114.235914 291.737302 
L 114.365828 291.737302 
L 114.495742 289.861953 
L 115.14531 289.861953 
L 115.275224 287.986605 
L 115.664966 287.986605 
L 115.794879 286.111256 
L 115.924793 286.111256 
L 116.054707 287.986605 
L 118.523069 287.986605 
L 118.652983 289.861953 
L 119.172638 289.861953 
L 119.302552 291.737302 
L 120.341862 291.737302 
L 120.471776 289.861953 
L 120.991431 289.861953 
L 121.121345 287.986605 
L 124.369189 287.986605 
L 124.499103 289.861953 
L 125.018758 289.861953 
L 125.148672 291.737302 
L 125.538413 291.737302 
L 125.668327 289.861953 
L 125.928155 289.861953 
L 126.058068 287.986605 
L 126.187982 287.986605 
L 126.317896 286.111256 
L 126.44781 286.111256 
L 126.577723 287.986605 
L 127.48712 287.986605 
L 127.617034 286.111256 
L 127.746948 287.986605 
L 128.916172 287.986605 
L 129.046085 289.861953 
L 132.034102 289.861953 
L 132.164016 287.986605 
L 134.632378 287.986605 
L 134.762292 286.111256 
L 134.892206 287.986605 
L 136.06143 287.986605 
L 136.191343 289.861953 
L 137.230654 289.861953 
L 137.360567 287.986605 
L 137.490481 289.861953 
L 138.529792 289.861953 
L 138.659705 287.986605 
L 145.155395 287.986605 
L 145.285308 289.861953 
L 146.324619 289.861953 
L 146.454532 287.986605 
L 146.584446 289.861953 
L 148.922894 289.861953 
L 149.052808 287.986605 
L 149.442549 287.986605 
L 149.572463 286.111256 
L 149.832291 286.111256 
L 149.962205 287.986605 
L 150.351946 287.986605 
L 150.48186 289.861953 
L 151.52117 289.861953 
L 151.651084 287.986605 
L 152.300653 287.986605 
L 152.430566 289.861953 
L 153.469877 289.861953 
L 153.59979 287.986605 
L 154.249359 287.986605 
L 154.379273 289.861953 
L 155.418583 289.861953 
L 155.548497 287.986605 
L 155.678411 289.861953 
L 156.32798 289.861953 
L 156.457894 291.737302 
L 156.587807 291.737302 
L 156.717721 289.861953 
L 157.36729 289.861953 
L 157.497204 287.986605 
L 157.627118 289.861953 
L 158.666428 289.861953 
L 158.796342 287.986605 
L 159.445911 287.986605 
L 159.575825 289.861953 
L 160.09548 289.861953 
L 160.225393 291.737302 
L 160.874962 291.737302 
L 161.004876 293.612651 
L 161.13479 293.612651 
L 161.264704 291.737302 
L 161.914273 291.737302 
L 162.044186 289.861953 
L 162.693755 289.861953 
L 162.823669 291.737302 
L 163.862979 291.737302 
L 163.992893 289.861953 
L 164.512548 289.861953 
L 164.642462 287.986605 
L 167.110824 287.986605 
L 167.240738 286.111256 
L 167.370652 287.986605 
L 168.539876 287.986605 
L 168.669789 289.861953 
L 169.7091 289.861953 
L 169.839013 287.986605 
L 170.488582 287.986605 
L 170.618496 289.861953 
L 171.657806 289.861953 
L 171.78772 287.986605 
L 173.086858 287.986605 
L 173.216772 289.861953 
L 174.256082 289.861953 
L 174.385996 287.986605 
L 174.51591 289.861953 
L 175.55522 289.861953 
L 175.685134 287.986605 
L 178.283409 287.986605 
L 178.413323 289.861953 
L 179.452633 289.861953 
L 179.582547 287.986605 
L 180.232116 287.986605 
L 180.36203 289.861953 
L 182.700478 289.861953 
L 182.830392 287.986605 
L 182.960306 287.986605 
L 183.090219 289.861953 
L 183.479961 289.861953 
L 183.609874 291.737302 
L 184.649185 291.737302 
L 184.779099 289.861953 
L 185.948323 289.861953 
L 186.078236 287.986605 
L 186.727805 287.986605 
L 186.857719 289.861953 
L 187.897029 289.861953 
L 188.026943 287.986605 
L 189.326081 287.986605 
L 189.455995 289.861953 
L 190.495305 289.861953 
L 190.625219 287.986605 
L 191.924357 287.986605 
L 192.05427 289.861953 
L 192.703839 289.861953 
L 192.833753 291.737302 
L 192.963667 291.737302 
L 193.093581 289.861953 
L 193.74315 289.861953 
L 193.873063 287.986605 
L 194.522632 287.986605 
L 194.652546 289.861953 
L 195.691856 289.861953 
L 195.82177 287.986605 
L 196.471339 287.986605 
L 196.601253 289.861953 
L 197.640563 289.861953 
L 197.770477 287.986605 
L 199.719184 287.986605 
L 199.849097 289.861953 
L 200.888408 289.861953 
L 201.018322 287.986605 
L 201.148235 289.861953 
L 202.187546 289.861953 
L 202.317459 287.986605 
L 203.616597 287.986605 
L 203.746511 289.861953 
L 204.39608 289.861953 
L 204.525994 291.737302 
L 204.655907 291.737302 
L 204.785821 289.861953 
L 205.43539 289.861953 
L 205.565304 287.986605 
L 205.955045 287.986605 
L 206.084959 286.111256 
L 206.344787 286.111256 
L 206.4747 287.986605 
L 206.864442 287.986605 
L 206.994356 289.861953 
L 207.643924 289.861953 
L 207.773838 291.737302 
L 207.903752 291.737302 
L 208.033666 289.861953 
L 208.683235 289.861953 
L 208.813149 287.986605 
L 213.360131 287.986605 
L 213.490045 289.861953 
L 214.529355 289.861953 
L 214.659269 287.986605 
L 214.789183 289.861953 
L 215.438752 289.861953 
L 215.568665 291.737302 
L 215.698579 291.737302 
L 215.828493 289.861953 
L 216.478062 289.861953 
L 216.607976 287.986605 
L 217.127631 287.986605 
L 217.257544 286.111256 
L 217.907113 286.111256 
L 218.037027 287.986605 
L 221.674613 287.986605 
L 221.804527 286.111256 
L 221.934441 287.986605 
L 222.973751 287.986605 
L 223.103665 286.111256 
L 223.233579 286.111256 
L 223.363492 287.986605 
L 223.753234 287.986605 
L 223.883147 289.861953 
L 225.182285 289.861953 
L 225.312199 291.737302 
L 225.442113 291.737302 
L 225.572027 289.861953 
L 225.961768 289.861953 
L 226.091682 287.986605 
L 226.221596 287.986605 
L 226.351509 286.111256 
L 226.481423 286.111256 
L 226.611337 287.986605 
L 227.001078 287.986605 
L 227.130992 289.861953 
L 228.170302 289.861953 
L 228.300216 287.986605 
L 230.119009 287.986605 
L 230.248923 286.111256 
L 230.378837 287.986605 
L 230.898492 287.986605 
L 231.028406 289.861953 
L 231.418147 289.861953 
L 231.548061 287.986605 
L 231.807888 287.986605 
L 231.937802 286.111256 
L 232.067716 286.111256 
L 232.19763 284.235907 
L 233.107026 284.235907 
L 233.23694 282.360558 
L 233.366854 282.360558 
L 233.496767 280.485209 
L 233.626681 280.485209 
L 233.756595 278.60986 
L 233.886509 278.60986 
L 234.016423 276.734512 
L 235.31556 237.352186 
L 236.744612 179.216372 
L 237.134353 166.08893 
L 237.394181 156.712186 
L 237.524095 154.836837 
L 237.913836 145.460093 
L 238.693319 134.208 
L 238.823233 134.208 
L 238.953146 132.332651 
L 239.212974 132.332651 
L 239.342888 130.457302 
L 239.992457 130.457302 
L 240.12237 132.332651 
L 240.252284 132.332651 
L 240.382198 134.208 
L 240.642026 134.208 
L 240.771939 136.083349 
L 241.421508 136.083349 
L 241.551422 137.958698 
L 241.941163 137.958698 
L 242.200991 141.709395 
L 242.330905 141.709395 
L 242.460819 143.584744 
L 242.590732 143.584744 
L 242.720646 145.460093 
L 243.240301 145.460093 
L 243.370215 147.335442 
L 243.88987 147.335442 
L 244.019784 149.210791 
L 245.189008 149.210791 
L 245.318922 151.08614 
L 245.838577 151.08614 
L 245.968491 152.961488 
L 246.358232 152.961488 
L 246.488146 151.08614 
L 246.747973 151.08614 
L 246.877887 149.210791 
L 247.007801 149.210791 
L 247.137715 147.335442 
L 247.65737 147.335442 
L 247.787284 145.460093 
L 248.306939 145.460093 
L 248.436853 143.584744 
L 248.69668 143.584744 
L 248.826594 141.709395 
L 248.956508 141.709395 
L 249.086421 139.834047 
L 249.606077 139.834047 
L 249.73599 137.958698 
L 250.255646 137.958698 
L 250.385559 136.083349 
L 250.905214 136.083349 
L 251.035128 134.208 
L 251.944525 134.208 
L 252.074439 132.332651 
L 252.204352 132.332651 
L 252.334266 130.457302 
L 252.46418 130.457302 
L 252.594094 128.581953 
L 252.853921 128.581953 
L 252.983835 126.706605 
L 254.932542 126.706605 
L 255.062456 128.581953 
L 255.192369 128.581953 
L 255.322283 130.457302 
L 255.582111 130.457302 
L 255.712024 132.332651 
L 256.101766 132.332651 
L 256.23168 130.457302 
L 256.751335 130.457302 
L 256.881248 128.581953 
L 257.011162 130.457302 
L 258.829955 130.457302 
L 258.959869 132.332651 
L 259.999179 132.332651 
L 260.129093 130.457302 
L 263.896593 130.457302 
L 264.026507 128.581953 
L 266.494868 128.581953 
L 266.624782 126.706605 
L 267.274351 126.706605 
L 267.404265 128.581953 
L 269.223058 128.581953 
L 269.352972 130.457302 
L 270.002541 130.457302 
L 270.132454 132.332651 
L 270.262368 132.332651 
L 270.392282 130.457302 
L 271.041851 130.457302 
L 271.171765 128.581953 
L 271.821334 128.581953 
L 271.951247 130.457302 
L 272.990558 130.457302 
L 273.120471 128.581953 
L 276.238402 128.581953 
L 276.368316 126.706605 
L 277.017885 126.706605 
L 277.147799 128.581953 
L 277.667454 128.581953 
L 277.797368 130.457302 
L 278.446937 130.457302 
L 278.57685 132.332651 
L 278.706764 132.332651 
L 278.836678 130.457302 
L 279.486247 130.457302 
L 279.616161 128.581953 
L 280.26573 128.581953 
L 280.395643 130.457302 
L 281.045212 130.457302 
L 281.175126 132.332651 
L 281.30504 132.332651 
L 281.434954 130.457302 
L 282.084523 130.457302 
L 282.214436 128.581953 
L 287.281074 128.581953 
L 287.410988 126.706605 
L 288.060557 126.706605 
L 288.19047 128.581953 
L 288.710126 128.581953 
L 288.840039 130.457302 
L 289.359694 130.457302 
L 289.489608 132.332651 
L 289.87935 132.332651 
L 290.009263 130.457302 
L 290.269091 130.457302 
L 290.399005 128.581953 
L 290.528918 128.581953 
L 290.658832 126.706605 
L 290.788746 126.706605 
L 290.91866 128.581953 
L 296.375039 128.581953 
L 296.504953 126.706605 
L 297.154521 126.706605 
L 297.284435 128.581953 
L 297.80409 128.581953 
L 297.934004 130.457302 
L 298.973314 130.457302 
L 299.103228 128.581953 
L 301.57159 128.581953 
L 301.701504 126.706605 
L 301.831418 128.581953 
L 304.169866 128.581953 
L 304.29978 126.706605 
L 304.429693 128.581953 
L 305.079262 128.581953 
L 305.209176 130.457302 
L 305.33909 130.457302 
L 305.469004 128.581953 
L 306.118573 128.581953 
L 306.248486 126.706605 
L 306.898055 126.706605 
L 307.027969 128.581953 
L 308.067279 128.581953 
L 308.197193 126.706605 
L 308.327107 128.581953 
L 309.366417 128.581953 
L 309.496331 126.706605 
L 309.626245 128.581953 
L 310.275814 128.581953 
L 310.405727 130.457302 
L 310.535641 130.457302 
L 310.665555 128.581953 
L 311.315124 128.581953 
L 311.445038 126.706605 
L 311.574951 128.581953 
L 312.22452 128.581953 
L 312.354434 130.457302 
L 312.484348 130.457302 
L 312.614262 128.581953 
L 313.263831 128.581953 
L 313.393744 126.706605 
L 313.523658 128.581953 
L 316.511675 128.581953 
L 316.641589 126.706605 
L 316.771503 128.581953 
L 317.810813 128.581953 
L 317.940727 126.706605 
L 318.590296 126.706605 
L 318.72021 128.581953 
L 319.75952 128.581953 
L 319.889434 126.706605 
L 321.83814 126.706605 
L 321.968054 128.581953 
L 323.786847 128.581953 
L 323.916761 130.457302 
L 324.956071 130.457302 
L 325.085985 128.581953 
L 325.475726 128.581953 
L 325.60564 126.706605 
L 325.735554 126.706605 
L 325.865468 128.581953 
L 326.904778 128.581953 
L 327.034692 126.706605 
L 327.164605 126.706605 
L 327.294519 128.581953 
L 327.684261 128.581953 
L 327.814174 130.457302 
L 328.593657 130.457302 
L 328.723571 128.581953 
L 328.853485 128.581953 
L 328.983398 126.706605 
L 329.113312 126.706605 
L 329.243226 128.581953 
L 334.699605 128.581953 
L 334.829519 126.706605 
L 335.479088 126.706605 
L 335.609001 128.581953 
L 336.648312 128.581953 
L 336.778225 126.706605 
L 338.726932 126.706605 
L 338.856846 128.581953 
L 341.195294 128.581953 
L 341.325208 126.706605 
L 341.974777 126.706605 
L 342.104691 128.581953 
L 348.990121 128.581953 
L 349.120035 126.706605 
L 349.769604 126.706605 
L 349.899518 128.581953 
L 352.237966 128.581953 
L 352.36788 126.706605 
L 353.017448 126.706605 
L 353.147362 128.581953 
L 353.667017 128.581953 
L 353.796931 130.457302 
L 354.836241 130.457302 
L 354.966155 128.581953 
L 356.914862 128.581953 
L 357.044776 130.457302 
L 357.564431 130.457302 
L 357.694345 132.332651 
L 358.084086 132.332651 
L 358.214 130.457302 
L 358.473827 130.457302 
L 358.603741 128.581953 
L 358.733655 128.581953 
L 358.863569 126.706605 
L 358.993482 126.706605 
L 359.123396 128.581953 
L 361.331931 128.581953 
L 361.461844 126.706605 
L 362.111413 126.706605 
L 362.241327 128.581953 
L 363.280637 128.581953 
L 363.410551 126.706605 
L 363.540465 128.581953 
L 364.190034 128.581953 
L 364.319948 130.457302 
L 364.449861 130.457302 
L 364.579775 128.581953 
L 365.229344 128.581953 
L 365.359258 126.706605 
L 366.658396 126.706605 
L 366.78831 128.581953 
L 369.776327 128.581953 
L 369.90624 126.706605 
L 370.036154 128.581953 
L 370.685723 128.581953 
L 370.815637 130.457302 
L 370.945551 130.457302 
L 371.075464 128.581953 
L 371.725033 128.581953 
L 371.854947 126.706605 
L 372.504516 126.706605 
L 372.63443 128.581953 
L 376.272016 128.581953 
L 376.401929 126.706605 
L 376.531843 128.581953 
L 379.000205 128.581953 
L 379.130119 130.457302 
L 379.779688 130.457302 
L 379.909602 132.332651 
L 380.039515 132.332651 
L 380.169429 130.457302 
L 380.818998 130.457302 
L 380.948912 128.581953 
L 383.417274 128.581953 
L 383.547188 126.706605 
L 383.677101 128.581953 
L 386.665118 128.581953 
L 386.795032 126.706605 
L 390.692446 126.706605 
L 390.822359 128.581953 
L 393.160808 128.581953 
L 393.290721 126.706605 
L 393.420635 128.581953 
L 394.459945 128.581953 
L 394.589859 126.706605 
L 395.239428 126.706605 
L 395.369342 128.581953 
L 396.538566 128.581953 
L 396.66848 130.457302 
L 397.318049 130.457302 
L 397.447962 132.332651 
L 397.577876 132.332651 
L 397.70779 130.457302 
L 398.357359 130.457302 
L 398.487273 128.581953 
L 398.487273 128.581953 
" clip-path="url(#p91dec87f94)" style="fill: none; stroke: #ff7f0e; stroke-width: 1.5; stroke-linecap: square"/>
   </g>
   <g id="patch_3">
    <path d="M 57.6 307.584 
L 57.6 41.472 
" style="fill: none; stroke: #000000; stroke-width: 0.8; stroke-linejoin: miter; stroke-linecap: square"/>
   </g>
   <g id="patch_4">
    <path d="M 414.72 307.584 
L 414.72 41.472 
" style="fill: none; stroke: #000000; stroke-width: 0.8; stroke-linejoin: miter; stroke-linecap: square"/>
   </g>
   <g id="patch_5">
    <path d="M 57.6 307.584 
L 414.72 307.584 
" style="fill: none; stroke: #000000; stroke-width: 0.8; stroke-linejoin: miter; stroke-linecap: square"/>
   </g>
   <g id="patch_6">
    <path d="M 57.6 41.472 
L 414.72 41.472 
" style="fill: none; stroke: #000000; stroke-width: 0.8; stroke-linejoin: miter; stroke-linecap: square"/>
   </g>
   <g id="text_15">
    <!-- Waveforms with different loads -->
    <g transform="translate(142.605937 35.472) scale(0.12 -0.12)">
     <defs>
      <path id="DejaVuSans-57" d="M 213 4666 
L 850 4666 
L 1831 722 
L 2809 4666 
L 3519 4666 
L 4500 722 
L 5478 4666 
L 6119 4666 
L 4947 0 
L 4153 0 
L 3169 4050 
L 2175 0 
L 1381 0 
L 213 4666 
z
" transform="scale(0.015625)"/>
      <path id="DejaVuSans-61" d="M 2194 1759 
Q 1497 1759 1228 1600 
Q 959 1441 959 1056 
Q 959 750 1161 570 
Q 1363 391 1709 391 
Q 2188 391 2477 730 
Q 2766 1069 2766 1631 
L 2766 1759 
L 2194 1759 
z
M 3341 1997 
L 3341 0 
L 2766 0 
L 2766 531 
Q 2569 213 2275 61 
Q 1981 -91 1556 -91 
Q 1019 -91 701 211 
Q 384 513 384 1019 
Q 384 1609 779 1909 
Q 1175 2209 1959 2209 
L 2766 2209 
L 2766 2266 
Q 2766 2663 2505 2880 
Q 2244 3097 1772 3097 
Q 1472 3097 1187 3025 
Q 903 2953 641 2809 
L 641 3341 
Q 956 3463 1253 3523 
Q 1550 3584 1831 3584 
Q 2591 3584 2966 3190 
Q 3341 2797 3341 1997 
z
" transform="scale(0.015625)"/>
      <path id="DejaVuSans-76" d="M 191 3500 
L 800 3500 
L 1894 563 
L 2988 3500 
L 3597 3500 
L 2284 0 
L 1503 0 
L 191 3500 
z
" transform="scale(0.015625)"/>
      <path id="DejaVuSans-66" d="M 2375 4863 
L 2375 4384 
L 1825 4384 
Q 1516 4384 1395 4259 
Q 1275 4134 1275 3809 
L 1275 3500 
L 2222 3500 
L 2222 3053 
L 1275 3053 
L 1275 0 
L 697 0 
L 697 3053 
L 147 3053 
L 147 3500 
L 697 3500 
L 697 3744 
Q 697 4328 969 4595 
Q 1241 4863 1831 4863 
L 2375 4863 
z
" transform="scale(0.015625)"/>
      <path id="DejaVuSans-6f" d="M 1959 3097 
Q 1497 3097 1228 2736 
Q 959 2375 959 1747 
Q 959 1119 1226 758 
Q 1494 397 1959 397 
Q 2419 397 2687 759 
Q 2956 1122 2956 1747 
Q 2956 2369 2687 2733 
Q 2419 3097 1959 3097 
z
M 1959 3584 
Q 2709 3584 3137 3096 
Q 3566 2609 3566 1747 
Q 3566 888 3137 398 
Q 2709 -91 1959 -91 
Q 1206 -91 779 398 
Q 353 888 353 1747 
Q 353 2609 779 3096 
Q 1206 3584 1959 3584 
z
" transform="scale(0.015625)"/>
      <path id="DejaVuSans-72" d="M 2631 2963 
Q 2534 3019 2420 3045 
Q 2306 3072 2169 3072 
Q 1681 3072 1420 2755 
Q 1159 2438 1159 1844 
L 1159 0 
L 581 0 
L 581 3500 
L 1159 3500 
L 1159 2956 
Q 1341 3275 1631 3429 
Q 1922 3584 2338 3584 
Q 2397 3584 2469 3576 
Q 2541 3569 2628 3553 
L 2631 2963 
z
" transform="scale(0.015625)"/>
      <path id="DejaVuSans-6d" d="M 3328 2828 
Q 3544 3216 3844 3400 
Q 4144 3584 4550 3584 
Q 5097 3584 5394 3201 
Q 5691 2819 5691 2113 
L 5691 0 
L 5113 0 
L 5113 2094 
Q 5113 2597 4934 2840 
Q 4756 3084 4391 3084 
Q 3944 3084 3684 2787 
Q 3425 2491 3425 1978 
L 3425 0 
L 2847 0 
L 2847 2094 
Q 2847 2600 2669 2842 
Q 2491 3084 2119 3084 
Q 1678 3084 1418 2786 
Q 1159 2488 1159 1978 
L 1159 0 
L 581 0 
L 581 3500 
L 1159 3500 
L 1159 2956 
Q 1356 3278 1631 3431 
Q 1906 3584 2284 3584 
Q 2666 3584 2933 3390 
Q 3200 3197 3328 2828 
z
" transform="scale(0.015625)"/>
      <path id="DejaVuSans-20" transform="scale(0.015625)"/>
      <path id="DejaVuSans-77" d="M 269 3500 
L 844 3500 
L 1563 769 
L 2278 3500 
L 2956 3500 
L 3675 769 
L 4391 3500 
L 4966 3500 
L 4050 0 
L 3372 0 
L 2619 2869 
L 1863 0 
L 1184 0 
L 269 3500 
z
" transform="scale(0.015625)"/>
      <path id="DejaVuSans-69" d="M 603 3500 
L 1178 3500 
L 1178 0 
L 603 0 
L 603 3500 
z
M 603 4863 
L 1178 4863 
L 1178 4134 
L 603 4134 
L 603 4863 
z
" transform="scale(0.015625)"/>
      <path id="DejaVuSans-74" d="M 1172 4494 
L 1172 3500 
L 2356 3500 
L 2356 3053 
L 1172 3053 
L 1172 1153 
Q 1172 725 1289 603 
Q 1406 481 1766 481 
L 2356 481 
L 2356 0 
L 1766 0 
Q 1100 0 847 248 
Q 594 497 594 1153 
L 594 3053 
L 172 3053 
L 172 3500 
L 594 3500 
L 594 4494 
L 1172 4494 
z
" transform="scale(0.015625)"/>
      <path id="DejaVuSans-68" d="M 3513 2113 
L 3513 0 
L 2938 0 
L 2938 2094 
Q 2938 2591 2744 2837 
Q 2550 3084 2163 3084 
Q 1697 3084 1428 2787 
Q 1159 2491 1159 1978 
L 1159 0 
L 581 0 
L 581 4863 
L 1159 4863 
L 1159 2956 
Q 1366 3272 1645 3428 
Q 1925 3584 2291 3584 
Q 2894 3584 3203 3211 
Q 3513 2838 3513 2113 
z
" transform="scale(0.015625)"/>
      <path id="DejaVuSans-64" d="M 2906 2969 
L 2906 4863 
L 3481 4863 
L 3481 0 
L 2906 0 
L 2906 525 
Q 2725 213 2448 61 
Q 2172 -91 1784 -91 
Q 1150 -91 751 415 
Q 353 922 353 1747 
Q 353 2572 751 3078 
Q 1150 3584 1784 3584 
Q 2172 3584 2448 3432 
Q 2725 3281 2906 2969 
z
M 947 1747 
Q 947 1113 1208 752 
Q 1469 391 1925 391 
Q 2381 391 2643 752 
Q 2906 1113 2906 1747 
Q 2906 2381 2643 2742 
Q 2381 3103 1925 3103 
Q 1469 3103 1208 2742 
Q 947 2381 947 1747 
z
" transform="scale(0.015625)"/>
      <path id="DejaVuSans-6c" d="M 603 4863 
L 1178 4863 
L 1178 0 
L 603 0 
L 603 4863 
z
" transform="scale(0.015625)"/>
     </defs>
     <use xlink:href="#DejaVuSans-57"/>
     <use xlink:href="#DejaVuSans-61" x="92.501953"/>
     <use xlink:href="#DejaVuSans-76" x="153.78125"/>
     <use xlink:href="#DejaVuSans-65" x="212.960938"/>
     <use xlink:href="#DejaVuSans-66" x="274.484375"/>
     <use xlink:href="#DejaVuSans-6f" x="309.689453"/>
     <use xlink:href="#DejaVuSans-72" x="370.871094"/>
     <use xlink:href="#DejaVuSans-6d" x="410.234375"/>
     <use xlink:href="#DejaVuSans-73" x="507.646484"/>
     <use xlink:href="#DejaVuSans-20" x="559.746094"/>
     <use xlink:href="#DejaVuSans-77" x="591.533203"/>
     <use xlink:href="#DejaVuSans-69" x="673.320312"/>
     <use xlink:href="#DejaVuSans-74" x="701.103516"/>
     <use xlink:href="#DejaVuSans-68" x="740.3125"/>
     <use xlink:href="#DejaVuSans-20" x="803.691406"/>
     <use xlink:href="#DejaVuSans-64" x="835.478516"/>
     <use xlink:href="#DejaVuSans-69" x="898.955078"/>
     <use xlink:href="#DejaVuSans-66" x="926.738281"/>
     <use xlink:href="#DejaVuSans-66" x="961.943359"/>
     <use xlink:href="#DejaVuSans-65" x="997.148438"/>
     <use xlink:href="#DejaVuSans-72" x="1058.671875"/>
     <use xlink:href="#DejaVuSans-65" x="1097.535156"/>
     <use xlink:href="#DejaVuSans-6e" x="1159.058594"/>
     <use xlink:href="#DejaVuSans-74" x="1222.4375"/>
     <use xlink:href="#DejaVuSans-20" x="1261.646484"/>
     <use xlink:href="#DejaVuSans-6c" x="1293.433594"/>
     <use xlink:href="#DejaVuSans-6f" x="1321.216797"/>
     <use xlink:href="#DejaVuSans-61" x="1382.398438"/>
     <use xlink:href="#DejaVuSans-64" x="1443.677734"/>
     <use xlink:href="#DejaVuSans-73" x="1507.154297"/>
    </g>
   </g>
  </g>
 </g>
 <defs>
  <clipPath id="p91dec87f94">
   <rect x="57.6" y="41.472" width="357.12" height="266.112"/>
  </clipPath>
 </defs>
</svg>
