<?xml version="1.0" encoding="utf-8" standalone="no"?>
<!DOCTYPE svg PUBLIC "-//W3C//DTD SVG 1.1//EN"
  "http://www.w3.org/Graphics/SVG/1.1/DTD/svg11.dtd">
<svg xmlns:xlink="http://www.w3.org/1999/xlink" width="177.958154pt" height="188.484059pt" viewBox="0 0 177.958154 188.484059" xmlns="http://www.w3.org/2000/svg" version="1.1">
 <metadata>
  <rdf:RDF xmlns:dc="http://purl.org/dc/elements/1.1/" xmlns:cc="http://creativecommons.org/ns#" xmlns:rdf="http://www.w3.org/1999/02/22-rdf-syntax-ns#">
   <cc:Work>
    <dc:type rdf:resource="http://purl.org/dc/dcmitype/StillImage"/>
    <dc:date>2025-03-29T10:17:49.073432</dc:date>
    <dc:format>image/svg+xml</dc:format>
    <dc:creator>
     <cc:Agent>
      <dc:title>Matplotlib v3.9.2, https://matplotlib.org/</dc:title>
     </cc:Agent>
    </dc:creator>
   </cc:Work>
  </rdf:RDF>
 </metadata>
 <defs>
  <style type="text/css">*{stroke-linejoin: round; stroke-linecap: butt}</style>
 </defs>
 <g id="figure_1">
  <g id="patch_1">
   <path d="M -0 188.484059 
L 177.958154 188.484059 
L 177.958154 0 
L -0 0 
L -0 188.484059 
z
" style="fill: none"/>
  </g>
  <g id="axes_1">
   <g id="patch_2">
    <path d="M 160.271605 101.519499 
C 160.271605 92.419107 158.479026 83.407204 154.996457 74.999538 
C 151.513887 66.591871 146.409054 58.951949 139.974105 52.516999 
C 133.539156 46.08205 125.899233 40.977217 117.491567 37.494648 
C 109.0839 34.012078 100.071998 32.219499 90.971605 32.219499 
C 81.871212 32.219499 72.85931 34.012078 64.451643 37.494648 
C 56.043977 40.977217 48.404054 46.08205 41.969105 52.516999 
C 35.534156 58.951949 30.429323 66.591871 26.946753 74.999538 
C 23.464184 83.407204 21.671605 92.419107 21.671605 101.519499 
C 21.671605 110.619892 23.464184 119.631795 26.946753 128.039461 
C 30.429323 136.447128 35.534156 144.08705 41.969105 150.521999 
C 48.404054 156.956949 56.043977 162.061782 64.451643 165.544351 
C 72.85931 169.02692 81.871212 170.819499 90.971605 170.819499 
C 100.071998 170.819499 109.0839 169.02692 117.491567 165.544351 
C 125.899233 162.061782 133.539156 156.956949 139.974105 150.521999 
C 146.409054 144.08705 151.513887 136.447128 154.996457 128.039461 
C 158.479026 119.631795 160.271605 110.619892 160.271605 101.519499 
M 90.971605 101.519499 
C 90.971605 101.519499 90.971605 101.519499 90.971605 101.519499 
C 90.971605 101.519499 90.971605 101.519499 90.971605 101.519499 
C 90.971605 101.519499 90.971605 101.519499 90.971605 101.519499 
C 90.971605 101.519499 90.971605 101.519499 90.971605 101.519499 
C 90.971605 101.519499 90.971605 101.519499 90.971605 101.519499 
C 90.971605 101.519499 90.971605 101.519499 90.971605 101.519499 
C 90.971605 101.519499 90.971605 101.519499 90.971605 101.519499 
C 90.971605 101.519499 90.971605 101.519499 90.971605 101.519499 
C 90.971605 101.519499 90.971605 101.519499 90.971605 101.519499 
C 90.971605 101.519499 90.971605 101.519499 90.971605 101.519499 
C 90.971605 101.519499 90.971605 101.519499 90.971605 101.519499 
C 90.971605 101.519499 90.971605 101.519499 90.971605 101.519499 
C 90.971605 101.519499 90.971605 101.519499 90.971605 101.519499 
C 90.971605 101.519499 90.971605 101.519499 90.971605 101.519499 
C 90.971605 101.519499 90.971605 101.519499 90.971605 101.519499 
C 90.971605 101.519499 90.971605 101.519499 90.971605 101.519499 
L 90.971605 101.519499 
z
" style="fill: none"/>
   </g>
   <g id="matplotlib.axis_1">
    <g id="xtick_1">
     <g id="line2d_1">
      <path d="M 90.971605 101.519499 
L 160.271605 101.519499 
" clip-path="url(#p0aab8c97b5)" style="fill: none; stroke: #b0b0b0; stroke-width: 0.5; stroke-linecap: square"/>
     </g>
     <g id="text_1">
      <!-- 0° -->
      <g transform="translate(167.185056 103.358596) scale(0.08 -0.08)">
       <defs>
        <path id="NimbusRomNo9L-Regu-30" d="M 1626 4352 
C 1274 4352 1005 4244 768 4020 
C 397 3661 154 2925 154 2176 
C 154 1479 365 730 666 372 
C 902 90 1229 -64 1600 -64 
C 1926 -64 2202 45 2432 269 
C 2803 621 3046 1364 3046 2138 
C 3046 3450 2464 4352 1626 4352 
z
M 1606 4186 
C 2144 4186 2432 3463 2432 2125 
C 2432 788 2150 103 1600 103 
C 1050 103 768 788 768 2119 
C 768 3476 1056 4186 1606 4186 
z
" transform="scale(0.015625)"/>
        <path id="NimbusRomNo9L-Regu-b0" d="M 1280 4313 
C 768 4313 365 3913 365 3404 
C 365 2903 768 2496 1267 2496 
C 1786 2496 2195 2890 2195 3399 
C 2195 3913 1792 4313 1280 4313 
z
M 1280 4096 
C 1638 4096 1946 3779 1946 3405 
C 1946 3024 1645 2714 1274 2714 
C 915 2714 614 3031 614 3405 
C 614 3779 915 4096 1280 4096 
z
" transform="scale(0.015625)"/>
       </defs>
       <use xlink:href="#NimbusRomNo9L-Regu-30" transform="scale(0.996264)"/>
       <use xlink:href="#NimbusRomNo9L-Regu-b0" transform="translate(49.8132 0) scale(0.996264)"/>
      </g>
     </g>
    </g>
    <g id="xtick_2">
     <g id="line2d_2">
      <path d="M 90.971605 101.519499 
L 139.974105 52.516999 
" clip-path="url(#p0aab8c97b5)" style="fill: none; stroke: #b0b0b0; stroke-width: 0.5; stroke-linecap: square"/>
     </g>
     <g id="text_2">
      <!-- 45° -->
      <g transform="translate(141.819649 46.931475) scale(0.08 -0.08)">
       <defs>
        <path id="NimbusRomNo9L-Regu-34" d="M 3021 1497 
L 2368 1497 
L 2368 4352 
L 2086 4352 
L 77 1497 
L 77 1088 
L 1875 1088 
L 1875 32 
L 2368 32 
L 2368 1088 
L 3021 1088 
L 3021 1497 
z
M 1869 1497 
L 333 1497 
L 1869 3698 
L 1869 1497 
z
" transform="scale(0.015625)"/>
        <path id="NimbusRomNo9L-Regu-35" d="M 1158 3776 
L 2413 3776 
C 2515 3776 2541 3789 2560 3834 
L 2803 4403 
L 2746 4448 
C 2650 4314 2586 4282 2451 4282 
L 1114 4282 
L 416 2759 
C 410 2746 410 2740 410 2727 
C 410 2695 435 2676 486 2676 
C 691 2676 947 2631 1210 2547 
C 1946 2309 2285 1910 2285 1274 
C 2285 656 1894 173 1395 173 
C 1267 173 1158 218 966 360 
C 762 508 614 572 480 572 
C 294 572 205 495 205 334 
C 205 90 506 -64 986 -64 
C 1523 -64 1984 110 2304 438 
C 2598 728 2733 1094 2733 1583 
C 2733 2046 2611 2342 2291 2663 
C 2010 2947 1645 3094 890 3229 
L 1158 3776 
z
" transform="scale(0.015625)"/>
       </defs>
       <use xlink:href="#NimbusRomNo9L-Regu-34" transform="scale(0.996264)"/>
       <use xlink:href="#NimbusRomNo9L-Regu-35" transform="translate(49.8132 0) scale(0.996264)"/>
       <use xlink:href="#NimbusRomNo9L-Regu-b0" transform="translate(99.626401 0) scale(0.996264)"/>
      </g>
     </g>
    </g>
    <g id="xtick_3">
     <g id="line2d_3">
      <path d="M 90.971605 101.519499 
L 90.971605 32.219499 
" clip-path="url(#p0aab8c97b5)" style="fill: none; stroke: #b0b0b0; stroke-width: 0.5; stroke-linecap: square"/>
     </g>
     <g id="text_3">
      <!-- 90° -->
      <g transform="translate(85.392528 23.558596) scale(0.08 -0.08)">
       <defs>
        <path id="NimbusRomNo9L-Regu-39" d="M 378 -123 
C 1094 -40 1446 82 1882 396 
C 2547 882 2938 1676 2938 2539 
C 2938 3593 2349 4339 1523 4339 
C 762 4339 192 3694 192 2832 
C 192 2053 653 1536 1344 1536 
C 1696 1536 1965 1638 2304 1900 
C 2042 856 1331 172 358 5 
L 378 -123 
z
M 2317 2290 
C 2317 2162 2291 2104 2221 2047 
C 2042 1894 1805 1811 1574 1811 
C 1088 1811 781 2290 781 3050 
C 781 3413 883 3796 1018 3963 
C 1126 4090 1286 4160 1472 4160 
C 2029 4160 2317 3611 2317 2539 
L 2317 2290 
z
" transform="scale(0.015625)"/>
       </defs>
       <use xlink:href="#NimbusRomNo9L-Regu-39" transform="scale(0.996264)"/>
       <use xlink:href="#NimbusRomNo9L-Regu-30" transform="translate(49.8132 0) scale(0.996264)"/>
       <use xlink:href="#NimbusRomNo9L-Regu-b0" transform="translate(99.626401 0) scale(0.996264)"/>
      </g>
     </g>
    </g>
    <g id="xtick_4">
     <g id="line2d_4">
      <path d="M 90.971605 101.519499 
L 41.969105 52.516999 
" clip-path="url(#p0aab8c97b5)" style="fill: none; stroke: #b0b0b0; stroke-width: 0.5; stroke-linecap: square"/>
     </g>
     <g id="text_4">
      <!-- 135° -->
      <g transform="translate(26.972879 46.931475) scale(0.08 -0.08)">
       <defs>
        <path id="NimbusRomNo9L-Regu-31" d="M 1862 4339 
L 710 3757 
L 710 3667 
C 787 3699 858 3725 883 3738 
C 998 3783 1107 3808 1171 3808 
C 1306 3808 1363 3711 1363 3505 
L 1363 592 
C 1363 379 1312 232 1210 173 
C 1114 116 1024 96 755 96 
L 755 0 
L 2522 0 
L 2522 96 
C 2016 96 1914 160 1914 470 
L 1914 4327 
L 1862 4339 
z
" transform="scale(0.015625)"/>
        <path id="NimbusRomNo9L-Regu-33" d="M 979 2138 
C 1357 2138 1504 2125 1658 2068 
C 2054 1927 2304 1562 2304 1120 
C 2304 583 1939 167 1466 167 
C 1293 167 1165 212 928 365 
C 736 480 627 525 518 525 
C 371 525 275 436 275 301 
C 275 77 550 -64 998 -64 
C 1491 -64 1997 103 2298 365 
C 2598 628 2765 999 2765 1428 
C 2765 1754 2662 2055 2477 2253 
C 2349 2394 2227 2471 1946 2592 
C 2387 2893 2547 3130 2547 3476 
C 2547 3994 2138 4352 1549 4352 
C 1229 4352 947 4244 717 4039 
C 525 3866 429 3699 288 3315 
L 384 3290 
C 646 3757 934 3968 1338 3968 
C 1754 3968 2042 3687 2042 3284 
C 2042 3053 1946 2823 1786 2663 
C 1594 2471 1414 2375 979 2221 
L 979 2138 
z
" transform="scale(0.015625)"/>
       </defs>
       <use xlink:href="#NimbusRomNo9L-Regu-31" transform="scale(0.996264)"/>
       <use xlink:href="#NimbusRomNo9L-Regu-33" transform="translate(49.8132 0) scale(0.996264)"/>
       <use xlink:href="#NimbusRomNo9L-Regu-35" transform="translate(99.626401 0) scale(0.996264)"/>
       <use xlink:href="#NimbusRomNo9L-Regu-b0" transform="translate(149.439601 0) scale(0.996264)"/>
      </g>
     </g>
    </g>
    <g id="xtick_5">
     <g id="line2d_5">
      <path d="M 90.971605 101.519499 
L 21.671605 101.519499 
" clip-path="url(#p0aab8c97b5)" style="fill: none; stroke: #b0b0b0; stroke-width: 0.5; stroke-linecap: square"/>
     </g>
     <g id="text_5">
      <!-- 180° -->
      <g transform="translate(3.6 103.358596) scale(0.08 -0.08)">
       <defs>
        <path id="NimbusRomNo9L-Regu-38" d="M 1856 2400 
C 2490 2740 2714 3008 2714 3444 
C 2714 3968 2253 4352 1613 4352 
C 915 4352 397 3924 397 3341 
C 397 2925 518 2740 1190 2151 
C 499 1626 358 1428 358 992 
C 358 372 864 -64 1587 -64 
C 2355 -64 2848 359 2848 1018 
C 2848 1511 2630 1824 1856 2400 
z
M 1741 1741 
C 2208 1408 2362 1178 2362 820 
C 2362 404 2074 116 1658 116 
C 1171 116 845 487 845 1044 
C 845 1453 986 1722 1357 2023 
L 1741 1741 
z
M 1670 2516 
C 1101 2887 870 3181 870 3540 
C 870 3911 1158 4173 1562 4173 
C 1997 4173 2272 3892 2272 3450 
C 2272 3085 2093 2797 1728 2554 
C 1696 2535 1696 2535 1670 2516 
z
" transform="scale(0.015625)"/>
       </defs>
       <use xlink:href="#NimbusRomNo9L-Regu-31" transform="scale(0.996264)"/>
       <use xlink:href="#NimbusRomNo9L-Regu-38" transform="translate(49.8132 0) scale(0.996264)"/>
       <use xlink:href="#NimbusRomNo9L-Regu-30" transform="translate(99.626401 0) scale(0.996264)"/>
       <use xlink:href="#NimbusRomNo9L-Regu-b0" transform="translate(149.439601 0) scale(0.996264)"/>
      </g>
     </g>
    </g>
    <g id="xtick_6">
     <g id="line2d_6">
      <path d="M 90.971605 101.519499 
L 41.969105 150.521999 
" clip-path="url(#p0aab8c97b5)" style="fill: none; stroke: #b0b0b0; stroke-width: 0.5; stroke-linecap: square"/>
     </g>
     <g id="text_6">
      <!-- 225° -->
      <g transform="translate(26.972879 159.785717) scale(0.08 -0.08)">
       <defs>
        <path id="NimbusRomNo9L-Regu-32" d="M 3040 875 
L 2957 907 
C 2720 544 2637 486 2349 486 
L 819 486 
L 1894 1609 
C 2464 2202 2714 2687 2714 3185 
C 2714 3823 2195 4313 1530 4313 
C 1178 4313 845 4173 608 3918 
C 403 3700 307 3496 198 3043 
L 333 3011 
C 589 3636 819 3840 1261 3840 
C 1798 3840 2163 3476 2163 2940 
C 2163 2443 1869 1850 1331 1282 
L 192 77 
L 192 0 
L 2688 0 
L 3040 875 
z
" transform="scale(0.015625)"/>
       </defs>
       <use xlink:href="#NimbusRomNo9L-Regu-32" transform="scale(0.996264)"/>
       <use xlink:href="#NimbusRomNo9L-Regu-32" transform="translate(49.8132 0) scale(0.996264)"/>
       <use xlink:href="#NimbusRomNo9L-Regu-35" transform="translate(99.626401 0) scale(0.996264)"/>
       <use xlink:href="#NimbusRomNo9L-Regu-b0" transform="translate(149.439601 0) scale(0.996264)"/>
      </g>
     </g>
    </g>
    <g id="xtick_7">
     <g id="line2d_7">
      <path d="M 90.971605 101.519499 
L 90.971605 170.819499 
" clip-path="url(#p0aab8c97b5)" style="fill: none; stroke: #b0b0b0; stroke-width: 0.5; stroke-linecap: square"/>
     </g>
     <g id="text_7">
      <!-- 270° -->
      <g transform="translate(83.4 183.158596) scale(0.08 -0.08)">
       <defs>
        <path id="NimbusRomNo9L-Regu-37" d="M 2874 4250 
L 506 4250 
L 128 3310 
L 237 3258 
C 512 3693 627 3776 979 3776 
L 2368 3776 
L 1101 -32 
L 1517 -32 
L 2874 4148 
L 2874 4250 
z
" transform="scale(0.015625)"/>
       </defs>
       <use xlink:href="#NimbusRomNo9L-Regu-32" transform="scale(0.996264)"/>
       <use xlink:href="#NimbusRomNo9L-Regu-37" transform="translate(49.8132 0) scale(0.996264)"/>
       <use xlink:href="#NimbusRomNo9L-Regu-30" transform="translate(99.626401 0) scale(0.996264)"/>
       <use xlink:href="#NimbusRomNo9L-Regu-b0" transform="translate(149.439601 0) scale(0.996264)"/>
      </g>
     </g>
    </g>
    <g id="xtick_8">
     <g id="line2d_8">
      <path d="M 90.971605 101.519499 
L 139.974105 150.521999 
" clip-path="url(#p0aab8c97b5)" style="fill: none; stroke: #b0b0b0; stroke-width: 0.5; stroke-linecap: square"/>
     </g>
     <g id="text_8">
      <!-- 315° -->
      <g transform="translate(139.827121 159.785717) scale(0.08 -0.08)">
       <use xlink:href="#NimbusRomNo9L-Regu-33" transform="scale(0.996264)"/>
       <use xlink:href="#NimbusRomNo9L-Regu-31" transform="translate(49.8132 0) scale(0.996264)"/>
       <use xlink:href="#NimbusRomNo9L-Regu-35" transform="translate(99.626401 0) scale(0.996264)"/>
       <use xlink:href="#NimbusRomNo9L-Regu-b0" transform="translate(149.439601 0) scale(0.996264)"/>
      </g>
     </g>
    </g>
   </g>
   <g id="matplotlib.axis_2">
    <g id="ytick_1">
     <g id="line2d_9">
      <path d="M 104.171605 101.519499 
C 104.171605 99.786091 103.830161 98.069538 103.166815 96.468078 
C 102.503468 94.866618 101.531119 93.411395 100.305414 92.18569 
C 99.07971 90.959985 97.624487 89.987636 96.023026 89.32429 
C 94.421566 88.660943 92.705013 88.319499 90.971605 88.319499 
C 89.238197 88.319499 87.521644 88.660943 85.920184 89.32429 
C 84.318723 89.987636 82.8635 90.959985 81.637795 92.18569 
C 80.412091 93.411395 79.439742 94.866618 78.776395 96.468078 
C 78.113049 98.069538 77.771605 99.786091 77.771605 101.519499 
C 77.771605 103.252908 78.113049 104.96946 78.776395 106.570921 
C 79.439742 108.172381 80.412091 109.627604 81.637795 110.853309 
C 82.8635 112.079014 84.318723 113.051363 85.920184 113.714709 
C 87.521644 114.378056 89.238197 114.719499 90.971605 114.719499 
C 92.705013 114.719499 94.421566 114.378056 96.023026 113.714709 
C 97.624487 113.051363 99.07971 112.079014 100.305414 110.853309 
C 101.531119 109.627604 102.503468 108.172381 103.166815 106.570921 
C 103.830161 104.96946 104.171605 103.252908 104.171605 101.519499 
" clip-path="url(#p0aab8c97b5)" style="fill: none; stroke: #b0b0b0; stroke-width: 0.5; stroke-linecap: square"/>
     </g>
     <g id="text_9">
      <!-- $\mathdefault{0.2}$ -->
      <g transform="translate(103.166815 104.845458) scale(0.08 -0.08)">
       <defs>
        <path id="CMMI10-3a" d="M 1229 338 
C 1229 522 1075 675 890 675 
C 704 675 550 522 550 338 
C 550 153 704 0 890 0 
C 1075 0 1229 153 1229 338 
z
" transform="scale(0.015625)"/>
       </defs>
       <use xlink:href="#NimbusRomNo9L-Regu-30" transform="scale(0.996264)"/>
       <use xlink:href="#CMMI10-3a" transform="translate(49.8132 0) scale(0.996264)"/>
       <use xlink:href="#NimbusRomNo9L-Regu-32" transform="translate(77.408707 0) scale(0.996264)"/>
      </g>
     </g>
    </g>
    <g id="ytick_2">
     <g id="line2d_10">
      <path d="M 117.371605 101.519499 
C 117.371605 98.052683 116.688718 94.619577 115.362025 91.416657 
C 114.035331 88.213736 112.090633 85.30329 109.639224 82.85188 
C 107.187815 80.400471 104.277368 78.455773 101.074448 77.12908 
C 97.871527 75.802387 94.438421 75.119499 90.971605 75.119499 
C 87.504789 75.119499 84.071683 75.802387 80.868762 77.12908 
C 77.665842 78.455773 74.755395 80.400471 72.303986 82.85188 
C 69.852577 85.30329 67.907878 88.213736 66.581185 91.416657 
C 65.254492 94.619577 64.571605 98.052683 64.571605 101.519499 
C 64.571605 104.986316 65.254492 108.419421 66.581185 111.622342 
C 67.907878 114.825263 69.852577 117.735709 72.303986 120.187118 
C 74.755395 122.638528 77.665842 124.583226 80.868762 125.909919 
C 84.071683 127.236612 87.504789 127.919499 90.971605 127.919499 
C 94.438421 127.919499 97.871527 127.236612 101.074448 125.909919 
C 104.277368 124.583226 107.187815 122.638528 109.639224 120.187118 
C 112.090633 117.735709 114.035331 114.825263 115.362025 111.622342 
C 116.688718 108.419421 117.371605 104.986316 117.371605 101.519499 
" clip-path="url(#p0aab8c97b5)" style="fill: none; stroke: #b0b0b0; stroke-width: 0.5; stroke-linecap: square"/>
     </g>
     <g id="text_10">
      <!-- $\mathdefault{0.4}$ -->
      <g transform="translate(115.362025 109.896879) scale(0.08 -0.08)">
       <use xlink:href="#NimbusRomNo9L-Regu-30" transform="scale(0.996264)"/>
       <use xlink:href="#CMMI10-3a" transform="translate(49.8132 0) scale(0.996264)"/>
       <use xlink:href="#NimbusRomNo9L-Regu-34" transform="translate(77.408707 0) scale(0.996264)"/>
      </g>
     </g>
    </g>
    <g id="ytick_3">
     <g id="line2d_11">
      <path d="M 130.571605 101.519499 
C 130.571605 96.319275 129.547274 91.169616 127.557234 86.365235 
C 125.567195 81.560855 122.650147 77.195185 118.973033 73.518071 
C 115.29592 69.840957 110.93025 66.92391 106.125869 64.93387 
C 101.321488 62.94383 96.171829 61.919499 90.971605 61.919499 
C 85.771381 61.919499 80.621722 62.94383 75.817341 64.93387 
C 71.01296 66.92391 66.64729 69.840957 62.970176 73.518071 
C 59.293063 77.195185 56.376015 81.560855 54.385975 86.365235 
C 52.395936 91.169616 51.371605 96.319275 51.371605 101.519499 
C 51.371605 106.719724 52.395936 111.869382 54.385975 116.673763 
C 56.376015 121.478144 59.293063 125.843814 62.970176 129.520928 
C 66.64729 133.198042 71.01296 136.115089 75.817341 138.105129 
C 80.621722 140.095169 85.771381 141.119499 90.971605 141.119499 
C 96.171829 141.119499 101.321488 140.095169 106.125869 138.105129 
C 110.93025 136.115089 115.29592 133.198042 118.973033 129.520928 
C 122.650147 125.843814 125.567195 121.478144 127.557234 116.673763 
C 129.547274 111.869382 130.571605 106.719724 130.571605 101.519499 
" clip-path="url(#p0aab8c97b5)" style="fill: none; stroke: #b0b0b0; stroke-width: 0.5; stroke-linecap: square"/>
     </g>
     <g id="text_11">
      <!-- $\mathdefault{0.6}$ -->
      <g transform="translate(127.557234 114.9483) scale(0.08 -0.08)">
       <defs>
        <path id="NimbusRomNo9L-Regu-36" d="M 2854 4391 
C 2125 4327 1754 4205 1286 3879 
C 595 3386 218 2656 218 1802 
C 218 1248 390 688 666 370 
C 909 89 1254 -64 1651 -64 
C 2445 -64 2995 541 2995 1421 
C 2995 2236 2528 2752 1792 2752 
C 1510 2752 1376 2707 973 2464 
C 1146 3431 1862 4122 2867 4288 
L 2854 4391 
z
M 1549 2458 
C 2099 2458 2419 2000 2419 1204 
C 2419 504 2170 116 1722 116 
C 1158 116 813 714 813 1700 
C 813 2025 864 2203 992 2299 
C 1126 2400 1325 2458 1549 2458 
z
" transform="scale(0.015625)"/>
       </defs>
       <use xlink:href="#NimbusRomNo9L-Regu-30" transform="scale(0.996264)"/>
       <use xlink:href="#CMMI10-3a" transform="translate(49.8132 0) scale(0.996264)"/>
       <use xlink:href="#NimbusRomNo9L-Regu-36" transform="translate(77.408707 0) scale(0.996264)"/>
      </g>
     </g>
    </g>
    <g id="ytick_4">
     <g id="line2d_12">
      <path d="M 143.771605 101.519499 
C 143.771605 94.585867 142.405831 87.719655 139.752444 81.313814 
C 137.099058 74.907973 133.209662 69.08708 128.306843 64.184261 
C 123.404024 59.281443 117.583131 55.392046 111.17729 52.73866 
C 104.771449 50.085274 97.905237 48.719499 90.971605 48.719499 
C 84.037972 48.719499 77.171761 50.085274 70.76592 52.73866 
C 64.360079 55.392046 58.539185 59.281443 53.636367 64.184261 
C 48.733548 69.08708 44.844152 74.907973 42.190766 81.313814 
C 39.537379 87.719655 38.171605 94.585867 38.171605 101.519499 
C 38.171605 108.453132 39.537379 115.319343 42.190766 121.725185 
C 44.844152 128.131026 48.733548 133.951919 53.636367 138.854737 
C 58.539185 143.757556 64.360079 147.646952 70.76592 150.300339 
C 77.171761 152.953725 84.037972 154.319499 90.971605 154.319499 
C 97.905237 154.319499 104.771449 152.953725 111.17729 150.300339 
C 117.583131 147.646952 123.404024 143.757556 128.306843 138.854737 
C 133.209662 133.951919 137.099058 128.131026 139.752444 121.725185 
C 142.405831 115.319343 143.771605 108.453132 143.771605 101.519499 
" clip-path="url(#p0aab8c97b5)" style="fill: none; stroke: #b0b0b0; stroke-width: 0.5; stroke-linecap: square"/>
     </g>
     <g id="text_12">
      <!-- $\mathdefault{0.8}$ -->
      <g transform="translate(139.752444 119.999722) scale(0.08 -0.08)">
       <use xlink:href="#NimbusRomNo9L-Regu-30" transform="scale(0.996264)"/>
       <use xlink:href="#CMMI10-3a" transform="translate(49.8132 0) scale(0.996264)"/>
       <use xlink:href="#NimbusRomNo9L-Regu-38" transform="translate(77.408707 0) scale(0.996264)"/>
      </g>
     </g>
    </g>
    <g id="ytick_5">
     <g id="line2d_13">
      <path d="M 156.971605 101.519499 
C 156.971605 92.852459 155.264387 84.269694 151.947654 76.262393 
C 148.630921 68.255091 143.769176 60.978975 137.640653 54.850452 
C 131.512129 48.721929 124.236013 43.860183 116.228711 40.54345 
C 108.22141 37.226717 99.638646 35.519499 90.971605 35.519499 
C 82.304564 35.519499 73.7218 37.226717 65.714498 40.54345 
C 57.707197 43.860183 50.431081 48.721929 44.302557 54.850452 
C 38.174034 60.978975 33.312289 68.255091 29.995556 76.262393 
C 26.678823 84.269694 24.971605 92.852459 24.971605 101.519499 
C 24.971605 110.18654 26.678823 118.769305 29.995556 126.776606 
C 33.312289 134.783907 38.174034 142.060024 44.302557 148.188547 
C 50.431081 154.31707 57.707197 159.178816 65.714498 162.495549 
C 73.7218 165.812281 82.304564 167.519499 90.971605 167.519499 
C 99.638646 167.519499 108.22141 165.812281 116.228711 162.495549 
C 124.236013 159.178816 131.512129 154.31707 137.640653 148.188547 
C 143.769176 142.060024 148.630921 134.783907 151.947654 126.776606 
C 155.264387 118.769305 156.971605 110.18654 156.971605 101.519499 
" clip-path="url(#p0aab8c97b5)" style="fill: none; stroke: #b0b0b0; stroke-width: 0.5; stroke-linecap: square"/>
     </g>
     <g id="text_13">
      <!-- $\mathdefault{1.0}$ -->
      <g transform="translate(151.947654 125.051143) scale(0.08 -0.08)">
       <use xlink:href="#NimbusRomNo9L-Regu-31" transform="scale(0.996264)"/>
       <use xlink:href="#CMMI10-3a" transform="translate(49.8132 0) scale(0.996264)"/>
       <use xlink:href="#NimbusRomNo9L-Regu-30" transform="translate(77.408707 0) scale(0.996264)"/>
      </g>
     </g>
    </g>
   </g>
   <g id="line2d_14">
    <path d="M 156.971605 101.519499 
L 156.891219 99.217536 
L 156.650451 96.926787 
L 156.250476 94.658414 
L 155.693241 92.423467 
L 154.981461 90.232835 
L 154.118605 88.09719 
L 153.108876 86.026938 
L 151.957192 84.032164 
L 150.669166 82.122586 
L 149.251072 80.307508 
L 147.709818 78.595773 
L 146.052915 76.99572 
L 144.288434 75.515145 
L 142.424971 74.161259 
L 140.471605 72.940661 
L 138.437853 71.859296 
L 136.333623 70.922432 
L 134.169166 70.134634 
L 131.955028 69.49974 
L 129.701995 69.020844 
L 127.421044 68.700277 
L 125.123288 68.539602 
L 122.819922 68.539602 
L 120.522166 68.700277 
L 118.241215 69.020844 
L 115.988182 69.49974 
L 113.774044 70.134634 
L 111.609587 70.922432 
L 109.505357 71.859296 
L 107.471605 72.940661 
L 105.518239 74.161259 
L 103.654776 75.515145 
L 101.890295 76.99572 
L 100.233392 78.595773 
L 98.692138 80.307508 
L 97.274044 82.122586 
L 95.986018 84.032164 
L 94.834334 86.026938 
L 93.824605 88.09719 
L 92.961748 90.232835 
L 92.249969 92.423467 
L 91.692734 94.658414 
L 91.292759 96.926787 
L 91.051991 99.217536 
L 90.971605 101.519499 
L 90.951502 100.367816 
L 90.790828 98.07006 
L 90.470261 95.78911 
L 89.991364 93.536077 
L 89.35647 91.321939 
L 88.568672 89.157482 
L 87.631808 87.053252 
L 86.550443 85.019499 
L 85.329845 83.066134 
L 83.97596 81.202671 
L 82.495384 79.438189 
L 80.895331 77.781286 
L 79.183596 76.240033 
L 77.368518 74.821939 
L 75.458941 73.533912 
L 73.464167 72.382229 
L 71.393914 71.372499 
L 69.25827 70.509643 
L 67.067638 69.797863 
L 64.832691 69.240629 
L 62.564317 68.840653 
L 60.273569 68.599886 
L 57.971605 68.519499 
L 55.669641 68.599886 
L 53.378893 68.840653 
L 51.110519 69.240629 
L 48.875572 69.797863 
L 46.68494 70.509643 
L 44.549296 71.372499 
L 42.479043 72.382229 
L 40.484269 73.533912 
L 38.574692 74.821939 
L 36.759614 76.240033 
L 35.047879 77.781286 
L 33.447826 79.438189 
L 31.96725 81.202671 
L 30.613365 83.066134 
L 29.392767 85.019499 
L 28.311401 87.053252 
L 27.374538 89.157482 
L 26.58674 91.321939 
L 25.951846 93.536077 
L 25.472949 95.78911 
L 25.152382 98.07006 
L 24.991708 100.367816 
L 24.991708 102.671183 
L 25.152382 104.968939 
L 25.472949 107.249889 
L 25.951846 109.502922 
L 26.58674 111.71706 
L 27.374538 113.881517 
L 28.311401 115.985747 
L 29.392767 118.019499 
L 30.613365 119.972865 
L 31.96725 121.836328 
L 33.447826 123.600809 
L 35.047879 125.257713 
L 36.759614 126.798966 
L 38.574692 128.21706 
L 40.484269 129.505087 
L 42.479043 130.65677 
L 44.549296 131.666499 
L 46.68494 132.529356 
L 48.875572 133.241135 
L 51.110519 133.79837 
L 53.378893 134.198346 
L 55.669641 134.439113 
L 57.971605 134.519499 
L 60.273569 134.439113 
L 62.564317 134.198346 
L 64.832691 133.79837 
L 67.067638 133.241135 
L 69.25827 132.529356 
L 71.393914 131.666499 
L 73.464167 130.65677 
L 75.458941 129.505087 
L 77.368518 128.21706 
L 79.183596 126.798966 
L 80.895331 125.257713 
L 82.495384 123.600809 
L 83.97596 121.836328 
L 85.329845 119.972865 
L 86.550443 118.019499 
L 87.631808 115.985747 
L 88.568672 113.881517 
L 89.35647 111.71706 
L 89.991364 109.502922 
L 90.470261 107.249889 
L 90.790828 104.968939 
L 90.951502 102.671183 
L 90.971605 101.519499 
L 90.991708 102.671183 
L 91.152382 104.968939 
L 91.472949 107.249889 
L 91.951846 109.502922 
L 92.58674 111.71706 
L 93.374538 113.881517 
L 94.311401 115.985747 
L 95.392767 118.019499 
L 96.613365 119.972865 
L 97.96725 121.836328 
L 99.447826 123.600809 
L 101.047879 125.257713 
L 102.759614 126.798966 
L 104.574692 128.21706 
L 106.484269 129.505087 
L 108.479043 130.65677 
L 110.549296 131.666499 
L 112.68494 132.529356 
L 114.875572 133.241135 
L 117.110519 133.79837 
L 119.378893 134.198346 
L 121.669641 134.439113 
L 123.971605 134.519499 
L 126.273569 134.439113 
L 128.564317 134.198346 
L 130.832691 133.79837 
L 133.067638 133.241135 
L 135.25827 132.529356 
L 137.393914 131.666499 
L 139.464167 130.65677 
L 141.458941 129.505087 
L 143.368518 128.21706 
L 145.183596 126.798966 
L 146.895331 125.257713 
L 148.495384 123.600809 
L 149.97596 121.836328 
L 151.329845 119.972865 
L 152.550443 118.019499 
L 153.631808 115.985747 
L 154.568672 113.881517 
L 155.35647 111.71706 
L 155.991364 109.502922 
L 156.470261 107.249889 
L 156.790828 104.968939 
L 156.951502 102.671183 
L 156.971605 101.519499 
L 156.971605 101.519499 
" clip-path="url(#p0aab8c97b5)" style="fill: none; stroke: #000000; stroke-linecap: square"/>
   </g>
   <g id="line2d_15">
    <path d="M 156.971605 101.519499 
L 156.891219 99.217536 
L 156.650451 96.926787 
L 156.250476 94.658414 
L 155.693241 92.423467 
L 154.981461 90.232835 
L 154.118605 88.09719 
L 153.108876 86.026938 
L 151.957192 84.032164 
L 150.669166 82.122586 
L 149.251072 80.307508 
L 147.709818 78.595773 
L 146.052915 76.99572 
L 144.288434 75.515145 
L 142.424971 74.161259 
L 140.471605 72.940661 
L 138.437853 71.859296 
L 136.333623 70.922432 
L 134.169166 70.134634 
L 131.955028 69.49974 
L 129.701995 69.020844 
L 127.421044 68.700277 
L 125.123288 68.539602 
L 122.819922 68.539602 
L 120.522166 68.700277 
L 118.241215 69.020844 
L 115.988182 69.49974 
L 113.774044 70.134634 
L 111.609587 70.922432 
L 109.505357 71.859296 
L 107.471605 72.940661 
L 105.518239 74.161259 
L 103.654776 75.515145 
L 101.890295 76.99572 
L 100.233392 78.595773 
L 98.692138 80.307508 
L 97.274044 82.122586 
L 95.986018 84.032164 
L 94.834334 86.026938 
L 93.824605 88.09719 
L 92.961748 90.232835 
L 92.249969 92.423467 
L 91.692734 94.658414 
L 91.292759 96.926787 
L 91.051991 99.217536 
L 90.971605 101.519499 
L 90.951502 100.367816 
L 90.790828 98.07006 
L 90.470261 95.78911 
L 89.991364 93.536077 
L 89.35647 91.321939 
L 88.568672 89.157482 
L 87.631808 87.053252 
L 86.550443 85.019499 
L 85.329845 83.066134 
L 83.97596 81.202671 
L 82.495384 79.438189 
L 80.895331 77.781286 
L 79.183596 76.240033 
L 77.368518 74.821939 
L 75.458941 73.533912 
L 73.464167 72.382229 
L 71.393914 71.372499 
L 69.25827 70.509643 
L 67.067638 69.797863 
L 64.832691 69.240629 
L 62.564317 68.840653 
L 60.273569 68.599886 
L 57.971605 68.519499 
L 55.669641 68.599886 
L 53.378893 68.840653 
L 51.110519 69.240629 
L 48.875572 69.797863 
L 46.68494 70.509643 
L 44.549296 71.372499 
L 42.479043 72.382229 
L 40.484269 73.533912 
L 38.574692 74.821939 
L 36.759614 76.240033 
L 35.047879 77.781286 
L 33.447826 79.438189 
L 31.96725 81.202671 
L 30.613365 83.066134 
L 29.392767 85.019499 
L 28.311401 87.053252 
L 27.374538 89.157482 
L 26.58674 91.321939 
L 25.951846 93.536077 
L 25.472949 95.78911 
L 25.152382 98.07006 
L 24.991708 100.367816 
L 24.991708 102.671183 
L 25.152382 104.968939 
L 25.472949 107.249889 
L 25.951846 109.502922 
L 26.58674 111.71706 
L 27.374538 113.881517 
L 28.311401 115.985747 
L 29.392767 118.019499 
L 30.613365 119.972865 
L 31.96725 121.836328 
L 33.447826 123.600809 
L 35.047879 125.257713 
L 36.759614 126.798966 
L 38.574692 128.21706 
L 40.484269 129.505087 
L 42.479043 130.65677 
L 44.549296 131.666499 
L 46.68494 132.529356 
L 48.875572 133.241135 
L 51.110519 133.79837 
L 53.378893 134.198346 
L 55.669641 134.439113 
L 57.971605 134.519499 
L 60.273569 134.439113 
L 62.564317 134.198346 
L 64.832691 133.79837 
L 67.067638 133.241135 
L 69.25827 132.529356 
L 71.393914 131.666499 
L 73.464167 130.65677 
L 75.458941 129.505087 
L 77.368518 128.21706 
L 79.183596 126.798966 
L 80.895331 125.257713 
L 82.495384 123.600809 
L 83.97596 121.836328 
L 85.329845 119.972865 
L 86.550443 118.019499 
L 87.631808 115.985747 
L 88.568672 113.881517 
L 89.35647 111.71706 
L 89.991364 109.502922 
L 90.470261 107.249889 
L 90.790828 104.968939 
L 90.951502 102.671183 
L 90.971605 101.519499 
L 90.991708 102.671183 
L 91.152382 104.968939 
L 91.472949 107.249889 
L 91.951846 109.502922 
L 92.58674 111.71706 
L 93.374538 113.881517 
L 94.311401 115.985747 
L 95.392767 118.019499 
L 96.613365 119.972865 
L 97.96725 121.836328 
L 99.447826 123.600809 
L 101.047879 125.257713 
L 102.759614 126.798966 
L 104.574692 128.21706 
L 106.484269 129.505087 
L 108.479043 130.65677 
L 110.549296 131.666499 
L 112.68494 132.529356 
L 114.875572 133.241135 
L 117.110519 133.79837 
L 119.378893 134.198346 
L 121.669641 134.439113 
L 123.971605 134.519499 
L 126.273569 134.439113 
L 128.564317 134.198346 
L 130.832691 133.79837 
L 133.067638 133.241135 
L 135.25827 132.529356 
L 137.393914 131.666499 
L 139.464167 130.65677 
L 141.458941 129.505087 
L 143.368518 128.21706 
L 145.183596 126.798966 
L 146.895331 125.257713 
L 148.495384 123.600809 
L 149.97596 121.836328 
L 151.329845 119.972865 
L 152.550443 118.019499 
L 153.631808 115.985747 
L 154.568672 113.881517 
L 155.35647 111.71706 
L 155.991364 109.502922 
L 156.470261 107.249889 
L 156.790828 104.968939 
L 156.951502 102.671183 
L 156.971605 101.519499 
L 156.971605 101.519499 
" clip-path="url(#p0aab8c97b5)" style="fill: none; stroke-dasharray: 3.7,1.6; stroke-dashoffset: 0; stroke: #ff0000"/>
   </g>
   <g id="line2d_16">
    <path d="M 156.971605 101.519499 
L 156.891219 99.217536 
L 156.650451 96.926787 
L 156.250476 94.658414 
L 155.693241 92.423467 
L 154.981461 90.232835 
L 154.118605 88.09719 
L 153.108876 86.026938 
L 151.957192 84.032164 
L 150.669166 82.122586 
L 149.251072 80.307508 
L 147.709818 78.595773 
L 146.052915 76.99572 
L 144.288434 75.515145 
L 142.424971 74.161259 
L 140.471605 72.940661 
L 138.437853 71.859296 
L 136.333623 70.922432 
L 134.169166 70.134634 
L 131.955028 69.49974 
L 129.701995 69.020844 
L 127.421044 68.700277 
L 125.123288 68.539602 
L 122.819922 68.539602 
L 120.522166 68.700277 
L 118.241215 69.020844 
L 115.988182 69.49974 
L 113.774044 70.134634 
L 111.609587 70.922432 
L 109.505357 71.859296 
L 107.471605 72.940661 
L 105.518239 74.161259 
L 103.654776 75.515145 
L 101.890295 76.99572 
L 100.233392 78.595773 
L 98.692138 80.307508 
L 97.274044 82.122586 
L 95.986018 84.032164 
L 94.834334 86.026938 
L 93.824605 88.09719 
L 92.961748 90.232835 
L 92.249969 92.423467 
L 91.692734 94.658414 
L 91.292759 96.926787 
L 91.051991 99.217536 
L 90.971605 101.519499 
L 90.951502 100.367816 
L 90.790828 98.07006 
L 90.470261 95.78911 
L 89.991364 93.536077 
L 89.35647 91.321939 
L 88.568672 89.157482 
L 87.631808 87.053252 
L 86.550443 85.019499 
L 85.329845 83.066134 
L 83.97596 81.202671 
L 82.495384 79.438189 
L 80.895331 77.781286 
L 79.183596 76.240033 
L 77.368518 74.821939 
L 75.458941 73.533912 
L 73.464167 72.382229 
L 71.393914 71.372499 
L 69.25827 70.509643 
L 67.067638 69.797863 
L 64.832691 69.240629 
L 62.564317 68.840653 
L 60.273569 68.599886 
L 57.971605 68.519499 
L 55.669641 68.599886 
L 53.378893 68.840653 
L 51.110519 69.240629 
L 48.875572 69.797863 
L 46.68494 70.509643 
L 44.549296 71.372499 
L 42.479043 72.382229 
L 40.484269 73.533912 
L 38.574692 74.821939 
L 36.759614 76.240033 
L 35.047879 77.781286 
L 33.447826 79.438189 
L 31.96725 81.202671 
L 30.613365 83.066134 
L 29.392767 85.019499 
L 28.311401 87.053252 
L 27.374538 89.157482 
L 26.58674 91.321939 
L 25.951846 93.536077 
L 25.472949 95.78911 
L 25.152382 98.07006 
L 24.991708 100.367816 
L 24.991708 102.671183 
L 25.152382 104.968939 
L 25.472949 107.249889 
L 25.951846 109.502922 
L 26.58674 111.71706 
L 27.374538 113.881517 
L 28.311401 115.985747 
L 29.392767 118.019499 
L 30.613365 119.972865 
L 31.96725 121.836328 
L 33.447826 123.600809 
L 35.047879 125.257713 
L 36.759614 126.798966 
L 38.574692 128.21706 
L 40.484269 129.505087 
L 42.479043 130.65677 
L 44.549296 131.666499 
L 46.68494 132.529356 
L 48.875572 133.241135 
L 51.110519 133.79837 
L 53.378893 134.198346 
L 55.669641 134.439113 
L 57.971605 134.519499 
L 60.273569 134.439113 
L 62.564317 134.198346 
L 64.832691 133.79837 
L 67.067638 133.241135 
L 69.25827 132.529356 
L 71.393914 131.666499 
L 73.464167 130.65677 
L 75.458941 129.505087 
L 77.368518 128.21706 
L 79.183596 126.798966 
L 80.895331 125.257713 
L 82.495384 123.600809 
L 83.97596 121.836328 
L 85.329845 119.972865 
L 86.550443 118.019499 
L 87.631808 115.985747 
L 88.568672 113.881517 
L 89.35647 111.71706 
L 89.991364 109.502922 
L 90.470261 107.249889 
L 90.790828 104.968939 
L 90.951502 102.671183 
L 90.971605 101.519499 
L 90.991708 102.671183 
L 91.152382 104.968939 
L 91.472949 107.249889 
L 91.951846 109.502922 
L 92.58674 111.71706 
L 93.374538 113.881517 
L 94.311401 115.985747 
L 95.392767 118.019499 
L 96.613365 119.972865 
L 97.96725 121.836328 
L 99.447826 123.600809 
L 101.047879 125.257713 
L 102.759614 126.798966 
L 104.574692 128.21706 
L 106.484269 129.505087 
L 108.479043 130.65677 
L 110.549296 131.666499 
L 112.68494 132.529356 
L 114.875572 133.241135 
L 117.110519 133.79837 
L 119.378893 134.198346 
L 121.669641 134.439113 
L 123.971605 134.519499 
L 126.273569 134.439113 
L 128.564317 134.198346 
L 130.832691 133.79837 
L 133.067638 133.241135 
L 135.25827 132.529356 
L 137.393914 131.666499 
L 139.464167 130.65677 
L 141.458941 129.505087 
L 143.368518 128.21706 
L 145.183596 126.798966 
L 146.895331 125.257713 
L 148.495384 123.600809 
L 149.97596 121.836328 
L 151.329845 119.972865 
L 152.550443 118.019499 
L 153.631808 115.985747 
L 154.568672 113.881517 
L 155.35647 111.71706 
L 155.991364 109.502922 
L 156.470261 107.249889 
L 156.790828 104.968939 
L 156.951502 102.671183 
L 156.971605 101.519499 
L 156.971605 101.519499 
" clip-path="url(#p0aab8c97b5)" style="fill: none; stroke-dasharray: 1,1.65; stroke-dashoffset: 0; stroke: #0000ff"/>
   </g>
   <g id="patch_3">
    <path d="M 160.271605 101.519499 
C 160.271605 92.419107 158.479026 83.407204 154.996457 74.999538 
C 151.513887 66.591871 146.409054 58.951949 139.974105 52.516999 
C 133.539156 46.08205 125.899233 40.977217 117.491567 37.494648 
C 109.0839 34.012078 100.071998 32.219499 90.971605 32.219499 
C 81.871212 32.219499 72.85931 34.012078 64.451643 37.494648 
C 56.043977 40.977217 48.404054 46.08205 41.969105 52.516999 
C 35.534156 58.951949 30.429323 66.591871 26.946753 74.999538 
C 23.464184 83.407204 21.671605 92.419107 21.671605 101.519499 
C 21.671605 110.619892 23.464184 119.631795 26.946753 128.039461 
C 30.429323 136.447128 35.534156 144.08705 41.969105 150.521999 
C 48.404054 156.956949 56.043977 162.061782 64.451643 165.544351 
C 72.85931 169.02692 81.871212 170.819499 90.971605 170.819499 
C 100.071998 170.819499 109.0839 169.02692 117.491567 165.544351 
C 125.899233 162.061782 133.539156 156.956949 139.974105 150.521999 
C 146.409054 144.08705 151.513887 136.447128 154.996457 128.039461 
C 158.479026 119.631795 160.271605 110.619892 160.271605 101.519499 
" style="fill: none; stroke: #000000; stroke-width: 0.5; stroke-linejoin: miter; stroke-linecap: square"/>
   </g>
   <g id="text_14">
    <!-- Polarization Pattern free_space_horizontal -->
    <g transform="translate(11.107232 10.084396) scale(0.096 -0.096)">
     <defs>
      <path id="NimbusRomNo9L-Regu-50" d="M 1293 1875 
C 1459 1856 1568 1856 1734 1856 
C 2234 1856 2579 1919 2854 2072 
C 3238 2274 3469 2660 3469 3078 
C 3469 3344 3379 3584 3206 3768 
C 2950 4047 2394 4224 1792 4224 
L 102 4224 
L 102 4102 
C 576 4051 640 3987 640 3528 
L 640 766 
C 640 230 589 166 102 122 
L 102 0 
L 1894 0 
L 1894 128 
C 1389 128 1293 218 1293 693 
L 1293 1875 
z
M 1293 3772 
C 1293 3943 1338 3987 1510 3987 
C 2374 3987 2771 3690 2771 3040 
C 2771 2428 2394 2112 1658 2112 
C 1530 2112 1440 2119 1293 2131 
L 1293 3772 
z
" transform="scale(0.015625)"/>
      <path id="NimbusRomNo9L-Regu-6f" d="M 1600 2944 
C 768 2944 186 2330 186 1446 
C 186 582 781 -64 1587 -64 
C 2394 -64 3008 614 3008 1498 
C 3008 2336 2419 2944 1600 2944 
z
M 1517 2765 
C 2054 2765 2432 2150 2432 1274 
C 2432 550 2144 115 1664 115 
C 1414 115 1178 269 1043 525 
C 864 858 762 1306 762 1760 
C 762 2368 1062 2765 1517 2765 
z
" transform="scale(0.015625)"/>
      <path id="NimbusRomNo9L-Regu-6c" d="M 122 4000 
L 160 4000 
C 230 4000 307 4000 358 4000 
C 563 4000 627 3910 627 3610 
L 627 557 
C 627 211 538 128 134 96 
L 134 0 
L 1645 0 
L 1645 109 
C 1242 109 1165 173 1165 528 
L 1165 4371 
L 1139 4384 
C 806 4275 563 4211 122 4103 
L 122 4000 
z
" transform="scale(0.015625)"/>
      <path id="NimbusRomNo9L-Regu-61" d="M 2829 423 
C 2720 333 2643 301 2547 301 
C 2400 301 2355 390 2355 672 
L 2355 1920 
C 2355 2253 2323 2438 2227 2592 
C 2086 2822 1811 2944 1434 2944 
C 832 2944 358 2630 358 2227 
C 358 2080 486 1952 634 1952 
C 787 1952 922 2080 922 2221 
C 922 2246 915 2278 909 2323 
C 896 2381 890 2432 890 2477 
C 890 2650 1094 2790 1350 2790 
C 1664 2790 1837 2605 1837 2259 
L 1837 1869 
C 851 1472 742 1421 467 1178 
C 326 1050 237 832 237 621 
C 237 218 518 -64 909 -64 
C 1190 -64 1453 70 1843 403 
C 1875 70 1990 -64 2253 -64 
C 2470 -64 2605 13 2829 256 
L 2829 423 
z
M 1837 783 
C 1837 584 1805 526 1670 449 
C 1517 359 1338 301 1203 301 
C 979 301 800 520 800 796 
L 800 822 
C 800 1201 1062 1433 1837 1715 
L 1837 783 
z
" transform="scale(0.015625)"/>
      <path id="NimbusRomNo9L-Regu-72" d="M 45 2496 
C 134 2515 192 2522 269 2522 
C 429 2522 486 2419 486 2138 
L 486 538 
C 486 218 442 173 32 96 
L 32 0 
L 1568 0 
L 1568 102 
C 1133 102 1024 199 1024 565 
L 1024 2013 
C 1024 2219 1299 2541 1472 2541 
C 1510 2541 1568 2509 1638 2445 
C 1741 2355 1811 2317 1894 2317 
C 2048 2317 2144 2426 2144 2605 
C 2144 2816 2010 2944 1792 2944 
C 1523 2944 1338 2797 1024 2343 
L 1024 2931 
L 992 2944 
C 653 2803 422 2721 45 2599 
L 45 2496 
z
" transform="scale(0.015625)"/>
      <path id="NimbusRomNo9L-Regu-69" d="M 1120 2929 
L 128 2579 
L 128 2484 
L 179 2490 
C 256 2502 339 2509 397 2509 
C 550 2509 608 2406 608 2125 
L 608 640 
C 608 179 544 109 102 109 
L 102 0 
L 1619 0 
L 1619 96 
C 1197 128 1146 191 1146 650 
L 1146 2910 
L 1120 2929 
z
M 819 4352 
C 646 4352 499 4205 499 4026 
C 499 3847 640 3699 819 3699 
C 1005 3699 1152 3840 1152 4026 
C 1152 4205 1005 4352 819 4352 
z
" transform="scale(0.015625)"/>
      <path id="NimbusRomNo9L-Regu-7a" d="M 2675 864 
L 2560 890 
C 2496 570 2458 467 2374 358 
C 2285 250 2067 192 1741 192 
L 858 192 
L 2579 2784 
L 2579 2880 
L 358 2880 
L 339 2125 
L 454 2125 
C 512 2592 608 2688 992 2688 
L 1875 2688 
L 173 96 
L 173 0 
L 2586 0 
L 2675 864 
z
" transform="scale(0.015625)"/>
      <path id="NimbusRomNo9L-Regu-74" d="M 1632 2880 
L 986 2880 
L 986 3622 
C 986 3686 979 3706 941 3706 
C 896 3648 858 3590 813 3526 
C 570 3174 294 2867 192 2841 
C 122 2794 83 2748 83 2715 
C 83 2695 90 2682 109 2682 
L 448 2682 
L 448 751 
C 448 212 640 -64 1018 -64 
C 1331 -64 1574 90 1786 423 
L 1702 493 
C 1568 333 1459 269 1318 269 
C 1082 269 986 443 986 847 
L 986 2682 
L 1632 2682 
L 1632 2880 
z
" transform="scale(0.015625)"/>
      <path id="NimbusRomNo9L-Regu-6e" d="M 102 2579 
C 141 2598 205 2605 275 2605 
C 454 2605 512 2509 512 2195 
L 512 608 
C 512 243 442 154 115 128 
L 115 32 
L 1472 32 
L 1472 128 
C 1146 154 1050 230 1050 461 
L 1050 2259 
C 1357 2547 1498 2624 1709 2624 
C 2022 2624 2176 2426 2176 2003 
L 2176 666 
C 2176 262 2093 154 1773 128 
L 1773 32 
L 3104 32 
L 3104 128 
C 2790 160 2714 237 2714 550 
L 2714 2016 
C 2714 2618 2432 2976 1958 2976 
C 1664 2976 1466 2867 1030 2458 
L 1030 2963 
L 986 2976 
C 672 2861 454 2790 102 2688 
L 102 2579 
z
" transform="scale(0.015625)"/>
      <path id="NimbusRomNo9L-Regu-65" d="M 2611 1053 
C 2304 564 2029 378 1619 378 
C 1254 378 979 564 794 930 
C 678 1174 634 1386 621 1779 
L 2592 1779 
C 2541 2193 2477 2377 2317 2581 
C 2125 2811 1830 2944 1498 2944 
C 1178 2944 877 2829 634 2611 
C 333 2349 160 1894 160 1370 
C 160 486 621 -64 1357 -64 
C 1965 -64 2445 315 2714 1008 
L 2611 1053 
z
M 634 1984 
C 704 2479 922 2714 1312 2714 
C 1702 2714 1856 2535 1939 1984 
L 634 1984 
z
" transform="scale(0.015625)"/>
      <path id="NimbusRomNo9L-Regu-66" d="M 1978 2880 
L 1190 2880 
L 1190 3611 
C 1190 3978 1312 4173 1555 4173 
C 1690 4173 1779 4110 1894 3927 
C 1997 3763 2074 3700 2182 3700 
C 2330 3700 2451 3814 2451 3959 
C 2451 4188 2170 4352 1786 4352 
C 1389 4352 1050 4181 883 3891 
C 717 3613 666 3385 659 2880 
L 134 2880 
L 134 2675 
L 659 2675 
L 659 656 
C 659 185 589 109 128 109 
L 128 0 
L 1792 0 
L 1792 109 
C 1267 109 1197 180 1197 661 
L 1197 2675 
L 1978 2675 
L 1978 2880 
z
" transform="scale(0.015625)"/>
      <path id="NimbusRomNo9L-Regu-73" d="M 2016 2010 
L 1990 2880 
L 1920 2880 
L 1907 2867 
C 1850 2822 1843 2816 1818 2816 
C 1779 2816 1715 2829 1645 2861 
C 1504 2915 1363 2944 1197 2944 
C 691 2944 326 2616 326 2154 
C 326 1796 531 1539 1075 1231 
L 1446 1020 
C 1670 892 1779 737 1779 539 
C 1779 256 1574 77 1248 77 
C 1030 77 832 159 710 298 
C 576 455 518 600 435 960 
L 333 960 
L 333 -39 
L 416 -39 
C 461 33 486 48 563 48 
C 621 48 710 35 858 -2 
C 1037 -39 1210 -64 1325 -64 
C 1818 -64 2227 308 2227 757 
C 2227 1077 2074 1289 1690 1520 
L 998 1930 
C 819 2033 723 2194 723 2367 
C 723 2624 922 2803 1216 2803 
C 1581 2803 1773 2583 1920 2010 
L 2016 2010 
z
" transform="scale(0.015625)"/>
      <path id="NimbusRomNo9L-Regu-70" d="M 58 2516 
C 115 2522 160 2522 218 2522 
C 435 2522 480 2458 480 2155 
L 480 -855 
C 480 -1189 410 -1261 32 -1299 
L 32 -1408 
L 1581 -1408 
L 1581 -1293 
C 1101 -1293 1018 -1222 1018 -816 
L 1018 199 
C 1242 -13 1395 -77 1664 -77 
C 2419 -77 3008 643 3008 1575 
C 3008 2372 2560 2944 1939 2944 
C 1581 2944 1299 2784 1018 2438 
L 1018 2931 
L 979 2944 
C 634 2810 410 2726 58 2618 
L 58 2516 
z
M 1018 2136 
C 1018 2329 1376 2560 1670 2560 
C 2144 2560 2458 2071 2458 1324 
C 2458 611 2144 128 1683 128 
C 1382 128 1018 359 1018 552 
L 1018 2136 
z
" transform="scale(0.015625)"/>
      <path id="NimbusRomNo9L-Regu-63" d="M 2547 998 
C 2240 550 2010 397 1645 397 
C 1062 397 653 909 653 1645 
C 653 2304 1005 2758 1523 2758 
C 1754 2758 1837 2688 1901 2451 
L 1939 2310 
C 1990 2131 2106 2016 2240 2016 
C 2406 2016 2547 2138 2547 2285 
C 2547 2643 2099 2944 1562 2944 
C 1248 2944 922 2816 659 2586 
C 339 2304 160 1869 160 1363 
C 160 531 666 -64 1376 -64 
C 1664 -64 1920 38 2150 237 
C 2323 390 2445 563 2637 941 
L 2547 998 
z
" transform="scale(0.015625)"/>
      <path id="NimbusRomNo9L-Regu-68" d="M 1005 2222 
C 1274 2516 1466 2624 1715 2624 
C 2035 2624 2195 2395 2195 1948 
L 2195 684 
C 2195 250 2131 166 1760 128 
L 1760 32 
L 3117 32 
L 3117 128 
C 2771 192 2733 243 2733 684 
L 2733 1954 
C 2733 2625 2464 2970 1946 2970 
C 1568 2970 1299 2816 1005 2432 
L 1005 4390 
L 973 4409 
C 755 4332 595 4281 237 4179 
L 64 4128 
L 64 4026 
C 90 4032 109 4032 141 4032 
C 416 4032 467 3980 467 3705 
L 467 686 
C 467 237 429 179 58 128 
L 58 32 
L 1440 32 
L 1440 128 
C 1069 166 1005 243 1005 684 
L 1005 2222 
z
" transform="scale(0.015625)"/>
     </defs>
     <use xlink:href="#NimbusRomNo9L-Regu-50" transform="scale(0.996264)"/>
     <use xlink:href="#NimbusRomNo9L-Regu-6f" transform="translate(55.391677 0) scale(0.996264)"/>
     <use xlink:href="#NimbusRomNo9L-Regu-6c" transform="translate(105.204877 0) scale(0.996264)"/>
     <use xlink:href="#NimbusRomNo9L-Regu-61" transform="translate(132.900047 0) scale(0.996264)"/>
     <use xlink:href="#NimbusRomNo9L-Regu-72" transform="translate(177.133616 0) scale(0.996264)"/>
     <use xlink:href="#NimbusRomNo9L-Regu-69" transform="translate(210.308845 0) scale(0.996264)"/>
     <use xlink:href="#NimbusRomNo9L-Regu-7a" transform="translate(238.004015 0) scale(0.996264)"/>
     <use xlink:href="#NimbusRomNo9L-Regu-61" transform="translate(282.237584 0) scale(0.996264)"/>
     <use xlink:href="#NimbusRomNo9L-Regu-74" transform="translate(326.471152 0) scale(0.996264)"/>
     <use xlink:href="#NimbusRomNo9L-Regu-69" transform="translate(354.166322 0) scale(0.996264)"/>
     <use xlink:href="#NimbusRomNo9L-Regu-6f" transform="translate(381.861492 0) scale(0.996264)"/>
     <use xlink:href="#NimbusRomNo9L-Regu-6e" transform="translate(431.674692 0) scale(0.996264)"/>
     <use xlink:href="#NimbusRomNo9L-Regu-50" transform="translate(506.394493 0) scale(0.996264)"/>
     <use xlink:href="#NimbusRomNo9L-Regu-61" transform="translate(560.292777 0) scale(0.996264)"/>
     <use xlink:href="#NimbusRomNo9L-Regu-74" transform="translate(604.526346 0) scale(0.996264)"/>
     <use xlink:href="#NimbusRomNo9L-Regu-74" transform="translate(632.221516 0) scale(0.996264)"/>
     <use xlink:href="#NimbusRomNo9L-Regu-65" transform="translate(659.916685 0) scale(0.996264)"/>
     <use xlink:href="#NimbusRomNo9L-Regu-72" transform="translate(704.150254 0) scale(0.996264)"/>
     <use xlink:href="#NimbusRomNo9L-Regu-6e" transform="translate(737.325484 0) scale(0.996264)"/>
     <use xlink:href="#NimbusRomNo9L-Regu-66" transform="translate(812.045284 0) scale(0.996264)"/>
     <use xlink:href="#NimbusRomNo9L-Regu-72" transform="translate(845.220514 0) scale(0.996264)"/>
     <use xlink:href="#NimbusRomNo9L-Regu-65" transform="translate(878.395744 0) scale(0.996264)"/>
     <use xlink:href="#NimbusRomNo9L-Regu-65" transform="translate(922.629312 0) scale(0.996264)"/>
     <use xlink:href="#NimbusRomNo9L-Regu-73" transform="translate(1002.728446 0) scale(0.996264)"/>
     <use xlink:href="#NimbusRomNo9L-Regu-70" transform="translate(1041.482152 0) scale(0.996264)"/>
     <use xlink:href="#NimbusRomNo9L-Regu-61" transform="translate(1091.295353 0) scale(0.996264)"/>
     <use xlink:href="#NimbusRomNo9L-Regu-63" transform="translate(1135.528922 0) scale(0.996264)"/>
     <use xlink:href="#NimbusRomNo9L-Regu-65" transform="translate(1179.76249 0) scale(0.996264)"/>
     <use xlink:href="#NimbusRomNo9L-Regu-68" transform="translate(1259.861624 0) scale(0.996264)"/>
     <use xlink:href="#NimbusRomNo9L-Regu-6f" transform="translate(1309.674825 0) scale(0.996264)"/>
     <use xlink:href="#NimbusRomNo9L-Regu-72" transform="translate(1359.488025 0) scale(0.996264)"/>
     <use xlink:href="#NimbusRomNo9L-Regu-69" transform="translate(1392.663255 0) scale(0.996264)"/>
     <use xlink:href="#NimbusRomNo9L-Regu-7a" transform="translate(1420.358425 0) scale(0.996264)"/>
     <use xlink:href="#NimbusRomNo9L-Regu-6f" transform="translate(1464.591993 0) scale(0.996264)"/>
     <use xlink:href="#NimbusRomNo9L-Regu-6e" transform="translate(1514.405194 0) scale(0.996264)"/>
     <use xlink:href="#NimbusRomNo9L-Regu-74" transform="translate(1564.218394 0) scale(0.996264)"/>
     <use xlink:href="#NimbusRomNo9L-Regu-61" transform="translate(1591.913564 0) scale(0.996264)"/>
     <use xlink:href="#NimbusRomNo9L-Regu-6c" transform="translate(1636.147133 0) scale(0.996264)"/>
     <path d="M 972.840222 0 
L 1002.728446 0 
L 1002.728446 0.3985 
L 972.840222 0.3985 
L 972.840222 0 
z
"/>
     <path d="M 1229.9734 0 
L 1259.861624 0 
L 1259.861624 0.3985 
L 1229.9734 0.3985 
L 1229.9734 0 
z
"/>
    </g>
   </g>
   <g id="legend_1">
    <g id="text_15">
     <!-- H -->
     <g transform="translate(88.094409 138.211744) scale(0.08 -0.08)">
      <defs>
       <path id="NimbusRomNo9L-Regu-48" d="M 1338 2304 
L 1338 3533 
C 1338 3990 1408 4059 1901 4104 
L 1901 4224 
L 122 4224 
L 122 4104 
C 614 4059 685 3989 685 3527 
L 685 749 
C 685 210 621 134 122 134 
L 122 0 
L 1901 0 
L 1901 121 
C 1421 159 1338 242 1338 699 
L 1338 2022 
L 3277 2022 
L 3277 757 
C 3277 211 3213 134 2714 134 
L 2714 0 
L 4493 0 
L 4493 121 
C 4013 159 3930 242 3930 696 
L 3930 3529 
C 3930 3989 4000 4059 4493 4104 
L 4493 4224 
L 2714 4224 
L 2714 4104 
C 3206 4059 3277 3990 3277 3533 
L 3277 2304 
L 1338 2304 
z
" transform="scale(0.015625)"/>
      </defs>
      <use xlink:href="#NimbusRomNo9L-Regu-48" transform="scale(0.996264)"/>
     </g>
    </g>
    <g id="line2d_17">
     <path d="M 77.341219 145.037207 
L 83.341219 145.037207 
L 89.341219 145.037207 
" style="fill: none; stroke: #000000; stroke-linecap: square"/>
    </g>
    <g id="text_16">
     <!-- 0.24 -->
     <g transform="translate(94.141219 147.137207) scale(0.06 -0.06)">
      <defs>
       <path id="NimbusRomNo9L-Regu-2e" d="M 800 646 
C 608 646 448 480 448 281 
C 448 96 608 -64 794 -64 
C 992 -64 1158 96 1158 281 
C 1158 480 992 646 800 646 
z
" transform="scale(0.015625)"/>
      </defs>
      <use xlink:href="#NimbusRomNo9L-Regu-30" transform="scale(0.996264)"/>
      <use xlink:href="#NimbusRomNo9L-Regu-2e" transform="translate(49.8132 0) scale(0.996264)"/>
      <use xlink:href="#NimbusRomNo9L-Regu-32" transform="translate(74.719801 0) scale(0.996264)"/>
      <use xlink:href="#NimbusRomNo9L-Regu-34" transform="translate(124.533001 0) scale(0.996264)"/>
     </g>
    </g>
    <g id="line2d_18">
     <path d="M 77.341219 153.531305 
L 83.341219 153.531305 
L 89.341219 153.531305 
" style="fill: none; stroke-dasharray: 3.7,1.6; stroke-dashoffset: 0; stroke: #ff0000"/>
    </g>
    <g id="text_17">
     <!-- 0.42 -->
     <g transform="translate(94.141219 155.631305) scale(0.06 -0.06)">
      <use xlink:href="#NimbusRomNo9L-Regu-30" transform="scale(0.996264)"/>
      <use xlink:href="#NimbusRomNo9L-Regu-2e" transform="translate(49.8132 0) scale(0.996264)"/>
      <use xlink:href="#NimbusRomNo9L-Regu-34" transform="translate(74.719801 0) scale(0.996264)"/>
      <use xlink:href="#NimbusRomNo9L-Regu-32" transform="translate(124.533001 0) scale(0.996264)"/>
     </g>
    </g>
    <g id="line2d_19">
     <path d="M 77.341219 162.025402 
L 83.341219 162.025402 
L 89.341219 162.025402 
" style="fill: none; stroke-dasharray: 1,1.65; stroke-dashoffset: 0; stroke: #0000ff"/>
    </g>
    <g id="text_18">
     <!-- 0.59 -->
     <g transform="translate(94.141219 164.125402) scale(0.06 -0.06)">
      <use xlink:href="#NimbusRomNo9L-Regu-30" transform="scale(0.996264)"/>
      <use xlink:href="#NimbusRomNo9L-Regu-2e" transform="translate(49.8132 0) scale(0.996264)"/>
      <use xlink:href="#NimbusRomNo9L-Regu-35" transform="translate(74.719801 0) scale(0.996264)"/>
      <use xlink:href="#NimbusRomNo9L-Regu-39" transform="translate(124.533001 0) scale(0.996264)"/>
     </g>
    </g>
   </g>
  </g>
 </g>
 <defs>
  <clipPath id="p0aab8c97b5">
   <path d="M 160.271605 101.519499 
C 160.271605 92.419107 158.479026 83.407204 154.996457 74.999538 
C 151.513887 66.591871 146.409054 58.951949 139.974105 52.516999 
C 133.539156 46.08205 125.899233 40.977217 117.491567 37.494648 
C 109.0839 34.012078 100.071998 32.219499 90.971605 32.219499 
C 81.871212 32.219499 72.85931 34.012078 64.451643 37.494648 
C 56.043977 40.977217 48.404054 46.08205 41.969105 52.516999 
C 35.534156 58.951949 30.429323 66.591871 26.946753 74.999538 
C 23.464184 83.407204 21.671605 92.419107 21.671605 101.519499 
C 21.671605 110.619892 23.464184 119.631795 26.946753 128.039461 
C 30.429323 136.447128 35.534156 144.08705 41.969105 150.521999 
C 48.404054 156.956949 56.043977 162.061782 64.451643 165.544351 
C 72.85931 169.02692 81.871212 170.819499 90.971605 170.819499 
C 100.071998 170.819499 109.0839 169.02692 117.491567 165.544351 
C 125.899233 162.061782 133.539156 156.956949 139.974105 150.521999 
C 146.409054 144.08705 151.513887 136.447128 154.996457 128.039461 
C 158.479026 119.631795 160.271605 110.619892 160.271605 101.519499 
M 90.971605 101.519499 
C 90.971605 101.519499 90.971605 101.519499 90.971605 101.519499 
C 90.971605 101.519499 90.971605 101.519499 90.971605 101.519499 
C 90.971605 101.519499 90.971605 101.519499 90.971605 101.519499 
C 90.971605 101.519499 90.971605 101.519499 90.971605 101.519499 
C 90.971605 101.519499 90.971605 101.519499 90.971605 101.519499 
C 90.971605 101.519499 90.971605 101.519499 90.971605 101.519499 
C 90.971605 101.519499 90.971605 101.519499 90.971605 101.519499 
C 90.971605 101.519499 90.971605 101.519499 90.971605 101.519499 
C 90.971605 101.519499 90.971605 101.519499 90.971605 101.519499 
C 90.971605 101.519499 90.971605 101.519499 90.971605 101.519499 
C 90.971605 101.519499 90.971605 101.519499 90.971605 101.519499 
C 90.971605 101.519499 90.971605 101.519499 90.971605 101.519499 
C 90.971605 101.519499 90.971605 101.519499 90.971605 101.519499 
C 90.971605 101.519499 90.971605 101.519499 90.971605 101.519499 
C 90.971605 101.519499 90.971605 101.519499 90.971605 101.519499 
C 90.971605 101.519499 90.971605 101.519499 90.971605 101.519499 
z
"/>
  </clipPath>
 </defs>
</svg>
