<?xml version="1.0" encoding="utf-8" standalone="no"?>
<!DOCTYPE svg PUBLIC "-//W3C//DTD SVG 1.1//EN"
  "http://www.w3.org/Graphics/SVG/1.1/DTD/svg11.dtd">
<svg xmlns:xlink="http://www.w3.org/1999/xlink" width="197.762855pt" height="188.484059pt" viewBox="0 0 197.762855 188.484059" xmlns="http://www.w3.org/2000/svg" version="1.1">
 <metadata>
  <rdf:RDF xmlns:dc="http://purl.org/dc/elements/1.1/" xmlns:cc="http://creativecommons.org/ns#" xmlns:rdf="http://www.w3.org/1999/02/22-rdf-syntax-ns#">
   <cc:Work>
    <dc:type rdf:resource="http://purl.org/dc/dcmitype/StillImage"/>
    <dc:date>2025-03-29T10:17:47.549284</dc:date>
    <dc:format>image/svg+xml</dc:format>
    <dc:creator>
     <cc:Agent>
      <dc:title>Matplotlib v3.9.2, https://matplotlib.org/</dc:title>
     </cc:Agent>
    </dc:creator>
   </cc:Work>
  </rdf:RDF>
 </metadata>
 <defs>
  <style type="text/css">*{stroke-linejoin: round; stroke-linecap: butt}</style>
 </defs>
 <g id="figure_1">
  <g id="patch_1">
   <path d="M 0 188.484059 
L 197.762855 188.484059 
L 197.762855 0 
L 0 0 
L 0 188.484059 
z
" style="fill: none"/>
  </g>
  <g id="axes_1">
   <g id="patch_2">
    <path d="M 168.181428 101.519499 
C 168.181428 92.419107 166.388849 83.407204 162.906279 74.999538 
C 159.42371 66.591871 154.318877 58.951949 147.883927 52.516999 
C 141.448978 46.08205 133.809056 40.977217 125.401389 37.494648 
C 116.993723 34.012078 107.98182 32.219499 98.881428 32.219499 
C 89.781035 32.219499 80.769132 34.012078 72.361466 37.494648 
C 63.953799 40.977217 56.313877 46.08205 49.878928 52.516999 
C 43.443978 58.951949 38.339145 66.591871 34.856576 74.999538 
C 31.374006 83.407204 29.581428 92.419107 29.581428 101.519499 
C 29.581428 110.619892 31.374006 119.631795 34.856576 128.039461 
C 38.339145 136.447128 43.443978 144.08705 49.878928 150.521999 
C 56.313877 156.956949 63.953799 162.061782 72.361466 165.544351 
C 80.769132 169.02692 89.781035 170.819499 98.881428 170.819499 
C 107.98182 170.819499 116.993723 169.02692 125.401389 165.544351 
C 133.809056 162.061782 141.448978 156.956949 147.883927 150.521999 
C 154.318877 144.08705 159.42371 136.447128 162.906279 128.039461 
C 166.388849 119.631795 168.181428 110.619892 168.181428 101.519499 
M 98.881428 101.519499 
C 98.881428 101.519499 98.881428 101.519499 98.881428 101.519499 
C 98.881428 101.519499 98.881428 101.519499 98.881428 101.519499 
C 98.881428 101.519499 98.881428 101.519499 98.881428 101.519499 
C 98.881428 101.519499 98.881428 101.519499 98.881428 101.519499 
C 98.881428 101.519499 98.881428 101.519499 98.881428 101.519499 
C 98.881428 101.519499 98.881428 101.519499 98.881428 101.519499 
C 98.881428 101.519499 98.881428 101.519499 98.881428 101.519499 
C 98.881428 101.519499 98.881428 101.519499 98.881428 101.519499 
C 98.881428 101.519499 98.881428 101.519499 98.881428 101.519499 
C 98.881428 101.519499 98.881428 101.519499 98.881428 101.519499 
C 98.881428 101.519499 98.881428 101.519499 98.881428 101.519499 
C 98.881428 101.519499 98.881428 101.519499 98.881428 101.519499 
C 98.881428 101.519499 98.881428 101.519499 98.881428 101.519499 
C 98.881428 101.519499 98.881428 101.519499 98.881428 101.519499 
C 98.881428 101.519499 98.881428 101.519499 98.881428 101.519499 
C 98.881428 101.519499 98.881428 101.519499 98.881428 101.519499 
L 98.881428 101.519499 
z
" style="fill: none"/>
   </g>
   <g id="matplotlib.axis_1">
    <g id="xtick_1">
     <g id="line2d_1">
      <path d="M 98.881428 101.519499 
L 168.181428 101.519499 
" clip-path="url(#p28c7d697ca)" style="fill: none; stroke: #b0b0b0; stroke-width: 0.5; stroke-linecap: square"/>
     </g>
     <g id="text_1">
      <!-- 0° -->
      <g transform="translate(175.094879 103.358596) scale(0.08 -0.08)">
       <defs>
        <path id="NimbusRomNo9L-Regu-30" d="M 1626 4352 
C 1274 4352 1005 4244 768 4020 
C 397 3661 154 2925 154 2176 
C 154 1479 365 730 666 372 
C 902 90 1229 -64 1600 -64 
C 1926 -64 2202 45 2432 269 
C 2803 621 3046 1364 3046 2138 
C 3046 3450 2464 4352 1626 4352 
z
M 1606 4186 
C 2144 4186 2432 3463 2432 2125 
C 2432 788 2150 103 1600 103 
C 1050 103 768 788 768 2119 
C 768 3476 1056 4186 1606 4186 
z
" transform="scale(0.015625)"/>
        <path id="NimbusRomNo9L-Regu-b0" d="M 1280 4313 
C 768 4313 365 3913 365 3404 
C 365 2903 768 2496 1267 2496 
C 1786 2496 2195 2890 2195 3399 
C 2195 3913 1792 4313 1280 4313 
z
M 1280 4096 
C 1638 4096 1946 3779 1946 3405 
C 1946 3024 1645 2714 1274 2714 
C 915 2714 614 3031 614 3405 
C 614 3779 915 4096 1280 4096 
z
" transform="scale(0.015625)"/>
       </defs>
       <use xlink:href="#NimbusRomNo9L-Regu-30" transform="scale(0.996264)"/>
       <use xlink:href="#NimbusRomNo9L-Regu-b0" transform="translate(49.8132 0) scale(0.996264)"/>
      </g>
     </g>
    </g>
    <g id="xtick_2">
     <g id="line2d_2">
      <path d="M 98.881428 101.519499 
L 147.883927 52.516999 
" clip-path="url(#p28c7d697ca)" style="fill: none; stroke: #b0b0b0; stroke-width: 0.5; stroke-linecap: square"/>
     </g>
     <g id="text_2">
      <!-- 45° -->
      <g transform="translate(149.729472 46.931475) scale(0.08 -0.08)">
       <defs>
        <path id="NimbusRomNo9L-Regu-34" d="M 3021 1497 
L 2368 1497 
L 2368 4352 
L 2086 4352 
L 77 1497 
L 77 1088 
L 1875 1088 
L 1875 32 
L 2368 32 
L 2368 1088 
L 3021 1088 
L 3021 1497 
z
M 1869 1497 
L 333 1497 
L 1869 3698 
L 1869 1497 
z
" transform="scale(0.015625)"/>
        <path id="NimbusRomNo9L-Regu-35" d="M 1158 3776 
L 2413 3776 
C 2515 3776 2541 3789 2560 3834 
L 2803 4403 
L 2746 4448 
C 2650 4314 2586 4282 2451 4282 
L 1114 4282 
L 416 2759 
C 410 2746 410 2740 410 2727 
C 410 2695 435 2676 486 2676 
C 691 2676 947 2631 1210 2547 
C 1946 2309 2285 1910 2285 1274 
C 2285 656 1894 173 1395 173 
C 1267 173 1158 218 966 360 
C 762 508 614 572 480 572 
C 294 572 205 495 205 334 
C 205 90 506 -64 986 -64 
C 1523 -64 1984 110 2304 438 
C 2598 728 2733 1094 2733 1583 
C 2733 2046 2611 2342 2291 2663 
C 2010 2947 1645 3094 890 3229 
L 1158 3776 
z
" transform="scale(0.015625)"/>
       </defs>
       <use xlink:href="#NimbusRomNo9L-Regu-34" transform="scale(0.996264)"/>
       <use xlink:href="#NimbusRomNo9L-Regu-35" transform="translate(49.8132 0) scale(0.996264)"/>
       <use xlink:href="#NimbusRomNo9L-Regu-b0" transform="translate(99.626401 0) scale(0.996264)"/>
      </g>
     </g>
    </g>
    <g id="xtick_3">
     <g id="line2d_3">
      <path d="M 98.881428 101.519499 
L 98.881428 32.219499 
" clip-path="url(#p28c7d697ca)" style="fill: none; stroke: #b0b0b0; stroke-width: 0.5; stroke-linecap: square"/>
     </g>
     <g id="text_3">
      <!-- 90° -->
      <g transform="translate(93.302351 23.558596) scale(0.08 -0.08)">
       <defs>
        <path id="NimbusRomNo9L-Regu-39" d="M 378 -123 
C 1094 -40 1446 82 1882 396 
C 2547 882 2938 1676 2938 2539 
C 2938 3593 2349 4339 1523 4339 
C 762 4339 192 3694 192 2832 
C 192 2053 653 1536 1344 1536 
C 1696 1536 1965 1638 2304 1900 
C 2042 856 1331 172 358 5 
L 378 -123 
z
M 2317 2290 
C 2317 2162 2291 2104 2221 2047 
C 2042 1894 1805 1811 1574 1811 
C 1088 1811 781 2290 781 3050 
C 781 3413 883 3796 1018 3963 
C 1126 4090 1286 4160 1472 4160 
C 2029 4160 2317 3611 2317 2539 
L 2317 2290 
z
" transform="scale(0.015625)"/>
       </defs>
       <use xlink:href="#NimbusRomNo9L-Regu-39" transform="scale(0.996264)"/>
       <use xlink:href="#NimbusRomNo9L-Regu-30" transform="translate(49.8132 0) scale(0.996264)"/>
       <use xlink:href="#NimbusRomNo9L-Regu-b0" transform="translate(99.626401 0) scale(0.996264)"/>
      </g>
     </g>
    </g>
    <g id="xtick_4">
     <g id="line2d_4">
      <path d="M 98.881428 101.519499 
L 49.878928 52.516999 
" clip-path="url(#p28c7d697ca)" style="fill: none; stroke: #b0b0b0; stroke-width: 0.5; stroke-linecap: square"/>
     </g>
     <g id="text_4">
      <!-- 135° -->
      <g transform="translate(34.882701 46.931475) scale(0.08 -0.08)">
       <defs>
        <path id="NimbusRomNo9L-Regu-31" d="M 1862 4339 
L 710 3757 
L 710 3667 
C 787 3699 858 3725 883 3738 
C 998 3783 1107 3808 1171 3808 
C 1306 3808 1363 3711 1363 3505 
L 1363 592 
C 1363 379 1312 232 1210 173 
C 1114 116 1024 96 755 96 
L 755 0 
L 2522 0 
L 2522 96 
C 2016 96 1914 160 1914 470 
L 1914 4327 
L 1862 4339 
z
" transform="scale(0.015625)"/>
        <path id="NimbusRomNo9L-Regu-33" d="M 979 2138 
C 1357 2138 1504 2125 1658 2068 
C 2054 1927 2304 1562 2304 1120 
C 2304 583 1939 167 1466 167 
C 1293 167 1165 212 928 365 
C 736 480 627 525 518 525 
C 371 525 275 436 275 301 
C 275 77 550 -64 998 -64 
C 1491 -64 1997 103 2298 365 
C 2598 628 2765 999 2765 1428 
C 2765 1754 2662 2055 2477 2253 
C 2349 2394 2227 2471 1946 2592 
C 2387 2893 2547 3130 2547 3476 
C 2547 3994 2138 4352 1549 4352 
C 1229 4352 947 4244 717 4039 
C 525 3866 429 3699 288 3315 
L 384 3290 
C 646 3757 934 3968 1338 3968 
C 1754 3968 2042 3687 2042 3284 
C 2042 3053 1946 2823 1786 2663 
C 1594 2471 1414 2375 979 2221 
L 979 2138 
z
" transform="scale(0.015625)"/>
       </defs>
       <use xlink:href="#NimbusRomNo9L-Regu-31" transform="scale(0.996264)"/>
       <use xlink:href="#NimbusRomNo9L-Regu-33" transform="translate(49.8132 0) scale(0.996264)"/>
       <use xlink:href="#NimbusRomNo9L-Regu-35" transform="translate(99.626401 0) scale(0.996264)"/>
       <use xlink:href="#NimbusRomNo9L-Regu-b0" transform="translate(149.439601 0) scale(0.996264)"/>
      </g>
     </g>
    </g>
    <g id="xtick_5">
     <g id="line2d_5">
      <path d="M 98.881428 101.519499 
L 29.581428 101.519499 
" clip-path="url(#p28c7d697ca)" style="fill: none; stroke: #b0b0b0; stroke-width: 0.5; stroke-linecap: square"/>
     </g>
     <g id="text_5">
      <!-- 180° -->
      <g transform="translate(11.509823 103.358596) scale(0.08 -0.08)">
       <defs>
        <path id="NimbusRomNo9L-Regu-38" d="M 1856 2400 
C 2490 2740 2714 3008 2714 3444 
C 2714 3968 2253 4352 1613 4352 
C 915 4352 397 3924 397 3341 
C 397 2925 518 2740 1190 2151 
C 499 1626 358 1428 358 992 
C 358 372 864 -64 1587 -64 
C 2355 -64 2848 359 2848 1018 
C 2848 1511 2630 1824 1856 2400 
z
M 1741 1741 
C 2208 1408 2362 1178 2362 820 
C 2362 404 2074 116 1658 116 
C 1171 116 845 487 845 1044 
C 845 1453 986 1722 1357 2023 
L 1741 1741 
z
M 1670 2516 
C 1101 2887 870 3181 870 3540 
C 870 3911 1158 4173 1562 4173 
C 1997 4173 2272 3892 2272 3450 
C 2272 3085 2093 2797 1728 2554 
C 1696 2535 1696 2535 1670 2516 
z
" transform="scale(0.015625)"/>
       </defs>
       <use xlink:href="#NimbusRomNo9L-Regu-31" transform="scale(0.996264)"/>
       <use xlink:href="#NimbusRomNo9L-Regu-38" transform="translate(49.8132 0) scale(0.996264)"/>
       <use xlink:href="#NimbusRomNo9L-Regu-30" transform="translate(99.626401 0) scale(0.996264)"/>
       <use xlink:href="#NimbusRomNo9L-Regu-b0" transform="translate(149.439601 0) scale(0.996264)"/>
      </g>
     </g>
    </g>
    <g id="xtick_6">
     <g id="line2d_6">
      <path d="M 98.881428 101.519499 
L 49.878928 150.521999 
" clip-path="url(#p28c7d697ca)" style="fill: none; stroke: #b0b0b0; stroke-width: 0.5; stroke-linecap: square"/>
     </g>
     <g id="text_6">
      <!-- 225° -->
      <g transform="translate(34.882701 159.785717) scale(0.08 -0.08)">
       <defs>
        <path id="NimbusRomNo9L-Regu-32" d="M 3040 875 
L 2957 907 
C 2720 544 2637 486 2349 486 
L 819 486 
L 1894 1609 
C 2464 2202 2714 2687 2714 3185 
C 2714 3823 2195 4313 1530 4313 
C 1178 4313 845 4173 608 3918 
C 403 3700 307 3496 198 3043 
L 333 3011 
C 589 3636 819 3840 1261 3840 
C 1798 3840 2163 3476 2163 2940 
C 2163 2443 1869 1850 1331 1282 
L 192 77 
L 192 0 
L 2688 0 
L 3040 875 
z
" transform="scale(0.015625)"/>
       </defs>
       <use xlink:href="#NimbusRomNo9L-Regu-32" transform="scale(0.996264)"/>
       <use xlink:href="#NimbusRomNo9L-Regu-32" transform="translate(49.8132 0) scale(0.996264)"/>
       <use xlink:href="#NimbusRomNo9L-Regu-35" transform="translate(99.626401 0) scale(0.996264)"/>
       <use xlink:href="#NimbusRomNo9L-Regu-b0" transform="translate(149.439601 0) scale(0.996264)"/>
      </g>
     </g>
    </g>
    <g id="xtick_7">
     <g id="line2d_7">
      <path d="M 98.881428 101.519499 
L 98.881428 170.819499 
" clip-path="url(#p28c7d697ca)" style="fill: none; stroke: #b0b0b0; stroke-width: 0.5; stroke-linecap: square"/>
     </g>
     <g id="text_7">
      <!-- 270° -->
      <g transform="translate(91.309823 183.158596) scale(0.08 -0.08)">
       <defs>
        <path id="NimbusRomNo9L-Regu-37" d="M 2874 4250 
L 506 4250 
L 128 3310 
L 237 3258 
C 512 3693 627 3776 979 3776 
L 2368 3776 
L 1101 -32 
L 1517 -32 
L 2874 4148 
L 2874 4250 
z
" transform="scale(0.015625)"/>
       </defs>
       <use xlink:href="#NimbusRomNo9L-Regu-32" transform="scale(0.996264)"/>
       <use xlink:href="#NimbusRomNo9L-Regu-37" transform="translate(49.8132 0) scale(0.996264)"/>
       <use xlink:href="#NimbusRomNo9L-Regu-30" transform="translate(99.626401 0) scale(0.996264)"/>
       <use xlink:href="#NimbusRomNo9L-Regu-b0" transform="translate(149.439601 0) scale(0.996264)"/>
      </g>
     </g>
    </g>
    <g id="xtick_8">
     <g id="line2d_8">
      <path d="M 98.881428 101.519499 
L 147.883927 150.521999 
" clip-path="url(#p28c7d697ca)" style="fill: none; stroke: #b0b0b0; stroke-width: 0.5; stroke-linecap: square"/>
     </g>
     <g id="text_8">
      <!-- 315° -->
      <g transform="translate(147.736944 159.785717) scale(0.08 -0.08)">
       <use xlink:href="#NimbusRomNo9L-Regu-33" transform="scale(0.996264)"/>
       <use xlink:href="#NimbusRomNo9L-Regu-31" transform="translate(49.8132 0) scale(0.996264)"/>
       <use xlink:href="#NimbusRomNo9L-Regu-35" transform="translate(99.626401 0) scale(0.996264)"/>
       <use xlink:href="#NimbusRomNo9L-Regu-b0" transform="translate(149.439601 0) scale(0.996264)"/>
      </g>
     </g>
    </g>
   </g>
   <g id="matplotlib.axis_2">
    <g id="ytick_1">
     <g id="line2d_9">
      <path d="M 112.081428 101.519499 
C 112.081428 99.786091 111.739984 98.069538 111.076637 96.468078 
C 110.413291 94.866618 109.440942 93.411395 108.215237 92.18569 
C 106.989532 90.959985 105.534309 89.987636 103.932849 89.32429 
C 102.331389 88.660943 100.614836 88.319499 98.881428 88.319499 
C 97.148019 88.319499 95.431467 88.660943 93.830006 89.32429 
C 92.228546 89.987636 90.773323 90.959985 89.547618 92.18569 
C 88.321913 93.411395 87.349564 94.866618 86.686218 96.468078 
C 86.022871 98.069538 85.681428 99.786091 85.681428 101.519499 
C 85.681428 103.252908 86.022871 104.96946 86.686218 106.570921 
C 87.349564 108.172381 88.321913 109.627604 89.547618 110.853309 
C 90.773323 112.079014 92.228546 113.051363 93.830006 113.714709 
C 95.431467 114.378056 97.148019 114.719499 98.881428 114.719499 
C 100.614836 114.719499 102.331389 114.378056 103.932849 113.714709 
C 105.534309 113.051363 106.989532 112.079014 108.215237 110.853309 
C 109.440942 109.627604 110.413291 108.172381 111.076637 106.570921 
C 111.739984 104.96946 112.081428 103.252908 112.081428 101.519499 
" clip-path="url(#p28c7d697ca)" style="fill: none; stroke: #b0b0b0; stroke-width: 0.5; stroke-linecap: square"/>
     </g>
     <g id="text_9">
      <!-- $\mathdefault{0.2}$ -->
      <g transform="translate(111.076637 104.845458) scale(0.08 -0.08)">
       <defs>
        <path id="CMMI10-3a" d="M 1229 338 
C 1229 522 1075 675 890 675 
C 704 675 550 522 550 338 
C 550 153 704 0 890 0 
C 1075 0 1229 153 1229 338 
z
" transform="scale(0.015625)"/>
       </defs>
       <use xlink:href="#NimbusRomNo9L-Regu-30" transform="scale(0.996264)"/>
       <use xlink:href="#CMMI10-3a" transform="translate(49.8132 0) scale(0.996264)"/>
       <use xlink:href="#NimbusRomNo9L-Regu-32" transform="translate(77.408707 0) scale(0.996264)"/>
      </g>
     </g>
    </g>
    <g id="ytick_2">
     <g id="line2d_10">
      <path d="M 125.281428 101.519499 
C 125.281428 98.052683 124.59854 94.619577 123.271847 91.416657 
C 121.945154 88.213736 120.000456 85.30329 117.549047 82.85188 
C 115.097637 80.400471 112.187191 78.455773 108.98427 77.12908 
C 105.78135 75.802387 102.348244 75.119499 98.881428 75.119499 
C 95.414611 75.119499 91.981506 75.802387 88.778585 77.12908 
C 85.575664 78.455773 82.665218 80.400471 80.213809 82.85188 
C 77.762399 85.30329 75.817701 88.213736 74.491008 91.416657 
C 73.164315 94.619577 72.481428 98.052683 72.481428 101.519499 
C 72.481428 104.986316 73.164315 108.419421 74.491008 111.622342 
C 75.817701 114.825263 77.762399 117.735709 80.213809 120.187118 
C 82.665218 122.638528 85.575664 124.583226 88.778585 125.909919 
C 91.981506 127.236612 95.414611 127.919499 98.881428 127.919499 
C 102.348244 127.919499 105.78135 127.236612 108.98427 125.909919 
C 112.187191 124.583226 115.097637 122.638528 117.549047 120.187118 
C 120.000456 117.735709 121.945154 114.825263 123.271847 111.622342 
C 124.59854 108.419421 125.281428 104.986316 125.281428 101.519499 
" clip-path="url(#p28c7d697ca)" style="fill: none; stroke: #b0b0b0; stroke-width: 0.5; stroke-linecap: square"/>
     </g>
     <g id="text_10">
      <!-- $\mathdefault{0.4}$ -->
      <g transform="translate(123.271847 109.896879) scale(0.08 -0.08)">
       <use xlink:href="#NimbusRomNo9L-Regu-30" transform="scale(0.996264)"/>
       <use xlink:href="#CMMI10-3a" transform="translate(49.8132 0) scale(0.996264)"/>
       <use xlink:href="#NimbusRomNo9L-Regu-34" transform="translate(77.408707 0) scale(0.996264)"/>
      </g>
     </g>
    </g>
    <g id="ytick_3">
     <g id="line2d_11">
      <path d="M 138.481428 101.519499 
C 138.481428 96.319275 137.457097 91.169616 135.467057 86.365235 
C 133.477017 81.560855 130.55997 77.195185 126.882856 73.518071 
C 123.205742 69.840957 118.840072 66.92391 114.035691 64.93387 
C 109.231311 62.94383 104.081652 61.919499 98.881428 61.919499 
C 93.681203 61.919499 88.531544 62.94383 83.727164 64.93387 
C 78.922783 66.92391 74.557113 69.840957 70.879999 73.518071 
C 67.202885 77.195185 64.285838 81.560855 62.295798 86.365235 
C 60.305758 91.169616 59.281428 96.319275 59.281428 101.519499 
C 59.281428 106.719724 60.305758 111.869382 62.295798 116.673763 
C 64.285838 121.478144 67.202885 125.843814 70.879999 129.520928 
C 74.557113 133.198042 78.922783 136.115089 83.727164 138.105129 
C 88.531544 140.095169 93.681203 141.119499 98.881428 141.119499 
C 104.081652 141.119499 109.231311 140.095169 114.035691 138.105129 
C 118.840072 136.115089 123.205742 133.198042 126.882856 129.520928 
C 130.55997 125.843814 133.477017 121.478144 135.467057 116.673763 
C 137.457097 111.869382 138.481428 106.719724 138.481428 101.519499 
" clip-path="url(#p28c7d697ca)" style="fill: none; stroke: #b0b0b0; stroke-width: 0.5; stroke-linecap: square"/>
     </g>
     <g id="text_11">
      <!-- $\mathdefault{0.6}$ -->
      <g transform="translate(135.467057 114.9483) scale(0.08 -0.08)">
       <defs>
        <path id="NimbusRomNo9L-Regu-36" d="M 2854 4391 
C 2125 4327 1754 4205 1286 3879 
C 595 3386 218 2656 218 1802 
C 218 1248 390 688 666 370 
C 909 89 1254 -64 1651 -64 
C 2445 -64 2995 541 2995 1421 
C 2995 2236 2528 2752 1792 2752 
C 1510 2752 1376 2707 973 2464 
C 1146 3431 1862 4122 2867 4288 
L 2854 4391 
z
M 1549 2458 
C 2099 2458 2419 2000 2419 1204 
C 2419 504 2170 116 1722 116 
C 1158 116 813 714 813 1700 
C 813 2025 864 2203 992 2299 
C 1126 2400 1325 2458 1549 2458 
z
" transform="scale(0.015625)"/>
       </defs>
       <use xlink:href="#NimbusRomNo9L-Regu-30" transform="scale(0.996264)"/>
       <use xlink:href="#CMMI10-3a" transform="translate(49.8132 0) scale(0.996264)"/>
       <use xlink:href="#NimbusRomNo9L-Regu-36" transform="translate(77.408707 0) scale(0.996264)"/>
      </g>
     </g>
    </g>
    <g id="ytick_4">
     <g id="line2d_12">
      <path d="M 151.681428 101.519499 
C 151.681428 94.585867 150.315653 87.719655 147.662267 81.313814 
C 145.008881 74.907973 141.119484 69.08708 136.216666 64.184261 
C 131.313847 59.281443 125.492954 55.392046 119.087113 52.73866 
C 112.681272 50.085274 105.81506 48.719499 98.881428 48.719499 
C 91.947795 48.719499 85.081583 50.085274 78.675742 52.73866 
C 72.269901 55.392046 66.449008 59.281443 61.54619 64.184261 
C 56.643371 69.08708 52.753975 74.907973 50.100588 81.313814 
C 47.447202 87.719655 46.081428 94.585867 46.081428 101.519499 
C 46.081428 108.453132 47.447202 115.319343 50.100588 121.725185 
C 52.753975 128.131026 56.643371 133.951919 61.54619 138.854737 
C 66.449008 143.757556 72.269901 147.646952 78.675742 150.300339 
C 85.081583 152.953725 91.947795 154.319499 98.881428 154.319499 
C 105.81506 154.319499 112.681272 152.953725 119.087113 150.300339 
C 125.492954 147.646952 131.313847 143.757556 136.216666 138.854737 
C 141.119484 133.951919 145.008881 128.131026 147.662267 121.725185 
C 150.315653 115.319343 151.681428 108.453132 151.681428 101.519499 
" clip-path="url(#p28c7d697ca)" style="fill: none; stroke: #b0b0b0; stroke-width: 0.5; stroke-linecap: square"/>
     </g>
     <g id="text_12">
      <!-- $\mathdefault{0.8}$ -->
      <g transform="translate(147.662267 119.999722) scale(0.08 -0.08)">
       <use xlink:href="#NimbusRomNo9L-Regu-30" transform="scale(0.996264)"/>
       <use xlink:href="#CMMI10-3a" transform="translate(49.8132 0) scale(0.996264)"/>
       <use xlink:href="#NimbusRomNo9L-Regu-38" transform="translate(77.408707 0) scale(0.996264)"/>
      </g>
     </g>
    </g>
    <g id="ytick_5">
     <g id="line2d_13">
      <path d="M 164.881428 101.519499 
C 164.881428 92.852459 163.17421 84.269694 159.857477 76.262393 
C 156.540744 68.255091 151.678998 60.978975 145.550475 54.850452 
C 139.421952 48.721929 132.145836 43.860183 124.138534 40.54345 
C 116.131233 37.226717 107.548468 35.519499 98.881428 35.519499 
C 90.214387 35.519499 81.631622 37.226717 73.624321 40.54345 
C 65.61702 43.860183 58.340903 48.721929 52.21238 54.850452 
C 46.083857 60.978975 41.222111 68.255091 37.905378 76.262393 
C 34.588646 84.269694 32.881428 92.852459 32.881428 101.519499 
C 32.881428 110.18654 34.588646 118.769305 37.905378 126.776606 
C 41.222111 134.783907 46.083857 142.060024 52.21238 148.188547 
C 58.340903 154.31707 65.61702 159.178816 73.624321 162.495549 
C 81.631622 165.812281 90.214387 167.519499 98.881428 167.519499 
C 107.548468 167.519499 116.131233 165.812281 124.138534 162.495549 
C 132.145836 159.178816 139.421952 154.31707 145.550475 148.188547 
C 151.678998 142.060024 156.540744 134.783907 159.857477 126.776606 
C 163.17421 118.769305 164.881428 110.18654 164.881428 101.519499 
" clip-path="url(#p28c7d697ca)" style="fill: none; stroke: #b0b0b0; stroke-width: 0.5; stroke-linecap: square"/>
     </g>
     <g id="text_13">
      <!-- $\mathdefault{1.0}$ -->
      <g transform="translate(159.857477 125.051143) scale(0.08 -0.08)">
       <use xlink:href="#NimbusRomNo9L-Regu-31" transform="scale(0.996264)"/>
       <use xlink:href="#CMMI10-3a" transform="translate(49.8132 0) scale(0.996264)"/>
       <use xlink:href="#NimbusRomNo9L-Regu-30" transform="translate(77.408707 0) scale(0.996264)"/>
      </g>
     </g>
    </g>
   </g>
   <g id="line2d_14">
    <path d="M 164.881428 101.519499 
L 164.801041 99.217536 
L 164.560274 96.926787 
L 164.160298 94.658414 
L 163.603064 92.423467 
L 162.891284 90.232835 
L 162.028428 88.09719 
L 161.018698 86.026938 
L 159.867015 84.032164 
L 158.578988 82.122586 
L 157.160894 80.307508 
L 155.619641 78.595773 
L 153.962738 76.99572 
L 152.198256 75.515145 
L 150.334793 74.161259 
L 148.381428 72.940661 
L 146.347675 71.859296 
L 144.243445 70.922432 
L 142.078988 70.134634 
L 139.86485 69.49974 
L 137.611817 69.020844 
L 135.330867 68.700277 
L 133.033111 68.539602 
L 130.729744 68.539602 
L 128.431988 68.700277 
L 126.151038 69.020844 
L 123.898005 69.49974 
L 121.683867 70.134634 
L 119.51941 70.922432 
L 117.41518 71.859296 
L 115.381428 72.940661 
L 113.428062 74.161259 
L 111.564599 75.515145 
L 109.800118 76.99572 
L 108.143214 78.595773 
L 106.601961 80.307508 
L 105.183867 82.122586 
L 103.89584 84.032164 
L 102.744157 86.026938 
L 101.734427 88.09719 
L 100.871571 90.232835 
L 100.159792 92.423467 
L 99.602557 94.658414 
L 99.202581 96.926787 
L 98.961814 99.217536 
L 98.881428 101.519499 
L 98.861325 100.367816 
L 98.70065 98.07006 
L 98.380083 95.78911 
L 97.901187 93.536077 
L 97.266293 91.321939 
L 96.478495 89.157482 
L 95.541631 87.053252 
L 94.460266 85.019499 
L 93.239667 83.066134 
L 91.885782 81.202671 
L 90.405207 79.438189 
L 88.805154 77.781286 
L 87.093419 76.240033 
L 85.278341 74.821939 
L 83.368763 73.533912 
L 81.373989 72.382229 
L 79.303737 71.372499 
L 77.168092 70.509643 
L 74.97746 69.797863 
L 72.742513 69.240629 
L 70.47414 68.840653 
L 68.183391 68.599886 
L 65.881428 68.519499 
L 63.579464 68.599886 
L 61.288715 68.840653 
L 59.020342 69.240629 
L 56.785395 69.797863 
L 54.594763 70.509643 
L 52.459118 71.372499 
L 50.388866 72.382229 
L 48.394092 73.533912 
L 46.484514 74.821939 
L 44.669436 76.240033 
L 42.957701 77.781286 
L 41.357648 79.438189 
L 39.877073 81.202671 
L 38.523188 83.066134 
L 37.302589 85.019499 
L 36.221224 87.053252 
L 35.28436 89.157482 
L 34.496563 91.321939 
L 33.861669 93.536077 
L 33.382772 95.78911 
L 33.062205 98.07006 
L 32.90153 100.367816 
L 32.90153 102.671183 
L 33.062205 104.968939 
L 33.382772 107.249889 
L 33.861669 109.502922 
L 34.496563 111.71706 
L 35.28436 113.881517 
L 36.221224 115.985747 
L 37.302589 118.019499 
L 38.523188 119.972865 
L 39.877073 121.836328 
L 41.357648 123.600809 
L 42.957701 125.257713 
L 44.669436 126.798966 
L 46.484514 128.21706 
L 48.394092 129.505087 
L 50.388866 130.65677 
L 52.459118 131.666499 
L 54.594763 132.529356 
L 56.785395 133.241135 
L 59.020342 133.79837 
L 61.288715 134.198346 
L 63.579464 134.439113 
L 65.881428 134.519499 
L 68.183391 134.439113 
L 70.47414 134.198346 
L 72.742513 133.79837 
L 74.97746 133.241135 
L 77.168092 132.529356 
L 79.303737 131.666499 
L 81.373989 130.65677 
L 83.368763 129.505087 
L 85.278341 128.21706 
L 87.093419 126.798966 
L 88.805154 125.257713 
L 90.405207 123.600809 
L 91.885782 121.836328 
L 93.239667 119.972865 
L 94.460266 118.019499 
L 95.541631 115.985747 
L 96.478495 113.881517 
L 97.266293 111.71706 
L 97.901187 109.502922 
L 98.380083 107.249889 
L 98.70065 104.968939 
L 98.861325 102.671183 
L 98.881428 101.519499 
L 98.90153 102.671183 
L 99.062205 104.968939 
L 99.382772 107.249889 
L 99.861669 109.502922 
L 100.496563 111.71706 
L 101.28436 113.881517 
L 102.221224 115.985747 
L 103.302589 118.019499 
L 104.523188 119.972865 
L 105.877073 121.836328 
L 107.357648 123.600809 
L 108.957701 125.257713 
L 110.669436 126.798966 
L 112.484514 128.21706 
L 114.394092 129.505087 
L 116.388866 130.65677 
L 118.459118 131.666499 
L 120.594763 132.529356 
L 122.785395 133.241135 
L 125.020342 133.79837 
L 127.288715 134.198346 
L 129.579464 134.439113 
L 131.881428 134.519499 
L 134.183391 134.439113 
L 136.47414 134.198346 
L 138.742513 133.79837 
L 140.97746 133.241135 
L 143.168092 132.529356 
L 145.303737 131.666499 
L 147.373989 130.65677 
L 149.368763 129.505087 
L 151.278341 128.21706 
L 153.093419 126.798966 
L 154.805154 125.257713 
L 156.405207 123.600809 
L 157.885782 121.836328 
L 159.239667 119.972865 
L 160.460266 118.019499 
L 161.541631 115.985747 
L 162.478495 113.881517 
L 163.266293 111.71706 
L 163.901187 109.502922 
L 164.380083 107.249889 
L 164.70065 104.968939 
L 164.861325 102.671183 
L 164.881428 101.519499 
L 164.881428 101.519499 
" clip-path="url(#p28c7d697ca)" style="fill: none; stroke: #000000; stroke-linecap: square"/>
   </g>
   <g id="line2d_15">
    <path d="M 164.881428 101.519499 
L 164.801041 99.217536 
L 164.560274 96.926787 
L 164.160298 94.658414 
L 163.603064 92.423467 
L 162.891284 90.232835 
L 162.028428 88.09719 
L 161.018698 86.026938 
L 159.867015 84.032164 
L 158.578988 82.122586 
L 157.160894 80.307508 
L 155.619641 78.595773 
L 153.962738 76.99572 
L 152.198256 75.515145 
L 150.334793 74.161259 
L 148.381428 72.940661 
L 146.347675 71.859296 
L 144.243445 70.922432 
L 142.078988 70.134634 
L 139.86485 69.49974 
L 137.611817 69.020844 
L 135.330867 68.700277 
L 133.033111 68.539602 
L 130.729744 68.539602 
L 128.431988 68.700277 
L 126.151038 69.020844 
L 123.898005 69.49974 
L 121.683867 70.134634 
L 119.51941 70.922432 
L 117.41518 71.859296 
L 115.381428 72.940661 
L 113.428062 74.161259 
L 111.564599 75.515145 
L 109.800118 76.99572 
L 108.143214 78.595773 
L 106.601961 80.307508 
L 105.183867 82.122586 
L 103.89584 84.032164 
L 102.744157 86.026938 
L 101.734427 88.09719 
L 100.871571 90.232835 
L 100.159792 92.423467 
L 99.602557 94.658414 
L 99.202581 96.926787 
L 98.961814 99.217536 
L 98.881428 101.519499 
L 98.861325 100.367816 
L 98.70065 98.07006 
L 98.380083 95.78911 
L 97.901187 93.536077 
L 97.266293 91.321939 
L 96.478495 89.157482 
L 95.541631 87.053252 
L 94.460266 85.019499 
L 93.239667 83.066134 
L 91.885782 81.202671 
L 90.405207 79.438189 
L 88.805154 77.781286 
L 87.093419 76.240033 
L 85.278341 74.821939 
L 83.368763 73.533912 
L 81.373989 72.382229 
L 79.303737 71.372499 
L 77.168092 70.509643 
L 74.97746 69.797863 
L 72.742513 69.240629 
L 70.47414 68.840653 
L 68.183391 68.599886 
L 65.881428 68.519499 
L 63.579464 68.599886 
L 61.288715 68.840653 
L 59.020342 69.240629 
L 56.785395 69.797863 
L 54.594763 70.509643 
L 52.459118 71.372499 
L 50.388866 72.382229 
L 48.394092 73.533912 
L 46.484514 74.821939 
L 44.669436 76.240033 
L 42.957701 77.781286 
L 41.357648 79.438189 
L 39.877073 81.202671 
L 38.523188 83.066134 
L 37.302589 85.019499 
L 36.221224 87.053252 
L 35.28436 89.157482 
L 34.496563 91.321939 
L 33.861669 93.536077 
L 33.382772 95.78911 
L 33.062205 98.07006 
L 32.90153 100.367816 
L 32.90153 102.671183 
L 33.062205 104.968939 
L 33.382772 107.249889 
L 33.861669 109.502922 
L 34.496563 111.71706 
L 35.28436 113.881517 
L 36.221224 115.985747 
L 37.302589 118.019499 
L 38.523188 119.972865 
L 39.877073 121.836328 
L 41.357648 123.600809 
L 42.957701 125.257713 
L 44.669436 126.798966 
L 46.484514 128.21706 
L 48.394092 129.505087 
L 50.388866 130.65677 
L 52.459118 131.666499 
L 54.594763 132.529356 
L 56.785395 133.241135 
L 59.020342 133.79837 
L 61.288715 134.198346 
L 63.579464 134.439113 
L 65.881428 134.519499 
L 68.183391 134.439113 
L 70.47414 134.198346 
L 72.742513 133.79837 
L 74.97746 133.241135 
L 77.168092 132.529356 
L 79.303737 131.666499 
L 81.373989 130.65677 
L 83.368763 129.505087 
L 85.278341 128.21706 
L 87.093419 126.798966 
L 88.805154 125.257713 
L 90.405207 123.600809 
L 91.885782 121.836328 
L 93.239667 119.972865 
L 94.460266 118.019499 
L 95.541631 115.985747 
L 96.478495 113.881517 
L 97.266293 111.71706 
L 97.901187 109.502922 
L 98.380083 107.249889 
L 98.70065 104.968939 
L 98.861325 102.671183 
L 98.881428 101.519499 
L 98.90153 102.671183 
L 99.062205 104.968939 
L 99.382772 107.249889 
L 99.861669 109.502922 
L 100.496563 111.71706 
L 101.28436 113.881517 
L 102.221224 115.985747 
L 103.302589 118.019499 
L 104.523188 119.972865 
L 105.877073 121.836328 
L 107.357648 123.600809 
L 108.957701 125.257713 
L 110.669436 126.798966 
L 112.484514 128.21706 
L 114.394092 129.505087 
L 116.388866 130.65677 
L 118.459118 131.666499 
L 120.594763 132.529356 
L 122.785395 133.241135 
L 125.020342 133.79837 
L 127.288715 134.198346 
L 129.579464 134.439113 
L 131.881428 134.519499 
L 134.183391 134.439113 
L 136.47414 134.198346 
L 138.742513 133.79837 
L 140.97746 133.241135 
L 143.168092 132.529356 
L 145.303737 131.666499 
L 147.373989 130.65677 
L 149.368763 129.505087 
L 151.278341 128.21706 
L 153.093419 126.798966 
L 154.805154 125.257713 
L 156.405207 123.600809 
L 157.885782 121.836328 
L 159.239667 119.972865 
L 160.460266 118.019499 
L 161.541631 115.985747 
L 162.478495 113.881517 
L 163.266293 111.71706 
L 163.901187 109.502922 
L 164.380083 107.249889 
L 164.70065 104.968939 
L 164.861325 102.671183 
L 164.881428 101.519499 
L 164.881428 101.519499 
" clip-path="url(#p28c7d697ca)" style="fill: none; stroke-dasharray: 3.7,1.6; stroke-dashoffset: 0; stroke: #ff0000"/>
   </g>
   <g id="line2d_16">
    <path d="M 164.881428 101.519499 
L 164.801041 99.217536 
L 164.560274 96.926787 
L 164.160298 94.658414 
L 163.603064 92.423467 
L 162.891284 90.232835 
L 162.028428 88.09719 
L 161.018698 86.026938 
L 159.867015 84.032164 
L 158.578988 82.122586 
L 157.160894 80.307508 
L 155.619641 78.595773 
L 153.962738 76.99572 
L 152.198256 75.515145 
L 150.334793 74.161259 
L 148.381428 72.940661 
L 146.347675 71.859296 
L 144.243445 70.922432 
L 142.078988 70.134634 
L 139.86485 69.49974 
L 137.611817 69.020844 
L 135.330867 68.700277 
L 133.033111 68.539602 
L 130.729744 68.539602 
L 128.431988 68.700277 
L 126.151038 69.020844 
L 123.898005 69.49974 
L 121.683867 70.134634 
L 119.51941 70.922432 
L 117.41518 71.859296 
L 115.381428 72.940661 
L 113.428062 74.161259 
L 111.564599 75.515145 
L 109.800118 76.99572 
L 108.143214 78.595773 
L 106.601961 80.307508 
L 105.183867 82.122586 
L 103.89584 84.032164 
L 102.744157 86.026938 
L 101.734427 88.09719 
L 100.871571 90.232835 
L 100.159792 92.423467 
L 99.602557 94.658414 
L 99.202581 96.926787 
L 98.961814 99.217536 
L 98.881428 101.519499 
L 98.861325 100.367816 
L 98.70065 98.07006 
L 98.380083 95.78911 
L 97.901187 93.536077 
L 97.266293 91.321939 
L 96.478495 89.157482 
L 95.541631 87.053252 
L 94.460266 85.019499 
L 93.239667 83.066134 
L 91.885782 81.202671 
L 90.405207 79.438189 
L 88.805154 77.781286 
L 87.093419 76.240033 
L 85.278341 74.821939 
L 83.368763 73.533912 
L 81.373989 72.382229 
L 79.303737 71.372499 
L 77.168092 70.509643 
L 74.97746 69.797863 
L 72.742513 69.240629 
L 70.47414 68.840653 
L 68.183391 68.599886 
L 65.881428 68.519499 
L 63.579464 68.599886 
L 61.288715 68.840653 
L 59.020342 69.240629 
L 56.785395 69.797863 
L 54.594763 70.509643 
L 52.459118 71.372499 
L 50.388866 72.382229 
L 48.394092 73.533912 
L 46.484514 74.821939 
L 44.669436 76.240033 
L 42.957701 77.781286 
L 41.357648 79.438189 
L 39.877073 81.202671 
L 38.523188 83.066134 
L 37.302589 85.019499 
L 36.221224 87.053252 
L 35.28436 89.157482 
L 34.496563 91.321939 
L 33.861669 93.536077 
L 33.382772 95.78911 
L 33.062205 98.07006 
L 32.90153 100.367816 
L 32.90153 102.671183 
L 33.062205 104.968939 
L 33.382772 107.249889 
L 33.861669 109.502922 
L 34.496563 111.71706 
L 35.28436 113.881517 
L 36.221224 115.985747 
L 37.302589 118.019499 
L 38.523188 119.972865 
L 39.877073 121.836328 
L 41.357648 123.600809 
L 42.957701 125.257713 
L 44.669436 126.798966 
L 46.484514 128.21706 
L 48.394092 129.505087 
L 50.388866 130.65677 
L 52.459118 131.666499 
L 54.594763 132.529356 
L 56.785395 133.241135 
L 59.020342 133.79837 
L 61.288715 134.198346 
L 63.579464 134.439113 
L 65.881428 134.519499 
L 68.183391 134.439113 
L 70.47414 134.198346 
L 72.742513 133.79837 
L 74.97746 133.241135 
L 77.168092 132.529356 
L 79.303737 131.666499 
L 81.373989 130.65677 
L 83.368763 129.505087 
L 85.278341 128.21706 
L 87.093419 126.798966 
L 88.805154 125.257713 
L 90.405207 123.600809 
L 91.885782 121.836328 
L 93.239667 119.972865 
L 94.460266 118.019499 
L 95.541631 115.985747 
L 96.478495 113.881517 
L 97.266293 111.71706 
L 97.901187 109.502922 
L 98.380083 107.249889 
L 98.70065 104.968939 
L 98.861325 102.671183 
L 98.881428 101.519499 
L 98.90153 102.671183 
L 99.062205 104.968939 
L 99.382772 107.249889 
L 99.861669 109.502922 
L 100.496563 111.71706 
L 101.28436 113.881517 
L 102.221224 115.985747 
L 103.302589 118.019499 
L 104.523188 119.972865 
L 105.877073 121.836328 
L 107.357648 123.600809 
L 108.957701 125.257713 
L 110.669436 126.798966 
L 112.484514 128.21706 
L 114.394092 129.505087 
L 116.388866 130.65677 
L 118.459118 131.666499 
L 120.594763 132.529356 
L 122.785395 133.241135 
L 125.020342 133.79837 
L 127.288715 134.198346 
L 129.579464 134.439113 
L 131.881428 134.519499 
L 134.183391 134.439113 
L 136.47414 134.198346 
L 138.742513 133.79837 
L 140.97746 133.241135 
L 143.168092 132.529356 
L 145.303737 131.666499 
L 147.373989 130.65677 
L 149.368763 129.505087 
L 151.278341 128.21706 
L 153.093419 126.798966 
L 154.805154 125.257713 
L 156.405207 123.600809 
L 157.885782 121.836328 
L 159.239667 119.972865 
L 160.460266 118.019499 
L 161.541631 115.985747 
L 162.478495 113.881517 
L 163.266293 111.71706 
L 163.901187 109.502922 
L 164.380083 107.249889 
L 164.70065 104.968939 
L 164.861325 102.671183 
L 164.881428 101.519499 
L 164.881428 101.519499 
" clip-path="url(#p28c7d697ca)" style="fill: none; stroke-dasharray: 1,1.65; stroke-dashoffset: 0; stroke: #0000ff"/>
   </g>
   <g id="patch_3">
    <path d="M 168.181428 101.519499 
C 168.181428 92.419107 166.388849 83.407204 162.906279 74.999538 
C 159.42371 66.591871 154.318877 58.951949 147.883927 52.516999 
C 141.448978 46.08205 133.809056 40.977217 125.401389 37.494648 
C 116.993723 34.012078 107.98182 32.219499 98.881428 32.219499 
C 89.781035 32.219499 80.769132 34.012078 72.361466 37.494648 
C 63.953799 40.977217 56.313877 46.08205 49.878928 52.516999 
C 43.443978 58.951949 38.339145 66.591871 34.856576 74.999538 
C 31.374006 83.407204 29.581428 92.419107 29.581428 101.519499 
C 29.581428 110.619892 31.374006 119.631795 34.856576 128.039461 
C 38.339145 136.447128 43.443978 144.08705 49.878928 150.521999 
C 56.313877 156.956949 63.953799 162.061782 72.361466 165.544351 
C 80.769132 169.02692 89.781035 170.819499 98.881428 170.819499 
C 107.98182 170.819499 116.993723 169.02692 125.401389 165.544351 
C 133.809056 162.061782 141.448978 156.956949 147.883927 150.521999 
C 154.318877 144.08705 159.42371 136.447128 162.906279 128.039461 
C 166.388849 119.631795 168.181428 110.619892 168.181428 101.519499 
" style="fill: none; stroke: #000000; stroke-width: 0.5; stroke-linejoin: miter; stroke-linecap: square"/>
   </g>
   <g id="text_14">
    <!-- Polarization Pattern metallic_reflection_horizontal -->
    <g transform="translate(3.6 10.084396) scale(0.096 -0.096)">
     <defs>
      <path id="NimbusRomNo9L-Regu-50" d="M 1293 1875 
C 1459 1856 1568 1856 1734 1856 
C 2234 1856 2579 1919 2854 2072 
C 3238 2274 3469 2660 3469 3078 
C 3469 3344 3379 3584 3206 3768 
C 2950 4047 2394 4224 1792 4224 
L 102 4224 
L 102 4102 
C 576 4051 640 3987 640 3528 
L 640 766 
C 640 230 589 166 102 122 
L 102 0 
L 1894 0 
L 1894 128 
C 1389 128 1293 218 1293 693 
L 1293 1875 
z
M 1293 3772 
C 1293 3943 1338 3987 1510 3987 
C 2374 3987 2771 3690 2771 3040 
C 2771 2428 2394 2112 1658 2112 
C 1530 2112 1440 2119 1293 2131 
L 1293 3772 
z
" transform="scale(0.015625)"/>
      <path id="NimbusRomNo9L-Regu-6f" d="M 1600 2944 
C 768 2944 186 2330 186 1446 
C 186 582 781 -64 1587 -64 
C 2394 -64 3008 614 3008 1498 
C 3008 2336 2419 2944 1600 2944 
z
M 1517 2765 
C 2054 2765 2432 2150 2432 1274 
C 2432 550 2144 115 1664 115 
C 1414 115 1178 269 1043 525 
C 864 858 762 1306 762 1760 
C 762 2368 1062 2765 1517 2765 
z
" transform="scale(0.015625)"/>
      <path id="NimbusRomNo9L-Regu-6c" d="M 122 4000 
L 160 4000 
C 230 4000 307 4000 358 4000 
C 563 4000 627 3910 627 3610 
L 627 557 
C 627 211 538 128 134 96 
L 134 0 
L 1645 0 
L 1645 109 
C 1242 109 1165 173 1165 528 
L 1165 4371 
L 1139 4384 
C 806 4275 563 4211 122 4103 
L 122 4000 
z
" transform="scale(0.015625)"/>
      <path id="NimbusRomNo9L-Regu-61" d="M 2829 423 
C 2720 333 2643 301 2547 301 
C 2400 301 2355 390 2355 672 
L 2355 1920 
C 2355 2253 2323 2438 2227 2592 
C 2086 2822 1811 2944 1434 2944 
C 832 2944 358 2630 358 2227 
C 358 2080 486 1952 634 1952 
C 787 1952 922 2080 922 2221 
C 922 2246 915 2278 909 2323 
C 896 2381 890 2432 890 2477 
C 890 2650 1094 2790 1350 2790 
C 1664 2790 1837 2605 1837 2259 
L 1837 1869 
C 851 1472 742 1421 467 1178 
C 326 1050 237 832 237 621 
C 237 218 518 -64 909 -64 
C 1190 -64 1453 70 1843 403 
C 1875 70 1990 -64 2253 -64 
C 2470 -64 2605 13 2829 256 
L 2829 423 
z
M 1837 783 
C 1837 584 1805 526 1670 449 
C 1517 359 1338 301 1203 301 
C 979 301 800 520 800 796 
L 800 822 
C 800 1201 1062 1433 1837 1715 
L 1837 783 
z
" transform="scale(0.015625)"/>
      <path id="NimbusRomNo9L-Regu-72" d="M 45 2496 
C 134 2515 192 2522 269 2522 
C 429 2522 486 2419 486 2138 
L 486 538 
C 486 218 442 173 32 96 
L 32 0 
L 1568 0 
L 1568 102 
C 1133 102 1024 199 1024 565 
L 1024 2013 
C 1024 2219 1299 2541 1472 2541 
C 1510 2541 1568 2509 1638 2445 
C 1741 2355 1811 2317 1894 2317 
C 2048 2317 2144 2426 2144 2605 
C 2144 2816 2010 2944 1792 2944 
C 1523 2944 1338 2797 1024 2343 
L 1024 2931 
L 992 2944 
C 653 2803 422 2721 45 2599 
L 45 2496 
z
" transform="scale(0.015625)"/>
      <path id="NimbusRomNo9L-Regu-69" d="M 1120 2929 
L 128 2579 
L 128 2484 
L 179 2490 
C 256 2502 339 2509 397 2509 
C 550 2509 608 2406 608 2125 
L 608 640 
C 608 179 544 109 102 109 
L 102 0 
L 1619 0 
L 1619 96 
C 1197 128 1146 191 1146 650 
L 1146 2910 
L 1120 2929 
z
M 819 4352 
C 646 4352 499 4205 499 4026 
C 499 3847 640 3699 819 3699 
C 1005 3699 1152 3840 1152 4026 
C 1152 4205 1005 4352 819 4352 
z
" transform="scale(0.015625)"/>
      <path id="NimbusRomNo9L-Regu-7a" d="M 2675 864 
L 2560 890 
C 2496 570 2458 467 2374 358 
C 2285 250 2067 192 1741 192 
L 858 192 
L 2579 2784 
L 2579 2880 
L 358 2880 
L 339 2125 
L 454 2125 
C 512 2592 608 2688 992 2688 
L 1875 2688 
L 173 96 
L 173 0 
L 2586 0 
L 2675 864 
z
" transform="scale(0.015625)"/>
      <path id="NimbusRomNo9L-Regu-74" d="M 1632 2880 
L 986 2880 
L 986 3622 
C 986 3686 979 3706 941 3706 
C 896 3648 858 3590 813 3526 
C 570 3174 294 2867 192 2841 
C 122 2794 83 2748 83 2715 
C 83 2695 90 2682 109 2682 
L 448 2682 
L 448 751 
C 448 212 640 -64 1018 -64 
C 1331 -64 1574 90 1786 423 
L 1702 493 
C 1568 333 1459 269 1318 269 
C 1082 269 986 443 986 847 
L 986 2682 
L 1632 2682 
L 1632 2880 
z
" transform="scale(0.015625)"/>
      <path id="NimbusRomNo9L-Regu-6e" d="M 102 2579 
C 141 2598 205 2605 275 2605 
C 454 2605 512 2509 512 2195 
L 512 608 
C 512 243 442 154 115 128 
L 115 32 
L 1472 32 
L 1472 128 
C 1146 154 1050 230 1050 461 
L 1050 2259 
C 1357 2547 1498 2624 1709 2624 
C 2022 2624 2176 2426 2176 2003 
L 2176 666 
C 2176 262 2093 154 1773 128 
L 1773 32 
L 3104 32 
L 3104 128 
C 2790 160 2714 237 2714 550 
L 2714 2016 
C 2714 2618 2432 2976 1958 2976 
C 1664 2976 1466 2867 1030 2458 
L 1030 2963 
L 986 2976 
C 672 2861 454 2790 102 2688 
L 102 2579 
z
" transform="scale(0.015625)"/>
      <path id="NimbusRomNo9L-Regu-65" d="M 2611 1053 
C 2304 564 2029 378 1619 378 
C 1254 378 979 564 794 930 
C 678 1174 634 1386 621 1779 
L 2592 1779 
C 2541 2193 2477 2377 2317 2581 
C 2125 2811 1830 2944 1498 2944 
C 1178 2944 877 2829 634 2611 
C 333 2349 160 1894 160 1370 
C 160 486 621 -64 1357 -64 
C 1965 -64 2445 315 2714 1008 
L 2611 1053 
z
M 634 1984 
C 704 2479 922 2714 1312 2714 
C 1702 2714 1856 2535 1939 1984 
L 634 1984 
z
" transform="scale(0.015625)"/>
      <path id="NimbusRomNo9L-Regu-6d" d="M 122 2547 
C 205 2566 256 2573 326 2573 
C 493 2573 550 2470 550 2162 
L 550 539 
C 550 192 461 96 102 96 
L 102 0 
L 1523 0 
L 1523 96 
C 1184 96 1088 166 1088 418 
L 1088 2234 
C 1088 2246 1139 2310 1184 2355 
C 1344 2502 1619 2611 1843 2611 
C 2125 2611 2266 2385 2266 1932 
L 2266 528 
C 2266 167 2195 96 1830 96 
L 1830 0 
L 3264 0 
L 3264 96 
C 2899 96 2803 205 2803 603 
L 2803 2221 
C 2995 2496 3206 2611 3501 2611 
C 3866 2611 3981 2438 3981 1907 
L 3981 557 
C 3981 192 3930 141 3558 96 
L 3558 0 
L 4960 0 
L 4960 96 
L 4794 115 
C 4602 115 4518 230 4518 480 
L 4518 1802 
C 4518 2559 4269 2944 3776 2944 
C 3405 2944 3078 2778 2733 2407 
C 2618 2771 2400 2944 2054 2944 
C 1773 2944 1594 2854 1062 2451 
L 1062 2931 
L 1018 2944 
C 691 2822 474 2752 122 2656 
L 122 2547 
z
" transform="scale(0.015625)"/>
      <path id="NimbusRomNo9L-Regu-63" d="M 2547 998 
C 2240 550 2010 397 1645 397 
C 1062 397 653 909 653 1645 
C 653 2304 1005 2758 1523 2758 
C 1754 2758 1837 2688 1901 2451 
L 1939 2310 
C 1990 2131 2106 2016 2240 2016 
C 2406 2016 2547 2138 2547 2285 
C 2547 2643 2099 2944 1562 2944 
C 1248 2944 922 2816 659 2586 
C 339 2304 160 1869 160 1363 
C 160 531 666 -64 1376 -64 
C 1664 -64 1920 38 2150 237 
C 2323 390 2445 563 2637 941 
L 2547 998 
z
" transform="scale(0.015625)"/>
      <path id="NimbusRomNo9L-Regu-3" d="M 205 2675 
L 646 2675 
L 646 637 
C 646 344 608 181 518 122 
C 454 77 390 64 205 64 
L 205 -38 
L 1638 -38 
L 1638 58 
C 1274 97 1184 175 1184 474 
L 1184 2675 
L 2387 2675 
L 2387 507 
C 2387 188 2291 84 1958 58 
L 1958 -38 
L 3334 -38 
L 3334 58 
C 2989 84 2925 148 2925 482 
L 2925 4339 
L 2893 4352 
C 2842 4346 2771 4320 2694 4282 
C 2573 4224 2483 4192 2426 4192 
C 2394 4192 2330 4211 2234 4243 
C 2054 4314 1869 4352 1715 4352 
C 1414 4352 1120 4201 941 3954 
C 749 3683 685 3436 659 2880 
L 205 2880 
L 205 2675 
z
M 2387 2880 
L 1184 2880 
L 1184 3208 
C 1184 3864 1318 4179 1600 4179 
C 1741 4179 1818 4129 1933 3958 
C 2054 3782 2138 3726 2285 3726 
C 2330 3726 2355 3738 2387 3770 
L 2387 2880 
z
" transform="scale(0.015625)"/>
      <path id="NimbusRomNo9L-Regu-68" d="M 1005 2222 
C 1274 2516 1466 2624 1715 2624 
C 2035 2624 2195 2395 2195 1948 
L 2195 684 
C 2195 250 2131 166 1760 128 
L 1760 32 
L 3117 32 
L 3117 128 
C 2771 192 2733 243 2733 684 
L 2733 1954 
C 2733 2625 2464 2970 1946 2970 
C 1568 2970 1299 2816 1005 2432 
L 1005 4390 
L 973 4409 
C 755 4332 595 4281 237 4179 
L 64 4128 
L 64 4026 
C 90 4032 109 4032 141 4032 
C 416 4032 467 3980 467 3705 
L 467 686 
C 467 237 429 179 58 128 
L 58 32 
L 1440 32 
L 1440 128 
C 1069 166 1005 243 1005 684 
L 1005 2222 
z
" transform="scale(0.015625)"/>
     </defs>
     <use xlink:href="#NimbusRomNo9L-Regu-50" transform="scale(0.996264)"/>
     <use xlink:href="#NimbusRomNo9L-Regu-6f" transform="translate(55.391677 0) scale(0.996264)"/>
     <use xlink:href="#NimbusRomNo9L-Regu-6c" transform="translate(105.204877 0) scale(0.996264)"/>
     <use xlink:href="#NimbusRomNo9L-Regu-61" transform="translate(132.900047 0) scale(0.996264)"/>
     <use xlink:href="#NimbusRomNo9L-Regu-72" transform="translate(177.133616 0) scale(0.996264)"/>
     <use xlink:href="#NimbusRomNo9L-Regu-69" transform="translate(210.308845 0) scale(0.996264)"/>
     <use xlink:href="#NimbusRomNo9L-Regu-7a" transform="translate(238.004015 0) scale(0.996264)"/>
     <use xlink:href="#NimbusRomNo9L-Regu-61" transform="translate(282.237584 0) scale(0.996264)"/>
     <use xlink:href="#NimbusRomNo9L-Regu-74" transform="translate(326.471152 0) scale(0.996264)"/>
     <use xlink:href="#NimbusRomNo9L-Regu-69" transform="translate(354.166322 0) scale(0.996264)"/>
     <use xlink:href="#NimbusRomNo9L-Regu-6f" transform="translate(381.861492 0) scale(0.996264)"/>
     <use xlink:href="#NimbusRomNo9L-Regu-6e" transform="translate(431.674692 0) scale(0.996264)"/>
     <use xlink:href="#NimbusRomNo9L-Regu-50" transform="translate(506.394493 0) scale(0.996264)"/>
     <use xlink:href="#NimbusRomNo9L-Regu-61" transform="translate(560.292777 0) scale(0.996264)"/>
     <use xlink:href="#NimbusRomNo9L-Regu-74" transform="translate(604.526346 0) scale(0.996264)"/>
     <use xlink:href="#NimbusRomNo9L-Regu-74" transform="translate(632.221516 0) scale(0.996264)"/>
     <use xlink:href="#NimbusRomNo9L-Regu-65" transform="translate(659.916685 0) scale(0.996264)"/>
     <use xlink:href="#NimbusRomNo9L-Regu-72" transform="translate(704.150254 0) scale(0.996264)"/>
     <use xlink:href="#NimbusRomNo9L-Regu-6e" transform="translate(737.325484 0) scale(0.996264)"/>
     <use xlink:href="#NimbusRomNo9L-Regu-6d" transform="translate(812.045284 0) scale(0.996264)"/>
     <use xlink:href="#NimbusRomNo9L-Regu-65" transform="translate(889.553654 0) scale(0.996264)"/>
     <use xlink:href="#NimbusRomNo9L-Regu-74" transform="translate(933.787223 0) scale(0.996264)"/>
     <use xlink:href="#NimbusRomNo9L-Regu-61" transform="translate(961.482393 0) scale(0.996264)"/>
     <use xlink:href="#NimbusRomNo9L-Regu-6c" transform="translate(1005.715961 0) scale(0.996264)"/>
     <use xlink:href="#NimbusRomNo9L-Regu-6c" transform="translate(1033.411131 0) scale(0.996264)"/>
     <use xlink:href="#NimbusRomNo9L-Regu-69" transform="translate(1061.106301 0) scale(0.996264)"/>
     <use xlink:href="#NimbusRomNo9L-Regu-63" transform="translate(1088.80147 0) scale(0.996264)"/>
     <use xlink:href="#NimbusRomNo9L-Regu-72" transform="translate(1168.900604 0) scale(0.996264)"/>
     <use xlink:href="#NimbusRomNo9L-Regu-65" transform="translate(1202.075834 0) scale(0.996264)"/>
     <use xlink:href="#NimbusRomNo9L-Regu-3" transform="translate(1246.309402 0) scale(0.996264)"/>
     <use xlink:href="#NimbusRomNo9L-Regu-65" transform="translate(1301.701079 0) scale(0.996264)"/>
     <use xlink:href="#NimbusRomNo9L-Regu-63" transform="translate(1345.934648 0) scale(0.996264)"/>
     <use xlink:href="#NimbusRomNo9L-Regu-74" transform="translate(1390.168217 0) scale(0.996264)"/>
     <use xlink:href="#NimbusRomNo9L-Regu-69" transform="translate(1417.863386 0) scale(0.996264)"/>
     <use xlink:href="#NimbusRomNo9L-Regu-6f" transform="translate(1445.558556 0) scale(0.996264)"/>
     <use xlink:href="#NimbusRomNo9L-Regu-6e" transform="translate(1495.371757 0) scale(0.996264)"/>
     <use xlink:href="#NimbusRomNo9L-Regu-68" transform="translate(1581.050522 0) scale(0.996264)"/>
     <use xlink:href="#NimbusRomNo9L-Regu-6f" transform="translate(1630.863723 0) scale(0.996264)"/>
     <use xlink:href="#NimbusRomNo9L-Regu-72" transform="translate(1680.676923 0) scale(0.996264)"/>
     <use xlink:href="#NimbusRomNo9L-Regu-69" transform="translate(1713.852153 0) scale(0.996264)"/>
     <use xlink:href="#NimbusRomNo9L-Regu-7a" transform="translate(1741.547323 0) scale(0.996264)"/>
     <use xlink:href="#NimbusRomNo9L-Regu-6f" transform="translate(1785.780891 0) scale(0.996264)"/>
     <use xlink:href="#NimbusRomNo9L-Regu-6e" transform="translate(1835.594092 0) scale(0.996264)"/>
     <use xlink:href="#NimbusRomNo9L-Regu-74" transform="translate(1885.407292 0) scale(0.996264)"/>
     <use xlink:href="#NimbusRomNo9L-Regu-61" transform="translate(1913.102462 0) scale(0.996264)"/>
     <use xlink:href="#NimbusRomNo9L-Regu-6c" transform="translate(1957.336031 0) scale(0.996264)"/>
     <path d="M 1139.01238 0 
L 1168.900604 0 
L 1168.900604 0.3985 
L 1139.01238 0.3985 
L 1139.01238 0 
z
"/>
     <path d="M 1551.162298 0 
L 1581.050522 0 
L 1581.050522 0.3985 
L 1551.162298 0.3985 
L 1551.162298 0 
z
"/>
    </g>
   </g>
   <g id="legend_1">
    <g id="text_15">
     <!-- H -->
     <g transform="translate(96.004232 138.211744) scale(0.08 -0.08)">
      <defs>
       <path id="NimbusRomNo9L-Regu-48" d="M 1338 2304 
L 1338 3533 
C 1338 3990 1408 4059 1901 4104 
L 1901 4224 
L 122 4224 
L 122 4104 
C 614 4059 685 3989 685 3527 
L 685 749 
C 685 210 621 134 122 134 
L 122 0 
L 1901 0 
L 1901 121 
C 1421 159 1338 242 1338 699 
L 1338 2022 
L 3277 2022 
L 3277 757 
C 3277 211 3213 134 2714 134 
L 2714 0 
L 4493 0 
L 4493 121 
C 4013 159 3930 242 3930 696 
L 3930 3529 
C 3930 3989 4000 4059 4493 4104 
L 4493 4224 
L 2714 4224 
L 2714 4104 
C 3206 4059 3277 3990 3277 3533 
L 3277 2304 
L 1338 2304 
z
" transform="scale(0.015625)"/>
      </defs>
      <use xlink:href="#NimbusRomNo9L-Regu-48" transform="scale(0.996264)"/>
     </g>
    </g>
    <g id="line2d_17">
     <path d="M 85.251042 145.037207 
L 91.251042 145.037207 
L 97.251042 145.037207 
" style="fill: none; stroke: #000000; stroke-linecap: square"/>
    </g>
    <g id="text_16">
     <!-- 0.24 -->
     <g transform="translate(102.051042 147.137207) scale(0.06 -0.06)">
      <defs>
       <path id="NimbusRomNo9L-Regu-2e" d="M 800 646 
C 608 646 448 480 448 281 
C 448 96 608 -64 794 -64 
C 992 -64 1158 96 1158 281 
C 1158 480 992 646 800 646 
z
" transform="scale(0.015625)"/>
      </defs>
      <use xlink:href="#NimbusRomNo9L-Regu-30" transform="scale(0.996264)"/>
      <use xlink:href="#NimbusRomNo9L-Regu-2e" transform="translate(49.8132 0) scale(0.996264)"/>
      <use xlink:href="#NimbusRomNo9L-Regu-32" transform="translate(74.719801 0) scale(0.996264)"/>
      <use xlink:href="#NimbusRomNo9L-Regu-34" transform="translate(124.533001 0) scale(0.996264)"/>
     </g>
    </g>
    <g id="line2d_18">
     <path d="M 85.251042 153.531305 
L 91.251042 153.531305 
L 97.251042 153.531305 
" style="fill: none; stroke-dasharray: 3.7,1.6; stroke-dashoffset: 0; stroke: #ff0000"/>
    </g>
    <g id="text_17">
     <!-- 0.42 -->
     <g transform="translate(102.051042 155.631305) scale(0.06 -0.06)">
      <use xlink:href="#NimbusRomNo9L-Regu-30" transform="scale(0.996264)"/>
      <use xlink:href="#NimbusRomNo9L-Regu-2e" transform="translate(49.8132 0) scale(0.996264)"/>
      <use xlink:href="#NimbusRomNo9L-Regu-34" transform="translate(74.719801 0) scale(0.996264)"/>
      <use xlink:href="#NimbusRomNo9L-Regu-32" transform="translate(124.533001 0) scale(0.996264)"/>
     </g>
    </g>
    <g id="line2d_19">
     <path d="M 85.251042 162.025402 
L 91.251042 162.025402 
L 97.251042 162.025402 
" style="fill: none; stroke-dasharray: 1,1.65; stroke-dashoffset: 0; stroke: #0000ff"/>
    </g>
    <g id="text_18">
     <!-- 0.59 -->
     <g transform="translate(102.051042 164.125402) scale(0.06 -0.06)">
      <use xlink:href="#NimbusRomNo9L-Regu-30" transform="scale(0.996264)"/>
      <use xlink:href="#NimbusRomNo9L-Regu-2e" transform="translate(49.8132 0) scale(0.996264)"/>
      <use xlink:href="#NimbusRomNo9L-Regu-35" transform="translate(74.719801 0) scale(0.996264)"/>
      <use xlink:href="#NimbusRomNo9L-Regu-39" transform="translate(124.533001 0) scale(0.996264)"/>
     </g>
    </g>
   </g>
  </g>
 </g>
 <defs>
  <clipPath id="p28c7d697ca">
   <path d="M 168.181428 101.519499 
C 168.181428 92.419107 166.388849 83.407204 162.906279 74.999538 
C 159.42371 66.591871 154.318877 58.951949 147.883927 52.516999 
C 141.448978 46.08205 133.809056 40.977217 125.401389 37.494648 
C 116.993723 34.012078 107.98182 32.219499 98.881428 32.219499 
C 89.781035 32.219499 80.769132 34.012078 72.361466 37.494648 
C 63.953799 40.977217 56.313877 46.08205 49.878928 52.516999 
C 43.443978 58.951949 38.339145 66.591871 34.856576 74.999538 
C 31.374006 83.407204 29.581428 92.419107 29.581428 101.519499 
C 29.581428 110.619892 31.374006 119.631795 34.856576 128.039461 
C 38.339145 136.447128 43.443978 144.08705 49.878928 150.521999 
C 56.313877 156.956949 63.953799 162.061782 72.361466 165.544351 
C 80.769132 169.02692 89.781035 170.819499 98.881428 170.819499 
C 107.98182 170.819499 116.993723 169.02692 125.401389 165.544351 
C 133.809056 162.061782 141.448978 156.956949 147.883927 150.521999 
C 154.318877 144.08705 159.42371 136.447128 162.906279 128.039461 
C 166.388849 119.631795 168.181428 110.619892 168.181428 101.519499 
M 98.881428 101.519499 
C 98.881428 101.519499 98.881428 101.519499 98.881428 101.519499 
C 98.881428 101.519499 98.881428 101.519499 98.881428 101.519499 
C 98.881428 101.519499 98.881428 101.519499 98.881428 101.519499 
C 98.881428 101.519499 98.881428 101.519499 98.881428 101.519499 
C 98.881428 101.519499 98.881428 101.519499 98.881428 101.519499 
C 98.881428 101.519499 98.881428 101.519499 98.881428 101.519499 
C 98.881428 101.519499 98.881428 101.519499 98.881428 101.519499 
C 98.881428 101.519499 98.881428 101.519499 98.881428 101.519499 
C 98.881428 101.519499 98.881428 101.519499 98.881428 101.519499 
C 98.881428 101.519499 98.881428 101.519499 98.881428 101.519499 
C 98.881428 101.519499 98.881428 101.519499 98.881428 101.519499 
C 98.881428 101.519499 98.881428 101.519499 98.881428 101.519499 
C 98.881428 101.519499 98.881428 101.519499 98.881428 101.519499 
C 98.881428 101.519499 98.881428 101.519499 98.881428 101.519499 
C 98.881428 101.519499 98.881428 101.519499 98.881428 101.519499 
C 98.881428 101.519499 98.881428 101.519499 98.881428 101.519499 
z
"/>
  </clipPath>
 </defs>
</svg>
