<?xml version="1.0" encoding="utf-8" standalone="no"?>
<!DOCTYPE svg PUBLIC "-//W3C//DTD SVG 1.1//EN"
  "http://www.w3.org/Graphics/SVG/1.1/DTD/svg11.dtd">
<svg xmlns:xlink="http://www.w3.org/1999/xlink" width="460.8pt" height="345.6pt" viewBox="0 0 460.8 345.6" xmlns="http://www.w3.org/2000/svg" version="1.1">
 <metadata>
  <rdf:RDF xmlns:dc="http://purl.org/dc/elements/1.1/" xmlns:cc="http://creativecommons.org/ns#" xmlns:rdf="http://www.w3.org/1999/02/22-rdf-syntax-ns#">
   <cc:Work>
    <dc:type rdf:resource="http://purl.org/dc/dcmitype/StillImage"/>
    <dc:date>2025-03-28T17:05:19.546186</dc:date>
    <dc:format>image/svg+xml</dc:format>
    <dc:creator>
     <cc:Agent>
      <dc:title>Matplotlib v3.10.1, https://matplotlib.org/</dc:title>
     </cc:Agent>
    </dc:creator>
   </cc:Work>
  </rdf:RDF>
 </metadata>
 <defs>
  <style type="text/css">*{stroke-linejoin: round; stroke-linecap: butt}</style>
 </defs>
 <g id="figure_1">
  <g id="patch_1">
   <path d="M 0 345.6 
L 460.8 345.6 
L 460.8 0 
L 0 0 
L 0 345.6 
z
" style="fill: none"/>
  </g>
  <g id="axes_1">
   <g id="patch_2">
    <path d="M 369.216 174.528 
C 369.216 157.055246 365.774248 139.752393 359.087715 123.609673 
C 352.401182 107.466954 342.599903 92.798303 330.2448 80.4432 
C 317.889697 68.088097 303.221046 58.286818 287.078327 51.600285 
C 270.935607 44.913752 253.632754 41.472 236.16 41.472 
C 218.687246 41.472 201.384393 44.913752 185.241673 51.600285 
C 169.098954 58.286818 154.430303 68.088097 142.0752 80.4432 
C 129.720097 92.798303 119.918818 107.466954 113.232285 123.609673 
C 106.545752 139.752393 103.104 157.055246 103.104 174.528 
C 103.104 192.000754 106.545752 209.303607 113.232285 225.446327 
C 119.918818 241.589046 129.720097 256.257697 142.0752 268.6128 
C 154.430303 280.967903 169.098954 290.769182 185.241673 297.455715 
C 201.384393 304.142248 218.687246 307.584 236.16 307.584 
C 253.632754 307.584 270.935607 304.142248 287.078327 297.455715 
C 303.221046 290.769182 317.889697 280.967903 330.2448 268.6128 
C 342.599903 256.257697 352.401182 241.589046 359.087715 225.446327 
C 365.774248 209.303607 369.216 192.000754 369.216 174.528 
M 236.16 174.528 
C 236.16 174.528 236.16 174.528 236.16 174.528 
C 236.16 174.528 236.16 174.528 236.16 174.528 
C 236.16 174.528 236.16 174.528 236.16 174.528 
C 236.16 174.528 236.16 174.528 236.16 174.528 
C 236.16 174.528 236.16 174.528 236.16 174.528 
C 236.16 174.528 236.16 174.528 236.16 174.528 
C 236.16 174.528 236.16 174.528 236.16 174.528 
C 236.16 174.528 236.16 174.528 236.16 174.528 
C 236.16 174.528 236.16 174.528 236.16 174.528 
C 236.16 174.528 236.16 174.528 236.16 174.528 
C 236.16 174.528 236.16 174.528 236.16 174.528 
C 236.16 174.528 236.16 174.528 236.16 174.528 
C 236.16 174.528 236.16 174.528 236.16 174.528 
C 236.16 174.528 236.16 174.528 236.16 174.528 
C 236.16 174.528 236.16 174.528 236.16 174.528 
C 236.16 174.528 236.16 174.528 236.16 174.528 
L 236.16 174.528 
z
" style="fill: none"/>
   </g>
   <g id="matplotlib.axis_1">
    <g id="xtick_1">
     <g id="line2d_1">
      <path d="M 236.16 174.528 
L 369.216 174.528 
" clip-path="url(#p987b60ba61)" style="fill: none; stroke: #b0b0b0; stroke-width: 0.8; stroke-linecap: square"/>
     </g>
     <g id="text_1">
      <!-- 0° -->
      <g transform="translate(377.53475 177.287375) scale(0.1 -0.1)">
       <defs>
        <path id="DejaVuSans-30" d="M 2034 4250 
Q 1547 4250 1301 3770 
Q 1056 3291 1056 2328 
Q 1056 1369 1301 889 
Q 1547 409 2034 409 
Q 2525 409 2770 889 
Q 3016 1369 3016 2328 
Q 3016 3291 2770 3770 
Q 2525 4250 2034 4250 
z
M 2034 4750 
Q 2819 4750 3233 4129 
Q 3647 3509 3647 2328 
Q 3647 1150 3233 529 
Q 2819 -91 2034 -91 
Q 1250 -91 836 529 
Q 422 1150 422 2328 
Q 422 3509 836 4129 
Q 1250 4750 2034 4750 
z
" transform="scale(0.015625)"/>
        <path id="DejaVuSans-b0" d="M 1600 4347 
Q 1350 4347 1178 4173 
Q 1006 4000 1006 3750 
Q 1006 3503 1178 3333 
Q 1350 3163 1600 3163 
Q 1850 3163 2022 3333 
Q 2194 3503 2194 3750 
Q 2194 3997 2020 4172 
Q 1847 4347 1600 4347 
z
M 1600 4750 
Q 1800 4750 1984 4673 
Q 2169 4597 2303 4453 
Q 2447 4313 2519 4134 
Q 2591 3956 2591 3750 
Q 2591 3338 2302 3052 
Q 2013 2766 1594 2766 
Q 1172 2766 890 3047 
Q 609 3328 609 3750 
Q 609 4169 896 4459 
Q 1184 4750 1600 4750 
z
" transform="scale(0.015625)"/>
       </defs>
       <use xlink:href="#DejaVuSans-30"/>
       <use xlink:href="#DejaVuSans-b0" transform="translate(63.623047 0)"/>
      </g>
     </g>
    </g>
    <g id="xtick_2">
     <g id="line2d_2">
      <path d="M 236.16 174.528 
L 330.2448 80.4432 
" clip-path="url(#p987b60ba61)" style="fill: none; stroke: #b0b0b0; stroke-width: 0.8; stroke-linecap: square"/>
     </g>
     <g id="text_2">
      <!-- 45° -->
      <g transform="translate(331.281795 73.30308) scale(0.1 -0.1)">
       <defs>
        <path id="DejaVuSans-34" d="M 2419 4116 
L 825 1625 
L 2419 1625 
L 2419 4116 
z
M 2253 4666 
L 3047 4666 
L 3047 1625 
L 3713 1625 
L 3713 1100 
L 3047 1100 
L 3047 0 
L 2419 0 
L 2419 1100 
L 313 1100 
L 313 1709 
L 2253 4666 
z
" transform="scale(0.015625)"/>
        <path id="DejaVuSans-35" d="M 691 4666 
L 3169 4666 
L 3169 4134 
L 1269 4134 
L 1269 2991 
Q 1406 3038 1543 3061 
Q 1681 3084 1819 3084 
Q 2600 3084 3056 2656 
Q 3513 2228 3513 1497 
Q 3513 744 3044 326 
Q 2575 -91 1722 -91 
Q 1428 -91 1123 -41 
Q 819 9 494 109 
L 494 744 
Q 775 591 1075 516 
Q 1375 441 1709 441 
Q 2250 441 2565 725 
Q 2881 1009 2881 1497 
Q 2881 1984 2565 2268 
Q 2250 2553 1709 2553 
Q 1456 2553 1204 2497 
Q 953 2441 691 2322 
L 691 4666 
z
" transform="scale(0.015625)"/>
       </defs>
       <use xlink:href="#DejaVuSans-34"/>
       <use xlink:href="#DejaVuSans-35" transform="translate(63.623047 0)"/>
       <use xlink:href="#DejaVuSans-b0" transform="translate(127.246094 0)"/>
      </g>
     </g>
    </g>
    <g id="xtick_3">
     <g id="line2d_3">
      <path d="M 236.16 174.528 
L 236.16 41.472 
" clip-path="url(#p987b60ba61)" style="fill: none; stroke: #b0b0b0; stroke-width: 0.8; stroke-linecap: square"/>
     </g>
     <g id="text_3">
      <!-- 90° -->
      <g transform="translate(227.2975 30.231375) scale(0.1 -0.1)">
       <defs>
        <path id="DejaVuSans-39" d="M 703 97 
L 703 672 
Q 941 559 1184 500 
Q 1428 441 1663 441 
Q 2288 441 2617 861 
Q 2947 1281 2994 2138 
Q 2813 1869 2534 1725 
Q 2256 1581 1919 1581 
Q 1219 1581 811 2004 
Q 403 2428 403 3163 
Q 403 3881 828 4315 
Q 1253 4750 1959 4750 
Q 2769 4750 3195 4129 
Q 3622 3509 3622 2328 
Q 3622 1225 3098 567 
Q 2575 -91 1691 -91 
Q 1453 -91 1209 -44 
Q 966 3 703 97 
z
M 1959 2075 
Q 2384 2075 2632 2365 
Q 2881 2656 2881 3163 
Q 2881 3666 2632 3958 
Q 2384 4250 1959 4250 
Q 1534 4250 1286 3958 
Q 1038 3666 1038 3163 
Q 1038 2656 1286 2365 
Q 1534 2075 1959 2075 
z
" transform="scale(0.015625)"/>
       </defs>
       <use xlink:href="#DejaVuSans-39"/>
       <use xlink:href="#DejaVuSans-30" transform="translate(63.623047 0)"/>
       <use xlink:href="#DejaVuSans-b0" transform="translate(127.246094 0)"/>
      </g>
     </g>
    </g>
    <g id="xtick_4">
     <g id="line2d_4">
      <path d="M 236.16 174.528 
L 142.0752 80.4432 
" clip-path="url(#p987b60ba61)" style="fill: none; stroke: #b0b0b0; stroke-width: 0.8; stroke-linecap: square"/>
     </g>
     <g id="text_4">
      <!-- 135° -->
      <g transform="translate(120.131955 73.30308) scale(0.1 -0.1)">
       <defs>
        <path id="DejaVuSans-31" d="M 794 531 
L 1825 531 
L 1825 4091 
L 703 3866 
L 703 4441 
L 1819 4666 
L 2450 4666 
L 2450 531 
L 3481 531 
L 3481 0 
L 794 0 
L 794 531 
z
" transform="scale(0.015625)"/>
        <path id="DejaVuSans-33" d="M 2597 2516 
Q 3050 2419 3304 2112 
Q 3559 1806 3559 1356 
Q 3559 666 3084 287 
Q 2609 -91 1734 -91 
Q 1441 -91 1130 -33 
Q 819 25 488 141 
L 488 750 
Q 750 597 1062 519 
Q 1375 441 1716 441 
Q 2309 441 2620 675 
Q 2931 909 2931 1356 
Q 2931 1769 2642 2001 
Q 2353 2234 1838 2234 
L 1294 2234 
L 1294 2753 
L 1863 2753 
Q 2328 2753 2575 2939 
Q 2822 3125 2822 3475 
Q 2822 3834 2567 4026 
Q 2313 4219 1838 4219 
Q 1578 4219 1281 4162 
Q 984 4106 628 3988 
L 628 4550 
Q 988 4650 1302 4700 
Q 1616 4750 1894 4750 
Q 2613 4750 3031 4423 
Q 3450 4097 3450 3541 
Q 3450 3153 3228 2886 
Q 3006 2619 2597 2516 
z
" transform="scale(0.015625)"/>
       </defs>
       <use xlink:href="#DejaVuSans-31"/>
       <use xlink:href="#DejaVuSans-33" transform="translate(63.623047 0)"/>
       <use xlink:href="#DejaVuSans-35" transform="translate(127.246094 0)"/>
       <use xlink:href="#DejaVuSans-b0" transform="translate(190.869141 0)"/>
      </g>
     </g>
    </g>
    <g id="xtick_5">
     <g id="line2d_5">
      <path d="M 236.16 174.528 
L 103.104 174.528 
" clip-path="url(#p987b60ba61)" style="fill: none; stroke: #b0b0b0; stroke-width: 0.8; stroke-linecap: square"/>
     </g>
     <g id="text_5">
      <!-- 180° -->
      <g transform="translate(77.06025 177.287375) scale(0.1 -0.1)">
       <defs>
        <path id="DejaVuSans-38" d="M 2034 2216 
Q 1584 2216 1326 1975 
Q 1069 1734 1069 1313 
Q 1069 891 1326 650 
Q 1584 409 2034 409 
Q 2484 409 2743 651 
Q 3003 894 3003 1313 
Q 3003 1734 2745 1975 
Q 2488 2216 2034 2216 
z
M 1403 2484 
Q 997 2584 770 2862 
Q 544 3141 544 3541 
Q 544 4100 942 4425 
Q 1341 4750 2034 4750 
Q 2731 4750 3128 4425 
Q 3525 4100 3525 3541 
Q 3525 3141 3298 2862 
Q 3072 2584 2669 2484 
Q 3125 2378 3379 2068 
Q 3634 1759 3634 1313 
Q 3634 634 3220 271 
Q 2806 -91 2034 -91 
Q 1263 -91 848 271 
Q 434 634 434 1313 
Q 434 1759 690 2068 
Q 947 2378 1403 2484 
z
M 1172 3481 
Q 1172 3119 1398 2916 
Q 1625 2713 2034 2713 
Q 2441 2713 2670 2916 
Q 2900 3119 2900 3481 
Q 2900 3844 2670 4047 
Q 2441 4250 2034 4250 
Q 1625 4250 1398 4047 
Q 1172 3844 1172 3481 
z
" transform="scale(0.015625)"/>
       </defs>
       <use xlink:href="#DejaVuSans-31"/>
       <use xlink:href="#DejaVuSans-38" transform="translate(63.623047 0)"/>
       <use xlink:href="#DejaVuSans-30" transform="translate(127.246094 0)"/>
       <use xlink:href="#DejaVuSans-b0" transform="translate(190.869141 0)"/>
      </g>
     </g>
    </g>
    <g id="xtick_6">
     <g id="line2d_6">
      <path d="M 236.16 174.528 
L 142.0752 268.6128 
" clip-path="url(#p987b60ba61)" style="fill: none; stroke: #b0b0b0; stroke-width: 0.8; stroke-linecap: square"/>
     </g>
     <g id="text_6">
      <!-- 225° -->
      <g transform="translate(120.131955 281.27167) scale(0.1 -0.1)">
       <defs>
        <path id="DejaVuSans-32" d="M 1228 531 
L 3431 531 
L 3431 0 
L 469 0 
L 469 531 
Q 828 903 1448 1529 
Q 2069 2156 2228 2338 
Q 2531 2678 2651 2914 
Q 2772 3150 2772 3378 
Q 2772 3750 2511 3984 
Q 2250 4219 1831 4219 
Q 1534 4219 1204 4116 
Q 875 4013 500 3803 
L 500 4441 
Q 881 4594 1212 4672 
Q 1544 4750 1819 4750 
Q 2544 4750 2975 4387 
Q 3406 4025 3406 3419 
Q 3406 3131 3298 2873 
Q 3191 2616 2906 2266 
Q 2828 2175 2409 1742 
Q 1991 1309 1228 531 
z
" transform="scale(0.015625)"/>
       </defs>
       <use xlink:href="#DejaVuSans-32"/>
       <use xlink:href="#DejaVuSans-32" transform="translate(63.623047 0)"/>
       <use xlink:href="#DejaVuSans-35" transform="translate(127.246094 0)"/>
       <use xlink:href="#DejaVuSans-b0" transform="translate(190.869141 0)"/>
      </g>
     </g>
    </g>
    <g id="xtick_7">
     <g id="line2d_7">
      <path d="M 236.16 174.528 
L 236.16 307.584 
" clip-path="url(#p987b60ba61)" style="fill: none; stroke: #b0b0b0; stroke-width: 0.8; stroke-linecap: square"/>
     </g>
     <g id="text_7">
      <!-- 270° -->
      <g transform="translate(224.11625 324.343375) scale(0.1 -0.1)">
       <defs>
        <path id="DejaVuSans-37" d="M 525 4666 
L 3525 4666 
L 3525 4397 
L 1831 0 
L 1172 0 
L 2766 4134 
L 525 4134 
L 525 4666 
z
" transform="scale(0.015625)"/>
       </defs>
       <use xlink:href="#DejaVuSans-32"/>
       <use xlink:href="#DejaVuSans-37" transform="translate(63.623047 0)"/>
       <use xlink:href="#DejaVuSans-30" transform="translate(127.246094 0)"/>
       <use xlink:href="#DejaVuSans-b0" transform="translate(190.869141 0)"/>
      </g>
     </g>
    </g>
    <g id="xtick_8">
     <g id="line2d_8">
      <path d="M 236.16 174.528 
L 330.2448 268.6128 
" clip-path="url(#p987b60ba61)" style="fill: none; stroke: #b0b0b0; stroke-width: 0.8; stroke-linecap: square"/>
     </g>
     <g id="text_8">
      <!-- 315° -->
      <g transform="translate(328.100545 281.27167) scale(0.1 -0.1)">
       <use xlink:href="#DejaVuSans-33"/>
       <use xlink:href="#DejaVuSans-31" transform="translate(63.623047 0)"/>
       <use xlink:href="#DejaVuSans-35" transform="translate(127.246094 0)"/>
       <use xlink:href="#DejaVuSans-b0" transform="translate(190.869141 0)"/>
      </g>
     </g>
    </g>
   </g>
   <g id="matplotlib.axis_2">
    <g id="ytick_1">
     <g id="line2d_9">
      <path d="M 261.504 174.528 
C 261.504 171.199856 260.848428 167.904075 259.574803 164.829271 
C 258.301177 161.754467 256.434267 158.960439 254.080914 156.607086 
C 251.727561 154.253733 248.933533 152.386823 245.858729 151.113197 
C 242.783925 149.839572 239.488144 149.184 236.16 149.184 
C 232.831856 149.184 229.536075 149.839572 226.461271 151.113197 
C 223.386467 152.386823 220.592439 154.253733 218.239086 156.607086 
C 215.885733 158.960439 214.018823 161.754467 212.745197 164.829271 
C 211.471572 167.904075 210.816 171.199856 210.816 174.528 
C 210.816 177.856144 211.471572 181.151925 212.745197 184.226729 
C 214.018823 187.301533 215.885733 190.095561 218.239086 192.448914 
C 220.592439 194.802267 223.386467 196.669177 226.461271 197.942803 
C 229.536075 199.216428 232.831856 199.872 236.16 199.872 
C 239.488144 199.872 242.783925 199.216428 245.858729 197.942803 
C 248.933533 196.669177 251.727561 194.802267 254.080914 192.448914 
C 256.434267 190.095561 258.301177 187.301533 259.574803 184.226729 
C 260.848428 181.151925 261.504 177.856144 261.504 174.528 
" clip-path="url(#p987b60ba61)" style="fill: none; stroke: #b0b0b0; stroke-width: 0.8; stroke-linecap: square"/>
     </g>
     <g id="text_9">
      <!-- 0.2 -->
      <g transform="translate(259.574803 182.147041) scale(0.1 -0.1)">
       <defs>
        <path id="DejaVuSans-2e" d="M 684 794 
L 1344 794 
L 1344 0 
L 684 0 
L 684 794 
z
" transform="scale(0.015625)"/>
       </defs>
       <use xlink:href="#DejaVuSans-30"/>
       <use xlink:href="#DejaVuSans-2e" transform="translate(63.623047 0)"/>
       <use xlink:href="#DejaVuSans-32" transform="translate(95.410156 0)"/>
      </g>
     </g>
    </g>
    <g id="ytick_2">
     <g id="line2d_10">
      <path d="M 286.848 174.528 
C 286.848 167.871713 285.536857 161.28015 282.989606 155.130542 
C 280.442355 148.980935 276.708534 143.392877 272.001829 138.686171 
C 267.295123 133.979466 261.707065 130.245645 255.557458 127.698394 
C 249.40785 125.151143 242.816287 123.84 236.16 123.84 
C 229.503713 123.84 222.91215 125.151143 216.762542 127.698394 
C 210.612935 130.245645 205.024877 133.979466 200.318171 138.686171 
C 195.611466 143.392877 191.877645 148.980935 189.330394 155.130542 
C 186.783143 161.28015 185.472 167.871713 185.472 174.528 
C 185.472 181.184287 186.783143 187.77585 189.330394 193.925458 
C 191.877645 200.075065 195.611466 205.663123 200.318171 210.369829 
C 205.024877 215.076534 210.612935 218.810355 216.762542 221.357606 
C 222.91215 223.904857 229.503713 225.216 236.16 225.216 
C 242.816287 225.216 249.40785 223.904857 255.557458 221.357606 
C 261.707065 218.810355 267.295123 215.076534 272.001829 210.369829 
C 276.708534 205.663123 280.442355 200.075065 282.989606 193.925458 
C 285.536857 187.77585 286.848 181.184287 286.848 174.528 
" clip-path="url(#p987b60ba61)" style="fill: none; stroke: #b0b0b0; stroke-width: 0.8; stroke-linecap: square"/>
     </g>
     <g id="text_10">
      <!-- 0.4 -->
      <g transform="translate(282.989606 191.84577) scale(0.1 -0.1)">
       <use xlink:href="#DejaVuSans-30"/>
       <use xlink:href="#DejaVuSans-2e" transform="translate(63.623047 0)"/>
       <use xlink:href="#DejaVuSans-34" transform="translate(95.410156 0)"/>
      </g>
     </g>
    </g>
    <g id="ytick_3">
     <g id="line2d_11">
      <path d="M 312.192 174.528 
C 312.192 164.543569 310.225285 154.656224 306.404409 145.431813 
C 302.583532 136.207402 296.982801 127.825316 289.922743 120.765257 
C 282.862684 113.705199 274.480598 108.104468 265.256187 104.283591 
C 256.031776 100.462715 246.144431 98.496 236.16 98.496 
C 226.175569 98.496 216.288224 100.462715 207.063813 104.283591 
C 197.839402 108.104468 189.457316 113.705199 182.397257 120.765257 
C 175.337199 127.825316 169.736468 136.207402 165.915591 145.431813 
C 162.094715 154.656224 160.128 164.543569 160.128 174.528 
C 160.128 184.512431 162.094715 194.399776 165.915591 203.624187 
C 169.736468 212.848598 175.337199 221.230684 182.397257 228.290743 
C 189.457316 235.350801 197.839402 240.951532 207.063813 244.772409 
C 216.288224 248.593285 226.175569 250.56 236.16 250.56 
C 246.144431 250.56 256.031776 248.593285 265.256187 244.772409 
C 274.480598 240.951532 282.862684 235.350801 289.922743 228.290743 
C 296.982801 221.230684 302.583532 212.848598 306.404409 203.624187 
C 310.225285 194.399776 312.192 184.512431 312.192 174.528 
" clip-path="url(#p987b60ba61)" style="fill: none; stroke: #b0b0b0; stroke-width: 0.8; stroke-linecap: square"/>
     </g>
     <g id="text_11">
      <!-- 0.6 -->
      <g transform="translate(306.404409 201.544499) scale(0.1 -0.1)">
       <defs>
        <path id="DejaVuSans-36" d="M 2113 2584 
Q 1688 2584 1439 2293 
Q 1191 2003 1191 1497 
Q 1191 994 1439 701 
Q 1688 409 2113 409 
Q 2538 409 2786 701 
Q 3034 994 3034 1497 
Q 3034 2003 2786 2293 
Q 2538 2584 2113 2584 
z
M 3366 4563 
L 3366 3988 
Q 3128 4100 2886 4159 
Q 2644 4219 2406 4219 
Q 1781 4219 1451 3797 
Q 1122 3375 1075 2522 
Q 1259 2794 1537 2939 
Q 1816 3084 2150 3084 
Q 2853 3084 3261 2657 
Q 3669 2231 3669 1497 
Q 3669 778 3244 343 
Q 2819 -91 2113 -91 
Q 1303 -91 875 529 
Q 447 1150 447 2328 
Q 447 3434 972 4092 
Q 1497 4750 2381 4750 
Q 2619 4750 2861 4703 
Q 3103 4656 3366 4563 
z
" transform="scale(0.015625)"/>
       </defs>
       <use xlink:href="#DejaVuSans-30"/>
       <use xlink:href="#DejaVuSans-2e" transform="translate(63.623047 0)"/>
       <use xlink:href="#DejaVuSans-36" transform="translate(95.410156 0)"/>
      </g>
     </g>
    </g>
    <g id="ytick_4">
     <g id="line2d_12">
      <path d="M 337.536 174.528 
C 337.536 161.215426 334.913713 148.032299 329.819211 135.733084 
C 324.72471 123.433869 317.257069 112.257755 307.843657 102.844343 
C 298.430245 93.430931 287.254131 85.96329 274.954916 80.868789 
C 262.655701 75.774287 249.472574 73.152 236.16 73.152 
C 222.847426 73.152 209.664299 75.774287 197.365084 80.868789 
C 185.065869 85.96329 173.889755 93.430931 164.476343 102.844343 
C 155.062931 112.257755 147.59529 123.433869 142.500789 135.733084 
C 137.406287 148.032299 134.784 161.215426 134.784 174.528 
C 134.784 187.840574 137.406287 201.023701 142.500789 213.322916 
C 147.59529 225.622131 155.062931 236.798245 164.476343 246.211657 
C 173.889755 255.625069 185.065869 263.09271 197.365084 268.187211 
C 209.664299 273.281713 222.847426 275.904 236.16 275.904 
C 249.472574 275.904 262.655701 273.281713 274.954916 268.187211 
C 287.254131 263.09271 298.430245 255.625069 307.843657 246.211657 
C 317.257069 236.798245 324.72471 225.622131 329.819211 213.322916 
C 334.913713 201.023701 337.536 187.840574 337.536 174.528 
" clip-path="url(#p987b60ba61)" style="fill: none; stroke: #b0b0b0; stroke-width: 0.8; stroke-linecap: square"/>
     </g>
     <g id="text_12">
      <!-- 0.8 -->
      <g transform="translate(329.819211 211.243228) scale(0.1 -0.1)">
       <use xlink:href="#DejaVuSans-30"/>
       <use xlink:href="#DejaVuSans-2e" transform="translate(63.623047 0)"/>
       <use xlink:href="#DejaVuSans-38" transform="translate(95.410156 0)"/>
      </g>
     </g>
    </g>
    <g id="ytick_5">
     <g id="line2d_13">
      <path d="M 362.88 174.528 
C 362.88 157.887282 359.602141 141.408374 353.234014 126.034355 
C 346.865887 110.660337 337.531336 96.690193 325.764571 84.923429 
C 313.997807 73.156664 300.027663 63.822113 284.653645 57.453986 
C 269.279626 51.085859 252.800718 47.808 236.16 47.808 
C 219.519282 47.808 203.040374 51.085859 187.666355 57.453986 
C 172.292337 63.822113 158.322193 73.156664 146.555429 84.923429 
C 134.788664 96.690193 125.454113 110.660337 119.085986 126.034355 
C 112.717859 141.408374 109.44 157.887282 109.44 174.528 
C 109.44 191.168718 112.717859 207.647626 119.085986 223.021645 
C 125.454113 238.395663 134.788664 252.365807 146.555429 264.132571 
C 158.322193 275.899336 172.292337 285.233887 187.666355 291.602014 
C 203.040374 297.970141 219.519282 301.248 236.16 301.248 
C 252.800718 301.248 269.279626 297.970141 284.653645 291.602014 
C 300.027663 285.233887 313.997807 275.899336 325.764571 264.132571 
C 337.531336 252.365807 346.865887 238.395663 353.234014 223.021645 
C 359.602141 207.647626 362.88 191.168718 362.88 174.528 
" clip-path="url(#p987b60ba61)" style="fill: none; stroke: #b0b0b0; stroke-width: 0.8; stroke-linecap: square"/>
     </g>
     <g id="text_13">
      <!-- 1.0 -->
      <g transform="translate(353.234014 220.941957) scale(0.1 -0.1)">
       <use xlink:href="#DejaVuSans-31"/>
       <use xlink:href="#DejaVuSans-2e" transform="translate(63.623047 0)"/>
       <use xlink:href="#DejaVuSans-30" transform="translate(95.410156 0)"/>
      </g>
     </g>
    </g>
   </g>
   <g id="line2d_14">
    <path d="M 236.16 174.528 
L 240.57977 174.373658 
L 244.978008 173.911385 
L 249.333285 173.143432 
L 253.624383 172.073541 
L 257.830396 170.706924 
L 261.930834 169.05024 
L 265.905718 167.111559 
L 269.735685 164.900327 
L 273.402074 162.427317 
L 276.887023 159.704576 
L 280.173554 156.74537 
L 283.245656 153.564115 
L 286.088361 150.176311 
L 288.687821 146.598462 
L 291.03137 142.848 
L 293.107591 138.943196 
L 294.906369 134.903074 
L 296.418941 130.747317 
L 297.637937 126.496171 
L 298.557419 122.170349 
L 299.172907 117.790923 
L 299.481403 113.379232 
L 299.481403 108.956768 
L 299.172907 104.545077 
L 298.557419 100.165651 
L 297.637937 95.839829 
L 296.418941 91.588683 
L 294.906369 87.432926 
L 293.107591 83.392804 
L 291.03137 79.488 
L 288.687821 75.737538 
L 286.088361 72.159689 
L 283.245656 68.771885 
L 280.173554 65.59063 
L 276.887023 62.631424 
L 273.402074 59.908683 
L 269.735685 57.435673 
L 265.905718 55.224441 
L 261.930834 53.28576 
L 257.830396 51.629076 
L 253.624383 50.262459 
L 249.333285 49.192568 
L 244.978008 48.424615 
L 240.57977 47.962342 
L 236.16 47.808 
L 231.74023 47.962342 
L 227.341992 48.424615 
L 222.986715 49.192568 
L 218.695617 50.262459 
L 214.489604 51.629076 
L 210.389166 53.28576 
L 206.414282 55.224441 
L 202.584315 57.435673 
L 198.917926 59.908683 
L 195.432977 62.631424 
L 192.146446 65.59063 
L 189.074344 68.771885 
L 186.231639 72.159689 
L 183.632179 75.737538 
L 181.28863 79.488 
L 179.212409 83.392804 
L 177.413631 87.432926 
L 175.901059 91.588683 
L 174.682063 95.839829 
L 173.762581 100.165651 
L 173.147093 104.545077 
L 172.838597 108.956768 
L 172.838597 113.379232 
L 173.147093 117.790923 
L 173.762581 122.170349 
L 174.682063 126.496171 
L 175.901059 130.747317 
L 177.413631 134.903074 
L 179.212409 138.943196 
L 181.28863 142.848 
L 183.632179 146.598462 
L 186.231639 150.176311 
L 189.074344 153.564115 
L 192.146446 156.74537 
L 195.432977 159.704576 
L 198.917926 162.427317 
L 202.584315 164.900327 
L 206.414282 167.111559 
L 210.389166 169.05024 
L 214.489604 170.706924 
L 218.695617 172.073541 
L 222.986715 173.143432 
L 227.341992 173.911385 
L 231.74023 174.373658 
L 236.16 174.528 
L 233.948768 174.566597 
L 229.537077 174.875093 
L 225.157651 175.490581 
L 220.831829 176.410063 
L 216.580683 177.629059 
L 212.424926 179.141631 
L 208.384804 180.940409 
L 204.48 183.01663 
L 200.729538 185.360179 
L 197.151689 187.959639 
L 193.763885 190.802344 
L 190.58263 193.874446 
L 187.623424 197.160977 
L 184.900683 200.645926 
L 182.427673 204.312315 
L 180.216441 208.142282 
L 178.27776 212.117166 
L 176.621076 216.217604 
L 175.254459 220.423617 
L 174.184568 224.714715 
L 173.416615 229.069992 
L 172.954342 233.46823 
L 172.8 237.888 
L 172.954342 242.30777 
L 173.416615 246.706008 
L 174.184568 251.061285 
L 175.254459 255.352383 
L 176.621076 259.558396 
L 178.27776 263.658834 
L 180.216441 267.633718 
L 182.427673 271.463685 
L 184.900683 275.130074 
L 187.623424 278.615023 
L 190.58263 281.901554 
L 193.763885 284.973656 
L 197.151689 287.816361 
L 200.729538 290.415821 
L 204.48 292.75937 
L 208.384804 294.835591 
L 212.424926 296.634369 
L 216.580683 298.146941 
L 220.831829 299.365937 
L 225.157651 300.285419 
L 229.537077 300.900907 
L 233.948768 301.209403 
L 238.371232 301.209403 
L 242.782923 300.900907 
L 247.162349 300.285419 
L 251.488171 299.365937 
L 255.739317 298.146941 
L 259.895074 296.634369 
L 263.935196 294.835591 
L 267.84 292.75937 
L 271.590462 290.415821 
L 275.168311 287.816361 
L 278.556115 284.973656 
L 281.73737 281.901554 
L 284.696576 278.615023 
L 287.419317 275.130074 
L 289.892327 271.463685 
L 292.103559 267.633718 
L 294.04224 263.658834 
L 295.698924 259.558396 
L 297.065541 255.352383 
L 298.135432 251.061285 
L 298.903385 246.706008 
L 299.365658 242.30777 
L 299.52 237.888 
L 299.365658 233.46823 
L 298.903385 229.069992 
L 298.135432 224.714715 
L 297.065541 220.423617 
L 295.698924 216.217604 
L 294.04224 212.117166 
L 292.103559 208.142282 
L 289.892327 204.312315 
L 287.419317 200.645926 
L 284.696576 197.160977 
L 281.73737 193.874446 
L 278.556115 190.802344 
L 275.168311 187.959639 
L 271.590462 185.360179 
L 267.84 183.01663 
L 263.935196 180.940409 
L 259.895074 179.141631 
L 255.739317 177.629059 
L 251.488171 176.410063 
L 247.162349 175.490581 
L 242.782923 174.875093 
L 238.371232 174.566597 
L 236.16 174.528 
L 236.16 174.528 
" clip-path="url(#p987b60ba61)" style="fill: none; stroke: #1f77b4; stroke-width: 1.5; stroke-linecap: square"/>
   </g>
   <g id="line2d_15">
    <path d="M 236.16 174.528 
L 240.57977 174.373658 
L 244.978008 173.911385 
L 249.333285 173.143432 
L 253.624383 172.073541 
L 257.830396 170.706924 
L 261.930834 169.05024 
L 265.905718 167.111559 
L 269.735685 164.900327 
L 273.402074 162.427317 
L 276.887023 159.704576 
L 280.173554 156.74537 
L 283.245656 153.564115 
L 286.088361 150.176311 
L 288.687821 146.598462 
L 291.03137 142.848 
L 293.107591 138.943196 
L 294.906369 134.903074 
L 296.418941 130.747317 
L 297.637937 126.496171 
L 298.557419 122.170349 
L 299.172907 117.790923 
L 299.481403 113.379232 
L 299.481403 108.956768 
L 299.172907 104.545077 
L 298.557419 100.165651 
L 297.637937 95.839829 
L 296.418941 91.588683 
L 294.906369 87.432926 
L 293.107591 83.392804 
L 291.03137 79.488 
L 288.687821 75.737538 
L 286.088361 72.159689 
L 283.245656 68.771885 
L 280.173554 65.59063 
L 276.887023 62.631424 
L 273.402074 59.908683 
L 269.735685 57.435673 
L 265.905718 55.224441 
L 261.930834 53.28576 
L 257.830396 51.629076 
L 253.624383 50.262459 
L 249.333285 49.192568 
L 244.978008 48.424615 
L 240.57977 47.962342 
L 236.16 47.808 
L 231.74023 47.962342 
L 227.341992 48.424615 
L 222.986715 49.192568 
L 218.695617 50.262459 
L 214.489604 51.629076 
L 210.389166 53.28576 
L 206.414282 55.224441 
L 202.584315 57.435673 
L 198.917926 59.908683 
L 195.432977 62.631424 
L 192.146446 65.59063 
L 189.074344 68.771885 
L 186.231639 72.159689 
L 183.632179 75.737538 
L 181.28863 79.488 
L 179.212409 83.392804 
L 177.413631 87.432926 
L 175.901059 91.588683 
L 174.682063 95.839829 
L 173.762581 100.165651 
L 173.147093 104.545077 
L 172.838597 108.956768 
L 172.838597 113.379232 
L 173.147093 117.790923 
L 173.762581 122.170349 
L 174.682063 126.496171 
L 175.901059 130.747317 
L 177.413631 134.903074 
L 179.212409 138.943196 
L 181.28863 142.848 
L 183.632179 146.598462 
L 186.231639 150.176311 
L 189.074344 153.564115 
L 192.146446 156.74537 
L 195.432977 159.704576 
L 198.917926 162.427317 
L 202.584315 164.900327 
L 206.414282 167.111559 
L 210.389166 169.05024 
L 214.489604 170.706924 
L 218.695617 172.073541 
L 222.986715 173.143432 
L 227.341992 173.911385 
L 231.74023 174.373658 
L 236.16 174.528 
L 233.948768 174.566597 
L 229.537077 174.875093 
L 225.157651 175.490581 
L 220.831829 176.410063 
L 216.580683 177.629059 
L 212.424926 179.141631 
L 208.384804 180.940409 
L 204.48 183.01663 
L 200.729538 185.360179 
L 197.151689 187.959639 
L 193.763885 190.802344 
L 190.58263 193.874446 
L 187.623424 197.160977 
L 184.900683 200.645926 
L 182.427673 204.312315 
L 180.216441 208.142282 
L 178.27776 212.117166 
L 176.621076 216.217604 
L 175.254459 220.423617 
L 174.184568 224.714715 
L 173.416615 229.069992 
L 172.954342 233.46823 
L 172.8 237.888 
L 172.954342 242.30777 
L 173.416615 246.706008 
L 174.184568 251.061285 
L 175.254459 255.352383 
L 176.621076 259.558396 
L 178.27776 263.658834 
L 180.216441 267.633718 
L 182.427673 271.463685 
L 184.900683 275.130074 
L 187.623424 278.615023 
L 190.58263 281.901554 
L 193.763885 284.973656 
L 197.151689 287.816361 
L 200.729538 290.415821 
L 204.48 292.75937 
L 208.384804 294.835591 
L 212.424926 296.634369 
L 216.580683 298.146941 
L 220.831829 299.365937 
L 225.157651 300.285419 
L 229.537077 300.900907 
L 233.948768 301.209403 
L 238.371232 301.209403 
L 242.782923 300.900907 
L 247.162349 300.285419 
L 251.488171 299.365937 
L 255.739317 298.146941 
L 259.895074 296.634369 
L 263.935196 294.835591 
L 267.84 292.75937 
L 271.590462 290.415821 
L 275.168311 287.816361 
L 278.556115 284.973656 
L 281.73737 281.901554 
L 284.696576 278.615023 
L 287.419317 275.130074 
L 289.892327 271.463685 
L 292.103559 267.633718 
L 294.04224 263.658834 
L 295.698924 259.558396 
L 297.065541 255.352383 
L 298.135432 251.061285 
L 298.903385 246.706008 
L 299.365658 242.30777 
L 299.52 237.888 
L 299.365658 233.46823 
L 298.903385 229.069992 
L 298.135432 224.714715 
L 297.065541 220.423617 
L 295.698924 216.217604 
L 294.04224 212.117166 
L 292.103559 208.142282 
L 289.892327 204.312315 
L 287.419317 200.645926 
L 284.696576 197.160977 
L 281.73737 193.874446 
L 278.556115 190.802344 
L 275.168311 187.959639 
L 271.590462 185.360179 
L 267.84 183.01663 
L 263.935196 180.940409 
L 259.895074 179.141631 
L 255.739317 177.629059 
L 251.488171 176.410063 
L 247.162349 175.490581 
L 242.782923 174.875093 
L 238.371232 174.566597 
L 236.16 174.528 
L 236.16 174.528 
" clip-path="url(#p987b60ba61)" style="fill: none; stroke: #ff7f0e; stroke-width: 1.5; stroke-linecap: square"/>
   </g>
   <g id="line2d_16">
    <path d="M 236.16 174.528 
L 240.57977 174.373658 
L 244.978008 173.911385 
L 249.333285 173.143432 
L 253.624383 172.073541 
L 257.830396 170.706924 
L 261.930834 169.05024 
L 265.905718 167.111559 
L 269.735685 164.900327 
L 273.402074 162.427317 
L 276.887023 159.704576 
L 280.173554 156.74537 
L 283.245656 153.564115 
L 286.088361 150.176311 
L 288.687821 146.598462 
L 291.03137 142.848 
L 293.107591 138.943196 
L 294.906369 134.903074 
L 296.418941 130.747317 
L 297.637937 126.496171 
L 298.557419 122.170349 
L 299.172907 117.790923 
L 299.481403 113.379232 
L 299.481403 108.956768 
L 299.172907 104.545077 
L 298.557419 100.165651 
L 297.637937 95.839829 
L 296.418941 91.588683 
L 294.906369 87.432926 
L 293.107591 83.392804 
L 291.03137 79.488 
L 288.687821 75.737538 
L 286.088361 72.159689 
L 283.245656 68.771885 
L 280.173554 65.59063 
L 276.887023 62.631424 
L 273.402074 59.908683 
L 269.735685 57.435673 
L 265.905718 55.224441 
L 261.930834 53.28576 
L 257.830396 51.629076 
L 253.624383 50.262459 
L 249.333285 49.192568 
L 244.978008 48.424615 
L 240.57977 47.962342 
L 236.16 47.808 
L 231.74023 47.962342 
L 227.341992 48.424615 
L 222.986715 49.192568 
L 218.695617 50.262459 
L 214.489604 51.629076 
L 210.389166 53.28576 
L 206.414282 55.224441 
L 202.584315 57.435673 
L 198.917926 59.908683 
L 195.432977 62.631424 
L 192.146446 65.59063 
L 189.074344 68.771885 
L 186.231639 72.159689 
L 183.632179 75.737538 
L 181.28863 79.488 
L 179.212409 83.392804 
L 177.413631 87.432926 
L 175.901059 91.588683 
L 174.682063 95.839829 
L 173.762581 100.165651 
L 173.147093 104.545077 
L 172.838597 108.956768 
L 172.838597 113.379232 
L 173.147093 117.790923 
L 173.762581 122.170349 
L 174.682063 126.496171 
L 175.901059 130.747317 
L 177.413631 134.903074 
L 179.212409 138.943196 
L 181.28863 142.848 
L 183.632179 146.598462 
L 186.231639 150.176311 
L 189.074344 153.564115 
L 192.146446 156.74537 
L 195.432977 159.704576 
L 198.917926 162.427317 
L 202.584315 164.900327 
L 206.414282 167.111559 
L 210.389166 169.05024 
L 214.489604 170.706924 
L 218.695617 172.073541 
L 222.986715 173.143432 
L 227.341992 173.911385 
L 231.74023 174.373658 
L 236.16 174.528 
L 233.948768 174.566597 
L 229.537077 174.875093 
L 225.157651 175.490581 
L 220.831829 176.410063 
L 216.580683 177.629059 
L 212.424926 179.141631 
L 208.384804 180.940409 
L 204.48 183.01663 
L 200.729538 185.360179 
L 197.151689 187.959639 
L 193.763885 190.802344 
L 190.58263 193.874446 
L 187.623424 197.160977 
L 184.900683 200.645926 
L 182.427673 204.312315 
L 180.216441 208.142282 
L 178.27776 212.117166 
L 176.621076 216.217604 
L 175.254459 220.423617 
L 174.184568 224.714715 
L 173.416615 229.069992 
L 172.954342 233.46823 
L 172.8 237.888 
L 172.954342 242.30777 
L 173.416615 246.706008 
L 174.184568 251.061285 
L 175.254459 255.352383 
L 176.621076 259.558396 
L 178.27776 263.658834 
L 180.216441 267.633718 
L 182.427673 271.463685 
L 184.900683 275.130074 
L 187.623424 278.615023 
L 190.58263 281.901554 
L 193.763885 284.973656 
L 197.151689 287.816361 
L 200.729538 290.415821 
L 204.48 292.75937 
L 208.384804 294.835591 
L 212.424926 296.634369 
L 216.580683 298.146941 
L 220.831829 299.365937 
L 225.157651 300.285419 
L 229.537077 300.900907 
L 233.948768 301.209403 
L 238.371232 301.209403 
L 242.782923 300.900907 
L 247.162349 300.285419 
L 251.488171 299.365937 
L 255.739317 298.146941 
L 259.895074 296.634369 
L 263.935196 294.835591 
L 267.84 292.75937 
L 271.590462 290.415821 
L 275.168311 287.816361 
L 278.556115 284.973656 
L 281.73737 281.901554 
L 284.696576 278.615023 
L 287.419317 275.130074 
L 289.892327 271.463685 
L 292.103559 267.633718 
L 294.04224 263.658834 
L 295.698924 259.558396 
L 297.065541 255.352383 
L 298.135432 251.061285 
L 298.903385 246.706008 
L 299.365658 242.30777 
L 299.52 237.888 
L 299.365658 233.46823 
L 298.903385 229.069992 
L 298.135432 224.714715 
L 297.065541 220.423617 
L 295.698924 216.217604 
L 294.04224 212.117166 
L 292.103559 208.142282 
L 289.892327 204.312315 
L 287.419317 200.645926 
L 284.696576 197.160977 
L 281.73737 193.874446 
L 278.556115 190.802344 
L 275.168311 187.959639 
L 271.590462 185.360179 
L 267.84 183.01663 
L 263.935196 180.940409 
L 259.895074 179.141631 
L 255.739317 177.629059 
L 251.488171 176.410063 
L 247.162349 175.490581 
L 242.782923 174.875093 
L 238.371232 174.566597 
L 236.16 174.528 
L 236.16 174.528 
" clip-path="url(#p987b60ba61)" style="fill: none; stroke: #2ca02c; stroke-width: 1.5; stroke-linecap: square"/>
   </g>
   <g id="patch_3">
    <path d="M 369.216 174.528 
C 369.216 157.055246 365.774248 139.752393 359.087715 123.609673 
C 352.401182 107.466954 342.599903 92.798303 330.2448 80.4432 
C 317.889697 68.088097 303.221046 58.286818 287.078327 51.600285 
C 270.935607 44.913752 253.632754 41.472 236.16 41.472 
C 218.687246 41.472 201.384393 44.913752 185.241673 51.600285 
C 169.098954 58.286818 154.430303 68.088097 142.0752 80.4432 
C 129.720097 92.798303 119.918818 107.466954 113.232285 123.609673 
C 106.545752 139.752393 103.104 157.055246 103.104 174.528 
C 103.104 192.000754 106.545752 209.303607 113.232285 225.446327 
C 119.918818 241.589046 129.720097 256.257697 142.0752 268.6128 
C 154.430303 280.967903 169.098954 290.769182 185.241673 297.455715 
C 201.384393 304.142248 218.687246 307.584 236.16 307.584 
C 253.632754 307.584 270.935607 304.142248 287.078327 297.455715 
C 303.221046 290.769182 317.889697 280.967903 330.2448 268.6128 
C 342.599903 256.257697 352.401182 241.589046 359.087715 225.446327 
C 365.774248 209.303607 369.216 192.000754 369.216 174.528 
" style="fill: none; stroke: #000000; stroke-width: 0.8; stroke-linejoin: miter; stroke-linecap: square"/>
   </g>
   <g id="text_14">
    <!-- Polarization Pattern metallic_reflection_vertical -->
    <g transform="translate(95.370938 13.803563) scale(0.12 -0.12)">
     <defs>
      <path id="DejaVuSans-50" d="M 1259 4147 
L 1259 2394 
L 2053 2394 
Q 2494 2394 2734 2622 
Q 2975 2850 2975 3272 
Q 2975 3691 2734 3919 
Q 2494 4147 2053 4147 
L 1259 4147 
z
M 628 4666 
L 2053 4666 
Q 2838 4666 3239 4311 
Q 3641 3956 3641 3272 
Q 3641 2581 3239 2228 
Q 2838 1875 2053 1875 
L 1259 1875 
L 1259 0 
L 628 0 
L 628 4666 
z
" transform="scale(0.015625)"/>
      <path id="DejaVuSans-6f" d="M 1959 3097 
Q 1497 3097 1228 2736 
Q 959 2375 959 1747 
Q 959 1119 1226 758 
Q 1494 397 1959 397 
Q 2419 397 2687 759 
Q 2956 1122 2956 1747 
Q 2956 2369 2687 2733 
Q 2419 3097 1959 3097 
z
M 1959 3584 
Q 2709 3584 3137 3096 
Q 3566 2609 3566 1747 
Q 3566 888 3137 398 
Q 2709 -91 1959 -91 
Q 1206 -91 779 398 
Q 353 888 353 1747 
Q 353 2609 779 3096 
Q 1206 3584 1959 3584 
z
" transform="scale(0.015625)"/>
      <path id="DejaVuSans-6c" d="M 603 4863 
L 1178 4863 
L 1178 0 
L 603 0 
L 603 4863 
z
" transform="scale(0.015625)"/>
      <path id="DejaVuSans-61" d="M 2194 1759 
Q 1497 1759 1228 1600 
Q 959 1441 959 1056 
Q 959 750 1161 570 
Q 1363 391 1709 391 
Q 2188 391 2477 730 
Q 2766 1069 2766 1631 
L 2766 1759 
L 2194 1759 
z
M 3341 1997 
L 3341 0 
L 2766 0 
L 2766 531 
Q 2569 213 2275 61 
Q 1981 -91 1556 -91 
Q 1019 -91 701 211 
Q 384 513 384 1019 
Q 384 1609 779 1909 
Q 1175 2209 1959 2209 
L 2766 2209 
L 2766 2266 
Q 2766 2663 2505 2880 
Q 2244 3097 1772 3097 
Q 1472 3097 1187 3025 
Q 903 2953 641 2809 
L 641 3341 
Q 956 3463 1253 3523 
Q 1550 3584 1831 3584 
Q 2591 3584 2966 3190 
Q 3341 2797 3341 1997 
z
" transform="scale(0.015625)"/>
      <path id="DejaVuSans-72" d="M 2631 2963 
Q 2534 3019 2420 3045 
Q 2306 3072 2169 3072 
Q 1681 3072 1420 2755 
Q 1159 2438 1159 1844 
L 1159 0 
L 581 0 
L 581 3500 
L 1159 3500 
L 1159 2956 
Q 1341 3275 1631 3429 
Q 1922 3584 2338 3584 
Q 2397 3584 2469 3576 
Q 2541 3569 2628 3553 
L 2631 2963 
z
" transform="scale(0.015625)"/>
      <path id="DejaVuSans-69" d="M 603 3500 
L 1178 3500 
L 1178 0 
L 603 0 
L 603 3500 
z
M 603 4863 
L 1178 4863 
L 1178 4134 
L 603 4134 
L 603 4863 
z
" transform="scale(0.015625)"/>
      <path id="DejaVuSans-7a" d="M 353 3500 
L 3084 3500 
L 3084 2975 
L 922 459 
L 3084 459 
L 3084 0 
L 275 0 
L 275 525 
L 2438 3041 
L 353 3041 
L 353 3500 
z
" transform="scale(0.015625)"/>
      <path id="DejaVuSans-74" d="M 1172 4494 
L 1172 3500 
L 2356 3500 
L 2356 3053 
L 1172 3053 
L 1172 1153 
Q 1172 725 1289 603 
Q 1406 481 1766 481 
L 2356 481 
L 2356 0 
L 1766 0 
Q 1100 0 847 248 
Q 594 497 594 1153 
L 594 3053 
L 172 3053 
L 172 3500 
L 594 3500 
L 594 4494 
L 1172 4494 
z
" transform="scale(0.015625)"/>
      <path id="DejaVuSans-6e" d="M 3513 2113 
L 3513 0 
L 2938 0 
L 2938 2094 
Q 2938 2591 2744 2837 
Q 2550 3084 2163 3084 
Q 1697 3084 1428 2787 
Q 1159 2491 1159 1978 
L 1159 0 
L 581 0 
L 581 3500 
L 1159 3500 
L 1159 2956 
Q 1366 3272 1645 3428 
Q 1925 3584 2291 3584 
Q 2894 3584 3203 3211 
Q 3513 2838 3513 2113 
z
" transform="scale(0.015625)"/>
      <path id="DejaVuSans-20" transform="scale(0.015625)"/>
      <path id="DejaVuSans-65" d="M 3597 1894 
L 3597 1613 
L 953 1613 
Q 991 1019 1311 708 
Q 1631 397 2203 397 
Q 2534 397 2845 478 
Q 3156 559 3463 722 
L 3463 178 
Q 3153 47 2828 -22 
Q 2503 -91 2169 -91 
Q 1331 -91 842 396 
Q 353 884 353 1716 
Q 353 2575 817 3079 
Q 1281 3584 2069 3584 
Q 2775 3584 3186 3129 
Q 3597 2675 3597 1894 
z
M 3022 2063 
Q 3016 2534 2758 2815 
Q 2500 3097 2075 3097 
Q 1594 3097 1305 2825 
Q 1016 2553 972 2059 
L 3022 2063 
z
" transform="scale(0.015625)"/>
      <path id="DejaVuSans-6d" d="M 3328 2828 
Q 3544 3216 3844 3400 
Q 4144 3584 4550 3584 
Q 5097 3584 5394 3201 
Q 5691 2819 5691 2113 
L 5691 0 
L 5113 0 
L 5113 2094 
Q 5113 2597 4934 2840 
Q 4756 3084 4391 3084 
Q 3944 3084 3684 2787 
Q 3425 2491 3425 1978 
L 3425 0 
L 2847 0 
L 2847 2094 
Q 2847 2600 2669 2842 
Q 2491 3084 2119 3084 
Q 1678 3084 1418 2786 
Q 1159 2488 1159 1978 
L 1159 0 
L 581 0 
L 581 3500 
L 1159 3500 
L 1159 2956 
Q 1356 3278 1631 3431 
Q 1906 3584 2284 3584 
Q 2666 3584 2933 3390 
Q 3200 3197 3328 2828 
z
" transform="scale(0.015625)"/>
      <path id="DejaVuSans-63" d="M 3122 3366 
L 3122 2828 
Q 2878 2963 2633 3030 
Q 2388 3097 2138 3097 
Q 1578 3097 1268 2742 
Q 959 2388 959 1747 
Q 959 1106 1268 751 
Q 1578 397 2138 397 
Q 2388 397 2633 464 
Q 2878 531 3122 666 
L 3122 134 
Q 2881 22 2623 -34 
Q 2366 -91 2075 -91 
Q 1284 -91 818 406 
Q 353 903 353 1747 
Q 353 2603 823 3093 
Q 1294 3584 2113 3584 
Q 2378 3584 2631 3529 
Q 2884 3475 3122 3366 
z
" transform="scale(0.015625)"/>
      <path id="DejaVuSans-5f" d="M 3263 -1063 
L 3263 -1509 
L -63 -1509 
L -63 -1063 
L 3263 -1063 
z
" transform="scale(0.015625)"/>
      <path id="DejaVuSans-66" d="M 2375 4863 
L 2375 4384 
L 1825 4384 
Q 1516 4384 1395 4259 
Q 1275 4134 1275 3809 
L 1275 3500 
L 2222 3500 
L 2222 3053 
L 1275 3053 
L 1275 0 
L 697 0 
L 697 3053 
L 147 3053 
L 147 3500 
L 697 3500 
L 697 3744 
Q 697 4328 969 4595 
Q 1241 4863 1831 4863 
L 2375 4863 
z
" transform="scale(0.015625)"/>
      <path id="DejaVuSans-76" d="M 191 3500 
L 800 3500 
L 1894 563 
L 2988 3500 
L 3597 3500 
L 2284 0 
L 1503 0 
L 191 3500 
z
" transform="scale(0.015625)"/>
     </defs>
     <use xlink:href="#DejaVuSans-50"/>
     <use xlink:href="#DejaVuSans-6f" transform="translate(56.677734 0)"/>
     <use xlink:href="#DejaVuSans-6c" transform="translate(117.859375 0)"/>
     <use xlink:href="#DejaVuSans-61" transform="translate(145.642578 0)"/>
     <use xlink:href="#DejaVuSans-72" transform="translate(206.921875 0)"/>
     <use xlink:href="#DejaVuSans-69" transform="translate(248.035156 0)"/>
     <use xlink:href="#DejaVuSans-7a" transform="translate(275.818359 0)"/>
     <use xlink:href="#DejaVuSans-61" transform="translate(328.308594 0)"/>
     <use xlink:href="#DejaVuSans-74" transform="translate(389.587891 0)"/>
     <use xlink:href="#DejaVuSans-69" transform="translate(428.796875 0)"/>
     <use xlink:href="#DejaVuSans-6f" transform="translate(456.580078 0)"/>
     <use xlink:href="#DejaVuSans-6e" transform="translate(517.761719 0)"/>
     <use xlink:href="#DejaVuSans-20" transform="translate(581.140625 0)"/>
     <use xlink:href="#DejaVuSans-50" transform="translate(612.927734 0)"/>
     <use xlink:href="#DejaVuSans-61" transform="translate(668.730469 0)"/>
     <use xlink:href="#DejaVuSans-74" transform="translate(730.009766 0)"/>
     <use xlink:href="#DejaVuSans-74" transform="translate(769.21875 0)"/>
     <use xlink:href="#DejaVuSans-65" transform="translate(808.427734 0)"/>
     <use xlink:href="#DejaVuSans-72" transform="translate(869.951172 0)"/>
     <use xlink:href="#DejaVuSans-6e" transform="translate(909.314453 0)"/>
     <use xlink:href="#DejaVuSans-20" transform="translate(972.693359 0)"/>
     <use xlink:href="#DejaVuSans-6d" transform="translate(1004.480469 0)"/>
     <use xlink:href="#DejaVuSans-65" transform="translate(1101.892578 0)"/>
     <use xlink:href="#DejaVuSans-74" transform="translate(1163.416016 0)"/>
     <use xlink:href="#DejaVuSans-61" transform="translate(1202.625 0)"/>
     <use xlink:href="#DejaVuSans-6c" transform="translate(1263.904297 0)"/>
     <use xlink:href="#DejaVuSans-6c" transform="translate(1291.6875 0)"/>
     <use xlink:href="#DejaVuSans-69" transform="translate(1319.470703 0)"/>
     <use xlink:href="#DejaVuSans-63" transform="translate(1347.253906 0)"/>
     <use xlink:href="#DejaVuSans-5f" transform="translate(1402.234375 0)"/>
     <use xlink:href="#DejaVuSans-72" transform="translate(1452.234375 0)"/>
     <use xlink:href="#DejaVuSans-65" transform="translate(1491.097656 0)"/>
     <use xlink:href="#DejaVuSans-66" transform="translate(1552.621094 0)"/>
     <use xlink:href="#DejaVuSans-6c" transform="translate(1587.826172 0)"/>
     <use xlink:href="#DejaVuSans-65" transform="translate(1615.609375 0)"/>
     <use xlink:href="#DejaVuSans-63" transform="translate(1677.132812 0)"/>
     <use xlink:href="#DejaVuSans-74" transform="translate(1732.113281 0)"/>
     <use xlink:href="#DejaVuSans-69" transform="translate(1771.322266 0)"/>
     <use xlink:href="#DejaVuSans-6f" transform="translate(1799.105469 0)"/>
     <use xlink:href="#DejaVuSans-6e" transform="translate(1860.287109 0)"/>
     <use xlink:href="#DejaVuSans-5f" transform="translate(1923.666016 0)"/>
     <use xlink:href="#DejaVuSans-76" transform="translate(1973.666016 0)"/>
     <use xlink:href="#DejaVuSans-65" transform="translate(2032.845703 0)"/>
     <use xlink:href="#DejaVuSans-72" transform="translate(2094.369141 0)"/>
     <use xlink:href="#DejaVuSans-74" transform="translate(2135.482422 0)"/>
     <use xlink:href="#DejaVuSans-69" transform="translate(2174.691406 0)"/>
     <use xlink:href="#DejaVuSans-63" transform="translate(2202.474609 0)"/>
     <use xlink:href="#DejaVuSans-61" transform="translate(2257.455078 0)"/>
     <use xlink:href="#DejaVuSans-6c" transform="translate(2318.734375 0)"/>
    </g>
   </g>
   <g id="legend_1">
    <g id="patch_4">
     <path d="M 332.456625 85.37075 
L 365.016 85.37075 
Q 366.216 85.37075 366.216 84.17075 
L 366.216 45.672 
Q 366.216 44.472 365.016 44.472 
L 332.456625 44.472 
Q 331.256625 44.472 331.256625 45.672 
L 331.256625 84.17075 
Q 331.256625 85.37075 332.456625 85.37075 
z
" style="fill: #ffffff; opacity: 0.8; stroke: #cccccc; stroke-linejoin: miter"/>
    </g>
    <g id="text_15">
     <!-- H -->
     <g transform="translate(344.976156 54.470438) scale(0.1 -0.1)">
      <defs>
       <path id="DejaVuSans-48" d="M 628 4666 
L 1259 4666 
L 1259 2753 
L 3553 2753 
L 3553 4666 
L 4184 4666 
L 4184 0 
L 3553 0 
L 3553 2222 
L 1259 2222 
L 1259 0 
L 628 0 
L 628 4666 
z
" transform="scale(0.015625)"/>
      </defs>
      <use xlink:href="#DejaVuSans-48"/>
     </g>
    </g>
    <g id="line2d_17">
     <path d="M 333.656625 62.009188 
L 339.656625 62.009188 
L 345.656625 62.009188 
" style="fill: none; stroke: #1f77b4; stroke-width: 1.5; stroke-linecap: square"/>
    </g>
    <g id="text_16">
     <!-- 0.24 -->
     <g transform="translate(350.456625 64.109188) scale(0.06 -0.06)">
      <use xlink:href="#DejaVuSans-30"/>
      <use xlink:href="#DejaVuSans-2e" transform="translate(63.623047 0)"/>
      <use xlink:href="#DejaVuSans-32" transform="translate(95.410156 0)"/>
      <use xlink:href="#DejaVuSans-34" transform="translate(159.033203 0)"/>
     </g>
    </g>
    <g id="line2d_18">
     <path d="M 333.656625 70.816063 
L 339.656625 70.816063 
L 345.656625 70.816063 
" style="fill: none; stroke: #ff7f0e; stroke-width: 1.5; stroke-linecap: square"/>
    </g>
    <g id="text_17">
     <!-- 0.42 -->
     <g transform="translate(350.456625 72.916063) scale(0.06 -0.06)">
      <use xlink:href="#DejaVuSans-30"/>
      <use xlink:href="#DejaVuSans-2e" transform="translate(63.623047 0)"/>
      <use xlink:href="#DejaVuSans-34" transform="translate(95.410156 0)"/>
      <use xlink:href="#DejaVuSans-32" transform="translate(159.033203 0)"/>
     </g>
    </g>
    <g id="line2d_19">
     <path d="M 333.656625 79.622938 
L 339.656625 79.622938 
L 345.656625 79.622938 
" style="fill: none; stroke: #2ca02c; stroke-width: 1.5; stroke-linecap: square"/>
    </g>
    <g id="text_18">
     <!-- 0.59 -->
     <g transform="translate(350.456625 81.722938) scale(0.06 -0.06)">
      <use xlink:href="#DejaVuSans-30"/>
      <use xlink:href="#DejaVuSans-2e" transform="translate(63.623047 0)"/>
      <use xlink:href="#DejaVuSans-35" transform="translate(95.410156 0)"/>
      <use xlink:href="#DejaVuSans-39" transform="translate(159.033203 0)"/>
     </g>
    </g>
   </g>
  </g>
 </g>
 <defs>
  <clipPath id="p987b60ba61">
   <path d="M 369.216 174.528 
C 369.216 157.055246 365.774248 139.752393 359.087715 123.609673 
C 352.401182 107.466954 342.599903 92.798303 330.2448 80.4432 
C 317.889697 68.088097 303.221046 58.286818 287.078327 51.600285 
C 270.935607 44.913752 253.632754 41.472 236.16 41.472 
C 218.687246 41.472 201.384393 44.913752 185.241673 51.600285 
C 169.098954 58.286818 154.430303 68.088097 142.0752 80.4432 
C 129.720097 92.798303 119.918818 107.466954 113.232285 123.609673 
C 106.545752 139.752393 103.104 157.055246 103.104 174.528 
C 103.104 192.000754 106.545752 209.303607 113.232285 225.446327 
C 119.918818 241.589046 129.720097 256.257697 142.0752 268.6128 
C 154.430303 280.967903 169.098954 290.769182 185.241673 297.455715 
C 201.384393 304.142248 218.687246 307.584 236.16 307.584 
C 253.632754 307.584 270.935607 304.142248 287.078327 297.455715 
C 303.221046 290.769182 317.889697 280.967903 330.2448 268.6128 
C 342.599903 256.257697 352.401182 241.589046 359.087715 225.446327 
C 365.774248 209.303607 369.216 192.000754 369.216 174.528 
M 236.16 174.528 
C 236.16 174.528 236.16 174.528 236.16 174.528 
C 236.16 174.528 236.16 174.528 236.16 174.528 
C 236.16 174.528 236.16 174.528 236.16 174.528 
C 236.16 174.528 236.16 174.528 236.16 174.528 
C 236.16 174.528 236.16 174.528 236.16 174.528 
C 236.16 174.528 236.16 174.528 236.16 174.528 
C 236.16 174.528 236.16 174.528 236.16 174.528 
C 236.16 174.528 236.16 174.528 236.16 174.528 
C 236.16 174.528 236.16 174.528 236.16 174.528 
C 236.16 174.528 236.16 174.528 236.16 174.528 
C 236.16 174.528 236.16 174.528 236.16 174.528 
C 236.16 174.528 236.16 174.528 236.16 174.528 
C 236.16 174.528 236.16 174.528 236.16 174.528 
C 236.16 174.528 236.16 174.528 236.16 174.528 
C 236.16 174.528 236.16 174.528 236.16 174.528 
C 236.16 174.528 236.16 174.528 236.16 174.528 
z
"/>
  </clipPath>
 </defs>
</svg>
