<?xml version="1.0" encoding="utf-8" standalone="no"?>
<!DOCTYPE svg PUBLIC "-//W3C//DTD SVG 1.1//EN"
  "http://www.w3.org/Graphics/SVG/1.1/DTD/svg11.dtd">
<svg xmlns:xlink="http://www.w3.org/1999/xlink" width="460.8pt" height="345.6pt" viewBox="0 0 460.8 345.6" xmlns="http://www.w3.org/2000/svg" version="1.1">
 <metadata>
  <rdf:RDF xmlns:dc="http://purl.org/dc/elements/1.1/" xmlns:cc="http://creativecommons.org/ns#" xmlns:rdf="http://www.w3.org/1999/02/22-rdf-syntax-ns#">
   <cc:Work>
    <dc:type rdf:resource="http://purl.org/dc/dcmitype/StillImage"/>
    <dc:date>2025-03-14T09:44:50.622933</dc:date>
    <dc:format>image/svg+xml</dc:format>
    <dc:creator>
     <cc:Agent>
      <dc:title>Matplotlib v3.9.2, https://matplotlib.org/</dc:title>
     </cc:Agent>
    </dc:creator>
   </cc:Work>
  </rdf:RDF>
 </metadata>
 <defs>
  <style type="text/css">*{stroke-linejoin: round; stroke-linecap: butt}</style>
 </defs>
 <g id="figure_1">
  <g id="patch_1">
   <path d="M 0 345.6 
L 460.8 345.6 
L 460.8 0 
L 0 0 
L 0 345.6 
z
" style="fill: none"/>
  </g>
  <g id="axes_1">
   <g id="patch_2">
    <path d="M 369.216 174.528 
C 369.216 157.055246 365.774248 139.752393 359.087715 123.609673 
C 352.401182 107.466954 342.599903 92.798303 330.2448 80.4432 
C 317.889697 68.088097 303.221046 58.286818 287.078327 51.600285 
C 270.935607 44.913752 253.632754 41.472 236.16 41.472 
C 218.687246 41.472 201.384393 44.913752 185.241673 51.600285 
C 169.098954 58.286818 154.430303 68.088097 142.0752 80.4432 
C 129.720097 92.798303 119.918818 107.466954 113.232285 123.609673 
C 106.545752 139.752393 103.104 157.055246 103.104 174.528 
C 103.104 192.000754 106.545752 209.303607 113.232285 225.446327 
C 119.918818 241.589046 129.720097 256.257697 142.0752 268.6128 
C 154.430303 280.967903 169.098954 290.769182 185.241673 297.455715 
C 201.384393 304.142248 218.687246 307.584 236.16 307.584 
C 253.632754 307.584 270.935607 304.142248 287.078327 297.455715 
C 303.221046 290.769182 317.889697 280.967903 330.2448 268.6128 
C 342.599903 256.257697 352.401182 241.589046 359.087715 225.446327 
C 365.774248 209.303607 369.216 192.000754 369.216 174.528 
M 236.16 174.528 
C 236.16 174.528 236.16 174.528 236.16 174.528 
C 236.16 174.528 236.16 174.528 236.16 174.528 
C 236.16 174.528 236.16 174.528 236.16 174.528 
C 236.16 174.528 236.16 174.528 236.16 174.528 
C 236.16 174.528 236.16 174.528 236.16 174.528 
C 236.16 174.528 236.16 174.528 236.16 174.528 
C 236.16 174.528 236.16 174.528 236.16 174.528 
C 236.16 174.528 236.16 174.528 236.16 174.528 
C 236.16 174.528 236.16 174.528 236.16 174.528 
C 236.16 174.528 236.16 174.528 236.16 174.528 
C 236.16 174.528 236.16 174.528 236.16 174.528 
C 236.16 174.528 236.16 174.528 236.16 174.528 
C 236.16 174.528 236.16 174.528 236.16 174.528 
C 236.16 174.528 236.16 174.528 236.16 174.528 
C 236.16 174.528 236.16 174.528 236.16 174.528 
C 236.16 174.528 236.16 174.528 236.16 174.528 
L 236.16 174.528 
z
" style="fill: none"/>
   </g>
   <g id="matplotlib.axis_1">
    <g id="xtick_1">
     <g id="line2d_1">
      <path d="M 236.16 174.528 
L 369.216 174.528 
" clip-path="url(#p1f23c361fd)" style="fill: none; stroke: #b0b0b0; stroke-width: 0.8; stroke-linecap: square"/>
     </g>
     <g id="text_1">
      <!-- 0° -->
      <g transform="translate(377.53475 177.287375) scale(0.1 -0.1)">
       <defs>
        <path id="DejaVuSans-30" d="M 2034 4250 
Q 1547 4250 1301 3770 
Q 1056 3291 1056 2328 
Q 1056 1369 1301 889 
Q 1547 409 2034 409 
Q 2525 409 2770 889 
Q 3016 1369 3016 2328 
Q 3016 3291 2770 3770 
Q 2525 4250 2034 4250 
z
M 2034 4750 
Q 2819 4750 3233 4129 
Q 3647 3509 3647 2328 
Q 3647 1150 3233 529 
Q 2819 -91 2034 -91 
Q 1250 -91 836 529 
Q 422 1150 422 2328 
Q 422 3509 836 4129 
Q 1250 4750 2034 4750 
z
" transform="scale(0.015625)"/>
        <path id="DejaVuSans-b0" d="M 1600 4347 
Q 1350 4347 1178 4173 
Q 1006 4000 1006 3750 
Q 1006 3503 1178 3333 
Q 1350 3163 1600 3163 
Q 1850 3163 2022 3333 
Q 2194 3503 2194 3750 
Q 2194 3997 2020 4172 
Q 1847 4347 1600 4347 
z
M 1600 4750 
Q 1800 4750 1984 4673 
Q 2169 4597 2303 4453 
Q 2447 4313 2519 4134 
Q 2591 3956 2591 3750 
Q 2591 3338 2302 3052 
Q 2013 2766 1594 2766 
Q 1172 2766 890 3047 
Q 609 3328 609 3750 
Q 609 4169 896 4459 
Q 1184 4750 1600 4750 
z
" transform="scale(0.015625)"/>
       </defs>
       <use xlink:href="#DejaVuSans-30"/>
       <use xlink:href="#DejaVuSans-b0" x="63.623047"/>
      </g>
     </g>
    </g>
    <g id="xtick_2">
     <g id="line2d_2">
      <path d="M 236.16 174.528 
L 330.2448 80.4432 
" clip-path="url(#p1f23c361fd)" style="fill: none; stroke: #b0b0b0; stroke-width: 0.8; stroke-linecap: square"/>
     </g>
     <g id="text_2">
      <!-- 45° -->
      <g transform="translate(331.281795 73.30308) scale(0.1 -0.1)">
       <defs>
        <path id="DejaVuSans-34" d="M 2419 4116 
L 825 1625 
L 2419 1625 
L 2419 4116 
z
M 2253 4666 
L 3047 4666 
L 3047 1625 
L 3713 1625 
L 3713 1100 
L 3047 1100 
L 3047 0 
L 2419 0 
L 2419 1100 
L 313 1100 
L 313 1709 
L 2253 4666 
z
" transform="scale(0.015625)"/>
        <path id="DejaVuSans-35" d="M 691 4666 
L 3169 4666 
L 3169 4134 
L 1269 4134 
L 1269 2991 
Q 1406 3038 1543 3061 
Q 1681 3084 1819 3084 
Q 2600 3084 3056 2656 
Q 3513 2228 3513 1497 
Q 3513 744 3044 326 
Q 2575 -91 1722 -91 
Q 1428 -91 1123 -41 
Q 819 9 494 109 
L 494 744 
Q 775 591 1075 516 
Q 1375 441 1709 441 
Q 2250 441 2565 725 
Q 2881 1009 2881 1497 
Q 2881 1984 2565 2268 
Q 2250 2553 1709 2553 
Q 1456 2553 1204 2497 
Q 953 2441 691 2322 
L 691 4666 
z
" transform="scale(0.015625)"/>
       </defs>
       <use xlink:href="#DejaVuSans-34"/>
       <use xlink:href="#DejaVuSans-35" x="63.623047"/>
       <use xlink:href="#DejaVuSans-b0" x="127.246094"/>
      </g>
     </g>
    </g>
    <g id="xtick_3">
     <g id="line2d_3">
      <path d="M 236.16 174.528 
L 236.16 41.472 
" clip-path="url(#p1f23c361fd)" style="fill: none; stroke: #b0b0b0; stroke-width: 0.8; stroke-linecap: square"/>
     </g>
     <g id="text_3">
      <!-- 90° -->
      <g transform="translate(227.2975 30.231375) scale(0.1 -0.1)">
       <defs>
        <path id="DejaVuSans-39" d="M 703 97 
L 703 672 
Q 941 559 1184 500 
Q 1428 441 1663 441 
Q 2288 441 2617 861 
Q 2947 1281 2994 2138 
Q 2813 1869 2534 1725 
Q 2256 1581 1919 1581 
Q 1219 1581 811 2004 
Q 403 2428 403 3163 
Q 403 3881 828 4315 
Q 1253 4750 1959 4750 
Q 2769 4750 3195 4129 
Q 3622 3509 3622 2328 
Q 3622 1225 3098 567 
Q 2575 -91 1691 -91 
Q 1453 -91 1209 -44 
Q 966 3 703 97 
z
M 1959 2075 
Q 2384 2075 2632 2365 
Q 2881 2656 2881 3163 
Q 2881 3666 2632 3958 
Q 2384 4250 1959 4250 
Q 1534 4250 1286 3958 
Q 1038 3666 1038 3163 
Q 1038 2656 1286 2365 
Q 1534 2075 1959 2075 
z
" transform="scale(0.015625)"/>
       </defs>
       <use xlink:href="#DejaVuSans-39"/>
       <use xlink:href="#DejaVuSans-30" x="63.623047"/>
       <use xlink:href="#DejaVuSans-b0" x="127.246094"/>
      </g>
     </g>
    </g>
    <g id="xtick_4">
     <g id="line2d_4">
      <path d="M 236.16 174.528 
L 142.0752 80.4432 
" clip-path="url(#p1f23c361fd)" style="fill: none; stroke: #b0b0b0; stroke-width: 0.8; stroke-linecap: square"/>
     </g>
     <g id="text_4">
      <!-- 135° -->
      <g transform="translate(120.131955 73.30308) scale(0.1 -0.1)">
       <defs>
        <path id="DejaVuSans-31" d="M 794 531 
L 1825 531 
L 1825 4091 
L 703 3866 
L 703 4441 
L 1819 4666 
L 2450 4666 
L 2450 531 
L 3481 531 
L 3481 0 
L 794 0 
L 794 531 
z
" transform="scale(0.015625)"/>
        <path id="DejaVuSans-33" d="M 2597 2516 
Q 3050 2419 3304 2112 
Q 3559 1806 3559 1356 
Q 3559 666 3084 287 
Q 2609 -91 1734 -91 
Q 1441 -91 1130 -33 
Q 819 25 488 141 
L 488 750 
Q 750 597 1062 519 
Q 1375 441 1716 441 
Q 2309 441 2620 675 
Q 2931 909 2931 1356 
Q 2931 1769 2642 2001 
Q 2353 2234 1838 2234 
L 1294 2234 
L 1294 2753 
L 1863 2753 
Q 2328 2753 2575 2939 
Q 2822 3125 2822 3475 
Q 2822 3834 2567 4026 
Q 2313 4219 1838 4219 
Q 1578 4219 1281 4162 
Q 984 4106 628 3988 
L 628 4550 
Q 988 4650 1302 4700 
Q 1616 4750 1894 4750 
Q 2613 4750 3031 4423 
Q 3450 4097 3450 3541 
Q 3450 3153 3228 2886 
Q 3006 2619 2597 2516 
z
" transform="scale(0.015625)"/>
       </defs>
       <use xlink:href="#DejaVuSans-31"/>
       <use xlink:href="#DejaVuSans-33" x="63.623047"/>
       <use xlink:href="#DejaVuSans-35" x="127.246094"/>
       <use xlink:href="#DejaVuSans-b0" x="190.869141"/>
      </g>
     </g>
    </g>
    <g id="xtick_5">
     <g id="line2d_5">
      <path d="M 236.16 174.528 
L 103.104 174.528 
" clip-path="url(#p1f23c361fd)" style="fill: none; stroke: #b0b0b0; stroke-width: 0.8; stroke-linecap: square"/>
     </g>
     <g id="text_5">
      <!-- 180° -->
      <g transform="translate(77.06025 177.287375) scale(0.1 -0.1)">
       <defs>
        <path id="DejaVuSans-38" d="M 2034 2216 
Q 1584 2216 1326 1975 
Q 1069 1734 1069 1313 
Q 1069 891 1326 650 
Q 1584 409 2034 409 
Q 2484 409 2743 651 
Q 3003 894 3003 1313 
Q 3003 1734 2745 1975 
Q 2488 2216 2034 2216 
z
M 1403 2484 
Q 997 2584 770 2862 
Q 544 3141 544 3541 
Q 544 4100 942 4425 
Q 1341 4750 2034 4750 
Q 2731 4750 3128 4425 
Q 3525 4100 3525 3541 
Q 3525 3141 3298 2862 
Q 3072 2584 2669 2484 
Q 3125 2378 3379 2068 
Q 3634 1759 3634 1313 
Q 3634 634 3220 271 
Q 2806 -91 2034 -91 
Q 1263 -91 848 271 
Q 434 634 434 1313 
Q 434 1759 690 2068 
Q 947 2378 1403 2484 
z
M 1172 3481 
Q 1172 3119 1398 2916 
Q 1625 2713 2034 2713 
Q 2441 2713 2670 2916 
Q 2900 3119 2900 3481 
Q 2900 3844 2670 4047 
Q 2441 4250 2034 4250 
Q 1625 4250 1398 4047 
Q 1172 3844 1172 3481 
z
" transform="scale(0.015625)"/>
       </defs>
       <use xlink:href="#DejaVuSans-31"/>
       <use xlink:href="#DejaVuSans-38" x="63.623047"/>
       <use xlink:href="#DejaVuSans-30" x="127.246094"/>
       <use xlink:href="#DejaVuSans-b0" x="190.869141"/>
      </g>
     </g>
    </g>
    <g id="xtick_6">
     <g id="line2d_6">
      <path d="M 236.16 174.528 
L 142.0752 268.6128 
" clip-path="url(#p1f23c361fd)" style="fill: none; stroke: #b0b0b0; stroke-width: 0.8; stroke-linecap: square"/>
     </g>
     <g id="text_6">
      <!-- 225° -->
      <g transform="translate(120.131955 281.27167) scale(0.1 -0.1)">
       <defs>
        <path id="DejaVuSans-32" d="M 1228 531 
L 3431 531 
L 3431 0 
L 469 0 
L 469 531 
Q 828 903 1448 1529 
Q 2069 2156 2228 2338 
Q 2531 2678 2651 2914 
Q 2772 3150 2772 3378 
Q 2772 3750 2511 3984 
Q 2250 4219 1831 4219 
Q 1534 4219 1204 4116 
Q 875 4013 500 3803 
L 500 4441 
Q 881 4594 1212 4672 
Q 1544 4750 1819 4750 
Q 2544 4750 2975 4387 
Q 3406 4025 3406 3419 
Q 3406 3131 3298 2873 
Q 3191 2616 2906 2266 
Q 2828 2175 2409 1742 
Q 1991 1309 1228 531 
z
" transform="scale(0.015625)"/>
       </defs>
       <use xlink:href="#DejaVuSans-32"/>
       <use xlink:href="#DejaVuSans-32" x="63.623047"/>
       <use xlink:href="#DejaVuSans-35" x="127.246094"/>
       <use xlink:href="#DejaVuSans-b0" x="190.869141"/>
      </g>
     </g>
    </g>
    <g id="xtick_7">
     <g id="line2d_7">
      <path d="M 236.16 174.528 
L 236.16 307.584 
" clip-path="url(#p1f23c361fd)" style="fill: none; stroke: #b0b0b0; stroke-width: 0.8; stroke-linecap: square"/>
     </g>
     <g id="text_7">
      <!-- 270° -->
      <g transform="translate(224.11625 324.343375) scale(0.1 -0.1)">
       <defs>
        <path id="DejaVuSans-37" d="M 525 4666 
L 3525 4666 
L 3525 4397 
L 1831 0 
L 1172 0 
L 2766 4134 
L 525 4134 
L 525 4666 
z
" transform="scale(0.015625)"/>
       </defs>
       <use xlink:href="#DejaVuSans-32"/>
       <use xlink:href="#DejaVuSans-37" x="63.623047"/>
       <use xlink:href="#DejaVuSans-30" x="127.246094"/>
       <use xlink:href="#DejaVuSans-b0" x="190.869141"/>
      </g>
     </g>
    </g>
    <g id="xtick_8">
     <g id="line2d_8">
      <path d="M 236.16 174.528 
L 330.2448 268.6128 
" clip-path="url(#p1f23c361fd)" style="fill: none; stroke: #b0b0b0; stroke-width: 0.8; stroke-linecap: square"/>
     </g>
     <g id="text_8">
      <!-- 315° -->
      <g transform="translate(328.100545 281.27167) scale(0.1 -0.1)">
       <use xlink:href="#DejaVuSans-33"/>
       <use xlink:href="#DejaVuSans-31" x="63.623047"/>
       <use xlink:href="#DejaVuSans-35" x="127.246094"/>
       <use xlink:href="#DejaVuSans-b0" x="190.869141"/>
      </g>
     </g>
    </g>
   </g>
   <g id="matplotlib.axis_2">
    <g id="ytick_1">
     <g id="line2d_9">
      <path d="M 262.764885 174.528 
C 262.764885 171.034279 262.076698 167.574529 260.739708 164.346751 
C 259.402719 161.118974 257.442928 158.18594 254.972494 155.715506 
C 252.50206 153.245072 249.569026 151.285281 246.341249 149.948292 
C 243.113471 148.611302 239.653721 147.923115 236.16 147.923115 
C 232.666279 147.923115 229.206529 148.611302 225.978751 149.948292 
C 222.750974 151.285281 219.81794 153.245072 217.347506 155.715506 
C 214.877072 158.18594 212.917281 161.118974 211.580292 164.346751 
C 210.243302 167.574529 209.555115 171.034279 209.555115 174.528 
C 209.555115 178.021721 210.243302 181.481471 211.580292 184.709249 
C 212.917281 187.937026 214.877072 190.87006 217.347506 193.340494 
C 219.81794 195.810928 222.750974 197.770719 225.978751 199.107708 
C 229.206529 200.444698 232.666279 201.132885 236.16 201.132885 
C 239.653721 201.132885 243.113471 200.444698 246.341249 199.107708 
C 249.569026 197.770719 252.50206 195.810928 254.972494 193.340494 
C 257.442928 190.87006 259.402719 187.937026 260.739708 184.709249 
C 262.076698 181.481471 262.764885 178.021721 262.764885 174.528 
" clip-path="url(#p1f23c361fd)" style="fill: none; stroke: #b0b0b0; stroke-width: 0.8; stroke-linecap: square"/>
     </g>
     <g id="text_9">
      <!-- 0.2 -->
      <g transform="translate(260.739708 182.629561) scale(0.1 -0.1)">
       <defs>
        <path id="DejaVuSans-2e" d="M 684 794 
L 1344 794 
L 1344 0 
L 684 0 
L 684 794 
z
" transform="scale(0.015625)"/>
       </defs>
       <use xlink:href="#DejaVuSans-30"/>
       <use xlink:href="#DejaVuSans-2e" x="63.623047"/>
       <use xlink:href="#DejaVuSans-32" x="95.410156"/>
      </g>
     </g>
    </g>
    <g id="ytick_2">
     <g id="line2d_10">
      <path d="M 289.369769 174.528 
C 289.369769 167.540557 287.993395 160.621058 285.319417 154.165503 
C 282.645438 147.709947 278.725857 141.84388 273.784989 136.903011 
C 268.84412 131.962143 262.978053 128.042562 256.522497 125.368583 
C 250.066942 122.694605 243.147443 121.318231 236.16 121.318231 
C 229.172557 121.318231 222.253058 122.694605 215.797503 125.368583 
C 209.341947 128.042562 203.47588 131.962143 198.535011 136.903011 
C 193.594143 141.84388 189.674562 147.709947 187.000583 154.165503 
C 184.326605 160.621058 182.950231 167.540557 182.950231 174.528 
C 182.950231 181.515443 184.326605 188.434942 187.000583 194.890497 
C 189.674562 201.346053 193.594143 207.21212 198.535011 212.152989 
C 203.47588 217.093857 209.341947 221.013438 215.797503 223.687417 
C 222.253058 226.361395 229.172557 227.737769 236.16 227.737769 
C 243.147443 227.737769 250.066942 226.361395 256.522497 223.687417 
C 262.978053 221.013438 268.84412 217.093857 273.784989 212.152989 
C 278.725857 207.21212 282.645438 201.346053 285.319417 194.890497 
C 287.993395 188.434942 289.369769 181.515443 289.369769 174.528 
" clip-path="url(#p1f23c361fd)" style="fill: none; stroke: #b0b0b0; stroke-width: 0.8; stroke-linecap: square"/>
     </g>
     <g id="text_10">
      <!-- 0.4 -->
      <g transform="translate(285.319417 192.81081) scale(0.1 -0.1)">
       <use xlink:href="#DejaVuSans-30"/>
       <use xlink:href="#DejaVuSans-2e" x="63.623047"/>
       <use xlink:href="#DejaVuSans-34" x="95.410156"/>
      </g>
     </g>
    </g>
    <g id="ytick_3">
     <g id="line2d_11">
      <path d="M 315.974654 174.528 
C 315.974654 164.046836 313.910093 153.667587 309.899125 143.984254 
C 305.888157 134.300921 300.008785 125.501819 292.597483 118.090517 
C 285.186181 110.679215 276.387079 104.799843 266.703746 100.788875 
C 257.020413 96.777907 246.641164 94.713346 236.16 94.713346 
C 225.678836 94.713346 215.299587 96.777907 205.616254 100.788875 
C 195.932921 104.799843 187.133819 110.679215 179.722517 118.090517 
C 172.311215 125.501819 166.431843 134.300921 162.420875 143.984254 
C 158.409907 153.667587 156.345346 164.046836 156.345346 174.528 
C 156.345346 185.009164 158.409907 195.388413 162.420875 205.071746 
C 166.431843 214.755079 172.311215 223.554181 179.722517 230.965483 
C 187.133819 238.376785 195.932921 244.256157 205.616254 248.267125 
C 215.299587 252.278093 225.678836 254.342654 236.16 254.342654 
C 246.641164 254.342654 257.020413 252.278093 266.703746 248.267125 
C 276.387079 244.256157 285.186181 238.376785 292.597483 230.965483 
C 300.008785 223.554181 305.888157 214.755079 309.899125 205.071746 
C 313.910093 195.388413 315.974654 185.009164 315.974654 174.528 
" clip-path="url(#p1f23c361fd)" style="fill: none; stroke: #b0b0b0; stroke-width: 0.8; stroke-linecap: square"/>
     </g>
     <g id="text_11">
      <!-- 0.6 -->
      <g transform="translate(309.899125 202.992058) scale(0.1 -0.1)">
       <defs>
        <path id="DejaVuSans-36" d="M 2113 2584 
Q 1688 2584 1439 2293 
Q 1191 2003 1191 1497 
Q 1191 994 1439 701 
Q 1688 409 2113 409 
Q 2538 409 2786 701 
Q 3034 994 3034 1497 
Q 3034 2003 2786 2293 
Q 2538 2584 2113 2584 
z
M 3366 4563 
L 3366 3988 
Q 3128 4100 2886 4159 
Q 2644 4219 2406 4219 
Q 1781 4219 1451 3797 
Q 1122 3375 1075 2522 
Q 1259 2794 1537 2939 
Q 1816 3084 2150 3084 
Q 2853 3084 3261 2657 
Q 3669 2231 3669 1497 
Q 3669 778 3244 343 
Q 2819 -91 2113 -91 
Q 1303 -91 875 529 
Q 447 1150 447 2328 
Q 447 3434 972 4092 
Q 1497 4750 2381 4750 
Q 2619 4750 2861 4703 
Q 3103 4656 3366 4563 
z
" transform="scale(0.015625)"/>
       </defs>
       <use xlink:href="#DejaVuSans-30"/>
       <use xlink:href="#DejaVuSans-2e" x="63.623047"/>
       <use xlink:href="#DejaVuSans-36" x="95.410156"/>
      </g>
     </g>
    </g>
    <g id="ytick_4">
     <g id="line2d_12">
      <path d="M 342.579539 174.528 
C 342.579539 160.553114 339.826791 146.714117 334.478834 133.803006 
C 329.130876 120.891895 321.291714 109.159759 311.409977 99.278023 
C 301.528241 89.396286 289.796105 81.557124 276.884994 76.209166 
C 263.973883 70.861209 250.134886 68.108461 236.16 68.108461 
C 222.185114 68.108461 208.346117 70.861209 195.435006 76.209166 
C 182.523895 81.557124 170.791759 89.396286 160.910023 99.278023 
C 151.028286 109.159759 143.189124 120.891895 137.841166 133.803006 
C 132.493209 146.714117 129.740461 160.553114 129.740461 174.528 
C 129.740461 188.502886 132.493209 202.341883 137.841166 215.252994 
C 143.189124 228.164105 151.028286 239.896241 160.910023 249.777977 
C 170.791759 259.659714 182.523895 267.498876 195.435006 272.846834 
C 208.346117 278.194791 222.185114 280.947539 236.16 280.947539 
C 250.134886 280.947539 263.973883 278.194791 276.884994 272.846834 
C 289.796105 267.498876 301.528241 259.659714 311.409977 249.777977 
C 321.291714 239.896241 329.130876 228.164105 334.478834 215.252994 
C 339.826791 202.341883 342.579539 188.502886 342.579539 174.528 
" clip-path="url(#p1f23c361fd)" style="fill: none; stroke: #b0b0b0; stroke-width: 0.8; stroke-linecap: square"/>
     </g>
     <g id="text_12">
      <!-- 0.8 -->
      <g transform="translate(334.478834 213.173307) scale(0.1 -0.1)">
       <use xlink:href="#DejaVuSans-30"/>
       <use xlink:href="#DejaVuSans-2e" x="63.623047"/>
       <use xlink:href="#DejaVuSans-38" x="95.410156"/>
      </g>
     </g>
    </g>
    <g id="ytick_5">
     <g id="line2d_13">
      <path d="M 369.184423 174.528 
C 369.184423 157.059393 365.743489 139.760646 359.058542 123.621757 
C 352.373595 107.482868 342.574642 92.817699 330.222472 80.465528 
C 317.870301 68.113358 303.205132 58.314405 287.066243 51.629458 
C 270.927354 44.944511 253.628607 41.503577 236.16 41.503577 
C 218.691393 41.503577 201.392646 44.944511 185.253757 51.629458 
C 169.114868 58.314405 154.449699 68.113358 142.097528 80.465528 
C 129.745358 92.817699 119.946405 107.482868 113.261458 123.621757 
C 106.576511 139.760646 103.135577 157.059393 103.135577 174.528 
C 103.135577 191.996607 106.576511 209.295354 113.261458 225.434243 
C 119.946405 241.573132 129.745358 256.238301 142.097528 268.590472 
C 154.449699 280.942642 169.114868 290.741595 185.253757 297.426542 
C 201.392646 304.111489 218.691393 307.552423 236.16 307.552423 
C 253.628607 307.552423 270.927354 304.111489 287.066243 297.426542 
C 303.205132 290.741595 317.870301 280.942642 330.222472 268.590472 
C 342.574642 256.238301 352.373595 241.573132 359.058542 225.434243 
C 365.743489 209.295354 369.184423 191.996607 369.184423 174.528 
" clip-path="url(#p1f23c361fd)" style="fill: none; stroke: #b0b0b0; stroke-width: 0.8; stroke-linecap: square"/>
     </g>
     <g id="text_13">
      <!-- 1.0 -->
      <g transform="translate(359.058542 223.354555) scale(0.1 -0.1)">
       <use xlink:href="#DejaVuSans-31"/>
       <use xlink:href="#DejaVuSans-2e" x="63.623047"/>
       <use xlink:href="#DejaVuSans-30" x="95.410156"/>
      </g>
     </g>
    </g>
   </g>
   <g id="line2d_14">
    <path d="M 368.885489 174.528 
L 368.78261 169.896716 
L 368.518228 165.272611 
L 368.092826 160.661301 
L 367.507079 156.068372 
L 366.761853 151.49937 
L 365.858206 146.959795 
L 364.797376 142.4551 
L 363.580787 137.990677 
L 362.210042 133.571859 
L 360.686918 129.203908 
L 359.013367 124.892018 
L 357.191509 120.6413 
L 355.223629 116.456788 
L 353.112175 112.343426 
L 350.859753 108.306067 
L 348.469124 104.34947 
L 345.943203 100.478295 
L 343.285049 96.697096 
L 340.497867 93.010324 
L 337.585005 89.422316 
L 334.549945 85.937296 
L 331.396304 82.559371 
L 328.12783 79.292525 
L 324.748396 76.140618 
L 321.262002 73.107384 
L 317.672762 70.196422 
L 313.984912 67.411198 
L 310.202795 64.755042 
L 306.330867 62.231138 
L 302.373688 59.842529 
L 298.335916 57.592108 
L 294.222312 55.482618 
L 290.037726 53.516646 
L 285.787098 51.696621 
L 281.475455 50.024811 
L 277.107901 48.503319 
L 272.689619 47.134078 
L 268.225861 45.918854 
L 263.721947 44.859235 
L 259.183255 43.956631 
L 254.615222 43.212273 
L 250.023332 42.627208 
L 245.413115 42.202297 
L 240.790138 41.938209 
L 236.16 41.835426 
L 231.528327 41.894231 
L 226.900761 42.114714 
L 222.282958 42.496767 
L 217.680578 43.040082 
L 213.099278 43.744149 
L 208.544706 44.608256 
L 204.022491 45.631492 
L 199.538238 46.812738 
L 195.097517 48.150674 
L 190.70586 49.643777 
L 186.368746 51.290323 
L 182.0916 53.088385 
L 177.879778 55.035837 
L 173.738566 57.130356 
L 169.673165 59.369424 
L 165.688689 61.750327 
L 161.790152 64.270166 
L 157.982464 66.925854 
L 154.270422 69.71412 
L 150.658699 72.631518 
L 147.151844 75.674428 
L 143.754267 78.839062 
L 140.470238 82.121471 
L 137.303877 85.517547 
L 134.25915 89.023034 
L 131.339859 92.633531 
L 128.549643 96.3445 
L 125.891967 100.151273 
L 123.370117 104.049059 
L 120.987201 108.032953 
L 118.746137 112.097942 
L 116.649658 116.238912 
L 114.7003 120.450658 
L 112.900407 124.727892 
L 111.25212 129.06525 
L 109.757384 133.4573 
L 108.41794 137.898554 
L 107.235325 142.383468 
L 106.210873 146.90646 
L 105.345714 151.461912 
L 104.640771 156.044178 
L 104.096764 160.647595 
L 103.71421 165.266488 
L 103.493422 169.895181 
L 103.434511 174.528 
L 103.53739 179.159284 
L 103.801772 183.783389 
L 104.227174 188.394699 
L 104.812921 192.987628 
L 105.558147 197.55663 
L 106.461794 202.096205 
L 107.522624 206.6009 
L 108.739213 211.065323 
L 110.109958 215.484141 
L 111.633082 219.852092 
L 113.306633 224.163982 
L 115.128491 228.4147 
L 117.096371 232.599212 
L 119.207825 236.712574 
L 121.460247 240.749933 
L 123.850876 244.70653 
L 126.376797 248.577705 
L 129.034951 252.358904 
L 131.822133 256.045676 
L 134.734995 259.633684 
L 137.770055 263.118704 
L 140.923696 266.496629 
L 144.19217 269.763475 
L 147.571604 272.915382 
L 151.057998 275.948616 
L 154.647238 278.859578 
L 158.335088 281.644802 
L 162.117205 284.300958 
L 165.989133 286.824862 
L 169.946312 289.213471 
L 173.984084 291.463892 
L 178.097688 293.573382 
L 182.282274 295.539354 
L 186.532902 297.359379 
L 190.844545 299.031189 
L 195.212099 300.552681 
L 199.630381 301.921922 
L 204.094139 303.137146 
L 208.598053 304.196765 
L 213.136745 305.099369 
L 217.704778 305.843727 
L 222.296668 306.428792 
L 226.906885 306.853703 
L 231.529862 307.117791 
L 236.16 307.220574 
L 240.791673 307.161769 
L 245.419239 306.941286 
L 250.037042 306.559233 
L 254.639422 306.015918 
L 259.220722 305.311851 
L 263.775294 304.447744 
L 268.297509 303.424508 
L 272.781762 302.243262 
L 277.222483 300.905326 
L 281.61414 299.412223 
L 285.951254 297.765677 
L 290.2284 295.967615 
L 294.440222 294.020163 
L 298.581434 291.925644 
L 302.646835 289.686576 
L 306.631311 287.305673 
L 310.529848 284.785834 
L 314.337536 282.130146 
L 318.049578 279.34188 
L 321.661301 276.424482 
L 325.168156 273.381572 
L 328.565733 270.216938 
L 331.849762 266.934529 
L 335.016123 263.538453 
L 338.06085 260.032966 
L 340.980141 256.422469 
L 343.770357 252.7115 
L 346.428033 248.904727 
L 348.949883 245.006941 
L 351.332799 241.023047 
L 353.573863 236.958058 
L 355.670342 232.817088 
L 357.6197 228.605342 
L 359.419593 224.328108 
L 361.06788 219.99075 
L 362.562616 215.5987 
L 363.90206 211.157446 
L 365.084675 206.672532 
L 366.109127 202.14954 
L 366.974286 197.594088 
L 367.679229 193.011822 
L 368.223236 188.408405 
L 368.60579 183.789512 
L 368.826578 179.160819 
L 368.885489 174.528 
L 368.885489 174.528 
" clip-path="url(#p1f23c361fd)" style="fill: none; stroke: #1f77b4; stroke-width: 1.5; stroke-linecap: square"/>
   </g>
   <g id="line2d_15">
    <path d="M 369.140813 174.528 
L 369.063451 169.886909 
L 368.824091 165.251223 
L 368.423 160.626599 
L 367.860641 156.018682 
L 367.137676 151.433102 
L 366.254965 146.875461 
L 365.213564 142.351333 
L 364.014723 137.866248 
L 362.659888 133.425695 
L 361.150696 129.035107 
L 359.488976 124.699859 
L 357.676745 120.425259 
L 355.716206 116.216542 
L 353.609745 112.078863 
L 351.35993 108.017289 
L 348.969505 104.036798 
L 346.44139 100.142263 
L 343.778673 96.338458 
L 340.98461 92.630039 
L 338.06262 89.021549 
L 335.01628 85.517405 
L 331.84932 82.121897 
L 328.56562 78.839179 
L 325.169202 75.673267 
L 321.664228 72.628029 
L 318.054995 69.707187 
L 314.345925 66.914306 
L 310.541565 64.252795 
L 306.646576 61.725898 
L 302.665732 59.336694 
L 298.603909 57.088088 
L 294.466083 54.982814 
L 290.25732 53.023429 
L 285.982774 51.212307 
L 281.647675 49.551641 
L 277.257326 48.043437 
L 272.817096 46.689514 
L 268.332413 45.491501 
L 263.808755 44.450834 
L 259.251648 43.568757 
L 254.666653 42.846321 
L 250.059365 42.284379 
L 245.435401 41.883588 
L 240.800397 41.64441 
L 236.16 41.567109 
L 231.519859 41.651752 
L 226.885622 41.898209 
L 222.262924 42.306154 
L 217.657387 42.875066 
L 213.074607 43.604229 
L 208.52015 44.492731 
L 203.999548 45.539472 
L 199.518286 46.743158 
L 195.081802 48.102307 
L 190.695477 49.61525 
L 186.36463 51.280134 
L 182.094511 53.094923 
L 177.890295 55.0574 
L 173.757078 57.165173 
L 169.699868 59.415674 
L 165.72358 61.806166 
L 161.833034 64.333741 
L 158.032943 66.995331 
L 154.327912 69.787703 
L 150.722432 72.707471 
L 147.220875 75.751094 
L 143.827486 78.914883 
L 140.546382 82.195003 
L 137.381546 85.587481 
L 134.33682 89.088207 
L 131.415904 92.692943 
L 128.622348 96.397323 
L 125.959552 100.196859 
L 123.430757 104.086951 
L 121.039045 108.062885 
L 118.787333 112.119846 
L 116.678373 116.252917 
L 114.714741 120.457087 
L 112.898843 124.72726 
L 111.232906 129.058256 
L 109.718975 133.444821 
L 108.358914 137.881628 
L 107.154401 142.363292 
L 106.106927 146.884366 
L 105.21779 151.439355 
L 104.4881 156.022721 
L 103.918773 160.628887 
L 103.510528 165.252245 
L 103.26389 169.887166 
L 103.179187 174.528 
L 103.256549 179.169091 
L 103.495909 183.804777 
L 103.897 188.429401 
L 104.459359 193.037318 
L 105.182324 197.622898 
L 106.065035 202.180539 
L 107.106436 206.704667 
L 108.305277 211.189752 
L 109.660112 215.630305 
L 111.169304 220.020893 
L 112.831024 224.356141 
L 114.643255 228.630741 
L 116.603794 232.839458 
L 118.710255 236.977137 
L 120.96007 241.038711 
L 123.350495 245.019202 
L 125.87861 248.913737 
L 128.541327 252.717542 
L 131.33539 256.425961 
L 134.25738 260.034451 
L 137.30372 263.538595 
L 140.47068 266.934103 
L 143.75438 270.216821 
L 147.150798 273.382733 
L 150.655772 276.427971 
L 154.265005 279.348813 
L 157.974075 282.141694 
L 161.778435 284.803205 
L 165.673424 287.330102 
L 169.654268 289.719306 
L 173.716091 291.967912 
L 177.853917 294.073186 
L 182.06268 296.032571 
L 186.337226 297.843693 
L 190.672325 299.504359 
L 195.062674 301.012563 
L 199.502904 302.366486 
L 203.987587 303.564499 
L 208.511245 304.605166 
L 213.068352 305.487243 
L 217.653347 306.209679 
L 222.260635 306.771621 
L 226.884599 307.172412 
L 231.519603 307.41159 
L 236.16 307.488891 
L 240.800141 307.404248 
L 245.434378 307.157791 
L 250.057076 306.749846 
L 254.662613 306.180934 
L 259.245393 305.451771 
L 263.79985 304.563269 
L 268.320452 303.516528 
L 272.801714 302.312842 
L 277.238198 300.953693 
L 281.624523 299.44075 
L 285.95537 297.775866 
L 290.225489 295.961077 
L 294.429705 293.9986 
L 298.562922 291.890827 
L 302.620132 289.640326 
L 306.59642 287.249834 
L 310.486966 284.722259 
L 314.287057 282.060669 
L 317.992088 279.268297 
L 321.597568 276.348529 
L 325.099125 273.304906 
L 328.492514 270.141117 
L 331.773618 266.860997 
L 334.938454 263.468519 
L 337.98318 259.967793 
L 340.904096 256.363057 
L 343.697652 252.658677 
L 346.360448 248.859141 
L 348.889243 244.969049 
L 351.280955 240.993115 
L 353.532667 236.936154 
L 355.641627 232.803083 
L 357.605259 228.598913 
L 359.421157 224.32874 
L 361.087094 219.997744 
L 362.601025 215.611179 
L 363.961086 211.174372 
L 365.165599 206.692708 
L 366.213073 202.171634 
L 367.10221 197.616645 
L 367.8319 193.033279 
L 368.401227 188.427113 
L 368.809472 183.803755 
L 369.05611 179.168834 
L 369.140813 174.528 
L 369.140813 174.528 
" clip-path="url(#p1f23c361fd)" style="fill: none; stroke: #ff7f0e; stroke-width: 1.5; stroke-linecap: square"/>
   </g>
   <g id="line2d_16">
    <path d="M 369.178562 174.528 
L 369.098263 169.885694 
L 368.85596 165.248995 
L 368.451944 160.623556 
L 367.886703 156.015019 
L 367.16092 151.429003 
L 366.275478 146.871101 
L 365.231452 142.346873 
L 364.030113 137.861835 
L 362.672922 133.42146 
L 361.161532 129.031163 
L 359.497785 124.6963 
L 357.683708 120.422159 
L 355.721513 116.213954 
L 353.613593 112.076817 
L 351.362518 108.015795 
L 348.971034 104.035842 
L 346.442059 100.141812 
L 343.778678 96.338454 
L 340.98414 92.630406 
L 338.061857 89.022189 
L 335.015393 85.518204 
L 331.848467 82.122721 
L 328.564943 78.83988 
L 325.168828 75.673682 
L 321.664265 72.627985 
L 318.055532 69.706499 
L 314.347031 66.912784 
L 310.543288 64.250241 
L 306.648941 61.722113 
L 302.668743 59.331477 
L 298.607548 57.081243 
L 294.47031 54.974148 
L 290.262072 53.012756 
L 285.987969 51.19945 
L 281.653209 49.536435 
L 277.263079 48.025732 
L 272.822928 46.669175 
L 268.33817 45.46841 
L 263.814269 44.424894 
L 259.256737 43.539893 
L 254.671128 42.814478 
L 250.063028 42.249525 
L 245.438049 41.845718 
L 240.801824 41.603541 
L 236.16 41.523285 
L 231.518228 41.60504 
L 226.88216 41.848703 
L 222.257439 42.253971 
L 217.649696 42.820346 
L 213.06454 43.547135 
L 208.507549 44.433449 
L 203.984272 45.478204 
L 199.500212 46.680127 
L 195.060827 48.037751 
L 190.671518 49.549422 
L 186.337626 51.213298 
L 182.064426 53.027352 
L 177.857118 54.989376 
L 173.72082 57.096982 
L 169.660567 59.347603 
L 165.681299 61.738501 
L 161.78786 64.266768 
L 157.984988 66.929326 
L 154.277311 69.722938 
L 150.669345 72.644204 
L 147.16548 75.689572 
L 143.769983 78.855337 
L 140.486989 82.137647 
L 137.320496 85.532511 
L 134.274362 89.035799 
L 131.352298 92.643249 
L 128.557864 96.350472 
L 125.894467 100.152959 
L 123.365353 104.046082 
L 120.973607 108.025105 
L 118.722144 112.085185 
L 116.613714 116.22138 
L 114.650888 120.428658 
L 112.836062 124.701895 
L 111.171454 129.03589 
L 109.659097 133.425365 
L 108.300839 137.864975 
L 107.098341 142.349314 
L 106.053075 146.872919 
L 105.166321 151.43028 
L 104.439165 156.015844 
L 103.872501 160.624024 
L 103.467024 165.249203 
L 103.223236 169.885746 
L 103.141438 174.528 
L 103.221737 179.170306 
L 103.46404 183.807005 
L 103.868056 188.432444 
L 104.433297 193.040981 
L 105.15908 197.626997 
L 106.044522 202.184899 
L 107.088548 206.709127 
L 108.289887 211.194165 
L 109.647078 215.63454 
L 111.158468 220.024837 
L 112.822215 224.3597 
L 114.636292 228.633841 
L 116.598487 232.842046 
L 118.706407 236.979183 
L 120.957482 241.040205 
L 123.348966 245.020158 
L 125.877941 248.914188 
L 128.541322 252.717546 
L 131.33586 256.425594 
L 134.258143 260.033811 
L 137.304607 263.537796 
L 140.471533 266.933279 
L 143.755057 270.21612 
L 147.151172 273.382318 
L 150.655735 276.428015 
L 154.264468 279.349501 
L 157.972969 282.143216 
L 161.776712 284.805759 
L 165.671059 287.333887 
L 169.651257 289.724523 
L 173.712452 291.974757 
L 177.84969 294.081852 
L 182.057928 296.043244 
L 186.332031 297.85655 
L 190.666791 299.519565 
L 195.056921 301.030268 
L 199.497072 302.386825 
L 203.98183 303.58759 
L 208.505731 304.631106 
L 213.063263 305.516107 
L 217.648872 306.241522 
L 222.256972 306.806475 
L 226.881951 307.210282 
L 231.518176 307.452459 
L 236.16 307.532715 
L 240.801772 307.45096 
L 245.43784 307.207297 
L 250.062561 306.802029 
L 254.670304 306.235654 
L 259.25546 305.508865 
L 263.812451 304.622551 
L 268.335728 303.577796 
L 272.819788 302.375873 
L 277.259173 301.018249 
L 281.648482 299.506578 
L 285.982374 297.842702 
L 290.255574 296.028648 
L 294.462882 294.066624 
L 298.59918 291.959018 
L 302.659433 289.708397 
L 306.638701 287.317499 
L 310.53214 284.789232 
L 314.335012 282.126674 
L 318.042689 279.333062 
L 321.650655 276.411796 
L 325.15452 273.366428 
L 328.550017 270.200663 
L 331.833011 266.918353 
L 334.999504 263.523489 
L 338.045638 260.020201 
L 340.967702 256.412751 
L 343.762136 252.705528 
L 346.425533 248.903041 
L 348.954647 245.009918 
L 351.346393 241.030895 
L 353.597856 236.970815 
L 355.706286 232.83462 
L 357.669112 228.627342 
L 359.483938 224.354105 
L 361.148546 220.02011 
L 362.660903 215.630635 
L 364.019161 211.191025 
L 365.221659 206.706686 
L 366.266925 202.183081 
L 367.153679 197.62572 
L 367.880835 193.040156 
L 368.447499 188.431976 
L 368.852976 183.806797 
L 369.096764 179.170254 
L 369.178562 174.528 
L 369.178562 174.528 
" clip-path="url(#p1f23c361fd)" style="fill: none; stroke: #2ca02c; stroke-width: 1.5; stroke-linecap: square"/>
   </g>
   <g id="patch_3">
    <path d="M 369.216 174.528 
C 369.216 157.055246 365.774248 139.752393 359.087715 123.609673 
C 352.401182 107.466954 342.599903 92.798303 330.2448 80.4432 
C 317.889697 68.088097 303.221046 58.286818 287.078327 51.600285 
C 270.935607 44.913752 253.632754 41.472 236.16 41.472 
C 218.687246 41.472 201.384393 44.913752 185.241673 51.600285 
C 169.098954 58.286818 154.430303 68.088097 142.0752 80.4432 
C 129.720097 92.798303 119.918818 107.466954 113.232285 123.609673 
C 106.545752 139.752393 103.104 157.055246 103.104 174.528 
C 103.104 192.000754 106.545752 209.303607 113.232285 225.446327 
C 119.918818 241.589046 129.720097 256.257697 142.0752 268.6128 
C 154.430303 280.967903 169.098954 290.769182 185.241673 297.455715 
C 201.384393 304.142248 218.687246 307.584 236.16 307.584 
C 253.632754 307.584 270.935607 304.142248 287.078327 297.455715 
C 303.221046 290.769182 317.889697 280.967903 330.2448 268.6128 
C 342.599903 256.257697 352.401182 241.589046 359.087715 225.446327 
C 365.774248 209.303607 369.216 192.000754 369.216 174.528 
" style="fill: none; stroke: #000000; stroke-width: 0.8; stroke-linejoin: miter; stroke-linecap: square"/>
   </g>
   <g id="text_14">
    <!-- Polarization Pattern -->
    <g transform="translate(177.800625 14.137313) scale(0.12 -0.12)">
     <defs>
      <path id="DejaVuSans-50" d="M 1259 4147 
L 1259 2394 
L 2053 2394 
Q 2494 2394 2734 2622 
Q 2975 2850 2975 3272 
Q 2975 3691 2734 3919 
Q 2494 4147 2053 4147 
L 1259 4147 
z
M 628 4666 
L 2053 4666 
Q 2838 4666 3239 4311 
Q 3641 3956 3641 3272 
Q 3641 2581 3239 2228 
Q 2838 1875 2053 1875 
L 1259 1875 
L 1259 0 
L 628 0 
L 628 4666 
z
" transform="scale(0.015625)"/>
      <path id="DejaVuSans-6f" d="M 1959 3097 
Q 1497 3097 1228 2736 
Q 959 2375 959 1747 
Q 959 1119 1226 758 
Q 1494 397 1959 397 
Q 2419 397 2687 759 
Q 2956 1122 2956 1747 
Q 2956 2369 2687 2733 
Q 2419 3097 1959 3097 
z
M 1959 3584 
Q 2709 3584 3137 3096 
Q 3566 2609 3566 1747 
Q 3566 888 3137 398 
Q 2709 -91 1959 -91 
Q 1206 -91 779 398 
Q 353 888 353 1747 
Q 353 2609 779 3096 
Q 1206 3584 1959 3584 
z
" transform="scale(0.015625)"/>
      <path id="DejaVuSans-6c" d="M 603 4863 
L 1178 4863 
L 1178 0 
L 603 0 
L 603 4863 
z
" transform="scale(0.015625)"/>
      <path id="DejaVuSans-61" d="M 2194 1759 
Q 1497 1759 1228 1600 
Q 959 1441 959 1056 
Q 959 750 1161 570 
Q 1363 391 1709 391 
Q 2188 391 2477 730 
Q 2766 1069 2766 1631 
L 2766 1759 
L 2194 1759 
z
M 3341 1997 
L 3341 0 
L 2766 0 
L 2766 531 
Q 2569 213 2275 61 
Q 1981 -91 1556 -91 
Q 1019 -91 701 211 
Q 384 513 384 1019 
Q 384 1609 779 1909 
Q 1175 2209 1959 2209 
L 2766 2209 
L 2766 2266 
Q 2766 2663 2505 2880 
Q 2244 3097 1772 3097 
Q 1472 3097 1187 3025 
Q 903 2953 641 2809 
L 641 3341 
Q 956 3463 1253 3523 
Q 1550 3584 1831 3584 
Q 2591 3584 2966 3190 
Q 3341 2797 3341 1997 
z
" transform="scale(0.015625)"/>
      <path id="DejaVuSans-72" d="M 2631 2963 
Q 2534 3019 2420 3045 
Q 2306 3072 2169 3072 
Q 1681 3072 1420 2755 
Q 1159 2438 1159 1844 
L 1159 0 
L 581 0 
L 581 3500 
L 1159 3500 
L 1159 2956 
Q 1341 3275 1631 3429 
Q 1922 3584 2338 3584 
Q 2397 3584 2469 3576 
Q 2541 3569 2628 3553 
L 2631 2963 
z
" transform="scale(0.015625)"/>
      <path id="DejaVuSans-69" d="M 603 3500 
L 1178 3500 
L 1178 0 
L 603 0 
L 603 3500 
z
M 603 4863 
L 1178 4863 
L 1178 4134 
L 603 4134 
L 603 4863 
z
" transform="scale(0.015625)"/>
      <path id="DejaVuSans-7a" d="M 353 3500 
L 3084 3500 
L 3084 2975 
L 922 459 
L 3084 459 
L 3084 0 
L 275 0 
L 275 525 
L 2438 3041 
L 353 3041 
L 353 3500 
z
" transform="scale(0.015625)"/>
      <path id="DejaVuSans-74" d="M 1172 4494 
L 1172 3500 
L 2356 3500 
L 2356 3053 
L 1172 3053 
L 1172 1153 
Q 1172 725 1289 603 
Q 1406 481 1766 481 
L 2356 481 
L 2356 0 
L 1766 0 
Q 1100 0 847 248 
Q 594 497 594 1153 
L 594 3053 
L 172 3053 
L 172 3500 
L 594 3500 
L 594 4494 
L 1172 4494 
z
" transform="scale(0.015625)"/>
      <path id="DejaVuSans-6e" d="M 3513 2113 
L 3513 0 
L 2938 0 
L 2938 2094 
Q 2938 2591 2744 2837 
Q 2550 3084 2163 3084 
Q 1697 3084 1428 2787 
Q 1159 2491 1159 1978 
L 1159 0 
L 581 0 
L 581 3500 
L 1159 3500 
L 1159 2956 
Q 1366 3272 1645 3428 
Q 1925 3584 2291 3584 
Q 2894 3584 3203 3211 
Q 3513 2838 3513 2113 
z
" transform="scale(0.015625)"/>
      <path id="DejaVuSans-20" transform="scale(0.015625)"/>
      <path id="DejaVuSans-65" d="M 3597 1894 
L 3597 1613 
L 953 1613 
Q 991 1019 1311 708 
Q 1631 397 2203 397 
Q 2534 397 2845 478 
Q 3156 559 3463 722 
L 3463 178 
Q 3153 47 2828 -22 
Q 2503 -91 2169 -91 
Q 1331 -91 842 396 
Q 353 884 353 1716 
Q 353 2575 817 3079 
Q 1281 3584 2069 3584 
Q 2775 3584 3186 3129 
Q 3597 2675 3597 1894 
z
M 3022 2063 
Q 3016 2534 2758 2815 
Q 2500 3097 2075 3097 
Q 1594 3097 1305 2825 
Q 1016 2553 972 2059 
L 3022 2063 
z
" transform="scale(0.015625)"/>
     </defs>
     <use xlink:href="#DejaVuSans-50"/>
     <use xlink:href="#DejaVuSans-6f" x="56.677734"/>
     <use xlink:href="#DejaVuSans-6c" x="117.859375"/>
     <use xlink:href="#DejaVuSans-61" x="145.642578"/>
     <use xlink:href="#DejaVuSans-72" x="206.921875"/>
     <use xlink:href="#DejaVuSans-69" x="248.035156"/>
     <use xlink:href="#DejaVuSans-7a" x="275.818359"/>
     <use xlink:href="#DejaVuSans-61" x="328.308594"/>
     <use xlink:href="#DejaVuSans-74" x="389.587891"/>
     <use xlink:href="#DejaVuSans-69" x="428.796875"/>
     <use xlink:href="#DejaVuSans-6f" x="456.580078"/>
     <use xlink:href="#DejaVuSans-6e" x="517.761719"/>
     <use xlink:href="#DejaVuSans-20" x="581.140625"/>
     <use xlink:href="#DejaVuSans-50" x="612.927734"/>
     <use xlink:href="#DejaVuSans-61" x="668.730469"/>
     <use xlink:href="#DejaVuSans-74" x="730.009766"/>
     <use xlink:href="#DejaVuSans-74" x="769.21875"/>
     <use xlink:href="#DejaVuSans-65" x="808.427734"/>
     <use xlink:href="#DejaVuSans-72" x="869.951172"/>
     <use xlink:href="#DejaVuSans-6e" x="909.314453"/>
    </g>
   </g>
   <g id="legend_1">
    <g id="patch_4">
     <path d="M 332.456625 194.977375 
L 365.016 194.977375 
Q 366.216 194.977375 366.216 193.777375 
L 366.216 155.278625 
Q 366.216 154.078625 365.016 154.078625 
L 332.456625 154.078625 
Q 331.256625 154.078625 331.256625 155.278625 
L 331.256625 193.777375 
Q 331.256625 194.977375 332.456625 194.977375 
z
" style="fill: #ffffff; opacity: 0.8; stroke: #cccccc; stroke-linejoin: miter"/>
    </g>
    <g id="text_15">
     <!-- H -->
     <g transform="translate(344.976156 164.077063) scale(0.1 -0.1)">
      <defs>
       <path id="DejaVuSans-48" d="M 628 4666 
L 1259 4666 
L 1259 2753 
L 3553 2753 
L 3553 4666 
L 4184 4666 
L 4184 0 
L 3553 0 
L 3553 2222 
L 1259 2222 
L 1259 0 
L 628 0 
L 628 4666 
z
" transform="scale(0.015625)"/>
      </defs>
      <use xlink:href="#DejaVuSans-48"/>
     </g>
    </g>
    <g id="line2d_17">
     <path d="M 333.656625 171.615813 
L 339.656625 171.615813 
L 345.656625 171.615813 
" style="fill: none; stroke: #1f77b4; stroke-width: 1.5; stroke-linecap: square"/>
    </g>
    <g id="text_16">
     <!-- 0.24 -->
     <g transform="translate(350.456625 173.715812) scale(0.06 -0.06)">
      <use xlink:href="#DejaVuSans-30"/>
      <use xlink:href="#DejaVuSans-2e" x="63.623047"/>
      <use xlink:href="#DejaVuSans-32" x="95.410156"/>
      <use xlink:href="#DejaVuSans-34" x="159.033203"/>
     </g>
    </g>
    <g id="line2d_18">
     <path d="M 333.656625 180.422687 
L 339.656625 180.422687 
L 345.656625 180.422687 
" style="fill: none; stroke: #ff7f0e; stroke-width: 1.5; stroke-linecap: square"/>
    </g>
    <g id="text_17">
     <!-- 0.42 -->
     <g transform="translate(350.456625 182.522687) scale(0.06 -0.06)">
      <use xlink:href="#DejaVuSans-30"/>
      <use xlink:href="#DejaVuSans-2e" x="63.623047"/>
      <use xlink:href="#DejaVuSans-34" x="95.410156"/>
      <use xlink:href="#DejaVuSans-32" x="159.033203"/>
     </g>
    </g>
    <g id="line2d_19">
     <path d="M 333.656625 189.229563 
L 339.656625 189.229563 
L 345.656625 189.229563 
" style="fill: none; stroke: #2ca02c; stroke-width: 1.5; stroke-linecap: square"/>
    </g>
    <g id="text_18">
     <!-- 0.59 -->
     <g transform="translate(350.456625 191.329563) scale(0.06 -0.06)">
      <use xlink:href="#DejaVuSans-30"/>
      <use xlink:href="#DejaVuSans-2e" x="63.623047"/>
      <use xlink:href="#DejaVuSans-35" x="95.410156"/>
      <use xlink:href="#DejaVuSans-39" x="159.033203"/>
     </g>
    </g>
   </g>
  </g>
 </g>
 <defs>
  <clipPath id="p1f23c361fd">
   <path d="M 369.216 174.528 
C 369.216 157.055246 365.774248 139.752393 359.087715 123.609673 
C 352.401182 107.466954 342.599903 92.798303 330.2448 80.4432 
C 317.889697 68.088097 303.221046 58.286818 287.078327 51.600285 
C 270.935607 44.913752 253.632754 41.472 236.16 41.472 
C 218.687246 41.472 201.384393 44.913752 185.241673 51.600285 
C 169.098954 58.286818 154.430303 68.088097 142.0752 80.4432 
C 129.720097 92.798303 119.918818 107.466954 113.232285 123.609673 
C 106.545752 139.752393 103.104 157.055246 103.104 174.528 
C 103.104 192.000754 106.545752 209.303607 113.232285 225.446327 
C 119.918818 241.589046 129.720097 256.257697 142.0752 268.6128 
C 154.430303 280.967903 169.098954 290.769182 185.241673 297.455715 
C 201.384393 304.142248 218.687246 307.584 236.16 307.584 
C 253.632754 307.584 270.935607 304.142248 287.078327 297.455715 
C 303.221046 290.769182 317.889697 280.967903 330.2448 268.6128 
C 342.599903 256.257697 352.401182 241.589046 359.087715 225.446327 
C 365.774248 209.303607 369.216 192.000754 369.216 174.528 
M 236.16 174.528 
C 236.16 174.528 236.16 174.528 236.16 174.528 
C 236.16 174.528 236.16 174.528 236.16 174.528 
C 236.16 174.528 236.16 174.528 236.16 174.528 
C 236.16 174.528 236.16 174.528 236.16 174.528 
C 236.16 174.528 236.16 174.528 236.16 174.528 
C 236.16 174.528 236.16 174.528 236.16 174.528 
C 236.16 174.528 236.16 174.528 236.16 174.528 
C 236.16 174.528 236.16 174.528 236.16 174.528 
C 236.16 174.528 236.16 174.528 236.16 174.528 
C 236.16 174.528 236.16 174.528 236.16 174.528 
C 236.16 174.528 236.16 174.528 236.16 174.528 
C 236.16 174.528 236.16 174.528 236.16 174.528 
C 236.16 174.528 236.16 174.528 236.16 174.528 
C 236.16 174.528 236.16 174.528 236.16 174.528 
C 236.16 174.528 236.16 174.528 236.16 174.528 
C 236.16 174.528 236.16 174.528 236.16 174.528 
z
"/>
  </clipPath>
 </defs>
</svg>
