<?xml version="1.0" encoding="utf-8" standalone="no"?>
<!DOCTYPE svg PUBLIC "-//W3C//DTD SVG 1.1//EN"
  "http://www.w3.org/Graphics/SVG/1.1/DTD/svg11.dtd">
<svg xmlns:xlink="http://www.w3.org/1999/xlink" width="460.8pt" height="345.6pt" viewBox="0 0 460.8 345.6" xmlns="http://www.w3.org/2000/svg" version="1.1">
 <metadata>
  <rdf:RDF xmlns:dc="http://purl.org/dc/elements/1.1/" xmlns:cc="http://creativecommons.org/ns#" xmlns:rdf="http://www.w3.org/1999/02/22-rdf-syntax-ns#">
   <cc:Work>
    <dc:type rdf:resource="http://purl.org/dc/dcmitype/StillImage"/>
    <dc:date>2025-03-14T09:45:36.088101</dc:date>
    <dc:format>image/svg+xml</dc:format>
    <dc:creator>
     <cc:Agent>
      <dc:title>Matplotlib v3.9.2, https://matplotlib.org/</dc:title>
     </cc:Agent>
    </dc:creator>
   </cc:Work>
  </rdf:RDF>
 </metadata>
 <defs>
  <style type="text/css">*{stroke-linejoin: round; stroke-linecap: butt}</style>
 </defs>
 <g id="figure_1">
  <g id="patch_1">
   <path d="M 0 345.6 
L 460.8 345.6 
L 460.8 0 
L 0 0 
L 0 345.6 
z
" style="fill: none"/>
  </g>
  <g id="axes_1">
   <g id="patch_2">
    <path d="M 369.216 174.528 
C 369.216 157.055246 365.774248 139.752393 359.087715 123.609673 
C 352.401182 107.466954 342.599903 92.798303 330.2448 80.4432 
C 317.889697 68.088097 303.221046 58.286818 287.078327 51.600285 
C 270.935607 44.913752 253.632754 41.472 236.16 41.472 
C 218.687246 41.472 201.384393 44.913752 185.241673 51.600285 
C 169.098954 58.286818 154.430303 68.088097 142.0752 80.4432 
C 129.720097 92.798303 119.918818 107.466954 113.232285 123.609673 
C 106.545752 139.752393 103.104 157.055246 103.104 174.528 
C 103.104 192.000754 106.545752 209.303607 113.232285 225.446327 
C 119.918818 241.589046 129.720097 256.257697 142.0752 268.6128 
C 154.430303 280.967903 169.098954 290.769182 185.241673 297.455715 
C 201.384393 304.142248 218.687246 307.584 236.16 307.584 
C 253.632754 307.584 270.935607 304.142248 287.078327 297.455715 
C 303.221046 290.769182 317.889697 280.967903 330.2448 268.6128 
C 342.599903 256.257697 352.401182 241.589046 359.087715 225.446327 
C 365.774248 209.303607 369.216 192.000754 369.216 174.528 
M 236.16 174.528 
C 236.16 174.528 236.16 174.528 236.16 174.528 
C 236.16 174.528 236.16 174.528 236.16 174.528 
C 236.16 174.528 236.16 174.528 236.16 174.528 
C 236.16 174.528 236.16 174.528 236.16 174.528 
C 236.16 174.528 236.16 174.528 236.16 174.528 
C 236.16 174.528 236.16 174.528 236.16 174.528 
C 236.16 174.528 236.16 174.528 236.16 174.528 
C 236.16 174.528 236.16 174.528 236.16 174.528 
C 236.16 174.528 236.16 174.528 236.16 174.528 
C 236.16 174.528 236.16 174.528 236.16 174.528 
C 236.16 174.528 236.16 174.528 236.16 174.528 
C 236.16 174.528 236.16 174.528 236.16 174.528 
C 236.16 174.528 236.16 174.528 236.16 174.528 
C 236.16 174.528 236.16 174.528 236.16 174.528 
C 236.16 174.528 236.16 174.528 236.16 174.528 
C 236.16 174.528 236.16 174.528 236.16 174.528 
L 236.16 174.528 
z
" style="fill: none"/>
   </g>
   <g id="matplotlib.axis_1">
    <g id="xtick_1">
     <g id="line2d_1">
      <path d="M 236.16 174.528 
L 369.216 174.528 
" clip-path="url(#pe2c81386ee)" style="fill: none; stroke: #b0b0b0; stroke-width: 0.8; stroke-linecap: square"/>
     </g>
     <g id="text_1">
      <!-- 0° -->
      <g transform="translate(377.53475 177.287375) scale(0.1 -0.1)">
       <defs>
        <path id="DejaVuSans-30" d="M 2034 4250 
Q 1547 4250 1301 3770 
Q 1056 3291 1056 2328 
Q 1056 1369 1301 889 
Q 1547 409 2034 409 
Q 2525 409 2770 889 
Q 3016 1369 3016 2328 
Q 3016 3291 2770 3770 
Q 2525 4250 2034 4250 
z
M 2034 4750 
Q 2819 4750 3233 4129 
Q 3647 3509 3647 2328 
Q 3647 1150 3233 529 
Q 2819 -91 2034 -91 
Q 1250 -91 836 529 
Q 422 1150 422 2328 
Q 422 3509 836 4129 
Q 1250 4750 2034 4750 
z
" transform="scale(0.015625)"/>
        <path id="DejaVuSans-b0" d="M 1600 4347 
Q 1350 4347 1178 4173 
Q 1006 4000 1006 3750 
Q 1006 3503 1178 3333 
Q 1350 3163 1600 3163 
Q 1850 3163 2022 3333 
Q 2194 3503 2194 3750 
Q 2194 3997 2020 4172 
Q 1847 4347 1600 4347 
z
M 1600 4750 
Q 1800 4750 1984 4673 
Q 2169 4597 2303 4453 
Q 2447 4313 2519 4134 
Q 2591 3956 2591 3750 
Q 2591 3338 2302 3052 
Q 2013 2766 1594 2766 
Q 1172 2766 890 3047 
Q 609 3328 609 3750 
Q 609 4169 896 4459 
Q 1184 4750 1600 4750 
z
" transform="scale(0.015625)"/>
       </defs>
       <use xlink:href="#DejaVuSans-30"/>
       <use xlink:href="#DejaVuSans-b0" x="63.623047"/>
      </g>
     </g>
    </g>
    <g id="xtick_2">
     <g id="line2d_2">
      <path d="M 236.16 174.528 
L 330.2448 80.4432 
" clip-path="url(#pe2c81386ee)" style="fill: none; stroke: #b0b0b0; stroke-width: 0.8; stroke-linecap: square"/>
     </g>
     <g id="text_2">
      <!-- 45° -->
      <g transform="translate(331.281795 73.30308) scale(0.1 -0.1)">
       <defs>
        <path id="DejaVuSans-34" d="M 2419 4116 
L 825 1625 
L 2419 1625 
L 2419 4116 
z
M 2253 4666 
L 3047 4666 
L 3047 1625 
L 3713 1625 
L 3713 1100 
L 3047 1100 
L 3047 0 
L 2419 0 
L 2419 1100 
L 313 1100 
L 313 1709 
L 2253 4666 
z
" transform="scale(0.015625)"/>
        <path id="DejaVuSans-35" d="M 691 4666 
L 3169 4666 
L 3169 4134 
L 1269 4134 
L 1269 2991 
Q 1406 3038 1543 3061 
Q 1681 3084 1819 3084 
Q 2600 3084 3056 2656 
Q 3513 2228 3513 1497 
Q 3513 744 3044 326 
Q 2575 -91 1722 -91 
Q 1428 -91 1123 -41 
Q 819 9 494 109 
L 494 744 
Q 775 591 1075 516 
Q 1375 441 1709 441 
Q 2250 441 2565 725 
Q 2881 1009 2881 1497 
Q 2881 1984 2565 2268 
Q 2250 2553 1709 2553 
Q 1456 2553 1204 2497 
Q 953 2441 691 2322 
L 691 4666 
z
" transform="scale(0.015625)"/>
       </defs>
       <use xlink:href="#DejaVuSans-34"/>
       <use xlink:href="#DejaVuSans-35" x="63.623047"/>
       <use xlink:href="#DejaVuSans-b0" x="127.246094"/>
      </g>
     </g>
    </g>
    <g id="xtick_3">
     <g id="line2d_3">
      <path d="M 236.16 174.528 
L 236.16 41.472 
" clip-path="url(#pe2c81386ee)" style="fill: none; stroke: #b0b0b0; stroke-width: 0.8; stroke-linecap: square"/>
     </g>
     <g id="text_3">
      <!-- 90° -->
      <g transform="translate(227.2975 30.231375) scale(0.1 -0.1)">
       <defs>
        <path id="DejaVuSans-39" d="M 703 97 
L 703 672 
Q 941 559 1184 500 
Q 1428 441 1663 441 
Q 2288 441 2617 861 
Q 2947 1281 2994 2138 
Q 2813 1869 2534 1725 
Q 2256 1581 1919 1581 
Q 1219 1581 811 2004 
Q 403 2428 403 3163 
Q 403 3881 828 4315 
Q 1253 4750 1959 4750 
Q 2769 4750 3195 4129 
Q 3622 3509 3622 2328 
Q 3622 1225 3098 567 
Q 2575 -91 1691 -91 
Q 1453 -91 1209 -44 
Q 966 3 703 97 
z
M 1959 2075 
Q 2384 2075 2632 2365 
Q 2881 2656 2881 3163 
Q 2881 3666 2632 3958 
Q 2384 4250 1959 4250 
Q 1534 4250 1286 3958 
Q 1038 3666 1038 3163 
Q 1038 2656 1286 2365 
Q 1534 2075 1959 2075 
z
" transform="scale(0.015625)"/>
       </defs>
       <use xlink:href="#DejaVuSans-39"/>
       <use xlink:href="#DejaVuSans-30" x="63.623047"/>
       <use xlink:href="#DejaVuSans-b0" x="127.246094"/>
      </g>
     </g>
    </g>
    <g id="xtick_4">
     <g id="line2d_4">
      <path d="M 236.16 174.528 
L 142.0752 80.4432 
" clip-path="url(#pe2c81386ee)" style="fill: none; stroke: #b0b0b0; stroke-width: 0.8; stroke-linecap: square"/>
     </g>
     <g id="text_4">
      <!-- 135° -->
      <g transform="translate(120.131955 73.30308) scale(0.1 -0.1)">
       <defs>
        <path id="DejaVuSans-31" d="M 794 531 
L 1825 531 
L 1825 4091 
L 703 3866 
L 703 4441 
L 1819 4666 
L 2450 4666 
L 2450 531 
L 3481 531 
L 3481 0 
L 794 0 
L 794 531 
z
" transform="scale(0.015625)"/>
        <path id="DejaVuSans-33" d="M 2597 2516 
Q 3050 2419 3304 2112 
Q 3559 1806 3559 1356 
Q 3559 666 3084 287 
Q 2609 -91 1734 -91 
Q 1441 -91 1130 -33 
Q 819 25 488 141 
L 488 750 
Q 750 597 1062 519 
Q 1375 441 1716 441 
Q 2309 441 2620 675 
Q 2931 909 2931 1356 
Q 2931 1769 2642 2001 
Q 2353 2234 1838 2234 
L 1294 2234 
L 1294 2753 
L 1863 2753 
Q 2328 2753 2575 2939 
Q 2822 3125 2822 3475 
Q 2822 3834 2567 4026 
Q 2313 4219 1838 4219 
Q 1578 4219 1281 4162 
Q 984 4106 628 3988 
L 628 4550 
Q 988 4650 1302 4700 
Q 1616 4750 1894 4750 
Q 2613 4750 3031 4423 
Q 3450 4097 3450 3541 
Q 3450 3153 3228 2886 
Q 3006 2619 2597 2516 
z
" transform="scale(0.015625)"/>
       </defs>
       <use xlink:href="#DejaVuSans-31"/>
       <use xlink:href="#DejaVuSans-33" x="63.623047"/>
       <use xlink:href="#DejaVuSans-35" x="127.246094"/>
       <use xlink:href="#DejaVuSans-b0" x="190.869141"/>
      </g>
     </g>
    </g>
    <g id="xtick_5">
     <g id="line2d_5">
      <path d="M 236.16 174.528 
L 103.104 174.528 
" clip-path="url(#pe2c81386ee)" style="fill: none; stroke: #b0b0b0; stroke-width: 0.8; stroke-linecap: square"/>
     </g>
     <g id="text_5">
      <!-- 180° -->
      <g transform="translate(77.06025 177.287375) scale(0.1 -0.1)">
       <defs>
        <path id="DejaVuSans-38" d="M 2034 2216 
Q 1584 2216 1326 1975 
Q 1069 1734 1069 1313 
Q 1069 891 1326 650 
Q 1584 409 2034 409 
Q 2484 409 2743 651 
Q 3003 894 3003 1313 
Q 3003 1734 2745 1975 
Q 2488 2216 2034 2216 
z
M 1403 2484 
Q 997 2584 770 2862 
Q 544 3141 544 3541 
Q 544 4100 942 4425 
Q 1341 4750 2034 4750 
Q 2731 4750 3128 4425 
Q 3525 4100 3525 3541 
Q 3525 3141 3298 2862 
Q 3072 2584 2669 2484 
Q 3125 2378 3379 2068 
Q 3634 1759 3634 1313 
Q 3634 634 3220 271 
Q 2806 -91 2034 -91 
Q 1263 -91 848 271 
Q 434 634 434 1313 
Q 434 1759 690 2068 
Q 947 2378 1403 2484 
z
M 1172 3481 
Q 1172 3119 1398 2916 
Q 1625 2713 2034 2713 
Q 2441 2713 2670 2916 
Q 2900 3119 2900 3481 
Q 2900 3844 2670 4047 
Q 2441 4250 2034 4250 
Q 1625 4250 1398 4047 
Q 1172 3844 1172 3481 
z
" transform="scale(0.015625)"/>
       </defs>
       <use xlink:href="#DejaVuSans-31"/>
       <use xlink:href="#DejaVuSans-38" x="63.623047"/>
       <use xlink:href="#DejaVuSans-30" x="127.246094"/>
       <use xlink:href="#DejaVuSans-b0" x="190.869141"/>
      </g>
     </g>
    </g>
    <g id="xtick_6">
     <g id="line2d_6">
      <path d="M 236.16 174.528 
L 142.0752 268.6128 
" clip-path="url(#pe2c81386ee)" style="fill: none; stroke: #b0b0b0; stroke-width: 0.8; stroke-linecap: square"/>
     </g>
     <g id="text_6">
      <!-- 225° -->
      <g transform="translate(120.131955 281.27167) scale(0.1 -0.1)">
       <defs>
        <path id="DejaVuSans-32" d="M 1228 531 
L 3431 531 
L 3431 0 
L 469 0 
L 469 531 
Q 828 903 1448 1529 
Q 2069 2156 2228 2338 
Q 2531 2678 2651 2914 
Q 2772 3150 2772 3378 
Q 2772 3750 2511 3984 
Q 2250 4219 1831 4219 
Q 1534 4219 1204 4116 
Q 875 4013 500 3803 
L 500 4441 
Q 881 4594 1212 4672 
Q 1544 4750 1819 4750 
Q 2544 4750 2975 4387 
Q 3406 4025 3406 3419 
Q 3406 3131 3298 2873 
Q 3191 2616 2906 2266 
Q 2828 2175 2409 1742 
Q 1991 1309 1228 531 
z
" transform="scale(0.015625)"/>
       </defs>
       <use xlink:href="#DejaVuSans-32"/>
       <use xlink:href="#DejaVuSans-32" x="63.623047"/>
       <use xlink:href="#DejaVuSans-35" x="127.246094"/>
       <use xlink:href="#DejaVuSans-b0" x="190.869141"/>
      </g>
     </g>
    </g>
    <g id="xtick_7">
     <g id="line2d_7">
      <path d="M 236.16 174.528 
L 236.16 307.584 
" clip-path="url(#pe2c81386ee)" style="fill: none; stroke: #b0b0b0; stroke-width: 0.8; stroke-linecap: square"/>
     </g>
     <g id="text_7">
      <!-- 270° -->
      <g transform="translate(224.11625 324.343375) scale(0.1 -0.1)">
       <defs>
        <path id="DejaVuSans-37" d="M 525 4666 
L 3525 4666 
L 3525 4397 
L 1831 0 
L 1172 0 
L 2766 4134 
L 525 4134 
L 525 4666 
z
" transform="scale(0.015625)"/>
       </defs>
       <use xlink:href="#DejaVuSans-32"/>
       <use xlink:href="#DejaVuSans-37" x="63.623047"/>
       <use xlink:href="#DejaVuSans-30" x="127.246094"/>
       <use xlink:href="#DejaVuSans-b0" x="190.869141"/>
      </g>
     </g>
    </g>
    <g id="xtick_8">
     <g id="line2d_8">
      <path d="M 236.16 174.528 
L 330.2448 268.6128 
" clip-path="url(#pe2c81386ee)" style="fill: none; stroke: #b0b0b0; stroke-width: 0.8; stroke-linecap: square"/>
     </g>
     <g id="text_8">
      <!-- 315° -->
      <g transform="translate(328.100545 281.27167) scale(0.1 -0.1)">
       <use xlink:href="#DejaVuSans-33"/>
       <use xlink:href="#DejaVuSans-31" x="63.623047"/>
       <use xlink:href="#DejaVuSans-35" x="127.246094"/>
       <use xlink:href="#DejaVuSans-b0" x="190.869141"/>
      </g>
     </g>
    </g>
   </g>
   <g id="matplotlib.axis_2">
    <g id="ytick_1">
     <g id="line2d_9">
      <path d="M 262.285623 174.528 
C 262.285623 171.097215 261.609833 167.699789 260.296928 164.530157 
C 258.984024 161.360525 257.059537 158.480326 254.633605 156.054395 
C 252.207674 153.628463 249.327475 151.703976 246.157843 150.391072 
C 242.988211 149.078167 239.590785 148.402377 236.16 148.402377 
C 232.729215 148.402377 229.331789 149.078167 226.162157 150.391072 
C 222.992525 151.703976 220.112326 153.628463 217.686395 156.054395 
C 215.260463 158.480326 213.335976 161.360525 212.023072 164.530157 
C 210.710167 167.699789 210.034377 171.097215 210.034377 174.528 
C 210.034377 177.958785 210.710167 181.356211 212.023072 184.525843 
C 213.335976 187.695475 215.260463 190.575674 217.686395 193.001605 
C 220.112326 195.427537 222.992525 197.352024 226.162157 198.664928 
C 229.331789 199.977833 232.729215 200.653623 236.16 200.653623 
C 239.590785 200.653623 242.988211 199.977833 246.157843 198.664928 
C 249.327475 197.352024 252.207674 195.427537 254.633605 193.001605 
C 257.059537 190.575674 258.984024 187.695475 260.296928 184.525843 
C 261.609833 181.356211 262.285623 177.958785 262.285623 174.528 
" clip-path="url(#pe2c81386ee)" style="fill: none; stroke: #b0b0b0; stroke-width: 0.8; stroke-linecap: square"/>
     </g>
     <g id="text_9">
      <!-- 0.2 -->
      <g transform="translate(260.296928 182.446156) scale(0.1 -0.1)">
       <defs>
        <path id="DejaVuSans-2e" d="M 684 794 
L 1344 794 
L 1344 0 
L 684 0 
L 684 794 
z
" transform="scale(0.015625)"/>
       </defs>
       <use xlink:href="#DejaVuSans-30"/>
       <use xlink:href="#DejaVuSans-2e" x="63.623047"/>
       <use xlink:href="#DejaVuSans-32" x="95.410156"/>
      </g>
     </g>
    </g>
    <g id="ytick_2">
     <g id="line2d_10">
      <path d="M 288.411246 174.528 
C 288.411246 167.666429 287.059666 160.871579 284.433857 154.532314 
C 281.808047 148.193049 277.959073 142.432653 273.10721 137.58079 
C 268.255347 132.728927 262.494951 128.879953 256.155686 126.254143 
C 249.816421 123.628334 243.021571 122.276754 236.16 122.276754 
C 229.298429 122.276754 222.503579 123.628334 216.164314 126.254143 
C 209.825049 128.879953 204.064653 132.728927 199.21279 137.58079 
C 194.360927 142.432653 190.511953 148.193049 187.886143 154.532314 
C 185.260334 160.871579 183.908754 167.666429 183.908754 174.528 
C 183.908754 181.389571 185.260334 188.184421 187.886143 194.523686 
C 190.511953 200.862951 194.360927 206.623347 199.21279 211.47521 
C 204.064653 216.327073 209.825049 220.176047 216.164314 222.801857 
C 222.503579 225.427666 229.298429 226.779246 236.16 226.779246 
C 243.021571 226.779246 249.816421 225.427666 256.155686 222.801857 
C 262.494951 220.176047 268.255347 216.327073 273.10721 211.47521 
C 277.959073 206.623347 281.808047 200.862951 284.433857 194.523686 
C 287.059666 188.184421 288.411246 181.389571 288.411246 174.528 
" clip-path="url(#pe2c81386ee)" style="fill: none; stroke: #b0b0b0; stroke-width: 0.8; stroke-linecap: square"/>
     </g>
     <g id="text_10">
      <!-- 0.4 -->
      <g transform="translate(284.433857 192.443999) scale(0.1 -0.1)">
       <use xlink:href="#DejaVuSans-30"/>
       <use xlink:href="#DejaVuSans-2e" x="63.623047"/>
       <use xlink:href="#DejaVuSans-34" x="95.410156"/>
      </g>
     </g>
    </g>
    <g id="ytick_3">
     <g id="line2d_11">
      <path d="M 314.536869 174.528 
C 314.536869 164.235644 312.509499 154.043368 308.570785 144.534471 
C 304.632071 135.025574 298.85861 126.384979 291.580815 119.107185 
C 284.303021 111.82939 275.662426 106.055929 266.153529 102.117215 
C 256.644632 98.178501 246.452356 96.151131 236.16 96.151131 
C 225.867644 96.151131 215.675368 98.178501 206.166471 102.117215 
C 196.657574 106.055929 188.016979 111.82939 180.739185 119.107185 
C 173.46139 126.384979 167.687929 135.025574 163.749215 144.534471 
C 159.810501 154.043368 157.783131 164.235644 157.783131 174.528 
C 157.783131 184.820356 159.810501 195.012632 163.749215 204.521529 
C 167.687929 214.030426 173.46139 222.671021 180.739185 229.948815 
C 188.016979 237.22661 196.657574 243.000071 206.166471 246.938785 
C 215.675368 250.877499 225.867644 252.904869 236.16 252.904869 
C 246.452356 252.904869 256.644632 250.877499 266.153529 246.938785 
C 275.662426 243.000071 284.303021 237.22661 291.580815 229.948815 
C 298.85861 222.671021 304.632071 214.030426 308.570785 204.521529 
C 312.509499 195.012632 314.536869 184.820356 314.536869 174.528 
" clip-path="url(#pe2c81386ee)" style="fill: none; stroke: #b0b0b0; stroke-width: 0.8; stroke-linecap: square"/>
     </g>
     <g id="text_11">
      <!-- 0.6 -->
      <g transform="translate(308.570785 202.441842) scale(0.1 -0.1)">
       <defs>
        <path id="DejaVuSans-36" d="M 2113 2584 
Q 1688 2584 1439 2293 
Q 1191 2003 1191 1497 
Q 1191 994 1439 701 
Q 1688 409 2113 409 
Q 2538 409 2786 701 
Q 3034 994 3034 1497 
Q 3034 2003 2786 2293 
Q 2538 2584 2113 2584 
z
M 3366 4563 
L 3366 3988 
Q 3128 4100 2886 4159 
Q 2644 4219 2406 4219 
Q 1781 4219 1451 3797 
Q 1122 3375 1075 2522 
Q 1259 2794 1537 2939 
Q 1816 3084 2150 3084 
Q 2853 3084 3261 2657 
Q 3669 2231 3669 1497 
Q 3669 778 3244 343 
Q 2819 -91 2113 -91 
Q 1303 -91 875 529 
Q 447 1150 447 2328 
Q 447 3434 972 4092 
Q 1497 4750 2381 4750 
Q 2619 4750 2861 4703 
Q 3103 4656 3366 4563 
z
" transform="scale(0.015625)"/>
       </defs>
       <use xlink:href="#DejaVuSans-30"/>
       <use xlink:href="#DejaVuSans-2e" x="63.623047"/>
       <use xlink:href="#DejaVuSans-36" x="95.410156"/>
      </g>
     </g>
    </g>
    <g id="ytick_4">
     <g id="line2d_12">
      <path d="M 340.662492 174.528 
C 340.662492 160.804859 337.959332 147.215157 332.707713 134.536628 
C 327.456094 121.858098 319.758147 110.337306 310.05442 100.63358 
C 300.350694 90.929853 288.829902 83.231906 276.151372 77.980287 
C 263.472843 72.728668 249.883141 70.025508 236.16 70.025508 
C 222.436859 70.025508 208.847157 72.728668 196.168628 77.980287 
C 183.490098 83.231906 171.969306 90.929853 162.26558 100.63358 
C 152.561853 110.337306 144.863906 121.858098 139.612287 134.536628 
C 134.360668 147.215157 131.657508 160.804859 131.657508 174.528 
C 131.657508 188.251141 134.360668 201.840843 139.612287 214.519372 
C 144.863906 227.197902 152.561853 238.718694 162.26558 248.42242 
C 171.969306 258.126147 183.490098 265.824094 196.168628 271.075713 
C 208.847157 276.327332 222.436859 279.030492 236.16 279.030492 
C 249.883141 279.030492 263.472843 276.327332 276.151372 271.075713 
C 288.829902 265.824094 300.350694 258.126147 310.05442 248.42242 
C 319.758147 238.718694 327.456094 227.197902 332.707713 214.519372 
C 337.959332 201.840843 340.662492 188.251141 340.662492 174.528 
" clip-path="url(#pe2c81386ee)" style="fill: none; stroke: #b0b0b0; stroke-width: 0.8; stroke-linecap: square"/>
     </g>
     <g id="text_12">
      <!-- 0.8 -->
      <g transform="translate(332.707713 212.439685) scale(0.1 -0.1)">
       <use xlink:href="#DejaVuSans-30"/>
       <use xlink:href="#DejaVuSans-2e" x="63.623047"/>
       <use xlink:href="#DejaVuSans-38" x="95.410156"/>
      </g>
     </g>
    </g>
    <g id="ytick_5">
     <g id="line2d_13">
      <path d="M 366.788114 174.528 
C 366.788114 157.374073 363.409165 140.386947 356.844641 124.538785 
C 350.280118 108.690623 340.657683 94.289632 328.528026 82.159974 
C 316.398368 70.030317 301.997377 60.407882 286.149215 53.843359 
C 270.301053 47.278835 253.313927 43.899886 236.16 43.899886 
C 219.006073 43.899886 202.018947 47.278835 186.170785 53.843359 
C 170.322623 60.407882 155.921632 70.030317 143.791974 82.159974 
C 131.662317 94.289632 122.039882 108.690623 115.475359 124.538785 
C 108.910835 140.386947 105.531886 157.374073 105.531886 174.528 
C 105.531886 191.681927 108.910835 208.669053 115.475359 224.517215 
C 122.039882 240.365377 131.662317 254.766368 143.791974 266.896026 
C 155.921632 279.025683 170.322623 288.648118 186.170785 295.212641 
C 202.018947 301.777165 219.006073 305.156114 236.16 305.156114 
C 253.313927 305.156114 270.301053 301.777165 286.149215 295.212641 
C 301.997377 288.648118 316.398368 279.025683 328.528026 266.896026 
C 340.657683 254.766368 350.280118 240.365377 356.844641 224.517215 
C 363.409165 208.669053 366.788114 191.681927 366.788114 174.528 
" clip-path="url(#pe2c81386ee)" style="fill: none; stroke: #b0b0b0; stroke-width: 0.8; stroke-linecap: square"/>
     </g>
     <g id="text_13">
      <!-- 1.0 -->
      <g transform="translate(356.844641 222.437528) scale(0.1 -0.1)">
       <use xlink:href="#DejaVuSans-31"/>
       <use xlink:href="#DejaVuSans-2e" x="63.623047"/>
       <use xlink:href="#DejaVuSans-30" x="95.410156"/>
      </g>
     </g>
    </g>
   </g>
   <g id="line2d_14">
    <path d="M 340.862974 174.528 
L 339.105668 170.933058 
L 337.229707 167.460518 
L 334.22604 162.487004 
L 331.040764 157.797961 
L 327.726163 153.388285 
L 324.333764 149.24458 
L 319.774102 144.094956 
L 314.160436 138.155799 
L 304.724541 128.280633 
L 300.879071 123.96392 
L 297.219995 119.549334 
L 293.682083 114.962139 
L 288.395546 107.66955 
L 281.808183 98.556666 
L 277.624295 93.149738 
L 274.212071 89.061649 
L 270.529124 84.993372 
L 266.551501 80.992579 
L 262.26322 77.109455 
L 259.227562 74.611412 
L 256.049828 72.203706 
L 252.731226 69.901394 
L 249.274468 67.719229 
L 245.683706 65.67154 
L 241.96447 63.772113 
L 238.123588 62.034099 
L 234.169109 60.469916 
L 230.110212 59.09117 
L 225.957123 57.908581 
L 221.721017 56.931923 
L 217.413928 56.169959 
L 213.048648 55.630401 
L 208.638633 55.319863 
L 204.197903 55.243831 
L 199.740944 55.406634 
L 195.282605 55.811425 
L 190.838006 56.460169 
L 186.422433 57.353634 
L 182.051244 58.491399 
L 177.739774 59.87185 
L 173.503236 61.492205 
L 169.356633 63.348527 
L 165.314665 65.435752 
L 161.391643 67.747719 
L 157.601399 70.277215 
L 153.957212 73.01601 
L 150.471722 75.954913 
L 147.156863 79.08382 
L 144.023783 82.391783 
L 141.082786 85.867064 
L 138.343268 89.497213 
L 135.813659 93.269135 
L 133.50137 97.169173 
L 131.41275 101.183186 
L 129.553045 105.296634 
L 127.92636 109.494668 
L 126.535631 113.76222 
L 125.382603 118.084097 
L 124.467812 122.445077 
L 123.790575 126.830009 
L 123.348987 131.223909 
L 123.13992 135.612066 
L 123.159038 139.980139 
L 123.400812 144.314267 
L 123.858541 148.601165 
L 124.524391 152.828236 
L 125.389429 156.983665 
L 126.443675 161.056529 
L 127.676157 165.036894 
L 129.07498 168.915912 
L 130.627405 172.685922 
L 132.319932 176.340535 
L 134.138404 179.874725 
L 136.06812 183.284905 
L 139.138122 188.163536 
L 142.372308 192.758481 
L 145.718486 197.077602 
L 149.125718 201.13705 
L 153.681145 206.188666 
L 160.344298 213.158029 
L 167.595459 220.775367 
L 171.440929 225.09208 
L 175.100005 229.506666 
L 178.637917 234.093861 
L 183.924454 241.38645 
L 190.511817 250.499334 
L 194.695705 255.906262 
L 198.107929 259.994351 
L 201.790876 264.062628 
L 205.768499 268.063421 
L 210.05678 271.946545 
L 213.092438 274.444588 
L 216.270172 276.852294 
L 219.588774 279.154606 
L 223.045532 281.336771 
L 226.636294 283.38446 
L 230.35553 285.283887 
L 234.196412 287.021901 
L 238.150891 288.586084 
L 242.209788 289.96483 
L 246.362877 291.147419 
L 250.598983 292.124077 
L 254.906072 292.886041 
L 259.271352 293.425599 
L 263.681367 293.736137 
L 268.122097 293.812169 
L 272.579056 293.649366 
L 277.037395 293.244575 
L 281.481994 292.595831 
L 285.897567 291.702366 
L 290.268756 290.564601 
L 294.580226 289.18415 
L 298.816764 287.563795 
L 302.963367 285.707473 
L 307.005335 283.620248 
L 310.928357 281.308281 
L 314.718601 278.778785 
L 318.362788 276.03999 
L 321.848278 273.101087 
L 325.163137 269.97218 
L 328.296217 266.664217 
L 331.237214 263.188936 
L 333.976732 259.558787 
L 336.506341 255.786865 
L 338.81863 251.886827 
L 340.90725 247.872814 
L 342.766955 243.759366 
L 344.39364 239.561332 
L 345.784369 235.29378 
L 346.937397 230.971903 
L 347.852188 226.610923 
L 348.529425 222.225991 
L 348.971013 217.832091 
L 349.18008 213.443934 
L 349.160962 209.075861 
L 348.919188 204.741733 
L 348.461459 200.454835 
L 347.795609 196.227764 
L 346.930571 192.072335 
L 345.876325 187.999471 
L 344.643843 184.019106 
L 343.24502 180.140088 
L 341.692595 176.370078 
L 340.862974 174.528 
L 340.862974 174.528 
" clip-path="url(#pe2c81386ee)" style="fill: none; stroke: #1f77b4; stroke-width: 1.5; stroke-linecap: square"/>
   </g>
   <g id="line2d_15">
    <path d="M 362.592514 174.528 
L 362.857124 170.103639 
L 362.960493 165.661246 
L 362.900138 161.207075 
L 362.673888 156.747633 
L 362.279906 152.289658 
L 361.716717 147.840096 
L 360.983224 143.406075 
L 360.078732 138.994876 
L 359.002958 134.613903 
L 357.75605 130.270657 
L 356.338594 125.972696 
L 354.751622 121.727608 
L 352.996617 117.542974 
L 351.075515 113.426337 
L 348.990703 109.385163 
L 346.745016 105.426813 
L 344.341726 101.558504 
L 341.784539 97.78728 
L 339.077574 94.119979 
L 336.225353 90.5632 
L 333.232781 87.123276 
L 330.105126 83.806247 
L 326.847996 80.617831 
L 323.467315 77.563403 
L 319.969295 74.647972 
L 316.360407 71.87616 
L 312.647354 69.252189 
L 308.837037 66.779862 
L 304.936523 64.462555 
L 300.953014 62.303207 
L 296.893811 60.304314 
L 292.76628 58.467926 
L 288.57782 56.795649 
L 284.335827 55.288644 
L 280.047663 53.947638 
L 275.720621 52.772929 
L 271.361895 51.764402 
L 266.978552 50.92154 
L 262.577498 50.243442 
L 258.165458 49.728847 
L 253.748945 49.376152 
L 249.334244 49.183437 
L 244.927389 49.148495 
L 240.534146 49.268856 
L 236.16 49.541821 
L 231.810146 49.96449 
L 225.34154 50.872437 
L 218.95378 52.099383 
L 212.660585 53.63399 
L 206.474188 55.464712 
L 200.405418 57.580031 
L 194.463812 59.968664 
L 188.657766 62.619749 
L 182.994711 65.523003 
L 177.481311 68.668843 
L 172.123679 72.048464 
L 166.927598 75.653884 
L 161.898749 79.477933 
L 157.042923 83.514214 
L 152.366225 87.757006 
L 147.875251 92.201139 
L 143.577238 96.841838 
L 139.480175 101.674527 
L 135.592881 106.694622 
L 131.925034 111.897314 
L 128.48716 117.277335 
L 125.29058 122.828741 
L 122.347319 128.544692 
L 119.669964 134.417264 
L 117.271509 140.437274 
L 115.165151 146.594138 
L 113.364082 152.875767 
L 112.339385 157.126147 
L 111.459862 161.421487 
L 110.729111 165.757018 
L 110.150571 170.127654 
L 109.727486 174.528 
L 109.462876 178.952361 
L 109.359507 183.394754 
L 109.419862 187.848925 
L 109.646112 192.308367 
L 110.040094 196.766342 
L 110.603283 201.215904 
L 111.336776 205.649925 
L 112.241268 210.061124 
L 113.317042 214.442097 
L 114.56395 218.785343 
L 115.981406 223.083304 
L 117.568378 227.328392 
L 119.323383 231.513026 
L 121.244485 235.629663 
L 123.329297 239.670837 
L 125.574984 243.629187 
L 127.978274 247.497496 
L 130.535461 251.26872 
L 133.242426 254.936021 
L 136.094647 258.4928 
L 139.087219 261.932724 
L 142.214874 265.249753 
L 145.472004 268.438169 
L 148.852685 271.492597 
L 152.350705 274.408028 
L 155.959593 277.17984 
L 159.672646 279.803811 
L 163.482963 282.276138 
L 167.383477 284.593445 
L 171.366986 286.752793 
L 175.426189 288.751686 
L 179.55372 290.588074 
L 183.74218 292.260351 
L 187.984173 293.767356 
L 192.272337 295.108362 
L 196.599379 296.283071 
L 200.958105 297.291598 
L 205.341448 298.13446 
L 209.742502 298.812558 
L 214.154542 299.327153 
L 218.571055 299.679848 
L 222.985756 299.872563 
L 227.392611 299.907505 
L 231.785854 299.787144 
L 236.16 299.514179 
L 240.509854 299.09151 
L 246.97846 298.183563 
L 253.36622 296.956617 
L 259.659415 295.42201 
L 265.845812 293.591288 
L 271.914582 291.475969 
L 277.856188 289.087336 
L 283.662234 286.436251 
L 289.325289 283.532997 
L 294.838689 280.387157 
L 300.196321 277.007536 
L 305.392402 273.402116 
L 310.421251 269.578067 
L 315.277077 265.541786 
L 319.953775 261.298994 
L 324.444749 256.854861 
L 328.742762 252.214162 
L 332.839825 247.381473 
L 336.727119 242.361378 
L 340.394966 237.158686 
L 343.83284 231.778665 
L 347.02942 226.227259 
L 349.972681 220.511308 
L 352.650036 214.638736 
L 355.048491 208.618726 
L 357.154849 202.461862 
L 358.955918 196.180233 
L 359.980615 191.929853 
L 360.860138 187.634513 
L 361.590889 183.298982 
L 362.169429 178.928346 
L 362.592514 174.528 
L 362.592514 174.528 
" clip-path="url(#pe2c81386ee)" style="fill: none; stroke: #ff7f0e; stroke-width: 1.5; stroke-linecap: square"/>
   </g>
   <g id="line2d_16">
    <path d="M 366.215704 174.528 
L 366.207382 169.986645 
L 366.036875 165.446124 
L 365.703926 160.912385 
L 365.208521 156.391413 
L 364.550896 151.889221 
L 363.731539 147.411832 
L 362.751192 142.965271 
L 361.610853 138.555547 
L 360.31178 134.188641 
L 358.855486 129.870495 
L 357.24374 125.606993 
L 355.478567 121.403951 
L 353.562242 117.267101 
L 351.497284 113.202078 
L 349.286459 109.214409 
L 346.932763 105.309496 
L 344.439424 101.492607 
L 341.80989 97.768862 
L 339.047821 94.143225 
L 336.15708 90.620487 
L 333.141724 87.205263 
L 330.005991 83.90198 
L 326.75429 80.714866 
L 323.39119 77.647949 
L 319.921407 74.705042 
L 316.349792 71.889747 
L 312.681318 69.205442 
L 308.921067 66.655282 
L 305.074219 64.242195 
L 301.146038 61.968881 
L 297.141856 59.83781 
L 293.067067 57.851222 
L 288.92711 56.01113 
L 284.727459 54.31932 
L 280.473611 52.777354 
L 276.171074 51.386575 
L 271.82536 50.148108 
L 267.441971 49.062868 
L 263.026392 48.131563 
L 258.584083 47.354703 
L 254.120472 46.732602 
L 249.640944 46.265386 
L 245.15084 45.953003 
L 240.655448 45.795226 
L 236.16 45.791661 
L 231.669669 45.941754 
L 227.189565 46.2448 
L 222.72473 46.699947 
L 218.280143 47.306204 
L 213.860711 48.062446 
L 209.471275 48.967421 
L 205.116608 50.019754 
L 200.801413 51.217953 
L 196.530329 52.560414 
L 192.307927 54.04542 
L 188.138716 55.671151 
L 184.027141 57.435681 
L 179.977586 59.336981 
L 175.994378 61.372923 
L 172.081785 63.541276 
L 168.244018 65.83971 
L 164.485235 68.265791 
L 160.809537 70.816985 
L 157.220973 73.490653 
L 153.723537 76.284049 
L 150.321167 79.194318 
L 147.017748 82.218496 
L 143.817103 85.353501 
L 140.722998 88.596137 
L 137.739133 91.943086 
L 134.869141 95.390908 
L 132.116583 98.936033 
L 129.484945 102.574767 
L 126.977627 106.303281 
L 124.59794 110.117615 
L 122.3491 114.013671 
L 120.234219 117.987219 
L 118.256297 122.033889 
L 116.418211 126.149177 
L 114.722714 130.328442 
L 113.172415 134.566911 
L 111.769781 138.859679 
L 110.517118 143.201711 
L 109.416568 147.587852 
L 108.470097 152.012825 
L 107.679486 156.471241 
L 107.046322 160.957606 
L 106.57199 165.466324 
L 106.257663 169.99171 
L 106.104296 174.528 
L 106.112618 179.069355 
L 106.283125 183.609876 
L 106.616074 188.143615 
L 107.111479 192.664587 
L 107.769104 197.166779 
L 108.588461 201.644168 
L 109.568808 206.090729 
L 110.709147 210.500453 
L 112.00822 214.867359 
L 113.464514 219.185505 
L 115.07626 223.449007 
L 116.841433 227.652049 
L 118.757758 231.788899 
L 120.822716 235.853922 
L 123.033541 239.841591 
L 125.387237 243.746504 
L 127.880576 247.563393 
L 130.51011 251.287138 
L 133.272179 254.912775 
L 136.16292 258.435513 
L 139.178276 261.850737 
L 142.314009 265.15402 
L 145.56571 268.341134 
L 148.92881 271.408051 
L 152.398593 274.350958 
L 155.970208 277.166253 
L 159.638682 279.850558 
L 163.398933 282.400718 
L 167.245781 284.813805 
L 171.173962 287.087119 
L 175.178144 289.21819 
L 179.252933 291.204778 
L 183.39289 293.04487 
L 187.592541 294.73668 
L 191.846389 296.278646 
L 196.148926 297.669425 
L 200.49464 298.907892 
L 204.878029 299.993132 
L 209.293608 300.924437 
L 213.735917 301.701297 
L 218.199528 302.323398 
L 222.679056 302.790614 
L 227.16916 303.102997 
L 231.664552 303.260774 
L 236.16 303.264339 
L 240.650331 303.114246 
L 245.130435 302.8112 
L 249.59527 302.356053 
L 254.039857 301.749796 
L 258.459289 300.993554 
L 262.848725 300.088579 
L 267.203392 299.036246 
L 271.518587 297.838047 
L 275.789671 296.495586 
L 280.012073 295.01058 
L 284.181284 293.384849 
L 288.292859 291.620319 
L 292.342414 289.719019 
L 296.325622 287.683077 
L 300.238215 285.514724 
L 304.075982 283.21629 
L 307.834765 280.790209 
L 311.510463 278.239015 
L 315.099027 275.565347 
L 318.596463 272.771951 
L 321.998833 269.861682 
L 325.302252 266.837504 
L 328.502897 263.702499 
L 331.597002 260.459863 
L 334.580867 257.112914 
L 337.450859 253.665092 
L 340.203417 250.119967 
L 342.835055 246.481233 
L 345.342373 242.752719 
L 347.72206 238.938385 
L 349.9709 235.042329 
L 352.085781 231.068781 
L 354.063703 227.022111 
L 355.901789 222.906823 
L 357.597286 218.727558 
L 359.147585 214.489089 
L 360.550219 210.196321 
L 361.802882 205.854289 
L 362.903432 201.468148 
L 363.849903 197.043175 
L 364.640514 192.584759 
L 365.273678 188.098394 
L 365.74801 183.589676 
L 366.062337 179.06429 
L 366.215704 174.528 
L 366.215704 174.528 
" clip-path="url(#pe2c81386ee)" style="fill: none; stroke: #2ca02c; stroke-width: 1.5; stroke-linecap: square"/>
   </g>
   <g id="patch_3">
    <path d="M 369.216 174.528 
C 369.216 157.055246 365.774248 139.752393 359.087715 123.609673 
C 352.401182 107.466954 342.599903 92.798303 330.2448 80.4432 
C 317.889697 68.088097 303.221046 58.286818 287.078327 51.600285 
C 270.935607 44.913752 253.632754 41.472 236.16 41.472 
C 218.687246 41.472 201.384393 44.913752 185.241673 51.600285 
C 169.098954 58.286818 154.430303 68.088097 142.0752 80.4432 
C 129.720097 92.798303 119.918818 107.466954 113.232285 123.609673 
C 106.545752 139.752393 103.104 157.055246 103.104 174.528 
C 103.104 192.000754 106.545752 209.303607 113.232285 225.446327 
C 119.918818 241.589046 129.720097 256.257697 142.0752 268.6128 
C 154.430303 280.967903 169.098954 290.769182 185.241673 297.455715 
C 201.384393 304.142248 218.687246 307.584 236.16 307.584 
C 253.632754 307.584 270.935607 304.142248 287.078327 297.455715 
C 303.221046 290.769182 317.889697 280.967903 330.2448 268.6128 
C 342.599903 256.257697 352.401182 241.589046 359.087715 225.446327 
C 365.774248 209.303607 369.216 192.000754 369.216 174.528 
" style="fill: none; stroke: #000000; stroke-width: 0.8; stroke-linejoin: miter; stroke-linecap: square"/>
   </g>
   <g id="text_14">
    <!-- Polarization Pattern -->
    <g transform="translate(177.800625 14.137312) scale(0.12 -0.12)">
     <defs>
      <path id="DejaVuSans-50" d="M 1259 4147 
L 1259 2394 
L 2053 2394 
Q 2494 2394 2734 2622 
Q 2975 2850 2975 3272 
Q 2975 3691 2734 3919 
Q 2494 4147 2053 4147 
L 1259 4147 
z
M 628 4666 
L 2053 4666 
Q 2838 4666 3239 4311 
Q 3641 3956 3641 3272 
Q 3641 2581 3239 2228 
Q 2838 1875 2053 1875 
L 1259 1875 
L 1259 0 
L 628 0 
L 628 4666 
z
" transform="scale(0.015625)"/>
      <path id="DejaVuSans-6f" d="M 1959 3097 
Q 1497 3097 1228 2736 
Q 959 2375 959 1747 
Q 959 1119 1226 758 
Q 1494 397 1959 397 
Q 2419 397 2687 759 
Q 2956 1122 2956 1747 
Q 2956 2369 2687 2733 
Q 2419 3097 1959 3097 
z
M 1959 3584 
Q 2709 3584 3137 3096 
Q 3566 2609 3566 1747 
Q 3566 888 3137 398 
Q 2709 -91 1959 -91 
Q 1206 -91 779 398 
Q 353 888 353 1747 
Q 353 2609 779 3096 
Q 1206 3584 1959 3584 
z
" transform="scale(0.015625)"/>
      <path id="DejaVuSans-6c" d="M 603 4863 
L 1178 4863 
L 1178 0 
L 603 0 
L 603 4863 
z
" transform="scale(0.015625)"/>
      <path id="DejaVuSans-61" d="M 2194 1759 
Q 1497 1759 1228 1600 
Q 959 1441 959 1056 
Q 959 750 1161 570 
Q 1363 391 1709 391 
Q 2188 391 2477 730 
Q 2766 1069 2766 1631 
L 2766 1759 
L 2194 1759 
z
M 3341 1997 
L 3341 0 
L 2766 0 
L 2766 531 
Q 2569 213 2275 61 
Q 1981 -91 1556 -91 
Q 1019 -91 701 211 
Q 384 513 384 1019 
Q 384 1609 779 1909 
Q 1175 2209 1959 2209 
L 2766 2209 
L 2766 2266 
Q 2766 2663 2505 2880 
Q 2244 3097 1772 3097 
Q 1472 3097 1187 3025 
Q 903 2953 641 2809 
L 641 3341 
Q 956 3463 1253 3523 
Q 1550 3584 1831 3584 
Q 2591 3584 2966 3190 
Q 3341 2797 3341 1997 
z
" transform="scale(0.015625)"/>
      <path id="DejaVuSans-72" d="M 2631 2963 
Q 2534 3019 2420 3045 
Q 2306 3072 2169 3072 
Q 1681 3072 1420 2755 
Q 1159 2438 1159 1844 
L 1159 0 
L 581 0 
L 581 3500 
L 1159 3500 
L 1159 2956 
Q 1341 3275 1631 3429 
Q 1922 3584 2338 3584 
Q 2397 3584 2469 3576 
Q 2541 3569 2628 3553 
L 2631 2963 
z
" transform="scale(0.015625)"/>
      <path id="DejaVuSans-69" d="M 603 3500 
L 1178 3500 
L 1178 0 
L 603 0 
L 603 3500 
z
M 603 4863 
L 1178 4863 
L 1178 4134 
L 603 4134 
L 603 4863 
z
" transform="scale(0.015625)"/>
      <path id="DejaVuSans-7a" d="M 353 3500 
L 3084 3500 
L 3084 2975 
L 922 459 
L 3084 459 
L 3084 0 
L 275 0 
L 275 525 
L 2438 3041 
L 353 3041 
L 353 3500 
z
" transform="scale(0.015625)"/>
      <path id="DejaVuSans-74" d="M 1172 4494 
L 1172 3500 
L 2356 3500 
L 2356 3053 
L 1172 3053 
L 1172 1153 
Q 1172 725 1289 603 
Q 1406 481 1766 481 
L 2356 481 
L 2356 0 
L 1766 0 
Q 1100 0 847 248 
Q 594 497 594 1153 
L 594 3053 
L 172 3053 
L 172 3500 
L 594 3500 
L 594 4494 
L 1172 4494 
z
" transform="scale(0.015625)"/>
      <path id="DejaVuSans-6e" d="M 3513 2113 
L 3513 0 
L 2938 0 
L 2938 2094 
Q 2938 2591 2744 2837 
Q 2550 3084 2163 3084 
Q 1697 3084 1428 2787 
Q 1159 2491 1159 1978 
L 1159 0 
L 581 0 
L 581 3500 
L 1159 3500 
L 1159 2956 
Q 1366 3272 1645 3428 
Q 1925 3584 2291 3584 
Q 2894 3584 3203 3211 
Q 3513 2838 3513 2113 
z
" transform="scale(0.015625)"/>
      <path id="DejaVuSans-20" transform="scale(0.015625)"/>
      <path id="DejaVuSans-65" d="M 3597 1894 
L 3597 1613 
L 953 1613 
Q 991 1019 1311 708 
Q 1631 397 2203 397 
Q 2534 397 2845 478 
Q 3156 559 3463 722 
L 3463 178 
Q 3153 47 2828 -22 
Q 2503 -91 2169 -91 
Q 1331 -91 842 396 
Q 353 884 353 1716 
Q 353 2575 817 3079 
Q 1281 3584 2069 3584 
Q 2775 3584 3186 3129 
Q 3597 2675 3597 1894 
z
M 3022 2063 
Q 3016 2534 2758 2815 
Q 2500 3097 2075 3097 
Q 1594 3097 1305 2825 
Q 1016 2553 972 2059 
L 3022 2063 
z
" transform="scale(0.015625)"/>
     </defs>
     <use xlink:href="#DejaVuSans-50"/>
     <use xlink:href="#DejaVuSans-6f" x="56.677734"/>
     <use xlink:href="#DejaVuSans-6c" x="117.859375"/>
     <use xlink:href="#DejaVuSans-61" x="145.642578"/>
     <use xlink:href="#DejaVuSans-72" x="206.921875"/>
     <use xlink:href="#DejaVuSans-69" x="248.035156"/>
     <use xlink:href="#DejaVuSans-7a" x="275.818359"/>
     <use xlink:href="#DejaVuSans-61" x="328.308594"/>
     <use xlink:href="#DejaVuSans-74" x="389.587891"/>
     <use xlink:href="#DejaVuSans-69" x="428.796875"/>
     <use xlink:href="#DejaVuSans-6f" x="456.580078"/>
     <use xlink:href="#DejaVuSans-6e" x="517.761719"/>
     <use xlink:href="#DejaVuSans-20" x="581.140625"/>
     <use xlink:href="#DejaVuSans-50" x="612.927734"/>
     <use xlink:href="#DejaVuSans-61" x="668.730469"/>
     <use xlink:href="#DejaVuSans-74" x="730.009766"/>
     <use xlink:href="#DejaVuSans-74" x="769.21875"/>
     <use xlink:href="#DejaVuSans-65" x="808.427734"/>
     <use xlink:href="#DejaVuSans-72" x="869.951172"/>
     <use xlink:href="#DejaVuSans-6e" x="909.314453"/>
    </g>
   </g>
   <g id="legend_1">
    <g id="patch_4">
     <path d="M 107.304 85.37075 
L 139.863375 85.37075 
Q 141.063375 85.37075 141.063375 84.17075 
L 141.063375 45.672 
Q 141.063375 44.472 139.863375 44.472 
L 107.304 44.472 
Q 106.104 44.472 106.104 45.672 
L 106.104 84.17075 
Q 106.104 85.37075 107.304 85.37075 
z
" style="fill: #ffffff; opacity: 0.8; stroke: #cccccc; stroke-linejoin: miter"/>
    </g>
    <g id="text_15">
     <!-- H -->
     <g transform="translate(119.823531 54.470438) scale(0.1 -0.1)">
      <defs>
       <path id="DejaVuSans-48" d="M 628 4666 
L 1259 4666 
L 1259 2753 
L 3553 2753 
L 3553 4666 
L 4184 4666 
L 4184 0 
L 3553 0 
L 3553 2222 
L 1259 2222 
L 1259 0 
L 628 0 
L 628 4666 
z
" transform="scale(0.015625)"/>
      </defs>
      <use xlink:href="#DejaVuSans-48"/>
     </g>
    </g>
    <g id="line2d_17">
     <path d="M 108.504 62.009188 
L 114.504 62.009188 
L 120.504 62.009188 
" style="fill: none; stroke: #1f77b4; stroke-width: 1.5; stroke-linecap: square"/>
    </g>
    <g id="text_16">
     <!-- 0.24 -->
     <g transform="translate(125.304 64.109188) scale(0.06 -0.06)">
      <use xlink:href="#DejaVuSans-30"/>
      <use xlink:href="#DejaVuSans-2e" x="63.623047"/>
      <use xlink:href="#DejaVuSans-32" x="95.410156"/>
      <use xlink:href="#DejaVuSans-34" x="159.033203"/>
     </g>
    </g>
    <g id="line2d_18">
     <path d="M 108.504 70.816063 
L 114.504 70.816063 
L 120.504 70.816063 
" style="fill: none; stroke: #ff7f0e; stroke-width: 1.5; stroke-linecap: square"/>
    </g>
    <g id="text_17">
     <!-- 0.42 -->
     <g transform="translate(125.304 72.916063) scale(0.06 -0.06)">
      <use xlink:href="#DejaVuSans-30"/>
      <use xlink:href="#DejaVuSans-2e" x="63.623047"/>
      <use xlink:href="#DejaVuSans-34" x="95.410156"/>
      <use xlink:href="#DejaVuSans-32" x="159.033203"/>
     </g>
    </g>
    <g id="line2d_19">
     <path d="M 108.504 79.622938 
L 114.504 79.622938 
L 120.504 79.622938 
" style="fill: none; stroke: #2ca02c; stroke-width: 1.5; stroke-linecap: square"/>
    </g>
    <g id="text_18">
     <!-- 0.59 -->
     <g transform="translate(125.304 81.722938) scale(0.06 -0.06)">
      <use xlink:href="#DejaVuSans-30"/>
      <use xlink:href="#DejaVuSans-2e" x="63.623047"/>
      <use xlink:href="#DejaVuSans-35" x="95.410156"/>
      <use xlink:href="#DejaVuSans-39" x="159.033203"/>
     </g>
    </g>
   </g>
  </g>
 </g>
 <defs>
  <clipPath id="pe2c81386ee">
   <path d="M 369.216 174.528 
C 369.216 157.055246 365.774248 139.752393 359.087715 123.609673 
C 352.401182 107.466954 342.599903 92.798303 330.2448 80.4432 
C 317.889697 68.088097 303.221046 58.286818 287.078327 51.600285 
C 270.935607 44.913752 253.632754 41.472 236.16 41.472 
C 218.687246 41.472 201.384393 44.913752 185.241673 51.600285 
C 169.098954 58.286818 154.430303 68.088097 142.0752 80.4432 
C 129.720097 92.798303 119.918818 107.466954 113.232285 123.609673 
C 106.545752 139.752393 103.104 157.055246 103.104 174.528 
C 103.104 192.000754 106.545752 209.303607 113.232285 225.446327 
C 119.918818 241.589046 129.720097 256.257697 142.0752 268.6128 
C 154.430303 280.967903 169.098954 290.769182 185.241673 297.455715 
C 201.384393 304.142248 218.687246 307.584 236.16 307.584 
C 253.632754 307.584 270.935607 304.142248 287.078327 297.455715 
C 303.221046 290.769182 317.889697 280.967903 330.2448 268.6128 
C 342.599903 256.257697 352.401182 241.589046 359.087715 225.446327 
C 365.774248 209.303607 369.216 192.000754 369.216 174.528 
M 236.16 174.528 
C 236.16 174.528 236.16 174.528 236.16 174.528 
C 236.16 174.528 236.16 174.528 236.16 174.528 
C 236.16 174.528 236.16 174.528 236.16 174.528 
C 236.16 174.528 236.16 174.528 236.16 174.528 
C 236.16 174.528 236.16 174.528 236.16 174.528 
C 236.16 174.528 236.16 174.528 236.16 174.528 
C 236.16 174.528 236.16 174.528 236.16 174.528 
C 236.16 174.528 236.16 174.528 236.16 174.528 
C 236.16 174.528 236.16 174.528 236.16 174.528 
C 236.16 174.528 236.16 174.528 236.16 174.528 
C 236.16 174.528 236.16 174.528 236.16 174.528 
C 236.16 174.528 236.16 174.528 236.16 174.528 
C 236.16 174.528 236.16 174.528 236.16 174.528 
C 236.16 174.528 236.16 174.528 236.16 174.528 
C 236.16 174.528 236.16 174.528 236.16 174.528 
C 236.16 174.528 236.16 174.528 236.16 174.528 
z
"/>
  </clipPath>
 </defs>
</svg>
