<?xml version="1.0" encoding="utf-8" standalone="no"?>
<!DOCTYPE svg PUBLIC "-//W3C//DTD SVG 1.1//EN"
  "http://www.w3.org/Graphics/SVG/1.1/DTD/svg11.dtd">
<svg xmlns:xlink="http://www.w3.org/1999/xlink" width="460.8pt" height="345.6pt" viewBox="0 0 460.8 345.6" xmlns="http://www.w3.org/2000/svg" version="1.1">
 <metadata>
  <rdf:RDF xmlns:dc="http://purl.org/dc/elements/1.1/" xmlns:cc="http://creativecommons.org/ns#" xmlns:rdf="http://www.w3.org/1999/02/22-rdf-syntax-ns#">
   <cc:Work>
    <dc:type rdf:resource="http://purl.org/dc/dcmitype/StillImage"/>
    <dc:date>2025-03-14T09:30:01.605134</dc:date>
    <dc:format>image/svg+xml</dc:format>
    <dc:creator>
     <cc:Agent>
      <dc:title>Matplotlib v3.9.2, https://matplotlib.org/</dc:title>
     </cc:Agent>
    </dc:creator>
   </cc:Work>
  </rdf:RDF>
 </metadata>
 <defs>
  <style type="text/css">*{stroke-linejoin: round; stroke-linecap: butt}</style>
 </defs>
 <g id="figure_1">
  <g id="patch_1">
   <path d="M 0 345.6 
L 460.8 345.6 
L 460.8 0 
L 0 0 
L 0 345.6 
z
" style="fill: none"/>
  </g>
  <g id="axes_1">
   <g id="patch_2">
    <path d="M 369.216 174.528 
C 369.216 157.055246 365.774248 139.752393 359.087715 123.609673 
C 352.401182 107.466954 342.599903 92.798303 330.2448 80.4432 
C 317.889697 68.088097 303.221046 58.286818 287.078327 51.600285 
C 270.935607 44.913752 253.632754 41.472 236.16 41.472 
C 218.687246 41.472 201.384393 44.913752 185.241673 51.600285 
C 169.098954 58.286818 154.430303 68.088097 142.0752 80.4432 
C 129.720097 92.798303 119.918818 107.466954 113.232285 123.609673 
C 106.545752 139.752393 103.104 157.055246 103.104 174.528 
C 103.104 192.000754 106.545752 209.303607 113.232285 225.446327 
C 119.918818 241.589046 129.720097 256.257697 142.0752 268.6128 
C 154.430303 280.967903 169.098954 290.769182 185.241673 297.455715 
C 201.384393 304.142248 218.687246 307.584 236.16 307.584 
C 253.632754 307.584 270.935607 304.142248 287.078327 297.455715 
C 303.221046 290.769182 317.889697 280.967903 330.2448 268.6128 
C 342.599903 256.257697 352.401182 241.589046 359.087715 225.446327 
C 365.774248 209.303607 369.216 192.000754 369.216 174.528 
M 236.16 174.528 
C 236.16 174.528 236.16 174.528 236.16 174.528 
C 236.16 174.528 236.16 174.528 236.16 174.528 
C 236.16 174.528 236.16 174.528 236.16 174.528 
C 236.16 174.528 236.16 174.528 236.16 174.528 
C 236.16 174.528 236.16 174.528 236.16 174.528 
C 236.16 174.528 236.16 174.528 236.16 174.528 
C 236.16 174.528 236.16 174.528 236.16 174.528 
C 236.16 174.528 236.16 174.528 236.16 174.528 
C 236.16 174.528 236.16 174.528 236.16 174.528 
C 236.16 174.528 236.16 174.528 236.16 174.528 
C 236.16 174.528 236.16 174.528 236.16 174.528 
C 236.16 174.528 236.16 174.528 236.16 174.528 
C 236.16 174.528 236.16 174.528 236.16 174.528 
C 236.16 174.528 236.16 174.528 236.16 174.528 
C 236.16 174.528 236.16 174.528 236.16 174.528 
C 236.16 174.528 236.16 174.528 236.16 174.528 
L 236.16 174.528 
z
" style="fill: none"/>
   </g>
   <g id="matplotlib.axis_1">
    <g id="xtick_1">
     <g id="line2d_1">
      <path d="M 236.16 174.528 
L 369.216 174.528 
" clip-path="url(#p49e4673a46)" style="fill: none; stroke: #b0b0b0; stroke-width: 0.8; stroke-linecap: square"/>
     </g>
     <g id="text_1">
      <!-- 0° -->
      <g transform="translate(377.53475 177.287375) scale(0.1 -0.1)">
       <defs>
        <path id="DejaVuSans-30" d="M 2034 4250 
Q 1547 4250 1301 3770 
Q 1056 3291 1056 2328 
Q 1056 1369 1301 889 
Q 1547 409 2034 409 
Q 2525 409 2770 889 
Q 3016 1369 3016 2328 
Q 3016 3291 2770 3770 
Q 2525 4250 2034 4250 
z
M 2034 4750 
Q 2819 4750 3233 4129 
Q 3647 3509 3647 2328 
Q 3647 1150 3233 529 
Q 2819 -91 2034 -91 
Q 1250 -91 836 529 
Q 422 1150 422 2328 
Q 422 3509 836 4129 
Q 1250 4750 2034 4750 
z
" transform="scale(0.015625)"/>
        <path id="DejaVuSans-b0" d="M 1600 4347 
Q 1350 4347 1178 4173 
Q 1006 4000 1006 3750 
Q 1006 3503 1178 3333 
Q 1350 3163 1600 3163 
Q 1850 3163 2022 3333 
Q 2194 3503 2194 3750 
Q 2194 3997 2020 4172 
Q 1847 4347 1600 4347 
z
M 1600 4750 
Q 1800 4750 1984 4673 
Q 2169 4597 2303 4453 
Q 2447 4313 2519 4134 
Q 2591 3956 2591 3750 
Q 2591 3338 2302 3052 
Q 2013 2766 1594 2766 
Q 1172 2766 890 3047 
Q 609 3328 609 3750 
Q 609 4169 896 4459 
Q 1184 4750 1600 4750 
z
" transform="scale(0.015625)"/>
       </defs>
       <use xlink:href="#DejaVuSans-30"/>
       <use xlink:href="#DejaVuSans-b0" x="63.623047"/>
      </g>
     </g>
    </g>
    <g id="xtick_2">
     <g id="line2d_2">
      <path d="M 236.16 174.528 
L 330.2448 80.4432 
" clip-path="url(#p49e4673a46)" style="fill: none; stroke: #b0b0b0; stroke-width: 0.8; stroke-linecap: square"/>
     </g>
     <g id="text_2">
      <!-- 45° -->
      <g transform="translate(331.281795 73.30308) scale(0.1 -0.1)">
       <defs>
        <path id="DejaVuSans-34" d="M 2419 4116 
L 825 1625 
L 2419 1625 
L 2419 4116 
z
M 2253 4666 
L 3047 4666 
L 3047 1625 
L 3713 1625 
L 3713 1100 
L 3047 1100 
L 3047 0 
L 2419 0 
L 2419 1100 
L 313 1100 
L 313 1709 
L 2253 4666 
z
" transform="scale(0.015625)"/>
        <path id="DejaVuSans-35" d="M 691 4666 
L 3169 4666 
L 3169 4134 
L 1269 4134 
L 1269 2991 
Q 1406 3038 1543 3061 
Q 1681 3084 1819 3084 
Q 2600 3084 3056 2656 
Q 3513 2228 3513 1497 
Q 3513 744 3044 326 
Q 2575 -91 1722 -91 
Q 1428 -91 1123 -41 
Q 819 9 494 109 
L 494 744 
Q 775 591 1075 516 
Q 1375 441 1709 441 
Q 2250 441 2565 725 
Q 2881 1009 2881 1497 
Q 2881 1984 2565 2268 
Q 2250 2553 1709 2553 
Q 1456 2553 1204 2497 
Q 953 2441 691 2322 
L 691 4666 
z
" transform="scale(0.015625)"/>
       </defs>
       <use xlink:href="#DejaVuSans-34"/>
       <use xlink:href="#DejaVuSans-35" x="63.623047"/>
       <use xlink:href="#DejaVuSans-b0" x="127.246094"/>
      </g>
     </g>
    </g>
    <g id="xtick_3">
     <g id="line2d_3">
      <path d="M 236.16 174.528 
L 236.16 41.472 
" clip-path="url(#p49e4673a46)" style="fill: none; stroke: #b0b0b0; stroke-width: 0.8; stroke-linecap: square"/>
     </g>
     <g id="text_3">
      <!-- 90° -->
      <g transform="translate(227.2975 30.231375) scale(0.1 -0.1)">
       <defs>
        <path id="DejaVuSans-39" d="M 703 97 
L 703 672 
Q 941 559 1184 500 
Q 1428 441 1663 441 
Q 2288 441 2617 861 
Q 2947 1281 2994 2138 
Q 2813 1869 2534 1725 
Q 2256 1581 1919 1581 
Q 1219 1581 811 2004 
Q 403 2428 403 3163 
Q 403 3881 828 4315 
Q 1253 4750 1959 4750 
Q 2769 4750 3195 4129 
Q 3622 3509 3622 2328 
Q 3622 1225 3098 567 
Q 2575 -91 1691 -91 
Q 1453 -91 1209 -44 
Q 966 3 703 97 
z
M 1959 2075 
Q 2384 2075 2632 2365 
Q 2881 2656 2881 3163 
Q 2881 3666 2632 3958 
Q 2384 4250 1959 4250 
Q 1534 4250 1286 3958 
Q 1038 3666 1038 3163 
Q 1038 2656 1286 2365 
Q 1534 2075 1959 2075 
z
" transform="scale(0.015625)"/>
       </defs>
       <use xlink:href="#DejaVuSans-39"/>
       <use xlink:href="#DejaVuSans-30" x="63.623047"/>
       <use xlink:href="#DejaVuSans-b0" x="127.246094"/>
      </g>
     </g>
    </g>
    <g id="xtick_4">
     <g id="line2d_4">
      <path d="M 236.16 174.528 
L 142.0752 80.4432 
" clip-path="url(#p49e4673a46)" style="fill: none; stroke: #b0b0b0; stroke-width: 0.8; stroke-linecap: square"/>
     </g>
     <g id="text_4">
      <!-- 135° -->
      <g transform="translate(120.131955 73.30308) scale(0.1 -0.1)">
       <defs>
        <path id="DejaVuSans-31" d="M 794 531 
L 1825 531 
L 1825 4091 
L 703 3866 
L 703 4441 
L 1819 4666 
L 2450 4666 
L 2450 531 
L 3481 531 
L 3481 0 
L 794 0 
L 794 531 
z
" transform="scale(0.015625)"/>
        <path id="DejaVuSans-33" d="M 2597 2516 
Q 3050 2419 3304 2112 
Q 3559 1806 3559 1356 
Q 3559 666 3084 287 
Q 2609 -91 1734 -91 
Q 1441 -91 1130 -33 
Q 819 25 488 141 
L 488 750 
Q 750 597 1062 519 
Q 1375 441 1716 441 
Q 2309 441 2620 675 
Q 2931 909 2931 1356 
Q 2931 1769 2642 2001 
Q 2353 2234 1838 2234 
L 1294 2234 
L 1294 2753 
L 1863 2753 
Q 2328 2753 2575 2939 
Q 2822 3125 2822 3475 
Q 2822 3834 2567 4026 
Q 2313 4219 1838 4219 
Q 1578 4219 1281 4162 
Q 984 4106 628 3988 
L 628 4550 
Q 988 4650 1302 4700 
Q 1616 4750 1894 4750 
Q 2613 4750 3031 4423 
Q 3450 4097 3450 3541 
Q 3450 3153 3228 2886 
Q 3006 2619 2597 2516 
z
" transform="scale(0.015625)"/>
       </defs>
       <use xlink:href="#DejaVuSans-31"/>
       <use xlink:href="#DejaVuSans-33" x="63.623047"/>
       <use xlink:href="#DejaVuSans-35" x="127.246094"/>
       <use xlink:href="#DejaVuSans-b0" x="190.869141"/>
      </g>
     </g>
    </g>
    <g id="xtick_5">
     <g id="line2d_5">
      <path d="M 236.16 174.528 
L 103.104 174.528 
" clip-path="url(#p49e4673a46)" style="fill: none; stroke: #b0b0b0; stroke-width: 0.8; stroke-linecap: square"/>
     </g>
     <g id="text_5">
      <!-- 180° -->
      <g transform="translate(77.06025 177.287375) scale(0.1 -0.1)">
       <defs>
        <path id="DejaVuSans-38" d="M 2034 2216 
Q 1584 2216 1326 1975 
Q 1069 1734 1069 1313 
Q 1069 891 1326 650 
Q 1584 409 2034 409 
Q 2484 409 2743 651 
Q 3003 894 3003 1313 
Q 3003 1734 2745 1975 
Q 2488 2216 2034 2216 
z
M 1403 2484 
Q 997 2584 770 2862 
Q 544 3141 544 3541 
Q 544 4100 942 4425 
Q 1341 4750 2034 4750 
Q 2731 4750 3128 4425 
Q 3525 4100 3525 3541 
Q 3525 3141 3298 2862 
Q 3072 2584 2669 2484 
Q 3125 2378 3379 2068 
Q 3634 1759 3634 1313 
Q 3634 634 3220 271 
Q 2806 -91 2034 -91 
Q 1263 -91 848 271 
Q 434 634 434 1313 
Q 434 1759 690 2068 
Q 947 2378 1403 2484 
z
M 1172 3481 
Q 1172 3119 1398 2916 
Q 1625 2713 2034 2713 
Q 2441 2713 2670 2916 
Q 2900 3119 2900 3481 
Q 2900 3844 2670 4047 
Q 2441 4250 2034 4250 
Q 1625 4250 1398 4047 
Q 1172 3844 1172 3481 
z
" transform="scale(0.015625)"/>
       </defs>
       <use xlink:href="#DejaVuSans-31"/>
       <use xlink:href="#DejaVuSans-38" x="63.623047"/>
       <use xlink:href="#DejaVuSans-30" x="127.246094"/>
       <use xlink:href="#DejaVuSans-b0" x="190.869141"/>
      </g>
     </g>
    </g>
    <g id="xtick_6">
     <g id="line2d_6">
      <path d="M 236.16 174.528 
L 142.0752 268.6128 
" clip-path="url(#p49e4673a46)" style="fill: none; stroke: #b0b0b0; stroke-width: 0.8; stroke-linecap: square"/>
     </g>
     <g id="text_6">
      <!-- 225° -->
      <g transform="translate(120.131955 281.27167) scale(0.1 -0.1)">
       <defs>
        <path id="DejaVuSans-32" d="M 1228 531 
L 3431 531 
L 3431 0 
L 469 0 
L 469 531 
Q 828 903 1448 1529 
Q 2069 2156 2228 2338 
Q 2531 2678 2651 2914 
Q 2772 3150 2772 3378 
Q 2772 3750 2511 3984 
Q 2250 4219 1831 4219 
Q 1534 4219 1204 4116 
Q 875 4013 500 3803 
L 500 4441 
Q 881 4594 1212 4672 
Q 1544 4750 1819 4750 
Q 2544 4750 2975 4387 
Q 3406 4025 3406 3419 
Q 3406 3131 3298 2873 
Q 3191 2616 2906 2266 
Q 2828 2175 2409 1742 
Q 1991 1309 1228 531 
z
" transform="scale(0.015625)"/>
       </defs>
       <use xlink:href="#DejaVuSans-32"/>
       <use xlink:href="#DejaVuSans-32" x="63.623047"/>
       <use xlink:href="#DejaVuSans-35" x="127.246094"/>
       <use xlink:href="#DejaVuSans-b0" x="190.869141"/>
      </g>
     </g>
    </g>
    <g id="xtick_7">
     <g id="line2d_7">
      <path d="M 236.16 174.528 
L 236.16 307.584 
" clip-path="url(#p49e4673a46)" style="fill: none; stroke: #b0b0b0; stroke-width: 0.8; stroke-linecap: square"/>
     </g>
     <g id="text_7">
      <!-- 270° -->
      <g transform="translate(224.11625 324.343375) scale(0.1 -0.1)">
       <defs>
        <path id="DejaVuSans-37" d="M 525 4666 
L 3525 4666 
L 3525 4397 
L 1831 0 
L 1172 0 
L 2766 4134 
L 525 4134 
L 525 4666 
z
" transform="scale(0.015625)"/>
       </defs>
       <use xlink:href="#DejaVuSans-32"/>
       <use xlink:href="#DejaVuSans-37" x="63.623047"/>
       <use xlink:href="#DejaVuSans-30" x="127.246094"/>
       <use xlink:href="#DejaVuSans-b0" x="190.869141"/>
      </g>
     </g>
    </g>
    <g id="xtick_8">
     <g id="line2d_8">
      <path d="M 236.16 174.528 
L 330.2448 268.6128 
" clip-path="url(#p49e4673a46)" style="fill: none; stroke: #b0b0b0; stroke-width: 0.8; stroke-linecap: square"/>
     </g>
     <g id="text_8">
      <!-- 315° -->
      <g transform="translate(328.100545 281.27167) scale(0.1 -0.1)">
       <use xlink:href="#DejaVuSans-33"/>
       <use xlink:href="#DejaVuSans-31" x="63.623047"/>
       <use xlink:href="#DejaVuSans-35" x="127.246094"/>
       <use xlink:href="#DejaVuSans-b0" x="190.869141"/>
      </g>
     </g>
    </g>
   </g>
   <g id="matplotlib.axis_2">
    <g id="ytick_1">
     <g id="line2d_9">
      <path d="M 261.63409 174.528 
C 261.63409 171.182773 260.975153 167.870074 259.69499 164.779488 
C 258.414827 161.688901 256.538334 158.880531 254.172902 156.515098 
C 251.807469 154.149666 248.999099 152.273173 245.908512 150.99301 
C 242.817926 149.712847 239.505227 149.05391 236.16 149.05391 
C 232.814773 149.05391 229.502074 149.712847 226.411488 150.99301 
C 223.320901 152.273173 220.512531 154.149666 218.147098 156.515098 
C 215.781666 158.880531 213.905173 161.688901 212.62501 164.779488 
C 211.344847 167.870074 210.68591 171.182773 210.68591 174.528 
C 210.68591 177.873227 211.344847 181.185926 212.62501 184.276512 
C 213.905173 187.367099 215.781666 190.175469 218.147098 192.540902 
C 220.512531 194.906334 223.320901 196.782827 226.411488 198.06299 
C 229.502074 199.343153 232.814773 200.00209 236.16 200.00209 
C 239.505227 200.00209 242.817926 199.343153 245.908512 198.06299 
C 248.999099 196.782827 251.807469 194.906334 254.172902 192.540902 
C 256.538334 190.175469 258.414827 187.367099 259.69499 184.276512 
C 260.975153 181.185926 261.63409 177.873227 261.63409 174.528 
" clip-path="url(#p49e4673a46)" style="fill: none; stroke: #b0b0b0; stroke-width: 0.8; stroke-linecap: square"/>
     </g>
     <g id="text_9">
      <!-- 0.2 -->
      <g transform="translate(259.69499 182.196825) scale(0.1 -0.1)">
       <defs>
        <path id="DejaVuSans-2e" d="M 684 794 
L 1344 794 
L 1344 0 
L 684 0 
L 684 794 
z
" transform="scale(0.015625)"/>
       </defs>
       <use xlink:href="#DejaVuSans-30"/>
       <use xlink:href="#DejaVuSans-2e" x="63.623047"/>
       <use xlink:href="#DejaVuSans-32" x="95.410156"/>
      </g>
     </g>
    </g>
    <g id="ytick_2">
     <g id="line2d_10">
      <path d="M 287.10818 174.528 
C 287.10818 167.837546 285.790306 161.212149 283.22998 155.030976 
C 280.669655 148.849803 276.916669 143.233062 272.185803 138.502197 
C 267.454938 133.771331 261.838197 130.018345 255.657024 127.45802 
C 249.475851 124.897694 242.850454 123.57982 236.16 123.57982 
C 229.469546 123.57982 222.844149 124.897694 216.662976 127.45802 
C 210.481803 130.018345 204.865062 133.771331 200.134197 138.502197 
C 195.403331 143.233062 191.650345 148.849803 189.09002 155.030976 
C 186.529694 161.212149 185.21182 167.837546 185.21182 174.528 
C 185.21182 181.218454 186.529694 187.843851 189.09002 194.025024 
C 191.650345 200.206197 195.403331 205.822938 200.134197 210.553803 
C 204.865062 215.284669 210.481803 219.037655 216.662976 221.59798 
C 222.844149 224.158306 229.469546 225.47618 236.16 225.47618 
C 242.850454 225.47618 249.475851 224.158306 255.657024 221.59798 
C 261.838197 219.037655 267.454938 215.284669 272.185803 210.553803 
C 276.916669 205.822938 280.669655 200.206197 283.22998 194.025024 
C 285.790306 187.843851 287.10818 181.218454 287.10818 174.528 
" clip-path="url(#p49e4673a46)" style="fill: none; stroke: #b0b0b0; stroke-width: 0.8; stroke-linecap: square"/>
     </g>
     <g id="text_10">
      <!-- 0.4 -->
      <g transform="translate(283.22998 191.945337) scale(0.1 -0.1)">
       <use xlink:href="#DejaVuSans-30"/>
       <use xlink:href="#DejaVuSans-2e" x="63.623047"/>
       <use xlink:href="#DejaVuSans-34" x="95.410156"/>
      </g>
     </g>
    </g>
    <g id="ytick_3">
     <g id="line2d_11">
      <path d="M 312.58227 174.528 
C 312.58227 164.49232 310.605459 154.554223 306.764971 145.282464 
C 302.924482 136.010704 297.295003 127.585593 290.198705 120.489295 
C 283.102407 113.392997 274.677296 107.763518 265.405536 103.923029 
C 256.133777 100.082541 246.19568 98.10573 236.16 98.10573 
C 226.12432 98.10573 216.186223 100.082541 206.914464 103.923029 
C 197.642704 107.763518 189.217593 113.392997 182.121295 120.489295 
C 175.024997 127.585593 169.395518 136.010704 165.555029 145.282464 
C 161.714541 154.554223 159.73773 164.49232 159.73773 174.528 
C 159.73773 184.56368 161.714541 194.501777 165.555029 203.773536 
C 169.395518 213.045296 175.024997 221.470407 182.121295 228.566705 
C 189.217593 235.663003 197.642704 241.292482 206.914464 245.132971 
C 216.186223 248.973459 226.12432 250.95027 236.16 250.95027 
C 246.19568 250.95027 256.133777 248.973459 265.405536 245.132971 
C 274.677296 241.292482 283.102407 235.663003 290.198705 228.566705 
C 297.295003 221.470407 302.924482 213.045296 306.764971 203.773536 
C 310.605459 194.501777 312.58227 184.56368 312.58227 174.528 
" clip-path="url(#p49e4673a46)" style="fill: none; stroke: #b0b0b0; stroke-width: 0.8; stroke-linecap: square"/>
     </g>
     <g id="text_11">
      <!-- 0.6 -->
      <g transform="translate(306.764971 201.693849) scale(0.1 -0.1)">
       <defs>
        <path id="DejaVuSans-36" d="M 2113 2584 
Q 1688 2584 1439 2293 
Q 1191 2003 1191 1497 
Q 1191 994 1439 701 
Q 1688 409 2113 409 
Q 2538 409 2786 701 
Q 3034 994 3034 1497 
Q 3034 2003 2786 2293 
Q 2538 2584 2113 2584 
z
M 3366 4563 
L 3366 3988 
Q 3128 4100 2886 4159 
Q 2644 4219 2406 4219 
Q 1781 4219 1451 3797 
Q 1122 3375 1075 2522 
Q 1259 2794 1537 2939 
Q 1816 3084 2150 3084 
Q 2853 3084 3261 2657 
Q 3669 2231 3669 1497 
Q 3669 778 3244 343 
Q 2819 -91 2113 -91 
Q 1303 -91 875 529 
Q 447 1150 447 2328 
Q 447 3434 972 4092 
Q 1497 4750 2381 4750 
Q 2619 4750 2861 4703 
Q 3103 4656 3366 4563 
z
" transform="scale(0.015625)"/>
       </defs>
       <use xlink:href="#DejaVuSans-30"/>
       <use xlink:href="#DejaVuSans-2e" x="63.623047"/>
       <use xlink:href="#DejaVuSans-36" x="95.410156"/>
      </g>
     </g>
    </g>
    <g id="ytick_4">
     <g id="line2d_12">
      <path d="M 338.056359 174.528 
C 338.056359 161.147093 335.420612 147.896298 330.299961 135.533951 
C 325.179309 123.171605 317.673337 111.938124 308.211607 102.476393 
C 298.749876 93.014663 287.516395 85.508691 275.154049 80.388039 
C 262.791702 75.267388 249.540907 72.631641 236.16 72.631641 
C 222.779093 72.631641 209.528298 75.267388 197.165951 80.388039 
C 184.803605 85.508691 173.570124 93.014663 164.108393 102.476393 
C 154.646663 111.938124 147.140691 123.171605 142.020039 135.533951 
C 136.899388 147.896298 134.263641 161.147093 134.263641 174.528 
C 134.263641 187.908907 136.899388 201.159702 142.020039 213.522049 
C 147.140691 225.884395 154.646663 237.117876 164.108393 246.579607 
C 173.570124 256.041337 184.803605 263.547309 197.165951 268.667961 
C 209.528298 273.788612 222.779093 276.424359 236.16 276.424359 
C 249.540907 276.424359 262.791702 273.788612 275.154049 268.667961 
C 287.516395 263.547309 298.749876 256.041337 308.211607 246.579607 
C 317.673337 237.117876 325.179309 225.884395 330.299961 213.522049 
C 335.420612 201.159702 338.056359 187.908907 338.056359 174.528 
" clip-path="url(#p49e4673a46)" style="fill: none; stroke: #b0b0b0; stroke-width: 0.8; stroke-linecap: square"/>
     </g>
     <g id="text_12">
      <!-- 0.8 -->
      <g transform="translate(330.299961 211.442361) scale(0.1 -0.1)">
       <use xlink:href="#DejaVuSans-30"/>
       <use xlink:href="#DejaVuSans-2e" x="63.623047"/>
       <use xlink:href="#DejaVuSans-38" x="95.410156"/>
      </g>
     </g>
    </g>
    <g id="ytick_5">
     <g id="line2d_13">
      <path d="M 363.530449 174.528 
C 363.530449 157.801866 360.235766 141.238372 353.834951 125.785439 
C 347.434137 110.332506 338.051671 96.290654 326.224508 84.463492 
C 314.397346 72.636329 300.355494 63.253863 284.902561 56.853049 
C 269.449628 50.452234 252.886134 47.157551 236.16 47.157551 
C 219.433866 47.157551 202.870372 50.452234 187.417439 56.853049 
C 171.964506 63.253863 157.922654 72.636329 146.095492 84.463492 
C 134.268329 96.290654 124.885863 110.332506 118.485049 125.785439 
C 112.084234 141.238372 108.789551 157.801866 108.789551 174.528 
C 108.789551 191.254134 112.084234 207.817628 118.485049 223.270561 
C 124.885863 238.723494 134.268329 252.765346 146.095492 264.592508 
C 157.922654 276.419671 171.964506 285.802137 187.417439 292.202951 
C 202.870372 298.603766 219.433866 301.898449 236.16 301.898449 
C 252.886134 301.898449 269.449628 298.603766 284.902561 292.202951 
C 300.355494 285.802137 314.397346 276.419671 326.224508 264.592508 
C 338.051671 252.765346 347.434137 238.723494 353.834951 223.270561 
C 360.235766 207.817628 363.530449 191.254134 363.530449 174.528 
" clip-path="url(#p49e4673a46)" style="fill: none; stroke: #b0b0b0; stroke-width: 0.8; stroke-linecap: square"/>
     </g>
     <g id="text_13">
      <!-- 1.0 -->
      <g transform="translate(353.834951 221.190873) scale(0.1 -0.1)">
       <use xlink:href="#DejaVuSans-31"/>
       <use xlink:href="#DejaVuSans-2e" x="63.623047"/>
       <use xlink:href="#DejaVuSans-30" x="95.410156"/>
      </g>
     </g>
    </g>
   </g>
   <g id="line2d_14">
    <path d="M 251.806995 174.528 
L 250.160279 174.039099 
L 249.800715 173.81312 
L 249.789901 173.574904 
L 250.126422 173.306096 
L 251.713034 172.618328 
L 257.200445 170.438152 
L 260.485689 168.911972 
L 263.888425 167.098191 
L 267.306994 165.005408 
L 270.672952 162.644238 
L 273.937175 160.026701 
L 277.062266 157.166018 
L 280.018361 154.076511 
L 282.780753 150.77354 
L 285.32852 147.273444 
L 287.643696 143.593475 
L 289.710777 139.751719 
L 291.516411 135.767023 
L 293.049204 131.65891 
L 294.299598 127.447482 
L 295.259794 123.153333 
L 295.923701 118.797447 
L 296.286898 114.401102 
L 296.34661 109.985763 
L 296.101681 105.572984 
L 295.552558 101.1843 
L 294.70126 96.841124 
L 293.551358 92.564647 
L 292.107939 88.375729 
L 290.377576 84.294801 
L 288.368281 80.341769 
L 286.089464 76.53591 
L 283.55188 72.895785 
L 280.767572 69.439147 
L 277.749806 66.182852 
L 274.513007 63.142779 
L 271.072685 60.333754 
L 267.445352 57.769477 
L 263.648447 55.462453 
L 259.700245 53.423936 
L 255.619767 51.663868 
L 251.426684 50.190837 
L 247.141224 49.012031 
L 242.784071 48.133205 
L 238.376258 47.558651 
L 233.939073 47.291181 
L 229.493946 47.332107 
L 225.062347 47.681244 
L 220.665681 48.336899 
L 216.325183 49.295892 
L 212.06181 50.553561 
L 207.896144 52.103791 
L 203.848286 53.939041 
L 199.937757 56.050383 
L 196.183407 58.427544 
L 192.603315 61.058955 
L 189.214703 63.931812 
L 186.033853 67.032132 
L 183.076021 70.344826 
L 180.355365 73.853773 
L 177.884868 77.541894 
L 175.676282 81.391241 
L 173.740056 85.383081 
L 172.085291 89.497989 
L 170.719686 93.715942 
L 169.649496 98.016417 
L 168.879498 102.378495 
L 168.412957 106.780957 
L 168.251601 111.202393 
L 168.395602 115.621307 
L 168.843559 120.016221 
L 169.592488 124.365782 
L 170.637809 128.648868 
L 171.973337 132.844694 
L 173.591274 136.932916 
L 175.482185 140.893738 
L 177.634975 144.70801 
L 180.036828 148.357335 
L 182.673131 151.824171 
L 185.527324 155.091937 
L 188.580674 158.145124 
L 191.811887 160.969421 
L 195.196481 163.551858 
L 198.705737 165.881002 
L 202.304904 167.947236 
L 205.950069 169.743217 
L 209.582553 171.2647 
L 213.118686 172.512146 
L 217.945002 173.891918 
L 222.159721 175.016901 
L 222.519285 175.24288 
L 222.530099 175.481096 
L 222.193578 175.749904 
L 220.606966 176.437672 
L 215.119555 178.617848 
L 211.834311 180.144028 
L 208.431575 181.957809 
L 205.013006 184.050592 
L 201.647048 186.411762 
L 198.382825 189.029299 
L 195.257734 191.889982 
L 192.301639 194.979489 
L 189.539247 198.28246 
L 186.99148 201.782556 
L 184.676304 205.462525 
L 182.609223 209.304281 
L 180.803589 213.288977 
L 179.270796 217.39709 
L 178.020402 221.608518 
L 177.060206 225.902667 
L 176.396299 230.258553 
L 176.033102 234.654898 
L 175.97339 239.070237 
L 176.218319 243.483016 
L 176.767442 247.8717 
L 177.61874 252.214876 
L 178.768642 256.491353 
L 180.212061 260.680271 
L 181.942424 264.761199 
L 183.951719 268.714231 
L 186.230536 272.52009 
L 188.76812 276.160215 
L 191.552428 279.616853 
L 194.570194 282.873148 
L 197.806993 285.913221 
L 201.247315 288.722246 
L 204.874648 291.286523 
L 208.671553 293.593547 
L 212.619755 295.632064 
L 216.700233 297.392132 
L 220.893316 298.865163 
L 225.178776 300.043969 
L 229.535929 300.922795 
L 233.943742 301.497349 
L 238.380927 301.764819 
L 242.826054 301.723893 
L 247.257653 301.374756 
L 251.654319 300.719101 
L 255.994817 299.760108 
L 260.25819 298.502439 
L 264.423856 296.952209 
L 268.471714 295.116959 
L 272.382243 293.005617 
L 276.136593 290.628456 
L 279.716685 287.997045 
L 283.105297 285.124188 
L 286.286147 282.023868 
L 289.243979 278.711174 
L 291.964635 275.202227 
L 294.435132 271.514106 
L 296.643718 267.664759 
L 298.579944 263.672919 
L 300.234709 259.558011 
L 301.600314 255.340058 
L 302.670504 251.039583 
L 303.440502 246.677505 
L 303.907043 242.275043 
L 304.068399 237.853607 
L 303.924398 233.434693 
L 303.476441 229.039779 
L 302.727512 224.690218 
L 301.682191 220.407132 
L 300.346663 216.211306 
L 298.728726 212.123084 
L 296.837815 208.162262 
L 294.685025 204.34799 
L 292.283172 200.698665 
L 289.646869 197.231829 
L 286.792676 193.964063 
L 283.739326 190.910876 
L 280.508113 188.086579 
L 277.123519 185.504142 
L 273.614263 183.174998 
L 270.015096 181.108764 
L 266.369931 179.312783 
L 262.737447 177.7913 
L 259.201314 176.543854 
L 254.374998 175.164082 
L 251.806995 174.528 
L 251.806995 174.528 
" clip-path="url(#p49e4673a46)" style="fill: none; stroke: #1f77b4; stroke-width: 1.5; stroke-linecap: square"/>
   </g>
   <g id="line2d_15">
    <path d="M 273.433993 174.528 
L 276.628958 173.114793 
L 279.907441 171.468881 
L 283.212123 169.582623 
L 286.495286 167.453837 
L 289.716628 165.084521 
L 292.841596 162.479955 
L 295.840166 159.648063 
L 298.685979 156.598964 
L 301.355724 153.344625 
L 303.828712 149.898603 
L 306.086572 146.275831 
L 308.11304 142.492443 
L 309.893817 138.565615 
L 311.416467 134.513427 
L 312.670346 130.354731 
L 313.646551 126.109029 
L 314.337889 121.796348 
L 314.738843 117.437129 
L 314.845555 113.052107 
L 314.655801 108.662202 
L 314.168973 104.288405 
L 313.386052 99.951669 
L 312.309582 95.6728 
L 310.943643 91.47235 
L 309.293812 87.370516 
L 307.367127 83.387033 
L 305.172038 79.541078 
L 302.71836 75.851174 
L 300.017214 72.335095 
L 297.080972 69.009782 
L 293.923182 65.891254 
L 290.558506 62.994534 
L 287.002637 60.333568 
L 283.272221 57.921161 
L 279.384772 55.768914 
L 275.358584 53.887162 
L 271.212637 52.284926 
L 266.966502 50.96987 
L 262.640242 49.948258 
L 258.254312 49.224927 
L 253.829459 48.803263 
L 249.386613 48.685179 
L 244.946786 48.871111 
L 240.530962 49.360011 
L 236.16 50.149355 
L 231.854519 51.235149 
L 227.6348 52.611955 
L 223.520681 54.27291 
L 219.531456 56.209765 
L 215.685778 58.412917 
L 212.001557 60.871461 
L 208.495871 63.573238 
L 205.184873 66.504895 
L 202.083705 69.651948 
L 199.206411 72.998849 
L 196.56586 76.529064 
L 194.173663 80.225144 
L 192.040108 84.068815 
L 190.174078 88.041059 
L 188.582991 92.122203 
L 187.272728 96.29201 
L 186.247566 100.529774 
L 185.510112 104.81441 
L 185.061225 109.12455 
L 184.89994 113.438639 
L 185.023371 117.73502 
L 185.426603 121.99203 
L 186.102547 126.18808 
L 187.04176 130.301738 
L 188.232201 134.311802 
L 189.658904 138.197362 
L 191.303518 141.937858 
L 193.14368 145.513126 
L 195.152123 148.903434 
L 197.295439 152.089535 
L 199.532355 155.052736 
L 201.811407 157.775072 
L 205.163108 161.3706 
L 210.958412 167.301561 
L 211.541514 168.389922 
L 211.584103 168.854207 
L 211.451701 169.276089 
L 211.143111 169.665209 
L 210.014774 170.387003 
L 208.269546 171.103483 
L 198.886007 174.528 
L 195.691042 175.941207 
L 192.412559 177.587119 
L 189.107877 179.473377 
L 185.824714 181.602163 
L 182.603372 183.971479 
L 179.478404 186.576045 
L 176.479834 189.407937 
L 173.634021 192.457036 
L 170.964276 195.711375 
L 168.491288 199.157397 
L 166.233428 202.780169 
L 164.20696 206.563557 
L 162.426183 210.490385 
L 160.903533 214.542573 
L 159.649654 218.701269 
L 158.673449 222.946971 
L 157.982111 227.259652 
L 157.581157 231.618871 
L 157.474445 236.003893 
L 157.664199 240.393798 
L 158.151027 244.767595 
L 158.933948 249.104331 
L 160.010418 253.3832 
L 161.376357 257.58365 
L 163.026188 261.685484 
L 164.952873 265.668967 
L 167.147962 269.514922 
L 169.60164 273.204826 
L 172.302786 276.720905 
L 175.239028 280.046218 
L 178.396818 283.164746 
L 181.761494 286.061466 
L 185.317363 288.722432 
L 189.047779 291.134839 
L 192.935228 293.287086 
L 196.961416 295.168838 
L 201.107363 296.771074 
L 205.353498 298.08613 
L 209.679758 299.107742 
L 214.065688 299.831073 
L 218.490541 300.252737 
L 222.933387 300.370821 
L 227.373214 300.184889 
L 231.789038 299.695989 
L 236.16 298.906645 
L 240.465481 297.820851 
L 244.6852 296.444045 
L 248.799319 294.78309 
L 252.788544 292.846235 
L 256.634222 290.643083 
L 260.318443 288.184539 
L 263.824129 285.482762 
L 267.135127 282.551105 
L 270.236295 279.404052 
L 273.113589 276.057151 
L 275.75414 272.526936 
L 278.146337 268.830856 
L 280.279892 264.987185 
L 282.145922 261.014941 
L 283.737009 256.933797 
L 285.047272 252.76399 
L 286.072434 248.526226 
L 286.809888 244.24159 
L 287.258775 239.93145 
L 287.42006 235.617361 
L 287.296629 231.32098 
L 286.893397 227.06397 
L 286.217453 222.86792 
L 285.27824 218.754262 
L 284.087799 214.744198 
L 282.661096 210.858638 
L 281.016482 207.118142 
L 279.17632 203.542874 
L 277.167877 200.152566 
L 275.024561 196.966465 
L 272.787645 194.003264 
L 270.508593 191.280928 
L 267.156892 187.6854 
L 261.361588 181.754439 
L 260.778486 180.666078 
L 260.735897 180.201793 
L 260.868299 179.779911 
L 261.176889 179.390791 
L 262.305226 178.668997 
L 264.050454 177.952517 
L 273.433993 174.528 
L 273.433993 174.528 
" clip-path="url(#p49e4673a46)" style="fill: none; stroke: #ff7f0e; stroke-width: 1.5; stroke-linecap: square"/>
   </g>
   <g id="line2d_16">
    <path d="M 321.621798 174.528 
L 324.387177 171.447039 
L 326.984598 168.176925 
L 329.396378 164.728462 
L 331.606231 161.113907 
L 333.599285 157.346825 
L 335.362093 153.441944 
L 336.882651 149.415023 
L 338.150413 145.28272 
L 339.156307 141.062471 
L 339.892746 136.772368 
L 340.35364 132.431037 
L 340.534401 128.057523 
L 340.431944 123.671175 
L 340.044688 119.291531 
L 339.372545 114.938209 
L 338.416906 110.630794 
L 337.180624 106.388729 
L 335.667988 102.231214 
L 333.884695 98.177101 
L 331.837806 94.244788 
L 329.535713 90.45213 
L 326.988083 86.81634 
L 324.205808 83.353897 
L 321.200941 80.080466 
L 317.986638 77.01081 
L 314.577079 74.158716 
L 310.987398 71.536922 
L 307.233604 69.157049 
L 303.332491 67.029543 
L 299.301558 65.163613 
L 295.158909 63.567191 
L 290.923163 62.246877 
L 286.613354 61.20791 
L 282.248832 60.454137 
L 277.849157 59.987982 
L 273.433996 59.810435 
L 269.023018 59.921038 
L 264.635782 60.317878 
L 260.291633 60.997592 
L 256.009591 61.955374 
L 251.80824 63.184986 
L 247.705618 64.678779 
L 243.719108 66.427717 
L 239.865324 68.42141 
L 236.16 70.648143 
L 232.617879 73.094919 
L 229.252594 75.747498 
L 226.076557 78.590444 
L 223.100829 81.607169 
L 220.335004 84.779986 
L 217.787068 88.09015 
L 215.463261 91.517913 
L 213.367919 95.042569 
L 211.503305 98.642494 
L 209.869409 102.295196 
L 208.463739 105.977349 
L 207.28106 109.664839 
L 206.31311 113.332806 
L 205.548266 116.955703 
L 204.971176 120.507372 
L 204.413689 125.642968 
L 204.148206 130.467546 
L 203.750071 143.230096 
L 203.407244 145.037286 
L 202.860914 146.586749 
L 202.069884 147.893882 
L 201.00319 148.985083 
L 199.642338 149.896526 
L 197.981993 150.671734 
L 196.029106 151.358418 
L 192.591009 152.328491 
L 184.231585 154.594549 
L 179.532007 156.12845 
L 174.636321 158.04278 
L 171.31661 159.557724 
L 167.98725 161.27656 
L 164.676642 163.206148 
L 161.411695 165.350062 
L 158.217844 167.708945 
L 155.119078 170.280825 
L 152.137968 173.06139 
L 149.295677 176.044222 
L 146.61198 179.221013 
L 144.105256 182.581747 
L 141.792492 186.114873 
L 139.689268 189.807463 
L 137.809746 193.645353 
L 136.166653 197.613283 
L 134.771267 201.695029 
L 133.633397 205.873528 
L 132.761375 210.131002 
L 132.162042 214.449076 
L 131.840735 218.808901 
L 131.801292 223.191265 
L 132.046044 227.57671 
L 132.575825 231.945646 
L 133.389982 236.278457 
L 134.48639 240.555615 
L 135.861473 244.757785 
L 137.510236 248.865929 
L 139.426294 252.861411 
L 141.601915 256.72609 
L 144.028062 260.442422 
L 146.694451 263.993549 
L 149.589599 267.363389 
L 152.700894 270.536719 
L 156.014659 273.499253 
L 159.516227 276.237722 
L 163.190017 278.739936 
L 167.019616 280.994855 
L 170.987866 282.992645 
L 175.076955 284.72473 
L 179.268508 286.18384 
L 183.543687 287.364048 
L 187.883286 288.26081 
L 192.267839 288.870988 
L 196.677718 289.192873 
L 201.093242 289.226197 
L 205.494784 288.972146 
L 209.862876 288.433358 
L 214.178324 287.613919 
L 218.422312 286.519353 
L 222.576515 285.156608 
L 226.623208 283.534027 
L 230.54538 281.661329 
L 234.326842 279.54957 
L 237.95234 277.211113 
L 241.407674 274.659579 
L 244.679805 271.909814 
L 247.756982 268.977835 
L 250.62886 265.880787 
L 253.286633 262.63689 
L 255.723169 259.265396 
L 257.93316 255.78654 
L 259.913284 252.221491 
L 261.662388 248.592313 
L 263.181694 244.92192 
L 264.475032 241.234036 
L 265.549113 237.553156 
L 266.413833 233.90449 
L 267.082631 230.313904 
L 267.757659 225.094825 
L 268.109425 220.156507 
L 268.256639 214.164048 
L 268.382472 207.895347 
L 268.569929 205.825904 
L 268.912756 204.018714 
L 269.459086 202.469251 
L 270.250116 201.162118 
L 271.31681 200.070917 
L 272.677662 199.159474 
L 274.338007 198.384266 
L 276.290894 197.697582 
L 279.728991 196.727509 
L 288.088415 194.461451 
L 292.787993 192.92755 
L 297.683679 191.01322 
L 301.00339 189.498276 
L 304.33275 187.77944 
L 307.643358 185.849852 
L 310.908305 183.705938 
L 314.102156 181.347055 
L 317.200922 178.775175 
L 320.182032 175.99461 
L 321.621798 174.528 
L 321.621798 174.528 
" clip-path="url(#p49e4673a46)" style="fill: none; stroke: #2ca02c; stroke-width: 1.5; stroke-linecap: square"/>
   </g>
   <g id="patch_3">
    <path d="M 369.216 174.528 
C 369.216 157.055246 365.774248 139.752393 359.087715 123.609673 
C 352.401182 107.466954 342.599903 92.798303 330.2448 80.4432 
C 317.889697 68.088097 303.221046 58.286818 287.078327 51.600285 
C 270.935607 44.913752 253.632754 41.472 236.16 41.472 
C 218.687246 41.472 201.384393 44.913752 185.241673 51.600285 
C 169.098954 58.286818 154.430303 68.088097 142.0752 80.4432 
C 129.720097 92.798303 119.918818 107.466954 113.232285 123.609673 
C 106.545752 139.752393 103.104 157.055246 103.104 174.528 
C 103.104 192.000754 106.545752 209.303607 113.232285 225.446327 
C 119.918818 241.589046 129.720097 256.257697 142.0752 268.6128 
C 154.430303 280.967903 169.098954 290.769182 185.241673 297.455715 
C 201.384393 304.142248 218.687246 307.584 236.16 307.584 
C 253.632754 307.584 270.935607 304.142248 287.078327 297.455715 
C 303.221046 290.769182 317.889697 280.967903 330.2448 268.6128 
C 342.599903 256.257697 352.401182 241.589046 359.087715 225.446327 
C 365.774248 209.303607 369.216 192.000754 369.216 174.528 
" style="fill: none; stroke: #000000; stroke-width: 0.8; stroke-linejoin: miter; stroke-linecap: square"/>
   </g>
   <g id="text_14">
    <!-- Polarization Pattern -->
    <g transform="translate(177.800625 14.137313) scale(0.12 -0.12)">
     <defs>
      <path id="DejaVuSans-50" d="M 1259 4147 
L 1259 2394 
L 2053 2394 
Q 2494 2394 2734 2622 
Q 2975 2850 2975 3272 
Q 2975 3691 2734 3919 
Q 2494 4147 2053 4147 
L 1259 4147 
z
M 628 4666 
L 2053 4666 
Q 2838 4666 3239 4311 
Q 3641 3956 3641 3272 
Q 3641 2581 3239 2228 
Q 2838 1875 2053 1875 
L 1259 1875 
L 1259 0 
L 628 0 
L 628 4666 
z
" transform="scale(0.015625)"/>
      <path id="DejaVuSans-6f" d="M 1959 3097 
Q 1497 3097 1228 2736 
Q 959 2375 959 1747 
Q 959 1119 1226 758 
Q 1494 397 1959 397 
Q 2419 397 2687 759 
Q 2956 1122 2956 1747 
Q 2956 2369 2687 2733 
Q 2419 3097 1959 3097 
z
M 1959 3584 
Q 2709 3584 3137 3096 
Q 3566 2609 3566 1747 
Q 3566 888 3137 398 
Q 2709 -91 1959 -91 
Q 1206 -91 779 398 
Q 353 888 353 1747 
Q 353 2609 779 3096 
Q 1206 3584 1959 3584 
z
" transform="scale(0.015625)"/>
      <path id="DejaVuSans-6c" d="M 603 4863 
L 1178 4863 
L 1178 0 
L 603 0 
L 603 4863 
z
" transform="scale(0.015625)"/>
      <path id="DejaVuSans-61" d="M 2194 1759 
Q 1497 1759 1228 1600 
Q 959 1441 959 1056 
Q 959 750 1161 570 
Q 1363 391 1709 391 
Q 2188 391 2477 730 
Q 2766 1069 2766 1631 
L 2766 1759 
L 2194 1759 
z
M 3341 1997 
L 3341 0 
L 2766 0 
L 2766 531 
Q 2569 213 2275 61 
Q 1981 -91 1556 -91 
Q 1019 -91 701 211 
Q 384 513 384 1019 
Q 384 1609 779 1909 
Q 1175 2209 1959 2209 
L 2766 2209 
L 2766 2266 
Q 2766 2663 2505 2880 
Q 2244 3097 1772 3097 
Q 1472 3097 1187 3025 
Q 903 2953 641 2809 
L 641 3341 
Q 956 3463 1253 3523 
Q 1550 3584 1831 3584 
Q 2591 3584 2966 3190 
Q 3341 2797 3341 1997 
z
" transform="scale(0.015625)"/>
      <path id="DejaVuSans-72" d="M 2631 2963 
Q 2534 3019 2420 3045 
Q 2306 3072 2169 3072 
Q 1681 3072 1420 2755 
Q 1159 2438 1159 1844 
L 1159 0 
L 581 0 
L 581 3500 
L 1159 3500 
L 1159 2956 
Q 1341 3275 1631 3429 
Q 1922 3584 2338 3584 
Q 2397 3584 2469 3576 
Q 2541 3569 2628 3553 
L 2631 2963 
z
" transform="scale(0.015625)"/>
      <path id="DejaVuSans-69" d="M 603 3500 
L 1178 3500 
L 1178 0 
L 603 0 
L 603 3500 
z
M 603 4863 
L 1178 4863 
L 1178 4134 
L 603 4134 
L 603 4863 
z
" transform="scale(0.015625)"/>
      <path id="DejaVuSans-7a" d="M 353 3500 
L 3084 3500 
L 3084 2975 
L 922 459 
L 3084 459 
L 3084 0 
L 275 0 
L 275 525 
L 2438 3041 
L 353 3041 
L 353 3500 
z
" transform="scale(0.015625)"/>
      <path id="DejaVuSans-74" d="M 1172 4494 
L 1172 3500 
L 2356 3500 
L 2356 3053 
L 1172 3053 
L 1172 1153 
Q 1172 725 1289 603 
Q 1406 481 1766 481 
L 2356 481 
L 2356 0 
L 1766 0 
Q 1100 0 847 248 
Q 594 497 594 1153 
L 594 3053 
L 172 3053 
L 172 3500 
L 594 3500 
L 594 4494 
L 1172 4494 
z
" transform="scale(0.015625)"/>
      <path id="DejaVuSans-6e" d="M 3513 2113 
L 3513 0 
L 2938 0 
L 2938 2094 
Q 2938 2591 2744 2837 
Q 2550 3084 2163 3084 
Q 1697 3084 1428 2787 
Q 1159 2491 1159 1978 
L 1159 0 
L 581 0 
L 581 3500 
L 1159 3500 
L 1159 2956 
Q 1366 3272 1645 3428 
Q 1925 3584 2291 3584 
Q 2894 3584 3203 3211 
Q 3513 2838 3513 2113 
z
" transform="scale(0.015625)"/>
      <path id="DejaVuSans-20" transform="scale(0.015625)"/>
      <path id="DejaVuSans-65" d="M 3597 1894 
L 3597 1613 
L 953 1613 
Q 991 1019 1311 708 
Q 1631 397 2203 397 
Q 2534 397 2845 478 
Q 3156 559 3463 722 
L 3463 178 
Q 3153 47 2828 -22 
Q 2503 -91 2169 -91 
Q 1331 -91 842 396 
Q 353 884 353 1716 
Q 353 2575 817 3079 
Q 1281 3584 2069 3584 
Q 2775 3584 3186 3129 
Q 3597 2675 3597 1894 
z
M 3022 2063 
Q 3016 2534 2758 2815 
Q 2500 3097 2075 3097 
Q 1594 3097 1305 2825 
Q 1016 2553 972 2059 
L 3022 2063 
z
" transform="scale(0.015625)"/>
     </defs>
     <use xlink:href="#DejaVuSans-50"/>
     <use xlink:href="#DejaVuSans-6f" x="56.677734"/>
     <use xlink:href="#DejaVuSans-6c" x="117.859375"/>
     <use xlink:href="#DejaVuSans-61" x="145.642578"/>
     <use xlink:href="#DejaVuSans-72" x="206.921875"/>
     <use xlink:href="#DejaVuSans-69" x="248.035156"/>
     <use xlink:href="#DejaVuSans-7a" x="275.818359"/>
     <use xlink:href="#DejaVuSans-61" x="328.308594"/>
     <use xlink:href="#DejaVuSans-74" x="389.587891"/>
     <use xlink:href="#DejaVuSans-69" x="428.796875"/>
     <use xlink:href="#DejaVuSans-6f" x="456.580078"/>
     <use xlink:href="#DejaVuSans-6e" x="517.761719"/>
     <use xlink:href="#DejaVuSans-20" x="581.140625"/>
     <use xlink:href="#DejaVuSans-50" x="612.927734"/>
     <use xlink:href="#DejaVuSans-61" x="668.730469"/>
     <use xlink:href="#DejaVuSans-74" x="730.009766"/>
     <use xlink:href="#DejaVuSans-74" x="769.21875"/>
     <use xlink:href="#DejaVuSans-65" x="808.427734"/>
     <use xlink:href="#DejaVuSans-72" x="869.951172"/>
     <use xlink:href="#DejaVuSans-6e" x="909.314453"/>
    </g>
   </g>
   <g id="legend_1">
    <g id="patch_4">
     <path d="M 332.456625 85.37075 
L 365.016 85.37075 
Q 366.216 85.37075 366.216 84.17075 
L 366.216 45.672 
Q 366.216 44.472 365.016 44.472 
L 332.456625 44.472 
Q 331.256625 44.472 331.256625 45.672 
L 331.256625 84.17075 
Q 331.256625 85.37075 332.456625 85.37075 
z
" style="fill: #ffffff; opacity: 0.8; stroke: #cccccc; stroke-linejoin: miter"/>
    </g>
    <g id="text_15">
     <!-- H -->
     <g transform="translate(344.976156 54.470438) scale(0.1 -0.1)">
      <defs>
       <path id="DejaVuSans-48" d="M 628 4666 
L 1259 4666 
L 1259 2753 
L 3553 2753 
L 3553 4666 
L 4184 4666 
L 4184 0 
L 3553 0 
L 3553 2222 
L 1259 2222 
L 1259 0 
L 628 0 
L 628 4666 
z
" transform="scale(0.015625)"/>
      </defs>
      <use xlink:href="#DejaVuSans-48"/>
     </g>
    </g>
    <g id="line2d_17">
     <path d="M 333.656625 62.009188 
L 339.656625 62.009188 
L 345.656625 62.009188 
" style="fill: none; stroke: #1f77b4; stroke-width: 1.5; stroke-linecap: square"/>
    </g>
    <g id="text_16">
     <!-- 0.24 -->
     <g transform="translate(350.456625 64.109188) scale(0.06 -0.06)">
      <use xlink:href="#DejaVuSans-30"/>
      <use xlink:href="#DejaVuSans-2e" x="63.623047"/>
      <use xlink:href="#DejaVuSans-32" x="95.410156"/>
      <use xlink:href="#DejaVuSans-34" x="159.033203"/>
     </g>
    </g>
    <g id="line2d_18">
     <path d="M 333.656625 70.816063 
L 339.656625 70.816063 
L 345.656625 70.816063 
" style="fill: none; stroke: #ff7f0e; stroke-width: 1.5; stroke-linecap: square"/>
    </g>
    <g id="text_17">
     <!-- 0.42 -->
     <g transform="translate(350.456625 72.916063) scale(0.06 -0.06)">
      <use xlink:href="#DejaVuSans-30"/>
      <use xlink:href="#DejaVuSans-2e" x="63.623047"/>
      <use xlink:href="#DejaVuSans-34" x="95.410156"/>
      <use xlink:href="#DejaVuSans-32" x="159.033203"/>
     </g>
    </g>
    <g id="line2d_19">
     <path d="M 333.656625 79.622938 
L 339.656625 79.622938 
L 345.656625 79.622938 
" style="fill: none; stroke: #2ca02c; stroke-width: 1.5; stroke-linecap: square"/>
    </g>
    <g id="text_18">
     <!-- 0.59 -->
     <g transform="translate(350.456625 81.722938) scale(0.06 -0.06)">
      <use xlink:href="#DejaVuSans-30"/>
      <use xlink:href="#DejaVuSans-2e" x="63.623047"/>
      <use xlink:href="#DejaVuSans-35" x="95.410156"/>
      <use xlink:href="#DejaVuSans-39" x="159.033203"/>
     </g>
    </g>
   </g>
  </g>
 </g>
 <defs>
  <clipPath id="p49e4673a46">
   <path d="M 369.216 174.528 
C 369.216 157.055246 365.774248 139.752393 359.087715 123.609673 
C 352.401182 107.466954 342.599903 92.798303 330.2448 80.4432 
C 317.889697 68.088097 303.221046 58.286818 287.078327 51.600285 
C 270.935607 44.913752 253.632754 41.472 236.16 41.472 
C 218.687246 41.472 201.384393 44.913752 185.241673 51.600285 
C 169.098954 58.286818 154.430303 68.088097 142.0752 80.4432 
C 129.720097 92.798303 119.918818 107.466954 113.232285 123.609673 
C 106.545752 139.752393 103.104 157.055246 103.104 174.528 
C 103.104 192.000754 106.545752 209.303607 113.232285 225.446327 
C 119.918818 241.589046 129.720097 256.257697 142.0752 268.6128 
C 154.430303 280.967903 169.098954 290.769182 185.241673 297.455715 
C 201.384393 304.142248 218.687246 307.584 236.16 307.584 
C 253.632754 307.584 270.935607 304.142248 287.078327 297.455715 
C 303.221046 290.769182 317.889697 280.967903 330.2448 268.6128 
C 342.599903 256.257697 352.401182 241.589046 359.087715 225.446327 
C 365.774248 209.303607 369.216 192.000754 369.216 174.528 
M 236.16 174.528 
C 236.16 174.528 236.16 174.528 236.16 174.528 
C 236.16 174.528 236.16 174.528 236.16 174.528 
C 236.16 174.528 236.16 174.528 236.16 174.528 
C 236.16 174.528 236.16 174.528 236.16 174.528 
C 236.16 174.528 236.16 174.528 236.16 174.528 
C 236.16 174.528 236.16 174.528 236.16 174.528 
C 236.16 174.528 236.16 174.528 236.16 174.528 
C 236.16 174.528 236.16 174.528 236.16 174.528 
C 236.16 174.528 236.16 174.528 236.16 174.528 
C 236.16 174.528 236.16 174.528 236.16 174.528 
C 236.16 174.528 236.16 174.528 236.16 174.528 
C 236.16 174.528 236.16 174.528 236.16 174.528 
C 236.16 174.528 236.16 174.528 236.16 174.528 
C 236.16 174.528 236.16 174.528 236.16 174.528 
C 236.16 174.528 236.16 174.528 236.16 174.528 
C 236.16 174.528 236.16 174.528 236.16 174.528 
z
"/>
  </clipPath>
 </defs>
</svg>
