<svg xmlns="http://www.w3.org/2000/svg" xmlns:xlink="http://www.w3.org/1999/xlink" width="290.566" height="223.411" viewBox="0 0 217.924 167.558"><defs><style>*{stroke-linejoin:round;stroke-linecap:butt}</style></defs><g id="figure_1"><path id="patch_1" d="M0 167.558h217.924V0H0z" style="fill:none"/><g id="axes_1"><path id="patch_2" d="M30.184 142.2h184.14V3.6H30.184z" style="fill:none"/><g id="matplotlib.axis_1"><g id="xtick_1"><g id="line2d_1"><defs><path id="m76d8d325f5" d="M0 0v-3" style="stroke:#000;stroke-width:.5"/></defs><use xlink:href="#m76d8d325f5" x="55.301" y="142.2" style="stroke:#000;stroke-width:.5"/></g><g id="line2d_2"><defs><path id="me35800e19d" d="M0 0v3" style="stroke:#000;stroke-width:.5"/></defs><use xlink:href="#me35800e19d" x="55.301" y="3.6" style="stroke:#000;stroke-width:.5"/></g><g id="text_1" transform="matrix(.08 0 0 -.08 47.116 151.104)"><defs><path id="CMSY10-0" d="M4218 1472c108 0 224 0 224 128s-116 128-224 128H755c-109 0-224 0-224-128s115-128 224-128z" transform="scale(.01563)"/><path id="NimbusRomNo9L-Regu-30" d="M1626 4352c-352 0-621-108-858-332-371-359-614-1095-614-1844 0-697 211-1446 512-1804C902 90 1229-64 1600-64c326 0 602 109 832 333 371 352 614 1095 614 1869 0 1312-582 2214-1420 2214m-20-166c538 0 826-723 826-2061 0-1337-282-2022-832-2022S768 788 768 2119c0 1357 288 2067 838 2067" transform="scale(.01563)"/><path id="CMMI10-3a" d="M1229 338c0 184-154 337-339 337-186 0-340-153-340-337C550 153 704 0 890 0c185 0 339 153 339 338" transform="scale(.01563)"/><path id="NimbusRomNo9L-Regu-32" d="m3040 875-83 32c-237-363-320-421-608-421H819l1075 1123c570 593 820 1078 820 1576 0 638-519 1128-1184 1128-352 0-685-140-922-395-205-218-301-422-410-875l135-32c256 625 486 829 928 829 537 0 902-364 902-900 0-497-294-1090-832-1658L192 77V0h2496z" transform="scale(.01563)"/></defs><use xlink:href="#CMSY10-0" transform="scale(.99626)"/><use xlink:href="#NimbusRomNo9L-Regu-30" transform="matrix(.99626 0 0 .99626 77.409 0)"/><use xlink:href="#CMMI10-3a" transform="matrix(.99626 0 0 .99626 127.222 0)"/><use xlink:href="#NimbusRomNo9L-Regu-32" transform="matrix(.99626 0 0 .99626 154.817 0)"/></g></g><g id="xtick_2"><use xlink:href="#m76d8d325f5" id="line2d_3" x="88.794" y="142.2" style="stroke:#000;stroke-width:.5"/><use xlink:href="#me35800e19d" id="line2d_4" x="88.794" y="3.6" style="stroke:#000;stroke-width:.5"/><g id="text_2" transform="matrix(.08 0 0 -.08 80.61 151.104)"><defs><path id="NimbusRomNo9L-Regu-31" d="M1862 4339 710 3757v-90c77 32 148 58 173 71 115 45 224 70 288 70 135 0 192-97 192-303V592c0-213-51-360-153-419-96-57-186-77-455-77V0h1767v96c-506 0-608 64-608 374v3857z" transform="scale(.01563)"/></defs><use xlink:href="#CMSY10-0" transform="scale(.99626)"/><use xlink:href="#NimbusRomNo9L-Regu-30" transform="matrix(.99626 0 0 .99626 77.409 0)"/><use xlink:href="#CMMI10-3a" transform="matrix(.99626 0 0 .99626 127.222 0)"/><use xlink:href="#NimbusRomNo9L-Regu-31" transform="matrix(.99626 0 0 .99626 154.817 0)"/></g></g><g id="xtick_3"><use xlink:href="#m76d8d325f5" id="line2d_5" x="122.288" y="142.2" style="stroke:#000;stroke-width:.5"/><use xlink:href="#me35800e19d" id="line2d_6" x="122.288" y="3.6" style="stroke:#000;stroke-width:.5"/><g id="text_3" transform="matrix(.08 0 0 -.08 117.199 151.104)"><use xlink:href="#NimbusRomNo9L-Regu-30" transform="scale(.99626)"/><use xlink:href="#CMMI10-3a" transform="matrix(.99626 0 0 .99626 49.813 0)"/><use xlink:href="#NimbusRomNo9L-Regu-30" transform="matrix(.99626 0 0 .99626 77.409 0)"/></g></g><g id="xtick_4"><use xlink:href="#m76d8d325f5" id="line2d_7" x="155.781" y="142.2" style="stroke:#000;stroke-width:.5"/><use xlink:href="#me35800e19d" id="line2d_8" x="155.781" y="3.6" style="stroke:#000;stroke-width:.5"/><g id="text_4" transform="matrix(.08 0 0 -.08 150.692 151.104)"><use xlink:href="#NimbusRomNo9L-Regu-30" transform="scale(.99626)"/><use xlink:href="#CMMI10-3a" transform="matrix(.99626 0 0 .99626 49.813 0)"/><use xlink:href="#NimbusRomNo9L-Regu-31" transform="matrix(.99626 0 0 .99626 77.409 0)"/></g></g><g id="xtick_5"><use xlink:href="#m76d8d325f5" id="line2d_9" x="189.275" y="142.2" style="stroke:#000;stroke-width:.5"/><use xlink:href="#me35800e19d" id="line2d_10" x="189.275" y="3.6" style="stroke:#000;stroke-width:.5"/><g id="text_5" transform="matrix(.08 0 0 -.08 184.186 151.104)"><use xlink:href="#NimbusRomNo9L-Regu-30" transform="scale(.99626)"/><use xlink:href="#CMMI10-3a" transform="matrix(.99626 0 0 .99626 49.813 0)"/><use xlink:href="#NimbusRomNo9L-Regu-32" transform="matrix(.99626 0 0 .99626 77.409 0)"/></g></g><g id="xtick_6"><g id="line2d_11"><defs><path id="me30c04ee68" d="M0 0v-1.5" style="stroke:#000;stroke-width:.5"/></defs><use xlink:href="#me30c04ee68" x="35.205" y="142.2" style="stroke:#000;stroke-width:.5"/></g><g id="line2d_12"><defs><path id="ma86ba024b1" d="M0 0v1.5" style="stroke:#000;stroke-width:.5"/></defs><use xlink:href="#ma86ba024b1" x="35.205" y="3.6" style="stroke:#000;stroke-width:.5"/></g></g><g id="xtick_7"><use xlink:href="#me30c04ee68" id="line2d_13" x="41.904" y="142.2" style="stroke:#000;stroke-width:.5"/><use xlink:href="#ma86ba024b1" id="line2d_14" x="41.904" y="3.6" style="stroke:#000;stroke-width:.5"/></g><g id="xtick_8"><use xlink:href="#me30c04ee68" id="line2d_15" x="48.602" y="142.2" style="stroke:#000;stroke-width:.5"/><use xlink:href="#ma86ba024b1" id="line2d_16" x="48.602" y="3.6" style="stroke:#000;stroke-width:.5"/></g><g id="xtick_9"><use xlink:href="#me30c04ee68" id="line2d_17" x="62" y="142.2" style="stroke:#000;stroke-width:.5"/><use xlink:href="#ma86ba024b1" id="line2d_18" x="62" y="3.6" style="stroke:#000;stroke-width:.5"/></g><g id="xtick_10"><use xlink:href="#me30c04ee68" id="line2d_19" x="68.698" y="142.2" style="stroke:#000;stroke-width:.5"/><use xlink:href="#ma86ba024b1" id="line2d_20" x="68.698" y="3.6" style="stroke:#000;stroke-width:.5"/></g><g id="xtick_11"><use xlink:href="#me30c04ee68" id="line2d_21" x="75.397" y="142.2" style="stroke:#000;stroke-width:.5"/><use xlink:href="#ma86ba024b1" id="line2d_22" x="75.397" y="3.6" style="stroke:#000;stroke-width:.5"/></g><g id="xtick_12"><use xlink:href="#me30c04ee68" id="line2d_23" x="82.096" y="142.2" style="stroke:#000;stroke-width:.5"/><use xlink:href="#ma86ba024b1" id="line2d_24" x="82.096" y="3.6" style="stroke:#000;stroke-width:.5"/></g><g id="xtick_13"><use xlink:href="#me30c04ee68" id="line2d_25" x="95.493" y="142.2" style="stroke:#000;stroke-width:.5"/><use xlink:href="#ma86ba024b1" id="line2d_26" x="95.493" y="3.6" style="stroke:#000;stroke-width:.5"/></g><g id="xtick_14"><use xlink:href="#me30c04ee68" id="line2d_27" x="102.192" y="142.2" style="stroke:#000;stroke-width:.5"/><use xlink:href="#ma86ba024b1" id="line2d_28" x="102.192" y="3.6" style="stroke:#000;stroke-width:.5"/></g><g id="xtick_15"><use xlink:href="#me30c04ee68" id="line2d_29" x="108.89" y="142.2" style="stroke:#000;stroke-width:.5"/><use xlink:href="#ma86ba024b1" id="line2d_30" x="108.89" y="3.6" style="stroke:#000;stroke-width:.5"/></g><g id="xtick_16"><use xlink:href="#me30c04ee68" id="line2d_31" x="115.589" y="142.2" style="stroke:#000;stroke-width:.5"/><use xlink:href="#ma86ba024b1" id="line2d_32" x="115.589" y="3.6" style="stroke:#000;stroke-width:.5"/></g><g id="xtick_17"><use xlink:href="#me30c04ee68" id="line2d_33" x="128.986" y="142.2" style="stroke:#000;stroke-width:.5"/><use xlink:href="#ma86ba024b1" id="line2d_34" x="128.986" y="3.6" style="stroke:#000;stroke-width:.5"/></g><g id="xtick_18"><use xlink:href="#me30c04ee68" id="line2d_35" x="135.685" y="142.2" style="stroke:#000;stroke-width:.5"/><use xlink:href="#ma86ba024b1" id="line2d_36" x="135.685" y="3.6" style="stroke:#000;stroke-width:.5"/></g><g id="xtick_19"><use xlink:href="#me30c04ee68" id="line2d_37" x="142.384" y="142.2" style="stroke:#000;stroke-width:.5"/><use xlink:href="#ma86ba024b1" id="line2d_38" x="142.384" y="3.6" style="stroke:#000;stroke-width:.5"/></g><g id="xtick_20"><use xlink:href="#me30c04ee68" id="line2d_39" x="149.082" y="142.2" style="stroke:#000;stroke-width:.5"/><use xlink:href="#ma86ba024b1" id="line2d_40" x="149.082" y="3.6" style="stroke:#000;stroke-width:.5"/></g><g id="xtick_21"><use xlink:href="#me30c04ee68" id="line2d_41" x="162.48" y="142.2" style="stroke:#000;stroke-width:.5"/><use xlink:href="#ma86ba024b1" id="line2d_42" x="162.48" y="3.6" style="stroke:#000;stroke-width:.5"/></g><g id="xtick_22"><use xlink:href="#me30c04ee68" id="line2d_43" x="169.179" y="142.2" style="stroke:#000;stroke-width:.5"/><use xlink:href="#ma86ba024b1" id="line2d_44" x="169.179" y="3.6" style="stroke:#000;stroke-width:.5"/></g><g id="xtick_23"><use xlink:href="#me30c04ee68" id="line2d_45" x="175.877" y="142.2" style="stroke:#000;stroke-width:.5"/><use xlink:href="#ma86ba024b1" id="line2d_46" x="175.877" y="3.6" style="stroke:#000;stroke-width:.5"/></g><g id="xtick_24"><use xlink:href="#me30c04ee68" id="line2d_47" x="182.576" y="142.2" style="stroke:#000;stroke-width:.5"/><use xlink:href="#ma86ba024b1" id="line2d_48" x="182.576" y="3.6" style="stroke:#000;stroke-width:.5"/></g><g id="xtick_25"><use xlink:href="#me30c04ee68" id="line2d_49" x="195.973" y="142.2" style="stroke:#000;stroke-width:.5"/><use xlink:href="#ma86ba024b1" id="line2d_50" x="195.973" y="3.6" style="stroke:#000;stroke-width:.5"/></g><g id="xtick_26"><use xlink:href="#me30c04ee68" id="line2d_51" x="202.672" y="142.2" style="stroke:#000;stroke-width:.5"/><use xlink:href="#ma86ba024b1" id="line2d_52" x="202.672" y="3.6" style="stroke:#000;stroke-width:.5"/></g><g id="xtick_27"><use xlink:href="#me30c04ee68" id="line2d_53" x="209.371" y="142.2" style="stroke:#000;stroke-width:.5"/><use xlink:href="#ma86ba024b1" id="line2d_54" x="209.371" y="3.6" style="stroke:#000;stroke-width:.5"/></g><g id="text_6" transform="matrix(.08 0 0 -.08 109.753 162.233)"><defs><path id="NimbusRomNo9L-Regu-66" d="M1978 2880h-788v731c0 367 122 562 365 562 135 0 224-63 339-246 103-164 180-227 288-227 148 0 269 114 269 259 0 229-281 393-665 393-397 0-736-171-903-461-166-278-217-506-224-1011H134v-205h525V656c0-471-70-547-531-547V0h1664v109c-525 0-595 71-595 552v2014h781z" transform="scale(.01563)"/><path id="NimbusRomNo9L-Regu-28" d="M1888 4326c-474-307-666-473-902-768-455-556-679-1196-679-1945 0-813 237-1440 800-2093 263-307 429-448 762-653l77 103c-512 403-692 627-864 1107-154 429-224 915-224 1555 0 672 83 1197 256 1594 179 396 371 627 832 998z" transform="scale(.01563)"/><path id="NimbusRomNo9L-Regu-47" d="M4538 2304H2906v-128c275 0 352-19 428-71 96-58 135-207 135-484V574c0-207-391-382-851-382-1044 0-1684 730-1684 1920 0 602 180 1184 461 1498 282 314 679 486 1114 486 358 0 672-121 921-352 192-179 295-352 455-742h147l-51 1350h-141c-38-121-154-211-288-211-64 0-166 19-282 64-288 96-582 147-870 147-1280 0-2195-940-2195-2246 0-627 173-1107 531-1485C1165 180 1779-64 2483-64c551 0 1351 224 1607 449v1309c0 379 76 463 448 495z" transform="scale(.01563)"/><path id="NimbusRomNo9L-Regu-48" d="M1338 2304v1229c0 457 70 526 563 571v120H122v-120c492-45 563-115 563-577V749c0-539-64-615-563-615V0h1779v121c-480 38-563 121-563 578v1323h1939V757c0-546-64-623-563-623V0h1779v121c-480 38-563 121-563 575v2833c0 460 70 530 563 575v120H2714v-120c492-45 563-114 563-571V2304z" transform="scale(.01563)"/><path id="NimbusRomNo9L-Regu-7a" d="m2675 864-115 26c-64-320-102-423-186-532-89-108-307-166-633-166H858l1721 2592v96H358l-19-755h115c58 467 154 563 538 563h883L173 96V0h2413z" transform="scale(.01563)"/><path id="NimbusRomNo9L-Regu-29" d="M243-1133c474 307 666 474 903 768 454 557 678 1197 678 1946 0 819-237 1440-800 2093-262 307-429 448-762 652l-76-102c512-403 684-627 864-1107 153-429 224-915 224-1555 0-666-84-1197-256-1588-180-403-372-633-832-1004z" transform="scale(.01563)"/></defs><use xlink:href="#NimbusRomNo9L-Regu-66" transform="scale(.99626)"/><use xlink:href="#NimbusRomNo9L-Regu-28" transform="matrix(.99626 0 0 .99626 58.082 0)"/><use xlink:href="#NimbusRomNo9L-Regu-47" transform="matrix(.99626 0 0 .99626 91.257 0)"/><use xlink:href="#NimbusRomNo9L-Regu-48" transform="matrix(.99626 0 0 .99626 163.187 0)"/><use xlink:href="#NimbusRomNo9L-Regu-7a" transform="matrix(.99626 0 0 .99626 235.117 0)"/><use xlink:href="#NimbusRomNo9L-Regu-29" transform="matrix(.99626 0 0 .99626 279.35 0)"/></g></g><g id="matplotlib.axis_2"><g id="ytick_1"><g id="line2d_55"><defs><path id="m894ea574d0" d="M0 0h3" style="stroke:#000;stroke-width:.5"/></defs><use xlink:href="#m894ea574d0" x="30.184" y="130.012" style="stroke:#000;stroke-width:.5"/></g><g id="line2d_56"><defs><path id="m7a034660e0" d="M0 0h-3" style="stroke:#000;stroke-width:.5"/></defs><use xlink:href="#m7a034660e0" x="214.324" y="130.012" style="stroke:#000;stroke-width:.5"/></g><g id="text_7" transform="matrix(.08 0 0 -.08 18.714 132.714)"><defs><path id="NimbusRomNo9L-Regu-35" d="M1158 3776h1255c102 0 128 13 147 58l243 569-57 45c-96-134-160-166-295-166H1114L416 2759c-6-13-6-19-6-32 0-32 25-51 76-51 205 0 461-45 724-129 736-238 1075-637 1075-1273 0-618-391-1101-890-1101-128 0-237 45-429 187-204 148-352 212-486 212-186 0-275-77-275-238C205 90 506-64 986-64c537 0 998 174 1318 502 294 290 429 656 429 1145 0 463-122 759-442 1080-281 284-646 431-1401 566z" transform="scale(.01563)"/></defs><use xlink:href="#NimbusRomNo9L-Regu-32" transform="scale(.99626)"/><use xlink:href="#NimbusRomNo9L-Regu-35" transform="matrix(.99626 0 0 .99626 49.813 0)"/></g></g><g id="ytick_2"><use xlink:href="#m894ea574d0" id="line2d_57" x="30.184" y="110.322" style="stroke:#000;stroke-width:.5"/><use xlink:href="#m7a034660e0" id="line2d_58" x="214.324" y="110.322" style="stroke:#000;stroke-width:.5"/><g id="text_8" transform="matrix(.08 0 0 -.08 18.714 113.024)"><use xlink:href="#NimbusRomNo9L-Regu-35" transform="scale(.99626)"/><use xlink:href="#NimbusRomNo9L-Regu-30" transform="matrix(.99626 0 0 .99626 49.813 0)"/></g></g><g id="ytick_3"><use xlink:href="#m894ea574d0" id="line2d_59" x="30.184" y="90.632" style="stroke:#000;stroke-width:.5"/><use xlink:href="#m7a034660e0" id="line2d_60" x="214.324" y="90.632" style="stroke:#000;stroke-width:.5"/><g id="text_9" transform="matrix(.08 0 0 -.08 18.714 93.334)"><defs><path id="NimbusRomNo9L-Regu-37" d="M2874 4250H506l-378-940 109-52c275 435 390 518 742 518h1389L1101-32h416l1357 4180z" transform="scale(.01563)"/></defs><use xlink:href="#NimbusRomNo9L-Regu-37" transform="scale(.99626)"/><use xlink:href="#NimbusRomNo9L-Regu-35" transform="matrix(.99626 0 0 .99626 49.813 0)"/></g></g><g id="ytick_4"><use xlink:href="#m894ea574d0" id="line2d_61" x="30.184" y="70.942" style="stroke:#000;stroke-width:.5"/><use xlink:href="#m7a034660e0" id="line2d_62" x="214.324" y="70.942" style="stroke:#000;stroke-width:.5"/><g id="text_10" transform="matrix(.08 0 0 -.08 14.73 73.644)"><use xlink:href="#NimbusRomNo9L-Regu-31" transform="scale(.99626)"/><use xlink:href="#NimbusRomNo9L-Regu-30" transform="matrix(.99626 0 0 .99626 49.813 0)"/><use xlink:href="#NimbusRomNo9L-Regu-30" transform="matrix(.99626 0 0 .99626 99.626 0)"/></g></g><g id="ytick_5"><use xlink:href="#m894ea574d0" id="line2d_63" x="30.184" y="51.252" style="stroke:#000;stroke-width:.5"/><use xlink:href="#m7a034660e0" id="line2d_64" x="214.324" y="51.252" style="stroke:#000;stroke-width:.5"/><g id="text_11" transform="matrix(.08 0 0 -.08 14.73 53.954)"><use xlink:href="#NimbusRomNo9L-Regu-31" transform="scale(.99626)"/><use xlink:href="#NimbusRomNo9L-Regu-32" transform="matrix(.99626 0 0 .99626 49.813 0)"/><use xlink:href="#NimbusRomNo9L-Regu-35" transform="matrix(.99626 0 0 .99626 99.626 0)"/></g></g><g id="ytick_6"><use xlink:href="#m894ea574d0" id="line2d_65" x="30.184" y="31.562" style="stroke:#000;stroke-width:.5"/><use xlink:href="#m7a034660e0" id="line2d_66" x="214.324" y="31.562" style="stroke:#000;stroke-width:.5"/><g id="text_12" transform="matrix(.08 0 0 -.08 14.73 34.264)"><use xlink:href="#NimbusRomNo9L-Regu-31" transform="scale(.99626)"/><use xlink:href="#NimbusRomNo9L-Regu-35" transform="matrix(.99626 0 0 .99626 49.813 0)"/><use xlink:href="#NimbusRomNo9L-Regu-30" transform="matrix(.99626 0 0 .99626 99.626 0)"/></g></g><g id="ytick_7"><use xlink:href="#m894ea574d0" id="line2d_67" x="30.184" y="11.872" style="stroke:#000;stroke-width:.5"/><use xlink:href="#m7a034660e0" id="line2d_68" x="214.324" y="11.872" style="stroke:#000;stroke-width:.5"/><g id="text_13" transform="matrix(.08 0 0 -.08 14.73 14.574)"><use xlink:href="#NimbusRomNo9L-Regu-31" transform="scale(.99626)"/><use xlink:href="#NimbusRomNo9L-Regu-37" transform="matrix(.99626 0 0 .99626 49.813 0)"/><use xlink:href="#NimbusRomNo9L-Regu-35" transform="matrix(.99626 0 0 .99626 99.626 0)"/></g></g><g id="ytick_8"><g id="line2d_69"><defs><path id="m13bcf59068" d="M0 0h1.5" style="stroke:#000;stroke-width:.5"/></defs><use xlink:href="#m13bcf59068" x="30.184" y="141.826" style="stroke:#000;stroke-width:.5"/></g><g id="line2d_70"><defs><path id="m8ef3517ddb" d="M0 0h-1.5" style="stroke:#000;stroke-width:.5"/></defs><use xlink:href="#m8ef3517ddb" x="214.324" y="141.826" style="stroke:#000;stroke-width:.5"/></g></g><g id="ytick_9"><use xlink:href="#m13bcf59068" id="line2d_71" x="30.184" y="137.888" style="stroke:#000;stroke-width:.5"/><use xlink:href="#m8ef3517ddb" id="line2d_72" x="214.324" y="137.888" style="stroke:#000;stroke-width:.5"/></g><g id="ytick_10"><use xlink:href="#m13bcf59068" id="line2d_73" x="30.184" y="133.95" style="stroke:#000;stroke-width:.5"/><use xlink:href="#m8ef3517ddb" id="line2d_74" x="214.324" y="133.95" style="stroke:#000;stroke-width:.5"/></g><g id="ytick_11"><use xlink:href="#m13bcf59068" id="line2d_75" x="30.184" y="126.074" style="stroke:#000;stroke-width:.5"/><use xlink:href="#m8ef3517ddb" id="line2d_76" x="214.324" y="126.074" style="stroke:#000;stroke-width:.5"/></g><g id="ytick_12"><use xlink:href="#m13bcf59068" id="line2d_77" x="30.184" y="122.136" style="stroke:#000;stroke-width:.5"/><use xlink:href="#m8ef3517ddb" id="line2d_78" x="214.324" y="122.136" style="stroke:#000;stroke-width:.5"/></g><g id="ytick_13"><use xlink:href="#m13bcf59068" id="line2d_79" x="30.184" y="118.198" style="stroke:#000;stroke-width:.5"/><use xlink:href="#m8ef3517ddb" id="line2d_80" x="214.324" y="118.198" style="stroke:#000;stroke-width:.5"/></g><g id="ytick_14"><use xlink:href="#m13bcf59068" id="line2d_81" x="30.184" y="114.26" style="stroke:#000;stroke-width:.5"/><use xlink:href="#m8ef3517ddb" id="line2d_82" x="214.324" y="114.26" style="stroke:#000;stroke-width:.5"/></g><g id="ytick_15"><use xlink:href="#m13bcf59068" id="line2d_83" x="30.184" y="106.384" style="stroke:#000;stroke-width:.5"/><use xlink:href="#m8ef3517ddb" id="line2d_84" x="214.324" y="106.384" style="stroke:#000;stroke-width:.5"/></g><g id="ytick_16"><use xlink:href="#m13bcf59068" id="line2d_85" x="30.184" y="102.446" style="stroke:#000;stroke-width:.5"/><use xlink:href="#m8ef3517ddb" id="line2d_86" x="214.324" y="102.446" style="stroke:#000;stroke-width:.5"/></g><g id="ytick_17"><use xlink:href="#m13bcf59068" id="line2d_87" x="30.184" y="98.508" style="stroke:#000;stroke-width:.5"/><use xlink:href="#m8ef3517ddb" id="line2d_88" x="214.324" y="98.508" style="stroke:#000;stroke-width:.5"/></g><g id="ytick_18"><use xlink:href="#m13bcf59068" id="line2d_89" x="30.184" y="94.57" style="stroke:#000;stroke-width:.5"/><use xlink:href="#m8ef3517ddb" id="line2d_90" x="214.324" y="94.57" style="stroke:#000;stroke-width:.5"/></g><g id="ytick_19"><use xlink:href="#m13bcf59068" id="line2d_91" x="30.184" y="86.694" style="stroke:#000;stroke-width:.5"/><use xlink:href="#m8ef3517ddb" id="line2d_92" x="214.324" y="86.694" style="stroke:#000;stroke-width:.5"/></g><g id="ytick_20"><use xlink:href="#m13bcf59068" id="line2d_93" x="30.184" y="82.756" style="stroke:#000;stroke-width:.5"/><use xlink:href="#m8ef3517ddb" id="line2d_94" x="214.324" y="82.756" style="stroke:#000;stroke-width:.5"/></g><g id="ytick_21"><use xlink:href="#m13bcf59068" id="line2d_95" x="30.184" y="78.818" style="stroke:#000;stroke-width:.5"/><use xlink:href="#m8ef3517ddb" id="line2d_96" x="214.324" y="78.818" style="stroke:#000;stroke-width:.5"/></g><g id="ytick_22"><use xlink:href="#m13bcf59068" id="line2d_97" x="30.184" y="74.88" style="stroke:#000;stroke-width:.5"/><use xlink:href="#m8ef3517ddb" id="line2d_98" x="214.324" y="74.88" style="stroke:#000;stroke-width:.5"/></g><g id="ytick_23"><use xlink:href="#m13bcf59068" id="line2d_99" x="30.184" y="67.004" style="stroke:#000;stroke-width:.5"/><use xlink:href="#m8ef3517ddb" id="line2d_100" x="214.324" y="67.004" style="stroke:#000;stroke-width:.5"/></g><g id="ytick_24"><use xlink:href="#m13bcf59068" id="line2d_101" x="30.184" y="63.066" style="stroke:#000;stroke-width:.5"/><use xlink:href="#m8ef3517ddb" id="line2d_102" x="214.324" y="63.066" style="stroke:#000;stroke-width:.5"/></g><g id="ytick_25"><use xlink:href="#m13bcf59068" id="line2d_103" x="30.184" y="59.128" style="stroke:#000;stroke-width:.5"/><use xlink:href="#m8ef3517ddb" id="line2d_104" x="214.324" y="59.128" style="stroke:#000;stroke-width:.5"/></g><g id="ytick_26"><use xlink:href="#m13bcf59068" id="line2d_105" x="30.184" y="55.19" style="stroke:#000;stroke-width:.5"/><use xlink:href="#m8ef3517ddb" id="line2d_106" x="214.324" y="55.19" style="stroke:#000;stroke-width:.5"/></g><g id="ytick_27"><use xlink:href="#m13bcf59068" id="line2d_107" x="30.184" y="47.314" style="stroke:#000;stroke-width:.5"/><use xlink:href="#m8ef3517ddb" id="line2d_108" x="214.324" y="47.314" style="stroke:#000;stroke-width:.5"/></g><g id="ytick_28"><use xlink:href="#m13bcf59068" id="line2d_109" x="30.184" y="43.376" style="stroke:#000;stroke-width:.5"/><use xlink:href="#m8ef3517ddb" id="line2d_110" x="214.324" y="43.376" style="stroke:#000;stroke-width:.5"/></g><g id="ytick_29"><use xlink:href="#m13bcf59068" id="line2d_111" x="30.184" y="39.438" style="stroke:#000;stroke-width:.5"/><use xlink:href="#m8ef3517ddb" id="line2d_112" x="214.324" y="39.438" style="stroke:#000;stroke-width:.5"/></g><g id="ytick_30"><use xlink:href="#m13bcf59068" id="line2d_113" x="30.184" y="35.5" style="stroke:#000;stroke-width:.5"/><use xlink:href="#m8ef3517ddb" id="line2d_114" x="214.324" y="35.5" style="stroke:#000;stroke-width:.5"/></g><g id="ytick_31"><use xlink:href="#m13bcf59068" id="line2d_115" x="30.184" y="27.624" style="stroke:#000;stroke-width:.5"/><use xlink:href="#m8ef3517ddb" id="line2d_116" x="214.324" y="27.624" style="stroke:#000;stroke-width:.5"/></g><g id="ytick_32"><use xlink:href="#m13bcf59068" id="line2d_117" x="30.184" y="23.686" style="stroke:#000;stroke-width:.5"/><use xlink:href="#m8ef3517ddb" id="line2d_118" x="214.324" y="23.686" style="stroke:#000;stroke-width:.5"/></g><g id="ytick_33"><use xlink:href="#m13bcf59068" id="line2d_119" x="30.184" y="19.748" style="stroke:#000;stroke-width:.5"/><use xlink:href="#m8ef3517ddb" id="line2d_120" x="214.324" y="19.748" style="stroke:#000;stroke-width:.5"/></g><g id="ytick_34"><use xlink:href="#m13bcf59068" id="line2d_121" x="30.184" y="15.81" style="stroke:#000;stroke-width:.5"/><use xlink:href="#m8ef3517ddb" id="line2d_122" x="214.324" y="15.81" style="stroke:#000;stroke-width:.5"/></g><g id="ytick_35"><use xlink:href="#m13bcf59068" id="line2d_123" x="30.184" y="7.934" style="stroke:#000;stroke-width:.5"/><use xlink:href="#m8ef3517ddb" id="line2d_124" x="214.324" y="7.934" style="stroke:#000;stroke-width:.5"/></g><g id="ytick_36"><use xlink:href="#m13bcf59068" id="line2d_125" x="30.184" y="3.996" style="stroke:#000;stroke-width:.5"/><use xlink:href="#m8ef3517ddb" id="line2d_126" x="214.324" y="3.996" style="stroke:#000;stroke-width:.5"/></g><g id="text_14" transform="matrix(0 -.08 -.08 0 9.004 98.468)"><defs><path id="NimbusRomNo9L-Regu-4d" d="M4314 3667V751c0-534-77-617-583-617V0h1792v134c-467 0-557 89-557 547v2855c0 457 84 541 557 579v122H4250L2835 1004 1357 4237H90v-141c524 0 608-77 608-546V943c0-661-90-784-621-822V0h1504v134c-493 0-602 148-602 797v2589L2586 0h89z" transform="scale(.01563)"/><path id="NimbusRomNo9L-Regu-61" d="M2829 423c-109-90-186-122-282-122-147 0-192 89-192 371v1248c0 333-32 518-128 672-141 230-416 352-793 352-602 0-1076-314-1076-717 0-147 128-275 276-275 153 0 288 128 288 269 0 25-7 57-13 102-13 58-19 109-19 154 0 173 204 313 460 313 314 0 487-185 487-531v-390c-986-397-1095-448-1370-691-141-128-230-346-230-557 0-403 281-685 672-685 281 0 544 134 934 467 32-333 147-467 410-467 217 0 352 77 576 320zm-992 360c0-199-32-257-167-334-153-90-332-148-467-148-224 0-403 219-403 495v26c0 379 262 611 1037 893z" transform="scale(.01563)"/><path id="NimbusRomNo9L-Regu-67" d="M3008 2496v250h-493c-128 0-224 17-352 56l-141 45c-172 56-345 84-512 84-595 0-1068-464-1068-1050 0-405 172-651 595-863-122-112-237-219-275-250-212-180-295-305-295-430 0-132 77-207 339-332-454-335-627-549-627-787 0-343 499-627 1107-627 480 0 980 170 1312 446 244 203 352 414 352 663 0 407-300 683-774 683h-826c-339 0-499 59-499 164 0 130 211 360 384 412 58-7 103-13 122-13 121-13 205-19 243-19 237 0 493 98 691 275 211 184 307 414 307 742 0 190-32 341-121 551zM941-13c211-45 723-83 1037-83 582 0 793-84 793-318 0-377-486-629-1209-629-564 0-935 188-935 473 0 150 45 234 314 557m32 2158c0 381 179 607 473 607 199 0 365-110 468-303 115-226 192-522 192-774 0-361-186-587-480-587-384 0-653 419-653 1038z" transform="scale(.01563)"/><path id="NimbusRomNo9L-Regu-6e" d="M102 2579c39 19 103 26 173 26 179 0 237-96 237-410V608c0-365-70-454-397-480V32h1357v96c-326 26-422 102-422 333v1798c307 288 448 365 659 365 313 0 467-198 467-621V666c0-404-83-512-403-538V32h1331v96c-314 32-390 109-390 422v1466c0 602-282 960-756 960-294 0-492-109-928-518v505l-44 13c-314-115-532-186-884-288z" transform="scale(.01563)"/><path id="NimbusRomNo9L-Regu-69" d="m1120 2929-992-350v-95l51 6c77 12 160 19 218 19 153 0 211-103 211-384V640c0-461-64-531-506-531V0h1517v96c-422 32-473 95-473 554v2260zM819 4352c-173 0-320-147-320-326s141-327 320-327c186 0 333 141 333 327 0 179-147 326-333 326" transform="scale(.01563)"/><path id="NimbusRomNo9L-Regu-74" d="M1632 2880H986v742c0 64-7 84-45 84-45-58-83-116-128-180-243-352-519-659-621-685-70-47-109-93-109-126 0-20 7-33 26-33h339V751c0-539 192-815 570-815 313 0 556 154 768 487l-84 70c-134-160-243-224-384-224-236 0-332 174-332 578v1835h646z" transform="scale(.01563)"/><path id="NimbusRomNo9L-Regu-75" d="M3066 320h-32c-295 0-365 70-365 365v2195H1658v-122c396 0 473-64 473-383V875c0-178-32-268-121-338-173-140-372-217-564-217-249 0-454 217-454 485v2075H58v-102c307 0 396-96 396-391V770c0-507 308-834 775-834 237 0 486 102 659 275l275 275V-45l26-13c320 128 550 199 877 288z" transform="scale(.01563)"/><path id="NimbusRomNo9L-Regu-64" d="m2202-64 940 333v96h-147c-230 0-281 70-281 366v3633l-32 13c-308-109-532-173-941-281v-102c51 6 89 6 141 6 236 0 294-64 294-328V2669c-243 205-416 275-672 275-736 0-1331-723-1331-1632C173 493 653-64 1357-64c358 0 601 128 819 429V-45zm-26 717c0-45-45-122-109-192-115-128-275-192-461-192-531 0-883 512-883 1299 0 723 314 1197 800 1197 339 0 653-301 653-640z" transform="scale(.01563)"/><path id="NimbusRomNo9L-Regu-65" d="M2611 1053c-307-489-582-675-992-675-365 0-640 186-825 552-116 244-160 456-173 849h1971c-51 414-115 598-275 802-192 230-487 363-819 363-320 0-621-115-864-333-301-262-474-717-474-1241C160 486 621-64 1357-64c608 0 1088 379 1357 1072zM634 1984c70 495 288 730 678 730s544-179 627-730z" transform="scale(.01563)"/><path id="NimbusRomNo9L-Regu-42" d="M109 4237v-141c537 0 614-70 614-548V689c0-477-83-561-614-561V0h2137c500 0 954 136 1191 356 230 208 358 499 358 809 0 286-115 545-313 732-192 175-365 253-781 356 333 82 467 145 621 278 160 140 256 372 256 632 0 708-570 1074-1677 1074zm1267-2125c621 0 915-32 1146-130 364-155 537-414 537-823 0-350-134-604-390-753-205-116-467-168-890-168-313 0-403 58-403 266zm0 256v1444c0 132 45 189 141 189h281c736 0 1127-302 1127-864 0-491-339-769-941-769z" transform="scale(.01563)"/></defs><use xlink:href="#NimbusRomNo9L-Regu-4d" transform="scale(.99626)"/><use xlink:href="#NimbusRomNo9L-Regu-61" transform="matrix(.99626 0 0 .99626 88.567 0)"/><use xlink:href="#NimbusRomNo9L-Regu-67" transform="matrix(.99626 0 0 .99626 132.8 0)"/><use xlink:href="#NimbusRomNo9L-Regu-6e" transform="matrix(.99626 0 0 .99626 182.614 0)"/><use xlink:href="#NimbusRomNo9L-Regu-69" transform="matrix(.99626 0 0 .99626 232.427 0)"/><use xlink:href="#NimbusRomNo9L-Regu-74" transform="matrix(.99626 0 0 .99626 260.122 0)"/><use xlink:href="#NimbusRomNo9L-Regu-75" transform="matrix(.99626 0 0 .99626 287.817 0)"/><use xlink:href="#NimbusRomNo9L-Regu-64" transform="matrix(.99626 0 0 .99626 337.63 0)"/><use xlink:href="#NimbusRomNo9L-Regu-65" transform="matrix(.99626 0 0 .99626 387.444 0)"/><use xlink:href="#NimbusRomNo9L-Regu-28" transform="matrix(.99626 0 0 .99626 456.584 0)"/><use xlink:href="#NimbusRomNo9L-Regu-64" transform="matrix(.99626 0 0 .99626 489.759 0)"/><use xlink:href="#NimbusRomNo9L-Regu-42" transform="matrix(.99626 0 0 .99626 539.572 0)"/><use xlink:href="#NimbusRomNo9L-Regu-29" transform="matrix(.99626 0 0 .99626 606.022 0)"/></g></g><path id="line2d_127" d="m38.554 131.983.134-2.18.067 3.17.067-3.09.067.554.067-.007.067 1.807.201-4.044.067 3.012.067-.377.134 1.424.067-1.023.067 2.17.067-3.716.067.6.067 1.71.067-.728.067.39.067-1.809.067 5.008.134-5.212.067 3.22.067-1.87.067-1.335.067 2.722.067-2.145.067.034.134 2.286.067-2.277.067.656.067-1.192.067 1.908.067-.428.2 2.102.135-4.139.067 2.396.067-2.773.134 4.02.067-.587.067-1.727.067.835.067 2.284.067-2.954.067.964.067-1.307.067 1.731.067-.903.067-.346.067 2.992.067-3.836.066 3.939.067-2.223.067-1.552.134 1.357.134-2.824.134 4.942.067-2.827.067 2.417.067-4.247.067 3.404.067-2.736.067 1.456.134-1.934.067 2.05.067-.39.067-1.151.201 3.11.134-4.072.134 3.607.067-2.687.067.556.067.595.134-1.04.134 3.567.067-4.274.067 2.625.067-1.378.134 2.589.134-3.217.134 4.038.067-2.914.067.395.134 2.932.134-5.476.134 4.274.067-2.84.067.595.067.695.067-3.548.067 1.706.067-.917.134 4.642.067-2.536.067.182.134.298.067-1.624.067 1.654.067-.62.067-2.727.2 4.137.068.28.067-2.674.067 3.285.067-.93.134-1.266.066 2.624.134-5.485.201 3.611.134-1.716.134 1.996.067-3.508.067 4.669.067-1.183.067-1.127.067 1.517.067-1.725.067 1.37.067-1.851.067 2.996.067-1.313.067.364.067-4.053.134 8.038.067-5.622.067.184.268 2.571.067-3.793.067 1.946.067-.23.067.783.067 2.8.134-6.169.134 3.92.067-1.94.067 1.902.067-.81.067-.816.067 1.41.2-3.469.068 6.673.067-3.818.067-.018.067-.15.067.236.134-3.124.067.632.067 2.337.067-.664.134 1.058.067-2.036.067 3.828.067-1.395.067-2.78.067 2.45.067-3.141.067.385.134 2.894.134-1.11.067 1.615.134-2.25.067.552.067-2.01.067.82.066-.592.067 4.13.067-1.954.067 1.342.067-3.102.067 3.287.067-3.645.067 2.708.067-.605.067-3.352.134 5.043.067-.111.067-3.952.067 1.158.134-1.108.201 4.973.134-4.068.067 3.463.067-4.78.067 1.48.067.784.067-.46.067.193.067 3.432.067-.677.201-3.146.067 1.716.067-1.369.067 1.76.067-2.117.067 2.779.067-11.967.134 11.168.134-3.847.067 1.24.067 3.997.134-4.33.067 4.06.067-4.277.134 4.458.134-5.141.067 4.966.067-2.443.134-3.992.134 7.537.134-4.68.067 2.465.067-1.344.067 1.526.067-2.598.067 1.59.134-2.488.067.47.134 3.25.268-3.97.066.253.067 1.696.134-2.798.134 3.63.067-.235.067-2.587.067 1.22.067-.973.067 1.612.067-2.142.134 4.209.134-4.926.067 4.164.067-2.948.067 1.843.067-1.128.067 2.197.067-1.021.134-3.22.067 1.71.067-.385.067.247.067 3.285.067-3.447.067 2.102.067 1.3.067-2.567.067.564.067-.687.067.39.134-.895.067.675.134-1.857.134 4.432.067-5.79.067 3.075.067-1.196.134 2.97.2-2.298.068 2.144.067-.52.067-1.735.067 1.708.134-2.923.134 3.595.067-1.97.067 3.235.067-3.966.067 2.364.067.88.067-4.237.067.76.067-.136.067.864.134-1.927.134 3.326.067-3.24.2 5.046.068-3.593.066 3.774.067-3.128.067 5.545.134-8.002.067 3.103.067-1.665.201 3.326.067-2.684.067 1.811.067-2.254.067 1.31.067.116.067-2.153.134 1.966.067-.602.067.056.067 3.727.067-3.317.067.865.067-1.683.067 3.177.067-4.124.067 4.301.067-4.85.067 5.033.067-5.592.067 1.965.067.167.067 2.578.067-2.845.067 1.862.067.681.067-3.671.067 3.628.067-2.497.067 1.044.067 1.471.067-1.703.067.801.067-.275.067-1.706.067.429.067 1.75.067-1.048.067.288.134-2.324.067.517.067 5.425.2-6.817.068 1.599.067-2.777.2 6.37.135-4.026.134 3.193.067-2.794.067.162.2 2.893.135-2.756.067 2.75.067-.49.2-2.953.067.143.201 3.835.201-6.386.134 6.25.134-3.322.268-1.021.067.336.067-.356.134 2.135.201-2.32.201 3.258.134-3.42.067 3.05.067-.463.067-.096.067-2.348.067 2.565.134-2.784.067 3.56.067-.95.067-1.657.067 2.463.134-3.25.067 2.655.067-3.665.134 4.426.134-3.617.067.402.067 2.503.067-.019.067-.025.067-2.016.067 3.032.134-2.648.067 2.106.067-1.944.067 2.25.067-3.206.067 3.027.067-3.812.067 3.477.067-1.149.067-.61.067-1.632.067 3.385.067-1.052.067 2.104.134-4.653.134 4.79.067-3.57.067 1.015.067-2.216.067 4.71.066-3.004.067-2.355.067 1.468.067.947.067-.802.067.919.067-2.34.067.805.201.675.067 2.415.134-3.26.067 1.699.067-1.961.067 1.142.067.934.134-2.69.201 3.522.201-3.73.134 2.565.067-3.157.067 6.683.067-4.842.067 1.179.067-.518.067 1.344.134-3.283.067 3.072.067-1.093.067 1.955.067-1.201.067-2.627.134 3.094.067-.617.067-1.839.067.03.268 3.407.067-.398.067-3.91.067 2.076.134-.948.067 2.206.067-4.068.067 2.292.067.29.067-1.1.067.642.067-.572.134 2.787.134-2.253.067.045.067.282.067-.248.2 2.537.068-3.86.067 1.698.067 1.09.066-1.786.067 1.095.201-2.658.067.186.067.99.067-.726.268 4.347.067-3.783.067.084.134.926.067.78.201-1.546.067.095.067-.22.067.638.067-2.28.067.031.067 1.704.067-.808.134-.52.134 2.102.067-1.445.067 1.412.067-.536.067.14.067-1.813.067.72.067 1.753.067-1.937.067.3.067 1.193.067-2.342.067.58.067 1.797.067-.868.067.031.067 1.463.134-2.087.067.827.067-.038.067-.03.067-.439.067.339.067-2.468.067 3.341.067-.841.134-.83.067.003.067 2.812.134-2.603.067-.034.067-1.167.067 2.947.067-.883.067-2.198.067.997.134 1.253.067-.597.067-1.87.134 3.567.067-2.29.066.08.067.526.067-1.352.067.41.067 1.609.201-1.81.134 3.46.067-3.316.067.305.067.013.067 1.893.134-1.895.067 1.898.134-3.131.067 2.09.067-.503.067-.08.067 1.412.067-2.617.067 2.135.067-1.592.067.2.067-.143.067-.465.067.097.134 1.374.201-2.525.201 3.133.067-.113.201-3.2.2 1.934.135-.878.067.646.067-1.194.067.695.067.688.2-1.792.068 1.113.067-.021.067-1.615.134 1.858.067-2.207.067 1.329.134 1.474.268-3.025.067 1 .067-.579.067.784.067-2.256.067 3.075.067-1.306.067.133.067-.609.067.672.066-1.114.201 3.533.067-.363.134-2.536.067-.237.067-8.362.134 10.176.067-1.429.067 1.268.067-2.434.067 2.452.067-.49.201-2.197.067 2.666.067-.533.067.234.134-2.68.134 2.145.134-1.86.201 2.34.134-2.382.067 1.142.067.382.067 1.87.067-2.355.067 2.34.067-.614.2-.703.068.916.134-2.641.067 1.993.067-.233.067.22.067.743.134-3.786.067.033.067 3.096.067-.98.134-1.053.2 2.256.135-2.764.067.604.134-.468.067-.394.067.04.134 1.115.067-.915.067 1.881.067-1.875.067.325.067 1.473.067-.147.067-2.134.066.287.067.182.067 3.297.201-3.937.134 2.66.067-4.2.067 2.285.201 1.72.067-3.84.067.176.067-.115.067 2.511.067-.294.067-2.61.067 1.525.067.412.134 1.384.067-.571.067-1.961.067.006.067 1.975.067-2.585.067 2.736.067-6.097.067 4.853.067-2.376.067 1.874.067-.627.067.043.067 1.726.067-1.615.067 3.132.067-4.016.067 3.207.067-1.664.067 2.078.067-3.22.067.174.134 2.645.268-4.903.2 6.79.135-4.107.067 3.765.067-6.509.067 5.676.067-1.749.067-1.377.134 1.743.134-3.288.067 1.375.067-2.232.067.39.067 3.76.067-2.916.067 7.382.134-9.054.134 2.925.134-.865.066.26.067-2.469.067 1.013.067 1.927.067-3.318.067 1.326.067-.032.067 4.048.067-2.306.134-.803.134.996.067-.555.067.357.067-.495.067.347.067-.323.067.02.067 1.45.067-.566.067-5.094.067.66.134 6.176.067-2.46.067-.02.067-3.44.067 1.782.134-2.51.067 6.076.067-3.348.134 1.59.067-3.467.067 3.363.067-3.671.067.947.201 5.564.067-4.658.067.481.067-.238.067-2.96.067 1.95.067 1.019.067-.307.067-2.689.067.52.134 2.933.067-1.398.067-4.411.067 4.062.067-1.735.134 4.929.067-4.811.067.34.067-.738.067 7.277.067-7.784.067 5.646.067-4.39.067.931.067 1.045.134-2.423.067.751.134-1.347.067 2.876.067-1.018.067-.591.133 2.608.067-4.29.067 3.028.201-3.173.067 2.848.067-1.477.067 1.476.067-1.61.067 1.157.067-.534.067-1.64.067 1.154.067-.473.067.289.067-2.82.067 1.582.134.123.067 3.694.067-2.303.067-.516.067 1.569.201-5.442.067 6.095.134-6.106.134 6.572.134-6.963.067 4.071.067-.814.134-2.77.2 5.036.068-.142.067-2.826.067 2.754.2-2.868.068-.212.134 1.97.067-4.503.134 7.002.067-7.576.067 2.262.067.988.067-4.49.134 6.51.067-5.998.067 5.104.067-2.682.067-.48.134 1.423.067 2.674.2-4.633.068.683.067-4.693.2 4.642.068.628.066 2.565.201-3.77.067-.614.067 2.162.134-2.505.067 1.394.067 4.074.067-4.734.067.44.067-.146.134-2.151.067.783.067 3.13.134-2.514.067 1.138.067-4.62.134 5.006.067-5.974.067 4.816.067-1.988.067 2.137.067-.772.067.296.067-4.692.201 5.514.067-5.179.067 5.79.067-1.96.067-2.902.067 1.222.067 1.94.067-.904.134-1.737.067 1.914.067-1.201.067-.096.067.348.2-3.059.068 3.192.067-.72.2-3.597.202 3.23.067-2.154.067 2.346.067-.867.2-3.606.068 6.508.067-3.327.134-.648.067.14.134-2.018.067.163.067 2.074.067-.893.067-1.972.067 1.585.066-.722.067.107.067 2.061.134-2.566.201 3.333.201-5.189.067 1.206.134.366.201-3.075.067 3.06.067-.293.134-1.887.067 1.971.067-2.723.067 1.985.067-.737.067-1.646.067 2.163.067-2.023.067.997.134.634.134-2.694.067 1.542.067-1.47.067.006.201 1.758.201-3.348.067.941.067-1.771.067.211.067 1.364.067-.6.067-.19.067-1.494.067 2.384.2-3.6.135.288.067 1.44.067-2.212.067 2.37.2-2.802.202 1.82.067-2.82.067 1.933.067-2.677.067.752.067-.027.067 2.64.067-.373.067-2.91.067.626.134-1.467.067.54.066-2.324.067 2.754.201-4.197.067 1.354.067-.776.067.818.201-3.167.067 3.42.067-4.77.067 3.566.067-5.18.067 6.136.067-6.383.067 4.397.067-6.563.067 7.414.067-8.94.067 6.823.067-7.18.067 5.668.067-7.706.067 6.663.067-6.307.067 4.725.067-7.299.067 5.316.067-5.243.067 1.37.268-6.16.067 3.511.201-8.97.067 7.072.067-9.882.067 7.823.067-10.722.067 9.431.067-14.872.067 18.051.2-28.455.068 33.072.2-58.254.068-6.151.067 6.15.2 58.255.068-33.072.067 21.19.067-13.018.067 20.283.067-18.051.067 14.872.067-9.431.067 10.722.067-7.823.067 9.882.067-7.072.2 8.97.068-3.51.067 1.738.067 3.39.066-1.391.201 6.295.067-5.316.067 7.299.067-4.725.067 6.307.067-6.663.067 7.706.067-5.667.067 7.179.067-6.823.067 8.94.067-7.414.067 6.563.067-4.397.067 6.383.067-6.136.067 5.18.067-3.565.067 4.768.067-3.419.067 2.203.067-1.247.067 2.21.067-.817.067.776.067-1.354.201 4.197.067-2.754.067 2.324.067-.54.067.182.268 3.941.067-2.639.067.027.067-.752.067 2.677.067-1.933.067 2.82.067-1.162.067.488.067-1.146.2 2.802.068-2.37.067 2.212.067-1.44.067-.042.067-.247.2 3.6.068-2.383.067 1.494.067.19.067.6.134-1.575.067 1.771.067-.94.067.152.134 3.195.067-1.44.067.152.134-.475.067 1.47.066-1.543.067.062.067 2.632.067-.214.134-1.417.067 2.023.067-2.163.134 2.383.067-1.985.067 2.723.067-1.97.067 1.154.134 1.025.067-3.06.067 1.608.067-.043.067 1.51.067-.103.067-.263.067-1.206.201 5.189.067-1.102.067-.553.067-1.678.134 2.566.134-2.168.067.722.067-1.585.134 2.865.134-2.237.335 2.526.067 3.327.067-6.508.067 2.366.067.326.134 1.78.067-2.345.067 2.155.2-3.23.202 3.595.067.721.067-3.192.067 1.204.067.322.067 1.533.067-.348.067.096.067 1.201.067-1.914.067.697.134 1.945.134-3.163.134 4.862.067-5.79.066 5.179.067-1.08.067-.442.067-3.992.067 4.692.067-.296.067.772.067-2.137.067 1.988.067-4.816.067 5.974.067-1.667.067-3.34.067 4.62.067-1.137.067.246.067 2.268.134-3.913.201 2.297.067-.44.067 4.734.134-5.468.067.398.067 2.107.067-2.162.067.614.201 3.77.201-3.841.067-.807.067-3.187.067 4.693.067-.683.134 1.773.067 2.86.2-4.096.068.479.067 2.682.067-5.104.067 5.998.067-1.164.067-5.346.067 4.49.067-.988.067-2.262.067 7.576.067-3.548.067-3.454.067 4.503.067-1.415.067-.555.067.212.2 2.868.068-2.754.134 2.968.2-5.036.202 3.584.067-4.071.133 6.963.134-6.572.067.987.067 5.12.067-6.096.067 2.063.134 3.379.067-1.569.067.516.067 2.303.134-3.786.067-.03.067-1.583.067 2.82.067-.289.067.473.067-1.154.134 2.174.067-1.156.067 1.61.067-1.477.067 1.477.067-2.848.067 1.757.067-.823.067 2.24.067-3.029.067 4.29.067-.085.067-2.523.067.591.067 1.018.067-2.876.067.904.067.443.067-.75.134 2.422.134-1.976.067 4.39.067-5.646.067 7.784.067-7.277.067.738.067-.34.067 4.81.067-2.79.067-2.138.067 1.735.067-4.062.134 5.809.067-.538.134-2.915.134 2.996.134-2.969.134 3.198.067-.48.067 4.657.2-5.564.068-.947.067 3.67.067-3.362.067 3.467.067-.743.066-.847.067 3.348.067-6.075.067 1.6.067.909.067-1.783.201 5.921.201-6.836.134 5.66.134-1.47.067.323.067-.347.067.495.067-.357.067.555.134-.996.067.07.067.733.067 2.306.067-4.048.067.032.067-1.326.067 3.318.067-1.927.067-1.013.067 2.469.067-.26.134.865.067-.407.067-2.518.067 1.742.067 7.312.067-7.382.067 2.915.134-4.15.067 2.233.067-1.375.134 3.288.067-.15.067-1.593.134 3.126.067-5.676.067 6.509.067-3.765.067.644.067 3.463.067-1.822.067.052.067-5.02.067 2.523.067-1.569.134 3.95.067-.443.134-2.377.067 3.22.067-2.078.067 1.664.067-3.207.067 4.016.067-3.132.067 1.615.133-1.77.067.628.067-1.874.067 2.376.067-4.853.067 6.097.067-2.736.067 2.585.134-1.981.134 2.532.067-.206.201-3.114.134 2.903.067-2.511.067.115.067-.176.067 3.84.067-.818.067.373.134-3.56.067 4.2.067-1.64.067-1.02.067.584.067.893.067 2.46.134-3.479.067-.287.134 2.28.134-1.797.067 1.875.067-1.881.067.915.2-1.155.202.862.067-.604.134 2.764.067-.39.067-.458.067-1.408.067.059.134 1.974.134-3.129.134 3.786.134-.963.067.233.067-1.993.067.379.067 2.262.067-.916.268 1.317.067-2.34.067 2.356.2-3.395.134 2.383.067-.152.134-2.188.134 1.859.067-.258.067-1.887.067 1.177.067 1.503.067-.234.067.533.067-2.666.067 1.62.067-.042.134 1.109.067-2.452.067 2.434.067-1.268.067 1.429.067-2.102.067-8.074.134 8.599.067.121.134 2.778.201-3.533.067 1.114.067-.672.201 1.782.067-3.075.067 2.256.067-.784.067.58.067-1.001.268 3.025.067-.043.134-2.76.067 2.207.067-.036.067-1.822.134 1.636.067-1.113.067.323.134 1.469.134-1.383.067 1.194.067-.646.134.878.2-1.933.202 3.2.067.112.067-2.448.067.76.067-1.445.2 2.525.201-1.47.067.464.067.144.067-.2.067 1.591.067-2.135.067 2.617.067-1.413.067.08.067.504.067-2.09.067 1.037.067 2.094.067-1.898.067.258.067 1.637.134-1.906.067-.305.067 3.317.067-2.064.067-1.397.067.511.067.08.067 1.219.134-2.02.067 1.353.067-.527.067-.08.067 2.29.134-3.567.134 2.468.067-.195.134-2.055.134 3.08.067-2.946.067 1.167.134.185.067 2.452.134-2.815.067.173.134 1.498.067-3.34.067 2.467.067-.339.134.47.067.037.067-.827.067.527.067 1.56.134-1.494.067.868.134-2.377.067 2.342.067-1.193.067-.3.067 1.937.134-2.473.067 1.813.067-.14.066.536.067-1.412.067 1.445.134-2.101.067.003.134 1.324.134-1.735.067 2.28.067-.639.268.76.067.912.201-1.706.067-.084.067 3.783.067-2.27.201-2.077.067.726.134-1.176.067.258.268 3.09.134-2.787.067 3.86.067-1.866.067.431.067-1.102.067.248.134-.327.134 2.253.268-2.856.067 1.099.067-.29.067-2.292.067 4.068.067-2.206.134.948.067-2.075.134 4.307.268-3.406.067-.031.134 2.456.134-3.094.134 3.828.2-3.934.068.363.067 2.92.066-1.344.067.518.067-1.179.067 4.842.067-6.683.067 3.157.067-.584.067-1.982.201 3.731.134-2.24.067-1.282.067.612.067 2.078.067-.934.067-1.142.067 1.96.067-1.697.134 3.26.134-2.574.134-.517.067-.805.067 2.34.067-.92.067.803.134-2.415.134 5.36.067-4.71.067 2.215.067-1.016.067 3.571.134-4.79.067 1.215.067 3.438.067-2.104.067 1.052.067-3.385.067 1.632.134 1.759.067-3.477.067 3.812.067-3.027.067 3.206.067-2.25.067 1.944.067-2.106.067.11.067 2.538.067-3.032.134 2.041.067.02.134-2.906.067.212.067 3.405.067-.538.067-3.888.067 3.665.067-2.656.067.921.067 2.33.067-2.463.134 2.607.067-3.56.067 1.018.066 1.766.067-2.565.134 2.444.067.462.067-3.05.067 1.135.067 2.286.201-3.258.201 2.32.134-2.135.067.356.067-.336.067.107.067-.082.201 1.518.067 2.8.134-6.25.067 5.46.067-1.637.067 2.563.067-.604.067-.696.134-2.678.268 3.444.067-2.75.067.616.067 2.14.067-1.189.067-.388.134-1.48.067 2.795.067-.101.067-3.092.067.12.067 3.906.067-1.852.067-.908.067-3.61.067 2.777.067-1.6.2 6.818.135-5.942.067.231.2 2.853.135-2.179.134 1.981.067-.8.067 1.702.134-2.515.067 2.497.067-3.628.067 3.671.067-.681.067-1.862.066 2.845.201-4.71.067 5.592.067-5.033.067 4.85.067-4.301.067 4.124.067-3.177.067 1.683.067-.865.067 3.317.134-3.783.067.602.067-.256.067-1.71.067 2.153.067-.115.067-1.31.067 2.253.067-1.811.067 2.684.067-.092.268-4.672.134 8.002.067-5.545.067 3.128.067-3.774.067 3.593.201-5.046.067 3.24.067-.945.067-2.38.067 1.352.067.574.2-1.488.068 4.236.067-.88.067-2.363.067 3.966.067-3.235.067 1.97.067-.487.067-3.108.067 1.78.067 1.143.067-1.708.134 2.255.067-2.144.067.004.134 2.293.067-.553.2-4.296.068 5.791.067-.14.067-4.292.067 1.021.067.836.067-.675.067.39.067.504.066-.389.067.687.067-.564.067 2.567.067-1.3.067-2.102.067 3.447.134-3.532.067.384.067-1.71.067.993.134 3.249.067-2.197.067 1.128.067-1.843.067 2.948.067-4.164.067 1.758.067 3.168.134-4.209.067 2.142.067-1.612.067.973.067-1.22.134 2.821.134-3.63.067.103.067 2.696.067-1.696.067-.253.067.252.201 3.717.067-1.033.134-2.686.134 2.488.067-1.59.067 2.598.067-1.526.067 1.344.067-2.465.067.581.067 4.099.134-7.537.067 1.661.134 4.774.067-4.966.067 1.605.067 3.536.067-1.434.067-3.024.067 4.277.067-4.06.067.398.067 3.932.134-5.237.134 3.847.067-1.813.067-9.355.067 11.967.067-2.78.067 2.118.067-1.76.067 1.369.066-1.716.268 3.823.134-3.624.067.46.134-2.264.067 4.78.067-3.464.067 1.097.067 2.971.067-4.239.067.588.067-1.322.067.398.067.71.067-1.158.134 4.063.134-5.043.134 3.957.067-2.708.067 3.645.067-3.287.067 3.102.067-1.342.067 1.954.067-4.13.067.591.067-.82.067 2.011.067-.553.067.57.067 1.681.067-1.614.067.484.067.625.2-3.28.068 3.141.067-2.45.134 4.176.067-3.828.067 2.036.067-.1.067-.958.067.664.134-2.97.134 3.125.067-.236.134.168.067 3.818.067-6.673.067.043.134 3.427.067-1.41.067.815.067.81.067-1.903.067 1.94.134-3.919.134 6.17.133-3.584.067.23.067-1.946.067 3.793.067-1.106.201-1.465.067-.184.067 5.622.134-8.038.067 4.053.067-.364.067 1.313.067-2.996.067 1.852.067-1.371.067 1.725.067-1.517.134 2.31.067-4.67.067 3.509.067-.99.067-1.006.067.224.067 1.492.201-3.61.134 5.484.067-2.624.201 2.196.067-3.285.067 2.674.067-.28.2-4.137.135 3.347.067-1.654.067 1.624.067-.142.134-.338.067 2.536.268-5.43.067 3.547.067-.695.067-.594.067 2.839.067-1.855.067-2.42.134 5.477.067-.189.134-3.138.067 2.914.067-1.648.067-2.39.067.951.067 2.266.067-.642.067-1.947.067 1.378.067-2.625.067 4.274.066-1.271.067-2.297.067.167.067.874.134-1.151.067 2.687.134-3.607.067.92.067 3.152.067-1.757.067.886.067-2.24.067 1.153.067.39.067-2.05.067.388.067 1.545.067-1.456.067 2.736.067-3.404.067 4.247.067-2.417.067 2.827.134-4.942.134 2.824.067-.27.067-1.087.134 3.775.067-3.939.067 3.836.067-2.992.067.346.067.903.067-1.73.067 1.306.067-.964.067 2.954.134-3.119.134 2.315.067-.243.067-3.778.067 2.773.067-2.396.134 4.139.067-.404.268-3.178.2 2.813.202-2.32.067 2.145.067-2.722.067 1.335.067 1.87.067-3.22.067.797.067 4.415.067-5.008.067 1.81.067-.391.067.727.133-2.309.067 3.715.067-2.169.067 1.023.134-1.424.067.377.067-3.012.067.795.134 3.249.067-1.807.067.007.067-.554.067 3.09.067-3.17.067 1.34" clip-path="url(#p14d4566722)" style="fill:none;stroke:#000;stroke-linecap:square"/><path id="patch_3" d="M30.184 142.2V3.6" style="fill:none;stroke:#000;stroke-width:.5;stroke-linejoin:miter;stroke-linecap:square"/><path id="patch_4" d="M214.324 142.2V3.6" style="fill:none;stroke:#000;stroke-width:.5;stroke-linejoin:miter;stroke-linecap:square"/><path id="patch_5" d="M30.184 142.2h184.14" style="fill:none;stroke:#000;stroke-width:.5;stroke-linejoin:miter;stroke-linecap:square"/><path id="patch_6" d="M30.184 3.6h184.14" style="fill:none;stroke:#000;stroke-width:.5;stroke-linejoin:miter;stroke-linecap:square"/></g></g><defs><clipPath id="p14d4566722"><path d="M30.184 3.6h184.14v138.6H30.184z"/></clipPath></defs></svg>