<svg xmlns="http://www.w3.org/2000/svg" xmlns:xlink="http://www.w3.org/1999/xlink" width="290.566" height="223.411" viewBox="0 0 217.924 167.558"><defs><style>*{stroke-linejoin:round;stroke-linecap:butt}</style></defs><g id="figure_1"><path id="patch_1" d="M0 167.558h217.924V0H0z" style="fill:none"/><g id="axes_1"><path id="patch_2" d="M30.184 142.2h184.14V3.6H30.184z" style="fill:none"/><g id="matplotlib.axis_1"><g id="xtick_1"><g id="line2d_1"><defs><path id="m9b056395a2" d="M0 0v-3" style="stroke:#000;stroke-width:.5"/></defs><use xlink:href="#m9b056395a2" x="55.301" y="142.2" style="stroke:#000;stroke-width:.5"/></g><g id="line2d_2"><defs><path id="m0a4d809159" d="M0 0v3" style="stroke:#000;stroke-width:.5"/></defs><use xlink:href="#m0a4d809159" x="55.301" y="3.6" style="stroke:#000;stroke-width:.5"/></g><g id="text_1" transform="matrix(.08 0 0 -.08 47.116 151.104)"><defs><path id="CMSY10-0" d="M4218 1472c108 0 224 0 224 128s-116 128-224 128H755c-109 0-224 0-224-128s115-128 224-128z" transform="scale(.01563)"/><path id="NimbusRomNo9L-Regu-30" d="M1626 4352c-352 0-621-108-858-332-371-359-614-1095-614-1844 0-697 211-1446 512-1804C902 90 1229-64 1600-64c326 0 602 109 832 333 371 352 614 1095 614 1869 0 1312-582 2214-1420 2214m-20-166c538 0 826-723 826-2061 0-1337-282-2022-832-2022S768 788 768 2119c0 1357 288 2067 838 2067" transform="scale(.01563)"/><path id="CMMI10-3a" d="M1229 338c0 184-154 337-339 337-186 0-340-153-340-337C550 153 704 0 890 0c185 0 339 153 339 338" transform="scale(.01563)"/><path id="NimbusRomNo9L-Regu-32" d="m3040 875-83 32c-237-363-320-421-608-421H819l1075 1123c570 593 820 1078 820 1576 0 638-519 1128-1184 1128-352 0-685-140-922-395-205-218-301-422-410-875l135-32c256 625 486 829 928 829 537 0 902-364 902-900 0-497-294-1090-832-1658L192 77V0h2496z" transform="scale(.01563)"/></defs><use xlink:href="#CMSY10-0" transform="scale(.99626)"/><use xlink:href="#NimbusRomNo9L-Regu-30" transform="matrix(.99626 0 0 .99626 77.409 0)"/><use xlink:href="#CMMI10-3a" transform="matrix(.99626 0 0 .99626 127.222 0)"/><use xlink:href="#NimbusRomNo9L-Regu-32" transform="matrix(.99626 0 0 .99626 154.817 0)"/></g></g><g id="xtick_2"><use xlink:href="#m9b056395a2" id="line2d_3" x="88.794" y="142.2" style="stroke:#000;stroke-width:.5"/><use xlink:href="#m0a4d809159" id="line2d_4" x="88.794" y="3.6" style="stroke:#000;stroke-width:.5"/><g id="text_2" transform="matrix(.08 0 0 -.08 80.61 151.104)"><defs><path id="NimbusRomNo9L-Regu-31" d="M1862 4339 710 3757v-90c77 32 148 58 173 71 115 45 224 70 288 70 135 0 192-97 192-303V592c0-213-51-360-153-419-96-57-186-77-455-77V0h1767v96c-506 0-608 64-608 374v3857z" transform="scale(.01563)"/></defs><use xlink:href="#CMSY10-0" transform="scale(.99626)"/><use xlink:href="#NimbusRomNo9L-Regu-30" transform="matrix(.99626 0 0 .99626 77.409 0)"/><use xlink:href="#CMMI10-3a" transform="matrix(.99626 0 0 .99626 127.222 0)"/><use xlink:href="#NimbusRomNo9L-Regu-31" transform="matrix(.99626 0 0 .99626 154.817 0)"/></g></g><g id="xtick_3"><use xlink:href="#m9b056395a2" id="line2d_5" x="122.288" y="142.2" style="stroke:#000;stroke-width:.5"/><use xlink:href="#m0a4d809159" id="line2d_6" x="122.288" y="3.6" style="stroke:#000;stroke-width:.5"/><g id="text_3" transform="matrix(.08 0 0 -.08 117.199 151.104)"><use xlink:href="#NimbusRomNo9L-Regu-30" transform="scale(.99626)"/><use xlink:href="#CMMI10-3a" transform="matrix(.99626 0 0 .99626 49.813 0)"/><use xlink:href="#NimbusRomNo9L-Regu-30" transform="matrix(.99626 0 0 .99626 77.409 0)"/></g></g><g id="xtick_4"><use xlink:href="#m9b056395a2" id="line2d_7" x="155.781" y="142.2" style="stroke:#000;stroke-width:.5"/><use xlink:href="#m0a4d809159" id="line2d_8" x="155.781" y="3.6" style="stroke:#000;stroke-width:.5"/><g id="text_4" transform="matrix(.08 0 0 -.08 150.692 151.104)"><use xlink:href="#NimbusRomNo9L-Regu-30" transform="scale(.99626)"/><use xlink:href="#CMMI10-3a" transform="matrix(.99626 0 0 .99626 49.813 0)"/><use xlink:href="#NimbusRomNo9L-Regu-31" transform="matrix(.99626 0 0 .99626 77.409 0)"/></g></g><g id="xtick_5"><use xlink:href="#m9b056395a2" id="line2d_9" x="189.275" y="142.2" style="stroke:#000;stroke-width:.5"/><use xlink:href="#m0a4d809159" id="line2d_10" x="189.275" y="3.6" style="stroke:#000;stroke-width:.5"/><g id="text_5" transform="matrix(.08 0 0 -.08 184.186 151.104)"><use xlink:href="#NimbusRomNo9L-Regu-30" transform="scale(.99626)"/><use xlink:href="#CMMI10-3a" transform="matrix(.99626 0 0 .99626 49.813 0)"/><use xlink:href="#NimbusRomNo9L-Regu-32" transform="matrix(.99626 0 0 .99626 77.409 0)"/></g></g><g id="xtick_6"><g id="line2d_11"><defs><path id="mc9b7860248" d="M0 0v-1.5" style="stroke:#000;stroke-width:.5"/></defs><use xlink:href="#mc9b7860248" x="35.205" y="142.2" style="stroke:#000;stroke-width:.5"/></g><g id="line2d_12"><defs><path id="m694477e9e2" d="M0 0v1.5" style="stroke:#000;stroke-width:.5"/></defs><use xlink:href="#m694477e9e2" x="35.205" y="3.6" style="stroke:#000;stroke-width:.5"/></g></g><g id="xtick_7"><use xlink:href="#mc9b7860248" id="line2d_13" x="41.904" y="142.2" style="stroke:#000;stroke-width:.5"/><use xlink:href="#m694477e9e2" id="line2d_14" x="41.904" y="3.6" style="stroke:#000;stroke-width:.5"/></g><g id="xtick_8"><use xlink:href="#mc9b7860248" id="line2d_15" x="48.602" y="142.2" style="stroke:#000;stroke-width:.5"/><use xlink:href="#m694477e9e2" id="line2d_16" x="48.602" y="3.6" style="stroke:#000;stroke-width:.5"/></g><g id="xtick_9"><use xlink:href="#mc9b7860248" id="line2d_17" x="62" y="142.2" style="stroke:#000;stroke-width:.5"/><use xlink:href="#m694477e9e2" id="line2d_18" x="62" y="3.6" style="stroke:#000;stroke-width:.5"/></g><g id="xtick_10"><use xlink:href="#mc9b7860248" id="line2d_19" x="68.698" y="142.2" style="stroke:#000;stroke-width:.5"/><use xlink:href="#m694477e9e2" id="line2d_20" x="68.698" y="3.6" style="stroke:#000;stroke-width:.5"/></g><g id="xtick_11"><use xlink:href="#mc9b7860248" id="line2d_21" x="75.397" y="142.2" style="stroke:#000;stroke-width:.5"/><use xlink:href="#m694477e9e2" id="line2d_22" x="75.397" y="3.6" style="stroke:#000;stroke-width:.5"/></g><g id="xtick_12"><use xlink:href="#mc9b7860248" id="line2d_23" x="82.096" y="142.2" style="stroke:#000;stroke-width:.5"/><use xlink:href="#m694477e9e2" id="line2d_24" x="82.096" y="3.6" style="stroke:#000;stroke-width:.5"/></g><g id="xtick_13"><use xlink:href="#mc9b7860248" id="line2d_25" x="95.493" y="142.2" style="stroke:#000;stroke-width:.5"/><use xlink:href="#m694477e9e2" id="line2d_26" x="95.493" y="3.6" style="stroke:#000;stroke-width:.5"/></g><g id="xtick_14"><use xlink:href="#mc9b7860248" id="line2d_27" x="102.192" y="142.2" style="stroke:#000;stroke-width:.5"/><use xlink:href="#m694477e9e2" id="line2d_28" x="102.192" y="3.6" style="stroke:#000;stroke-width:.5"/></g><g id="xtick_15"><use xlink:href="#mc9b7860248" id="line2d_29" x="108.89" y="142.2" style="stroke:#000;stroke-width:.5"/><use xlink:href="#m694477e9e2" id="line2d_30" x="108.89" y="3.6" style="stroke:#000;stroke-width:.5"/></g><g id="xtick_16"><use xlink:href="#mc9b7860248" id="line2d_31" x="115.589" y="142.2" style="stroke:#000;stroke-width:.5"/><use xlink:href="#m694477e9e2" id="line2d_32" x="115.589" y="3.6" style="stroke:#000;stroke-width:.5"/></g><g id="xtick_17"><use xlink:href="#mc9b7860248" id="line2d_33" x="128.986" y="142.2" style="stroke:#000;stroke-width:.5"/><use xlink:href="#m694477e9e2" id="line2d_34" x="128.986" y="3.6" style="stroke:#000;stroke-width:.5"/></g><g id="xtick_18"><use xlink:href="#mc9b7860248" id="line2d_35" x="135.685" y="142.2" style="stroke:#000;stroke-width:.5"/><use xlink:href="#m694477e9e2" id="line2d_36" x="135.685" y="3.6" style="stroke:#000;stroke-width:.5"/></g><g id="xtick_19"><use xlink:href="#mc9b7860248" id="line2d_37" x="142.384" y="142.2" style="stroke:#000;stroke-width:.5"/><use xlink:href="#m694477e9e2" id="line2d_38" x="142.384" y="3.6" style="stroke:#000;stroke-width:.5"/></g><g id="xtick_20"><use xlink:href="#mc9b7860248" id="line2d_39" x="149.082" y="142.2" style="stroke:#000;stroke-width:.5"/><use xlink:href="#m694477e9e2" id="line2d_40" x="149.082" y="3.6" style="stroke:#000;stroke-width:.5"/></g><g id="xtick_21"><use xlink:href="#mc9b7860248" id="line2d_41" x="162.48" y="142.2" style="stroke:#000;stroke-width:.5"/><use xlink:href="#m694477e9e2" id="line2d_42" x="162.48" y="3.6" style="stroke:#000;stroke-width:.5"/></g><g id="xtick_22"><use xlink:href="#mc9b7860248" id="line2d_43" x="169.179" y="142.2" style="stroke:#000;stroke-width:.5"/><use xlink:href="#m694477e9e2" id="line2d_44" x="169.179" y="3.6" style="stroke:#000;stroke-width:.5"/></g><g id="xtick_23"><use xlink:href="#mc9b7860248" id="line2d_45" x="175.877" y="142.2" style="stroke:#000;stroke-width:.5"/><use xlink:href="#m694477e9e2" id="line2d_46" x="175.877" y="3.6" style="stroke:#000;stroke-width:.5"/></g><g id="xtick_24"><use xlink:href="#mc9b7860248" id="line2d_47" x="182.576" y="142.2" style="stroke:#000;stroke-width:.5"/><use xlink:href="#m694477e9e2" id="line2d_48" x="182.576" y="3.6" style="stroke:#000;stroke-width:.5"/></g><g id="xtick_25"><use xlink:href="#mc9b7860248" id="line2d_49" x="195.973" y="142.2" style="stroke:#000;stroke-width:.5"/><use xlink:href="#m694477e9e2" id="line2d_50" x="195.973" y="3.6" style="stroke:#000;stroke-width:.5"/></g><g id="xtick_26"><use xlink:href="#mc9b7860248" id="line2d_51" x="202.672" y="142.2" style="stroke:#000;stroke-width:.5"/><use xlink:href="#m694477e9e2" id="line2d_52" x="202.672" y="3.6" style="stroke:#000;stroke-width:.5"/></g><g id="xtick_27"><use xlink:href="#mc9b7860248" id="line2d_53" x="209.371" y="142.2" style="stroke:#000;stroke-width:.5"/><use xlink:href="#m694477e9e2" id="line2d_54" x="209.371" y="3.6" style="stroke:#000;stroke-width:.5"/></g><g id="text_6" transform="matrix(.08 0 0 -.08 109.753 162.233)"><defs><path id="NimbusRomNo9L-Regu-66" d="M1978 2880h-788v731c0 367 122 562 365 562 135 0 224-63 339-246 103-164 180-227 288-227 148 0 269 114 269 259 0 229-281 393-665 393-397 0-736-171-903-461-166-278-217-506-224-1011H134v-205h525V656c0-471-70-547-531-547V0h1664v109c-525 0-595 71-595 552v2014h781z" transform="scale(.01563)"/><path id="NimbusRomNo9L-Regu-28" d="M1888 4326c-474-307-666-473-902-768-455-556-679-1196-679-1945 0-813 237-1440 800-2093 263-307 429-448 762-653l77 103c-512 403-692 627-864 1107-154 429-224 915-224 1555 0 672 83 1197 256 1594 179 396 371 627 832 998z" transform="scale(.01563)"/><path id="NimbusRomNo9L-Regu-47" d="M4538 2304H2906v-128c275 0 352-19 428-71 96-58 135-207 135-484V574c0-207-391-382-851-382-1044 0-1684 730-1684 1920 0 602 180 1184 461 1498 282 314 679 486 1114 486 358 0 672-121 921-352 192-179 295-352 455-742h147l-51 1350h-141c-38-121-154-211-288-211-64 0-166 19-282 64-288 96-582 147-870 147-1280 0-2195-940-2195-2246 0-627 173-1107 531-1485C1165 180 1779-64 2483-64c551 0 1351 224 1607 449v1309c0 379 76 463 448 495z" transform="scale(.01563)"/><path id="NimbusRomNo9L-Regu-48" d="M1338 2304v1229c0 457 70 526 563 571v120H122v-120c492-45 563-115 563-577V749c0-539-64-615-563-615V0h1779v121c-480 38-563 121-563 578v1323h1939V757c0-546-64-623-563-623V0h1779v121c-480 38-563 121-563 575v2833c0 460 70 530 563 575v120H2714v-120c492-45 563-114 563-571V2304z" transform="scale(.01563)"/><path id="NimbusRomNo9L-Regu-7a" d="m2675 864-115 26c-64-320-102-423-186-532-89-108-307-166-633-166H858l1721 2592v96H358l-19-755h115c58 467 154 563 538 563h883L173 96V0h2413z" transform="scale(.01563)"/><path id="NimbusRomNo9L-Regu-29" d="M243-1133c474 307 666 474 903 768 454 557 678 1197 678 1946 0 819-237 1440-800 2093-262 307-429 448-762 652l-76-102c512-403 684-627 864-1107 153-429 224-915 224-1555 0-666-84-1197-256-1588-180-403-372-633-832-1004z" transform="scale(.01563)"/></defs><use xlink:href="#NimbusRomNo9L-Regu-66" transform="scale(.99626)"/><use xlink:href="#NimbusRomNo9L-Regu-28" transform="matrix(.99626 0 0 .99626 58.082 0)"/><use xlink:href="#NimbusRomNo9L-Regu-47" transform="matrix(.99626 0 0 .99626 91.257 0)"/><use xlink:href="#NimbusRomNo9L-Regu-48" transform="matrix(.99626 0 0 .99626 163.187 0)"/><use xlink:href="#NimbusRomNo9L-Regu-7a" transform="matrix(.99626 0 0 .99626 235.117 0)"/><use xlink:href="#NimbusRomNo9L-Regu-29" transform="matrix(.99626 0 0 .99626 279.35 0)"/></g></g><g id="matplotlib.axis_2"><g id="ytick_1"><g id="line2d_55"><defs><path id="m48b11cf1a1" d="M0 0h3" style="stroke:#000;stroke-width:.5"/></defs><use xlink:href="#m48b11cf1a1" x="30.184" y="128.458" style="stroke:#000;stroke-width:.5"/></g><g id="line2d_56"><defs><path id="m49bae7d862" d="M0 0h-3" style="stroke:#000;stroke-width:.5"/></defs><use xlink:href="#m49bae7d862" x="214.324" y="128.458" style="stroke:#000;stroke-width:.5"/></g><g id="text_7" transform="matrix(.08 0 0 -.08 18.714 131.16)"><defs><path id="NimbusRomNo9L-Regu-35" d="M1158 3776h1255c102 0 128 13 147 58l243 569-57 45c-96-134-160-166-295-166H1114L416 2759c-6-13-6-19-6-32 0-32 25-51 76-51 205 0 461-45 724-129 736-238 1075-637 1075-1273 0-618-391-1101-890-1101-128 0-237 45-429 187-204 148-352 212-486 212-186 0-275-77-275-238C205 90 506-64 986-64c537 0 998 174 1318 502 294 290 429 656 429 1145 0 463-122 759-442 1080-281 284-646 431-1401 566z" transform="scale(.01563)"/></defs><use xlink:href="#NimbusRomNo9L-Regu-32" transform="scale(.99626)"/><use xlink:href="#NimbusRomNo9L-Regu-35" transform="matrix(.99626 0 0 .99626 49.813 0)"/></g></g><g id="ytick_2"><use xlink:href="#m48b11cf1a1" id="line2d_57" x="30.184" y="109.788" style="stroke:#000;stroke-width:.5"/><use xlink:href="#m49bae7d862" id="line2d_58" x="214.324" y="109.788" style="stroke:#000;stroke-width:.5"/><g id="text_8" transform="matrix(.08 0 0 -.08 18.714 112.49)"><use xlink:href="#NimbusRomNo9L-Regu-35" transform="scale(.99626)"/><use xlink:href="#NimbusRomNo9L-Regu-30" transform="matrix(.99626 0 0 .99626 49.813 0)"/></g></g><g id="ytick_3"><use xlink:href="#m48b11cf1a1" id="line2d_59" x="30.184" y="91.118" style="stroke:#000;stroke-width:.5"/><use xlink:href="#m49bae7d862" id="line2d_60" x="214.324" y="91.118" style="stroke:#000;stroke-width:.5"/><g id="text_9" transform="matrix(.08 0 0 -.08 18.714 93.82)"><defs><path id="NimbusRomNo9L-Regu-37" d="M2874 4250H506l-378-940 109-52c275 435 390 518 742 518h1389L1101-32h416l1357 4180z" transform="scale(.01563)"/></defs><use xlink:href="#NimbusRomNo9L-Regu-37" transform="scale(.99626)"/><use xlink:href="#NimbusRomNo9L-Regu-35" transform="matrix(.99626 0 0 .99626 49.813 0)"/></g></g><g id="ytick_4"><use xlink:href="#m48b11cf1a1" id="line2d_61" x="30.184" y="72.449" style="stroke:#000;stroke-width:.5"/><use xlink:href="#m49bae7d862" id="line2d_62" x="214.324" y="72.449" style="stroke:#000;stroke-width:.5"/><g id="text_10" transform="matrix(.08 0 0 -.08 14.73 75.15)"><use xlink:href="#NimbusRomNo9L-Regu-31" transform="scale(.99626)"/><use xlink:href="#NimbusRomNo9L-Regu-30" transform="matrix(.99626 0 0 .99626 49.813 0)"/><use xlink:href="#NimbusRomNo9L-Regu-30" transform="matrix(.99626 0 0 .99626 99.626 0)"/></g></g><g id="ytick_5"><use xlink:href="#m48b11cf1a1" id="line2d_63" x="30.184" y="53.779" style="stroke:#000;stroke-width:.5"/><use xlink:href="#m49bae7d862" id="line2d_64" x="214.324" y="53.779" style="stroke:#000;stroke-width:.5"/><g id="text_11" transform="matrix(.08 0 0 -.08 14.73 56.48)"><use xlink:href="#NimbusRomNo9L-Regu-31" transform="scale(.99626)"/><use xlink:href="#NimbusRomNo9L-Regu-32" transform="matrix(.99626 0 0 .99626 49.813 0)"/><use xlink:href="#NimbusRomNo9L-Regu-35" transform="matrix(.99626 0 0 .99626 99.626 0)"/></g></g><g id="ytick_6"><use xlink:href="#m48b11cf1a1" id="line2d_65" x="30.184" y="35.109" style="stroke:#000;stroke-width:.5"/><use xlink:href="#m49bae7d862" id="line2d_66" x="214.324" y="35.109" style="stroke:#000;stroke-width:.5"/><g id="text_12" transform="matrix(.08 0 0 -.08 14.73 37.811)"><use xlink:href="#NimbusRomNo9L-Regu-31" transform="scale(.99626)"/><use xlink:href="#NimbusRomNo9L-Regu-35" transform="matrix(.99626 0 0 .99626 49.813 0)"/><use xlink:href="#NimbusRomNo9L-Regu-30" transform="matrix(.99626 0 0 .99626 99.626 0)"/></g></g><g id="ytick_7"><use xlink:href="#m48b11cf1a1" id="line2d_67" x="30.184" y="16.44" style="stroke:#000;stroke-width:.5"/><use xlink:href="#m49bae7d862" id="line2d_68" x="214.324" y="16.44" style="stroke:#000;stroke-width:.5"/><g id="text_13" transform="matrix(.08 0 0 -.08 14.73 19.141)"><use xlink:href="#NimbusRomNo9L-Regu-31" transform="scale(.99626)"/><use xlink:href="#NimbusRomNo9L-Regu-37" transform="matrix(.99626 0 0 .99626 49.813 0)"/><use xlink:href="#NimbusRomNo9L-Regu-35" transform="matrix(.99626 0 0 .99626 99.626 0)"/></g></g><g id="ytick_8"><g id="line2d_69"><defs><path id="m914f985cbe" d="M0 0h1.5" style="stroke:#000;stroke-width:.5"/></defs><use xlink:href="#m914f985cbe" x="30.184" y="139.66" style="stroke:#000;stroke-width:.5"/></g><g id="line2d_70"><defs><path id="m9b0144f35e" d="M0 0h-1.5" style="stroke:#000;stroke-width:.5"/></defs><use xlink:href="#m9b0144f35e" x="214.324" y="139.66" style="stroke:#000;stroke-width:.5"/></g></g><g id="ytick_9"><use xlink:href="#m914f985cbe" id="line2d_71" x="30.184" y="135.926" style="stroke:#000;stroke-width:.5"/><use xlink:href="#m9b0144f35e" id="line2d_72" x="214.324" y="135.926" style="stroke:#000;stroke-width:.5"/></g><g id="ytick_10"><use xlink:href="#m914f985cbe" id="line2d_73" x="30.184" y="132.192" style="stroke:#000;stroke-width:.5"/><use xlink:href="#m9b0144f35e" id="line2d_74" x="214.324" y="132.192" style="stroke:#000;stroke-width:.5"/></g><g id="ytick_11"><use xlink:href="#m914f985cbe" id="line2d_75" x="30.184" y="124.724" style="stroke:#000;stroke-width:.5"/><use xlink:href="#m9b0144f35e" id="line2d_76" x="214.324" y="124.724" style="stroke:#000;stroke-width:.5"/></g><g id="ytick_12"><use xlink:href="#m914f985cbe" id="line2d_77" x="30.184" y="120.99" style="stroke:#000;stroke-width:.5"/><use xlink:href="#m9b0144f35e" id="line2d_78" x="214.324" y="120.99" style="stroke:#000;stroke-width:.5"/></g><g id="ytick_13"><use xlink:href="#m914f985cbe" id="line2d_79" x="30.184" y="117.256" style="stroke:#000;stroke-width:.5"/><use xlink:href="#m9b0144f35e" id="line2d_80" x="214.324" y="117.256" style="stroke:#000;stroke-width:.5"/></g><g id="ytick_14"><use xlink:href="#m914f985cbe" id="line2d_81" x="30.184" y="113.522" style="stroke:#000;stroke-width:.5"/><use xlink:href="#m9b0144f35e" id="line2d_82" x="214.324" y="113.522" style="stroke:#000;stroke-width:.5"/></g><g id="ytick_15"><use xlink:href="#m914f985cbe" id="line2d_83" x="30.184" y="106.054" style="stroke:#000;stroke-width:.5"/><use xlink:href="#m9b0144f35e" id="line2d_84" x="214.324" y="106.054" style="stroke:#000;stroke-width:.5"/></g><g id="ytick_16"><use xlink:href="#m914f985cbe" id="line2d_85" x="30.184" y="102.32" style="stroke:#000;stroke-width:.5"/><use xlink:href="#m9b0144f35e" id="line2d_86" x="214.324" y="102.32" style="stroke:#000;stroke-width:.5"/></g><g id="ytick_17"><use xlink:href="#m914f985cbe" id="line2d_87" x="30.184" y="98.586" style="stroke:#000;stroke-width:.5"/><use xlink:href="#m9b0144f35e" id="line2d_88" x="214.324" y="98.586" style="stroke:#000;stroke-width:.5"/></g><g id="ytick_18"><use xlink:href="#m914f985cbe" id="line2d_89" x="30.184" y="94.852" style="stroke:#000;stroke-width:.5"/><use xlink:href="#m9b0144f35e" id="line2d_90" x="214.324" y="94.852" style="stroke:#000;stroke-width:.5"/></g><g id="ytick_19"><use xlink:href="#m914f985cbe" id="line2d_91" x="30.184" y="87.385" style="stroke:#000;stroke-width:.5"/><use xlink:href="#m9b0144f35e" id="line2d_92" x="214.324" y="87.385" style="stroke:#000;stroke-width:.5"/></g><g id="ytick_20"><use xlink:href="#m914f985cbe" id="line2d_93" x="30.184" y="83.651" style="stroke:#000;stroke-width:.5"/><use xlink:href="#m9b0144f35e" id="line2d_94" x="214.324" y="83.651" style="stroke:#000;stroke-width:.5"/></g><g id="ytick_21"><use xlink:href="#m914f985cbe" id="line2d_95" x="30.184" y="79.917" style="stroke:#000;stroke-width:.5"/><use xlink:href="#m9b0144f35e" id="line2d_96" x="214.324" y="79.917" style="stroke:#000;stroke-width:.5"/></g><g id="ytick_22"><use xlink:href="#m914f985cbe" id="line2d_97" x="30.184" y="76.183" style="stroke:#000;stroke-width:.5"/><use xlink:href="#m9b0144f35e" id="line2d_98" x="214.324" y="76.183" style="stroke:#000;stroke-width:.5"/></g><g id="ytick_23"><use xlink:href="#m914f985cbe" id="line2d_99" x="30.184" y="68.715" style="stroke:#000;stroke-width:.5"/><use xlink:href="#m9b0144f35e" id="line2d_100" x="214.324" y="68.715" style="stroke:#000;stroke-width:.5"/></g><g id="ytick_24"><use xlink:href="#m914f985cbe" id="line2d_101" x="30.184" y="64.981" style="stroke:#000;stroke-width:.5"/><use xlink:href="#m9b0144f35e" id="line2d_102" x="214.324" y="64.981" style="stroke:#000;stroke-width:.5"/></g><g id="ytick_25"><use xlink:href="#m914f985cbe" id="line2d_103" x="30.184" y="61.247" style="stroke:#000;stroke-width:.5"/><use xlink:href="#m9b0144f35e" id="line2d_104" x="214.324" y="61.247" style="stroke:#000;stroke-width:.5"/></g><g id="ytick_26"><use xlink:href="#m914f985cbe" id="line2d_105" x="30.184" y="57.513" style="stroke:#000;stroke-width:.5"/><use xlink:href="#m9b0144f35e" id="line2d_106" x="214.324" y="57.513" style="stroke:#000;stroke-width:.5"/></g><g id="ytick_27"><use xlink:href="#m914f985cbe" id="line2d_107" x="30.184" y="50.045" style="stroke:#000;stroke-width:.5"/><use xlink:href="#m9b0144f35e" id="line2d_108" x="214.324" y="50.045" style="stroke:#000;stroke-width:.5"/></g><g id="ytick_28"><use xlink:href="#m914f985cbe" id="line2d_109" x="30.184" y="46.311" style="stroke:#000;stroke-width:.5"/><use xlink:href="#m9b0144f35e" id="line2d_110" x="214.324" y="46.311" style="stroke:#000;stroke-width:.5"/></g><g id="ytick_29"><use xlink:href="#m914f985cbe" id="line2d_111" x="30.184" y="42.577" style="stroke:#000;stroke-width:.5"/><use xlink:href="#m9b0144f35e" id="line2d_112" x="214.324" y="42.577" style="stroke:#000;stroke-width:.5"/></g><g id="ytick_30"><use xlink:href="#m914f985cbe" id="line2d_113" x="30.184" y="38.843" style="stroke:#000;stroke-width:.5"/><use xlink:href="#m9b0144f35e" id="line2d_114" x="214.324" y="38.843" style="stroke:#000;stroke-width:.5"/></g><g id="ytick_31"><use xlink:href="#m914f985cbe" id="line2d_115" x="30.184" y="31.375" style="stroke:#000;stroke-width:.5"/><use xlink:href="#m9b0144f35e" id="line2d_116" x="214.324" y="31.375" style="stroke:#000;stroke-width:.5"/></g><g id="ytick_32"><use xlink:href="#m914f985cbe" id="line2d_117" x="30.184" y="27.641" style="stroke:#000;stroke-width:.5"/><use xlink:href="#m9b0144f35e" id="line2d_118" x="214.324" y="27.641" style="stroke:#000;stroke-width:.5"/></g><g id="ytick_33"><use xlink:href="#m914f985cbe" id="line2d_119" x="30.184" y="23.907" style="stroke:#000;stroke-width:.5"/><use xlink:href="#m9b0144f35e" id="line2d_120" x="214.324" y="23.907" style="stroke:#000;stroke-width:.5"/></g><g id="ytick_34"><use xlink:href="#m914f985cbe" id="line2d_121" x="30.184" y="20.174" style="stroke:#000;stroke-width:.5"/><use xlink:href="#m9b0144f35e" id="line2d_122" x="214.324" y="20.174" style="stroke:#000;stroke-width:.5"/></g><g id="ytick_35"><use xlink:href="#m914f985cbe" id="line2d_123" x="30.184" y="12.706" style="stroke:#000;stroke-width:.5"/><use xlink:href="#m9b0144f35e" id="line2d_124" x="214.324" y="12.706" style="stroke:#000;stroke-width:.5"/></g><g id="ytick_36"><use xlink:href="#m914f985cbe" id="line2d_125" x="30.184" y="8.972" style="stroke:#000;stroke-width:.5"/><use xlink:href="#m9b0144f35e" id="line2d_126" x="214.324" y="8.972" style="stroke:#000;stroke-width:.5"/></g><g id="ytick_37"><use xlink:href="#m914f985cbe" id="line2d_127" x="30.184" y="5.238" style="stroke:#000;stroke-width:.5"/><use xlink:href="#m9b0144f35e" id="line2d_128" x="214.324" y="5.238" style="stroke:#000;stroke-width:.5"/></g><g id="text_14" transform="matrix(0 -.08 -.08 0 9.004 98.468)"><defs><path id="NimbusRomNo9L-Regu-4d" d="M4314 3667V751c0-534-77-617-583-617V0h1792v134c-467 0-557 89-557 547v2855c0 457 84 541 557 579v122H4250L2835 1004 1357 4237H90v-141c524 0 608-77 608-546V943c0-661-90-784-621-822V0h1504v134c-493 0-602 148-602 797v2589L2586 0h89z" transform="scale(.01563)"/><path id="NimbusRomNo9L-Regu-61" d="M2829 423c-109-90-186-122-282-122-147 0-192 89-192 371v1248c0 333-32 518-128 672-141 230-416 352-793 352-602 0-1076-314-1076-717 0-147 128-275 276-275 153 0 288 128 288 269 0 25-7 57-13 102-13 58-19 109-19 154 0 173 204 313 460 313 314 0 487-185 487-531v-390c-986-397-1095-448-1370-691-141-128-230-346-230-557 0-403 281-685 672-685 281 0 544 134 934 467 32-333 147-467 410-467 217 0 352 77 576 320zm-992 360c0-199-32-257-167-334-153-90-332-148-467-148-224 0-403 219-403 495v26c0 379 262 611 1037 893z" transform="scale(.01563)"/><path id="NimbusRomNo9L-Regu-67" d="M3008 2496v250h-493c-128 0-224 17-352 56l-141 45c-172 56-345 84-512 84-595 0-1068-464-1068-1050 0-405 172-651 595-863-122-112-237-219-275-250-212-180-295-305-295-430 0-132 77-207 339-332-454-335-627-549-627-787 0-343 499-627 1107-627 480 0 980 170 1312 446 244 203 352 414 352 663 0 407-300 683-774 683h-826c-339 0-499 59-499 164 0 130 211 360 384 412 58-7 103-13 122-13 121-13 205-19 243-19 237 0 493 98 691 275 211 184 307 414 307 742 0 190-32 341-121 551zM941-13c211-45 723-83 1037-83 582 0 793-84 793-318 0-377-486-629-1209-629-564 0-935 188-935 473 0 150 45 234 314 557m32 2158c0 381 179 607 473 607 199 0 365-110 468-303 115-226 192-522 192-774 0-361-186-587-480-587-384 0-653 419-653 1038z" transform="scale(.01563)"/><path id="NimbusRomNo9L-Regu-6e" d="M102 2579c39 19 103 26 173 26 179 0 237-96 237-410V608c0-365-70-454-397-480V32h1357v96c-326 26-422 102-422 333v1798c307 288 448 365 659 365 313 0 467-198 467-621V666c0-404-83-512-403-538V32h1331v96c-314 32-390 109-390 422v1466c0 602-282 960-756 960-294 0-492-109-928-518v505l-44 13c-314-115-532-186-884-288z" transform="scale(.01563)"/><path id="NimbusRomNo9L-Regu-69" d="m1120 2929-992-350v-95l51 6c77 12 160 19 218 19 153 0 211-103 211-384V640c0-461-64-531-506-531V0h1517v96c-422 32-473 95-473 554v2260zM819 4352c-173 0-320-147-320-326s141-327 320-327c186 0 333 141 333 327 0 179-147 326-333 326" transform="scale(.01563)"/><path id="NimbusRomNo9L-Regu-74" d="M1632 2880H986v742c0 64-7 84-45 84-45-58-83-116-128-180-243-352-519-659-621-685-70-47-109-93-109-126 0-20 7-33 26-33h339V751c0-539 192-815 570-815 313 0 556 154 768 487l-84 70c-134-160-243-224-384-224-236 0-332 174-332 578v1835h646z" transform="scale(.01563)"/><path id="NimbusRomNo9L-Regu-75" d="M3066 320h-32c-295 0-365 70-365 365v2195H1658v-122c396 0 473-64 473-383V875c0-178-32-268-121-338-173-140-372-217-564-217-249 0-454 217-454 485v2075H58v-102c307 0 396-96 396-391V770c0-507 308-834 775-834 237 0 486 102 659 275l275 275V-45l26-13c320 128 550 199 877 288z" transform="scale(.01563)"/><path id="NimbusRomNo9L-Regu-64" d="m2202-64 940 333v96h-147c-230 0-281 70-281 366v3633l-32 13c-308-109-532-173-941-281v-102c51 6 89 6 141 6 236 0 294-64 294-328V2669c-243 205-416 275-672 275-736 0-1331-723-1331-1632C173 493 653-64 1357-64c358 0 601 128 819 429V-45zm-26 717c0-45-45-122-109-192-115-128-275-192-461-192-531 0-883 512-883 1299 0 723 314 1197 800 1197 339 0 653-301 653-640z" transform="scale(.01563)"/><path id="NimbusRomNo9L-Regu-65" d="M2611 1053c-307-489-582-675-992-675-365 0-640 186-825 552-116 244-160 456-173 849h1971c-51 414-115 598-275 802-192 230-487 363-819 363-320 0-621-115-864-333-301-262-474-717-474-1241C160 486 621-64 1357-64c608 0 1088 379 1357 1072zM634 1984c70 495 288 730 678 730s544-179 627-730z" transform="scale(.01563)"/><path id="NimbusRomNo9L-Regu-42" d="M109 4237v-141c537 0 614-70 614-548V689c0-477-83-561-614-561V0h2137c500 0 954 136 1191 356 230 208 358 499 358 809 0 286-115 545-313 732-192 175-365 253-781 356 333 82 467 145 621 278 160 140 256 372 256 632 0 708-570 1074-1677 1074zm1267-2125c621 0 915-32 1146-130 364-155 537-414 537-823 0-350-134-604-390-753-205-116-467-168-890-168-313 0-403 58-403 266zm0 256v1444c0 132 45 189 141 189h281c736 0 1127-302 1127-864 0-491-339-769-941-769z" transform="scale(.01563)"/></defs><use xlink:href="#NimbusRomNo9L-Regu-4d" transform="scale(.99626)"/><use xlink:href="#NimbusRomNo9L-Regu-61" transform="matrix(.99626 0 0 .99626 88.567 0)"/><use xlink:href="#NimbusRomNo9L-Regu-67" transform="matrix(.99626 0 0 .99626 132.8 0)"/><use xlink:href="#NimbusRomNo9L-Regu-6e" transform="matrix(.99626 0 0 .99626 182.614 0)"/><use xlink:href="#NimbusRomNo9L-Regu-69" transform="matrix(.99626 0 0 .99626 232.427 0)"/><use xlink:href="#NimbusRomNo9L-Regu-74" transform="matrix(.99626 0 0 .99626 260.122 0)"/><use xlink:href="#NimbusRomNo9L-Regu-75" transform="matrix(.99626 0 0 .99626 287.817 0)"/><use xlink:href="#NimbusRomNo9L-Regu-64" transform="matrix(.99626 0 0 .99626 337.63 0)"/><use xlink:href="#NimbusRomNo9L-Regu-65" transform="matrix(.99626 0 0 .99626 387.444 0)"/><use xlink:href="#NimbusRomNo9L-Regu-28" transform="matrix(.99626 0 0 .99626 456.584 0)"/><use xlink:href="#NimbusRomNo9L-Regu-64" transform="matrix(.99626 0 0 .99626 489.759 0)"/><use xlink:href="#NimbusRomNo9L-Regu-42" transform="matrix(.99626 0 0 .99626 539.572 0)"/><use xlink:href="#NimbusRomNo9L-Regu-29" transform="matrix(.99626 0 0 .99626 606.022 0)"/></g></g><path id="line2d_129" d="m38.554 118.322.268 9.255.134-7.86.134 2.762.067-.144.067 1.227.067-2.08.067 1.206.067-.008.067.599.067-2.564.067 4.584.201-4.935.067 4.077.067-.35.067-1.506.067.892.067 4.154.067-3.918.067 1.985.134-4.402.067 4.346.067-1.848.2-3.129.202 5.43.2-5.075.135 2.14.067-1.01.134 2.365.067-.14.134-5.137.067 5.256.067-3.42.067-.962.134 5.083.067-.961.134-3.08.067 1.283.134 1.414.334-3.397.134 5.639.067-5.286.067 2.618.067.24.067-1.72.067 5.526.067-3.533.201-3.737.134 3.327.067-3.595.134 6.027.067-3.724.067.637.067-.182.067 1.367.134-4.466.067.628.067 1.887.067-2.63.067.844.201 3.885.067-4.095.067 2.173.067 5.341.067-4.563.067.475.067-.435.067-3.209.067 3.239.067-1.56.067.62.067-.362.134-.24.067 4.255.067-5.31.067 2.629.067 3.07.134-4.772.067-.218.134 1.835.134-4.895.2 8.324.068-3.78.067 2.52.067-.924.067-4.08.067 1.554.067 1.938.067-2.296.2 3.928.068-5.359.067.282.268 3.678.2-.904.067 1.876.134-4.59.067 2.1.067-1.354.067 1.99.067-4.293.067 2.08.067.847.067 2.634.067-.752.067-1.2.067.463.067-.487.067 2.105.134-3.498.067 4.315.067-2.982.067 3.057.067-6.327.067 5.432.067-1.446.067 1.612.134-4.448.134 1.052.067 4.42.067-5.78.067 1.809.067 3.435.201-5.614.067-.228.067.746.067 3.675.067-1.424.067 2.14.067-3.82.067 1.46.067-.175.067 2.224.134-4.542.067 1.964.067-1.201.134 2.081.067-.63.067 4.171.2-6.126.068 4.252.067-2.809.067 1.575.067 2.069.2-6.27.068 1.45.067 3.763.067-1.867.067 2.439.067-6.639.067 3.726.134 4.451.067-6.629.067 4.05.133-3.724.201 4.593.067.176.067-3.97.067 4.374.067-1.735.134-1.586.134 2.388.067-2.942.067 3.66.134-4.172.067 1.669.134-2.627.201 3.542.067-3.15.067.471.067 5.966.067-2.765.067-3.478.067 2.697.067-.56.067-1.065.067 1.107.067-2.205.067.208.067 5.836.067-3.865.067.232.067.904.067-3.537.067-17.418.134 22.1.067-6.483.067 3.702.067 1.921.067-1.11.067.3.067-.049.067-.15.067-1.217.067 1.498.067-1.972.067.703.067 2.556.067-2.696.067 5.302.067-7.119.067.005.067 2.028.067-1.932.067 2.231.067-1.587.067.879.2-2.217.269 6.468.067-6.52.067 5.52.067-2.83.067.247.067-.227.267-3.6.067 5.422.067-3.938.067 2.75.067-.883.067-3.543.067 6.666.067-6.409.067 1.003.067-.223.067 1.407.067 5.826.067-7.17.067 2.56.067-.286.067-2.37.067 3.632.067-1.484.067-.697.134 3.43.134-4.601.067 1.562.067 2.712.134-4.869.201 5.574.134-2.88.134 5.44.134-6.618.067 1.274.067-.077.134-1.74.067 3.407.067-3.233.067 1.988.067 1.596.2-4.5.068 2.474.067 7.264.067-6.308.067 4.507.134-5.734.067 3.45.2-3.992.068 1.83.067-1.146.067-.201.134-1.814.134 2.353.067 2.007.067-2.788.067 2.522.067-1.503.067 1.47.2-3.806.068 1.632.067-1.164.267 7.987.067-8.192.067 1.182.201-3.593.134 4.054.067-1.47.067 2.722.067-3.366.067 5.14.067-6.892.067 1.347.067 4.024.067-.63.067.433.201-4.01.067.505.067 1.363.067-2.87.067 3.734.067-2.461.067.643.067 2.873.067-4.325.067 2.924.067-.84.067-.04.067-.721.067 4.425.067-.976.067 1.005.067-6.113.067 1.822.134 2.462.067-4.559.067 4.376.067-.23.134-4.7.067.78.067.425.2 8.476.068-6.682.067.082.067-1.843.2 4.964.068-.685.067.153.134-4.363.067.09.134 5.544.134-5.518.2 4.172.068-4.848.067.728.067.047.267 3.48.067-.657.067-3.76.134 5.79.067-4.235.067 3.989.067-5.49.067 3.477.067-2.208.067 2.665.067-4.037.067 10.055.201-9.199.067-.61.067.049.201 2.085.067 2.37.134-3.457.067 2.145.067 6.753.067-7.293.067 1.585.067.578.067-3.941.067.225.067 2.985.067-1.47.067-3.021.067 7.333.067-2.191.067.052.335-5.022.067.726.067 3.195.067-3.465.067 3.523.2-5.047.068 1.24.067 3.714.067-2.373.134 2.66.067-4.462.067.008.067.3.067 5.027.134-6.123.067 3.533.067-2.534.067 1.736.067-.626.067.127.067 2.103.067-2.253.067.328.067-.065.067-1.052.067 2.715.067-3.228.067 1.082.067 3.017.067-3.495.067 2.912.066-.492.067-2.256.067 4.25.134-4.193.067.823.067-1.29.201 3.018.268-3.128.067 4.267.201-4.727.067 2.905.067-2.905.067 1.056.134-1.896.201 6.679.067-1.665.134-2.349.134.863.067-.39.067-1.209.067 1.052.067-2.354.067 1.122.067 3.37.067-5.43.134 4.55.067-2.506.067 2.762.067-.939.067-2.936.2 3.658.068-5.022.067 6.664.067-3.99.067 2.565.2-5.725.202 5.642.067-3.121.067 7.103.067-7.601.067 2.054.067-.137.067.23.067-1.458.067.185.134 3.45.134-4.933.067 2.97.067-.95.2 2.938.068-2.934.066.356.201-1.452.067-.643.067 2.507.067-.063.067-.092.067.386.067-1.006.067 1.136.067-.567.067-1.939.067 1.966.067-.549.134.502.067-2.06.067 1.2.067.298.201-2.416.067 2.56.067-2.088.067 2.82.067-4.263.067 2.088.067-.13.067 1.476.067-.989.067.964.067-2.493.067.45.134 2.496.067-2.16.067.473.067.344.067 2.925.067-3.364.067.337.067 2.06.134-2.914.067.706.067-2.407.067 1.014.134 2.368.2-3.811.202 4.038.268-1.806.067.615.067-.188.067-.18.134-1.604.134 2.6.067-1.295.067.092.067 3.078.067-1.485.067-.603.067-1.738.067.015.067 1.564.067-.253.066-1.466.067 1.103.067-2.373.134 2.252.067-.963.067.451.067-.247.067 1.765.067-2.68.067.568.067-.174.067-.81.134 1.94.067-.804.067 1.38.134-3.078.134 2.682.067-.95.067 1.175.067-1.57.067 3.688.067-5.04.067 2.137.067-.971.067 2.376.067-3.397.067 1.365.067-1.254.067 1.815.067-.667.067 1.088.067-2.243.067 2.114.067-1.138.067 1.306.067-1.73.067.686.067-.876.067.038.067 2.071.067-3.098.067 5.429.134-4.443.067-.674.134 1.717.134-.853.067 1.91.067-2.1.134 2.65.067-1.9.067 1.352.067-.649.2-3.743.068 2.194.067-.822.067.266.134 5.662.067-7.306.067 2.713.2 1.953.068-1.237.067 2.094.2-4.836.067 1.496.067-1.906.067 2.169.067-.107.067-3.015.067.971.067 23.172.067-21.607.067 1.366.067-2.272.067 1.41.067-1.7.067 2.333.067-.262.067.106.067-2.514.067 3.423.067-1.023.067.135.134-2.066.067 2.5.067-1.556.067-1.165.134 1.823.067-.572.067-2.58.067.712.067-1.25.067 5.114.067-3.081.067 4.537.067-5.067.067 3.216.268-1.56.067-3.89.2 5.576.202-1.854.134-.097.067 1.442.067-2.4.134 2.767.067-3.484.067.45.067.199.134 2.781.2-4.745.068 1.968.067-.387.268 1.944.067-4.308.067.207.134 2.36.134-1.095.067 2.823.066-3.473.067 2.344.067-2.379.067.748.067 1.633.067-1.079.067 3.886.067-2.708.067 1.176.067.166.067-3.308.067 4.174.067-4.37.067 2.487.201-2.75.201 4.23.134-4.679.067 2.153.067-2.214.067.615.067-.908.067.3.067.444.067 1.505.134-3.354.067 3.884.067-2.658.067 3.06.134-3.465.067-.376.067 2.552.067-1.177.067-1.2.134 2.067.067-.68.067.895.067-.502.067-2.293.067.088.067 1.995.067-.257.067-2.264.067 6.196.067-3.73.134 3.025.134-7.947.067 3.889.067-.913.067 1.154.067-3.055.134 4.509.067-.152.134-4.692.067 7.7.067-2.478.067 1.621.067-3.653.067 1.941.067-2.105.067 3.482.067-2.178.134-3.256.067 2.863.066-1.419.134-3.212.067 1.19.067 5.403.067-1.168.067-2.584.067.995.067.55.067-1.295.134 2.765.067-6.27.067 8.192.067-8.008.067.722.067 6.013.134-5.371.201 5.355.201-8.6.201 9.72.067-8.177.067 5.591.067-1.272.067-4.766.134 9.412.067-9.41.067 2.924.067 1.922.067-4.836.067 2.95.067-2.714.067.605.067 2.013.067-4.144.067 1.414.067-.668.067 5.96.067-3.95.134 4.704.134-4.381.134 1.58.067-2.138.067 3.435.067-1.297.067-2.831.134 7.205.2-7.59.202-2.728.067 4.236.067-.98.067.49.2 6.35.068-6.773.067 3.873.134-2.882.067 4.154.2-9.875.134 7.904.201-5.389.201 4.065.067 1.923.067-4.21.067 3.206.201-4.827.067-.367.067 6.256.067-3.724.067-.167.134 2.12.134-3.6.067 5.704.067-.317.067-7.88.067 5.33.067-3.702.134 5.853.067-2.734.067 4.337.067-6.708.067.065.067.002.134 4.781.134-7.116.067.244.067-.54.134 2.09.067 3.221.067-1.13.067-4.396.067 6.016.067-4.86.067 2.65.067 2.262.067-5.16.067 4.11.2-7.002.068 2.277.067-2.725.067 8.688.067-4.1.067-.178.067-1.718.067 2.01.067-.199.067-3.574.067 2.369.067-4.312.134 5.703.067 1.224.134-3.69.067 6.393.067-3.864.067-3.04.066 1.512.067.388.067-2.477.067 2.693.067-4.103.067 4.586.067-.147.134-3.088.067.262.134-1.766.067 1.27.067-.3.067 4.987.067-4.858.067 1.07.067.232.268-2.144.067 4.037.134-3.614.067.088.067.599.067-1.53.067.943.067 2.66.067-1.768.067.906.067.901.268-4.646.134 2.842.067-.34.134-3.773.067 4.807.067-.386.067-.918.067 3.19.134-5.438.067 2.843.268-4.974.134 9.263.067-7.836.067.3.067-1.461.067.05.067 4.308.134-3.574.067 5.881.134-5.533.067 1.829.067-4.106.067 3.502.067-4.935.067 4.582.067-2.729.2 2.89.201-3.567.067 2.093.067-2.583.067 2.637.067-3.453.067 2.72.067-2.723.067 1.794.067 2.857.067-4.138.067.954.067.134.067-.654.067-2.886.067 3.926.067-1.438.067-.228.067.533.067-2.876.134 3.724.067-.713.067-2.343.067.37.067 1.62.067-.46.067-1.27.134 3.319.268-4.78.067.613.067-2.734.067.358.201 1.671.067-2.763.067 1.926.067-2.012.067 1.156.067 3.348.2-3.985.068-.307.067.407.2-1.944.068 1.96.2-2.956.068.927.067-1.269.134 2.243.2-1.774.135.829.067-2.612.067.805.067.052.134-.856.067.79.067-2.002.067.206.067 1.362.133-1.83.067.867.201-2.759.067 1.665.067-1.543.067.366.067.228.067-.325.067-1.52.067 1.396.067-1.929.067 1.651.067-5.709.067 6.716.201-6.63.067 5.655.067-8.08.067 3.102.067-1.08.067 4.716.067-8.521.067 4.095.201-6.963.067 6.032.134-6.083.067.46.067 3.179.134-8.417.067 7.88.067-4.632.134-6.449.067 7.963.067-11.09.067 2.752.067-3.247.067 4.161.067-12.859.067 13.347.2-22.71.068 28.456.2-51.19.068-5.25.067 5.25.2 51.19.068-28.456.067 13.239.067.351.067 9.12.067-13.347.067 12.86.067-4.162.067 3.247.067-2.752.067 11.09.067-7.963.067 1.613.134 9.468.067-7.88.067 1.698.067 6.719.066-3.178.067-.461.067.846.067 5.237.067-6.032.067 5.954.067-1.25.067 2.259.067-4.095.067 8.521.067-4.716.067 1.08.067-3.102.067 8.08.067-5.656.067 2.07.067-.101.067 4.662.067-6.716.067 5.71.067-1.652.067 1.93.067-1.398.134 1.846.134-.594.067 1.543.067-1.665.201 2.759.067-.868.067.394.067 1.437.134-1.568.067 2.002.067-.79.067.077.067.78.067-.053.067-.805.067 2.612.067-.097.067-.732.067.127.134 1.647.134-2.243.067 1.27.067-.928.2 2.957.068-1.961.067 1.721.067-.297.067.52.067-.407.067.307.2 3.985.135-4.504.067 2.012.067-1.926.067 2.763.067-.857.067.416.134-1.588.2 4.217.134 1.22.067 1.464.134-3.318.134 1.73.134-1.99.134 3.055.067-.954.067-2.77.067 2.876.067-.533.067.228.067 1.438.067-3.926.134 3.54.067-.134.067-.954.067 4.138.134-4.651.067 2.723.067-2.72.067 3.453.067-2.637.067 2.583.067-2.093.201 3.566.201-2.889.067 2.729.067-4.582.067 4.935.067-3.502.067 4.106.067-1.83.067.12.067 5.414.067-5.881.067.17.067 3.404.134-4.358.067 1.46.067-.299.067 7.836.067-3.456.067-5.807.067.582.2 4.392.068-2.843.067 1.461.067 3.977.067-3.19.067.918.067.386.067-4.807.067 1.947.134 2.166.067-.715.067-2.127.067 2.82.067-1.838.133 3.664.134-1.807.067 1.768.134-3.603.067 1.53.067-.6.067-.087.067.31.067 3.304.067-4.037.067 1.201.067-.803.134 1.746.067-.232.067-1.07.067 4.858.067-4.988.067.301.067-1.27.134 1.766.067-.262.067.524.134 2.71.067-4.585.067 4.103.067-2.693.067 2.477.067-.388.067-1.512.134 6.904.067-6.392.067 1.321.067 2.368.067-1.224.067-.174.067-5.53.067 4.313.067-2.369.134 3.773.067-2.01.2 5.996.068-8.688.067 2.725.067-2.277.2 7.003.068-4.112.067 5.161.067-2.263.067-2.649.067 4.86.067-6.016.134 5.526.2-5.311.202 1.256.067 6.156.067-3.29.134-1.493.067-.065.067 6.708.066-4.337.067 2.734.067-.72.067-5.133.067 3.702.067-5.33.134 8.197.067-5.703.067.002.067 3.596.067-.884.067-1.235.067.167.067 3.724.067-6.256.067.367.067 3.785.067-1.467.067 2.51.067-3.206.067 4.209.067-1.923.201-4.065.201 5.389.067-1.52.067-6.384.201 9.875.067-4.154.067.217.067 2.665.067-3.873.067 6.774.067-4.786.067 2.527.134-4.581.067.979.067-4.236.067 1.481.067.203.067 1.043.067 5.68.067-2.6.067 4.511.134-7.205.067 2.831.067 1.297.067-3.435.067 2.139.067-.194.067-1.387.134 4.38.067-.95.067-3.753.067 3.95.067-5.96.067.668.067-1.414.067 4.144.067-2.013.067-.605.067 2.714.067-2.95.067 4.836.067-1.922.067-2.925.067 9.41.066-4.034.067-5.377.134 6.038.067-5.591.067 8.177.201-9.72.201 8.6.201-5.355.067 1.16.067 4.211.134-6.735.067 8.008.067-8.193.067 6.271.067-1.36.067-1.405.067 1.295.067-.55.067-.995.134 3.752.134-6.593.201 4.631.067-2.863.067.694.134 4.74.067-3.482.067 2.105.067-1.94.067 3.652.067-1.621.067 2.477.067-7.699.067 2.985.134 1.859.067-1.146.067-3.363.067 3.055.067-1.154.067.913.067-3.89.067 2.079.067 5.869.067-1.441.067-1.585.067 3.731.067-6.196.067 2.264.067.257.134-2.083.134 2.795.067-.895.067.68.134-2.067.067 1.2.067 1.177.067-2.552.067.376.067.288.066 3.178.067-3.061.067 2.658.067-3.884.067 2.294.067 1.06.201-2.25.067.909.067-.615.067 2.214.067-2.153.067 1.242.067 3.437.067-2.067.067.104.067-2.266.201 2.749.067-2.487.067 4.37.067-4.174.067 3.308.067-.166.067-1.176.067 2.708.067-3.885.067 1.078.134-2.38.067 2.378.067-2.344.067 3.473.067-2.823.067.098.067.997.201-2.567.067 4.308.067-1.191.067.456.134-1.209.067.387.067-1.968.067 3.655.067-1.353.067 2.443.067-.151.134-2.828.067-.45.067 3.483.067-1.143.067-1.623.067 2.4.067-1.443.2.116.135 1.835.2-5.576.135 4.193.2 1.257.068-3.216.067 5.067.067-4.537.066 3.08.067-5.113.067 1.25.067-.712.134 3.152.134-1.823.134 2.72.067-2.499.067.34.201 2.614.067-3.423.067 2.514.067-.106.067.262.067-2.333.067 1.7.067-1.41.067 2.272.067-1.366.067 21.607.134-24.143.134 3.122.067-2.169.067 1.906.067-1.496.201 4.836.067-2.094.067 1.237.268-4.666.067 7.306.067-2.294.134-3.634.067.822.067-2.194.2 3.743.068.649.067-1.351.067 1.9.067-1.13.067-1.521.067 2.1.067-1.91.067.124.067.73.067-.166.067-1.552.067.674.067.08.067 4.363.067-5.43.067 3.1.134-2.11.067.876.067-.686.067 1.73.067-1.306.067 1.138.067-2.114.067 2.243.067-1.088.066.667.067-1.815.067 1.254.067-1.365.067 3.397.201-3.543.067 5.04.067-3.687.067 1.57.067-1.176.067.95.067-.244.067-2.437.134 3.078.067-1.38.067.805.067-.082.067-1.859.067.81.067.174.067-.568.067 2.68.067-1.765.067.247.067-.45.067.962.067-.215.067-2.037.067 2.373.067-1.103.134 1.719.134-1.58.201 3.827.134-3.17.067 1.296.134-2.601.067.533.2 1.44.068-.616.268 1.806.134-1.358.067-2.68.067 2.99.067-.527.067 1.348.2-3.382.068 2.407.067-.706.067.527.067 2.388.134-2.398.067 3.364.134-3.269.067-.473.067 2.16.067-.578.133-2.368.067 2.493.067-.964.067.989.201-3.434.067 4.263.067-2.82.067 2.088.067-2.56.067 1.057.067-.285.067 1.644.067-.297.067-1.2.067 2.06.067-.02.067-.483.067.549.067-1.966.134 2.506.067-1.136.067 1.006.067-.386.134.155.067-2.507.067.643.201 1.452.067-.356.067 2.934.067-2.233.067.733.067-1.439.067.95.067-2.969.067.12.067 4.813.067-1.552.134-2.083.067 1.457.067-.229.067.137.067-2.054.067 7.601.067-7.103.067 3.121.134-2.528.067-3.114.2 5.725.068-2.564.067 3.989.067-6.664.067 5.022.067-.554.067-.821.067-2.283.134 3.875.067-2.762.067 2.506.067-.217.067-4.333.067 5.43.067-3.37.067-1.122.067 2.354.066-1.052.134 1.599.134-.863.201 4.014.201-6.68.067.033.201 3.713.067-2.905.067 1.672.067.16.067 2.895.067-4.267.067 1.23.067-.149.134 2.047.201-3.017.067 1.29.067-.824.067.178.067 4.015.067-4.25.067 2.256.067.492.067-2.912.067 3.495.134-4.099.067 3.228.067-2.715.067 1.052.067.065.067-.328.067 2.253.134-2.23.067.626.067-1.736.067 2.534.067-3.533.067 1.957.067 4.166.134-5.327.067-.008.067 4.462.067-.723.067-1.937.067 2.373.134-4.954.2 5.047.068-3.523.067 3.465.134-3.92.134 3.19.067-1.455.268 5.425.067-7.333.066 3.021.067 1.47.134-3.21.067 3.941.067-.578.067-1.585.067 7.293.134-8.898.134 3.456.201-3.888.134-.615.067.61.201 9.2.067-10.056.067 4.037.067-2.665.067 2.208.067-3.478.067 5.49.067-3.988.067 4.234.067-.309.067-5.48.134 4.418.268-3.481.067-.047.067-.728.067 4.848.067-1.711.067-.368.067-2.093.134 5.518.2-5.634.068.624.067 3.74.067-.154.067.685.134-1.786.067-3.178.067 1.843.067-.082.067 6.682.2-8.476.135-1.204.2 4.93.068-4.377.067 4.559.067-1.049.134-3.235.067 6.113.067-1.005.067.976.067-4.425.067.722.066.04.067.839.067-2.924.067 4.325.134-3.516.067 2.461.067-3.734.067 2.87.067-1.363.067-.505.201 4.01.067-.434.067.631.134-5.37.067 6.89.067-5.14.067 3.367.067-2.723.067 1.47.134-4.053.067.987.134 2.606.067-1.182.067 8.192.067-3.948.201-4.039.067 1.164.067-1.632.201 3.806.067-1.47.067 1.503.067-2.522.067 2.788.2-4.36.068.11.2 3.05.068-1.829.067.705.134 3.287.067-3.45.067 1.931.067 3.803.067-4.507.067 6.308.134-9.739.2 4.5.135-3.583.067 3.233.067-3.408.067 1.158.134.66.067-1.274.067.326.067 6.292.067-.943.066-4.497.067.492.067 2.388.201-5.574.134 4.869.134-4.274.134 4.602.134-3.431.067.697.067 1.484.067-3.632.067 2.37.067.286.067-2.56.067 7.17.134-7.233.067.223.067-1.003.067 6.41.067-6.667.067 3.543.067.883.067-2.75.067 3.938.067-5.421.067 2.24.067 1.088.067-.507.134 1.005.067-.247.067 2.83.067-5.52.067 6.52.067-2.263.2-4.205.068.237.134 1.98.067-.879.067 1.587.067-2.231.067 1.932.134-2.033.067 7.12.067-5.303.067 2.696.134-3.259.067 1.972.067-1.498.134 1.367.067.049.067-.3.067 1.11.134-5.623.067 6.484.067-1.972.067-20.13.134 20.956.134-1.136.067 3.865.133-6.044.067 2.205.067-1.107.134 1.625.067-2.697.134 6.243.134-6.437.067 3.15.067-2.655.067 1.554.067-2.44.067.127.067 2.499.067-1.669.067.43.067 3.742.067-3.66.067 2.942.067-.797.067-1.591.067.498.134 2.823.067-4.373.067 3.97.067-.177.201-4.593.134 3.723.067-4.049.067 6.63.067-2.604.134-5.574.067 6.639.067-2.44.067 1.868.134-5.213.2 6.27.135-3.644.067 2.81.067-4.253.067 1.942.067.147.067 4.037.067-4.171.067.63.134-2.081.067 1.201.067-1.964.134 4.542.2-3.51.068 3.82.067-2.139.067 1.424.134-4.42.134.616.134 5.225.133-5.244.067 5.78.134-4.695.067-.777.134 4.448.134-.166.067-5.432.067 6.327.067-3.057.067 2.982.067-4.315.067.52.067 2.978.067-2.105.067.487.067-.463.134 1.952.201-5.561.067 4.293.067-1.99.067 1.354.067-2.1.067.059.067 4.531.067-1.876.201.904.067-2.243.067.311.201-2.028.067 5.359.067-1.727.067-.105.067-2.096.067 2.296.134-3.491.134 5.002.067-2.518.067 3.78.2-8.325.135 4.895.067-1.083.067-.752.067.218.067.07.067 4.703.067-3.071.067-2.63.067 5.31.067-4.255.067.18.067.061.067.362.067-.62.067 1.56.067-3.239.134 3.644.067-.475.067 4.563.134-7.514.066 4.095.201-3.885.067-.844.067 2.63.134-2.515.067.609.067 3.857.067-1.367.067.182.067-.637.067 3.724.134-6.027.067 3.595.067-.108.067-3.22.067 1.201.134 2.537.067 3.533.067-5.525.067 1.72.067-.241.067-2.618.067 5.286.067-2.026.067-3.613.067.378.201 2.457.067.562.201-2.696.201 4.04.134-5.083.067.961.067 3.42.067-5.255.067 2.632.134 2.645.134-2.366.067 1.011.134-2.14.2 5.074.068-4.702.067.567.067-1.294.2 3.129.068 1.848.067-4.346.067 1.408.067 2.994.067-1.985.067 3.918.134-5.046.134 1.856.067-4.077.067 2.624.066-1.25.067 3.561.067-4.584.067 2.564.201-1.798.067 2.081.067-1.227.067.144.067-.423.067-2.34.067 1.612.067 6.25.201-7.168h0" clip-path="url(#pf04babe8ff)" style="fill:none;stroke:#000;stroke-linecap:square"/><path id="patch_3" d="M30.184 142.2V3.6" style="fill:none;stroke:#000;stroke-width:.5;stroke-linejoin:miter;stroke-linecap:square"/><path id="patch_4" d="M214.324 142.2V3.6" style="fill:none;stroke:#000;stroke-width:.5;stroke-linejoin:miter;stroke-linecap:square"/><path id="patch_5" d="M30.184 142.2h184.14" style="fill:none;stroke:#000;stroke-width:.5;stroke-linejoin:miter;stroke-linecap:square"/><path id="patch_6" d="M30.184 3.6h184.14" style="fill:none;stroke:#000;stroke-width:.5;stroke-linejoin:miter;stroke-linecap:square"/></g></g><defs><clipPath id="pf04babe8ff"><path d="M30.184 3.6h184.14v138.6H30.184z"/></clipPath></defs></svg>