<svg xmlns="http://www.w3.org/2000/svg" xmlns:xlink="http://www.w3.org/1999/xlink" width="290.566" height="223.411" viewBox="0 0 217.924 167.558"><defs><style>*{stroke-linejoin:round;stroke-linecap:butt}</style></defs><g id="figure_1"><path id="patch_1" d="M0 167.558h217.924V0H0z" style="fill:none"/><g id="axes_1"><path id="patch_2" d="M30.184 142.2h184.14V3.6H30.184z" style="fill:none"/><g id="matplotlib.axis_1"><g id="xtick_1"><g id="line2d_1"><defs><path id="mc529adbe4c" d="M0 0v-3" style="stroke:#000;stroke-width:.5"/></defs><use xlink:href="#mc529adbe4c" x="55.301" y="142.2" style="stroke:#000;stroke-width:.5"/></g><g id="line2d_2"><defs><path id="m81b03b6480" d="M0 0v3" style="stroke:#000;stroke-width:.5"/></defs><use xlink:href="#m81b03b6480" x="55.301" y="3.6" style="stroke:#000;stroke-width:.5"/></g><g id="text_1" transform="matrix(.08 0 0 -.08 47.116 151.104)"><defs><path id="CMSY10-0" d="M4218 1472c108 0 224 0 224 128s-116 128-224 128H755c-109 0-224 0-224-128s115-128 224-128z" transform="scale(.01563)"/><path id="NimbusRomNo9L-Regu-30" d="M1626 4352c-352 0-621-108-858-332-371-359-614-1095-614-1844 0-697 211-1446 512-1804C902 90 1229-64 1600-64c326 0 602 109 832 333 371 352 614 1095 614 1869 0 1312-582 2214-1420 2214m-20-166c538 0 826-723 826-2061 0-1337-282-2022-832-2022S768 788 768 2119c0 1357 288 2067 838 2067" transform="scale(.01563)"/><path id="CMMI10-3a" d="M1229 338c0 184-154 337-339 337-186 0-340-153-340-337C550 153 704 0 890 0c185 0 339 153 339 338" transform="scale(.01563)"/><path id="NimbusRomNo9L-Regu-32" d="m3040 875-83 32c-237-363-320-421-608-421H819l1075 1123c570 593 820 1078 820 1576 0 638-519 1128-1184 1128-352 0-685-140-922-395-205-218-301-422-410-875l135-32c256 625 486 829 928 829 537 0 902-364 902-900 0-497-294-1090-832-1658L192 77V0h2496z" transform="scale(.01563)"/></defs><use xlink:href="#CMSY10-0" transform="scale(.99626)"/><use xlink:href="#NimbusRomNo9L-Regu-30" transform="matrix(.99626 0 0 .99626 77.409 0)"/><use xlink:href="#CMMI10-3a" transform="matrix(.99626 0 0 .99626 127.222 0)"/><use xlink:href="#NimbusRomNo9L-Regu-32" transform="matrix(.99626 0 0 .99626 154.817 0)"/></g></g><g id="xtick_2"><use xlink:href="#mc529adbe4c" id="line2d_3" x="88.794" y="142.2" style="stroke:#000;stroke-width:.5"/><use xlink:href="#m81b03b6480" id="line2d_4" x="88.794" y="3.6" style="stroke:#000;stroke-width:.5"/><g id="text_2" transform="matrix(.08 0 0 -.08 80.61 151.104)"><defs><path id="NimbusRomNo9L-Regu-31" d="M1862 4339 710 3757v-90c77 32 148 58 173 71 115 45 224 70 288 70 135 0 192-97 192-303V592c0-213-51-360-153-419-96-57-186-77-455-77V0h1767v96c-506 0-608 64-608 374v3857z" transform="scale(.01563)"/></defs><use xlink:href="#CMSY10-0" transform="scale(.99626)"/><use xlink:href="#NimbusRomNo9L-Regu-30" transform="matrix(.99626 0 0 .99626 77.409 0)"/><use xlink:href="#CMMI10-3a" transform="matrix(.99626 0 0 .99626 127.222 0)"/><use xlink:href="#NimbusRomNo9L-Regu-31" transform="matrix(.99626 0 0 .99626 154.817 0)"/></g></g><g id="xtick_3"><use xlink:href="#mc529adbe4c" id="line2d_5" x="122.288" y="142.2" style="stroke:#000;stroke-width:.5"/><use xlink:href="#m81b03b6480" id="line2d_6" x="122.288" y="3.6" style="stroke:#000;stroke-width:.5"/><g id="text_3" transform="matrix(.08 0 0 -.08 117.199 151.104)"><use xlink:href="#NimbusRomNo9L-Regu-30" transform="scale(.99626)"/><use xlink:href="#CMMI10-3a" transform="matrix(.99626 0 0 .99626 49.813 0)"/><use xlink:href="#NimbusRomNo9L-Regu-30" transform="matrix(.99626 0 0 .99626 77.409 0)"/></g></g><g id="xtick_4"><use xlink:href="#mc529adbe4c" id="line2d_7" x="155.781" y="142.2" style="stroke:#000;stroke-width:.5"/><use xlink:href="#m81b03b6480" id="line2d_8" x="155.781" y="3.6" style="stroke:#000;stroke-width:.5"/><g id="text_4" transform="matrix(.08 0 0 -.08 150.692 151.104)"><use xlink:href="#NimbusRomNo9L-Regu-30" transform="scale(.99626)"/><use xlink:href="#CMMI10-3a" transform="matrix(.99626 0 0 .99626 49.813 0)"/><use xlink:href="#NimbusRomNo9L-Regu-31" transform="matrix(.99626 0 0 .99626 77.409 0)"/></g></g><g id="xtick_5"><use xlink:href="#mc529adbe4c" id="line2d_9" x="189.275" y="142.2" style="stroke:#000;stroke-width:.5"/><use xlink:href="#m81b03b6480" id="line2d_10" x="189.275" y="3.6" style="stroke:#000;stroke-width:.5"/><g id="text_5" transform="matrix(.08 0 0 -.08 184.186 151.104)"><use xlink:href="#NimbusRomNo9L-Regu-30" transform="scale(.99626)"/><use xlink:href="#CMMI10-3a" transform="matrix(.99626 0 0 .99626 49.813 0)"/><use xlink:href="#NimbusRomNo9L-Regu-32" transform="matrix(.99626 0 0 .99626 77.409 0)"/></g></g><g id="xtick_6"><g id="line2d_11"><defs><path id="m2f9887d3a3" d="M0 0v-1.5" style="stroke:#000;stroke-width:.5"/></defs><use xlink:href="#m2f9887d3a3" x="35.205" y="142.2" style="stroke:#000;stroke-width:.5"/></g><g id="line2d_12"><defs><path id="ma3d18dfdf4" d="M0 0v1.5" style="stroke:#000;stroke-width:.5"/></defs><use xlink:href="#ma3d18dfdf4" x="35.205" y="3.6" style="stroke:#000;stroke-width:.5"/></g></g><g id="xtick_7"><use xlink:href="#m2f9887d3a3" id="line2d_13" x="41.904" y="142.2" style="stroke:#000;stroke-width:.5"/><use xlink:href="#ma3d18dfdf4" id="line2d_14" x="41.904" y="3.6" style="stroke:#000;stroke-width:.5"/></g><g id="xtick_8"><use xlink:href="#m2f9887d3a3" id="line2d_15" x="48.602" y="142.2" style="stroke:#000;stroke-width:.5"/><use xlink:href="#ma3d18dfdf4" id="line2d_16" x="48.602" y="3.6" style="stroke:#000;stroke-width:.5"/></g><g id="xtick_9"><use xlink:href="#m2f9887d3a3" id="line2d_17" x="62" y="142.2" style="stroke:#000;stroke-width:.5"/><use xlink:href="#ma3d18dfdf4" id="line2d_18" x="62" y="3.6" style="stroke:#000;stroke-width:.5"/></g><g id="xtick_10"><use xlink:href="#m2f9887d3a3" id="line2d_19" x="68.698" y="142.2" style="stroke:#000;stroke-width:.5"/><use xlink:href="#ma3d18dfdf4" id="line2d_20" x="68.698" y="3.6" style="stroke:#000;stroke-width:.5"/></g><g id="xtick_11"><use xlink:href="#m2f9887d3a3" id="line2d_21" x="75.397" y="142.2" style="stroke:#000;stroke-width:.5"/><use xlink:href="#ma3d18dfdf4" id="line2d_22" x="75.397" y="3.6" style="stroke:#000;stroke-width:.5"/></g><g id="xtick_12"><use xlink:href="#m2f9887d3a3" id="line2d_23" x="82.096" y="142.2" style="stroke:#000;stroke-width:.5"/><use xlink:href="#ma3d18dfdf4" id="line2d_24" x="82.096" y="3.6" style="stroke:#000;stroke-width:.5"/></g><g id="xtick_13"><use xlink:href="#m2f9887d3a3" id="line2d_25" x="95.493" y="142.2" style="stroke:#000;stroke-width:.5"/><use xlink:href="#ma3d18dfdf4" id="line2d_26" x="95.493" y="3.6" style="stroke:#000;stroke-width:.5"/></g><g id="xtick_14"><use xlink:href="#m2f9887d3a3" id="line2d_27" x="102.192" y="142.2" style="stroke:#000;stroke-width:.5"/><use xlink:href="#ma3d18dfdf4" id="line2d_28" x="102.192" y="3.6" style="stroke:#000;stroke-width:.5"/></g><g id="xtick_15"><use xlink:href="#m2f9887d3a3" id="line2d_29" x="108.89" y="142.2" style="stroke:#000;stroke-width:.5"/><use xlink:href="#ma3d18dfdf4" id="line2d_30" x="108.89" y="3.6" style="stroke:#000;stroke-width:.5"/></g><g id="xtick_16"><use xlink:href="#m2f9887d3a3" id="line2d_31" x="115.589" y="142.2" style="stroke:#000;stroke-width:.5"/><use xlink:href="#ma3d18dfdf4" id="line2d_32" x="115.589" y="3.6" style="stroke:#000;stroke-width:.5"/></g><g id="xtick_17"><use xlink:href="#m2f9887d3a3" id="line2d_33" x="128.986" y="142.2" style="stroke:#000;stroke-width:.5"/><use xlink:href="#ma3d18dfdf4" id="line2d_34" x="128.986" y="3.6" style="stroke:#000;stroke-width:.5"/></g><g id="xtick_18"><use xlink:href="#m2f9887d3a3" id="line2d_35" x="135.685" y="142.2" style="stroke:#000;stroke-width:.5"/><use xlink:href="#ma3d18dfdf4" id="line2d_36" x="135.685" y="3.6" style="stroke:#000;stroke-width:.5"/></g><g id="xtick_19"><use xlink:href="#m2f9887d3a3" id="line2d_37" x="142.384" y="142.2" style="stroke:#000;stroke-width:.5"/><use xlink:href="#ma3d18dfdf4" id="line2d_38" x="142.384" y="3.6" style="stroke:#000;stroke-width:.5"/></g><g id="xtick_20"><use xlink:href="#m2f9887d3a3" id="line2d_39" x="149.082" y="142.2" style="stroke:#000;stroke-width:.5"/><use xlink:href="#ma3d18dfdf4" id="line2d_40" x="149.082" y="3.6" style="stroke:#000;stroke-width:.5"/></g><g id="xtick_21"><use xlink:href="#m2f9887d3a3" id="line2d_41" x="162.48" y="142.2" style="stroke:#000;stroke-width:.5"/><use xlink:href="#ma3d18dfdf4" id="line2d_42" x="162.48" y="3.6" style="stroke:#000;stroke-width:.5"/></g><g id="xtick_22"><use xlink:href="#m2f9887d3a3" id="line2d_43" x="169.179" y="142.2" style="stroke:#000;stroke-width:.5"/><use xlink:href="#ma3d18dfdf4" id="line2d_44" x="169.179" y="3.6" style="stroke:#000;stroke-width:.5"/></g><g id="xtick_23"><use xlink:href="#m2f9887d3a3" id="line2d_45" x="175.877" y="142.2" style="stroke:#000;stroke-width:.5"/><use xlink:href="#ma3d18dfdf4" id="line2d_46" x="175.877" y="3.6" style="stroke:#000;stroke-width:.5"/></g><g id="xtick_24"><use xlink:href="#m2f9887d3a3" id="line2d_47" x="182.576" y="142.2" style="stroke:#000;stroke-width:.5"/><use xlink:href="#ma3d18dfdf4" id="line2d_48" x="182.576" y="3.6" style="stroke:#000;stroke-width:.5"/></g><g id="xtick_25"><use xlink:href="#m2f9887d3a3" id="line2d_49" x="195.973" y="142.2" style="stroke:#000;stroke-width:.5"/><use xlink:href="#ma3d18dfdf4" id="line2d_50" x="195.973" y="3.6" style="stroke:#000;stroke-width:.5"/></g><g id="xtick_26"><use xlink:href="#m2f9887d3a3" id="line2d_51" x="202.672" y="142.2" style="stroke:#000;stroke-width:.5"/><use xlink:href="#ma3d18dfdf4" id="line2d_52" x="202.672" y="3.6" style="stroke:#000;stroke-width:.5"/></g><g id="xtick_27"><use xlink:href="#m2f9887d3a3" id="line2d_53" x="209.371" y="142.2" style="stroke:#000;stroke-width:.5"/><use xlink:href="#ma3d18dfdf4" id="line2d_54" x="209.371" y="3.6" style="stroke:#000;stroke-width:.5"/></g><g id="text_6" transform="matrix(.08 0 0 -.08 109.753 162.233)"><defs><path id="NimbusRomNo9L-Regu-66" d="M1978 2880h-788v731c0 367 122 562 365 562 135 0 224-63 339-246 103-164 180-227 288-227 148 0 269 114 269 259 0 229-281 393-665 393-397 0-736-171-903-461-166-278-217-506-224-1011H134v-205h525V656c0-471-70-547-531-547V0h1664v109c-525 0-595 71-595 552v2014h781z" transform="scale(.01563)"/><path id="NimbusRomNo9L-Regu-28" d="M1888 4326c-474-307-666-473-902-768-455-556-679-1196-679-1945 0-813 237-1440 800-2093 263-307 429-448 762-653l77 103c-512 403-692 627-864 1107-154 429-224 915-224 1555 0 672 83 1197 256 1594 179 396 371 627 832 998z" transform="scale(.01563)"/><path id="NimbusRomNo9L-Regu-47" d="M4538 2304H2906v-128c275 0 352-19 428-71 96-58 135-207 135-484V574c0-207-391-382-851-382-1044 0-1684 730-1684 1920 0 602 180 1184 461 1498 282 314 679 486 1114 486 358 0 672-121 921-352 192-179 295-352 455-742h147l-51 1350h-141c-38-121-154-211-288-211-64 0-166 19-282 64-288 96-582 147-870 147-1280 0-2195-940-2195-2246 0-627 173-1107 531-1485C1165 180 1779-64 2483-64c551 0 1351 224 1607 449v1309c0 379 76 463 448 495z" transform="scale(.01563)"/><path id="NimbusRomNo9L-Regu-48" d="M1338 2304v1229c0 457 70 526 563 571v120H122v-120c492-45 563-115 563-577V749c0-539-64-615-563-615V0h1779v121c-480 38-563 121-563 578v1323h1939V757c0-546-64-623-563-623V0h1779v121c-480 38-563 121-563 575v2833c0 460 70 530 563 575v120H2714v-120c492-45 563-114 563-571V2304z" transform="scale(.01563)"/><path id="NimbusRomNo9L-Regu-7a" d="m2675 864-115 26c-64-320-102-423-186-532-89-108-307-166-633-166H858l1721 2592v96H358l-19-755h115c58 467 154 563 538 563h883L173 96V0h2413z" transform="scale(.01563)"/><path id="NimbusRomNo9L-Regu-29" d="M243-1133c474 307 666 474 903 768 454 557 678 1197 678 1946 0 819-237 1440-800 2093-262 307-429 448-762 652l-76-102c512-403 684-627 864-1107 153-429 224-915 224-1555 0-666-84-1197-256-1588-180-403-372-633-832-1004z" transform="scale(.01563)"/></defs><use xlink:href="#NimbusRomNo9L-Regu-66" transform="scale(.99626)"/><use xlink:href="#NimbusRomNo9L-Regu-28" transform="matrix(.99626 0 0 .99626 58.082 0)"/><use xlink:href="#NimbusRomNo9L-Regu-47" transform="matrix(.99626 0 0 .99626 91.257 0)"/><use xlink:href="#NimbusRomNo9L-Regu-48" transform="matrix(.99626 0 0 .99626 163.187 0)"/><use xlink:href="#NimbusRomNo9L-Regu-7a" transform="matrix(.99626 0 0 .99626 235.117 0)"/><use xlink:href="#NimbusRomNo9L-Regu-29" transform="matrix(.99626 0 0 .99626 279.35 0)"/></g></g><g id="matplotlib.axis_2"><g id="ytick_1"><g id="line2d_55"><defs><path id="m126cecf3f8" d="M0 0h3" style="stroke:#000;stroke-width:.5"/></defs><use xlink:href="#m126cecf3f8" x="30.184" y="141.678" style="stroke:#000;stroke-width:.5"/></g><g id="line2d_56"><defs><path id="md0cf95e514" d="M0 0h-3" style="stroke:#000;stroke-width:.5"/></defs><use xlink:href="#md0cf95e514" x="214.324" y="141.678" style="stroke:#000;stroke-width:.5"/></g><use xlink:href="#NimbusRomNo9L-Regu-30" id="text_7" transform="matrix(.0797 0 0 -.0797 22.7 144.38)"/></g><g id="ytick_2"><use xlink:href="#m126cecf3f8" id="line2d_57" x="30.184" y="122.592" style="stroke:#000;stroke-width:.5"/><use xlink:href="#md0cf95e514" id="line2d_58" x="214.324" y="122.592" style="stroke:#000;stroke-width:.5"/><g id="text_8" transform="matrix(.08 0 0 -.08 18.714 125.294)"><defs><path id="NimbusRomNo9L-Regu-35" d="M1158 3776h1255c102 0 128 13 147 58l243 569-57 45c-96-134-160-166-295-166H1114L416 2759c-6-13-6-19-6-32 0-32 25-51 76-51 205 0 461-45 724-129 736-238 1075-637 1075-1273 0-618-391-1101-890-1101-128 0-237 45-429 187-204 148-352 212-486 212-186 0-275-77-275-238C205 90 506-64 986-64c537 0 998 174 1318 502 294 290 429 656 429 1145 0 463-122 759-442 1080-281 284-646 431-1401 566z" transform="scale(.01563)"/></defs><use xlink:href="#NimbusRomNo9L-Regu-32" transform="scale(.99626)"/><use xlink:href="#NimbusRomNo9L-Regu-35" transform="matrix(.99626 0 0 .99626 49.813 0)"/></g></g><g id="ytick_3"><use xlink:href="#m126cecf3f8" id="line2d_59" x="30.184" y="103.506" style="stroke:#000;stroke-width:.5"/><use xlink:href="#md0cf95e514" id="line2d_60" x="214.324" y="103.506" style="stroke:#000;stroke-width:.5"/><g id="text_9" transform="matrix(.08 0 0 -.08 18.714 106.208)"><use xlink:href="#NimbusRomNo9L-Regu-35" transform="scale(.99626)"/><use xlink:href="#NimbusRomNo9L-Regu-30" transform="matrix(.99626 0 0 .99626 49.813 0)"/></g></g><g id="ytick_4"><use xlink:href="#m126cecf3f8" id="line2d_61" x="30.184" y="84.42" style="stroke:#000;stroke-width:.5"/><use xlink:href="#md0cf95e514" id="line2d_62" x="214.324" y="84.42" style="stroke:#000;stroke-width:.5"/><g id="text_10" transform="matrix(.08 0 0 -.08 18.714 87.122)"><defs><path id="NimbusRomNo9L-Regu-37" d="M2874 4250H506l-378-940 109-52c275 435 390 518 742 518h1389L1101-32h416l1357 4180z" transform="scale(.01563)"/></defs><use xlink:href="#NimbusRomNo9L-Regu-37" transform="scale(.99626)"/><use xlink:href="#NimbusRomNo9L-Regu-35" transform="matrix(.99626 0 0 .99626 49.813 0)"/></g></g><g id="ytick_5"><use xlink:href="#m126cecf3f8" id="line2d_63" x="30.184" y="65.334" style="stroke:#000;stroke-width:.5"/><use xlink:href="#md0cf95e514" id="line2d_64" x="214.324" y="65.334" style="stroke:#000;stroke-width:.5"/><g id="text_11" transform="matrix(.08 0 0 -.08 14.73 68.036)"><use xlink:href="#NimbusRomNo9L-Regu-31" transform="scale(.99626)"/><use xlink:href="#NimbusRomNo9L-Regu-30" transform="matrix(.99626 0 0 .99626 49.813 0)"/><use xlink:href="#NimbusRomNo9L-Regu-30" transform="matrix(.99626 0 0 .99626 99.626 0)"/></g></g><g id="ytick_6"><use xlink:href="#m126cecf3f8" id="line2d_65" x="30.184" y="46.248" style="stroke:#000;stroke-width:.5"/><use xlink:href="#md0cf95e514" id="line2d_66" x="214.324" y="46.248" style="stroke:#000;stroke-width:.5"/><g id="text_12" transform="matrix(.08 0 0 -.08 14.73 48.95)"><use xlink:href="#NimbusRomNo9L-Regu-31" transform="scale(.99626)"/><use xlink:href="#NimbusRomNo9L-Regu-32" transform="matrix(.99626 0 0 .99626 49.813 0)"/><use xlink:href="#NimbusRomNo9L-Regu-35" transform="matrix(.99626 0 0 .99626 99.626 0)"/></g></g><g id="ytick_7"><use xlink:href="#m126cecf3f8" id="line2d_67" x="30.184" y="27.162" style="stroke:#000;stroke-width:.5"/><use xlink:href="#md0cf95e514" id="line2d_68" x="214.324" y="27.162" style="stroke:#000;stroke-width:.5"/><g id="text_13" transform="matrix(.08 0 0 -.08 14.73 29.864)"><use xlink:href="#NimbusRomNo9L-Regu-31" transform="scale(.99626)"/><use xlink:href="#NimbusRomNo9L-Regu-35" transform="matrix(.99626 0 0 .99626 49.813 0)"/><use xlink:href="#NimbusRomNo9L-Regu-30" transform="matrix(.99626 0 0 .99626 99.626 0)"/></g></g><g id="ytick_8"><use xlink:href="#m126cecf3f8" id="line2d_69" x="30.184" y="8.076" style="stroke:#000;stroke-width:.5"/><use xlink:href="#md0cf95e514" id="line2d_70" x="214.324" y="8.076" style="stroke:#000;stroke-width:.5"/><g id="text_14" transform="matrix(.08 0 0 -.08 14.73 10.778)"><use xlink:href="#NimbusRomNo9L-Regu-31" transform="scale(.99626)"/><use xlink:href="#NimbusRomNo9L-Regu-37" transform="matrix(.99626 0 0 .99626 49.813 0)"/><use xlink:href="#NimbusRomNo9L-Regu-35" transform="matrix(.99626 0 0 .99626 99.626 0)"/></g></g><g id="ytick_9"><g id="line2d_71"><defs><path id="m662eb29474" d="M0 0h1.5" style="stroke:#000;stroke-width:.5"/></defs><use xlink:href="#m662eb29474" x="30.184" y="137.861" style="stroke:#000;stroke-width:.5"/></g><g id="line2d_72"><defs><path id="m1bd6433741" d="M0 0h-1.5" style="stroke:#000;stroke-width:.5"/></defs><use xlink:href="#m1bd6433741" x="214.324" y="137.861" style="stroke:#000;stroke-width:.5"/></g></g><g id="ytick_10"><use xlink:href="#m662eb29474" id="line2d_73" x="30.184" y="134.043" style="stroke:#000;stroke-width:.5"/><use xlink:href="#m1bd6433741" id="line2d_74" x="214.324" y="134.043" style="stroke:#000;stroke-width:.5"/></g><g id="ytick_11"><use xlink:href="#m662eb29474" id="line2d_75" x="30.184" y="130.226" style="stroke:#000;stroke-width:.5"/><use xlink:href="#m1bd6433741" id="line2d_76" x="214.324" y="130.226" style="stroke:#000;stroke-width:.5"/></g><g id="ytick_12"><use xlink:href="#m662eb29474" id="line2d_77" x="30.184" y="126.409" style="stroke:#000;stroke-width:.5"/><use xlink:href="#m1bd6433741" id="line2d_78" x="214.324" y="126.409" style="stroke:#000;stroke-width:.5"/></g><g id="ytick_13"><use xlink:href="#m662eb29474" id="line2d_79" x="30.184" y="118.775" style="stroke:#000;stroke-width:.5"/><use xlink:href="#m1bd6433741" id="line2d_80" x="214.324" y="118.775" style="stroke:#000;stroke-width:.5"/></g><g id="ytick_14"><use xlink:href="#m662eb29474" id="line2d_81" x="30.184" y="114.957" style="stroke:#000;stroke-width:.5"/><use xlink:href="#m1bd6433741" id="line2d_82" x="214.324" y="114.957" style="stroke:#000;stroke-width:.5"/></g><g id="ytick_15"><use xlink:href="#m662eb29474" id="line2d_83" x="30.184" y="111.14" style="stroke:#000;stroke-width:.5"/><use xlink:href="#m1bd6433741" id="line2d_84" x="214.324" y="111.14" style="stroke:#000;stroke-width:.5"/></g><g id="ytick_16"><use xlink:href="#m662eb29474" id="line2d_85" x="30.184" y="107.323" style="stroke:#000;stroke-width:.5"/><use xlink:href="#m1bd6433741" id="line2d_86" x="214.324" y="107.323" style="stroke:#000;stroke-width:.5"/></g><g id="ytick_17"><use xlink:href="#m662eb29474" id="line2d_87" x="30.184" y="99.689" style="stroke:#000;stroke-width:.5"/><use xlink:href="#m1bd6433741" id="line2d_88" x="214.324" y="99.689" style="stroke:#000;stroke-width:.5"/></g><g id="ytick_18"><use xlink:href="#m662eb29474" id="line2d_89" x="30.184" y="95.871" style="stroke:#000;stroke-width:.5"/><use xlink:href="#m1bd6433741" id="line2d_90" x="214.324" y="95.871" style="stroke:#000;stroke-width:.5"/></g><g id="ytick_19"><use xlink:href="#m662eb29474" id="line2d_91" x="30.184" y="92.054" style="stroke:#000;stroke-width:.5"/><use xlink:href="#m1bd6433741" id="line2d_92" x="214.324" y="92.054" style="stroke:#000;stroke-width:.5"/></g><g id="ytick_20"><use xlink:href="#m662eb29474" id="line2d_93" x="30.184" y="88.237" style="stroke:#000;stroke-width:.5"/><use xlink:href="#m1bd6433741" id="line2d_94" x="214.324" y="88.237" style="stroke:#000;stroke-width:.5"/></g><g id="ytick_21"><use xlink:href="#m662eb29474" id="line2d_95" x="30.184" y="80.603" style="stroke:#000;stroke-width:.5"/><use xlink:href="#m1bd6433741" id="line2d_96" x="214.324" y="80.603" style="stroke:#000;stroke-width:.5"/></g><g id="ytick_22"><use xlink:href="#m662eb29474" id="line2d_97" x="30.184" y="76.785" style="stroke:#000;stroke-width:.5"/><use xlink:href="#m1bd6433741" id="line2d_98" x="214.324" y="76.785" style="stroke:#000;stroke-width:.5"/></g><g id="ytick_23"><use xlink:href="#m662eb29474" id="line2d_99" x="30.184" y="72.968" style="stroke:#000;stroke-width:.5"/><use xlink:href="#m1bd6433741" id="line2d_100" x="214.324" y="72.968" style="stroke:#000;stroke-width:.5"/></g><g id="ytick_24"><use xlink:href="#m662eb29474" id="line2d_101" x="30.184" y="69.151" style="stroke:#000;stroke-width:.5"/><use xlink:href="#m1bd6433741" id="line2d_102" x="214.324" y="69.151" style="stroke:#000;stroke-width:.5"/></g><g id="ytick_25"><use xlink:href="#m662eb29474" id="line2d_103" x="30.184" y="61.517" style="stroke:#000;stroke-width:.5"/><use xlink:href="#m1bd6433741" id="line2d_104" x="214.324" y="61.517" style="stroke:#000;stroke-width:.5"/></g><g id="ytick_26"><use xlink:href="#m662eb29474" id="line2d_105" x="30.184" y="57.699" style="stroke:#000;stroke-width:.5"/><use xlink:href="#m1bd6433741" id="line2d_106" x="214.324" y="57.699" style="stroke:#000;stroke-width:.5"/></g><g id="ytick_27"><use xlink:href="#m662eb29474" id="line2d_107" x="30.184" y="53.882" style="stroke:#000;stroke-width:.5"/><use xlink:href="#m1bd6433741" id="line2d_108" x="214.324" y="53.882" style="stroke:#000;stroke-width:.5"/></g><g id="ytick_28"><use xlink:href="#m662eb29474" id="line2d_109" x="30.184" y="50.065" style="stroke:#000;stroke-width:.5"/><use xlink:href="#m1bd6433741" id="line2d_110" x="214.324" y="50.065" style="stroke:#000;stroke-width:.5"/></g><g id="ytick_29"><use xlink:href="#m662eb29474" id="line2d_111" x="30.184" y="42.431" style="stroke:#000;stroke-width:.5"/><use xlink:href="#m1bd6433741" id="line2d_112" x="214.324" y="42.431" style="stroke:#000;stroke-width:.5"/></g><g id="ytick_30"><use xlink:href="#m662eb29474" id="line2d_113" x="30.184" y="38.613" style="stroke:#000;stroke-width:.5"/><use xlink:href="#m1bd6433741" id="line2d_114" x="214.324" y="38.613" style="stroke:#000;stroke-width:.5"/></g><g id="ytick_31"><use xlink:href="#m662eb29474" id="line2d_115" x="30.184" y="34.796" style="stroke:#000;stroke-width:.5"/><use xlink:href="#m1bd6433741" id="line2d_116" x="214.324" y="34.796" style="stroke:#000;stroke-width:.5"/></g><g id="ytick_32"><use xlink:href="#m662eb29474" id="line2d_117" x="30.184" y="30.979" style="stroke:#000;stroke-width:.5"/><use xlink:href="#m1bd6433741" id="line2d_118" x="214.324" y="30.979" style="stroke:#000;stroke-width:.5"/></g><g id="ytick_33"><use xlink:href="#m662eb29474" id="line2d_119" x="30.184" y="23.345" style="stroke:#000;stroke-width:.5"/><use xlink:href="#m1bd6433741" id="line2d_120" x="214.324" y="23.345" style="stroke:#000;stroke-width:.5"/></g><g id="ytick_34"><use xlink:href="#m662eb29474" id="line2d_121" x="30.184" y="19.527" style="stroke:#000;stroke-width:.5"/><use xlink:href="#m1bd6433741" id="line2d_122" x="214.324" y="19.527" style="stroke:#000;stroke-width:.5"/></g><g id="ytick_35"><use xlink:href="#m662eb29474" id="line2d_123" x="30.184" y="15.71" style="stroke:#000;stroke-width:.5"/><use xlink:href="#m1bd6433741" id="line2d_124" x="214.324" y="15.71" style="stroke:#000;stroke-width:.5"/></g><g id="ytick_36"><use xlink:href="#m662eb29474" id="line2d_125" x="30.184" y="11.893" style="stroke:#000;stroke-width:.5"/><use xlink:href="#m1bd6433741" id="line2d_126" x="214.324" y="11.893" style="stroke:#000;stroke-width:.5"/></g><g id="ytick_37"><use xlink:href="#m662eb29474" id="line2d_127" x="30.184" y="4.259" style="stroke:#000;stroke-width:.5"/><use xlink:href="#m1bd6433741" id="line2d_128" x="214.324" y="4.259" style="stroke:#000;stroke-width:.5"/></g><g id="text_15" transform="matrix(0 -.08 -.08 0 9.004 98.468)"><defs><path id="NimbusRomNo9L-Regu-4d" d="M4314 3667V751c0-534-77-617-583-617V0h1792v134c-467 0-557 89-557 547v2855c0 457 84 541 557 579v122H4250L2835 1004 1357 4237H90v-141c524 0 608-77 608-546V943c0-661-90-784-621-822V0h1504v134c-493 0-602 148-602 797v2589L2586 0h89z" transform="scale(.01563)"/><path id="NimbusRomNo9L-Regu-61" d="M2829 423c-109-90-186-122-282-122-147 0-192 89-192 371v1248c0 333-32 518-128 672-141 230-416 352-793 352-602 0-1076-314-1076-717 0-147 128-275 276-275 153 0 288 128 288 269 0 25-7 57-13 102-13 58-19 109-19 154 0 173 204 313 460 313 314 0 487-185 487-531v-390c-986-397-1095-448-1370-691-141-128-230-346-230-557 0-403 281-685 672-685 281 0 544 134 934 467 32-333 147-467 410-467 217 0 352 77 576 320zm-992 360c0-199-32-257-167-334-153-90-332-148-467-148-224 0-403 219-403 495v26c0 379 262 611 1037 893z" transform="scale(.01563)"/><path id="NimbusRomNo9L-Regu-67" d="M3008 2496v250h-493c-128 0-224 17-352 56l-141 45c-172 56-345 84-512 84-595 0-1068-464-1068-1050 0-405 172-651 595-863-122-112-237-219-275-250-212-180-295-305-295-430 0-132 77-207 339-332-454-335-627-549-627-787 0-343 499-627 1107-627 480 0 980 170 1312 446 244 203 352 414 352 663 0 407-300 683-774 683h-826c-339 0-499 59-499 164 0 130 211 360 384 412 58-7 103-13 122-13 121-13 205-19 243-19 237 0 493 98 691 275 211 184 307 414 307 742 0 190-32 341-121 551zM941-13c211-45 723-83 1037-83 582 0 793-84 793-318 0-377-486-629-1209-629-564 0-935 188-935 473 0 150 45 234 314 557m32 2158c0 381 179 607 473 607 199 0 365-110 468-303 115-226 192-522 192-774 0-361-186-587-480-587-384 0-653 419-653 1038z" transform="scale(.01563)"/><path id="NimbusRomNo9L-Regu-6e" d="M102 2579c39 19 103 26 173 26 179 0 237-96 237-410V608c0-365-70-454-397-480V32h1357v96c-326 26-422 102-422 333v1798c307 288 448 365 659 365 313 0 467-198 467-621V666c0-404-83-512-403-538V32h1331v96c-314 32-390 109-390 422v1466c0 602-282 960-756 960-294 0-492-109-928-518v505l-44 13c-314-115-532-186-884-288z" transform="scale(.01563)"/><path id="NimbusRomNo9L-Regu-69" d="m1120 2929-992-350v-95l51 6c77 12 160 19 218 19 153 0 211-103 211-384V640c0-461-64-531-506-531V0h1517v96c-422 32-473 95-473 554v2260zM819 4352c-173 0-320-147-320-326s141-327 320-327c186 0 333 141 333 327 0 179-147 326-333 326" transform="scale(.01563)"/><path id="NimbusRomNo9L-Regu-74" d="M1632 2880H986v742c0 64-7 84-45 84-45-58-83-116-128-180-243-352-519-659-621-685-70-47-109-93-109-126 0-20 7-33 26-33h339V751c0-539 192-815 570-815 313 0 556 154 768 487l-84 70c-134-160-243-224-384-224-236 0-332 174-332 578v1835h646z" transform="scale(.01563)"/><path id="NimbusRomNo9L-Regu-75" d="M3066 320h-32c-295 0-365 70-365 365v2195H1658v-122c396 0 473-64 473-383V875c0-178-32-268-121-338-173-140-372-217-564-217-249 0-454 217-454 485v2075H58v-102c307 0 396-96 396-391V770c0-507 308-834 775-834 237 0 486 102 659 275l275 275V-45l26-13c320 128 550 199 877 288z" transform="scale(.01563)"/><path id="NimbusRomNo9L-Regu-64" d="m2202-64 940 333v96h-147c-230 0-281 70-281 366v3633l-32 13c-308-109-532-173-941-281v-102c51 6 89 6 141 6 236 0 294-64 294-328V2669c-243 205-416 275-672 275-736 0-1331-723-1331-1632C173 493 653-64 1357-64c358 0 601 128 819 429V-45zm-26 717c0-45-45-122-109-192-115-128-275-192-461-192-531 0-883 512-883 1299 0 723 314 1197 800 1197 339 0 653-301 653-640z" transform="scale(.01563)"/><path id="NimbusRomNo9L-Regu-65" d="M2611 1053c-307-489-582-675-992-675-365 0-640 186-825 552-116 244-160 456-173 849h1971c-51 414-115 598-275 802-192 230-487 363-819 363-320 0-621-115-864-333-301-262-474-717-474-1241C160 486 621-64 1357-64c608 0 1088 379 1357 1072zM634 1984c70 495 288 730 678 730s544-179 627-730z" transform="scale(.01563)"/><path id="NimbusRomNo9L-Regu-42" d="M109 4237v-141c537 0 614-70 614-548V689c0-477-83-561-614-561V0h2137c500 0 954 136 1191 356 230 208 358 499 358 809 0 286-115 545-313 732-192 175-365 253-781 356 333 82 467 145 621 278 160 140 256 372 256 632 0 708-570 1074-1677 1074zm1267-2125c621 0 915-32 1146-130 364-155 537-414 537-823 0-350-134-604-390-753-205-116-467-168-890-168-313 0-403 58-403 266zm0 256v1444c0 132 45 189 141 189h281c736 0 1127-302 1127-864 0-491-339-769-941-769z" transform="scale(.01563)"/></defs><use xlink:href="#NimbusRomNo9L-Regu-4d" transform="scale(.99626)"/><use xlink:href="#NimbusRomNo9L-Regu-61" transform="matrix(.99626 0 0 .99626 88.567 0)"/><use xlink:href="#NimbusRomNo9L-Regu-67" transform="matrix(.99626 0 0 .99626 132.8 0)"/><use xlink:href="#NimbusRomNo9L-Regu-6e" transform="matrix(.99626 0 0 .99626 182.614 0)"/><use xlink:href="#NimbusRomNo9L-Regu-69" transform="matrix(.99626 0 0 .99626 232.427 0)"/><use xlink:href="#NimbusRomNo9L-Regu-74" transform="matrix(.99626 0 0 .99626 260.122 0)"/><use xlink:href="#NimbusRomNo9L-Regu-75" transform="matrix(.99626 0 0 .99626 287.817 0)"/><use xlink:href="#NimbusRomNo9L-Regu-64" transform="matrix(.99626 0 0 .99626 337.63 0)"/><use xlink:href="#NimbusRomNo9L-Regu-65" transform="matrix(.99626 0 0 .99626 387.444 0)"/><use xlink:href="#NimbusRomNo9L-Regu-28" transform="matrix(.99626 0 0 .99626 456.584 0)"/><use xlink:href="#NimbusRomNo9L-Regu-64" transform="matrix(.99626 0 0 .99626 489.759 0)"/><use xlink:href="#NimbusRomNo9L-Regu-42" transform="matrix(.99626 0 0 .99626 539.572 0)"/><use xlink:href="#NimbusRomNo9L-Regu-29" transform="matrix(.99626 0 0 .99626 606.022 0)"/></g></g><path id="line2d_129" d="m38.554 129.92.067 1.405.067-3.658.067 2.22.067-1.204.134 3.135.134-.796.067 1.718.067-.708.067-1.925.067 5.418.067-7.711.067 3.5.067-2.449.067 1.134.067.002.067-2.247.134 4.9.134-4.638.067 4.743.067-4.215.067 1.359.067 1.134.067 3.216.2-6.778.068 2.827.067-.332.067-1.116.2 5.36.202-7.486.2 7.14.135-5.807.067-.137.067.098.067 6.448.067-3.555.134-4.132.067 6.01.067-4.97.067 1.812.067-.014.067 2.09.134-3.641.067 4.157.067-.482.066-4.214.067 1.883.067-1.62.201 4.813.134-5.89.201 4.708.067-4.434.067 3.282.067-1.295.067.382.067 3.636.134-3.13.067 3.522.067-4.845.067 2.41.134-.551.067-1.25.067 1.775.067-2.019.067.204.067 4.51.067-7.276.067 6.85.067-7.883.067 2.907.067.557.067-3.776.201 8.808.067-.048.067-3.838.067 1.457.134-3.67.134 1.44.067 2.696.067-4.254.067 5.61.067-5.449.067 2.141.067-1.34.067.032.067 2.109.134-3.175.134 1.244.067-.22.067-.223.067.156.067.613.067-.696.067.364.067.013.268 5.17.067-.745.134-6.767.067 2.789.067-.898.2 4 .068-1.407.066-5.108.067 8.03.134-5.605.067 2.936.067-.843.067.089.134-1.65.134 3.128.067-2.203.067 2.721.201-5.907.067 4.244.067-4.742.134 5.967.134-2.475.067 4.65.067-6.246.067.862.067 3.527.067-3.068.067 6.68.134-6.902.067 1.879.134-2.687.067 4.698.201-5.816.201 6.873.067-4.03.067 2.738.134-5.05.067 1.511.067-.526.067-3.72.134 7.383.067-2.891.067.792.067 2.522.067-.797.2-5.576.068.776.067 5.35.134-6.346.067.6.134 4.178.067-3.192.134 5.562.2-9.022.135 4.4.067-.294.067.39.067 1.95.067-5.137.133 4.38.067-.101.067-.417.067-1.748.134 6.338.067-9.096.067 3.541.067 1.48.067-1.266.134 1.511.067-2.744.067 1.83.067-1.371.067 4.164.067-3.414.134 3.665.067-4.836.067 4.085.067-3.143.067 2.036.067-3.093.067 4.654.067-7.041.067 2.568.067 1.853.067-3.659.067 1.745.134 2.67.134-3.108.067 5.883.067-1.867.067-5.503.067 5.233.067-18.718.134 19.586.067-2.246.067 2.594.134-4.787.134 4.181.134-5.869.067 9.652.067-4.623.067.067.067-2.255.067 1.824.067-1.238.067 4.114.067-7.313.067.36.134 5.982.067-.057.067-3.48.067 3.61.134-5.841.067.869.067 1.894.067-3.319.067 1.669.067 8.14.134-9.957.067 6.859.067-.473.2-7.489.134 4.924.067-3.537.067 3.94.067-3.254.067.542.134 4.517.067-5.114.067 1.165.067 3.526.067-4.99.067 3.62.067-3.951.067.559.134.975.067 6.47.067-6.844.067 8.104.067-.482.067-6.662.067 4.875.067-4.982.067 3.63.067-1.632.067-.615.067 1.876.067-1.188.067-3.254.067 4.574.134-3.848.067.298.067 2.297.067-2.782.067 7.434.067-7.603.067 2.07.134 2.754.2-4.183.068.113.067-3.206.067 3.907.067-1.023.067-2.94.2 8.557.135-3.788.067 4.53.067-2.48.067.97.134-1.607.067-5.74.067 2.566.067-.287.067-1.105.067.673.067.046.134 7.434.067-.185.134-5.79.067 4.035.067-3.926.067 2.035.067.025.066-4.88.134 5.858.134-6.209.067 1.533.067-.686.067-2.867.067 4.543.067-2.583.067-.386.201 5.967.134-5.457.134 6.07.201-5.999.067 4.847.067-.873.067-4.21.067 1.316.067 5.14.067-.43.067-4.685.067 4.867.067-4.312.067 1.34.067.943.268-6.014.067 3.421.067-4.157.201 6.944.067-2.136.067.859.067 2.59.067-5.972.067 3.845.067-1.423.067 5.768.134-8.057.067 2.784.067-.608.067-3.219.2 10.534.135-9.103.134 8.42.067-2.294.067 2.081.134-7.781.134 4.055.067-2.464.067 5.39.067-6.291.067 3.853.067-5.372.067 2.881.067.731.067 2.5.067-4.398.067 3.623.066-1.818.067 2.101.134-4.911.067 4.742.067-1.128.067-.847.067.3.067 1.748.067-5.86.067 1.535.067 2.238.067-.357.067-2.415.067.426.201 3.588.067-.273.067-3.003.067 3.433.067-2.098.067-4.697.067 7.556.067-6.074.067 4.945.067-2.236.067-2.291.067.63.067.47.067-1.332.134 3.18.067-1.302.067.322.067.322.067-2.105.067 7.345.067-7.364.067 2.136.067 2.283.067-4.187.067 8.7.067-10.444.067 8.926.067-6.76.067.874.067-1.187.134 1.805.268-4.862.067 5.06.067-.845.067.443.067-.964.067 1.275.067-3.075.067 3.983.067-2.506.067-.23.067-2.392.067 9.282.067-6.94.067 3.485.134-2.829.067 1.127.067-.406.067-2.474.134 3.327.067-1.628.067.264.066 2.435.067-1.697.067 2.776.134-4.893.067 7.666.201-8.565.201 4.813.067-5.132.067 2.244.067-.389.067 2.024.067-.598.067 1.033.134-3.615.134 2.86.067-.302.067.574.067-2.98.067 3.72.067-2.585.067 2.035.134-6.009.201 7.927.201-6.05.067 3.336.067-1.366.067-.831.067 1.848.2-3.102.135 4.652.134-.417.2-4.241.068 4.111.067-2.253.067-1.954.067 1.169.2 3.202.068.924.067-3.36.134 3.061.067-4.237.067.604.067.32.067 3.345.067-4.02.067.144.067 2.307.067-.396.067-.365.067 2 .067-2.103.067 5.965.067-8.109.067.323.066-.024.067-.26.134 2.203.067 6.16.134-8.89.067 3.035.067-2.325.201 3.87.201-4.844.067 2.947.067-1.824.067-2.135.134 4.376.067-2.053.134 2.728.134-4.604.067.992.067-.249.067 4.446.067-1.466.067-3.483.067 3.26.067-3.506.067 3.794.067-3.93.201 6.813.134-7.12.067.917.067 5.232.067-1.911.134-3.836.2 3.744.068-.754.067-2.076.067.753.2 1.259.068.454.067-2.53.067 1.66.134-2.99.067 5.145.067-2.15.067 1.307.067-.296.067-1.77.067 1.063.067-.377.134 1.052.067-1.072.067 2.55.134-4.23.134 1.343.134-4.024.2 4.617.067-1.912.067.737.067-.38.067-1.293.067 4.688.067-2.938.067-2.408.067 3.066.067-.852.067-3.547.067 1.235.134 4.054.067-2.191.067 1.065.201-2.825.067 1.32.067-2.113.067 4.178.067-.882.067-.46.067-2.657.067.897.067 3.29.134-4.077.067 2.646.067-1.979.067 1.743.067-1.035.067-.886.067 1.477.067-1.518.134 4.085.067-3.433.067.873.134-.93.067 2.098.067-.926.067-1.778.067 3.246.067-4.7.067 4.635.067-1.59.134 3.56.134-4.752.134.972.067-1.529.067 2.175.067-.363.067-.669.067-2.085.134 3.459.067-3.068.067.253.134 3.504.067-2.184.067 1.202.067 1.483.067-.999.067 1.336.134-5.127.134 5.143.066-3.274.067.437.067-1.037.067 5.388.067-4.967.067.7.067 1.2.067-1.132.067-11.638.134 12.156.134-.797.067.25.067-3.167.067.553.134 3.228.067-.465.067-1.284.067 5.336.067-3.355.067-1.947.067 1.633.067-1.829.067 1.838.268-3.805.067 2.41.067-4.897.067 4.92.067-1.746.067 2.568.067-3.78.067 2.456.067 1.588.067-4.358.067 1.286.067 2.759.067-3.229.067.538.067 1.76.067-.327.067-1.677.067.962.067 1.245.067-1.378.067.402.067-.135.067-3.885.067 2.555.067 4.643.067-.888.067-5.505.067 3.618.067.05.2-2.117.068-.82.134 4.836.067-3.322.067 1.11.134 1.642.067-5.044.067 2.54.067-2.078.067 1.71.067-4.421.067 4.418.067-.016.066-.478.134 1.394.067-.837.067 5.096.067-5.253.067 4.443.067-7.14.067 1.96.067-.264.067 3.194.067-3.597.067.214.201 2.133.067-.203.067-3.461.067 4.893.067-2.471.067-2.976.067 3.268.067-.73.134.953.067-2.873.067 1.572.067 1.087.134-6.062.067 9.029.067-.368.134-5.751.067 2.784.201-2.795.067-.657.067 5.187.067-4.504.067 1.857.134-2.812.067 7.39.134-7.828.134 2.577.134-3.674.067 7.727.067-3.475.067-.907.067 4.133.067-.188.134-6.551.067.968.067-4.617.067 8.282.067-3.67.067 4.975.134-4.216.134-1.206.067.165.134 10.053.134-11.415.067.542.067-.896.2 4.55.067-3.366.067 6.44.201-9.547.134 5.225.067-4.253.067 1.726.201-3.179.067.996.067 3.777.067-.728.067.088.067 3.67.067-5.522.067.632.067-1.856.067 10.45.134-11.433.067 5.458.067-.4.067-.506.067 5.264.134-7.975.134 4.57.067-4.31.067.505.067.956.067-1.564.067 5.656.067-6.46.067 10.41.067-6.71.067-2.169.067 2.266.067-2.514.067 3.829.067-6.063.067 4.417.067-4.324.067 5.477.067-4.107.134 6.424.2-6.433.068 1.964.067 5.61.067-5.471.067 3.76.067-2.046.067 1.133.067-5.622.2 10.146.135-11.119.067.406.067 1.196.067 4.976.2-7.76.202 6.663.133-6.056.201 4.962.067-5.052.067 1.933.067-3.126.067 9.008.067-6.507.067 5.9.134-10.28.067 9.15.067-.198.067-7.74.067 2.701.067 2.671.067-4.827.067 5.096.067-5.362.067 8.538.067-3.436.067-1.793.067-6.09.067 5.972.067-2.332.067 2.063.134-5.55.067 13.224.067-5.334.067-3.96.067.45.067 9.11.201-13.585.201 3.844.067 2.996.067-5.272.067 4.169.067-4.04.2 6.65.068-.47.067-6.963.067 3.421.067-2.212.2 5.65.135-7.016.067 4.683.067-4.9.067 1.165.2 4.247.068-.424.067-2.268.067 1.677.067 4.524.067-5.758.067 2.948.2-4.3.068 4.68.067-7.637.067 3.553.067-4.747.2 9.38.067-7.992.067 3.49.067-4.449.067 1.623.067 7.336.067-4.604.067-3.534.067.245.067 3.605.067-2.605.067.422.201 3.405.134-7.73.067 7.176.067-1.463.134-2.449.067 2.891.201-6.164.067 7.539.067-5.874.067.254.134 3.026.067-5.116.067 2.057.134 3.738.067-5.778.067 4.487.067-4.498.067 4.638.067-4.706.067 8.398.134-6.437.067 1.364.067-.015.067-1.282.134 5.981.067-4.257.067.338.067.065.134-6.676.2 8.595.068-5.857.067 1.218.067.732.134-5.886.067 1.33.067 3.56.067-2.467.134 2.293.067-2.337.2 3.64.135-5.096.134 3.55.133-2.783.067 2.75.067-1.043.067.983.134-4.628.067 4.165.067-3.977.067 6.352.067-2.888.201-3.196.067 2.629.067-3.058.134 2.702.201-3.138.067 2.26.067-.038.067-2.661.067 4.607.201-6.908.201 6.868.134-3.92.067.407.201-2.524.067.224.201-2.382.067 4.15.067-2.497.067 1.511.134-3.985.2 4.056.068-3.613.067 2.128.134-.586.067-2.617.067 1.74.067-2.119.067 2.331.2-2.884.068 2.065.067-2.372.067 2.445.2-3.649.068 3.414.268-7.56.134 4.354.067-2.14.067 2.515.067-4.473.133 3.544.067.137.067-3.337.067 2.417.201-3.933.067.417.067-1.63.067 4.328.067-4.946.067 3.956.067-6.01.067 9.382.067-9.778.067 7.2.067-9.259.067 10.73.067-11.413.067 8.975.067-10.51.067 12.043.067-14.184.067 9.71.067-10.752.067 12.6.067-14.322.067 8.634.067-8.21.067 4.756.067-6.66.067 4.458.067-6.508.067 1.158.067 1.189.067-.864.134-6.762.067 5.646.201-11.062.067 6.724.067-10.854.067 14.56.2-23.704.068 24.985.2-38.352.068 16.963.134-38.598.067 5.994.067 32.604.067-16.963.2 38.352.068-24.985.067 16.142.067-8.968.067 16.53.067-14.56.067 10.854.067-6.724.2 11.062.068-5.646.067 3.472.134 4.154.133-2.347.067 6.508.067-4.457.067 6.66.067-4.758.067 8.211.067-8.634.067 14.321.067-12.6.067 10.753.067-9.71.067 14.184.067-12.043.067 10.51.067-8.975.067 11.413.067-10.73.067 9.26.067-7.2.067 9.777.067-9.381.067 6.009.067-3.956.067 4.946.067-4.328.067 1.63.067-.417.201 3.933.067-2.417.067 3.337.067-.137.067-.026.067-3.518.067 4.473.067-2.515.067 2.14.134-4.354.2 5.119.068 2.44.067-3.413.067.829.067.245.067 2.575.067-2.445.067 2.372.067-2.065.067.371.067.366.067 2.147.067-2.33.067 2.118.067-1.74.134 2.724.067.48.067-2.129.067 3.613.067-1.683.067.155.067-2.528.134 3.985.067-1.511.067 2.497.067-4.15.067.24.134 2.142.067-.224.2 2.524.067-.407.134 3.92.201-6.868.201 6.908.067-4.607.067 2.661.067.037.067-2.26.067 2.484.067-.945.067 1.6.067-.254.067-2.448.067 3.058.067-2.63.067 1.489.067-.424.134 5.02.067-6.352.067 3.977.067-4.165.067 2.54.067 2.088.067-.983.067 1.043.067-2.75.067.517.067 2.267.067-1.2.067-2.35.134 5.096.2-3.64.068 2.336.067-.153.067-2.14.067 2.468.134-4.891.134 5.886.067-.732.067-1.218.067 5.857.067-1.923.134-6.672.335 10.53.134-5.98.067 1.281.067.015.067-1.364.067.514.067 5.923.067-8.398.067 4.706.067-4.638.067 4.498.067-4.487.067 5.778.067-2.21.133-3.585.067 5.116.067-2.02.134-1.26.067 5.874.067-7.539.067 1.457.134 4.707.067-2.89.067.585.134 3.326.067-7.175.067 3.288.067 4.44.067-2.123.067.226.134-1.93.067 2.606.134-3.85.134 8.138.134-8.959.067 4.45.067-3.491.067 7.992.067-.744.134-8.636.134 1.194.067 7.637.067-4.68.201 4.3.067-2.948.067 5.758.134-6.2.134 2.691.268-5.411.067 4.9.067-4.684.067 2.785.067 4.231.2-5.65.068 2.212.067-3.42.134 7.432.067-.077.134-6.573.067 4.04.067-4.169.067 5.272.067-2.996.067-.194.134-3.65.2 13.585.134-9.56.134 9.294.067-13.224.067 2.849.067 2.701.067-2.063.067 2.332.067-5.972.201 11.32.067-8.54.067 5.363.067-5.096.067 4.827.067-2.67.067-2.702.134 7.937.067-9.15.067 5.509.067 4.773.067-5.9.067 6.506.067-9.008.067 3.126.067-1.933.067 5.052.067-2.58.067.867.067-3.25.134 6.057.201-6.663.201 7.76.134-6.172.067-.406.134 11.12.067-3.528.067-.99.067-5.629.067 5.622.067-1.133.067 2.046.067-3.76.067 5.47.134-7.573.067.71.134 5.723.134-6.424.067 4.107.067-5.477.067 4.324.067-4.417.067 6.063.067-3.829.067 2.514.067-2.266.067 2.17.067 6.71.067-10.412.067 6.46.067-5.655.067 1.564.133-1.46.067 4.31.134-4.571.067 1.08.067 6.895.067-5.264.067.506.067.4.067-5.458.067 2.5.067 8.934.067-10.45.067 1.855.067-.632.067 5.521.134-3.757.067.728.134-4.773.201 3.179.067-1.726.067 4.253.067-1.891.067-3.334.201 9.547.067-6.44.067 3.366.134-1.814.067-2.736.067.896.067-.542.067.64.067 10.775.067-6.767.134-3.45.2 1.44.068 3.981.067-4.975.067 3.67.067-8.282.067 4.617.067-.968.2 6.739.068-4.133.067.907.067 3.475.067-7.727.067 2.161.067 1.513.067-.943.067-1.634.134 7.828.067-7.39.067.051.067 2.761.067-1.857.067 4.504.067-5.187.067.657.2 2.795.067-2.784.201 6.119.067-9.029.067 2.262.067 3.8.067-1.087.067-1.572.067 2.873.067-.578.067-.376.067.731.067-3.268.134 5.447.067-4.893.134 3.664.201-2.133.067-.214.067 3.597.201-4.89.067 7.14.067-4.443.067 5.253.067-5.096.067.837.134-1.394.134.494.067-4.418.067 4.42.067-1.71.067 2.079.067-2.54.067 5.044.067-.126.134-2.626.067 3.322.067-.804.067-4.032.067.82.2 2.116.068-.049.067-3.618.134 6.393.134-7.198.134 4.02.067-.402.067 1.378.134-2.207.134 2.004.134-2.298.067 3.229.134-4.045.067 4.358.067-1.588.067-2.455.067 3.779.067-2.568.066 1.746.067-4.92.067 4.898.067-2.41.268 3.804.067-1.838.067 1.829.067-1.633.134 5.302.067-5.336.067 1.284.067.465.067-.084.134-3.697.067 3.166.067-.25.067.03.067.768.067-2.865.067-9.29.134 12.769.134-1.9.067 4.967.067-5.388.067 1.037.067-.437.067 3.274.067-.406.067-4.737.067 1.086.067 4.04.067-1.335.067 1 .134-2.686.067 2.184.067-1.152.134-2.605.067 3.068.067-.767.067-2.692.2 3.117.068-2.175.067 1.53.067-.167.067-.806.067 1.02.067 3.732.067-.762.2-5.843.068 4.7.067-3.246.067 1.778.067.926.067-2.098.067.524.067.406.067-.873.067 3.433.067-1.272.067-2.813.067 1.518.067-1.477.067.886.066 1.035.067-1.743.067 1.979.067-2.646.067.194.067 3.884.134-4.188.201 4 .067-4.179.067 2.114.067-1.32.067 2.113.067-.817.067 1.528.067-1.065.067 2.191.067-1.33.134-3.96.134 4.4.067-3.066.134 5.346.067-4.688.067 1.293.067.38.067-.737.067 1.912.067-.757.134-3.86.067 2.137.067 1.887.067-.411.067-.933.067.294.067 3.937.067-2.55.067 1.072.067-.48.2-1.258.135 2.066.067-1.307.067 2.15.067-5.145.067 1.973.067 1.017.067-1.66.067 2.53.067-.454.2-1.26.068-.752.134 2.83.2-3.744.202 5.747.134-6.15.134 7.12.2-6.813.067 3.93.067-3.793.067 3.507.067-3.261.134 4.949.067-4.446.067.249.067-.992.134 4.604.067-.182.067-2.546.067 2.053.134-4.376.134 3.96.067-2.948.201 4.843.201-3.87.067 2.326.067-3.034.134 8.89.201-8.364.134.284.067-.323.067 8.109.067-5.965.067 2.102.067-2 .067.366.067.396.134-2.45.067 4.019.134-3.665.067-.604.067 4.237.067-.79.067-2.272.067 3.361.067-.924.2-3.202.068-1.17.134 4.208.067-4.111.067 2.64.067.233.067 1.368.067-1.364.067 1.781.134-4.652.067.762.134 2.34.067-1.848.067.83.067 1.367.067-3.335.2 6.05.067-6.896.067.917.067-1.949.268 6.559.067-3.72.067 2.98.067-.574.067.302.067-.141.067-2.72.134 3.616.201-2.459.067.389.067-2.244.067 5.132.067-.814.134-4 .067 1.685.067 1.056.067 5.825.067-7.666.067 1.678.067 3.215.067-2.776.067 1.697.134-2.699.067 1.628.134-3.327.134 2.88.067-1.127.134 2.829.067-3.486.067 6.941.067-9.282.067 2.393.067.229.067 2.506.067-3.983.067 3.075.067-1.275.2 1.366.068-5.06.067 2.435.2 2.427.068-.229.067-1.576.067 1.187.067-.874.067 6.76.067-8.926.067 10.444.067-8.7.067 4.187.134-4.419.067 7.364.067-7.345.067 2.105.134-.644.066 1.302.067-.552.067-2.628.067 1.332.134-1.1.134 4.527.067-4.945.067 6.074.067-7.556.067 4.697.067 2.098.067-3.433.134 3.276.268-4.014.134 2.772.134-3.773.067 5.86.067-1.747.067-.301.134 1.975.067-4.742.067.221.067 4.69.067-2.1.067 1.817.067-3.623.067 4.398.067-2.5.067-.73.067-2.882.067 5.372.067-3.853.067 6.29.067-5.39.067 2.465.134-4.055.067 2.083.067 5.698.067-2.08.067 2.293.134-8.42.067 2.579.067 6.524.067-8.313.067 1.15.067-3.37.134 3.826.067-2.784.134 8.057.2-8.19.068 5.972.067-2.59.067-.86.067 2.137.2-6.944.068 4.157.067-3.421.134 4.82.066-.278.067 1.472.067-.944.067-1.34.067 4.313.067-4.867.134 5.115.134-6.455.134 5.082.067-4.847.067 1.024.067 1.253.067 3.722.067-1.977.067-4.093.067 2.441.067 3.016.201-5.967.067.386.067 2.583.067-4.543.067 2.867.067.686.067-1.533.134 6.21.134-5.858.067 4.879.067-.025.067-2.035.067 3.926.067-4.036.067.525.134 5.45.268-8.152.134 1.392.067-2.566.134 5.91.067 1.436.067-.969.067 2.48.067-4.53.067 1.658.067 2.13.2-8.557.135 3.963.067-3.907.067 3.206.067-.113.2 4.183.202-4.824.067 7.603.067-7.434.067 2.782.134-2.595.066.308.067 3.54.067-4.574.134 4.442.067-1.876.067.615.067 1.632.067-3.63.067 4.982.067-4.875.134 7.144.067-8.104.067 6.843.134-6.958.134-1.045.067 3.95.067-3.62.067 4.991.134-4.691.067 5.114.067-.807.134-4.252.067 3.254.067-3.94.067 3.537.067-1.862.067-3.062.201 7.489.067.473.067-6.859.067 2.666.067 7.292.134-9.81.067 3.319.067-1.894.067-.87.134 5.842.067-3.61.134 3.537.067-.99.134-5.352.067 7.313.067-4.114.067 1.238.067-1.824.2 6.81.068-9.65.067 2.123.067 3.745.067-1.976.067-2.205.134 4.787.067-2.594.067 2.246.067-1.64.067-17.946.067 18.718.067-5.233.134 7.37.067-5.883.066 1.64.067 1.467.067-.606.134-3.808.067 3.659.067-1.853.067-2.568.067 7.04.067-4.653.201 4.2.067-4.085.067 4.836.067-.25.067-3.415.067 3.414.067-4.164.067 1.37.067-1.83.067 2.745.067-.279.067-1.232.067 1.267.134-5.022.067 9.096.067-.957.067-5.381.067 1.748.134.518.067-.601.067-3.779.067 5.136.067-1.949.067-.39.067.294.067-.11.067-4.29.067 6.906.067-2.371.067 4.487.134-5.562.067 3.192.067-1.467.134-3.311.067 1.635.067 4.711.134-6.126.2 5.576.068.797.134-3.314.067 2.89.134-7.382.134 4.246.067-1.51.067.732.067 4.317.067-2.738.067 4.03.2-6.873.202 5.816.066-4.698.067.396.067 2.29.067-1.878.067.567.067 6.335.067-6.68.067 3.068.134-4.389.067 6.245.067-4.65.067.556.067 1.92.067-.13.067-5.837.067 4.742.067-4.244.067 4.648.067-2.344.067 3.603.067-2.721.067 2.203.134-3.129.268 2.405.067-2.936.067.015.067 5.59.067-8.03.067 5.108.067 1.406.201-4 .067.899.067-2.789.2 7.511.068-2.762.067.045.268-2.829.067.696.134-.769.134.443.134-1.244.067.71.067 2.465.134-2.141.067 1.34.067-2.14.067 5.449.067-5.611.067 4.254.067-2.696.134-1.44.335 6.099.134-2.673.067-6.135.066 3.776.067-.557.067-2.907.067 7.883.067-6.85.067 7.277.067-4.511.067-.204.067 2.02.067-1.775.201 1.8.067-2.41.067 4.845.067-3.521.067.305.067 2.824.134-4.018.067 1.295.067-3.282.067 4.434.067-2.333.134-2.375.067.5.067 5.39.067-2.654.067.847.067-3.006.067 1.62.067-1.883.134 4.696.067-4.157.067 1.116.067 2.524.201-3.887.067 4.97.067-6.01.067 1.604.134 6.083.134-6.546.134.378.067 5.566.067-5.463.067 1.164.067-2.841.067.274.134 7.212.2-5.36.135 1.448.067-2.827.2 6.778.202-5.71.067 4.216.067-4.743.067.466.067 4.173.134-4.9.133 2.244.067-1.134.067 2.449.067-3.5.067 7.71.067-5.417.067 1.925.067.708.067-1.718.067.14.067.656.067-.788.201-3.363.067 3.658h0" clip-path="url(#pe784d9ec36)" style="fill:none;stroke:#000;stroke-linecap:square"/><path id="patch_3" d="M30.184 142.2V3.6" style="fill:none;stroke:#000;stroke-width:.5;stroke-linejoin:miter;stroke-linecap:square"/><path id="patch_4" d="M214.324 142.2V3.6" style="fill:none;stroke:#000;stroke-width:.5;stroke-linejoin:miter;stroke-linecap:square"/><path id="patch_5" d="M30.184 142.2h184.14" style="fill:none;stroke:#000;stroke-width:.5;stroke-linejoin:miter;stroke-linecap:square"/><path id="patch_6" d="M30.184 3.6h184.14" style="fill:none;stroke:#000;stroke-width:.5;stroke-linejoin:miter;stroke-linecap:square"/></g></g><defs><clipPath id="pe784d9ec36"><path d="M30.184 3.6h184.14v138.6H30.184z"/></clipPath></defs></svg>