<svg xmlns="http://www.w3.org/2000/svg" xmlns:xlink="http://www.w3.org/1999/xlink" width="290.566" height="226.401" viewBox="0 0 217.924 169.801"><defs><style>*{stroke-linejoin:round;stroke-linecap:butt}</style></defs><g id="figure_1"><path id="patch_1" d="M0 169.8h217.924V0H0z" style="fill:none"/><g id="axes_1"><path id="patch_2" d="M30.184 144.443h184.14V5.843H30.184z" style="fill:none"/><g id="matplotlib.axis_1"><g id="xtick_1"><g id="line2d_1"><defs><path id="maa30cef37c" d="M0 0v-3" style="stroke:#000;stroke-width:.5"/></defs><use xlink:href="#maa30cef37c" x="55.301" y="144.443" style="stroke:#000;stroke-width:.5"/></g><g id="line2d_2"><defs><path id="m4c317ce8f2" d="M0 0v3" style="stroke:#000;stroke-width:.5"/></defs><use xlink:href="#m4c317ce8f2" x="55.301" y="5.843" style="stroke:#000;stroke-width:.5"/></g><g id="text_1" transform="matrix(.08 0 0 -.08 47.116 153.346)"><defs><path id="CMSY10-0" d="M4218 1472c108 0 224 0 224 128s-116 128-224 128H755c-109 0-224 0-224-128s115-128 224-128z" transform="scale(.01563)"/><path id="NimbusRomNo9L-Regu-30" d="M1626 4352c-352 0-621-108-858-332-371-359-614-1095-614-1844 0-697 211-1446 512-1804C902 90 1229-64 1600-64c326 0 602 109 832 333 371 352 614 1095 614 1869 0 1312-582 2214-1420 2214m-20-166c538 0 826-723 826-2061 0-1337-282-2022-832-2022S768 788 768 2119c0 1357 288 2067 838 2067" transform="scale(.01563)"/><path id="CMMI10-3a" d="M1229 338c0 184-154 337-339 337-186 0-340-153-340-337C550 153 704 0 890 0c185 0 339 153 339 338" transform="scale(.01563)"/><path id="NimbusRomNo9L-Regu-34" d="M3021 1497h-653v2855h-282L77 1497v-409h1798V32h493v1056h653zm-1152 0H333l1536 2201z" transform="scale(.01563)"/></defs><use xlink:href="#CMSY10-0" transform="scale(.99626)"/><use xlink:href="#NimbusRomNo9L-Regu-30" transform="matrix(.99626 0 0 .99626 77.409 0)"/><use xlink:href="#CMMI10-3a" transform="matrix(.99626 0 0 .99626 127.222 0)"/><use xlink:href="#NimbusRomNo9L-Regu-34" transform="matrix(.99626 0 0 .99626 154.817 0)"/></g></g><g id="xtick_2"><use xlink:href="#maa30cef37c" id="line2d_3" x="88.794" y="144.443" style="stroke:#000;stroke-width:.5"/><use xlink:href="#m4c317ce8f2" id="line2d_4" x="88.794" y="5.843" style="stroke:#000;stroke-width:.5"/><g id="text_2" transform="matrix(.08 0 0 -.08 80.61 153.346)"><defs><path id="NimbusRomNo9L-Regu-32" d="m3040 875-83 32c-237-363-320-421-608-421H819l1075 1123c570 593 820 1078 820 1576 0 638-519 1128-1184 1128-352 0-685-140-922-395-205-218-301-422-410-875l135-32c256 625 486 829 928 829 537 0 902-364 902-900 0-497-294-1090-832-1658L192 77V0h2496z" transform="scale(.01563)"/></defs><use xlink:href="#CMSY10-0" transform="scale(.99626)"/><use xlink:href="#NimbusRomNo9L-Regu-30" transform="matrix(.99626 0 0 .99626 77.409 0)"/><use xlink:href="#CMMI10-3a" transform="matrix(.99626 0 0 .99626 127.222 0)"/><use xlink:href="#NimbusRomNo9L-Regu-32" transform="matrix(.99626 0 0 .99626 154.817 0)"/></g></g><g id="xtick_3"><use xlink:href="#maa30cef37c" id="line2d_5" x="122.288" y="144.443" style="stroke:#000;stroke-width:.5"/><use xlink:href="#m4c317ce8f2" id="line2d_6" x="122.288" y="5.843" style="stroke:#000;stroke-width:.5"/><g id="text_3" transform="matrix(.08 0 0 -.08 117.199 153.346)"><use xlink:href="#NimbusRomNo9L-Regu-30" transform="scale(.99626)"/><use xlink:href="#CMMI10-3a" transform="matrix(.99626 0 0 .99626 49.813 0)"/><use xlink:href="#NimbusRomNo9L-Regu-30" transform="matrix(.99626 0 0 .99626 77.409 0)"/></g></g><g id="xtick_4"><use xlink:href="#maa30cef37c" id="line2d_7" x="155.781" y="144.443" style="stroke:#000;stroke-width:.5"/><use xlink:href="#m4c317ce8f2" id="line2d_8" x="155.781" y="5.843" style="stroke:#000;stroke-width:.5"/><g id="text_4" transform="matrix(.08 0 0 -.08 150.692 153.346)"><use xlink:href="#NimbusRomNo9L-Regu-30" transform="scale(.99626)"/><use xlink:href="#CMMI10-3a" transform="matrix(.99626 0 0 .99626 49.813 0)"/><use xlink:href="#NimbusRomNo9L-Regu-32" transform="matrix(.99626 0 0 .99626 77.409 0)"/></g></g><g id="xtick_5"><use xlink:href="#maa30cef37c" id="line2d_9" x="189.275" y="144.443" style="stroke:#000;stroke-width:.5"/><use xlink:href="#m4c317ce8f2" id="line2d_10" x="189.275" y="5.843" style="stroke:#000;stroke-width:.5"/><g id="text_5" transform="matrix(.08 0 0 -.08 184.186 153.346)"><use xlink:href="#NimbusRomNo9L-Regu-30" transform="scale(.99626)"/><use xlink:href="#CMMI10-3a" transform="matrix(.99626 0 0 .99626 49.813 0)"/><use xlink:href="#NimbusRomNo9L-Regu-34" transform="matrix(.99626 0 0 .99626 77.409 0)"/></g></g><g id="xtick_6"><g id="line2d_11"><defs><path id="m3070e41a92" d="M0 0v-1.5" style="stroke:#000;stroke-width:.5"/></defs><use xlink:href="#m3070e41a92" x="38.554" y="144.443" style="stroke:#000;stroke-width:.5"/></g><g id="line2d_12"><defs><path id="m02fa75d1a6" d="M0 0v1.5" style="stroke:#000;stroke-width:.5"/></defs><use xlink:href="#m02fa75d1a6" x="38.554" y="5.843" style="stroke:#000;stroke-width:.5"/></g></g><g id="xtick_7"><use xlink:href="#m3070e41a92" id="line2d_13" x="46.928" y="144.443" style="stroke:#000;stroke-width:.5"/><use xlink:href="#m02fa75d1a6" id="line2d_14" x="46.928" y="5.843" style="stroke:#000;stroke-width:.5"/></g><g id="xtick_8"><use xlink:href="#m3070e41a92" id="line2d_15" x="63.674" y="144.443" style="stroke:#000;stroke-width:.5"/><use xlink:href="#m02fa75d1a6" id="line2d_16" x="63.674" y="5.843" style="stroke:#000;stroke-width:.5"/></g><g id="xtick_9"><use xlink:href="#m3070e41a92" id="line2d_17" x="72.048" y="144.443" style="stroke:#000;stroke-width:.5"/><use xlink:href="#m02fa75d1a6" id="line2d_18" x="72.048" y="5.843" style="stroke:#000;stroke-width:.5"/></g><g id="xtick_10"><use xlink:href="#m3070e41a92" id="line2d_19" x="80.421" y="144.443" style="stroke:#000;stroke-width:.5"/><use xlink:href="#m02fa75d1a6" id="line2d_20" x="80.421" y="5.843" style="stroke:#000;stroke-width:.5"/></g><g id="xtick_11"><use xlink:href="#m3070e41a92" id="line2d_21" x="97.168" y="144.443" style="stroke:#000;stroke-width:.5"/><use xlink:href="#m02fa75d1a6" id="line2d_22" x="97.168" y="5.843" style="stroke:#000;stroke-width:.5"/></g><g id="xtick_12"><use xlink:href="#m3070e41a92" id="line2d_23" x="105.541" y="144.443" style="stroke:#000;stroke-width:.5"/><use xlink:href="#m02fa75d1a6" id="line2d_24" x="105.541" y="5.843" style="stroke:#000;stroke-width:.5"/></g><g id="xtick_13"><use xlink:href="#m3070e41a92" id="line2d_25" x="113.914" y="144.443" style="stroke:#000;stroke-width:.5"/><use xlink:href="#m02fa75d1a6" id="line2d_26" x="113.914" y="5.843" style="stroke:#000;stroke-width:.5"/></g><g id="xtick_14"><use xlink:href="#m3070e41a92" id="line2d_27" x="130.661" y="144.443" style="stroke:#000;stroke-width:.5"/><use xlink:href="#m02fa75d1a6" id="line2d_28" x="130.661" y="5.843" style="stroke:#000;stroke-width:.5"/></g><g id="xtick_15"><use xlink:href="#m3070e41a92" id="line2d_29" x="139.034" y="144.443" style="stroke:#000;stroke-width:.5"/><use xlink:href="#m02fa75d1a6" id="line2d_30" x="139.034" y="5.843" style="stroke:#000;stroke-width:.5"/></g><g id="xtick_16"><use xlink:href="#m3070e41a92" id="line2d_31" x="147.408" y="144.443" style="stroke:#000;stroke-width:.5"/><use xlink:href="#m02fa75d1a6" id="line2d_32" x="147.408" y="5.843" style="stroke:#000;stroke-width:.5"/></g><g id="xtick_17"><use xlink:href="#m3070e41a92" id="line2d_33" x="164.155" y="144.443" style="stroke:#000;stroke-width:.5"/><use xlink:href="#m02fa75d1a6" id="line2d_34" x="164.155" y="5.843" style="stroke:#000;stroke-width:.5"/></g><g id="xtick_18"><use xlink:href="#m3070e41a92" id="line2d_35" x="172.528" y="144.443" style="stroke:#000;stroke-width:.5"/><use xlink:href="#m02fa75d1a6" id="line2d_36" x="172.528" y="5.843" style="stroke:#000;stroke-width:.5"/></g><g id="xtick_19"><use xlink:href="#m3070e41a92" id="line2d_37" x="180.901" y="144.443" style="stroke:#000;stroke-width:.5"/><use xlink:href="#m02fa75d1a6" id="line2d_38" x="180.901" y="5.843" style="stroke:#000;stroke-width:.5"/></g><g id="xtick_20"><use xlink:href="#m3070e41a92" id="line2d_39" x="197.648" y="144.443" style="stroke:#000;stroke-width:.5"/><use xlink:href="#m02fa75d1a6" id="line2d_40" x="197.648" y="5.843" style="stroke:#000;stroke-width:.5"/></g><g id="xtick_21"><use xlink:href="#m3070e41a92" id="line2d_41" x="206.021" y="144.443" style="stroke:#000;stroke-width:.5"/><use xlink:href="#m02fa75d1a6" id="line2d_42" x="206.021" y="5.843" style="stroke:#000;stroke-width:.5"/></g><g id="text_6" transform="matrix(.08 0 0 -.08 109.753 164.475)"><defs><path id="NimbusRomNo9L-Regu-66" d="M1978 2880h-788v731c0 367 122 562 365 562 135 0 224-63 339-246 103-164 180-227 288-227 148 0 269 114 269 259 0 229-281 393-665 393-397 0-736-171-903-461-166-278-217-506-224-1011H134v-205h525V656c0-471-70-547-531-547V0h1664v109c-525 0-595 71-595 552v2014h781z" transform="scale(.01563)"/><path id="NimbusRomNo9L-Regu-28" d="M1888 4326c-474-307-666-473-902-768-455-556-679-1196-679-1945 0-813 237-1440 800-2093 263-307 429-448 762-653l77 103c-512 403-692 627-864 1107-154 429-224 915-224 1555 0 672 83 1197 256 1594 179 396 371 627 832 998z" transform="scale(.01563)"/><path id="NimbusRomNo9L-Regu-47" d="M4538 2304H2906v-128c275 0 352-19 428-71 96-58 135-207 135-484V574c0-207-391-382-851-382-1044 0-1684 730-1684 1920 0 602 180 1184 461 1498 282 314 679 486 1114 486 358 0 672-121 921-352 192-179 295-352 455-742h147l-51 1350h-141c-38-121-154-211-288-211-64 0-166 19-282 64-288 96-582 147-870 147-1280 0-2195-940-2195-2246 0-627 173-1107 531-1485C1165 180 1779-64 2483-64c551 0 1351 224 1607 449v1309c0 379 76 463 448 495z" transform="scale(.01563)"/><path id="NimbusRomNo9L-Regu-48" d="M1338 2304v1229c0 457 70 526 563 571v120H122v-120c492-45 563-115 563-577V749c0-539-64-615-563-615V0h1779v121c-480 38-563 121-563 578v1323h1939V757c0-546-64-623-563-623V0h1779v121c-480 38-563 121-563 575v2833c0 460 70 530 563 575v120H2714v-120c492-45 563-114 563-571V2304z" transform="scale(.01563)"/><path id="NimbusRomNo9L-Regu-7a" d="m2675 864-115 26c-64-320-102-423-186-532-89-108-307-166-633-166H858l1721 2592v96H358l-19-755h115c58 467 154 563 538 563h883L173 96V0h2413z" transform="scale(.01563)"/><path id="NimbusRomNo9L-Regu-29" d="M243-1133c474 307 666 474 903 768 454 557 678 1197 678 1946 0 819-237 1440-800 2093-262 307-429 448-762 652l-76-102c512-403 684-627 864-1107 153-429 224-915 224-1555 0-666-84-1197-256-1588-180-403-372-633-832-1004z" transform="scale(.01563)"/></defs><use xlink:href="#NimbusRomNo9L-Regu-66" transform="scale(.99626)"/><use xlink:href="#NimbusRomNo9L-Regu-28" transform="matrix(.99626 0 0 .99626 58.082 0)"/><use xlink:href="#NimbusRomNo9L-Regu-47" transform="matrix(.99626 0 0 .99626 91.257 0)"/><use xlink:href="#NimbusRomNo9L-Regu-48" transform="matrix(.99626 0 0 .99626 163.187 0)"/><use xlink:href="#NimbusRomNo9L-Regu-7a" transform="matrix(.99626 0 0 .99626 235.117 0)"/><use xlink:href="#NimbusRomNo9L-Regu-29" transform="matrix(.99626 0 0 .99626 279.35 0)"/></g></g><g id="matplotlib.axis_2"><g id="ytick_1"><g id="line2d_43"><defs><path id="m5ee295716d" d="M0 0h3" style="stroke:#000;stroke-width:.5"/></defs><use xlink:href="#m5ee295716d" x="30.184" y="139.268" style="stroke:#000;stroke-width:.5"/></g><g id="line2d_44"><defs><path id="mf707360af8" d="M0 0h-3" style="stroke:#000;stroke-width:.5"/></defs><use xlink:href="#mf707360af8" x="214.324" y="139.268" style="stroke:#000;stroke-width:.5"/></g><use xlink:href="#NimbusRomNo9L-Regu-30" id="text_7" transform="matrix(.0797 0 0 -.0797 22.7 141.97)"/></g><g id="ytick_2"><use xlink:href="#m5ee295716d" id="line2d_45" x="30.184" y="120.273" style="stroke:#000;stroke-width:.5"/><use xlink:href="#mf707360af8" id="line2d_46" x="214.324" y="120.273" style="stroke:#000;stroke-width:.5"/><g id="text_8" transform="matrix(.08 0 0 -.08 18.714 122.975)"><defs><path id="NimbusRomNo9L-Regu-35" d="M1158 3776h1255c102 0 128 13 147 58l243 569-57 45c-96-134-160-166-295-166H1114L416 2759c-6-13-6-19-6-32 0-32 25-51 76-51 205 0 461-45 724-129 736-238 1075-637 1075-1273 0-618-391-1101-890-1101-128 0-237 45-429 187-204 148-352 212-486 212-186 0-275-77-275-238C205 90 506-64 986-64c537 0 998 174 1318 502 294 290 429 656 429 1145 0 463-122 759-442 1080-281 284-646 431-1401 566z" transform="scale(.01563)"/></defs><use xlink:href="#NimbusRomNo9L-Regu-32" transform="scale(.99626)"/><use xlink:href="#NimbusRomNo9L-Regu-35" transform="matrix(.99626 0 0 .99626 49.813 0)"/></g></g><g id="ytick_3"><use xlink:href="#m5ee295716d" id="line2d_47" x="30.184" y="101.278" style="stroke:#000;stroke-width:.5"/><use xlink:href="#mf707360af8" id="line2d_48" x="214.324" y="101.278" style="stroke:#000;stroke-width:.5"/><g id="text_9" transform="matrix(.08 0 0 -.08 18.714 103.98)"><use xlink:href="#NimbusRomNo9L-Regu-35" transform="scale(.99626)"/><use xlink:href="#NimbusRomNo9L-Regu-30" transform="matrix(.99626 0 0 .99626 49.813 0)"/></g></g><g id="ytick_4"><use xlink:href="#m5ee295716d" id="line2d_49" x="30.184" y="82.282" style="stroke:#000;stroke-width:.5"/><use xlink:href="#mf707360af8" id="line2d_50" x="214.324" y="82.282" style="stroke:#000;stroke-width:.5"/><g id="text_10" transform="matrix(.08 0 0 -.08 18.714 84.984)"><defs><path id="NimbusRomNo9L-Regu-37" d="M2874 4250H506l-378-940 109-52c275 435 390 518 742 518h1389L1101-32h416l1357 4180z" transform="scale(.01563)"/></defs><use xlink:href="#NimbusRomNo9L-Regu-37" transform="scale(.99626)"/><use xlink:href="#NimbusRomNo9L-Regu-35" transform="matrix(.99626 0 0 .99626 49.813 0)"/></g></g><g id="ytick_5"><use xlink:href="#m5ee295716d" id="line2d_51" x="30.184" y="63.287" style="stroke:#000;stroke-width:.5"/><use xlink:href="#mf707360af8" id="line2d_52" x="214.324" y="63.287" style="stroke:#000;stroke-width:.5"/><g id="text_11" transform="matrix(.08 0 0 -.08 14.73 65.99)"><defs><path id="NimbusRomNo9L-Regu-31" d="M1862 4339 710 3757v-90c77 32 148 58 173 71 115 45 224 70 288 70 135 0 192-97 192-303V592c0-213-51-360-153-419-96-57-186-77-455-77V0h1767v96c-506 0-608 64-608 374v3857z" transform="scale(.01563)"/></defs><use xlink:href="#NimbusRomNo9L-Regu-31" transform="scale(.99626)"/><use xlink:href="#NimbusRomNo9L-Regu-30" transform="matrix(.99626 0 0 .99626 49.813 0)"/><use xlink:href="#NimbusRomNo9L-Regu-30" transform="matrix(.99626 0 0 .99626 99.626 0)"/></g></g><g id="ytick_6"><use xlink:href="#m5ee295716d" id="line2d_53" x="30.184" y="44.292" style="stroke:#000;stroke-width:.5"/><use xlink:href="#mf707360af8" id="line2d_54" x="214.324" y="44.292" style="stroke:#000;stroke-width:.5"/><g id="text_12" transform="matrix(.08 0 0 -.08 14.73 46.994)"><use xlink:href="#NimbusRomNo9L-Regu-31" transform="scale(.99626)"/><use xlink:href="#NimbusRomNo9L-Regu-32" transform="matrix(.99626 0 0 .99626 49.813 0)"/><use xlink:href="#NimbusRomNo9L-Regu-35" transform="matrix(.99626 0 0 .99626 99.626 0)"/></g></g><g id="ytick_7"><use xlink:href="#m5ee295716d" id="line2d_55" x="30.184" y="25.297" style="stroke:#000;stroke-width:.5"/><use xlink:href="#mf707360af8" id="line2d_56" x="214.324" y="25.297" style="stroke:#000;stroke-width:.5"/><g id="text_13" transform="matrix(.08 0 0 -.08 14.73 27.999)"><use xlink:href="#NimbusRomNo9L-Regu-31" transform="scale(.99626)"/><use xlink:href="#NimbusRomNo9L-Regu-35" transform="matrix(.99626 0 0 .99626 49.813 0)"/><use xlink:href="#NimbusRomNo9L-Regu-30" transform="matrix(.99626 0 0 .99626 99.626 0)"/></g></g><g id="ytick_8"><use xlink:href="#m5ee295716d" id="line2d_57" x="30.184" y="6.302" style="stroke:#000;stroke-width:.5"/><use xlink:href="#mf707360af8" id="line2d_58" x="214.324" y="6.302" style="stroke:#000;stroke-width:.5"/><g id="text_14" transform="matrix(.08 0 0 -.08 14.73 9.004)"><use xlink:href="#NimbusRomNo9L-Regu-31" transform="scale(.99626)"/><use xlink:href="#NimbusRomNo9L-Regu-37" transform="matrix(.99626 0 0 .99626 49.813 0)"/><use xlink:href="#NimbusRomNo9L-Regu-35" transform="matrix(.99626 0 0 .99626 99.626 0)"/></g></g><g id="ytick_9"><g id="line2d_59"><defs><path id="m032787c9bc" d="M0 0h1.5" style="stroke:#000;stroke-width:.5"/></defs><use xlink:href="#m032787c9bc" x="30.184" y="143.067" style="stroke:#000;stroke-width:.5"/></g><g id="line2d_60"><defs><path id="md40f9d8881" d="M0 0h-1.5" style="stroke:#000;stroke-width:.5"/></defs><use xlink:href="#md40f9d8881" x="214.324" y="143.067" style="stroke:#000;stroke-width:.5"/></g></g><g id="ytick_10"><use xlink:href="#m032787c9bc" id="line2d_61" x="30.184" y="135.469" style="stroke:#000;stroke-width:.5"/><use xlink:href="#md40f9d8881" id="line2d_62" x="214.324" y="135.469" style="stroke:#000;stroke-width:.5"/></g><g id="ytick_11"><use xlink:href="#m032787c9bc" id="line2d_63" x="30.184" y="131.67" style="stroke:#000;stroke-width:.5"/><use xlink:href="#md40f9d8881" id="line2d_64" x="214.324" y="131.67" style="stroke:#000;stroke-width:.5"/></g><g id="ytick_12"><use xlink:href="#m032787c9bc" id="line2d_65" x="30.184" y="127.871" style="stroke:#000;stroke-width:.5"/><use xlink:href="#md40f9d8881" id="line2d_66" x="214.324" y="127.871" style="stroke:#000;stroke-width:.5"/></g><g id="ytick_13"><use xlink:href="#m032787c9bc" id="line2d_67" x="30.184" y="124.072" style="stroke:#000;stroke-width:.5"/><use xlink:href="#md40f9d8881" id="line2d_68" x="214.324" y="124.072" style="stroke:#000;stroke-width:.5"/></g><g id="ytick_14"><use xlink:href="#m032787c9bc" id="line2d_69" x="30.184" y="116.474" style="stroke:#000;stroke-width:.5"/><use xlink:href="#md40f9d8881" id="line2d_70" x="214.324" y="116.474" style="stroke:#000;stroke-width:.5"/></g><g id="ytick_15"><use xlink:href="#m032787c9bc" id="line2d_71" x="30.184" y="112.675" style="stroke:#000;stroke-width:.5"/><use xlink:href="#md40f9d8881" id="line2d_72" x="214.324" y="112.675" style="stroke:#000;stroke-width:.5"/></g><g id="ytick_16"><use xlink:href="#m032787c9bc" id="line2d_73" x="30.184" y="108.876" style="stroke:#000;stroke-width:.5"/><use xlink:href="#md40f9d8881" id="line2d_74" x="214.324" y="108.876" style="stroke:#000;stroke-width:.5"/></g><g id="ytick_17"><use xlink:href="#m032787c9bc" id="line2d_75" x="30.184" y="105.077" style="stroke:#000;stroke-width:.5"/><use xlink:href="#md40f9d8881" id="line2d_76" x="214.324" y="105.077" style="stroke:#000;stroke-width:.5"/></g><g id="ytick_18"><use xlink:href="#m032787c9bc" id="line2d_77" x="30.184" y="97.479" style="stroke:#000;stroke-width:.5"/><use xlink:href="#md40f9d8881" id="line2d_78" x="214.324" y="97.479" style="stroke:#000;stroke-width:.5"/></g><g id="ytick_19"><use xlink:href="#m032787c9bc" id="line2d_79" x="30.184" y="93.68" style="stroke:#000;stroke-width:.5"/><use xlink:href="#md40f9d8881" id="line2d_80" x="214.324" y="93.68" style="stroke:#000;stroke-width:.5"/></g><g id="ytick_20"><use xlink:href="#m032787c9bc" id="line2d_81" x="30.184" y="89.881" style="stroke:#000;stroke-width:.5"/><use xlink:href="#md40f9d8881" id="line2d_82" x="214.324" y="89.881" style="stroke:#000;stroke-width:.5"/></g><g id="ytick_21"><use xlink:href="#m032787c9bc" id="line2d_83" x="30.184" y="86.081" style="stroke:#000;stroke-width:.5"/><use xlink:href="#md40f9d8881" id="line2d_84" x="214.324" y="86.081" style="stroke:#000;stroke-width:.5"/></g><g id="ytick_22"><use xlink:href="#m032787c9bc" id="line2d_85" x="30.184" y="78.483" style="stroke:#000;stroke-width:.5"/><use xlink:href="#md40f9d8881" id="line2d_86" x="214.324" y="78.483" style="stroke:#000;stroke-width:.5"/></g><g id="ytick_23"><use xlink:href="#m032787c9bc" id="line2d_87" x="30.184" y="74.684" style="stroke:#000;stroke-width:.5"/><use xlink:href="#md40f9d8881" id="line2d_88" x="214.324" y="74.684" style="stroke:#000;stroke-width:.5"/></g><g id="ytick_24"><use xlink:href="#m032787c9bc" id="line2d_89" x="30.184" y="70.885" style="stroke:#000;stroke-width:.5"/><use xlink:href="#md40f9d8881" id="line2d_90" x="214.324" y="70.885" style="stroke:#000;stroke-width:.5"/></g><g id="ytick_25"><use xlink:href="#m032787c9bc" id="line2d_91" x="30.184" y="67.086" style="stroke:#000;stroke-width:.5"/><use xlink:href="#md40f9d8881" id="line2d_92" x="214.324" y="67.086" style="stroke:#000;stroke-width:.5"/></g><g id="ytick_26"><use xlink:href="#m032787c9bc" id="line2d_93" x="30.184" y="59.488" style="stroke:#000;stroke-width:.5"/><use xlink:href="#md40f9d8881" id="line2d_94" x="214.324" y="59.488" style="stroke:#000;stroke-width:.5"/></g><g id="ytick_27"><use xlink:href="#m032787c9bc" id="line2d_95" x="30.184" y="55.689" style="stroke:#000;stroke-width:.5"/><use xlink:href="#md40f9d8881" id="line2d_96" x="214.324" y="55.689" style="stroke:#000;stroke-width:.5"/></g><g id="ytick_28"><use xlink:href="#m032787c9bc" id="line2d_97" x="30.184" y="51.89" style="stroke:#000;stroke-width:.5"/><use xlink:href="#md40f9d8881" id="line2d_98" x="214.324" y="51.89" style="stroke:#000;stroke-width:.5"/></g><g id="ytick_29"><use xlink:href="#m032787c9bc" id="line2d_99" x="30.184" y="48.091" style="stroke:#000;stroke-width:.5"/><use xlink:href="#md40f9d8881" id="line2d_100" x="214.324" y="48.091" style="stroke:#000;stroke-width:.5"/></g><g id="ytick_30"><use xlink:href="#m032787c9bc" id="line2d_101" x="30.184" y="40.493" style="stroke:#000;stroke-width:.5"/><use xlink:href="#md40f9d8881" id="line2d_102" x="214.324" y="40.493" style="stroke:#000;stroke-width:.5"/></g><g id="ytick_31"><use xlink:href="#m032787c9bc" id="line2d_103" x="30.184" y="36.694" style="stroke:#000;stroke-width:.5"/><use xlink:href="#md40f9d8881" id="line2d_104" x="214.324" y="36.694" style="stroke:#000;stroke-width:.5"/></g><g id="ytick_32"><use xlink:href="#m032787c9bc" id="line2d_105" x="30.184" y="32.895" style="stroke:#000;stroke-width:.5"/><use xlink:href="#md40f9d8881" id="line2d_106" x="214.324" y="32.895" style="stroke:#000;stroke-width:.5"/></g><g id="ytick_33"><use xlink:href="#m032787c9bc" id="line2d_107" x="30.184" y="29.096" style="stroke:#000;stroke-width:.5"/><use xlink:href="#md40f9d8881" id="line2d_108" x="214.324" y="29.096" style="stroke:#000;stroke-width:.5"/></g><g id="ytick_34"><use xlink:href="#m032787c9bc" id="line2d_109" x="30.184" y="21.498" style="stroke:#000;stroke-width:.5"/><use xlink:href="#md40f9d8881" id="line2d_110" x="214.324" y="21.498" style="stroke:#000;stroke-width:.5"/></g><g id="ytick_35"><use xlink:href="#m032787c9bc" id="line2d_111" x="30.184" y="17.699" style="stroke:#000;stroke-width:.5"/><use xlink:href="#md40f9d8881" id="line2d_112" x="214.324" y="17.699" style="stroke:#000;stroke-width:.5"/></g><g id="ytick_36"><use xlink:href="#m032787c9bc" id="line2d_113" x="30.184" y="13.9" style="stroke:#000;stroke-width:.5"/><use xlink:href="#md40f9d8881" id="line2d_114" x="214.324" y="13.9" style="stroke:#000;stroke-width:.5"/></g><g id="ytick_37"><use xlink:href="#m032787c9bc" id="line2d_115" x="30.184" y="10.101" style="stroke:#000;stroke-width:.5"/><use xlink:href="#md40f9d8881" id="line2d_116" x="214.324" y="10.101" style="stroke:#000;stroke-width:.5"/></g><g id="text_15" transform="matrix(0 -.08 -.08 0 9.004 100.71)"><defs><path id="NimbusRomNo9L-Regu-4d" d="M4314 3667V751c0-534-77-617-583-617V0h1792v134c-467 0-557 89-557 547v2855c0 457 84 541 557 579v122H4250L2835 1004 1357 4237H90v-141c524 0 608-77 608-546V943c0-661-90-784-621-822V0h1504v134c-493 0-602 148-602 797v2589L2586 0h89z" transform="scale(.01563)"/><path id="NimbusRomNo9L-Regu-61" d="M2829 423c-109-90-186-122-282-122-147 0-192 89-192 371v1248c0 333-32 518-128 672-141 230-416 352-793 352-602 0-1076-314-1076-717 0-147 128-275 276-275 153 0 288 128 288 269 0 25-7 57-13 102-13 58-19 109-19 154 0 173 204 313 460 313 314 0 487-185 487-531v-390c-986-397-1095-448-1370-691-141-128-230-346-230-557 0-403 281-685 672-685 281 0 544 134 934 467 32-333 147-467 410-467 217 0 352 77 576 320zm-992 360c0-199-32-257-167-334-153-90-332-148-467-148-224 0-403 219-403 495v26c0 379 262 611 1037 893z" transform="scale(.01563)"/><path id="NimbusRomNo9L-Regu-67" d="M3008 2496v250h-493c-128 0-224 17-352 56l-141 45c-172 56-345 84-512 84-595 0-1068-464-1068-1050 0-405 172-651 595-863-122-112-237-219-275-250-212-180-295-305-295-430 0-132 77-207 339-332-454-335-627-549-627-787 0-343 499-627 1107-627 480 0 980 170 1312 446 244 203 352 414 352 663 0 407-300 683-774 683h-826c-339 0-499 59-499 164 0 130 211 360 384 412 58-7 103-13 122-13 121-13 205-19 243-19 237 0 493 98 691 275 211 184 307 414 307 742 0 190-32 341-121 551zM941-13c211-45 723-83 1037-83 582 0 793-84 793-318 0-377-486-629-1209-629-564 0-935 188-935 473 0 150 45 234 314 557m32 2158c0 381 179 607 473 607 199 0 365-110 468-303 115-226 192-522 192-774 0-361-186-587-480-587-384 0-653 419-653 1038z" transform="scale(.01563)"/><path id="NimbusRomNo9L-Regu-6e" d="M102 2579c39 19 103 26 173 26 179 0 237-96 237-410V608c0-365-70-454-397-480V32h1357v96c-326 26-422 102-422 333v1798c307 288 448 365 659 365 313 0 467-198 467-621V666c0-404-83-512-403-538V32h1331v96c-314 32-390 109-390 422v1466c0 602-282 960-756 960-294 0-492-109-928-518v505l-44 13c-314-115-532-186-884-288z" transform="scale(.01563)"/><path id="NimbusRomNo9L-Regu-69" d="m1120 2929-992-350v-95l51 6c77 12 160 19 218 19 153 0 211-103 211-384V640c0-461-64-531-506-531V0h1517v96c-422 32-473 95-473 554v2260zM819 4352c-173 0-320-147-320-326s141-327 320-327c186 0 333 141 333 327 0 179-147 326-333 326" transform="scale(.01563)"/><path id="NimbusRomNo9L-Regu-74" d="M1632 2880H986v742c0 64-7 84-45 84-45-58-83-116-128-180-243-352-519-659-621-685-70-47-109-93-109-126 0-20 7-33 26-33h339V751c0-539 192-815 570-815 313 0 556 154 768 487l-84 70c-134-160-243-224-384-224-236 0-332 174-332 578v1835h646z" transform="scale(.01563)"/><path id="NimbusRomNo9L-Regu-75" d="M3066 320h-32c-295 0-365 70-365 365v2195H1658v-122c396 0 473-64 473-383V875c0-178-32-268-121-338-173-140-372-217-564-217-249 0-454 217-454 485v2075H58v-102c307 0 396-96 396-391V770c0-507 308-834 775-834 237 0 486 102 659 275l275 275V-45l26-13c320 128 550 199 877 288z" transform="scale(.01563)"/><path id="NimbusRomNo9L-Regu-64" d="m2202-64 940 333v96h-147c-230 0-281 70-281 366v3633l-32 13c-308-109-532-173-941-281v-102c51 6 89 6 141 6 236 0 294-64 294-328V2669c-243 205-416 275-672 275-736 0-1331-723-1331-1632C173 493 653-64 1357-64c358 0 601 128 819 429V-45zm-26 717c0-45-45-122-109-192-115-128-275-192-461-192-531 0-883 512-883 1299 0 723 314 1197 800 1197 339 0 653-301 653-640z" transform="scale(.01563)"/><path id="NimbusRomNo9L-Regu-65" d="M2611 1053c-307-489-582-675-992-675-365 0-640 186-825 552-116 244-160 456-173 849h1971c-51 414-115 598-275 802-192 230-487 363-819 363-320 0-621-115-864-333-301-262-474-717-474-1241C160 486 621-64 1357-64c608 0 1088 379 1357 1072zM634 1984c70 495 288 730 678 730s544-179 627-730z" transform="scale(.01563)"/><path id="NimbusRomNo9L-Regu-42" d="M109 4237v-141c537 0 614-70 614-548V689c0-477-83-561-614-561V0h2137c500 0 954 136 1191 356 230 208 358 499 358 809 0 286-115 545-313 732-192 175-365 253-781 356 333 82 467 145 621 278 160 140 256 372 256 632 0 708-570 1074-1677 1074zm1267-2125c621 0 915-32 1146-130 364-155 537-414 537-823 0-350-134-604-390-753-205-116-467-168-890-168-313 0-403 58-403 266zm0 256v1444c0 132 45 189 141 189h281c736 0 1127-302 1127-864 0-491-339-769-941-769z" transform="scale(.01563)"/></defs><use xlink:href="#NimbusRomNo9L-Regu-4d" transform="scale(.99626)"/><use xlink:href="#NimbusRomNo9L-Regu-61" transform="matrix(.99626 0 0 .99626 88.567 0)"/><use xlink:href="#NimbusRomNo9L-Regu-67" transform="matrix(.99626 0 0 .99626 132.8 0)"/><use xlink:href="#NimbusRomNo9L-Regu-6e" transform="matrix(.99626 0 0 .99626 182.614 0)"/><use xlink:href="#NimbusRomNo9L-Regu-69" transform="matrix(.99626 0 0 .99626 232.427 0)"/><use xlink:href="#NimbusRomNo9L-Regu-74" transform="matrix(.99626 0 0 .99626 260.122 0)"/><use xlink:href="#NimbusRomNo9L-Regu-75" transform="matrix(.99626 0 0 .99626 287.817 0)"/><use xlink:href="#NimbusRomNo9L-Regu-64" transform="matrix(.99626 0 0 .99626 337.63 0)"/><use xlink:href="#NimbusRomNo9L-Regu-65" transform="matrix(.99626 0 0 .99626 387.444 0)"/><use xlink:href="#NimbusRomNo9L-Regu-28" transform="matrix(.99626 0 0 .99626 456.584 0)"/><use xlink:href="#NimbusRomNo9L-Regu-64" transform="matrix(.99626 0 0 .99626 489.759 0)"/><use xlink:href="#NimbusRomNo9L-Regu-42" transform="matrix(.99626 0 0 .99626 539.572 0)"/><use xlink:href="#NimbusRomNo9L-Regu-29" transform="matrix(.99626 0 0 .99626 606.022 0)"/></g></g><path id="line2d_117" d="m38.554 127.013.067-3.38.067.907.067 3.979.134-4.666.067 1.757.067-.416.067-1.385.067.421.067.407.067-.47.067-2.055.067 6.96.067-3.705.067 1.882.067-4.459.067 2.467.134 1.439.067-2.592.067.615.067-.457.067 2.3.067-1.991.067 1.59.067-.78.067-1.613.067 4.277.067-2.127.067 2.736.2-5.547.135 4.261.067-4.47.067 3.722.134-3.028.2 4.483.068-5.27.067 1.531.067 3.066.067-2.032.067 2.604.067-2.958.067.334.067-.094.067-.871.067 1.564.134-1.572.134 1.027.067-3.24.134 4.826.066.892.201-3.676.067 1.05.067 4.829.201-7.604.067 3.08.067-1.866.067.573.067-1.588.134 4.993.201-4.766.067.292.134 4.635.067-3.65.067 2.101.067.902.201-2.321.067.572.067-.985.134 2.958.134-3.124.067 1.71.201-3.16.134 2.528.067-.952.134 2.097.067-3.946.067 1.239.067 2.958.067-2.572.067 1.01.067 2.176.067-2.958.067.403.067.408.067-1.451.067.08.067 1.828.067-.24.067-.283.067-1.412.067.72.067-.78.067 5.556.067-7.153.067 5.434.067-.615.067-.898.067-3.133.067 3.534.067-1.534.134 2.114.067-2.667.067 2.53.134-3.362.067 3.545.067-1.835.2-2.644.067.378.134 3.501.134-2.645.067.184.134-1.561.067 4.906.067-3.076.201 3.395.134-5.053.067 3.663.067-.929.067 2.095.067-3.945.067.018.067 1.017.067-.266.067-1.004.067 1.997.067-1.124.067 1.452.067-.223.067-1.538.067 2.268.067-1.415.067-1.044.067.517.067.294.134-1.133.134 1.36.067-.016.067-.62.134 2.685.134-2.125.067.318.067-1.737.134 2.487.134-2.932.2 3.132.068-1.508.067.07.2 1.262.068-2.093.134 1.884.067-.846.067.098.067.25.067 1.952.067-2.779.067.113.067 1.739.067-.547.134-2.05.067 2.019.067-.873.067-2.406.067 3.712.133-3.473.134 4.466.067-2.814.067.452.067-.312.067.814.067-2.087.067 1.944.067-.073.067.14.067-.172.067 1.839.067-3.863.067 2.353.067-.747.067 1.623.067-2.446.134 2.004.134-3.764.134 4.534.201-1.235.067.06.067-1.135.067 2.045.067-.915.067.942.067-.196.067-1.825.201 2.208.067-16.28.067 18.828.067-4.186.2 1.197.135-3.724.067 5.04.067-2.512.2-1.435.068.334.134 2.128.067-3.064.067.935.134 2.527.134-1.885.067 1.035.067-.052.067-.767.067.624.067-.794.067.971.067-2.599.067 1.545.134.857.067-2.854.2 5.05.134-4.956.067 1.783.067 1.341.067-2.475.134 3.585.067-4.715.067 2.482.067.364.201-1.751.067 2.056.067-1.743.067 1.676.067-1.915.067 2.202.067-1.005.134.744.067-1.603.067 2.163.067-2.545.067.669.134 1.596.067-3.697.067 4.473.067-2.668.067 1.423.067-.163.067-2.162.067.562.134 3.994.134-3.668.134 2.1.201-2.283.067-1.936.134 5.785.134-5.43.067 3.655.067-1.734.067 1.61.067-2.398.067 1.2.067-1.962.067 1.015.134 1.476.134-3.75.067 4.94.067-1.144.067-1.226.067.38.067-.336.067.635.067 3.615.067-1.618.067-4.28.067 2.781.067-.16.067-3.354.067 4.629.067-2.344.067 1.685.134-4.25.067.783.133 2.543.067-2.082.067 3.709.067-1.87.134-2.634.134 5.061.201-3.453.067 2.733.067-2.748.067 1.389.134 1.119.134-4.195.067 4.583.067-2.32.134-1.55.067 4.147.067-.768.134-3.356.201 2.254.134-1.317.067.312.067 1.612.134-2.874.067.081.067 4.462.067-4.122.067.542.067.374.067-3.216.2 4.506.135-2.36.2 3.301.068-3.74.067 3.509.067-2.948.067 2.422.067-1.16.067-.84.134 1.585.067-1.894.067.29.067 1.857.067-2.619.134 3.259.134-3.552.067 1.531.067-.674.067-1.156.134 1.358.067-1.009.067 5.48.134-7.672.133 3.531.067 3.506.067-.177.134-4.264.067 3.7.067-1.449.067-1.804.067 1.6.067-.237.067.241.067-.417.067.6.067 3.047.201-5.107.067 3.544.067-5.525.067 2.322.067-.822.067.552.067-2.165.067 3.497.067-.624.067-3.262.201 7.24.067-.357.067-3.957.067 1.51.067 2.482.134-6.09.134 4.233.067-2.365.067 3.1.067-4.792.067.57.134 4.033.067-5.826.067 4.112.067-.77.067-.425.067-1.514.067 5.638.134-6.148.067.425.067 5.463.067-1.731.067-4.192.2 4.394.202-4.017.067 3.934.134-3.46.134 1.5.067-2.557.067.204.067 3.148.067-3.58.067 1.224.067.391.067 1.85.067-3.051.067 3.73.067-3.077.066 5.497.067-2.42.067-4.462.067 2.477.134-2.565.201 2.898.134-.705.067-2.77.134 5.613.201-2.926.067.258.067-1.906.134 3.302.201-4.316.067.424.067.925.134 5.624.134-4.343.067 2.166.201-4.254.067 1.451.067-.308.067-.296.067 3.02.134-3.586.067-.14.067 3.063.067-3.5.067 1.667.067 1.772.134-2.271.067 2.338.2-2.953.135 2.962.067-2.725.067.605.067 2.059.067-3.562.134 2.832.067-.056.067-2.504.067 1.572.067-2.174.067.283.2 6.15.068-3.701.067 5.217.2-10.369.202 5.284.066.446.067 1.49.134-5.287.067.233.134 3.805.067-2.322.067 2.233.134-4.196.134 4.328.067-2.414.067.86.067-1.538.067 3.154.067-2.583.067.369.067.935.067-1.743.067.229.067 1.481.067-2.263.067.98.067 1.79.067-.835.067.078.067-2.29.067 4.648.067-1.995.067-.208.067 1.193.134-5.07.067 1.958.067.902.067 2.966.067-1.088.067-2.775.067 1.902.067-.94.067.147.067.879.067-.568.067-1.856.067.152.067-.21.067 2.545.067-1.09.067.41.134-1.29.067 1.33.067-.861.067-.85.268 2.944.134-2.517.067 1.34.067-1.53.067 1.752.067-2.337.067.215.067-.69.067 2.367.067-2.267.067 1.429.067-.268.067 1.17.067-1.754.067.365.067-.618.066 2.889.067-3.849.067 2.25.067-1.054.268 3.167.134-4.135.134 2.31.134-2.513.067 2.094.067-1.451.067.9.067.404.067-1.297.067.612.067 1.58.067-2.408.067 1.201.067 1.659.067-3.774.067 1.992.067 1.36.067-1.731.067.938.067-.11.067.685.067-.648.067-1.78.201 2.847.134-2.288.067.537.067-.387.067 1.958.067-2.962.067 1.226.067 1.778.134-4.286.134 3.583.067-2.006.067.277.134 1.71.067-.658.067 1.4.067-3.94.067 1.74.268-2.161.067.673.067-.016.067 2.488.067-1.525.067-1.999.134 2.993.134-1.81.067 3.12.067-.333.067-1.052.067 1.367.067-3.077.067 3.584.067-3.425.066 2.449.067-.729.067-.627.067.47.268-2.435.067-12.177.067 15.18.067-3.873.067 4.585.067-3.532.067 2.544.067-3.355.067.65.067 2.002.067-2.448.067 1.092.067.965.067-.291.201-2.81.134 2.605.067-1.37.134 3.447.067-4.068.067 2.448.067.629.201-3.248.134.74.067-.493.067 2.635.134-4.222.134 3.107.067-1.689.134 1.735.067-1.128.067 1.539.067-3.586.2 3.393.202-2.903.2 2.106.068-.217.067.466.2-.868.068.647.067-2.646.067 3.475.067-.757.2-2.542.068.638.067-.394.067 3.55.067-1.682.067-1.135.066.117.067.296.067-1.175.134 2.71.201-3.037.067-1.695.067 4.327.067-2.082.067.925.201-1.863.134 2.805.067-2.332.067.954.134 1.72.134-4.5.134 4.159.134-3.02.134 3.89.067-2.618.067 2.69.134-3.706.134 2.04.134-2.33.067-.131.067 2.258.067-1.177.067.81.067-1.568.067 1.656.067-.547.067.024.067 1.798.067-2.355.067.484.134-.509.067-1.918.067 2.752.067-.733.067-.287.067.887.067-.876.067 2.343.2-5.126.068 3.674.067-.74.067-.312.067.335.134-2.121.067 1.35.067-.127.067-.03.067.723.067-1.72.2 4.42.068-3.95.067 1.55.066-1.85.067 2.69.134-3.751.134 3.44.134-3.396.134 2.404.067-.31.268-2.34.067 2.61.067-.769.067.74.134-2.353.134.063.067.502.067-.865.201 2.636.201-4.128.201 2.437.067-.128.067-1.01.067 1.063.067-2.138.067 3.72.067-4.244.067 1.2.067 3.307.134-3.46.067 1.83.067-1.037.067-.092.067-1.066.067.397.067 3.134.067-1.637.134.205.067-1.426.067.03.067 1.25.2-2.085.068.064.2 1.932.068-2.816.067 1.22.067 1.193.2-2.774.068 1.776.067-.347.067-.707.067.207.067.769.067-.659.134 1.135.066-3.11.067 1.58.067.791.067-2.382.067 2.016.067-.317.067-.006.067-.709.067.6.067-.768.067 1.109.067-.375.134-1.318.134 1.99.201-1.835.067 1.39.067-1.382.067.954.067-.752.067 1.329.067-.719.067-1.926.067.973.134 1.266.067-.998.067 1.563.134-2.639.134.984.201-2.077.067 1.888.067-1.466.067.924.134-.954.134 1.434.134-2.217.067.21.134 1.403.067-2.723.067 1.589.067-1.232.2 3.972.135-3.583.2 4.295.068-3.706.067 1.619.067-2.611.067 2.756.067-.56.067.065.2-4.199.068 3.557.067-2.172.067 2.297.067-1.427.067.941.133-.869.134.887.067-4.404.067 3.51.067-3.162.067 1.789.067 1.377.134-2.501.067.149.134 1.973.067-2.64.067 4.544.134-4.52.201 2.266.134-1.124.067 1.326.134-3.385.067 1.618.067-.187.067.136.067 1.567.335-5.865.134 6.9.134-4.08.067 5.471.067-6.642.067 3.174.2-5.881.068 8.028.067-4.326.067 1.378.067-.771.134-3.255.067.447.067 3.9.067-2.08.2-1.21.068 2.07.067-2.517.067 3.023.067-5.733.067 3.451.067 1.663.134-2.824.067.733.067 2.01.067-.925.134-3.043.067 1.854.067-1.1.134 2.66.067-7.62.067 6.76.066-1.344.067 2.242.067-1.886.067 5.84.067-12.997.067 3.397.134 3.983.134-4.269.067 3.746.067-3.38.067 3.328.067-3.837.067 2.605.067-3.139.067 1.282.134.674.067 1.17.201-4.992.067 2.273.067-.414.067.85.067-2.05.067.32.067.873.067 2.9.201-4.694.067 2.228.067-.892.067.307.067-3.311.067 3.482.067-1.349.067-.189.067 3.123.067-6.233.067 2.136.067 2.404.134-3.369.067.56.067-.186.067.002.134-1.77.067.778.067-1.261.067 2.046.067-.358.067-2.93.067.31.067-.162.134-.776.2 2.422.068-3.054.134 2.473L118 85.6l.067.195.067.515.134-1.075.134 1.299.134-2.324.067.042.066-.471.067 1.028.134-1.707.067.254.067-1.482.134 1.544.201-2.452.067-.003.067-.352.067 1.245.201-3.674.134.948.268-4.025.067 1.841.067-4.244.067 3.128.067-1.4.134-2.378.067 1.677.134-3.214.067 1.89.134-4.685.067 1.129.067 1.236.134-8.324.067 9.25.067-5.527.067-8.902.067 2.658.067 14.16.134-24.019.134 12.03.134-20.937.067 14.878.268-39.185.067 1.518.134 21.486.067 16.181.067-14.878.067 2.575.067 18.363.067-4.883.067-7.148.067 5.59.067 18.43.134-16.819.134 14.429.067-9.25.067 1.469.067 6.855.067-1.236.067-1.129.133 4.685.067-1.89.134 3.214.067-1.677.067.268.134 3.51.067-3.128.067 4.244.067-1.84.067.477.201 3.547.134-.948.201 3.674.067-1.245.067.352.067.003.201 2.452.134-1.544.067 1.482.067-.254.134 1.707.067-1.028.201.902.067 1.85.067-.827.067-.471.134 1.075.134-.71.067 2.967.067-.36.067-2.113.067 3.054.067-1.059.134-1.363.067.17.134.769.067-.31.134 3.287.067-2.046.067 1.261.067-.778.067.145.134 1.623.067.186.067-.56.067.158.067 3.21.134-4.539.067 6.233.067-3.123.067.189.067 1.349.067-3.482.067 3.31.067-.306.067.892.066-2.228.067 1.148.134 3.546.201-4.093.067 2.05.067-.85.067.414.067-2.273.201 4.992.268-3.126.067 3.139.067-2.605.067 3.837.067-3.328.067 3.38.067-3.746.134 4.269.134-3.983.067-3.397.067 12.997.067-5.84.067 1.886.201-7.659.067 7.622.067-1.913.067-.748.067 1.1.067-1.854.2 3.969.135-2.744.067.554.067 2.27.134-5.114.067 5.733.067-3.023.067 2.516.067-2.069.067.398.067.108.067.703.067 2.081.134-4.347.2 4.026.068-1.378.067 4.326.067-8.028.067 1.763.067.166.067 3.952.067-3.174.067 6.642.067-5.471.067 1.852.067 2.227.134-6.9.066 2.62.067 1.547.067-1.6.134 3.299.134-1.703.067.187.067-1.618.134 3.385.067-1.326.067.173.067.951.201-2.266.067.884.067 3.636.067-4.544.067 2.64.067-.025.134-2.097.134 2.5.134-3.165.067 3.161.067-3.509.067 4.404.067-.418.067-.469.067.185.067.684.067-.94.067 1.426.067-2.297.067 2.172.067-3.557.067 2.187.067-.421.067 2.433.067-.065.067.56.067-2.756.2 4.698.068-3.418.067.444.067-1.32.134 3.582.067-3.145.067 1.27.067-2.097.067 1.232.067-1.589.067 2.723.067-.487.134-1.126.067.11.067 2.107.067-.709.067-.725.067.464.067.49.067-.924.067 1.466.067-1.888.067 1.07.134 1.007.133-.984.067.581.067 2.058.067-1.563.067.998.134-1.266.067-.973.134 2.645.067-1.33.067.753.067-.954.067 1.382.067-1.39.201 1.836.067-.112.067-1.879.067.71.134.983.067-1.109.067.768.067-.6.201 1.032.067-2.016.067 2.382.067-.79.067-1.582.067 3.11.067-.69.067-.444.067.659.134-.976.134 1.054.067-1.776.2 2.774.135-2.413.067 2.816.067-.57.2-1.426.202 2.086.134-1.281.067 1.426.067-.131.067-.074.067 1.637.134-3.531.2 2.194.068-1.83.067.84.067 2.621.134-4.507.067 4.244.067-3.72.067 2.138.067-1.063.133 1.138.201-2.437.201 4.128.201-2.636.067.865.067-.502.134-.063.067.486.067 1.867.067-.74.067.77.067-2.612.067 1.222.067-.631.201 2.06.134-2.404.134 3.395.067-.734.067-2.705.067 1.083.067 2.667.067-2.688.067 1.85.067-1.55.067 3.948.067-1.803.067-.237.067-2.379.067 1.72.067-.724.134.159.067-1.351.134 2.121.067-.335.134 1.052.067-3.674.067.627.134 4.499.067-2.343.067.876.067-.887.067.287.067.733.067-2.752.134 2.091.067.336.067-.484.067 2.355.134-1.822.067.547.067-1.656.067 1.569.067-.81.067 1.176.067-2.258.067.13.067.105.067 2.226.066-1.42.067-.62.134 3.706.067-2.69.067 2.619.134-3.891.134 3.02.134-4.16.134 4.5.067-.196.134-2.477.067 2.332.067-.243.067-2.562.067.318.067.183.067 1.362.067-.925.067 2.082.067-4.327.067 1.695.067.128.067.765.067 2.143.067-.43.067-2.28.067 1.176.134-.413.134 2.817.067-3.55.067.394.067-.638.067 1.936.067-.273.134 1.636.067-3.475.067 2.646.067-.647.2.868.202-1.443.067.438.067-1.35.2 2.903.202-3.393.067 3.586.067-1.54.067 1.129.067-.435.067-1.3.067 1.689.134-3.107.134 4.222.067-2.635.067.493.067-.03.067-.71.2 3.248.067-.63.067-2.447.067 4.068.067-2.16.067-1.286.067 1.37.067-.875.067-1.732.201 2.81.067.292.134-2.057.067 2.448.134-2.652.067 3.355.067-2.544.067 3.532.067-4.585.067 3.872.067-15.179.134 13.204.134.724.067.684.067-.47.134 1.356.067-2.449.067 3.425.067-3.584.067 3.077.067-1.367.134 1.385.067-3.12.067.95.067.86.067-.648.067-2.345.134 3.524.067-2.488.067.016.067-.673.134 1.75.067-.252.067.664.067-1.741.067 3.94.067-1.4.067.658.067-.326.134-1.661.067 2.006.067-.395.067-3.188.067 1.408.067 2.878.067-1.778.067-1.226.067 2.962.067-1.958.067.387.067-.537.067.11.067 2.178.2-2.846.134 2.427.201-1.513.067 1.73.134-3.35.067 3.773.067-1.659.067-1.2.067 2.407.067-1.58.067-.612.067 1.297.067-.403.067-.901.067 1.45.067-2.093.067.808.067 1.706.134-2.31.134 4.134.067-.132.201-3.035.067 1.054.067-2.25.067 3.849.067-2.89.067.62.067-.366.067 1.755.201-2.332.067 2.267.067-2.366.067.689.067-.215.067 2.337.067-1.751.067 1.53.067-1.341.134 2.517.268-2.945.134 1.711.067-1.328.067.42.2 1.549.068-2.545.067.21.067-.152.134 2.424.134-1.027.067.941.067-1.902.134 3.863.2-5.827.134 5.07.067-1.192.067.208.067 1.995.067-4.649.067 2.29.067-.077.067.835.134-2.77.067 2.263.067-1.481.067-.229.067 1.743.067-.935.067-.369.067 2.583.067-3.154.067 1.539.067-.861.067 2.414.067-1.193.067-3.135.067 2.047.067 2.15.067-2.234.067 2.322.067-1.15.134-2.888.134 5.288.067-1.49.067-.447.201-5.284.201 10.369.067-5.217.067 3.702.067-2.34.2-4.094.068 2.174.067-1.572.134 2.56.067-.039.067-2.793.067 3.562.067-2.059.067-.605.067 2.725.067-1.081.067-1.88.067.157.134 2.795.067-2.338.067.841.067 1.43.134-3.44.067 3.501.067-3.063.067.14.067.054.067 3.531.067-3.019.067.296.067.308.067-1.45.2 4.253.067-2.166.134 4.343.268-6.973.067 3.777.067-.759.067 1.298.134-3.302.201 3.464.067-.586.067 1.696.067-.867.067-4.746.067 2.77.067.13.067.575.201-2.898.134 2.565.067-2.477.134 6.882.067-5.497.067 3.077.067-3.73.067 3.05.067-1.849.067-.39.067-1.225.067 3.58.134-3.352.067 2.557.067-.314.067-1.187.067.31.067 3.151.067-3.934.067 3.327.067-.704.067 1.394.2-4.394.135 5.923.134-5.888.134 6.148.067-5.638.067 1.514.134 1.195.067-4.112.067 5.826.067-.185.134-4.418.067 4.791.067-3.1.067 2.366.067-1.038.067-3.196.067.275.066 5.816.067-2.482.067-1.51.134 4.315.067-6.118.067 1.506.067-2.629.134 3.886.067-3.497.067 2.165.067-.552.067.822.067-2.322.067 5.525.067-3.544.067 4.176.067-1.359.067 2.29.134-3.647.067.417.067-.241.067.238.067-1.6.134 3.251.067-3.699.201 4.441.201-7.037.067.905.067 6.766.067-5.479.067 1.009.067-.232.067-1.126.134 1.83.067-1.53.067 1.008.067 2.543.067-.17.067-3.089.067 2.62.134-2.148.067 1.894.067-.6.067-.985.134 2 .067-2.422.067 2.948.067-3.508.067 3.74.067-1.422.067.338.067-2.218.134 2.36.2-4.506.068 3.216.067-.374.067-.542.067 4.122.134-4.543.067.19.067 2.684.066-1.612.067-.312.067.327.067.99.067-.644.067-.393.067-1.217.067.502.134 3.622.067-4.147.067.094.134 3.776.067-4.583.067 2.277.067 1.918.067-.204.134-2.304.067 2.748.067-2.733.067 1.454.067-.458.067 2.457.067-1.265.067-3.796.067 1.567.134 2.937.067-3.709.067 2.082.201-3.325.134 4.25.067-1.686.067 2.344.067-4.63.134 3.515.067-2.781.134 5.898.134-4.25.067.336.067-.38.134 2.37.067-4.94.067 2.045.067 1.705.067-.468.134-2.023.2 3.16.068-1.61.067 1.734.067-3.655.067 1.743.067 3.687.067-1.468.067-4.317.067 1.936.067.179.134 2.103.134-2.099.067.704.067 2.964.2-4.556.134 2.325.067-1.423.067 2.668.067-4.473.067 3.697.067-.363.134-1.902.067 2.545.067-2.163.067 1.603.067-.133.067-.61.067 1.004.067-2.202.067 1.915.067-1.676.067 1.743.067-2.056.067.192.134 1.56.067-.365.067-2.482.067 4.715.067-1.702.067-1.883.067 2.475.067-1.341.067-1.783.134 4.955.201-5.049.067 2.854.067-.168.134-2.234.067 2.6.067-.972.067.794.067-.624.134.819.067-1.035.067.439.067 1.446.2-3.462.068 3.064.067-.971.134-1.49.268 3.947.067-5.041.067 2.669.067 1.055.067-.101.134-1.096.067 4.186.067-18.828.067 16.28.067-.112.134-2.096.133 2.02.067-.941.067.915.067-2.045.067 1.135.067-.06.201 1.235.067-.46.067-4.074.067 1.67.067 2.094.067-.155.067-1.849.067 2.446.201-3.229.067 3.863.067-1.84.067.172.067-.139.067.073.067-1.944.067 2.087.067-.814.067.312.067-.452.067 2.814.067-.834.067-3.632.067.556.067 2.917.067-3.712.067 2.406.067.873.067-2.02.067 1.2.134 1.398.134-1.852.067 2.78.134-2.203.067-.098.067.846.067-.2.067-1.684.067 2.093.067-.125.2-1.207.068 1.508.067-.805.067-.35.067-1.977.134 2.932.067-.179.067-2.308.067 1.737.067-.318.067.41.067 1.715.067-1.066.067-1.618.067.619.067.015.067-.32.067-1.04.067.534.067.6.067-.294.066-.517.134 2.459.067-2.268.134 1.76.067-1.451.067 1.124.067-1.997.067 1.004.067.266.134-1.035.067 3.945.067-2.095.067.93.067-3.664.134 5.053.201-3.395.067 3.076.067-4.906.067.604.067.957.067-.184.067.273.067 2.372.201-3.88.268 4.48.067-3.545.067.767.067 2.595.067-2.53.067 2.667.067-1.311.067-.803.067 1.534.067-3.534.2 4.646.068-5.434.067 7.153.067-5.555.067.778.067-.719.2 1.935.135-1.908.067 1.45.067-.407.067-.403.067 2.958.134-3.186.067 2.572.134-4.197.067 3.946.067-1.288.067-.809.067.952.134-2.527.2 3.16.067-1.71.067.28.067 2.843.067-1.573.067-1.385.201 1.422.067-.225.067 1.537.067-.902.067-2.101.067 3.65.067-.391.134-4.536.201 4.766.067-1.349.067-3.644.067 1.588.067-.573.067 1.866.067-3.08.201 7.604.134-5.879.201 3.676.134-1.107.067-4.611.067 3.24.067-.436.067-.591.067.421.067 1.15.067-1.563.067.871.067.094.067-.334.067 2.958.067-2.604.067 2.032.134-4.597.067 5.27.067-3.076.067-.205.067-1.202.067.405.067 2.623.067-3.723.067 4.471.067-2.088.067-2.173.2 5.547.068-2.736.067 2.127.067-4.277.067 1.612.067.781.067-1.59.067 1.991.067-2.3.067.457.067-.615.067 2.592.067-.633.066-.806.067-2.467.201 6.282.067-6.96.067 2.055.067.47.134-.828.134 1.8.067-1.756.134 4.666.134-4.886h0" clip-path="url(#p900acc38f1)" style="fill:none;stroke:#000;stroke-linecap:square"/><path id="line2d_118" d="m38.554 132.126.067-2.36.067.062.067 2.706.134-4.414.067 1.41.067 6.717.067-8.52.067 3.096.134-1.896.201 2.507.201-.874.134 3.298.134-5.545.201 4.769.067-3.017.067 2.272.134-3.234.067 3.304.067-2.118.067-3.245.067 4.739.067-2.075.2 2.2.068.05.067-2.335.067.642.067.58.067-.209.067 5.558.2-8.073.135 3.156.067-5.085.134 5.012.067-3.525.067 1.536.067.552.067 4.772.067-8.428.067 2.79.067-.975.067 8.1.067-9.988.066 3.08.134 4.746.067-8.392.067 3.622.134 5.085.067-5.23.067 4.366.067-.455.067.646.134-6.228.067 6.703.067-1.553.201-4.835.134 1.597.067-2.092.201 4.307.067-.566.067-4.131.201 7.024.067-2.482.067.752.134-3.231.067 5.41.067-4.405.067 3.865.067-2.037.134 3.663.067-6.31.067 3.637.134-2.11.2 2.298.068 3.197.134-4.13.067 2.533.067-2.76.067 2.274.067-8.351.067 7.369.067-1.912.134-2.496.067 1.424.067-.28.067-1.474.067 5.47.067-2.25.134-2.425.067 4.106.067-2.992.067.049.067.442.067 2.407.067-4.08.134 5.666.067-5.878.067 3.12.134-3.852.066 2.716.067-.488.067-.147.067 1.926.067-3.048.067 3.207.067-2.446.201 7.612.067-7.647.067 2.546.067-3.616.067 1.061.067-2.264.201 5.074.067-.997.067 3.892.067-4.488.067 2.105.134-2.902.067-.205.067 2.267.067-3.367.067 2.213.067-1.391.067 1.587.067-1.183.067.465.134 2.756.067-6.15.067 3.458.067 2.057.134-2.8.067 3.507.2-5.386.068 3.262.067-.63.067 1.711.067-.873.067-1.61.067 2.984.067-4.379.067.907.067 2.475.134-4.585.067 6.761.067-2.844.067-.966.067.51.134 1.71.067-2.644.067.427.067-.324.067 2.13.067-2.055.067 2.417.067-4.159.067 4.44.067-3.278.067 2.426.067-2.119.067 2.028.067-3.24.2 6.243.201-5.202.201 4.428.067-3.543.067 2.554.067-3.036.067.418.067-.53.067.813.067-1.45.201 2.99.201-4.484.067 7.666.067-7.35.067 5.306.067-6.694.067 6.939.067-2.217.067.61.201-3.823.067 3.147.067-2.03.201 5.62.067-6.141.067 4.118.067-3.101.067 3.632.067-21.206.067 20.317.067-3.449.067 3.608.067-5.455.067 9.285.067-7.969.067 1.594.067-2.118.134 4.642.2-3.437.135 1.596.067-.699.2 2.243.135-6.178.2 7.752.202-4.562.067 3.062.067-1.555.067.172.067-.53.067-2.137.134 7.954.134-7.32.066.561.067 2.394.067-2.026.067 2.646.067-4.326.067 5.01.067-1.752.134-2.944.067.849.067 2.468.067-1.14.067.571.134-4.664.067 4.84.067-3.667.067.949.134.8.067-.488.067 1.827.067-1.339.067 7.187.134-8.39.067 2.43.067-4.14.067 2.41.134 3.062.067-4.059.067.952.067-.083.134-2.191.134 6.181.067-.896.067 2.035.067-8.48.067 7.07.067-3.867.134-.594.067 2.929.134-2.663.067 1.995.134-4.17.067 4.551.067-2.496.2 5.744.068-3.61.067 4.681.067-5.096.067.867.2-1.675.135-3.179.335 7.994.067-5.546.067 2.222.2-3.35.068 1.18.066-2.162.134 3.076.067-.357.067 1.633.067-2.492.067 2.241.067-3.037.134 5.94.067-5.056.067 5.706.134-5.353.067.207.067-.506.067 1.836.067-3.389.067.26.067-.228.067 3.24.067-5.11.134 4.528.067-.324.067-1.59.067 3.086.067-3.146.134 8.009.134-7.695.067-.434.067 2.558.067-2.67.067.925.134 5.49.134-2.588.134 2.021.067-.306.067-5.527.067 2.44.067-2.285.067 2.774.067-.24.067-.03.067-1.743.067 2.95.067-3.938.067 1.669.067-.501.067.806.067-3.205.067 4.998.067-3.179.067-2.794.067 5.911.067-5.545.067 2.895.067-3.7.134 7.52.134-3.677.067 2.833.067-.487.134-3.62.067 7.51.067-1.935.067-5.206.067.184.067 3.838.066-.483.067-3.643.067.298.067 2.55.134-5.375.201 6.223.067-4.898.067 5.307.067-5.25.067.556.067-1.703.067.229.201 2.554.067-.447.067 6.344.067-5.375.067.133.067 2.817.067-6.993.067 4.47.067-4.906.201 4.792.067-2.65.067 3.283.067-2.201.067 4.828.067-6.594.067 3.615.134-.18.067.43.067 3.37.2-7.532.068.401.067 4.262.067-2.751.067-.485.067 2.038.067-1.316.067-2.564.067 5.832.067-4.345.067 5.108.134-4.959.067 4.996.067-3.12.067-4.06.134 3.942.067-1.68.067 3.038.134-4.004.2 3.31.068-2.634.134 9.079.134-8.13.067.07.067-2.295.2 5.665.067-2.787.067 2.773.067-2.693.067 1.683.067.264.067-2.61.067 4.549.067-5.216.067 2.429.067.997.067-.924.067 2.654.067-7.405.067 3.4.067 4.878.134-7.603.067 1.64.067 4.04.067-4.973.067 2.417.067-.964.067 1.768.067-3.681.067 2.175.067-1.82.067 4.554.067-4.787.067 4.078.067-1.583.067.423.067 2.795.067-1.027.134-5.98.067 4.67.067-5.187.067 2.688.067 2.287.067-.366.067-3.229.067 5.28.067-5.98.067 5.64.067-6.208.067 2.666.067 3.357.2-5.423.068 8.835.067-6.18.067 1.79.067-1.657.067 3.854.2-9.886.135 9.47.134-9.038.067 7.084.067-1.036.134-2.706.067 1.182.067 3.034.2-4.745.202 4.79.067-4.29.066 1.024.067 2.454.067-2.625.067 5.675.067-2.7.067.083.268-5.047.067 4.236.067-3.114.067 1.54.067.821.067 2.422.134-2.874.067-.14.134-1.651.067 5.35.067-3.157.067-2.78.067 1.336.067 1.478.201-2.933.201 4.743.067-.832.067-3.962.134 4.593.134-6.285.067 4.08.067-1.335.067-3.618.067 7.774.067-4.028.067 1.051.067-1.297.067.56.067-5.54.2 7.053.068 1.919.067-4.884.067.202.067.992.134-1.938.067 7.215.067-4.392.067-.36.2-2.075.135 1.773.067-.694.067 5.348.134-6.446.067.45.067.22.134 1.78.134-2.828.067.785.067-.26.067-.503.2 3.77.134-2.66.134 2.79.067-2.383.067.195.067 2.486.067-4.044.067.04.067-.622.134.75.067 3.621.067-2.972.067 1.708.067.43.067-.584.067-3.267.067 3.049.067-1.988.067 2.068.134-2.814.134 3.822.067-2.478.067 2.158.067-3.34.067 1.33.067-.767.134 1.367.134-1.952.067 2.286.067-3.04.134 4.63.067-.094.067-4.618.067.757.067 2.79.067-1.729.067-2.445.2 3.945.202-2.548.067.488.067-2.445.067 1.284.067 1.553.067-2.106.067 3.333.067-2.587.067 1.41.067-2.017.067 1.29.134 1.975.067-2.783.067 1.266.067-.31.067-1.305.067.012.067.01.067 3.596.067-3.704.067.405.134 3.415.066-4.695.134 4.193.067.721.067-4.386.067 2.557.067-2.202.067 2.191.067-18.354.067 15.895.067-.414.134-.304.067 2.576.201-5.13.067 4.879.067-1.595.067 2.244.067-.768.067-2.686.067 2.006.067-1.59.067 1.723.067-2.401.067.666.134 3.281.067-2.534.067.543.067-.242.067 3.48.201-4.399.134 8.22.067-12.247.067 6.531.067-6.118.067 2.829.067 2.031.067-3.556.067.586.2 2.905.135-2.169.134 2.878.067-4.386.067 1.184.067 2.244.067-.445.067-1.916.134 3.523.067-3.921.067 1.065.067 3.086.067-.031.134-5.316.2 5.719.068-.293.067 4.191.2-8.653.135 1.975.066 3.567.067-4.188.067 2.017.134-3.21.067-1.754.067 6.305.067-2.144.067.649.067 3.45.067-5.237.067.506.067.047.067-1.898.067.912.067 1.107.067-2.29.134 5.05.134-5.732.134 3.982.067-2.831.134 3.517.067-3.553.067.135.134 4.511.134-3.688.067 3.575.201-5.989.268 5.018.067-3.16.134 2.54.067-2.758.067 1.016.067-.429.067-3.504.067 2.104.067.806.067-.94.067 2.616.067-1.369.134-.876.067-1.892.067 2.072.067-.93.067-1.989.067 7.56.067-5.936.067 2.641.067.288.2-3.31.068.92.067 3.422.134-5.116.134 2.682.067.191.134-3.054.067 5.772.067-1.939.066.567.201-3.413.067-.064.201 2.25.067-2.273.067.322.067-1.004.067.298.067 1.39.067-.812.067-1.273.134 2.862.134-4.169.067 1.74.067-.212.067-.154.067.184.067 1.75.067-2.314.134 2.824.067-.349.067-2.344.067 1.001.067.032.067-2.633.134 4.574.067-4.19.134 5.407.067-4.757.067 2.203.067-1.1.067 1.877.067-.044.134-4.065.067.926.067-.01.067.489.067 1.385.067-1.047.067.097.134 2.188.067-2.656.067.4.067 1.819.067-2.6.067 2.88.134-4.444.134 2.263.067-.883.067 1.394.067-2.212.067 1.625.067-.832.067-1.653.067 3.213.067-1.474.134-1.985.067-.07.134 1.697.067-.118.067-.775.066.614.067 1.65.067-.355.134-3.295.067 1.472.067 1.603.067-.5.067.867.067-2.755.067 1.773.067-2.1.134 2.543.067-.434.201-3.5.201 5.67.134-5.173.134 3.422.067-1.417.067 1.431.201-3.797.067 4.696.067-3.76.067 1.763.134-3.041.067 3.482.067-1.26.067-.086.067 1.9.134-3.161.067.47.067-.297.067-1.144.067 4.028.067-1.921.067-1.836.067 1.091.067.477.067-2.253.067 3.864.067-3.592.067.503.134-1.227.067 3.636.067-2.79.067 1.917.067-3.285.067 3.76.067-3.322.067 2.488.067-2.24.067.58.067-.458.067-1.509.067.528.067-.64.067.41.067-.579.134 3.966.134-5.123.067 2.289.067-1.531.133 4.166.067-1.014.134-4.139.067 3.14.134-4.061.134 2.26.067-.616.067 8.369.067-7.226.067 2.947.067-4.979.067 1.151.067.734.134-3.524.067 1.032.067 2.755.067-1.766.067-.043.134 2.898.201-4.068.067.478.067 5.981.067-3.794.067-5.912.067 6.148.067-3.564.067 3.155.067-5.152.067 4.773.067-1.852.067-.068.067-3.425.067.948.2 5.948.068-7.948.067 4.613.134-.473.067-.784.134 3.097.134-4.028.067-.416.067-2.71.067 6.016.067-3.906.134 5.035.067-2.833.067 2.427.067-.045.067-.408.067-3.218.067 1.162.067-1.877.067.25.067-.295.067 1.423.134-4.132.067.97.067 4.439.067-3.977.067.683.066 4.181.067-2.752.067.7.067-3.996.067 5.504.067-1.523.067-6.553.067 2.113.067 1.808.067-4.799.067 6.914.067-3.067.067-.38.067 3.306.134-6.425.201 4.328.067 13.77.067-19.62.067 5.571.067-.885.067 1.458.067-1.724.067 3.762.201-7.595.067 3.016.067-3.938.067 4.216.067-1.143.067-1.437.067 6.749.067-7.508.067 1.675.067-2.519.067 2.568.067-1.023.067.631.067 2.18.067-4.169.067 1.08.067.354.067-1.87.067 6.163.067-8.483.067 4.484.067-3.11.067 1.07.067.381.067 1.71.067-4.58.067 5.176.067-2.837.067.475.2-4.224.068 4.54.067-1.787.067.17.067-1.702.067 5.47.067-10.149.067 6.4.067-5.6.067 8.527.067-7.26.067 6.213.067-10.08.067 9.417.067-7.255.067 7.273.067-8.642.066 6.993.067-9.099.067 6.628.067-7.893.067 11.53.067-10.968.067 10.433.067-12.09.067 11.806.067-13.754.067 13.361.067-14.164.067 12.363.067-13.905.067 18.061.067-17.938.067 14.53.067-17.167.067 19.715.067-20.58.067 24.02.067-24.73.067 25.843.067-26.703.067 21.049.067-22.798.067 37.064.067-39.537.067 68.263.067-69.342.067 46.413.067-48.53.067 40.518.067-41.511.067 29.706.067-30.84.067 30.31.067-31.63.067 27.021.067-28.782.067 29.055.067-31.355.067 28.04.067-29.942.067 30.645.067-34.043.067 33.018.067-37.033.067 38.022.067-43.653.067 43.244.067-51.317.067 52.682.134-76.696.067 6.966.067 69.73.067-52.682.067 51.317.067-43.244.067 43.653.067-38.022.067 37.033.067-33.018.067 34.043.067-30.645.067 29.943.067-28.04.067 31.354.067-29.055.067 28.782.067-27.022.067 31.632.067-30.311.067 30.84.067-29.706.066 41.511.067-40.518.067 48.53.067-46.413.067 69.342.067-68.263.067 39.537.067-37.064.067 22.798.067-21.05.067 26.704.067-25.843.067 24.73.067-24.02.067 20.58.067-19.715.067 17.167.067-14.53.067 17.938.067-18.061.067 13.905.067-12.363.067 14.164.067-13.36.067 13.753.067-11.807.067 12.09.067-10.432.067 10.969.067-11.53.067 7.892.067-6.628.067 9.099.067-6.993.067 8.642.067-7.273.067 7.255.067-9.418.067 10.08.067-6.211.067 7.259.067-8.527.067 5.6.067-6.4.067 10.148.067-5.469.2 3.32.068-4.541.067.19.268 6.396.067-5.176.067 4.58.067-1.71.067-.38.067-1.07.067 3.11.067-4.485.067 8.483.067-6.164.067 1.87.067-.352.067-1.081.067 4.168.067-2.179.067-.63.067 1.022.067-2.568.067 2.519.067-1.675.067 7.508.067-6.749.066 1.437.067 1.143.067-4.216.067 3.938.067-3.016.201 7.595.067-3.762.067 1.724.201-6.145.067 19.622.134-16.385.067.944.067-2.658.134 6.425.067-3.305.067.379.067 3.067.067-6.914.067 4.799.067-1.808.067-2.113.134 8.076.067-5.504.201 6.048.134-4.864.067 3.977.134-5.409.134 4.132.067-1.423.067.295.067-.25.2 3.933.135.453.067-2.427.067 2.833.134-5.035.067 3.906.067-6.016.067 2.71.134.423.067 4.021.067-.675.067-2.422.067.784.134.473.067-4.613.067 7.948.067-2.48.2-4.416.202 5.345.067-4.773.067 5.152.067-3.155.066 3.564.067-6.148.134 9.706.134-6.459.201 4.068.134-2.898.067.043.067 1.766.134-3.787.067.368.067 3.156.067-.734.067-1.15.201 9.257.067-8.369.067.617.067-.197.067-2.064.134 4.061.067-3.14.067 1.94.134 3.213.134-4.166.067 1.53.067-2.288.134 5.123.067-2.34.067-1.626.067.58.067-.411.067.64.067-.528.134 1.968.067-.58.067 2.239.067-2.488.067 3.322.067-3.76.067 3.285.067-1.918.067 2.791.067-3.636.067.55.067.677.067-.503.067 3.592.067-3.864.067 2.253.134-1.568.134 3.757.067-4.028.067 1.144.067.296.067-.47.134 3.163.067-1.9.067.085.067 1.26.067-3.482.067 2.124.066.917.067-1.764.067 3.76.067-4.695.067 1.09.134 2.707.134-.014.067-.496.067-2.926.134 5.173.067-4.533.067.742.067-1.878.201 3.5.067.433.067-.376.067-2.167.067 2.1.067-1.773.067 2.755.067-.868.067.501.134-3.075.201 3.65.134-2.264.134.893.134-1.697.067.07.067.27.134 3.189.067-3.213.067 1.653.067.832.067-1.625.067 2.212.067-1.394.067.883.134-2.263.134 4.444.067-2.88.067 2.6.134-2.22.067 2.657.067-1.584.134-.7.067 1.046.134-1.874.067.01.067-.926.2 4.109.202-2.98.067 4.757.067-1.62.067-3.787.067 4.19.066-.716.067-3.858.067 2.633.067-.032.067-1.001.134 2.693.134-2.824.067 2.314.134-1.934.134.366.067-1.74.134 4.169.067-.817.067-2.045.067 1.273.067.813.134-1.689.201 2.956.201-2.251.067.064.201 3.413.067-.567.067 1.94.067-5.773.067 1.19.067 1.864.067-.191.067-.199.067-2.483.067 1.415.067 3.7.134-4.342.067.105.134 3.206.067-.288.067-2.641.067 5.937.067-7.56.067 1.988.067.93.067-2.072.2 2.768.068 1.37.067-2.617.067.94.134-2.91.134 3.933.067-1.016.067 2.758.067-.182.067-2.357.067 3.159.067-1.845.067-.038.134-3.135.2 5.99.067-3.576.067.901.067 2.787.201-4.646.067 3.553.067-1.015.067-2.502.067 2.83.067-.765.067-3.216.134 5.733.067-.463.067-4.589.067 2.29.134-2.018.067 1.898.067-.047.067-.506.067 5.237.067-3.45.067-.65.067 2.145.067-6.305.067 1.754.134 3.21.067-2.017.067 4.188.201-5.542.134 2.276.067 6.377.067-4.19.067.292.2-5.719.202 5.347.134-4.151.067 3.92.067-2.204.067-1.318.134 2.361.134-3.428.067 4.386.067-.708.067-2.17.067 1.198.067.971.2-2.905.068-.586.067 3.556.067-2.031.067-2.829.067 6.118.067-6.53.067 12.247.067-4.638.067-3.583.2 4.4.067-3.481.067.242.067-.543.067 2.534.201-3.947.067 2.401.067-1.723.067 1.59.067-2.006.134 3.454.067-2.244.067 1.595.067-4.879.201 5.13.067-2.576.067.08.134.638.067-15.895.067 18.354.067-2.19.067 2.201.067-2.557.067 4.386.067-.72.067-.237.067-3.957.067 4.695.067-1.88.134-1.94.067 3.704.134-3.606.067-.012.134 1.615.067-1.266.067 2.783.067-.429.134-2.836.067 2.017.067-1.41.067 2.587.067-3.333.067 2.106.134-2.837.2 4.037.068-.814.067 1.282.2-3.945.135 4.174.134-3.547.134 4.713.067-.756.067-3.874.067 3.039.067-2.286.067 1.411.067.541.067-.13.2-1.8.067 3.34.067-2.158.067 2.478.134-3.822.067.245.067 2.57.067-2.07.067 1.989.067-3.049.134 3.851.067-.43.067-1.708.067 2.972.134-3.837.067-.534.067.622.067-.04.067 4.044.067-2.486.067-.195.067 2.384.067-.064.067-2.727.067.736.067 1.924.067-1.211.067.201.067-2.76.067.503.067.26.067-.785.067.369.067 2.46.067-.992.2-1.459.135 6.446.067-5.348.067.694.067-.372.067-1.4.067.738.067.105.134 1.59.067 4.393.067-7.215.067.357.067 1.581.067-.992.067-.202.067 4.884.067-1.92.134-2.243.067-4.809.067 5.54.067-.56.067 1.297.067-1.051.067 4.028.067-7.774.067 3.618.067 1.335.067-4.08.067 1.724.067 4.561.067-1.177.066-3.416.134 4.794.067-.943.134-3.8.067 2.233.067-1.17.067 1.87.134-2.813.134 5.935.067-5.35.067.64.268 4.026.201-4.783.067 3.114.067-4.236.134 3.497.067.24.201 3.927.067-5.675.067 2.625.134-3.478.067 4.29.067-.862.134-3.928.067.644.134 4.101.134-4.216.2 3.742.068-7.084.067 4.238.067 4.8.134-9.47.2 9.886.068-3.854.067 1.657.067-1.79.067 6.18.067-8.835.067 2.043.067-.563.067 3.943.134-6.023.067 6.208.067-5.64.067 5.98.067-5.28.067 3.229.067.366.134-4.975.067 5.187.067-4.67.2 7.007.134-3.218.067 1.583.067-4.078.067 4.787.067-4.553.067 1.819.067-2.175.067 3.68.067-1.767.067.964.067-2.417.067 4.974.134-5.681.134 7.603.134-8.278.067 7.405.067-2.654.067.924.134-3.426.067 5.216.067-4.548.067 2.609.067-.264.067-1.683.067 2.693.067-2.773.067 2.787.067-1.238.134-4.427.067 2.295.067-.07.067.52.067 7.61.134-9.08.067 2.636.067-.656.134-2.655.134 4.004.067-3.039.067 1.68.067-.54.067-3.401.134 7.18.067-4.996.067.085.067 4.874.067-5.108.067 4.345.067-5.832.067 2.564.067 1.316.067-2.038.067.485.067 2.751.134-4.663.134 2.368.067 5.164.067-3.37.067-.43.067.136.067.044.067-3.615.066 6.594.067-4.828.067 2.2.067-3.283.067 2.65.067-.347.067-1.029.067-3.415.067 4.906.067-4.47.067 6.993.067-2.817.067-.133.067 5.375.067-6.344.067.447.201-2.554.067-.229.201 6.397.067-5.307.067 4.898.067-.708.134-5.515.134 5.375.067-2.55.067-.298.134 4.126.134-4.022.134 7.142.067-7.512.067 2.177.134 1.931.067-2.833.067.315.067 3.362.134-7.52.067 3.7.067-2.895.067 5.545.067-5.911.067 2.794.067 3.18.067-5 .067 3.206.2-1.974.068 3.938.067-2.95.067 1.743.067.03.067.24.067-2.774.067 2.285.067-2.44.134 5.833.134-2.021.134 2.588.067-1.109.134-5.307.067 2.67.066-2.557.067.434.067.568.067 7.127.067-1.2.067-6.809.067 3.146.067-3.085.067 1.59.067.323.067-.919.067-3.608.067 5.11.067-3.24.067.228.067-.26.067 3.388.067-1.836.201 1.316.067 4.336.067-5.706.067 5.056.067-2.553.067-3.387.067 3.037.067-2.241.067 2.492.067-1.633.067.357.067-.59.067-2.486.201 3.039.067.333.067.96.067-2.222.067 5.546.067-2.336.067-.86.2-4.798.336 4.854.067-.867.067 5.096.067-4.682.067 3.611.067-4.56.067 1.623.067-2.807.067 2.496.067-4.552.067 2.49.067 1.681.067-1.995.067.09.067 2.573.067-2.929.067.112.067.482.067 3.867.067-7.07.067 8.48.067-2.035.067.896.067-1.474.067-4.707.067.784.133 1.49.067-.952.067 4.059.067-.846.134-4.626.067 4.14.067-2.43.067 1.446.067 6.944.067-7.187.067 1.339.067-1.827.067.488.134-.8.067-.949.067 3.666.067-4.839.067 2.042.067 2.622.067-.57.067 1.139.134-3.317.201 4.697.067-5.01.067 4.325.067-2.646.067 2.026.134-2.956.067.095.067 7.226.067-4.758.067-3.196.134 2.667.067-.172.067 1.555.067-3.062.067.343.134 4.219.2-7.752.135 6.178.067-1.282.067-.048.067-.913.067.7.134-1.597.2 3.437.068-1.117.067-3.525.067 2.118.067-1.594.067 7.969.067-9.285.067 5.455.067-3.608.067 3.449.067-20.317.067 21.206.067-3.632.067 3.101.067-4.118.067 6.142.066-4.668.067.968.067-1.921.067 2.03.067-3.147.067.714.268 4.716.067-6.94.067 6.695.067-5.306.067 7.35.067-7.666.067 3.782.067-.93.067 1.631.201-2.99.067 1.451.067-.813.067.53.067-.418.067 3.036.067-2.554.067 3.543.067-.692.134-3.736.201 5.202.067-4.676.067 1.164.067-2.731.067 3.24.067-2.028.067 2.119.067-2.426.067 3.277.067-4.439.067 4.159.067-2.417.067 2.055.067-2.13.067.324.067-.427.067 2.645.067-1.041.134-1.18.067.966.067 2.844.067-6.761.067 2.878.067 1.707.134-3.382.067 4.379.067-2.984.067 1.61.067.873.2-4.343.202 5.386.067-3.507.067.483.067 2.317.134-5.515.067 6.15.066-1.376.134-1.845.067 1.183.067-1.587.067 1.391.067-2.213.067 3.367.067-2.267.067.205.067.051.067 2.851.067-2.105.067 4.488.067-3.892.067.997.201-5.074.201 4.82.067-2.547.067 7.647.134-5.828.067-1.784.067 2.446.067-3.207.067 3.048.067-1.926.067.147.067.488.067-2.716.134 3.852.067-3.12.067 5.878.067-2.633.067-3.032.067 4.079.067-2.407.134-.49.067 2.99.067-4.105.067 1.395.134 3.28.067-5.47.067 1.474.067.28.067-1.424.2 4.408.068-7.37.067 8.352.067-2.274.067 2.76.067-2.533.067.045.067 4.085.2-4.656.068-.84.067.483.067 1.628.067-3.638.067 6.311.067-2.115.067-1.548.067 2.037.067-3.865.067 4.404.066-5.41.067 2.178.067 1.054.067-.752.067 2.482.067-1.085.134-5.94.134 4.698.201-4.307.067 2.092.067-.327.067-1.27.134 1.598.134 4.79.067-6.703.067 2.185.067 4.043.067-.646.067.455.067-4.367.067 5.23.067-.113.134-8.593.067 8.392.067-3.43.134-4.396.067 9.988.067-8.1.067.975.067-2.79.067 8.428.067-4.772.067-.552.067-1.536.067 3.525.067-1.004.067-4.008.067 5.085.067-.777.067-2.379.2 8.073.068-5.558.067.21.134-1.223.067 2.335.067-.05.2-2.2.068 2.075.067-4.74.134 5.364.067-3.304.067 1.101.067 2.133.067-2.272.067 3.017.067-.546.134-4.223.067 1.276.067 4.269.067-1.937.066-1.36.067.15.134.723.201-2.507.134 1.896.067-3.096.067 8.52.134-8.127.067.486.067 3.928.134-2.768" clip-path="url(#p900acc38f1)" style="fill:none;stroke-dasharray:3.7,1.6;stroke-dashoffset:0;stroke:red"/><path id="patch_3" d="M30.184 144.443V5.843" style="fill:none;stroke:#000;stroke-width:.5;stroke-linejoin:miter;stroke-linecap:square"/><path id="patch_4" d="M214.324 144.443V5.843" style="fill:none;stroke:#000;stroke-width:.5;stroke-linejoin:miter;stroke-linecap:square"/><path id="patch_5" d="M30.184 144.443h184.14" style="fill:none;stroke:#000;stroke-width:.5;stroke-linejoin:miter;stroke-linecap:square"/><path id="patch_6" d="M30.184 5.843h184.14" style="fill:none;stroke:#000;stroke-width:.5;stroke-linejoin:miter;stroke-linecap:square"/></g></g><defs><clipPath id="p900acc38f1"><path d="M30.184 5.843h184.14v138.6H30.184z"/></clipPath></defs></svg>