<svg xmlns="http://www.w3.org/2000/svg" xmlns:xlink="http://www.w3.org/1999/xlink" width="290.566" height="223.411" viewBox="0 0 217.924 167.558"><defs><style>*{stroke-linejoin:round;stroke-linecap:butt}</style></defs><g id="figure_1"><path id="patch_1" d="M0 167.558h217.924V0H0z" style="fill:none"/><g id="axes_1"><path id="patch_2" d="M30.184 142.2h184.14V3.6H30.184z" style="fill:none"/><g id="matplotlib.axis_1"><g id="xtick_1"><g id="line2d_1"><defs><path id="me47fc0f7df" d="M0 0v-3" style="stroke:#000;stroke-width:.5"/></defs><use xlink:href="#me47fc0f7df" x="55.301" y="142.2" style="stroke:#000;stroke-width:.5"/></g><g id="line2d_2"><defs><path id="m150590eccc" d="M0 0v3" style="stroke:#000;stroke-width:.5"/></defs><use xlink:href="#m150590eccc" x="55.301" y="3.6" style="stroke:#000;stroke-width:.5"/></g><g id="text_1" transform="matrix(.08 0 0 -.08 47.116 151.104)"><defs><path id="CMSY10-0" d="M4218 1472c108 0 224 0 224 128s-116 128-224 128H755c-109 0-224 0-224-128s115-128 224-128z" transform="scale(.01563)"/><path id="NimbusRomNo9L-Regu-30" d="M1626 4352c-352 0-621-108-858-332-371-359-614-1095-614-1844 0-697 211-1446 512-1804C902 90 1229-64 1600-64c326 0 602 109 832 333 371 352 614 1095 614 1869 0 1312-582 2214-1420 2214m-20-166c538 0 826-723 826-2061 0-1337-282-2022-832-2022S768 788 768 2119c0 1357 288 2067 838 2067" transform="scale(.01563)"/><path id="CMMI10-3a" d="M1229 338c0 184-154 337-339 337-186 0-340-153-340-337C550 153 704 0 890 0c185 0 339 153 339 338" transform="scale(.01563)"/><path id="NimbusRomNo9L-Regu-34" d="M3021 1497h-653v2855h-282L77 1497v-409h1798V32h493v1056h653zm-1152 0H333l1536 2201z" transform="scale(.01563)"/></defs><use xlink:href="#CMSY10-0" transform="scale(.99626)"/><use xlink:href="#NimbusRomNo9L-Regu-30" transform="matrix(.99626 0 0 .99626 77.409 0)"/><use xlink:href="#CMMI10-3a" transform="matrix(.99626 0 0 .99626 127.222 0)"/><use xlink:href="#NimbusRomNo9L-Regu-34" transform="matrix(.99626 0 0 .99626 154.817 0)"/></g></g><g id="xtick_2"><use xlink:href="#me47fc0f7df" id="line2d_3" x="88.794" y="142.2" style="stroke:#000;stroke-width:.5"/><use xlink:href="#m150590eccc" id="line2d_4" x="88.794" y="3.6" style="stroke:#000;stroke-width:.5"/><g id="text_2" transform="matrix(.08 0 0 -.08 80.61 151.104)"><defs><path id="NimbusRomNo9L-Regu-32" d="m3040 875-83 32c-237-363-320-421-608-421H819l1075 1123c570 593 820 1078 820 1576 0 638-519 1128-1184 1128-352 0-685-140-922-395-205-218-301-422-410-875l135-32c256 625 486 829 928 829 537 0 902-364 902-900 0-497-294-1090-832-1658L192 77V0h2496z" transform="scale(.01563)"/></defs><use xlink:href="#CMSY10-0" transform="scale(.99626)"/><use xlink:href="#NimbusRomNo9L-Regu-30" transform="matrix(.99626 0 0 .99626 77.409 0)"/><use xlink:href="#CMMI10-3a" transform="matrix(.99626 0 0 .99626 127.222 0)"/><use xlink:href="#NimbusRomNo9L-Regu-32" transform="matrix(.99626 0 0 .99626 154.817 0)"/></g></g><g id="xtick_3"><use xlink:href="#me47fc0f7df" id="line2d_5" x="122.288" y="142.2" style="stroke:#000;stroke-width:.5"/><use xlink:href="#m150590eccc" id="line2d_6" x="122.288" y="3.6" style="stroke:#000;stroke-width:.5"/><g id="text_3" transform="matrix(.08 0 0 -.08 117.199 151.104)"><use xlink:href="#NimbusRomNo9L-Regu-30" transform="scale(.99626)"/><use xlink:href="#CMMI10-3a" transform="matrix(.99626 0 0 .99626 49.813 0)"/><use xlink:href="#NimbusRomNo9L-Regu-30" transform="matrix(.99626 0 0 .99626 77.409 0)"/></g></g><g id="xtick_4"><use xlink:href="#me47fc0f7df" id="line2d_7" x="155.781" y="142.2" style="stroke:#000;stroke-width:.5"/><use xlink:href="#m150590eccc" id="line2d_8" x="155.781" y="3.6" style="stroke:#000;stroke-width:.5"/><g id="text_4" transform="matrix(.08 0 0 -.08 150.692 151.104)"><use xlink:href="#NimbusRomNo9L-Regu-30" transform="scale(.99626)"/><use xlink:href="#CMMI10-3a" transform="matrix(.99626 0 0 .99626 49.813 0)"/><use xlink:href="#NimbusRomNo9L-Regu-32" transform="matrix(.99626 0 0 .99626 77.409 0)"/></g></g><g id="xtick_5"><use xlink:href="#me47fc0f7df" id="line2d_9" x="189.275" y="142.2" style="stroke:#000;stroke-width:.5"/><use xlink:href="#m150590eccc" id="line2d_10" x="189.275" y="3.6" style="stroke:#000;stroke-width:.5"/><g id="text_5" transform="matrix(.08 0 0 -.08 184.186 151.104)"><use xlink:href="#NimbusRomNo9L-Regu-30" transform="scale(.99626)"/><use xlink:href="#CMMI10-3a" transform="matrix(.99626 0 0 .99626 49.813 0)"/><use xlink:href="#NimbusRomNo9L-Regu-34" transform="matrix(.99626 0 0 .99626 77.409 0)"/></g></g><g id="xtick_6"><g id="line2d_11"><defs><path id="mcc61f031f0" d="M0 0v-1.5" style="stroke:#000;stroke-width:.5"/></defs><use xlink:href="#mcc61f031f0" x="38.554" y="142.2" style="stroke:#000;stroke-width:.5"/></g><g id="line2d_12"><defs><path id="m34b25e7819" d="M0 0v1.5" style="stroke:#000;stroke-width:.5"/></defs><use xlink:href="#m34b25e7819" x="38.554" y="3.6" style="stroke:#000;stroke-width:.5"/></g></g><g id="xtick_7"><use xlink:href="#mcc61f031f0" id="line2d_13" x="46.928" y="142.2" style="stroke:#000;stroke-width:.5"/><use xlink:href="#m34b25e7819" id="line2d_14" x="46.928" y="3.6" style="stroke:#000;stroke-width:.5"/></g><g id="xtick_8"><use xlink:href="#mcc61f031f0" id="line2d_15" x="63.674" y="142.2" style="stroke:#000;stroke-width:.5"/><use xlink:href="#m34b25e7819" id="line2d_16" x="63.674" y="3.6" style="stroke:#000;stroke-width:.5"/></g><g id="xtick_9"><use xlink:href="#mcc61f031f0" id="line2d_17" x="72.048" y="142.2" style="stroke:#000;stroke-width:.5"/><use xlink:href="#m34b25e7819" id="line2d_18" x="72.048" y="3.6" style="stroke:#000;stroke-width:.5"/></g><g id="xtick_10"><use xlink:href="#mcc61f031f0" id="line2d_19" x="80.421" y="142.2" style="stroke:#000;stroke-width:.5"/><use xlink:href="#m34b25e7819" id="line2d_20" x="80.421" y="3.6" style="stroke:#000;stroke-width:.5"/></g><g id="xtick_11"><use xlink:href="#mcc61f031f0" id="line2d_21" x="97.168" y="142.2" style="stroke:#000;stroke-width:.5"/><use xlink:href="#m34b25e7819" id="line2d_22" x="97.168" y="3.6" style="stroke:#000;stroke-width:.5"/></g><g id="xtick_12"><use xlink:href="#mcc61f031f0" id="line2d_23" x="105.541" y="142.2" style="stroke:#000;stroke-width:.5"/><use xlink:href="#m34b25e7819" id="line2d_24" x="105.541" y="3.6" style="stroke:#000;stroke-width:.5"/></g><g id="xtick_13"><use xlink:href="#mcc61f031f0" id="line2d_25" x="113.914" y="142.2" style="stroke:#000;stroke-width:.5"/><use xlink:href="#m34b25e7819" id="line2d_26" x="113.914" y="3.6" style="stroke:#000;stroke-width:.5"/></g><g id="xtick_14"><use xlink:href="#mcc61f031f0" id="line2d_27" x="130.661" y="142.2" style="stroke:#000;stroke-width:.5"/><use xlink:href="#m34b25e7819" id="line2d_28" x="130.661" y="3.6" style="stroke:#000;stroke-width:.5"/></g><g id="xtick_15"><use xlink:href="#mcc61f031f0" id="line2d_29" x="139.034" y="142.2" style="stroke:#000;stroke-width:.5"/><use xlink:href="#m34b25e7819" id="line2d_30" x="139.034" y="3.6" style="stroke:#000;stroke-width:.5"/></g><g id="xtick_16"><use xlink:href="#mcc61f031f0" id="line2d_31" x="147.408" y="142.2" style="stroke:#000;stroke-width:.5"/><use xlink:href="#m34b25e7819" id="line2d_32" x="147.408" y="3.6" style="stroke:#000;stroke-width:.5"/></g><g id="xtick_17"><use xlink:href="#mcc61f031f0" id="line2d_33" x="164.155" y="142.2" style="stroke:#000;stroke-width:.5"/><use xlink:href="#m34b25e7819" id="line2d_34" x="164.155" y="3.6" style="stroke:#000;stroke-width:.5"/></g><g id="xtick_18"><use xlink:href="#mcc61f031f0" id="line2d_35" x="172.528" y="142.2" style="stroke:#000;stroke-width:.5"/><use xlink:href="#m34b25e7819" id="line2d_36" x="172.528" y="3.6" style="stroke:#000;stroke-width:.5"/></g><g id="xtick_19"><use xlink:href="#mcc61f031f0" id="line2d_37" x="180.901" y="142.2" style="stroke:#000;stroke-width:.5"/><use xlink:href="#m34b25e7819" id="line2d_38" x="180.901" y="3.6" style="stroke:#000;stroke-width:.5"/></g><g id="xtick_20"><use xlink:href="#mcc61f031f0" id="line2d_39" x="197.648" y="142.2" style="stroke:#000;stroke-width:.5"/><use xlink:href="#m34b25e7819" id="line2d_40" x="197.648" y="3.6" style="stroke:#000;stroke-width:.5"/></g><g id="xtick_21"><use xlink:href="#mcc61f031f0" id="line2d_41" x="206.021" y="142.2" style="stroke:#000;stroke-width:.5"/><use xlink:href="#m34b25e7819" id="line2d_42" x="206.021" y="3.6" style="stroke:#000;stroke-width:.5"/></g><g id="text_6" transform="matrix(.08 0 0 -.08 109.753 162.233)"><defs><path id="NimbusRomNo9L-Regu-66" d="M1978 2880h-788v731c0 367 122 562 365 562 135 0 224-63 339-246 103-164 180-227 288-227 148 0 269 114 269 259 0 229-281 393-665 393-397 0-736-171-903-461-166-278-217-506-224-1011H134v-205h525V656c0-471-70-547-531-547V0h1664v109c-525 0-595 71-595 552v2014h781z" transform="scale(.01563)"/><path id="NimbusRomNo9L-Regu-28" d="M1888 4326c-474-307-666-473-902-768-455-556-679-1196-679-1945 0-813 237-1440 800-2093 263-307 429-448 762-653l77 103c-512 403-692 627-864 1107-154 429-224 915-224 1555 0 672 83 1197 256 1594 179 396 371 627 832 998z" transform="scale(.01563)"/><path id="NimbusRomNo9L-Regu-47" d="M4538 2304H2906v-128c275 0 352-19 428-71 96-58 135-207 135-484V574c0-207-391-382-851-382-1044 0-1684 730-1684 1920 0 602 180 1184 461 1498 282 314 679 486 1114 486 358 0 672-121 921-352 192-179 295-352 455-742h147l-51 1350h-141c-38-121-154-211-288-211-64 0-166 19-282 64-288 96-582 147-870 147-1280 0-2195-940-2195-2246 0-627 173-1107 531-1485C1165 180 1779-64 2483-64c551 0 1351 224 1607 449v1309c0 379 76 463 448 495z" transform="scale(.01563)"/><path id="NimbusRomNo9L-Regu-48" d="M1338 2304v1229c0 457 70 526 563 571v120H122v-120c492-45 563-115 563-577V749c0-539-64-615-563-615V0h1779v121c-480 38-563 121-563 578v1323h1939V757c0-546-64-623-563-623V0h1779v121c-480 38-563 121-563 575v2833c0 460 70 530 563 575v120H2714v-120c492-45 563-114 563-571V2304z" transform="scale(.01563)"/><path id="NimbusRomNo9L-Regu-7a" d="m2675 864-115 26c-64-320-102-423-186-532-89-108-307-166-633-166H858l1721 2592v96H358l-19-755h115c58 467 154 563 538 563h883L173 96V0h2413z" transform="scale(.01563)"/><path id="NimbusRomNo9L-Regu-29" d="M243-1133c474 307 666 474 903 768 454 557 678 1197 678 1946 0 819-237 1440-800 2093-262 307-429 448-762 652l-76-102c512-403 684-627 864-1107 153-429 224-915 224-1555 0-666-84-1197-256-1588-180-403-372-633-832-1004z" transform="scale(.01563)"/></defs><use xlink:href="#NimbusRomNo9L-Regu-66" transform="scale(.99626)"/><use xlink:href="#NimbusRomNo9L-Regu-28" transform="matrix(.99626 0 0 .99626 58.082 0)"/><use xlink:href="#NimbusRomNo9L-Regu-47" transform="matrix(.99626 0 0 .99626 91.257 0)"/><use xlink:href="#NimbusRomNo9L-Regu-48" transform="matrix(.99626 0 0 .99626 163.187 0)"/><use xlink:href="#NimbusRomNo9L-Regu-7a" transform="matrix(.99626 0 0 .99626 235.117 0)"/><use xlink:href="#NimbusRomNo9L-Regu-29" transform="matrix(.99626 0 0 .99626 279.35 0)"/></g></g><g id="matplotlib.axis_2"><g id="ytick_1"><g id="line2d_43"><defs><path id="m8866761c50" d="M0 0h3" style="stroke:#000;stroke-width:.5"/></defs><use xlink:href="#m8866761c50" x="30.184" y="136.756" style="stroke:#000;stroke-width:.5"/></g><g id="line2d_44"><defs><path id="m66a0afd918" d="M0 0h-3" style="stroke:#000;stroke-width:.5"/></defs><use xlink:href="#m66a0afd918" x="214.324" y="136.756" style="stroke:#000;stroke-width:.5"/></g><use xlink:href="#NimbusRomNo9L-Regu-30" id="text_7" transform="matrix(.0797 0 0 -.0797 22.7 139.458)"/></g><g id="ytick_2"><use xlink:href="#m8866761c50" id="line2d_45" x="30.184" y="118.518" style="stroke:#000;stroke-width:.5"/><use xlink:href="#m66a0afd918" id="line2d_46" x="214.324" y="118.518" style="stroke:#000;stroke-width:.5"/><g id="text_8" transform="matrix(.08 0 0 -.08 18.714 121.22)"><defs><path id="NimbusRomNo9L-Regu-35" d="M1158 3776h1255c102 0 128 13 147 58l243 569-57 45c-96-134-160-166-295-166H1114L416 2759c-6-13-6-19-6-32 0-32 25-51 76-51 205 0 461-45 724-129 736-238 1075-637 1075-1273 0-618-391-1101-890-1101-128 0-237 45-429 187-204 148-352 212-486 212-186 0-275-77-275-238C205 90 506-64 986-64c537 0 998 174 1318 502 294 290 429 656 429 1145 0 463-122 759-442 1080-281 284-646 431-1401 566z" transform="scale(.01563)"/></defs><use xlink:href="#NimbusRomNo9L-Regu-32" transform="scale(.99626)"/><use xlink:href="#NimbusRomNo9L-Regu-35" transform="matrix(.99626 0 0 .99626 49.813 0)"/></g></g><g id="ytick_3"><use xlink:href="#m8866761c50" id="line2d_47" x="30.184" y="100.28" style="stroke:#000;stroke-width:.5"/><use xlink:href="#m66a0afd918" id="line2d_48" x="214.324" y="100.28" style="stroke:#000;stroke-width:.5"/><g id="text_9" transform="matrix(.08 0 0 -.08 18.714 102.982)"><use xlink:href="#NimbusRomNo9L-Regu-35" transform="scale(.99626)"/><use xlink:href="#NimbusRomNo9L-Regu-30" transform="matrix(.99626 0 0 .99626 49.813 0)"/></g></g><g id="ytick_4"><use xlink:href="#m8866761c50" id="line2d_49" x="30.184" y="82.042" style="stroke:#000;stroke-width:.5"/><use xlink:href="#m66a0afd918" id="line2d_50" x="214.324" y="82.042" style="stroke:#000;stroke-width:.5"/><g id="text_10" transform="matrix(.08 0 0 -.08 18.714 84.744)"><defs><path id="NimbusRomNo9L-Regu-37" d="M2874 4250H506l-378-940 109-52c275 435 390 518 742 518h1389L1101-32h416l1357 4180z" transform="scale(.01563)"/></defs><use xlink:href="#NimbusRomNo9L-Regu-37" transform="scale(.99626)"/><use xlink:href="#NimbusRomNo9L-Regu-35" transform="matrix(.99626 0 0 .99626 49.813 0)"/></g></g><g id="ytick_5"><use xlink:href="#m8866761c50" id="line2d_51" x="30.184" y="63.804" style="stroke:#000;stroke-width:.5"/><use xlink:href="#m66a0afd918" id="line2d_52" x="214.324" y="63.804" style="stroke:#000;stroke-width:.5"/><g id="text_11" transform="matrix(.08 0 0 -.08 14.73 66.506)"><defs><path id="NimbusRomNo9L-Regu-31" d="M1862 4339 710 3757v-90c77 32 148 58 173 71 115 45 224 70 288 70 135 0 192-97 192-303V592c0-213-51-360-153-419-96-57-186-77-455-77V0h1767v96c-506 0-608 64-608 374v3857z" transform="scale(.01563)"/></defs><use xlink:href="#NimbusRomNo9L-Regu-31" transform="scale(.99626)"/><use xlink:href="#NimbusRomNo9L-Regu-30" transform="matrix(.99626 0 0 .99626 49.813 0)"/><use xlink:href="#NimbusRomNo9L-Regu-30" transform="matrix(.99626 0 0 .99626 99.626 0)"/></g></g><g id="ytick_6"><use xlink:href="#m8866761c50" id="line2d_53" x="30.184" y="45.566" style="stroke:#000;stroke-width:.5"/><use xlink:href="#m66a0afd918" id="line2d_54" x="214.324" y="45.566" style="stroke:#000;stroke-width:.5"/><g id="text_12" transform="matrix(.08 0 0 -.08 14.73 48.268)"><use xlink:href="#NimbusRomNo9L-Regu-31" transform="scale(.99626)"/><use xlink:href="#NimbusRomNo9L-Regu-32" transform="matrix(.99626 0 0 .99626 49.813 0)"/><use xlink:href="#NimbusRomNo9L-Regu-35" transform="matrix(.99626 0 0 .99626 99.626 0)"/></g></g><g id="ytick_7"><use xlink:href="#m8866761c50" id="line2d_55" x="30.184" y="27.328" style="stroke:#000;stroke-width:.5"/><use xlink:href="#m66a0afd918" id="line2d_56" x="214.324" y="27.328" style="stroke:#000;stroke-width:.5"/><g id="text_13" transform="matrix(.08 0 0 -.08 14.73 30.03)"><use xlink:href="#NimbusRomNo9L-Regu-31" transform="scale(.99626)"/><use xlink:href="#NimbusRomNo9L-Regu-35" transform="matrix(.99626 0 0 .99626 49.813 0)"/><use xlink:href="#NimbusRomNo9L-Regu-30" transform="matrix(.99626 0 0 .99626 99.626 0)"/></g></g><g id="ytick_8"><use xlink:href="#m8866761c50" id="line2d_57" x="30.184" y="9.09" style="stroke:#000;stroke-width:.5"/><use xlink:href="#m66a0afd918" id="line2d_58" x="214.324" y="9.09" style="stroke:#000;stroke-width:.5"/><g id="text_14" transform="matrix(.08 0 0 -.08 14.73 11.792)"><use xlink:href="#NimbusRomNo9L-Regu-31" transform="scale(.99626)"/><use xlink:href="#NimbusRomNo9L-Regu-37" transform="matrix(.99626 0 0 .99626 49.813 0)"/><use xlink:href="#NimbusRomNo9L-Regu-35" transform="matrix(.99626 0 0 .99626 99.626 0)"/></g></g><g id="ytick_9"><g id="line2d_59"><defs><path id="m21d33214d0" d="M0 0h1.5" style="stroke:#000;stroke-width:.5"/></defs><use xlink:href="#m21d33214d0" x="30.184" y="140.404" style="stroke:#000;stroke-width:.5"/></g><g id="line2d_60"><defs><path id="m3f78a3236b" d="M0 0h-1.5" style="stroke:#000;stroke-width:.5"/></defs><use xlink:href="#m3f78a3236b" x="214.324" y="140.404" style="stroke:#000;stroke-width:.5"/></g></g><g id="ytick_10"><use xlink:href="#m21d33214d0" id="line2d_61" x="30.184" y="133.108" style="stroke:#000;stroke-width:.5"/><use xlink:href="#m3f78a3236b" id="line2d_62" x="214.324" y="133.108" style="stroke:#000;stroke-width:.5"/></g><g id="ytick_11"><use xlink:href="#m21d33214d0" id="line2d_63" x="30.184" y="129.461" style="stroke:#000;stroke-width:.5"/><use xlink:href="#m3f78a3236b" id="line2d_64" x="214.324" y="129.461" style="stroke:#000;stroke-width:.5"/></g><g id="ytick_12"><use xlink:href="#m21d33214d0" id="line2d_65" x="30.184" y="125.813" style="stroke:#000;stroke-width:.5"/><use xlink:href="#m3f78a3236b" id="line2d_66" x="214.324" y="125.813" style="stroke:#000;stroke-width:.5"/></g><g id="ytick_13"><use xlink:href="#m21d33214d0" id="line2d_67" x="30.184" y="122.166" style="stroke:#000;stroke-width:.5"/><use xlink:href="#m3f78a3236b" id="line2d_68" x="214.324" y="122.166" style="stroke:#000;stroke-width:.5"/></g><g id="ytick_14"><use xlink:href="#m21d33214d0" id="line2d_69" x="30.184" y="114.87" style="stroke:#000;stroke-width:.5"/><use xlink:href="#m3f78a3236b" id="line2d_70" x="214.324" y="114.87" style="stroke:#000;stroke-width:.5"/></g><g id="ytick_15"><use xlink:href="#m21d33214d0" id="line2d_71" x="30.184" y="111.223" style="stroke:#000;stroke-width:.5"/><use xlink:href="#m3f78a3236b" id="line2d_72" x="214.324" y="111.223" style="stroke:#000;stroke-width:.5"/></g><g id="ytick_16"><use xlink:href="#m21d33214d0" id="line2d_73" x="30.184" y="107.575" style="stroke:#000;stroke-width:.5"/><use xlink:href="#m3f78a3236b" id="line2d_74" x="214.324" y="107.575" style="stroke:#000;stroke-width:.5"/></g><g id="ytick_17"><use xlink:href="#m21d33214d0" id="line2d_75" x="30.184" y="103.928" style="stroke:#000;stroke-width:.5"/><use xlink:href="#m3f78a3236b" id="line2d_76" x="214.324" y="103.928" style="stroke:#000;stroke-width:.5"/></g><g id="ytick_18"><use xlink:href="#m21d33214d0" id="line2d_77" x="30.184" y="96.632" style="stroke:#000;stroke-width:.5"/><use xlink:href="#m3f78a3236b" id="line2d_78" x="214.324" y="96.632" style="stroke:#000;stroke-width:.5"/></g><g id="ytick_19"><use xlink:href="#m21d33214d0" id="line2d_79" x="30.184" y="92.985" style="stroke:#000;stroke-width:.5"/><use xlink:href="#m3f78a3236b" id="line2d_80" x="214.324" y="92.985" style="stroke:#000;stroke-width:.5"/></g><g id="ytick_20"><use xlink:href="#m21d33214d0" id="line2d_81" x="30.184" y="89.337" style="stroke:#000;stroke-width:.5"/><use xlink:href="#m3f78a3236b" id="line2d_82" x="214.324" y="89.337" style="stroke:#000;stroke-width:.5"/></g><g id="ytick_21"><use xlink:href="#m21d33214d0" id="line2d_83" x="30.184" y="85.69" style="stroke:#000;stroke-width:.5"/><use xlink:href="#m3f78a3236b" id="line2d_84" x="214.324" y="85.69" style="stroke:#000;stroke-width:.5"/></g><g id="ytick_22"><use xlink:href="#m21d33214d0" id="line2d_85" x="30.184" y="78.394" style="stroke:#000;stroke-width:.5"/><use xlink:href="#m3f78a3236b" id="line2d_86" x="214.324" y="78.394" style="stroke:#000;stroke-width:.5"/></g><g id="ytick_23"><use xlink:href="#m21d33214d0" id="line2d_87" x="30.184" y="74.747" style="stroke:#000;stroke-width:.5"/><use xlink:href="#m3f78a3236b" id="line2d_88" x="214.324" y="74.747" style="stroke:#000;stroke-width:.5"/></g><g id="ytick_24"><use xlink:href="#m21d33214d0" id="line2d_89" x="30.184" y="71.099" style="stroke:#000;stroke-width:.5"/><use xlink:href="#m3f78a3236b" id="line2d_90" x="214.324" y="71.099" style="stroke:#000;stroke-width:.5"/></g><g id="ytick_25"><use xlink:href="#m21d33214d0" id="line2d_91" x="30.184" y="67.452" style="stroke:#000;stroke-width:.5"/><use xlink:href="#m3f78a3236b" id="line2d_92" x="214.324" y="67.452" style="stroke:#000;stroke-width:.5"/></g><g id="ytick_26"><use xlink:href="#m21d33214d0" id="line2d_93" x="30.184" y="60.156" style="stroke:#000;stroke-width:.5"/><use xlink:href="#m3f78a3236b" id="line2d_94" x="214.324" y="60.156" style="stroke:#000;stroke-width:.5"/></g><g id="ytick_27"><use xlink:href="#m21d33214d0" id="line2d_95" x="30.184" y="56.509" style="stroke:#000;stroke-width:.5"/><use xlink:href="#m3f78a3236b" id="line2d_96" x="214.324" y="56.509" style="stroke:#000;stroke-width:.5"/></g><g id="ytick_28"><use xlink:href="#m21d33214d0" id="line2d_97" x="30.184" y="52.861" style="stroke:#000;stroke-width:.5"/><use xlink:href="#m3f78a3236b" id="line2d_98" x="214.324" y="52.861" style="stroke:#000;stroke-width:.5"/></g><g id="ytick_29"><use xlink:href="#m21d33214d0" id="line2d_99" x="30.184" y="49.214" style="stroke:#000;stroke-width:.5"/><use xlink:href="#m3f78a3236b" id="line2d_100" x="214.324" y="49.214" style="stroke:#000;stroke-width:.5"/></g><g id="ytick_30"><use xlink:href="#m21d33214d0" id="line2d_101" x="30.184" y="41.918" style="stroke:#000;stroke-width:.5"/><use xlink:href="#m3f78a3236b" id="line2d_102" x="214.324" y="41.918" style="stroke:#000;stroke-width:.5"/></g><g id="ytick_31"><use xlink:href="#m21d33214d0" id="line2d_103" x="30.184" y="38.271" style="stroke:#000;stroke-width:.5"/><use xlink:href="#m3f78a3236b" id="line2d_104" x="214.324" y="38.271" style="stroke:#000;stroke-width:.5"/></g><g id="ytick_32"><use xlink:href="#m21d33214d0" id="line2d_105" x="30.184" y="34.623" style="stroke:#000;stroke-width:.5"/><use xlink:href="#m3f78a3236b" id="line2d_106" x="214.324" y="34.623" style="stroke:#000;stroke-width:.5"/></g><g id="ytick_33"><use xlink:href="#m21d33214d0" id="line2d_107" x="30.184" y="30.976" style="stroke:#000;stroke-width:.5"/><use xlink:href="#m3f78a3236b" id="line2d_108" x="214.324" y="30.976" style="stroke:#000;stroke-width:.5"/></g><g id="ytick_34"><use xlink:href="#m21d33214d0" id="line2d_109" x="30.184" y="23.68" style="stroke:#000;stroke-width:.5"/><use xlink:href="#m3f78a3236b" id="line2d_110" x="214.324" y="23.68" style="stroke:#000;stroke-width:.5"/></g><g id="ytick_35"><use xlink:href="#m21d33214d0" id="line2d_111" x="30.184" y="20.033" style="stroke:#000;stroke-width:.5"/><use xlink:href="#m3f78a3236b" id="line2d_112" x="214.324" y="20.033" style="stroke:#000;stroke-width:.5"/></g><g id="ytick_36"><use xlink:href="#m21d33214d0" id="line2d_113" x="30.184" y="16.385" style="stroke:#000;stroke-width:.5"/><use xlink:href="#m3f78a3236b" id="line2d_114" x="214.324" y="16.385" style="stroke:#000;stroke-width:.5"/></g><g id="ytick_37"><use xlink:href="#m21d33214d0" id="line2d_115" x="30.184" y="12.738" style="stroke:#000;stroke-width:.5"/><use xlink:href="#m3f78a3236b" id="line2d_116" x="214.324" y="12.738" style="stroke:#000;stroke-width:.5"/></g><g id="ytick_38"><use xlink:href="#m21d33214d0" id="line2d_117" x="30.184" y="5.442" style="stroke:#000;stroke-width:.5"/><use xlink:href="#m3f78a3236b" id="line2d_118" x="214.324" y="5.442" style="stroke:#000;stroke-width:.5"/></g><g id="text_15" transform="matrix(0 -.08 -.08 0 9.004 98.468)"><defs><path id="NimbusRomNo9L-Regu-4d" d="M4314 3667V751c0-534-77-617-583-617V0h1792v134c-467 0-557 89-557 547v2855c0 457 84 541 557 579v122H4250L2835 1004 1357 4237H90v-141c524 0 608-77 608-546V943c0-661-90-784-621-822V0h1504v134c-493 0-602 148-602 797v2589L2586 0h89z" transform="scale(.01563)"/><path id="NimbusRomNo9L-Regu-61" d="M2829 423c-109-90-186-122-282-122-147 0-192 89-192 371v1248c0 333-32 518-128 672-141 230-416 352-793 352-602 0-1076-314-1076-717 0-147 128-275 276-275 153 0 288 128 288 269 0 25-7 57-13 102-13 58-19 109-19 154 0 173 204 313 460 313 314 0 487-185 487-531v-390c-986-397-1095-448-1370-691-141-128-230-346-230-557 0-403 281-685 672-685 281 0 544 134 934 467 32-333 147-467 410-467 217 0 352 77 576 320zm-992 360c0-199-32-257-167-334-153-90-332-148-467-148-224 0-403 219-403 495v26c0 379 262 611 1037 893z" transform="scale(.01563)"/><path id="NimbusRomNo9L-Regu-67" d="M3008 2496v250h-493c-128 0-224 17-352 56l-141 45c-172 56-345 84-512 84-595 0-1068-464-1068-1050 0-405 172-651 595-863-122-112-237-219-275-250-212-180-295-305-295-430 0-132 77-207 339-332-454-335-627-549-627-787 0-343 499-627 1107-627 480 0 980 170 1312 446 244 203 352 414 352 663 0 407-300 683-774 683h-826c-339 0-499 59-499 164 0 130 211 360 384 412 58-7 103-13 122-13 121-13 205-19 243-19 237 0 493 98 691 275 211 184 307 414 307 742 0 190-32 341-121 551zM941-13c211-45 723-83 1037-83 582 0 793-84 793-318 0-377-486-629-1209-629-564 0-935 188-935 473 0 150 45 234 314 557m32 2158c0 381 179 607 473 607 199 0 365-110 468-303 115-226 192-522 192-774 0-361-186-587-480-587-384 0-653 419-653 1038z" transform="scale(.01563)"/><path id="NimbusRomNo9L-Regu-6e" d="M102 2579c39 19 103 26 173 26 179 0 237-96 237-410V608c0-365-70-454-397-480V32h1357v96c-326 26-422 102-422 333v1798c307 288 448 365 659 365 313 0 467-198 467-621V666c0-404-83-512-403-538V32h1331v96c-314 32-390 109-390 422v1466c0 602-282 960-756 960-294 0-492-109-928-518v505l-44 13c-314-115-532-186-884-288z" transform="scale(.01563)"/><path id="NimbusRomNo9L-Regu-69" d="m1120 2929-992-350v-95l51 6c77 12 160 19 218 19 153 0 211-103 211-384V640c0-461-64-531-506-531V0h1517v96c-422 32-473 95-473 554v2260zM819 4352c-173 0-320-147-320-326s141-327 320-327c186 0 333 141 333 327 0 179-147 326-333 326" transform="scale(.01563)"/><path id="NimbusRomNo9L-Regu-74" d="M1632 2880H986v742c0 64-7 84-45 84-45-58-83-116-128-180-243-352-519-659-621-685-70-47-109-93-109-126 0-20 7-33 26-33h339V751c0-539 192-815 570-815 313 0 556 154 768 487l-84 70c-134-160-243-224-384-224-236 0-332 174-332 578v1835h646z" transform="scale(.01563)"/><path id="NimbusRomNo9L-Regu-75" d="M3066 320h-32c-295 0-365 70-365 365v2195H1658v-122c396 0 473-64 473-383V875c0-178-32-268-121-338-173-140-372-217-564-217-249 0-454 217-454 485v2075H58v-102c307 0 396-96 396-391V770c0-507 308-834 775-834 237 0 486 102 659 275l275 275V-45l26-13c320 128 550 199 877 288z" transform="scale(.01563)"/><path id="NimbusRomNo9L-Regu-64" d="m2202-64 940 333v96h-147c-230 0-281 70-281 366v3633l-32 13c-308-109-532-173-941-281v-102c51 6 89 6 141 6 236 0 294-64 294-328V2669c-243 205-416 275-672 275-736 0-1331-723-1331-1632C173 493 653-64 1357-64c358 0 601 128 819 429V-45zm-26 717c0-45-45-122-109-192-115-128-275-192-461-192-531 0-883 512-883 1299 0 723 314 1197 800 1197 339 0 653-301 653-640z" transform="scale(.01563)"/><path id="NimbusRomNo9L-Regu-65" d="M2611 1053c-307-489-582-675-992-675-365 0-640 186-825 552-116 244-160 456-173 849h1971c-51 414-115 598-275 802-192 230-487 363-819 363-320 0-621-115-864-333-301-262-474-717-474-1241C160 486 621-64 1357-64c608 0 1088 379 1357 1072zM634 1984c70 495 288 730 678 730s544-179 627-730z" transform="scale(.01563)"/><path id="NimbusRomNo9L-Regu-42" d="M109 4237v-141c537 0 614-70 614-548V689c0-477-83-561-614-561V0h2137c500 0 954 136 1191 356 230 208 358 499 358 809 0 286-115 545-313 732-192 175-365 253-781 356 333 82 467 145 621 278 160 140 256 372 256 632 0 708-570 1074-1677 1074zm1267-2125c621 0 915-32 1146-130 364-155 537-414 537-823 0-350-134-604-390-753-205-116-467-168-890-168-313 0-403 58-403 266zm0 256v1444c0 132 45 189 141 189h281c736 0 1127-302 1127-864 0-491-339-769-941-769z" transform="scale(.01563)"/></defs><use xlink:href="#NimbusRomNo9L-Regu-4d" transform="scale(.99626)"/><use xlink:href="#NimbusRomNo9L-Regu-61" transform="matrix(.99626 0 0 .99626 88.567 0)"/><use xlink:href="#NimbusRomNo9L-Regu-67" transform="matrix(.99626 0 0 .99626 132.8 0)"/><use xlink:href="#NimbusRomNo9L-Regu-6e" transform="matrix(.99626 0 0 .99626 182.614 0)"/><use xlink:href="#NimbusRomNo9L-Regu-69" transform="matrix(.99626 0 0 .99626 232.427 0)"/><use xlink:href="#NimbusRomNo9L-Regu-74" transform="matrix(.99626 0 0 .99626 260.122 0)"/><use xlink:href="#NimbusRomNo9L-Regu-75" transform="matrix(.99626 0 0 .99626 287.817 0)"/><use xlink:href="#NimbusRomNo9L-Regu-64" transform="matrix(.99626 0 0 .99626 337.63 0)"/><use xlink:href="#NimbusRomNo9L-Regu-65" transform="matrix(.99626 0 0 .99626 387.444 0)"/><use xlink:href="#NimbusRomNo9L-Regu-28" transform="matrix(.99626 0 0 .99626 456.584 0)"/><use xlink:href="#NimbusRomNo9L-Regu-64" transform="matrix(.99626 0 0 .99626 489.759 0)"/><use xlink:href="#NimbusRomNo9L-Regu-42" transform="matrix(.99626 0 0 .99626 539.572 0)"/><use xlink:href="#NimbusRomNo9L-Regu-29" transform="matrix(.99626 0 0 .99626 606.022 0)"/></g></g><path id="line2d_119" d="m38.554 121.733.067-.293.067.25.134 2.28.067.285.067-1.35.067.62.067 1.158.067-2.89.067 1.412.067-.19.067 3.264.067-3.86.067.128.067-.455.067 1.427.067-.858.067-.547.067 3.492.067-1.568.067-.914.067.053.067.012.067.571.2-1.59.068 1.4.067-1.37.067 2.246.067-2.897.067 1.024.067-.72.067 1.21.2-1.803.068 2.75.067-1.99.067.303.067 2.028.134-2.304.134 2.377.134-3.727.067 2.778.067-.333.067-.03.067-.27.067 1.802.134-1.44.134 1.122.134-2.576.067 1.26.066 2.124.067-1.01.134-2.638.134 2.535.134-2.394.067 1.27.067-.245.067-.129.067.62.067 2.653.067-.395.134-3.753.067 2.22.134-3.732.134 3.857.067-.433.067 4.83.134-6.62.201 5.859.201-6.46.067 3.216.067-.084.067.544.067-2.674.067 1.878.134-2.687.067 1.712.067-1.711.067 2.253.067-1.245.067.07.067 2.249.067-1.346.067-1.797.067.012.067 1.489.067-1.053.067 3.963.067-3.44.067 1.496.067 2.548.134-5.198.134 2.284.067-2.924.067.06.134 6.423.067-4.828.067 1.05.067-.472.067.462.067-2.85.067 1.178.067 1.14.067-.686.134-.57.067-1.847.067 3.32.067-.297.067-.734.067.318.066-.002.067 2.641.067-1.188.067.19.201-2.189.067 1.812.067-2.374.067 1.548.067-.366.067 2.538.067-2.589.067 2.35.067-1.943.067.5.067-.069.067.67.067-3.812.067 3.371.067-2.742.067 4.21.067-3.5.201 3.258.067-2.791.067.987.134-1.137.067.03.067 3.138.067-2.453.067.704.067 1.672.067-2.84.067 2.84.067-.975.134-3.249.067 2.233.067-.474.067-1.06.067 4.178.067-2.385.067.538.134-2.777.134 1.808.067-.221.134 2.783.067-3.557.067 1.506.067-1.867.067 2.563.067-4.593.067 3.028.067-.685.067-.537.134 2.766.067-2.478.067.47.067 1.567.067-1.525.067.044.134 1.879.067-.533.067-1.2.067 1.211.067-1.138.067 1.245.2-2.17.201 2.162.067-2.409.067 1.951.067-1.436.067.128.067-.117.067-.81.067 3.517.067-2.632.067 1.306.067-.026.067-1.717.067 2.611.067-2.89.067 1.757.201-1.326.067.407.067 1.973.067-1.089.067-.138.067.073.134-2.247.201 2.61.134-1.61.067 2.486.067-2.825.067 2.432.067-2.566.067 7.757.067-7.679.067 3.223.067-3.436.067 2.433.067-.932.134-1.44.067 1.297.067-.033.067.287.067-.996.067 2.456.067-2.181.067 2.131.067-.061.134-3.113.067.143.067.57.067 2.608.067-3.26.067 3.174.067-.688.067-2.553.067 2.272.067-3.142.067 2.442.067-1.37.067.754.067-1.33.134 2.665.067-2.1.067 2.812.067-2.133.133 2.244.201-2.245.134 1.242.067-2.307.201 2.852.067-1.354.134 1.525.067-.397.067-3.875.067 2.837.067-.132.067.148.067 1.02.134-2.888.067 2.778.067-2.525.067 2.19.067-1.745.067.987.067-.588.067.456.134-1.217.067-.092.067 4.797.067-1.91.201-3.226.067 2.506.067-1.115.201 3.085.2-3.3.068 3.739.067-4.146.067 2.71.134-3.185.134 2.397.067-1.412.067 2.994.067-3.608.067.182.134 1.439.067-.643.067 2.056.067-3.649.067 1.357.134-1.128.067 3.845.067-2.258.134-1.126.067 2.415.067-1.256.067.67.067-2.344.067 2.973.067-2.128.067 2.031.067-3.38.067.233.066 2.793.067-2.268.067.75.134 2.393.067-4.03.067 1.083.067.532.067 1.433.268-5.065.201 5.412.067-2.902.067.603.067 4.884.067-2.636.402-3.157.067.573.067 1.698.067-.497.067.722.067-2.61.067.972.067-1.013.201 3.35.067-3.975.067 1.54.067 1.301.134-1.582.134 1.974.134-1.413.067 2.49.134-3.134.2 1.464.068 4.118.067-2.217.067-3.706.134 5.968.134-6.109.134.658.067 2.187.067-.042.067-2.229.067.325.067 2.178.2-3.26.068 3.13.067-2.732.067.468.067-.519.067.84.134-3.96.133 4.778.067-1.747.134 2.354.067-.438.067.119.134.985.067-.243.134-3.24.201 4.006.134-3.656.067.952.134-2.37.067 4.006.067-1.746.067-.482.067 1.429.067-2.125.067 1.19.067-.453.067.331.134-4.358.067 1.052.134 3.067.067.184.067 2.093.067-3.226.067 2.018.067-1.465.067.716.067-.552.067 2.627.067-1.575.067-.37.067-2.385.067 4.612.067-4.877.067 2.534.067.406.067-1.529.067 1.523.067-3.643.134 6.223.067-6.384.067 2.451.067 3.799.067-6.092.067 2.86h.067l.067-1.12.067 1.844.067-.272.134-2.38.2 3.745.068-.085.067-3.052.067.054.067.408.067 3.68.067-4.027.067 1.404.067-1.136.067-3.619.267 8.326.067-6.032.067 2.656.067-1.078.067.81.134-3.286.067 2.447.067-1.04.067-.274.067.353.067-1.903.134 4.688.067-2.577.134 3.996.201-4.46.067.48.067 3.277.134-4.841.201 5.625.268-6.73.201 5.707.268-4.789.134.58.067 1.13.067-.887.134 2.815.2-3.737.068 3.91.067-1.756.067-.777.134 1.687.067-4.039.067 5.306.067-2.967.134 3.273.134-3.45.067.42.067-.684.067-1.972.067 5.182.067-2.069.134 4.185.067-4.289.067.583.067-1.123.067 1.4.067 4.88.134-7.252.066 1.495.067-1.372.067.655.067 2.707.067-3.372.067 1.621.067-1.226.134 1.99.067-2.996.134 3.073.134-3.296.067 1.562.067-1.604.067.535.067.381.067-.813.268 2.24.134-1.89.067 2.094.067-.721.134-1.088.067 1.886.067-.397.067.358.134-1.723.067.743.067 1.98.201-2.727.067-.053.067-.676.067.045.067 3.575.067-2.26.2 1.358.068-.97.067.73.2-2.82.068 1.621.134-1.804.067 2.016.067-1.725.067 1.454.067-1.345.067.7.067.018.067.49.067-1.402.067.888.067.081.067-.839.067 1.447.067-.256.067-.565.067.961.067-.174.067-.407.067 1.563.067-.61.067-1.012.067 1.685.066-2.257.067 1.076.134-.799.067.398.067-.82.067.378.067-.09.067.307.067-1.109.067 1.78.067-.737.067-.392.067.425.067-1.393.067 3.066.134-3.144.201 2.402.067-1.334.067.598.134.664.067-2.123.067 4.573.134-4.457.067-.76.067 1.369.067-.865.067.718.067-1.708.134 2.199.067-.82.067.257.067.942.067-.482.067-2.271.067 1.457.2 3.596.068-4.73.067 1.214.067.181.067.762.067-2.665.067 3.183.067-2.773.067 2.837.067-1.865.067-.48.134 2.232.134-2.281.067.797.067-.023.067-2.39.2 3.258.068-.95.067.21.067 1.454.2-3.323.068 2.387.2-3.35.201 3.108.067-.617.067-2.563.067 2.36.067-1.691.134 2.48.067-6.828.134 6.7.067-2.47.067.851.067-.706.067 1.715.067-2.925.201 4.104.067-2.447.067.139.067.47.067-.356.067.742.067-2.157L90 115.6l.134-2.222.067 2.181.134-3.35.201 3.16.067 1.635.067-4.425.067 2.696.067-2.95.067 1.832.134 1.216.067-.525.067.269.067-2.816.067 3.513.067-.698.134.566.067-3.593.067.866.2 2.41.202-1.94.067.077.134 1.182.067-3.143.067 1.292.067 2.179.067-1.976.067.477.067-.397.067 2.089.067-2.733.067.7.067-.687.067 1.062.067-.734.134 1.363.067-1.423.066.766.067-.019.201-1.547.067 2.242.067-4.283.067 3.379.067-.184.201-.592.067-2.106.134 5.97.067-3.621.067.195.067-.447.067.77.067-2.426.067 1.357.134.812.067-.123.067-1.252.067.813.067-1.167.067 1.93.067-2.168.067 2.272.067-1.153.067 1.712.201-3.217.134 1.37.067-1.83.067 1.015.067.559.067-.527.134 1.741.134-2.884.067 2.643.067-.394.067-1.462.2 2.438.068-2.16.067.894.067-.087.067-.442.067-1.393.067.782.067 1.181.067-.15.134-1.922.134 3.171.067-2.137.067 1.115.067-.14.067-2.126.067.03.134 1.214.067-1.168.067 1.966.067-2.568.067.316.401 1.908.268-2.81.268 4.6.201-3.563.067.63.134-1.618.067.126.067-.17.067 1.376.067-1.998.067 1.266.067.78.067-.12.134-.374.067.937.067-.097.067-.125.067-1.784.067 2.813.067-2.678.067 2.087.201-2.117.067 1.135.067-.436.067-1.177.067 1.97.067-.226.067-1.238.067.037.067-.045.067.288.2-1.335.068 2.423.2-3.265.135 2.48.067.5.067-2.3.067.847.134-.364.067.848.067-1.167.067 1.378.134-2.184.067.596.067.177.067-1.023.067 2.899.067-1.338.067.676.067-1.573.067 1.193.067-.096.067-.157.067-1.938.066 1.563.067-1.423.067.014.201 2.432.201-2.198.067.694.067-.207.067-.008.067-1.702.067 1.717.067-.02.067-.507.067.967.201-2.926.134 1.662.067-2.735.067 3.67.067-.819.067-.794.067 1.03.067-.362.067-1.458.067 1.337.067-.28.067.343.067-.775.067.225.067-.066.067 1.651.201-2.976.2 1.275.068.127.067-.496.067-2.476.067 1.755.067-.295.067-.956.067 2.782.067-2.803.067 2.67.067-1.779.067 2.154.134-1.738.067 2.255.134-4.58.067 1.62.067-.016.134 1.903.067-2.346.067 2.799.2-4.303.202 2.68.067-.616.067-2.788.067 3.182.067-.271.134-.517.066.462.067-1.748.067.08.067 4.003.067-4.382.067 2.68.201-3.725.067.093.067 1.069.067-.09.067-.404.067-1.6.067 4.245.067-2.836.067 1.115.134-.753.201-.53.067.675.134-3.584.067 4.721.067-4.272.067.765.134 2.28.067-2.56.067 1.869.134-2.98.134 3.917.067-2.52.067 7.823.067-7.764.067.365.067-1.853.134 4.576.134-6.432.134 1.616.067 2.337.067-.477.067.323.067 1.531.268-5.103.134 3.483.067-4.295.067 3.23.067-1.16.067-.33.067.406.134-1.776.067 1.785.067-2.35.134 3.1.402-4.79.067 6.074.066-1.356.134-1 .067-3.07.067 1.286.067-.273.067 1.607.201-3.69.067 3.085.067-2.756.134 3.466.067-2.959.067 1.224.134-.57.067 1.916.067-3.22.067.612.067 2.147.134-4.376.067.986.067.992.067-2.47.067 2.794.201-5.213.067 4.15.067-3.086.067 1.547.067-.085.067-.637.067.439.134-2.002.134 3.254.134-3.074.067 1.548.067-3.181.067 3.893.067-2.338.067 2.2.067-1.718.067 1.382.2-3.721.135 1.728.067-2.949.067 1.882.067-1.145.134 1.917.2-3.213.068 2.008.067-2.641.067 2.678.067-2.821.067.273.067 1.075.067-2.249.067.12.067.52.067-.858.067.08.134-.676.066 1.54.134-2.705.067.224.067-.483.067.764.134-2.938.134 2.553.067-1.614.067.694.067-.826.067.161.134-.597.201-4.273.067 2.675.201-3.7.067-.22.067.151.067 1.7.067-2.859.067.35.201-3.105.067 1.18.067-2.578.067 2.987.067-6.314.067 6.479.067-8.015.067 7.279.067-9.953.067 6.543.067-9.12.067 4.905.067-6.622.067 1.658.268-11.938.067 6.435.067-13.142.067 12.328.067-20.895.067 20.47.134-42.686.067 5.59.067 37.095.067-20.469.067 20.895.067-12.328.067 13.142.067-6.435.067 7.528.067-1.637.134 6.047.067-1.658.067 6.622.067-4.904.067 9.119.067-6.543.067 9.953.067-7.279.067 8.015.067-6.48.067 6.315.066-2.987.067 2.579.067-1.181.201 3.105.067-.35.067 2.86.067-1.7.067-.152.067.22.201 3.7.067-2.675.067 3.36.067-1.17.134 2.34.201 1.005.067-.694.067 1.614.067-.531.067-2.022.067 1.239.067 1.699.067-.764.201.942.067 2.021.067-1.54.067.474.067.202.067-.079.067.858.067-.52.067-.12.067 2.25.067-1.076.067-.273.067 2.82.067-2.677.067 2.641.067-2.008.2 3.213.135-1.917.067 1.145.067-1.882.067 2.949.067-.49.067-1.238.067.258.067.69.067 2.773.067-1.382.067 1.718.067-2.2.067 2.338.067-3.893.067 3.18.067-1.547.134 3.074.067-1.107.067-2.147.067 1.105.067.897.067-.44.134.723.066-1.547.067 3.086.067-4.15.201 5.213.067-2.794.067 2.47.067-.992.067-.986.134 4.376.134-2.76.067 3.22.067-1.916.134.57.067-1.223.067 2.959.067-.864.067-2.602.067 2.756.067-3.085.067 3.025.067-.956.067 1.621.201-2.62.134 3.53.134 1.896.067-6.074.067.411.067-.117.067 2.664.067-.999.134 2.831.134-3.1.067 2.35.067-1.785.067.05.067 1.726.067-.406.067.33.067 1.16.067-3.23.067 4.295.067-1.886.067-1.597.268 5.103.134-1.854.067.477.2-3.953.135 6.432.134-4.576.067 1.853.067-.365.067 7.764.067-7.823.067 2.52.067-.34.067-3.577.066.753.067 2.227.067-1.87.067 2.56.067-.22.134-2.824.067 4.272.067-4.72.067 2.484.067 1.099.067-.674.335 1.282.067-1.115.067 2.836.067-4.245.067 1.6.134.494.134-1.162.201 3.726.067-2.681.067 4.382.134-4.083.067 1.748.067-.462.201.788.067-3.182.134 3.404.2-2.68.202 4.303.067-2.799.067 2.346.067-1.353.2-2.154.068 1.122.067 3.458.067-2.255.067.166.067 1.572.067-2.154.067 1.78.067-2.671.067 2.803.067-2.782.067.956.067.295.067-1.755.134 2.972.2-.508.068-.894.067.277.134 2.7.067-1.652.067.066.066-.225.067.775.067-.343.067.28.067-1.337.134 1.82.067-1.03.134 1.613.067-3.67.067 2.735.067-.708.067-.954.201 2.926.067-.967.067.506.067.021.067-1.717.134 1.71.067.207.067-.694.201 2.198.201-2.432.067-.014.067 1.423.067-1.563.134 2.095.067.096.067-1.193.201 2.235.067-2.899.067 1.023.067-.177.067-.596.134 2.184.067-1.378.067 1.167.067-.848.067.262.067.102.067-.848.067 2.301.067-.5.067-.253.067-2.227.067 1.07.067.46.067 1.735.067-2.423.067.322.067.26.067.753.067-.288.134.008.134 1.464.067-1.97.067 1.177.067.436.067-1.135.067.54.067.135.067 1.442.066-2.087.067 2.678.067-2.813.067 1.784.134.222.067-.937.067.117.134.377.134-2.046.067 1.998.067-1.376.067.17.067-.126.067.22.201 2.046.067-.267.067 2.553.067-1.423.201-3.178.268 2.81.067-.121.067.075.067-1.22.067.026.201-.984.067 2.568.067-1.966.067 1.168.2-1.244.135 2.266.067-1.115.067 2.137.134-3.171.067.464.134 1.608.134-1.963.2 1.922.068-.894.067 2.16.067-.87.067-.13.067-1.438.134 1.856.067-2.643.067.065.067 2.819.067-.85.067-.89.067.526.134-1.574.067 1.83.067-.573.067-.797.2 3.217.067-1.712.067 1.153.067-2.272.067 2.168.067-1.93.067 1.167.067-.813.134 1.375.067-.098.134-2.071.067 2.426.067-.77.067.447.067-.195.067 3.622.134-5.971.134 2.133.201.749.067-3.379.067 4.283.067-2.242.067.17.201 1.396.067-.766.067 1.423.067-.194.067-1.17.067.735.067-1.062.067.688.067-.7.067 2.732.067-2.09.067.398.067-.477.067 1.976.134-3.471.067 3.143.067-.498.134-.762.2 1.94.202-2.409.067-.866.067 3.593.067-.274.067-.292.067.698.067-3.513.067 2.816.067-.269.067.525.2-3.048.068 2.95.067-2.696.067 4.425.067-1.634.067-.245.133-2.915.067 1.557.067 1.792.067-2.18.067 1.427.067.794.067-.145.067-2.187.067 2.157.067-.742.067.355.134-.608.067 2.447.201-4.104.067 2.925.067-1.715.067.706.067-.85.067 2.47.067-.954.067-5.747.067 6.828.067-.838.067-1.642.067 1.69.067-2.359.134 3.18.067-.24.134-2.868.201 3.35.067-2.387.067.226.134 3.097.134-1.664.067.95.2-3.259.135 2.415.067-.798.067.33.067 1.951.067-.026.067-2.206.067.48.067 1.865.067-2.837.067 2.773.067-3.183.067 2.665.067-.762.067-.18.067-1.215.067 4.73.067-2.475.067 1.187.134-3.765.134 2.753.134-1.2.067.821.067-.582.067-1.617.066 1.708.067-.718.067.865.067-1.369.067.76.067.075.067 4.382.067-4.573.067 2.123.201-1.262.067 1.334.067-2.069.067.239.067-.572.067.497.067 2.647.067-3.066.067 1.393.067-.425.134 1.13.067-1.78.067 1.108.201-.594.067.819.067-.398.134.799.067-1.076.067 2.257.067-1.685.067 1.013.067.61.067-1.564.067.407.067.174.067-.961.067.565.067.256.067-1.447.067.84.067-.082.067-.888.067 1.402.067-.49.067-.019.067-.7.067 1.346.067-1.454.067 1.725.067-2.016.067.555.067 1.249.067-1.62.2 2.82.068-.731.067.97.2-1.358.068 2.26.134-3.62.335 3.456.134-2.723.133 1.723.067-.358.067.397.067-1.886.067.158.134 1.651.067-2.094.067 1.365.067.524.268-2.239.067.813.067-.38.067-.536.067 1.604.067-1.562.134 3.296.067-.966.067-2.107.067 2.996.067-.796.067-1.194.067 1.226.067-1.621.067 3.372.134-3.362.067 1.372.067-1.495.067 1.72.067 5.532.134-6.28.201 4.829.134-4.185.067 2.069.067-5.182.067 1.972.067.683.067-.42.067.088.067 3.363.134-3.273.067 2.967.067-5.306.067 4.04.067-.711.067-.977.134 2.533.067-3.91.067 1.855.067-.492.067 2.374.134-2.815.067.888.2-1.71.269 4.788.2-5.708.268 6.731.201-5.625.067 1.811.067 3.03.134-3.757.201 4.46.067-1.005.067-2.991.067 2.577.067-1.516.067-3.172.067 1.903.067-.353.067.275.067 1.039.067-2.447.134 3.287.067-.811.067 1.078.067-2.656.067 6.032.201-5.922.067-2.404.134 4.755.067-1.404.067 4.027.134-4.088.067-.054.134 3.137.134-1.208.067-2.537.067.651.134 2 .067-1.843.067 1.12h.067l.067-2.86.067 6.092.067-3.799.067-2.451.067 6.384.067-1.942.067-4.281.067 3.643.067-1.523.067 1.529.067-.406.067-2.534.067 4.877.067-4.612.067 2.384.067.37.067 1.576.067-2.627.067.552.067-.716.067 1.465.067-2.018.067 3.226.066-2.093.134-.454.134-3.85.134 4.359.067-.33.067.452.067-1.19.067 2.125.067-1.43.067.483.067 1.746.067-4.006.067 1.244.067 1.126.067-.952.067.989.067 2.667.067-3.205.067.627.067-1.428.067.708.134 2.775.201-1.104.067.438.067-.562.067-1.792.067 1.747.134-4.778.134 3.96.067-.84.067.519.067-.468.067 2.733.067-3.132.067.44.067.524.067 2.297.134-2.503.134 2.27.067-2.186.067.188.067-.846.134 6.109.067-1.564.067-4.404.134 5.923.134-5.437.067.282.067-.427.067.409.067 2.725.067-2.49.067.777.067.636.134-1.974.067.7.067.882.134-2.841.067 3.974.067-.045.133-3.304.134.041.067 2.61.067-.722.067.497.134-2.27.134 2.047.067-.264.067.062.201 3.947.134-5.487.067 2.902.067-1.341.067-.883.067-3.188.134 3.898.067-.078.067 1.245.201-3.049.067 4.031.067-1.573.134-1.57.067 2.268.134-3.026.067 3.38.067-2.03.067 2.127.067-2.973.067 2.343.067-.67.067 1.257.067-2.415.067.687.067.44.067 2.257.067-3.845.067.765.067.363.067-1.357.067 3.65.067-2.057.067.643.067-.02.134-1.601.067 3.608.067-2.994.067 1.412.067-.516.067-1.88.067.628.067 2.556.067-2.71.067 4.146.067-3.74.067.214.067.666.067 2.421.2-3.085.068 1.115.067-2.506.267 5.136.067-4.797.067.092.067.095.067 1.122.067-.456.067.588.067-.987.067 1.745.067-2.19.067 2.525.067-2.778.067.702.067 2.186.067-1.02.067-.148.067.132.067-2.837.134 4.272.067-.099.067-1.426.067 1.354.201-2.852.067 2.307.067-.768.067-.474.201 2.245.067-.219.067-2.025.067 2.133.067-2.811.067 2.1.067-.158.067-2.509.067 1.33.067-.753.067 1.37.067-2.442.067 3.142.067-2.272.134 3.241.067-3.175.067 3.261.134-3.178.067-.143.067.254.134 2.92.067-2.131.067 2.18.067-2.455.067.996.067-.287.067.033.067-1.297.067.439.134 1.933.067-2.433.067 3.436.067-3.223.067 7.68.067-7.758.067 2.566.067-2.432.067 2.825.067-2.486.066.984.067.625.067-.384.067-.3.067-1.925.067.71.067 1.537.067-.073.067.138.067 1.09.134-2.38.201 1.325.067-1.758.067 2.891.067-2.611.067 1.717.067.026.067-1.306.067 2.632.067-3.518.067.81.067.118.067-.128.067 1.436.067-1.95.067 2.408.067-1.271.067.395.067-1.286.201 2.17.067-1.245.067 1.138.067-1.211.134 1.733.2-1.923.068 1.525.134-2.037.067 2.478.067-.317.067-2.449.067.537.067.685.067-3.028.067 4.593.067-2.563.067 1.867.067-1.506.067 3.557.067-2.015.067-.768.067.221.067-.06.067-1.748.067.49.2 4.134.068-4.177.067 1.059.067.474.067-2.233.2 4.224.068-2.84.067 2.84.067-1.672.066-.704.067 2.453.134-3.168.134 1.137.067-.987.067 2.79.201-3.257.067 3.5.067-4.21.067 2.742.067-3.371.067 3.811.067-.669.067.07.067-.501.067 1.943.067-2.35.067 2.59.201-3.721.067 2.374.067-1.812.201 2.19.067-.19.067 1.187.134-2.64.067-.317.134 1.031.067-3.32.067 1.846.134.57.067.688.134-2.319.067 2.85.067-.462.067.473.067-1.05.067 4.827.067-2.661.134-3.822.067 2.924.067-1.626.067-.658.134 5.198.067-2.548.067-1.495.067 3.44.067-3.964.067 1.053.134-1.5.134 3.142.134-2.319.067 1.245.067-2.253.067 1.71.067-1.711.067.139.067 2.548.067-1.878.067 2.674.066-.544.067.084.067-3.216.067.314.134 6.146.134-3.599.067-2.26.067 1.307.067 5.313.067-4.83.067.433.067-.704.067-3.153.067 1.405.067 2.328.067-2.221.201 4.148.134-3.273.134.375.067-1.271.067.116.067 2.278.067-1.134.067-1.401.067.44.134 3.208.134-3.384.134 2.576.067-.21.067-.913.067.03.067 1.411.067-1.802.067.27.067.03.067.333.067-2.778.067.292.067 3.435.067-1.352.067-1.025.067.441.067 1.863.134-2.332.067 1.992.067-2.751.067 1.296.067-.61.067 1.118.067-1.21.067.719.067-1.024.067 2.897.067-2.247.067 1.371.067-1.4.067.075.134 1.515.134-.583.067-.053.134 2.482.067-3.492.066.547.067.858.067-1.427.067.455.067-.128.067 3.86.201-4.486.067 2.89.067-1.158.067-.62.067 1.35.067-.285.067-.252.134-2.278h0" clip-path="url(#p29273b9126)" style="fill:none;stroke:#000;stroke-linecap:square"/><path id="line2d_120" d="m38.554 127.545.067 1.992.134-3.598.134 6.561.268-6.085.067 1.193.067 4.464.067-2.201.067-1.009.201 4.517.134-6.186.067 6.153.067-4.446.067.436.067-1.322.067 1.3.067-2.661.067 1.588.134 4.108.134-6.944.067 3.97.067-1.268.067 1.897.134-3.36.067 8.807.067-8.155.067 4.767.067-5.774.067 1.176.067-.2.067 2.048.067-2.293.067.833.067-1.132.067 6.885.067-.036.067-7.396.067 1.035.067-1.329.067 8.27.067-3.9.067-2.822.067 5.962.067-3.652.067-2.343.067 4.105.067-.388.2-2.99.067.33.067 3.815.067-1.507.134-3.448.067 5.483.134-5.292.067.138.067 2.943.067-2.332.067 1.407.067-.732.067.537.201-1.07.067.38.067 2.302.067-4.17.067 1.454.067.087.067-.258.067-1.203.134 5.017.067-6.514.067 1.775.067 4.172.067-5.225.067 2.19.067-.274.134 6.896.067-2.374.067-5.198.067 2.827.067-4.065.067 3.732.067-2.008.067 1.525.067-3.147.067 4.17.067-5.716.067 2.32.067 4.637.067-2.907.067.886.067-2.135.2 3.942.068-6.763.067 5.688.067-2.323.067 1.36.067-1.33.067.447.067-.103.067.115.067 3.395.134-6.48.067 5.284.067-1.308.067-2.207.134 4.248.067-5.397.067 2.492.134-3.438.134 7.083.067-4.587.066 1.233.067-1.276.067 1.776.067-.468.067-.898.067.196.067-.104.067 2.006.067-.228.134-2.43.067 2.844.067-3.407.201 4.943.067-.368.067-1.184.067-4.67.067 1.732.067-.004.067 2.23.067-3.443.134 5.452.134-3.105.067 2.347.067-1.969.067 4.667.067-7.64.067 3.014.067 1.393.067-2.518.067 1.105.067.806.067-.638.067.965.067-.435.067-2.596.067 1.433.067.153.134.663.067-1.703.134 4.585.067-4.31.067 2.073.2-1.703.068 1.46.067-.389.134-.763.067 1.255.134-1.783.067.824.134-2.57.067 3.7.067-1.985.067 1.672.067-1.137.067.418.067 2.35.067-4.481.067.8.134 2.303.067-1.261.067 1.92.067-3.284.067 2.658.066-3.76.067 3.91.134-4.186.067 5.276.067-.51.067-5.85.067 11.106.067-6.921.067-.321.067-1.473.134 1.341.201-3.096.067 4.374.067-1.522.067 1.774.067-1.54.067 2.51.067-3.026.067 1.762.134-2.796.067.247.201 2.338.067-3.62.067 3.253.067-1.572.067 2.625.067-3.486.067 2.996.067-4.03.067 3.328.067-1.764.067-4.205.134 5.896.067-4.039.067 6.993.067-7.81.067 7.255.067-5.685.067 2.33.134-1.993.067 4.674.067-2.304.134-3.14.134 4.53.134-1.418.067 4.045.067-.492.067-5.006.067 3.367.067-4.746.067 1.071.067 1.29.067-.805.067-1.235.067 4.198.067-4.022.134 5.03.134-3.546.067 3.612.067-6.118.067 2.985.066 1.321.134-2.651.067 1.459.067 6.395.067-10.102.067 5.502.067-1.296.067-3.868.067 4.556.067-1.907.067-1.986.134 5.107.067-2.46.067.927.134-1.75.268 3.012.067-1.95.067 3.943.067-4.655.067 2.458.134-4.204.067.971.134-1.755.201 3.32.067-2.94.067 4.539.067-5.52.067 5.545.067-5.708.067 2.708.134 3.06.067-4.865.067 4.012.067-.945.067.373.067-3.616.067 2.49.067-1.698.067 5.371.067-1.426.134-.44.067 1.458.134-4.62.067 5.712.134-5.19.067-.981.067.402.134 2.628.067-3.48.067 2.252.067-2.216.067.472.067-.448.067 2.755.134-3.513.134 3.082.067-1.832.067 6.149.067-3.16.066-1.156.067.219.067 1.047.067-1.661.067 3.648.134-5.065.134 3.643.067 2.562.067-7.565.067 1.529.067 1.232.067-1.343.067 1.73.067-2.125.067 1.681.067-1.579.201 3.872.067-4.36.067 2.71.067-3.677.067 2.923.067-.925.067.45.067 1.304.067-3.937.067 3.347.067-2.354.067 2.845.067-3.096.067.39.067-.766.134 2.159.067-.72.134 8.146.067-10.158.067 4.894.067.093.067.397.067 1.235.134-6.622.067 1.12.067 4 .067-.665.067-6.348.067 9.89.067-2.406.134-6.63.067 6.987.067-7.71.067 4.59.067 5.334.067-8.76.067 7.296.067-4.977.067.774.067-.197.067-.994.067 5.994.067-3.57.067-1.707.067.555.067 1.591.067-5.386.067 3.57.067-.974.067-2.069.2 8.042.067-8.608.067 6.781.067-2.886.067-3.357.134 9.536.067-5.955.067 3.26.134-6.79.067 9.411.134-9.73.134 5.37.067.703.134-4.97.067 2.331.067-1.303.067.03.067-1.858.067 1.214.067 5.16.067-4.563.067.098.067 4.578.067-4.938.067 2.297.067 1.355.134-3.148.201 3.599.134-7.188.067 8.146.067-2.2.067 2.39.067-3.372.067 1.024.067-1.078.067-3.774.067 1.367.134 5.185.067-3.734.067 1.852.335-3.56.134 9.572.134-10.123.067 4.974.067-1.129.067-4.454.067 1.084.067-1.291.067.855.067 3.666.067-3.21.067 3.807.067-3.771.067 6.158.067-1.772.067-4.271.134 5.723.067-5.664.067 1.063.066.149.067-.4.067 3.678.067-5.232.067 3.11.067-.381.067 1.522.134-4.692.201 5.798.201-7.87.067 7.75.067-3.132.067-.477.067-4.503.067 2.34.067 4.489.067-4.91.067 5.533.067-4.331.067 2.586.067-2.813.067 2.709.067-2 .067 2.048.067-1.61.067 3.328.134-3.614.067 1.826.067-3.377.067 2.166.067 3.265.067-7.208.067 8.71.067-7.326.067 1.491.2 5.084.068-4.783.067 3.676.067-3.261.067 2.69.067-.908.067-1.444.067 1.998.2-4.966.068 1.917.067-2.306.067 5.45.067-4.337.067 1.306.067 4.072.067-6.687.134 5.895.2-3.018.068 4.654.067-6.366.067 1.359.067-.547.067 3.08.2-4.905.201 5.792.134-1.715.067 3.75.201-5.445.067-2.873.067 6.894.067-2.426.067-.185.067.556.134-6.354.067 6.031.067-2.78.067 3.435.067-1.6.134-.622.067 4.676.134-5.606.201 3.148.134-4.755.067 2.05.067-.536.067-.496.067.968.067-.91.067 3.11.067-1.015.134-2.15.067 1.997.134-2.29.2 2.32.068-.198.067-3.222.067 2.144.067-.848.067-1.822.134 4.024.067-3.215.067 1.631.067 3.549.067-2.338.134-2.533.067 5.82.067-2.242.067-.908.067.635.134-.93.067 4.254.067-5.2.067.56.067 1.217.2-2.996.068 2.542.067-.97.067-.197.067.37.067-2.173.067 4.475.066-4.086.067.896.067.197.067-.92.134 4.432.134-3.888.067-.411.067 2.934.067-2.905.067 1 .067 3.935.067-.134.134-5.04.134 2.642.067-2.467.067.538.067-.608.134 4.708.201-5.47.201 4.116.067-1.247.067 2.01.067-4.76.067.667.067.552.067-1.755.067 1.874.067-.962.067-.1.067-2.263.067 1.218.067.742.067 3.813.067-2.05.067-1.338.134 1.935.2-3.382.135 4.201.067-2.706.067.131.134 3.793.134-4.84.134 2.107.067-1.423.067.365.067.277.134 1.578.067-3.959.067 4.19.067-.778.134 2.848.067-6.306.067 1.88.067-.286.067-2.494.067 3.265.067-3.41.067 5.34.066-5.565.067 3.46.134-3.714.134 5.35.201-12.428.201 11.82.067-3.303.067 3.414.134-2.655.067 3.328.067-1.229.067-1.901.067.792.067-.778.067 3.502.067-5.494.067 4.546.067-3.334.067 3.543.067-4.53.067.512.067.157.067 1.036.067-.533.067-.649.067 3.626.067-4.497.067 2.233.067-.109.067-1.37.067 1.778.067-1.474.134 5.018.134-3.963.067 3.239.067-1.297.067-3.56.2 5.246.068-.593.134-5.096.134 4.207.2-4.366.068 3.74.067-4.578.067 3.913.067-1.346.2-1.845.135 2.004.067-2.629.2 3.516.135-1.217.134 1.938.267-4.988.134 3.432.067-3.454.134 4.34.134-3.32.134 2.218.067-3.806.067 6.245.201-6.191.067 5.343.134-4.95.067 5.92.067-3.49.067.411.067 1.81.067-.127.067-4.209.067 1.636.134-2.111.134 4.529.067-3.698.067 1.207.067-2.182.268 4.075.067-2.895.067 3.874.067-2.203.268-3.775.067.108.067.509.134 2.517.067-.19.067.076.067.832.067-.087.402-4.452.134 6.14.067-6.343.067 1.126.067 2.828.067-.638.067 1.327.2-5.236.135 7.355.067-5.271.067.008.067 2.136.067-2.473.067 1.873.066-1.739.067.05.067 1.26.067-3.354.067 4.859.067-.975.067-3.692.134 5.86.134-4.724.067 2.755.067-2.983.067.019.201 3.877.134-3.918.067 2.142.067-.446.067-.213.067.413.134-2.753.067 1.35.067 1.176.067 3.547.134-5.355.067 3.144.134-2.932.067-.746.067.451.067 1.02.134-1.386.134 2.889.067-5.208.067 2.614.067-.353.067.518.067-.534.067 1.378.134-2.727.402 3.124.067-4.675.067 2.764.067 1.97.067-2.662.067 2.582.067-1.542.067 1.72.134-2.163.134.887.067-2.226.067.008.067 1.023.067-1.11.067.5.067 1.182.067-1.477.067.005.067 2.665.067-2.793.067 1.917.066-1.808.067 2.128.067-.245.067-3.537.067 1.871.067 1.631.067-.83.067-.974.067 1.157.067-1.359.067.702.067.102.067-1.31.067.47.067 2.25.067-4.164.067.482.067 2.887.067-.153.067-1.678.067 1.293.134-1.587.067 1.312.067-2.05.067 4.58.067-2.89.067-.076.067-1.515.067.778.067 3.01.067-3.993.067.937.134-1.722.067 2.644.067-1.103.067.311.067-.74.067 1.859.067-2.539.067 2.043.067-3.147.067 3.52.067-2.202.067 1.27.134-2.89.067 2.863.067-2.602.067.983.067-1.634.067 3.998.067-5.005.067 1.956.067.45.067-.646.067 4.116.067-6.148.067.314.067.407.067-.563.067 4.125.067-2.365.067-1.508.067.783.2 2.202.068-1.832.067 3.57.067-2.341.067-3.526.067 1.446.067 4.214.2-6.313.067 2.44.067-1.425.067-2.133.134 3.045.067-1.796.067 1.624.067-.04.067-1.242.067 4.298.067-2.51.067 2.217.067-3.502.067.792.067-1.637.067 2.301.134-2.648.067.806.067-.039.067-1.496.067.233.067 1.761.067-2.072.201 3.17.134-4.362.134 6.466.067-3.75.067.957.067-.58.201-3.504.067.03.067 4.764.2-7.3.202 11.982.134-8.784.067 2.293.067-3.13.067 6.893.134-8.453.067 7.17.067-3.368.067-2.801.134 5.302.067-10.15.067 4.4.067 1.117.067-1.048.067 3.073.067-3.996.067 5.098.067-2.44.134.47.067-5.585.067 3.503.067-2.719.067 3.032.067-3.712.067 3.91.066-2.17.067.75.067-4.181.067 5.216.067-.166.134-5.37.201 6.135.067.91.067-4.333.067 3.091.067-1.598.067.769.067-3.506.067 3.403.201-7.644.067 6.343.067-2.257.134 3.672.134-8.048.067 8.79.067-2.388.067-2.917.067.892.067.572.067-2.357.134 6.83.067-2.888.067-5.6.067 1.627.134-1.82.134 7.632.067-6.489.067 2.078.067-.28.134-4.229.067 3.142.067-3.221.067 1.197.067-1.23.067 6.513.134-6.108.067 2.553.067-3.277.067.752.067 1.861.067-2.276.067.98.134-.933.067-3.219.067 1.879.067-.873.067 1.438.067-1.828.2 4.532.068-5.09.067 5.169.067-6.846.067 4.636.067-4.203.067 4.54.067-6.935.066 6.266.067-8.596.067 9.092.067-9.122.067 7.665.067-7.706.067 7.787.067-10.666.067 13.058.067-11.943.067 13.4.067-16.309.067 15.663.067-14.814.067 16.712.067-17.84.067 18.7.067-20.573.067 18.783.067-19.431.067 19.178.067-21.188.067 26.19.067-27.42.067 31.921.067-33.61.067 38.646.067-40.118.067 38.524.067-40.31.067 33.599.067-35.363.067 27.102.067-28.1.067 22.524.067-23.64.067 22.69.067-23.507.067 25.121.067-27.159.067 24.064.067-25.325.067 26.945.067-29.915.067 29.291.067-31.95.067 33.63.067-37.763.067 35.371.067-40.634.067 45.68.067-53.492.067 48.155.134-71.35.067 6.77.067 64.58.067-48.155.067 53.491.067-45.679.067 40.634.067-35.37.067 37.762.067-33.63.067 31.95.067-29.29.067 29.914.067-26.945.067 25.325.067-24.064.067 27.16.067-25.122.067 23.506.067-22.689.067 23.64.067-22.523.066 28.1.067-27.103.067 35.363.067-33.6.067 40.31.067-38.523.067 40.118.067-38.646.067 33.61.067-31.921.067 27.42.067-26.19.067 21.188.067-19.178.067 19.431.067-18.783.067 20.574.067-18.7.067 17.839.067-16.712.067 14.814.067-15.663.067 16.308.067-13.399.067 11.943.067-13.058.067 10.666.067-7.787.067 7.706.067-7.665.067 9.122.067-9.092.067 8.596.067-6.266.067 6.934.067-4.54.067 4.204.067-4.636.067 6.846.067-5.17.067 5.091.067-2.654.067 1.02.067-2.898.067 1.828.2-2.444.135 3.326.067.825.067-.979.067 2.276.134-2.613.067 3.277.067-2.553.067.385.067 5.723.067-6.513.067 1.23.067-1.197.067 3.22.067-3.141.067.045.134 4.464.067-2.078.067 6.49.134-7.634.067.496.067 1.325.067-1.627.134 8.488.133-6.83.067 2.357.067-.572.067-.892.134 5.305.067-8.79.067 5.109.067 2.939.134-3.672.067 2.257.067-6.343.067 3.242.067.075.067 4.327.067-3.403.067 3.506.067-.769.067 1.598.067-3.091.067 4.333.067-.91.201-6.136.201 5.537.067-5.216.067 4.18.067-.749.067 2.17.067-3.91.067 3.712.067-3.032.067 2.719.067-3.503.067 5.585.067-.326.067-.144.067 2.44.067-5.098.067 3.996.067-3.073.067 1.048.067-1.118.067-4.4.067 10.15.067-.079.067-5.222.067 2.801.067 3.368.067-7.17.067 1.872.067 6.58.067-6.893.067 3.13.067-2.292.134 8.784.067-9.341.067 1.713.067-4.354.067 2.033.067.805.067 4.462.134-4.794.268 4.084.067-.957.066 3.75.067-.807.067-5.66.067 2.484.067 1.879.201-3.17.067 2.072.134-1.994.134 1.535.067-.806.067.171.067 2.477.067-2.3.201 4.346.067-2.216.067 2.51.067-4.3.067 1.243.067.04.067-1.624.067 1.796.067-.292.067-2.753.134 3.558.067-2.44.067 5.007.067-2.268.067 3.574.134-5.66.134 5.868.067-3.57.067 1.831.268-2.985.134 3.873.067-4.125.067.563.134-.721.067 6.148.067-4.116.067.645.067-.449.067-1.956.067 5.005.067-3.998.067 1.634.067-.983.067 2.602.067-2.863.067 1.69.067 1.2.067-1.27.067 2.202.067-3.52.067 3.147.067-2.043.067 2.539.067-1.859.067.74.067-.31.067 1.102.067-2.644.067 1.069.066.653.067-.937.067 3.993.134-3.788.201 4.482.067-4.58.067 2.049.067-1.312.067.387.067 1.2.067-1.293.134 1.831.134-3.37.067 4.165.067-2.25.067-.47.067 1.31.067-.102.067-.702.067 1.359.067-1.157.134 1.804.134-3.502.134 3.782.067-2.128.067 1.808.067-1.917.067 2.793.134-2.67.067 1.477.134-1.682.067 1.11.134-1.03.067 2.225.067-.601.067-.286.134 2.163.067-1.72.067 1.542.067-2.582.067 2.662.134-4.734.067 4.675.067-.316.067-.025.2-2.278.068-.505.067.367.067 2.36.067-1.378.067.534.067-.518.067.353.067-2.614.067 5.208.067-1.57.067-1.32.067.162.067 1.225.134-1.471.133.87.067 2.808.067-3.144.067 1.753.067 3.602.201-6.073.134 2.753.067-.413.067.213.067.446.067-2.142.134 3.918.067-.972.201-2.924.067 2.983.067-2.755.134 4.725.067-1.98.067-3.88.134 4.666.067-4.859.067 3.353.067-1.26.067-.049.067 1.74.067-1.874.067 2.473.134-2.144.067 5.27.134-7.354.2 5.236.269-4.643.067 6.344.067-3.619.067-2.522.067 1.513.335 2.94.067.086.134-.907.067.189.268-3.134.134 2.81.067.142.067.823.067 2.203.067-3.874.067 2.895.067-1.05.067-.345.133-2.68.201 4.673.134-4.53.067.031.067 2.08.067-1.635.134 4.336.134-2.222.067 3.491.067-5.92.067.85.067 4.1.067-5.343.067 1.065.067.77.067 4.356.067-6.245.067 3.806.067-.257.067-1.962.067.654.067 2.667.067-.365.067-3.975.067 3.454.067-.537.067-2.895.201 3.642.067 1.346.134-1.938.134 1.217.2-3.516.068 2.63.067-.7.067-1.305.067.185.2 3.006.068-3.913.067 4.578.067-3.74.067.622.067.782.067 2.962.134-4.207.2 5.689.202-5.246.134 4.857.067-3.24.067.749.067 3.215.067-2.017.067-3 .067 1.473.067-1.778.134 1.48.067-2.234.066 4.497.067-3.626.067.65.067.532.201-1.706.067 4.531.067-3.543.067 3.334.067-4.546.067 5.494.067-3.502.067.778.067-.792.134 3.13.067-3.328.067.133.067 2.522.067-3.414.067 3.303.067-1.083.067-2.023.067-8.714.067 10.46.067-1.863.067 3.831.067-.2.067-5.15.067 2.655.067 1.058.067-3.459.067 5.564.067-5.339.067 3.41.067-3.265.134 2.78.067-1.88.067 6.306.067-1.948.067-.9.067.778.067-4.19.067 3.959.067-.628.2-1.592.068 1.423.134-2.108.067.412.067 4.429.067-1.206.134-2.718.067 2.706.134-4.201.067 2.6.067-1.106.067 1.888.067-.208.067-1.727.134 3.388.2-5.773.202 3.325.067-1.874.067 1.755.066-.552.067-.667.067 4.76.067-2.01.067 1.247.201-4.116.201 5.47.067-.379.067-4.33.067.609.067-.538.067 2.467.067-.577.067-2.064.067.586.134 4.587.134-4.935.067 2.905.067-2.934.067.411.067.013.067 3.875.134-4.433.067.921.067-.197.067-.896.067 4.086.067-4.475.067 2.174.067-.371.067.196.067.971.067-2.542.067.9.134 2.096.134-1.776.067 5.2.067-4.256.067.064.067.867.067-.635.134 3.15.067-5.82.067 1.188.134 3.683.134-5.18.067 3.215.067-1.31.067-2.714.134 2.67.067-2.144.134 3.42.067-.029.134-2.29.067.327.067 1.962.067-1.996.067.199.134 2.964.067-3.109.066.91.067-.968.067.496.067.536.067-2.05.134 4.755.067-.671.134-2.477.067.984.067 4.622.067-4.676.067.194.067.428.067 1.6.067-3.435.067 2.78.067-6.031.134 6.354.067-.556.067.185.067 2.426.067-6.894.067 2.873.201 5.445.067-3.75.067 1.082.067.633.067-4.96.067 1.42.067-2.252.201 4.905.067-3.08.067.547.067-1.359.067 6.366.067-4.654.067.61.067.29.067 2.118.067-.832.067-5.063.067 6.687.067-4.072.067-1.306.067 4.338.067-5.45.067 2.305.067-1.917.067.708.134 4.258.067-1.998.134 2.353.067-2.691.067 3.261.067-3.676.067 4.783.067-.909.2-5.666.068 7.326.067-8.71.067 7.208.067-3.265.067-2.166.067 3.377.066-1.826.134 3.614.067-3.328.067 1.61.067-2.048.067 2 .067-2.71.067 2.814.067-2.586.067 4.331.067-5.533.067 4.91.134-6.83.201 8.112.067-7.749.067 4.053.067-.293.067 4.11.067-.752.134-5.046.067.126.067 4.566.067-1.522.067.382.067-3.111.067 5.232.067-3.679.067.4.067-.148.067-1.063.067 5.664.067-2.301.067-3.422.134 6.043.067-6.158.067 3.77.067-3.806.067 3.21.134-4.521.067 1.29.067-1.083.134 5.583.067-4.974.134 10.123.134-9.571.067.195.067.744.067 2.303.067-.508.067.825.067-1.852.067 3.734.067-1.191.134-5.361.134 4.852.067-1.024.067 3.373.067-2.391.067 2.2.067-8.146.067.843.067 6.345.067-3.15.067.755.066-1.204.134 3.148.067-1.355.067-2.297.067 4.938.134-4.676.067 4.563.134-6.374.201 3.131.067-2.33.134 4.969.067-.702.067-.297.067-5.074.067.776.067 8.954.067-9.41.067 2.775.067 4.015.067-3.26.067 5.954.134-9.536.134 6.243.067-6.781.067 8.608.067-2.867.067-1.113.067-4.062.067 2.07.067.973.067-3.57.067 5.386.067-1.591.067-.555.134 5.277.067-5.994.067.994.067.197.067-.774.067 4.977.067-7.295.067 8.759.067-5.335.067-4.588.067 7.71.067-6.987.067 1.486.134 7.55.067-9.891.067 6.348.067.665.134-5.12.134 6.622.067-1.235.134-.49.067-4.894.067 10.158.067-4.799.067-3.347.067.72.067-.587.067-1.572.067.765.066-.389.067 3.096.067-2.845.067 2.354.067-3.347.067 3.937.067-1.303.067-.451.067.925.067-2.923.067 3.676.067-2.708.067 4.359.067-2.013.067 1.016.067-2.875.067 1.58.067-1.682.067 2.124.067-1.729.067 1.343.134-2.761.067 7.565.067-2.562.134-3.643.067.393.067 4.672.067-3.648.067 1.661.134-1.266.067 1.155.067 3.16.067-6.148.067 1.832.134-3.082.067 1.065.067 2.448.067-2.755.067.448.067-.472.067 2.216.067-2.252.067 3.48.067-.088.134-2.942.134 1.315.067 4.856.067-5.712.067 2.557.067 2.063.067-1.459.067.043.067.398.067 1.426.067-5.37.067 1.697.067-2.49.067 3.616.067-.373.067.945.067-4.012.067 4.865.067-1.799.134-3.97.067 5.709.067-5.546.067 5.52.067-4.538.066 2.94.134-1.772.067-1.548.067.857.067.898.067-.97.067.658.067 3.545.067-2.458.067 4.655.067-3.943.067 1.95.268-3.012.067.228.201 3.055.134-5.107.134 3.893.067-4.556.134 5.164.067-5.502.067 10.102.067-6.395.067-1.459.134 2.651.134-4.306.067 6.118.067-3.612.134 3.547.067-.09.067-4.94.067 4.021.067-4.198.067 1.235.067.805.134-2.36.067 4.745.067-3.367.134 5.498.067-4.045.067.041.067 1.376.134-4.529.067 1.734.134 3.71.067-4.674.067.24.067 1.753.067-2.33.067 5.685.067-7.255.067 7.81.067-6.993.067 4.039.134-5.896.134 5.969.067-3.328.067 4.03.067-2.996.066 3.486.201-4.306.067 3.62.067-1.001.067.177.134-1.761.134 2.796.067-1.762.067 3.026.067-2.51.067 1.54.067-1.774.067 1.522.067-4.374.067 1.42.067-.419.067 2.095.067-.114.067-1.227.134 1.794.067 6.921.067-11.106.067 5.85.067.51.067-5.276.067.871.067 3.315.067-3.91.067 3.76.067-2.658.067 3.283.067-1.92.067 1.262.067-.123.134-2.98.067 4.48.067-2.35.067-.417.067 1.137.067-1.672.067 1.985.067-3.7.067.008.067 2.562.067-.824.134 1.783.067-1.255.067.223.134.928.067-1.459.067.574.134 1.13.067-2.074.067 4.31.134-4.585.067 1.703.067-.062.2-2.187.135 3.031.067-.965.067.638.134-1.911.066 2.518.067-1.393.067-3.014.067 7.64.067-4.667.067 1.969.067-2.347.067.603.067 2.502.134-5.452.067 3.443.067-2.23.067.004.067-1.732.134 5.854.067.368.201-4.943.067 3.407.067-2.844.067 1.177.134 1.48.067-2.005.067.104.067-.196.134 1.366.067-1.776.067 1.276.067-1.233.067 4.587.067-.611.067-6.472.067 1.45.067 1.988.067-2.492.067 5.397.067-2.434.067-1.814.134 3.515.067-5.284.067 2.457.067 4.023.134-3.51.067.103.067-.446.067 1.33.067-1.361.067 2.323.067-5.688.067 6.763.067-2.988.067 1.247.067-2.2.2 4.155.135-6.957.067 5.716.067-4.17.067 3.147.067-1.525.067 2.008.067-3.732.067 4.065.067-2.827.134 7.572.133-6.896.067.274.067-2.19.067 5.225.134-5.947.067 6.514.067-.929.067-4.088.067 1.203.067.258.067-.087.067-1.454.067 4.17.067-2.302.067-.38.067.204.067.132.067.734.067-.537.067.732.067-1.407.067 2.332.134-3.081.134 5.292.067-5.483.067 1.654.134 3.301.134-4.145.268 3.378.067-4.105.067 2.343.067 3.652.067-5.962.067 2.822.067 3.9.067-8.27.067 1.33.067-1.036.134 7.432.067-6.885.067 1.132.067-.833.067 2.293.2-3.024.068 5.774.067-4.767.067 8.155.067-8.807.067 1.284.067 2.076.067-1.897.067 1.268.067-3.97.134 6.944.067-.921.134-4.775.067 2.662.067-1.301.2 5.332.068-6.153.066 1.736.067 4.45.067-3.42.067.139.067-1.236.134 3.21.134-5.657.134 2.845.134 3.24.067-.437.067-6.124.067 2.252.067 1.346" clip-path="url(#p29273b9126)" style="fill:none;stroke-dasharray:3.7,1.6;stroke-dashoffset:0;stroke:red"/><path id="patch_3" d="M30.184 142.2V3.6" style="fill:none;stroke:#000;stroke-width:.5;stroke-linejoin:miter;stroke-linecap:square"/><path id="patch_4" d="M214.324 142.2V3.6" style="fill:none;stroke:#000;stroke-width:.5;stroke-linejoin:miter;stroke-linecap:square"/><path id="patch_5" d="M30.184 142.2h184.14" style="fill:none;stroke:#000;stroke-width:.5;stroke-linejoin:miter;stroke-linecap:square"/><path id="patch_6" d="M30.184 3.6h184.14" style="fill:none;stroke:#000;stroke-width:.5;stroke-linejoin:miter;stroke-linecap:square"/></g></g><defs><clipPath id="p29273b9126"><path d="M30.184 3.6h184.14v138.6H30.184z"/></clipPath></defs></svg>