<svg xmlns="http://www.w3.org/2000/svg" xmlns:xlink="http://www.w3.org/1999/xlink" width="290.566" height="223.411" viewBox="0 0 217.924 167.558"><defs><style>*{stroke-linejoin:round;stroke-linecap:butt}</style></defs><g id="figure_1"><path id="patch_1" d="M0 167.558h217.924V0H0z" style="fill:none"/><g id="axes_1"><path id="patch_2" d="M30.184 142.2h184.14V3.6H30.184z" style="fill:none"/><g id="matplotlib.axis_1"><g id="xtick_1"><g id="line2d_1"><defs><path id="m62c2ac594d" d="M0 0v-3" style="stroke:#000;stroke-width:.5"/></defs><use xlink:href="#m62c2ac594d" x="55.301" y="142.2" style="stroke:#000;stroke-width:.5"/></g><g id="line2d_2"><defs><path id="m159e4b8fcd" d="M0 0v3" style="stroke:#000;stroke-width:.5"/></defs><use xlink:href="#m159e4b8fcd" x="55.301" y="3.6" style="stroke:#000;stroke-width:.5"/></g><g id="text_1" transform="matrix(.08 0 0 -.08 47.116 151.104)"><defs><path id="CMSY10-0" d="M4218 1472c108 0 224 0 224 128s-116 128-224 128H755c-109 0-224 0-224-128s115-128 224-128z" transform="scale(.01563)"/><path id="NimbusRomNo9L-Regu-30" d="M1626 4352c-352 0-621-108-858-332-371-359-614-1095-614-1844 0-697 211-1446 512-1804C902 90 1229-64 1600-64c326 0 602 109 832 333 371 352 614 1095 614 1869 0 1312-582 2214-1420 2214m-20-166c538 0 826-723 826-2061 0-1337-282-2022-832-2022S768 788 768 2119c0 1357 288 2067 838 2067" transform="scale(.01563)"/><path id="CMMI10-3a" d="M1229 338c0 184-154 337-339 337-186 0-340-153-340-337C550 153 704 0 890 0c185 0 339 153 339 338" transform="scale(.01563)"/><path id="NimbusRomNo9L-Regu-32" d="m3040 875-83 32c-237-363-320-421-608-421H819l1075 1123c570 593 820 1078 820 1576 0 638-519 1128-1184 1128-352 0-685-140-922-395-205-218-301-422-410-875l135-32c256 625 486 829 928 829 537 0 902-364 902-900 0-497-294-1090-832-1658L192 77V0h2496z" transform="scale(.01563)"/></defs><use xlink:href="#CMSY10-0" transform="scale(.99626)"/><use xlink:href="#NimbusRomNo9L-Regu-30" transform="matrix(.99626 0 0 .99626 77.409 0)"/><use xlink:href="#CMMI10-3a" transform="matrix(.99626 0 0 .99626 127.222 0)"/><use xlink:href="#NimbusRomNo9L-Regu-32" transform="matrix(.99626 0 0 .99626 154.817 0)"/></g></g><g id="xtick_2"><use xlink:href="#m62c2ac594d" id="line2d_3" x="88.794" y="142.2" style="stroke:#000;stroke-width:.5"/><use xlink:href="#m159e4b8fcd" id="line2d_4" x="88.794" y="3.6" style="stroke:#000;stroke-width:.5"/><g id="text_2" transform="matrix(.08 0 0 -.08 80.61 151.104)"><defs><path id="NimbusRomNo9L-Regu-31" d="M1862 4339 710 3757v-90c77 32 148 58 173 71 115 45 224 70 288 70 135 0 192-97 192-303V592c0-213-51-360-153-419-96-57-186-77-455-77V0h1767v96c-506 0-608 64-608 374v3857z" transform="scale(.01563)"/></defs><use xlink:href="#CMSY10-0" transform="scale(.99626)"/><use xlink:href="#NimbusRomNo9L-Regu-30" transform="matrix(.99626 0 0 .99626 77.409 0)"/><use xlink:href="#CMMI10-3a" transform="matrix(.99626 0 0 .99626 127.222 0)"/><use xlink:href="#NimbusRomNo9L-Regu-31" transform="matrix(.99626 0 0 .99626 154.817 0)"/></g></g><g id="xtick_3"><use xlink:href="#m62c2ac594d" id="line2d_5" x="122.288" y="142.2" style="stroke:#000;stroke-width:.5"/><use xlink:href="#m159e4b8fcd" id="line2d_6" x="122.288" y="3.6" style="stroke:#000;stroke-width:.5"/><g id="text_3" transform="matrix(.08 0 0 -.08 117.199 151.104)"><use xlink:href="#NimbusRomNo9L-Regu-30" transform="scale(.99626)"/><use xlink:href="#CMMI10-3a" transform="matrix(.99626 0 0 .99626 49.813 0)"/><use xlink:href="#NimbusRomNo9L-Regu-30" transform="matrix(.99626 0 0 .99626 77.409 0)"/></g></g><g id="xtick_4"><use xlink:href="#m62c2ac594d" id="line2d_7" x="155.781" y="142.2" style="stroke:#000;stroke-width:.5"/><use xlink:href="#m159e4b8fcd" id="line2d_8" x="155.781" y="3.6" style="stroke:#000;stroke-width:.5"/><g id="text_4" transform="matrix(.08 0 0 -.08 150.692 151.104)"><use xlink:href="#NimbusRomNo9L-Regu-30" transform="scale(.99626)"/><use xlink:href="#CMMI10-3a" transform="matrix(.99626 0 0 .99626 49.813 0)"/><use xlink:href="#NimbusRomNo9L-Regu-31" transform="matrix(.99626 0 0 .99626 77.409 0)"/></g></g><g id="xtick_5"><use xlink:href="#m62c2ac594d" id="line2d_9" x="189.275" y="142.2" style="stroke:#000;stroke-width:.5"/><use xlink:href="#m159e4b8fcd" id="line2d_10" x="189.275" y="3.6" style="stroke:#000;stroke-width:.5"/><g id="text_5" transform="matrix(.08 0 0 -.08 184.186 151.104)"><use xlink:href="#NimbusRomNo9L-Regu-30" transform="scale(.99626)"/><use xlink:href="#CMMI10-3a" transform="matrix(.99626 0 0 .99626 49.813 0)"/><use xlink:href="#NimbusRomNo9L-Regu-32" transform="matrix(.99626 0 0 .99626 77.409 0)"/></g></g><g id="xtick_6"><g id="line2d_11"><defs><path id="m5b41292f92" d="M0 0v-1.5" style="stroke:#000;stroke-width:.5"/></defs><use xlink:href="#m5b41292f92" x="35.205" y="142.2" style="stroke:#000;stroke-width:.5"/></g><g id="line2d_12"><defs><path id="m991ee25168" d="M0 0v1.5" style="stroke:#000;stroke-width:.5"/></defs><use xlink:href="#m991ee25168" x="35.205" y="3.6" style="stroke:#000;stroke-width:.5"/></g></g><g id="xtick_7"><use xlink:href="#m5b41292f92" id="line2d_13" x="41.904" y="142.2" style="stroke:#000;stroke-width:.5"/><use xlink:href="#m991ee25168" id="line2d_14" x="41.904" y="3.6" style="stroke:#000;stroke-width:.5"/></g><g id="xtick_8"><use xlink:href="#m5b41292f92" id="line2d_15" x="48.602" y="142.2" style="stroke:#000;stroke-width:.5"/><use xlink:href="#m991ee25168" id="line2d_16" x="48.602" y="3.6" style="stroke:#000;stroke-width:.5"/></g><g id="xtick_9"><use xlink:href="#m5b41292f92" id="line2d_17" x="62" y="142.2" style="stroke:#000;stroke-width:.5"/><use xlink:href="#m991ee25168" id="line2d_18" x="62" y="3.6" style="stroke:#000;stroke-width:.5"/></g><g id="xtick_10"><use xlink:href="#m5b41292f92" id="line2d_19" x="68.698" y="142.2" style="stroke:#000;stroke-width:.5"/><use xlink:href="#m991ee25168" id="line2d_20" x="68.698" y="3.6" style="stroke:#000;stroke-width:.5"/></g><g id="xtick_11"><use xlink:href="#m5b41292f92" id="line2d_21" x="75.397" y="142.2" style="stroke:#000;stroke-width:.5"/><use xlink:href="#m991ee25168" id="line2d_22" x="75.397" y="3.6" style="stroke:#000;stroke-width:.5"/></g><g id="xtick_12"><use xlink:href="#m5b41292f92" id="line2d_23" x="82.096" y="142.2" style="stroke:#000;stroke-width:.5"/><use xlink:href="#m991ee25168" id="line2d_24" x="82.096" y="3.6" style="stroke:#000;stroke-width:.5"/></g><g id="xtick_13"><use xlink:href="#m5b41292f92" id="line2d_25" x="95.493" y="142.2" style="stroke:#000;stroke-width:.5"/><use xlink:href="#m991ee25168" id="line2d_26" x="95.493" y="3.6" style="stroke:#000;stroke-width:.5"/></g><g id="xtick_14"><use xlink:href="#m5b41292f92" id="line2d_27" x="102.192" y="142.2" style="stroke:#000;stroke-width:.5"/><use xlink:href="#m991ee25168" id="line2d_28" x="102.192" y="3.6" style="stroke:#000;stroke-width:.5"/></g><g id="xtick_15"><use xlink:href="#m5b41292f92" id="line2d_29" x="108.89" y="142.2" style="stroke:#000;stroke-width:.5"/><use xlink:href="#m991ee25168" id="line2d_30" x="108.89" y="3.6" style="stroke:#000;stroke-width:.5"/></g><g id="xtick_16"><use xlink:href="#m5b41292f92" id="line2d_31" x="115.589" y="142.2" style="stroke:#000;stroke-width:.5"/><use xlink:href="#m991ee25168" id="line2d_32" x="115.589" y="3.6" style="stroke:#000;stroke-width:.5"/></g><g id="xtick_17"><use xlink:href="#m5b41292f92" id="line2d_33" x="128.986" y="142.2" style="stroke:#000;stroke-width:.5"/><use xlink:href="#m991ee25168" id="line2d_34" x="128.986" y="3.6" style="stroke:#000;stroke-width:.5"/></g><g id="xtick_18"><use xlink:href="#m5b41292f92" id="line2d_35" x="135.685" y="142.2" style="stroke:#000;stroke-width:.5"/><use xlink:href="#m991ee25168" id="line2d_36" x="135.685" y="3.6" style="stroke:#000;stroke-width:.5"/></g><g id="xtick_19"><use xlink:href="#m5b41292f92" id="line2d_37" x="142.384" y="142.2" style="stroke:#000;stroke-width:.5"/><use xlink:href="#m991ee25168" id="line2d_38" x="142.384" y="3.6" style="stroke:#000;stroke-width:.5"/></g><g id="xtick_20"><use xlink:href="#m5b41292f92" id="line2d_39" x="149.082" y="142.2" style="stroke:#000;stroke-width:.5"/><use xlink:href="#m991ee25168" id="line2d_40" x="149.082" y="3.6" style="stroke:#000;stroke-width:.5"/></g><g id="xtick_21"><use xlink:href="#m5b41292f92" id="line2d_41" x="162.48" y="142.2" style="stroke:#000;stroke-width:.5"/><use xlink:href="#m991ee25168" id="line2d_42" x="162.48" y="3.6" style="stroke:#000;stroke-width:.5"/></g><g id="xtick_22"><use xlink:href="#m5b41292f92" id="line2d_43" x="169.179" y="142.2" style="stroke:#000;stroke-width:.5"/><use xlink:href="#m991ee25168" id="line2d_44" x="169.179" y="3.6" style="stroke:#000;stroke-width:.5"/></g><g id="xtick_23"><use xlink:href="#m5b41292f92" id="line2d_45" x="175.877" y="142.2" style="stroke:#000;stroke-width:.5"/><use xlink:href="#m991ee25168" id="line2d_46" x="175.877" y="3.6" style="stroke:#000;stroke-width:.5"/></g><g id="xtick_24"><use xlink:href="#m5b41292f92" id="line2d_47" x="182.576" y="142.2" style="stroke:#000;stroke-width:.5"/><use xlink:href="#m991ee25168" id="line2d_48" x="182.576" y="3.6" style="stroke:#000;stroke-width:.5"/></g><g id="xtick_25"><use xlink:href="#m5b41292f92" id="line2d_49" x="195.973" y="142.2" style="stroke:#000;stroke-width:.5"/><use xlink:href="#m991ee25168" id="line2d_50" x="195.973" y="3.6" style="stroke:#000;stroke-width:.5"/></g><g id="xtick_26"><use xlink:href="#m5b41292f92" id="line2d_51" x="202.672" y="142.2" style="stroke:#000;stroke-width:.5"/><use xlink:href="#m991ee25168" id="line2d_52" x="202.672" y="3.6" style="stroke:#000;stroke-width:.5"/></g><g id="xtick_27"><use xlink:href="#m5b41292f92" id="line2d_53" x="209.371" y="142.2" style="stroke:#000;stroke-width:.5"/><use xlink:href="#m991ee25168" id="line2d_54" x="209.371" y="3.6" style="stroke:#000;stroke-width:.5"/></g><g id="text_6" transform="matrix(.08 0 0 -.08 109.753 162.233)"><defs><path id="NimbusRomNo9L-Regu-66" d="M1978 2880h-788v731c0 367 122 562 365 562 135 0 224-63 339-246 103-164 180-227 288-227 148 0 269 114 269 259 0 229-281 393-665 393-397 0-736-171-903-461-166-278-217-506-224-1011H134v-205h525V656c0-471-70-547-531-547V0h1664v109c-525 0-595 71-595 552v2014h781z" transform="scale(.01563)"/><path id="NimbusRomNo9L-Regu-28" d="M1888 4326c-474-307-666-473-902-768-455-556-679-1196-679-1945 0-813 237-1440 800-2093 263-307 429-448 762-653l77 103c-512 403-692 627-864 1107-154 429-224 915-224 1555 0 672 83 1197 256 1594 179 396 371 627 832 998z" transform="scale(.01563)"/><path id="NimbusRomNo9L-Regu-47" d="M4538 2304H2906v-128c275 0 352-19 428-71 96-58 135-207 135-484V574c0-207-391-382-851-382-1044 0-1684 730-1684 1920 0 602 180 1184 461 1498 282 314 679 486 1114 486 358 0 672-121 921-352 192-179 295-352 455-742h147l-51 1350h-141c-38-121-154-211-288-211-64 0-166 19-282 64-288 96-582 147-870 147-1280 0-2195-940-2195-2246 0-627 173-1107 531-1485C1165 180 1779-64 2483-64c551 0 1351 224 1607 449v1309c0 379 76 463 448 495z" transform="scale(.01563)"/><path id="NimbusRomNo9L-Regu-48" d="M1338 2304v1229c0 457 70 526 563 571v120H122v-120c492-45 563-115 563-577V749c0-539-64-615-563-615V0h1779v121c-480 38-563 121-563 578v1323h1939V757c0-546-64-623-563-623V0h1779v121c-480 38-563 121-563 575v2833c0 460 70 530 563 575v120H2714v-120c492-45 563-114 563-571V2304z" transform="scale(.01563)"/><path id="NimbusRomNo9L-Regu-7a" d="m2675 864-115 26c-64-320-102-423-186-532-89-108-307-166-633-166H858l1721 2592v96H358l-19-755h115c58 467 154 563 538 563h883L173 96V0h2413z" transform="scale(.01563)"/><path id="NimbusRomNo9L-Regu-29" d="M243-1133c474 307 666 474 903 768 454 557 678 1197 678 1946 0 819-237 1440-800 2093-262 307-429 448-762 652l-76-102c512-403 684-627 864-1107 153-429 224-915 224-1555 0-666-84-1197-256-1588-180-403-372-633-832-1004z" transform="scale(.01563)"/></defs><use xlink:href="#NimbusRomNo9L-Regu-66" transform="scale(.99626)"/><use xlink:href="#NimbusRomNo9L-Regu-28" transform="matrix(.99626 0 0 .99626 58.082 0)"/><use xlink:href="#NimbusRomNo9L-Regu-47" transform="matrix(.99626 0 0 .99626 91.257 0)"/><use xlink:href="#NimbusRomNo9L-Regu-48" transform="matrix(.99626 0 0 .99626 163.187 0)"/><use xlink:href="#NimbusRomNo9L-Regu-7a" transform="matrix(.99626 0 0 .99626 235.117 0)"/><use xlink:href="#NimbusRomNo9L-Regu-29" transform="matrix(.99626 0 0 .99626 279.35 0)"/></g></g><g id="matplotlib.axis_2"><g id="ytick_1"><g id="line2d_55"><defs><path id="m1dd3d7f226" d="M0 0h3" style="stroke:#000;stroke-width:.5"/></defs><use xlink:href="#m1dd3d7f226" x="30.184" y="127.564" style="stroke:#000;stroke-width:.5"/></g><g id="line2d_56"><defs><path id="m700334d578" d="M0 0h-3" style="stroke:#000;stroke-width:.5"/></defs><use xlink:href="#m700334d578" x="214.324" y="127.564" style="stroke:#000;stroke-width:.5"/></g><use xlink:href="#NimbusRomNo9L-Regu-30" id="text_7" transform="matrix(.0797 0 0 -.0797 22.7 130.266)"/></g><g id="ytick_2"><use xlink:href="#m1dd3d7f226" id="line2d_57" x="30.184" y="93.868" style="stroke:#000;stroke-width:.5"/><use xlink:href="#m700334d578" id="line2d_58" x="214.324" y="93.868" style="stroke:#000;stroke-width:.5"/><g id="text_8" transform="matrix(.08 0 0 -.08 18.714 96.57)"><defs><path id="NimbusRomNo9L-Regu-35" d="M1158 3776h1255c102 0 128 13 147 58l243 569-57 45c-96-134-160-166-295-166H1114L416 2759c-6-13-6-19-6-32 0-32 25-51 76-51 205 0 461-45 724-129 736-238 1075-637 1075-1273 0-618-391-1101-890-1101-128 0-237 45-429 187-204 148-352 212-486 212-186 0-275-77-275-238C205 90 506-64 986-64c537 0 998 174 1318 502 294 290 429 656 429 1145 0 463-122 759-442 1080-281 284-646 431-1401 566z" transform="scale(.01563)"/></defs><use xlink:href="#NimbusRomNo9L-Regu-35" transform="scale(.99626)"/><use xlink:href="#NimbusRomNo9L-Regu-30" transform="matrix(.99626 0 0 .99626 49.813 0)"/></g></g><g id="ytick_3"><use xlink:href="#m1dd3d7f226" id="line2d_59" x="30.184" y="60.172" style="stroke:#000;stroke-width:.5"/><use xlink:href="#m700334d578" id="line2d_60" x="214.324" y="60.172" style="stroke:#000;stroke-width:.5"/><g id="text_9" transform="matrix(.08 0 0 -.08 14.73 62.874)"><use xlink:href="#NimbusRomNo9L-Regu-31" transform="scale(.99626)"/><use xlink:href="#NimbusRomNo9L-Regu-30" transform="matrix(.99626 0 0 .99626 49.813 0)"/><use xlink:href="#NimbusRomNo9L-Regu-30" transform="matrix(.99626 0 0 .99626 99.626 0)"/></g></g><g id="ytick_4"><use xlink:href="#m1dd3d7f226" id="line2d_61" x="30.184" y="26.476" style="stroke:#000;stroke-width:.5"/><use xlink:href="#m700334d578" id="line2d_62" x="214.324" y="26.476" style="stroke:#000;stroke-width:.5"/><g id="text_10" transform="matrix(.08 0 0 -.08 14.73 29.177)"><use xlink:href="#NimbusRomNo9L-Regu-31" transform="scale(.99626)"/><use xlink:href="#NimbusRomNo9L-Regu-35" transform="matrix(.99626 0 0 .99626 49.813 0)"/><use xlink:href="#NimbusRomNo9L-Regu-30" transform="matrix(.99626 0 0 .99626 99.626 0)"/></g></g><g id="ytick_5"><g id="line2d_63"><defs><path id="m6d93df2eb4" d="M0 0h1.5" style="stroke:#000;stroke-width:.5"/></defs><use xlink:href="#m6d93df2eb4" x="30.184" y="141.043" style="stroke:#000;stroke-width:.5"/></g><g id="line2d_64"><defs><path id="m5965b334f9" d="M0 0h-1.5" style="stroke:#000;stroke-width:.5"/></defs><use xlink:href="#m5965b334f9" x="214.324" y="141.043" style="stroke:#000;stroke-width:.5"/></g></g><g id="ytick_6"><use xlink:href="#m6d93df2eb4" id="line2d_65" x="30.184" y="134.304" style="stroke:#000;stroke-width:.5"/><use xlink:href="#m5965b334f9" id="line2d_66" x="214.324" y="134.304" style="stroke:#000;stroke-width:.5"/></g><g id="ytick_7"><use xlink:href="#m6d93df2eb4" id="line2d_67" x="30.184" y="120.825" style="stroke:#000;stroke-width:.5"/><use xlink:href="#m5965b334f9" id="line2d_68" x="214.324" y="120.825" style="stroke:#000;stroke-width:.5"/></g><g id="ytick_8"><use xlink:href="#m6d93df2eb4" id="line2d_69" x="30.184" y="114.086" style="stroke:#000;stroke-width:.5"/><use xlink:href="#m5965b334f9" id="line2d_70" x="214.324" y="114.086" style="stroke:#000;stroke-width:.5"/></g><g id="ytick_9"><use xlink:href="#m6d93df2eb4" id="line2d_71" x="30.184" y="107.347" style="stroke:#000;stroke-width:.5"/><use xlink:href="#m5965b334f9" id="line2d_72" x="214.324" y="107.347" style="stroke:#000;stroke-width:.5"/></g><g id="ytick_10"><use xlink:href="#m6d93df2eb4" id="line2d_73" x="30.184" y="100.607" style="stroke:#000;stroke-width:.5"/><use xlink:href="#m5965b334f9" id="line2d_74" x="214.324" y="100.607" style="stroke:#000;stroke-width:.5"/></g><g id="ytick_11"><use xlink:href="#m6d93df2eb4" id="line2d_75" x="30.184" y="87.129" style="stroke:#000;stroke-width:.5"/><use xlink:href="#m5965b334f9" id="line2d_76" x="214.324" y="87.129" style="stroke:#000;stroke-width:.5"/></g><g id="ytick_12"><use xlink:href="#m6d93df2eb4" id="line2d_77" x="30.184" y="80.39" style="stroke:#000;stroke-width:.5"/><use xlink:href="#m5965b334f9" id="line2d_78" x="214.324" y="80.39" style="stroke:#000;stroke-width:.5"/></g><g id="ytick_13"><use xlink:href="#m6d93df2eb4" id="line2d_79" x="30.184" y="73.65" style="stroke:#000;stroke-width:.5"/><use xlink:href="#m5965b334f9" id="line2d_80" x="214.324" y="73.65" style="stroke:#000;stroke-width:.5"/></g><g id="ytick_14"><use xlink:href="#m6d93df2eb4" id="line2d_81" x="30.184" y="66.911" style="stroke:#000;stroke-width:.5"/><use xlink:href="#m5965b334f9" id="line2d_82" x="214.324" y="66.911" style="stroke:#000;stroke-width:.5"/></g><g id="ytick_15"><use xlink:href="#m6d93df2eb4" id="line2d_83" x="30.184" y="53.433" style="stroke:#000;stroke-width:.5"/><use xlink:href="#m5965b334f9" id="line2d_84" x="214.324" y="53.433" style="stroke:#000;stroke-width:.5"/></g><g id="ytick_16"><use xlink:href="#m6d93df2eb4" id="line2d_85" x="30.184" y="46.693" style="stroke:#000;stroke-width:.5"/><use xlink:href="#m5965b334f9" id="line2d_86" x="214.324" y="46.693" style="stroke:#000;stroke-width:.5"/></g><g id="ytick_17"><use xlink:href="#m6d93df2eb4" id="line2d_87" x="30.184" y="39.954" style="stroke:#000;stroke-width:.5"/><use xlink:href="#m5965b334f9" id="line2d_88" x="214.324" y="39.954" style="stroke:#000;stroke-width:.5"/></g><g id="ytick_18"><use xlink:href="#m6d93df2eb4" id="line2d_89" x="30.184" y="33.215" style="stroke:#000;stroke-width:.5"/><use xlink:href="#m5965b334f9" id="line2d_90" x="214.324" y="33.215" style="stroke:#000;stroke-width:.5"/></g><g id="ytick_19"><use xlink:href="#m6d93df2eb4" id="line2d_91" x="30.184" y="19.736" style="stroke:#000;stroke-width:.5"/><use xlink:href="#m5965b334f9" id="line2d_92" x="214.324" y="19.736" style="stroke:#000;stroke-width:.5"/></g><g id="ytick_20"><use xlink:href="#m6d93df2eb4" id="line2d_93" x="30.184" y="12.997" style="stroke:#000;stroke-width:.5"/><use xlink:href="#m5965b334f9" id="line2d_94" x="214.324" y="12.997" style="stroke:#000;stroke-width:.5"/></g><g id="ytick_21"><use xlink:href="#m6d93df2eb4" id="line2d_95" x="30.184" y="6.258" style="stroke:#000;stroke-width:.5"/><use xlink:href="#m5965b334f9" id="line2d_96" x="214.324" y="6.258" style="stroke:#000;stroke-width:.5"/></g><g id="text_11" transform="matrix(0 -.08 -.08 0 9.004 98.468)"><defs><path id="NimbusRomNo9L-Regu-4d" d="M4314 3667V751c0-534-77-617-583-617V0h1792v134c-467 0-557 89-557 547v2855c0 457 84 541 557 579v122H4250L2835 1004 1357 4237H90v-141c524 0 608-77 608-546V943c0-661-90-784-621-822V0h1504v134c-493 0-602 148-602 797v2589L2586 0h89z" transform="scale(.01563)"/><path id="NimbusRomNo9L-Regu-61" d="M2829 423c-109-90-186-122-282-122-147 0-192 89-192 371v1248c0 333-32 518-128 672-141 230-416 352-793 352-602 0-1076-314-1076-717 0-147 128-275 276-275 153 0 288 128 288 269 0 25-7 57-13 102-13 58-19 109-19 154 0 173 204 313 460 313 314 0 487-185 487-531v-390c-986-397-1095-448-1370-691-141-128-230-346-230-557 0-403 281-685 672-685 281 0 544 134 934 467 32-333 147-467 410-467 217 0 352 77 576 320zm-992 360c0-199-32-257-167-334-153-90-332-148-467-148-224 0-403 219-403 495v26c0 379 262 611 1037 893z" transform="scale(.01563)"/><path id="NimbusRomNo9L-Regu-67" d="M3008 2496v250h-493c-128 0-224 17-352 56l-141 45c-172 56-345 84-512 84-595 0-1068-464-1068-1050 0-405 172-651 595-863-122-112-237-219-275-250-212-180-295-305-295-430 0-132 77-207 339-332-454-335-627-549-627-787 0-343 499-627 1107-627 480 0 980 170 1312 446 244 203 352 414 352 663 0 407-300 683-774 683h-826c-339 0-499 59-499 164 0 130 211 360 384 412 58-7 103-13 122-13 121-13 205-19 243-19 237 0 493 98 691 275 211 184 307 414 307 742 0 190-32 341-121 551zM941-13c211-45 723-83 1037-83 582 0 793-84 793-318 0-377-486-629-1209-629-564 0-935 188-935 473 0 150 45 234 314 557m32 2158c0 381 179 607 473 607 199 0 365-110 468-303 115-226 192-522 192-774 0-361-186-587-480-587-384 0-653 419-653 1038z" transform="scale(.01563)"/><path id="NimbusRomNo9L-Regu-6e" d="M102 2579c39 19 103 26 173 26 179 0 237-96 237-410V608c0-365-70-454-397-480V32h1357v96c-326 26-422 102-422 333v1798c307 288 448 365 659 365 313 0 467-198 467-621V666c0-404-83-512-403-538V32h1331v96c-314 32-390 109-390 422v1466c0 602-282 960-756 960-294 0-492-109-928-518v505l-44 13c-314-115-532-186-884-288z" transform="scale(.01563)"/><path id="NimbusRomNo9L-Regu-69" d="m1120 2929-992-350v-95l51 6c77 12 160 19 218 19 153 0 211-103 211-384V640c0-461-64-531-506-531V0h1517v96c-422 32-473 95-473 554v2260zM819 4352c-173 0-320-147-320-326s141-327 320-327c186 0 333 141 333 327 0 179-147 326-333 326" transform="scale(.01563)"/><path id="NimbusRomNo9L-Regu-74" d="M1632 2880H986v742c0 64-7 84-45 84-45-58-83-116-128-180-243-352-519-659-621-685-70-47-109-93-109-126 0-20 7-33 26-33h339V751c0-539 192-815 570-815 313 0 556 154 768 487l-84 70c-134-160-243-224-384-224-236 0-332 174-332 578v1835h646z" transform="scale(.01563)"/><path id="NimbusRomNo9L-Regu-75" d="M3066 320h-32c-295 0-365 70-365 365v2195H1658v-122c396 0 473-64 473-383V875c0-178-32-268-121-338-173-140-372-217-564-217-249 0-454 217-454 485v2075H58v-102c307 0 396-96 396-391V770c0-507 308-834 775-834 237 0 486 102 659 275l275 275V-45l26-13c320 128 550 199 877 288z" transform="scale(.01563)"/><path id="NimbusRomNo9L-Regu-64" d="m2202-64 940 333v96h-147c-230 0-281 70-281 366v3633l-32 13c-308-109-532-173-941-281v-102c51 6 89 6 141 6 236 0 294-64 294-328V2669c-243 205-416 275-672 275-736 0-1331-723-1331-1632C173 493 653-64 1357-64c358 0 601 128 819 429V-45zm-26 717c0-45-45-122-109-192-115-128-275-192-461-192-531 0-883 512-883 1299 0 723 314 1197 800 1197 339 0 653-301 653-640z" transform="scale(.01563)"/><path id="NimbusRomNo9L-Regu-65" d="M2611 1053c-307-489-582-675-992-675-365 0-640 186-825 552-116 244-160 456-173 849h1971c-51 414-115 598-275 802-192 230-487 363-819 363-320 0-621-115-864-333-301-262-474-717-474-1241C160 486 621-64 1357-64c608 0 1088 379 1357 1072zM634 1984c70 495 288 730 678 730s544-179 627-730z" transform="scale(.01563)"/><path id="NimbusRomNo9L-Regu-42" d="M109 4237v-141c537 0 614-70 614-548V689c0-477-83-561-614-561V0h2137c500 0 954 136 1191 356 230 208 358 499 358 809 0 286-115 545-313 732-192 175-365 253-781 356 333 82 467 145 621 278 160 140 256 372 256 632 0 708-570 1074-1677 1074zm1267-2125c621 0 915-32 1146-130 364-155 537-414 537-823 0-350-134-604-390-753-205-116-467-168-890-168-313 0-403 58-403 266zm0 256v1444c0 132 45 189 141 189h281c736 0 1127-302 1127-864 0-491-339-769-941-769z" transform="scale(.01563)"/></defs><use xlink:href="#NimbusRomNo9L-Regu-4d" transform="scale(.99626)"/><use xlink:href="#NimbusRomNo9L-Regu-61" transform="matrix(.99626 0 0 .99626 88.567 0)"/><use xlink:href="#NimbusRomNo9L-Regu-67" transform="matrix(.99626 0 0 .99626 132.8 0)"/><use xlink:href="#NimbusRomNo9L-Regu-6e" transform="matrix(.99626 0 0 .99626 182.614 0)"/><use xlink:href="#NimbusRomNo9L-Regu-69" transform="matrix(.99626 0 0 .99626 232.427 0)"/><use xlink:href="#NimbusRomNo9L-Regu-74" transform="matrix(.99626 0 0 .99626 260.122 0)"/><use xlink:href="#NimbusRomNo9L-Regu-75" transform="matrix(.99626 0 0 .99626 287.817 0)"/><use xlink:href="#NimbusRomNo9L-Regu-64" transform="matrix(.99626 0 0 .99626 337.63 0)"/><use xlink:href="#NimbusRomNo9L-Regu-65" transform="matrix(.99626 0 0 .99626 387.444 0)"/><use xlink:href="#NimbusRomNo9L-Regu-28" transform="matrix(.99626 0 0 .99626 456.584 0)"/><use xlink:href="#NimbusRomNo9L-Regu-64" transform="matrix(.99626 0 0 .99626 489.759 0)"/><use xlink:href="#NimbusRomNo9L-Regu-42" transform="matrix(.99626 0 0 .99626 539.572 0)"/><use xlink:href="#NimbusRomNo9L-Regu-29" transform="matrix(.99626 0 0 .99626 606.022 0)"/></g></g><path id="line2d_97" d="m38.554 119.945.067-9.778.067 1.906.134 6.494.134-5.964.067 1.721.067 7.682.067-2.069.201-12.81.201 12.188.201-8.307.134 6.856.067-.394.134 11.487.134-17.629.067 1.732.067 3.912.067-.028.335-6.651.067 15.096.067-12.163.067 11.974.067-11.598.067 6.578.134-6.399.067 6.307.067-6.796.067 2.917.067-5.197.067 6.095.067-4.72.134 5.224.067-3.313.067 1.563.134-2.15.067 7.422.067-8.169.067 6.634.134-8.703.134 5.844.066-1.36.067-4.58.067 9.468.067-3.816.067-.63.067 3.084.134-7 .067.394.067 9.454.067-.822.067-5.138.067 4.77.201-11.191.067 8.2.067-2.83.067 3.567.067-5.152.134 4.43.067-1.872.067-6.019.201 19.062.067-18.817.067 1.242.067 7.024.067-1.102.134-5.226.067 6.938.134-8.86.134 6.814.067-4.108.067 7.409.134-7.293.067 10.526.067-7.644.067 3.819.067-5.58.067 1.938.134 3.563.067-10.98.067 2.378.067 1.017.067 6.383.067-6.55.067.753.067 10.26.067-10.703.067 9.605.067-1.858.134-8.656.067 5.159.067-3.103.134 5.37.067-1.228.067-6.241.067 2.527.067-.969.067 2.72.067 9.146.067-12.814.067 2.94.067.083.067 21.26.067-26.264.066 7.44.134-4.43.067 4.086.134-4.536.067 3.882.067-3.97.134 4.23.067.044.067 6.204.067-10.41.067 9.381.067-5.651.067-1.564.067 2.161.134-5.308.067 4.51.067-3.79.067.737.067 1.84.067-1.924.067 2.77.067-.562.067.9.134-6.332.067 2.053.134 2.374.067-2.52.067.064.067 2.672.134-2.962.134 6.122.067-6.758.067 1.816.2 12.579.068-9.912.067 7.635.2-10.105.135-1.805.067 4.138.067-1.62.067 1.837.067 5.324.134-7.08.134 1.197.067-1.434.134 8.542.268-12.127.067 15.222.134-14.164.2 4.005.068-1.673.067 6.296.067-3.125.067.763.066-7.103.067 2.45.067 4.457.067-6.79.067 20.049.067-18.627.067 7.07.067-3.818.134 7.619.134-6.703.067 6.006.067-11.901.067 4.384.067-2.441.067 7.878.067-6.414.067 8.905.067-13.049.067 8.27.067-10.278.067 5.266.067 6.751.067-8.12.067 5.694.067-.04.067-5.789.067 1.351.201 8.414.067-3.033.067.362.067.567.067-5.918.067 2.971.067-1.667.067-22.613.067 24.866.067-5.155.067-2.91.134 6.834.067-6.943.134 9.792.067-4.824.067 3.04.2-4.74.068 7.156.067-9.008.067 3.483.067 3.659.067-3.794.067 1.47.067 4.146.134-9.393.067 7.485.067-4.916.134 4.574.067-7.083.067 3.82.067-2.738.268 7.314.2-5.828.134 7.406.067-7.078.067 1.63.067-1.792.067 21.186.067-17.293.067 9.502.067-10.533.067 5.43.134-5.102.067 7.4.134-14.623.067 4.236.201 2.717.067-2.582.134 2.879.067-2.62.067 7.492.134-10.465.134 7.596.067-2.04.067 5.82.067-11.195.067 2.47.067 5.32.067-1.332.067-.671.067-3.293.067 1.067.201 1.16.067 4.279.067-1.375.067-6.459.067 8.525.067-6.675.134 19.688.134-18.847.067 1.166.134-5.452.067 5.451.067-1.128.067-4.277.067 9.375.067-5.688.067 2.096.134-1.953.067 3.315.067-.222.067-.278.2-4.914.135 4.452.067-1.085.134 6.131.067-8.245.067 5.462.067-4.588.067 2.568.067 1.101.066-5.472.067.475.134-2.872.134 4.865.067-1.893.067 10.579.067-14.916.067 5.864.134-3.28.067 3.375.067-3.1.067 1.692.067-.889.067-3.077.268 6.179.134-6.066.067 4.605.067-2.34.201 4.535.067-7.278.067 4.31.067 5.881.067-4.263.067 2.86.067-6.438.067 9.821.134-8.186.201 4.136.067-3.401.067 4.364.067-2.733.067-2.895.067 4.183.067-.969.067-3.5.067 12.634.067-7.854.067-6.239.067 1.79.134 8.315.134-7.658.067 3.279.067-4.672.2 4.712.135-7.044.067 1.039.067-.319.134 7.598.067-2.866.067 4.763.067-2.155.067-2.34.067 1.861.067-5.686.134 16.096.067-12.458.067 1.102.133-3.004.067 2.29.067-4.432.067 1.791.067-.489.067 4.085.067-2.397.067-4.716.067 5.113.067-.23.067-2.983.067 1.342.201-3.211.067 2.326.067 6.685.067-2.455.067-6.544.067 5.035.067-2.785.134 2.708.067.136.134-1.388.067 2.169.067-.603.067-1.802.067.883.067 5.507.067-8.5.067 6.383.067-1.027.067-6.953.067 7.835.067-4.311.067-2.938.067 11.321.067-5.353.067-2.068.067 3.614.067-6.079.067 2.222.067 4.26.2-9.214.135 7.967.067-6.927.134 12.792.134-11.458.134 8.477.134-6.382.067-.546.134 5.805.134-9.338.067 5.676.067-2.66.134 5.066.067-2.167.067 6.541.2-14.256.068 9.337.067-7.714.066 4.245.067 1.551.067-5.367.134 16.942.134-14.527.134 6.704.134-8.231.067 6.363.067-4.668.067 1.396.067 3.789.067-1.225.067-4.837.067 3.243.067-4.297.201 9.344.201-5.935.067 6.407.201-8.347.067 2.264.067 6.866.134-5.708.067 2.378.067-4.847.067.776.134 1.568.067 4.722.2-8.453.135 6.86.067-4.702.067 4.366.067-1.966.067 2.204.335-9.504.067 10.05.067-1.313.067-2.987.067 3.565.134-8.733.067 11.967.2-12.66.202 7.387.134-3.346.067.39.067 3.129.2-4.876.068.868.067 3.877.133-6.393.134 8.842.067-9.372.067 4.97.067-2.848.067 7.334.067-9.164.067 8.34.067-6.11.201 6.91.067-6.077.067.168.067-1.226.067 5.246.134-4.986.067 6.945.201-7.362.067.233.067 5.173.067-8.457.067 4.257.067 3.035.134-5.124.201 3.5.067-2.328.067 2.3.201-5.33.134 5.407.2-5.07.068 1.217.067-1.241.335 8.606.2-9.32.068 5.203.067-1.919.067.109.134 1.441.134-3.036.067-2.41.268 7.674.067-.3.067 1.262.2-6.122.068 4.367.067-4.787.067 2.088.2-.88.067 4.437.134-3.978.134 3.583.268-6.13.134 4.154.067-1.574.067 3.708.134-5.973.067 7.986.067-8.32.067 6.538.067-2.925.067 1.695.067-.842.067-.433.067-5.167.067 10.15.067-6.407.067-2.279.134 3.218.067-.707.067.171.134-3.974.134 2.12.067-.48.067 4.46.067-.446.067-3.505.067 3.812.067-1.866.067-.181.2-2.51.068 2.54.067-.174.067.843.067-3.776.067.355.067 4.695.134-4.296.067 6.963.134-7.345.067 3 .067-2.7.067 1.722.067.306.2-2.365.135 1.758.067 5.191.2-8.746.202 8.926.067-7.096.067 1.464.067.797.067-3.524.066 2.322.067-.18.067-.804.067 6.943.134-7.616.067 1.556.134-12.037.134 15.732.067-5.54.067 8.27.201-8.15.067 4.012.067-1.22.067 1.591.067-3.61.067 2.427.067-4.393.067 1.756.067-1.747.067 1.334.067-1.18.067 9.463.067-7.319.067.874.067.59.268-2.983.067 4.27.134-5.302.067 8.613.067-8.02.067 2.013.067 3.228.067-5.07.067 3.157.067-3.278.067.792.067 1.777.067-1.104.2 2.555.068-4.082.067.28.067 2.162.134-4.728.067 1.303.067 6.485.067-7.7.067 7.835.067-5.398.067 2.906.134 8.807.067-14.663.067 1.683.2 7.42.068-6.519.067 5.123.2-6.184.068 1.86.067-1.175.066-1.124.067.484.067 4.989.067-4.153.067 8.75.067-8.194.067 2.602.067 1.93.134-5.33.067 2.415.067-.56.067-6.074.067 2.512.134 5.627.067-.4.067-.541.134-6.735.067.571.201 7.956.268-6.366.067.51.067-4.712.201 21.009.201-17.52.067 6.51.067-9.368.134 8.085.134-5.728.067 3.225.067-3.532.067 4.987.067-3.312.067.739.067 6.977.067-9.929.067 14.205.067-13.892.067 1.707.067-.77.067 14.393.134-18.57.067 8.752.067-3.786.067 2.34.067-.846.067.25.2-4.009.068 1.65.067 5.915.067-3.116.067-2.908.067 6.686.134-10.65.2 12.355.068-11.93.067 10.208.066-9.67.067.054.067.43.201 6.315.134-3.775.067 2.99.067-5.924.067 3.448.067 2.48.067-8.576.067.326.067 32.631.134-29.736.335 10.112.067 4.743.134-19.642.067 3.926.067 6.477.067-.672.201-4.436.134.198.067 5.601.067-3.12.067-3.633.201 20.838.134-24.644.067.624.067 9.121.067-5.502.067.95.067 6.195.067-8.35.067 9.549.067-8.43.067 8.944.067-12.248.067 2.872.2 13.69.135-13.282.067 4.104.067-1.845.067.278.067 8.803.2-17.314.068 8.505.067-3.103.067 3.983.067-2.6.067 2.335.067 10.66.067-14.267.067 3.106.067-1.483.067 5.36.067-9.6.067 3.03.066-1.042.067 4.536.067-2.848.067-1.41.067 5.896.067-3.638.067-5.541.067 5.997.067 34.15.134-34.201.067 4.12.134-9.12.067 3.212.134.85.067-4.314.067 3.989.067-9.538.067 2.666.201 11.621.067-5.73.067.623.067 2.94.134-10.32.067 2.097.134 7.494.134-8.336.134 12.494.134-13.662.134 13.737.134-12.436.067 4.553.067-1.128.067-4.245.134 9.68.067-1.719.067-6.7.067.38.134 5.228.067-4.92.067 23.995.067-15.128.067-8.866.067 3.951.067-6.35.134 5.434.067-1.978.134 5.24.067-6.623.067 1.955.067 4.452.067-4.96.067 5.052.067-4.455.067.964.067-.452.067 2.906.134-6.434.134 7.114.2-8.355.134 3.794.067-1.572.067-.502.134 4.255.067-5.061.067 1.694.067 2.895.201-5.046.067 4.116.067-3.682.067 2.18.067-1.468.067 3.813.067-4.77.067 2.993.067-2.788.067 1.414.067 4.391.067-1.644.067-6.947.067 5.178.067-5.185.067.85.067-.63.134 5.292.067-2.056.067-3.13.067 6.626.134-5.853.067.97.2 6.71.135-10.93.134 9.537.067-9.346.067 5.796.067.163.067-3.142.067.677.067 4.146.067-10.67.067 6.536.067 3.103.067-.183.067-6.86.067 8.64.067-1.339.067-6.07.067 3.488.067-.151.067.08.134-8.627.067 6.864.067-.038.268-3.282.268 7.298.066-8.795.067 5.51.067-3.365.067.074.201-2.082.067 5.22.134-8.882.067 7.557.067-2.937.067 4.235.067-4.657.067 2.416.067-3.08.067.677.134 4.991.134-6.913.067 4.228.067-.82.067-.286.067 4.442.067-7.32.067 2.018.067.98.201-3.123.201 2.624.067-4.695.067 1.26.067 1.003.067 3.258.067-.419.134-6.808.067 3.525.067-.21.067.218.067.996.067-.958.067-2.87.067 5.878.067-1.84.067-1.47.067 3.373.067-5.61.067 1.488.067 1.738.067-3.362.067 1.738.067-2.356.067 1.26.067-1.037.067 8.788.067-7.85.067.75.2-3.906.202 4.392.067-2.171.067.774.067-5.569.067 3.882.067-3.185.067 1.948.067-1.261.067.658.066.287.067 1.532.134-3.252.067 1.353.268-2.374.067 1.023.067-2.847.067 3.422.067-5.226.067 5.972.067-6.652.067 5.246.067-6.654.067 7.087.067-7.897.067 6.43.067-7.417.067 7.38.067-9.486.067 6.587.067-5.211.067 7.989.067-10.618.067 5.852.067-6.992.067 4.652.067-5.82.067 3.907.067-4.755.067 1.92.268-5.93.067 2.477.067-5.346.067 5.213.067-7.91.067 6.796.067-9.94.067 10.192.067-13.23.067 11.713.067-16.063.067 17.368.067-21.925.067 19.634.067-27.216.067 27.304.134-47.488.067 5.324.067 42.164.067-27.304.067 27.216.067-19.634.067 21.925.067-17.368.067 16.063.067-11.713.067 13.23.067-10.191.067 9.94.067-6.797.067 7.91.067-5.213.067 5.346.067-2.477.2 4.288.068 1.643.066-1.92.067 4.754.067-3.906.067 5.819.067-4.652.067 6.992.067-5.852.067 10.618.067-7.99.067 5.212.067-6.587.067 9.485.067-7.38.067 7.419.067-6.43.067 7.896.067-7.087.067 6.654.067-5.246.067 6.652.067-5.972.067 5.226.067-3.422.067 2.847.067-1.023.201 1.43.067.944.067-1.353.067.114.067 3.138.067-1.532.134-.945.067 1.26.067-1.947.067 3.185.067-3.882.067 5.569.067-.774.067 2.171.067-4.055.067.613.067-.95.2 3.906.068-.75.067 7.85.067-8.788.067 1.038.067-1.261.067 2.356.067-1.738.067 3.362.067-1.738.067-1.488.067 5.61.067-3.373.134 3.31.067-5.878.067 2.87.067.958.134-1.213.067.21.067-3.526.067.462.134 6.765.2-5.52.068 4.694.066-.79.134-1.834.201 3.123.134-2.998.067 7.32.067-4.442.067.287.067.82.067-4.23.067.964.067 5.95.067-.911.134-4.756.067 3.08.067-2.417.067 4.657.067-4.235.067 2.937.067-7.557.067 3.186.067 5.696.067-5.22.067 1.667.067-.582.201 4.287.067-5.509.067 8.795.067-3.222.201-4.076.067.483.2 2.799.068.038.067-6.864.134 8.628.067-.081.067.151.067-3.489.134 7.41.067-8.64.134 7.043.134-9.64.067 10.671.067-4.146.067-.677.067 3.142.067-.163.067-5.796.067 9.346.134-9.538.067 2.365.067 8.567.067-2.505.2-5.176.068 1.3.067 4.553.067-6.627.067 3.13.066 2.057.134-5.292.067.63.067-.85.067 5.185.067-5.178.134 8.591.134-5.805.067 2.788.067-2.993.067 4.77.067-3.813.067 1.468.067-2.18.067 3.682.067-4.116.067 4.159.067-1.36.067 2.247.134-4.59.067 5.062.067-3.014.067-1.24.067.5.067 1.573.134-3.794.201 8.355.067-.47.067-6.644.067 2.45.067 3.984.067-2.906.067.452.067-.964.067 4.455.067-5.053.067 4.96.134-6.406.067 6.623.067-2.178.067-3.062.067 1.978.067-1.028.067-4.405.268 26.392.067-23.995.067 4.92.067-.292.134-5.316.134 8.42.067-2.264.067-7.417.067 4.245.067 1.128.067-4.553.134 12.436.067-5.014.067-8.723.067 3.21.067 10.452.067-.247.067-12.247.066 2.857.067 5.479.067-2.95.134-6.64.134 10.319.134-3.563.067 5.73.067-.782.067-2.873.134-10.632.067 9.538.067-3.99.067 4.315.067-.218.067-.632.067-3.212.134 9.12.067-4.12.067 2.092.067 32.109.134-40.147.134 9.179.067-5.896.067 1.41.067 2.848.201-6.525.067 9.601.067-5.36.067 1.483.067-3.106.067 14.267.134-12.996.067 2.601.067-3.983.067 3.103.067-8.505.2 17.314.135-9.08.067 1.844.067-4.104.067.535.067 12.747.2-13.69.068-2.872.067 12.248.067-8.944.067 8.43.067-9.55.067 8.35.134-7.144.067 5.502.134-9.745.134 24.644.067-15.986.067 4.506.067-9.358.067 3.633.067 3.12.066-5.601.067.547.067-.745.268 5.108.134-10.403.134 19.642.067-4.743.134-5.488.067-.418.134-4.206.067 4.244.067 25.492.134-32.957.067 8.577.067-2.481.067-3.448.067 5.924.067-2.99.067.647.067 3.128.201-6.315.134-.484.067 9.67.067-10.209.067 11.931.067-5.587.067 1.524.067-8.291.067 2.126.067 8.523.067-6.686.067 2.908.067 3.116.134-7.565.335 4.604.067-2.339.067 3.786.067-8.752.067 4.662.067 13.908.067-14.393.067.77.067-1.707.067 13.892.067-14.205.067 9.929.134-7.716.067 3.312.067-4.987.067 3.532.067-3.225.134 5.728.067-.48.067-7.605.067 9.369.067-6.511.2 17.52.201-21.009.067 4.712.067-.51.268 6.366.201-7.956.067-.571.201 7.276.067.4.201-8.14.134 6.635.067-2.416.134 5.332.067-1.931.067-2.602.067 8.194.067-8.75.067 4.153.134-5.473.134 2.3.067-1.86.201 6.183.067-5.123.067 6.52.067-1.734.067-1.41.134-5.96.067 14.663.067-4.562.134-7.15.067 5.397.067-7.834.067 7.7.134-7.79.134 4.729.134-2.442.067 4.082.067-.775.067-.113.067-1.667.067 1.104.134-2.57.067 3.28.067-3.157.067 5.07.067-3.23.067-2.012.067 8.02.067-8.613.067 2.428.067 2.873.067-4.269.066.08.201 2.902.067-.59.067-.873.067 7.32.067-9.464.067 1.18.067-1.334.067 1.747.067-1.756.067 4.393.067-2.427.067 3.61.067-1.59.067 1.22.067-4.013.067 2.39.067.219.067 5.54.067-8.269.067 5.54.067-1.611.067-14.121.067 6.994.067 5.043.067-1.556.067 1.852.067 5.764.067-6.943.067.805.067.179.067-2.322.067 3.524.067-.797.067-1.464.067 7.096.067-3.19.067-1.294.067-4.442.2 8.746.135-5.828.067-1.121.067.425.067.446.067 1.494.067-.306.067-1.721.067 2.7.067-3.001.067.734.067 6.61.067-6.962.067 1 .067 3.296.134-5.05.067 3.776.067-.843.067.173.067-2.539.067 2.045.067-.357.2 2.87.068-3.813.134 3.951.067-4.46.067.48.067-.452.066-1.668.268 4.51.134-3.218.067 2.279.067 6.408.067-10.15.067 5.166.134 1.275.067-1.695.067 2.925.067-6.537.067 8.319.067-7.986.067 2.7.067 3.273.067-3.708.067 1.574.134-4.154.067.9.201 5.23.134-3.583.067 1.029.067 2.95.067-4.438.067.571.067-.15.067.46.067-2.09.067 4.788.067-4.367.067.4.134 5.722.402-8.635.2 5.445.202-1.55.067 1.919.067-5.204.067 1.507.134 7.814.2-4.697.135-3.909.067 1.241.067-1.217.067.637.134 4.433.067-.268.067-5.139.067 2.708.134 2.622.067-2.3.067 2.328.066-.686.067-.475.067-2.34.067.412.067 4.713.067-3.035.067-4.257.067 8.457.067-5.173.067-.233.201 7.362.067-6.945.067.51.067 4.476.067-5.246.067 1.226.067-.168.067 6.077.067-2.507.067-.118.067-4.285.067 6.11.067-8.34.067 9.164.067-7.334.067 2.848.067-4.97.067 9.372.067-2.263.067-6.579.067 3.654.067 2.74.134-4.746.201 4.876.134-3.52.134 3.347.2-7.386.202 12.66.067-11.968.067 2.808.067 5.925.067-3.565.134 4.3.067-10.05.067.753.2 6.585.068 2.166.067-2.204.067 1.966.067-4.366.067 4.703.067-2.139.067-4.722.2 8.453.135-5.86.134-1.206.067 4.847.066-2.378.067.014.067 5.694.134-9.13.134 2.58.067 5.767.067-6.407.067 4.599.067-2.01.067 3.346.067-1.801.134-7.543.067 4.297.067-3.243.134 6.062.134-5.185.067 4.668.067-6.363.067 3.247.067 4.984.067-2.038.067-4.666.067 3.456.067 11.07.134-16.94.067 5.366.067-1.551.067-4.245.067 7.714.067-9.337.067 5.586.067 1.66.067 7.01.067-6.541.067 2.167.134-5.066.067 2.66.067-5.676.134 9.338.067-.123.067-5.682.067.546.067.618.067 5.764.067-3.03.067-5.447.134 11.458.067-1.389.067-11.403.067 6.927.067-.833.067-7.134.2 9.214.135-6.482.067 6.079.067-3.614.134 7.421.067-11.32.067 2.937.067 4.311.067-7.835.134 7.98.066-6.382.067 8.5.067-5.508.067-.883.134 2.405.067-2.169.067.388.067 1 .067-.136.067-.17.067-2.538.067 2.785.067-5.035.134 9 .134-9.012.201 3.21.067-1.341.134 3.213.067-5.113.134 7.113.067-4.085.067.49.067-1.792.067 4.433.067-2.29.134 3.003.067-1.102.067 12.458.067-7.795.067-8.3.067 5.685.067-1.86.134 4.494.067-4.763.067 2.866.268-8.318.134 7.044.067-1.43.067.084.067-3.366.067 4.672.067-3.28.134 7.66.2-10.106.135 14.093.067-12.633.067 3.499.067.969.067-4.183.134 5.628.067-4.364.067 3.401.067-1.63.067.127.067-2.633.067.82.067 7.366.067-9.821.066 6.438.067-2.86.067 4.263.134-10.19.067 7.277.067-2.772.134-1.764.067 2.341.067-4.605.134 6.066.268-6.179.134 3.966.067-1.692.067 3.1.067-3.376.067.963.067 2.318.067-5.864.067 14.916.067-10.579.067 1.893.134-4.865.134 2.872.067-.475.067 5.472.067-1.101.067-2.568.067 4.588.067-5.462.067 8.245.067-2.234.067-3.897.067 1.085.067-.847.067-3.605.067.485.268 4.929.067-3.315.067.208.067 1.745.067-2.096.067 5.688.067-9.375.067 4.277.067 1.128.067-5.451.134 5.452.067-1.166.067 1.01.067 17.837.067-5.753.067-13.935.067 6.675.067-8.525.134 7.834.134-4.623.067-.214.134-1.669.2 5.296.134-7.79.067 11.195.067-5.82.067 2.04.067-2.03.067-5.566.067 3.039.067 7.426.067-7.493.067 2.62.067-.38.067-2.498.067 2.582.067-1.666.067.292.067-1.343.067-4.236.134 14.623.067-7.4.067 3.186.067 1.915.067-5.43.067 10.534.067-9.502.067 17.293.067-21.186.067 1.792.067-1.63.067 7.078.067-.003.067-7.403.067 2.366.067.87.067 2.592.067-.921.201-6.393.067 2.738.067-3.82.067 7.083.067-.706.067-3.868.067 4.916.067-7.485.134 9.393.134-5.616.067 3.794.134-7.142.067 9.008.067-7.156.067.905.134 3.834.067-3.04.067 4.825.067-2.45.067-7.342.067 6.943.067-1.845.067-4.989.067 2.91.067 5.155.067-24.866.134 24.28.067-2.971.067 5.918.067-.567.066-.362.067 3.033.201-8.414.067-1.35.134 5.828.067-5.694.067 8.12.134-12.017.067 10.278.067-8.27.067 13.049.067-8.905.067 6.414.067-7.878.067 2.44.067-4.383.067 11.901.067-6.006.134 6.703.134-7.62.067 3.82.067-7.07.067 18.626.067-20.05.067 6.791.134-6.907.067 7.103.067-.763.067 3.125.067-6.296.067 1.673.201-4.005.067 1.991.067 12.173.067-15.222.067 5.068.067-1.996.134 9.055.067-3.176.067-5.366.067 1.434.134-1.197.067.39.067 6.69.134-7.16.067 1.62.067-4.14.067 1.308.067.498.134 4.036.067 6.069.067-7.635.067 9.912.067-4.343.067-1.95.134-8.102.067 6.758.067-3.12.067-3.002.067.359.067 2.603.133-2.736.067 2.52.067-.969.134-3.458.134 6.332.201-3.108.067 1.923.134-2.576.067 3.79.067-4.51.067.938.067 4.37.067-2.161.067 1.564.067 5.651.067-9.382.067 10.411.067-6.204.067-.045.067-.877.067-3.351.067 3.969.067-3.882.067.392.067 4.144.067-4.087.067 1.902.067 2.529.067-7.44.067 26.264.134-21.343.067-2.94.067 12.814.134-11.866.067.969.067-2.527.134 7.469.134-5.37.067 3.103.067-5.159.2 10.514.068-9.605.067 10.702.134-11.012.067 6.55.2-9.778.068 10.98.067-.38.134-5.122.067 5.581.067-3.819.067 7.644.067-10.526.067.767.067 6.526.067-7.409.067 4.108.134-6.813.067 1.028.067 7.831.066-6.938.067 2.925.134 3.403.134-8.266.067 18.817.067-6.953.067-3.117.067-8.992.134 7.891.067-.758.067-3.672.067 5.152.067-3.567.067 2.83.067-8.2.201 11.19.067-4.77.134 5.96.134-9.847.067.666.067 6.334.067-3.085.067.631.067 3.816.067-9.468.067 4.58.067 1.36.134-5.844.067 2.114.067 6.59.067-6.635.067 8.169.067-7.421.067.976.067 1.173.067-1.563.067 3.313.067-.602.067-4.621.067 4.72.067-6.096.2 9.076.068-6.307.067 1.204.067 5.195.067-6.578.067 11.598.067-11.974.067 12.163.067-15.096.067 1.948.067-.38.067 4.167.067-.574.134 1.518.134-5.644.134 17.63.067-7.34.067-4.148.067.394.067-1.368.067-5.488.2 8.307.201-12.189.067 3.348.201 11.532.134-9.403.134 5.964.201-8.4h0" clip-path="url(#p37224d0307)" style="fill:none;stroke:#000;stroke-linecap:square"/><path id="patch_3" d="M30.184 142.2V3.6" style="fill:none;stroke:#000;stroke-width:.5;stroke-linejoin:miter;stroke-linecap:square"/><path id="patch_4" d="M214.324 142.2V3.6" style="fill:none;stroke:#000;stroke-width:.5;stroke-linejoin:miter;stroke-linecap:square"/><path id="patch_5" d="M30.184 142.2h184.14" style="fill:none;stroke:#000;stroke-width:.5;stroke-linejoin:miter;stroke-linecap:square"/><path id="patch_6" d="M30.184 3.6h184.14" style="fill:none;stroke:#000;stroke-width:.5;stroke-linejoin:miter;stroke-linecap:square"/></g></g><defs><clipPath id="p37224d0307"><path d="M30.184 3.6h184.14v138.6H30.184z"/></clipPath></defs></svg>