<svg xmlns="http://www.w3.org/2000/svg" xmlns:xlink="http://www.w3.org/1999/xlink" width="293.509" height="223.411" viewBox="0 0 220.132 167.558"><defs><style>*{stroke-linejoin:round;stroke-linecap:butt}</style></defs><g id="figure_1"><path id="patch_1" d="M0 167.558h220.132V0H0z" style="fill:none"/><g id="axes_1"><path id="patch_2" d="M32.392 142.2h184.14V3.6H32.392z" style="fill:none"/><g id="matplotlib.axis_1"><g id="xtick_1"><g id="line2d_1"><defs><path id="m3a7ecf62c8" d="M0 0v-3" style="stroke:#000;stroke-width:.5"/></defs><use xlink:href="#m3a7ecf62c8" x="57.509" y="142.2" style="stroke:#000;stroke-width:.5"/></g><g id="line2d_2"><defs><path id="ma723e12593" d="M0 0v3" style="stroke:#000;stroke-width:.5"/></defs><use xlink:href="#ma723e12593" x="57.509" y="3.6" style="stroke:#000;stroke-width:.5"/></g><g id="text_1" transform="matrix(.08 0 0 -.08 49.323 151.104)"><defs><path id="CMSY10-0" d="M4218 1472c108 0 224 0 224 128s-116 128-224 128H755c-109 0-224 0-224-128s115-128 224-128z" transform="scale(.01563)"/><path id="NimbusRomNo9L-Regu-30" d="M1626 4352c-352 0-621-108-858-332-371-359-614-1095-614-1844 0-697 211-1446 512-1804C902 90 1229-64 1600-64c326 0 602 109 832 333 371 352 614 1095 614 1869 0 1312-582 2214-1420 2214m-20-166c538 0 826-723 826-2061 0-1337-282-2022-832-2022S768 788 768 2119c0 1357 288 2067 838 2067" transform="scale(.01563)"/><path id="CMMI10-3a" d="M1229 338c0 184-154 337-339 337-186 0-340-153-340-337C550 153 704 0 890 0c185 0 339 153 339 338" transform="scale(.01563)"/><path id="NimbusRomNo9L-Regu-32" d="m3040 875-83 32c-237-363-320-421-608-421H819l1075 1123c570 593 820 1078 820 1576 0 638-519 1128-1184 1128-352 0-685-140-922-395-205-218-301-422-410-875l135-32c256 625 486 829 928 829 537 0 902-364 902-900 0-497-294-1090-832-1658L192 77V0h2496z" transform="scale(.01563)"/></defs><use xlink:href="#CMSY10-0" transform="scale(.99626)"/><use xlink:href="#NimbusRomNo9L-Regu-30" transform="matrix(.99626 0 0 .99626 77.409 0)"/><use xlink:href="#CMMI10-3a" transform="matrix(.99626 0 0 .99626 127.222 0)"/><use xlink:href="#NimbusRomNo9L-Regu-32" transform="matrix(.99626 0 0 .99626 154.817 0)"/></g></g><g id="xtick_2"><use xlink:href="#m3a7ecf62c8" id="line2d_3" x="91.002" y="142.2" style="stroke:#000;stroke-width:.5"/><use xlink:href="#ma723e12593" id="line2d_4" x="91.002" y="3.6" style="stroke:#000;stroke-width:.5"/><g id="text_2" transform="matrix(.08 0 0 -.08 82.817 151.104)"><defs><path id="NimbusRomNo9L-Regu-31" d="M1862 4339 710 3757v-90c77 32 148 58 173 71 115 45 224 70 288 70 135 0 192-97 192-303V592c0-213-51-360-153-419-96-57-186-77-455-77V0h1767v96c-506 0-608 64-608 374v3857z" transform="scale(.01563)"/></defs><use xlink:href="#CMSY10-0" transform="scale(.99626)"/><use xlink:href="#NimbusRomNo9L-Regu-30" transform="matrix(.99626 0 0 .99626 77.409 0)"/><use xlink:href="#CMMI10-3a" transform="matrix(.99626 0 0 .99626 127.222 0)"/><use xlink:href="#NimbusRomNo9L-Regu-31" transform="matrix(.99626 0 0 .99626 154.817 0)"/></g></g><g id="xtick_3"><use xlink:href="#m3a7ecf62c8" id="line2d_5" x="124.495" y="142.2" style="stroke:#000;stroke-width:.5"/><use xlink:href="#ma723e12593" id="line2d_6" x="124.495" y="3.6" style="stroke:#000;stroke-width:.5"/><g id="text_3" transform="matrix(.08 0 0 -.08 119.407 151.104)"><use xlink:href="#NimbusRomNo9L-Regu-30" transform="scale(.99626)"/><use xlink:href="#CMMI10-3a" transform="matrix(.99626 0 0 .99626 49.813 0)"/><use xlink:href="#NimbusRomNo9L-Regu-30" transform="matrix(.99626 0 0 .99626 77.409 0)"/></g></g><g id="xtick_4"><use xlink:href="#m3a7ecf62c8" id="line2d_7" x="157.989" y="142.2" style="stroke:#000;stroke-width:.5"/><use xlink:href="#ma723e12593" id="line2d_8" x="157.989" y="3.6" style="stroke:#000;stroke-width:.5"/><g id="text_4" transform="matrix(.08 0 0 -.08 152.9 151.104)"><use xlink:href="#NimbusRomNo9L-Regu-30" transform="scale(.99626)"/><use xlink:href="#CMMI10-3a" transform="matrix(.99626 0 0 .99626 49.813 0)"/><use xlink:href="#NimbusRomNo9L-Regu-31" transform="matrix(.99626 0 0 .99626 77.409 0)"/></g></g><g id="xtick_5"><use xlink:href="#m3a7ecf62c8" id="line2d_9" x="191.482" y="142.2" style="stroke:#000;stroke-width:.5"/><use xlink:href="#ma723e12593" id="line2d_10" x="191.482" y="3.6" style="stroke:#000;stroke-width:.5"/><g id="text_5" transform="matrix(.08 0 0 -.08 186.393 151.104)"><use xlink:href="#NimbusRomNo9L-Regu-30" transform="scale(.99626)"/><use xlink:href="#CMMI10-3a" transform="matrix(.99626 0 0 .99626 49.813 0)"/><use xlink:href="#NimbusRomNo9L-Regu-32" transform="matrix(.99626 0 0 .99626 77.409 0)"/></g></g><g id="xtick_6"><g id="line2d_11"><defs><path id="mc5f8ef021d" d="M0 0v-1.5" style="stroke:#000;stroke-width:.5"/></defs><use xlink:href="#mc5f8ef021d" x="37.413" y="142.2" style="stroke:#000;stroke-width:.5"/></g><g id="line2d_12"><defs><path id="m2acfe0b812" d="M0 0v1.5" style="stroke:#000;stroke-width:.5"/></defs><use xlink:href="#m2acfe0b812" x="37.413" y="3.6" style="stroke:#000;stroke-width:.5"/></g></g><g id="xtick_7"><use xlink:href="#mc5f8ef021d" id="line2d_13" x="44.111" y="142.2" style="stroke:#000;stroke-width:.5"/><use xlink:href="#m2acfe0b812" id="line2d_14" x="44.111" y="3.6" style="stroke:#000;stroke-width:.5"/></g><g id="xtick_8"><use xlink:href="#mc5f8ef021d" id="line2d_15" x="50.81" y="142.2" style="stroke:#000;stroke-width:.5"/><use xlink:href="#m2acfe0b812" id="line2d_16" x="50.81" y="3.6" style="stroke:#000;stroke-width:.5"/></g><g id="xtick_9"><use xlink:href="#mc5f8ef021d" id="line2d_17" x="64.207" y="142.2" style="stroke:#000;stroke-width:.5"/><use xlink:href="#m2acfe0b812" id="line2d_18" x="64.207" y="3.6" style="stroke:#000;stroke-width:.5"/></g><g id="xtick_10"><use xlink:href="#mc5f8ef021d" id="line2d_19" x="70.906" y="142.2" style="stroke:#000;stroke-width:.5"/><use xlink:href="#m2acfe0b812" id="line2d_20" x="70.906" y="3.6" style="stroke:#000;stroke-width:.5"/></g><g id="xtick_11"><use xlink:href="#mc5f8ef021d" id="line2d_21" x="77.605" y="142.2" style="stroke:#000;stroke-width:.5"/><use xlink:href="#m2acfe0b812" id="line2d_22" x="77.605" y="3.6" style="stroke:#000;stroke-width:.5"/></g><g id="xtick_12"><use xlink:href="#mc5f8ef021d" id="line2d_23" x="84.303" y="142.2" style="stroke:#000;stroke-width:.5"/><use xlink:href="#m2acfe0b812" id="line2d_24" x="84.303" y="3.6" style="stroke:#000;stroke-width:.5"/></g><g id="xtick_13"><use xlink:href="#mc5f8ef021d" id="line2d_25" x="97.701" y="142.2" style="stroke:#000;stroke-width:.5"/><use xlink:href="#m2acfe0b812" id="line2d_26" x="97.701" y="3.6" style="stroke:#000;stroke-width:.5"/></g><g id="xtick_14"><use xlink:href="#mc5f8ef021d" id="line2d_27" x="104.399" y="142.2" style="stroke:#000;stroke-width:.5"/><use xlink:href="#m2acfe0b812" id="line2d_28" x="104.399" y="3.6" style="stroke:#000;stroke-width:.5"/></g><g id="xtick_15"><use xlink:href="#mc5f8ef021d" id="line2d_29" x="111.098" y="142.2" style="stroke:#000;stroke-width:.5"/><use xlink:href="#m2acfe0b812" id="line2d_30" x="111.098" y="3.6" style="stroke:#000;stroke-width:.5"/></g><g id="xtick_16"><use xlink:href="#mc5f8ef021d" id="line2d_31" x="117.797" y="142.2" style="stroke:#000;stroke-width:.5"/><use xlink:href="#m2acfe0b812" id="line2d_32" x="117.797" y="3.6" style="stroke:#000;stroke-width:.5"/></g><g id="xtick_17"><use xlink:href="#mc5f8ef021d" id="line2d_33" x="131.194" y="142.2" style="stroke:#000;stroke-width:.5"/><use xlink:href="#m2acfe0b812" id="line2d_34" x="131.194" y="3.6" style="stroke:#000;stroke-width:.5"/></g><g id="xtick_18"><use xlink:href="#mc5f8ef021d" id="line2d_35" x="137.893" y="142.2" style="stroke:#000;stroke-width:.5"/><use xlink:href="#m2acfe0b812" id="line2d_36" x="137.893" y="3.6" style="stroke:#000;stroke-width:.5"/></g><g id="xtick_19"><use xlink:href="#mc5f8ef021d" id="line2d_37" x="144.591" y="142.2" style="stroke:#000;stroke-width:.5"/><use xlink:href="#m2acfe0b812" id="line2d_38" x="144.591" y="3.6" style="stroke:#000;stroke-width:.5"/></g><g id="xtick_20"><use xlink:href="#mc5f8ef021d" id="line2d_39" x="151.29" y="142.2" style="stroke:#000;stroke-width:.5"/><use xlink:href="#m2acfe0b812" id="line2d_40" x="151.29" y="3.6" style="stroke:#000;stroke-width:.5"/></g><g id="xtick_21"><use xlink:href="#mc5f8ef021d" id="line2d_41" x="164.687" y="142.2" style="stroke:#000;stroke-width:.5"/><use xlink:href="#m2acfe0b812" id="line2d_42" x="164.687" y="3.6" style="stroke:#000;stroke-width:.5"/></g><g id="xtick_22"><use xlink:href="#mc5f8ef021d" id="line2d_43" x="171.386" y="142.2" style="stroke:#000;stroke-width:.5"/><use xlink:href="#m2acfe0b812" id="line2d_44" x="171.386" y="3.6" style="stroke:#000;stroke-width:.5"/></g><g id="xtick_23"><use xlink:href="#mc5f8ef021d" id="line2d_45" x="178.085" y="142.2" style="stroke:#000;stroke-width:.5"/><use xlink:href="#m2acfe0b812" id="line2d_46" x="178.085" y="3.6" style="stroke:#000;stroke-width:.5"/></g><g id="xtick_24"><use xlink:href="#mc5f8ef021d" id="line2d_47" x="184.784" y="142.2" style="stroke:#000;stroke-width:.5"/><use xlink:href="#m2acfe0b812" id="line2d_48" x="184.784" y="3.6" style="stroke:#000;stroke-width:.5"/></g><g id="xtick_25"><use xlink:href="#mc5f8ef021d" id="line2d_49" x="198.181" y="142.2" style="stroke:#000;stroke-width:.5"/><use xlink:href="#m2acfe0b812" id="line2d_50" x="198.181" y="3.6" style="stroke:#000;stroke-width:.5"/></g><g id="xtick_26"><use xlink:href="#mc5f8ef021d" id="line2d_51" x="204.88" y="142.2" style="stroke:#000;stroke-width:.5"/><use xlink:href="#m2acfe0b812" id="line2d_52" x="204.88" y="3.6" style="stroke:#000;stroke-width:.5"/></g><g id="xtick_27"><use xlink:href="#mc5f8ef021d" id="line2d_53" x="211.578" y="142.2" style="stroke:#000;stroke-width:.5"/><use xlink:href="#m2acfe0b812" id="line2d_54" x="211.578" y="3.6" style="stroke:#000;stroke-width:.5"/></g><g id="text_6" transform="matrix(.08 0 0 -.08 111.96 162.233)"><defs><path id="NimbusRomNo9L-Regu-66" d="M1978 2880h-788v731c0 367 122 562 365 562 135 0 224-63 339-246 103-164 180-227 288-227 148 0 269 114 269 259 0 229-281 393-665 393-397 0-736-171-903-461-166-278-217-506-224-1011H134v-205h525V656c0-471-70-547-531-547V0h1664v109c-525 0-595 71-595 552v2014h781z" transform="scale(.01563)"/><path id="NimbusRomNo9L-Regu-28" d="M1888 4326c-474-307-666-473-902-768-455-556-679-1196-679-1945 0-813 237-1440 800-2093 263-307 429-448 762-653l77 103c-512 403-692 627-864 1107-154 429-224 915-224 1555 0 672 83 1197 256 1594 179 396 371 627 832 998z" transform="scale(.01563)"/><path id="NimbusRomNo9L-Regu-47" d="M4538 2304H2906v-128c275 0 352-19 428-71 96-58 135-207 135-484V574c0-207-391-382-851-382-1044 0-1684 730-1684 1920 0 602 180 1184 461 1498 282 314 679 486 1114 486 358 0 672-121 921-352 192-179 295-352 455-742h147l-51 1350h-141c-38-121-154-211-288-211-64 0-166 19-282 64-288 96-582 147-870 147-1280 0-2195-940-2195-2246 0-627 173-1107 531-1485C1165 180 1779-64 2483-64c551 0 1351 224 1607 449v1309c0 379 76 463 448 495z" transform="scale(.01563)"/><path id="NimbusRomNo9L-Regu-48" d="M1338 2304v1229c0 457 70 526 563 571v120H122v-120c492-45 563-115 563-577V749c0-539-64-615-563-615V0h1779v121c-480 38-563 121-563 578v1323h1939V757c0-546-64-623-563-623V0h1779v121c-480 38-563 121-563 575v2833c0 460 70 530 563 575v120H2714v-120c492-45 563-114 563-571V2304z" transform="scale(.01563)"/><path id="NimbusRomNo9L-Regu-7a" d="m2675 864-115 26c-64-320-102-423-186-532-89-108-307-166-633-166H858l1721 2592v96H358l-19-755h115c58 467 154 563 538 563h883L173 96V0h2413z" transform="scale(.01563)"/><path id="NimbusRomNo9L-Regu-29" d="M243-1133c474 307 666 474 903 768 454 557 678 1197 678 1946 0 819-237 1440-800 2093-262 307-429 448-762 652l-76-102c512-403 684-627 864-1107 153-429 224-915 224-1555 0-666-84-1197-256-1588-180-403-372-633-832-1004z" transform="scale(.01563)"/></defs><use xlink:href="#NimbusRomNo9L-Regu-66" transform="scale(.99626)"/><use xlink:href="#NimbusRomNo9L-Regu-28" transform="matrix(.99626 0 0 .99626 58.082 0)"/><use xlink:href="#NimbusRomNo9L-Regu-47" transform="matrix(.99626 0 0 .99626 91.257 0)"/><use xlink:href="#NimbusRomNo9L-Regu-48" transform="matrix(.99626 0 0 .99626 163.187 0)"/><use xlink:href="#NimbusRomNo9L-Regu-7a" transform="matrix(.99626 0 0 .99626 235.117 0)"/><use xlink:href="#NimbusRomNo9L-Regu-29" transform="matrix(.99626 0 0 .99626 279.35 0)"/></g></g><g id="matplotlib.axis_2"><g id="ytick_1"><g id="line2d_55"><defs><path id="m3e3f68e578" d="M0 0h3" style="stroke:#000;stroke-width:.5"/></defs><use xlink:href="#m3e3f68e578" x="32.392" y="119.972" style="stroke:#000;stroke-width:.5"/></g><g id="line2d_56"><defs><path id="mf6a8b81346" d="M0 0h-3" style="stroke:#000;stroke-width:.5"/></defs><use xlink:href="#mf6a8b81346" x="216.532" y="119.972" style="stroke:#000;stroke-width:.5"/></g><g id="text_7" transform="matrix(.08 0 0 -.08 14.73 122.674)"><defs><path id="NimbusRomNo9L-Regu-35" d="M1158 3776h1255c102 0 128 13 147 58l243 569-57 45c-96-134-160-166-295-166H1114L416 2759c-6-13-6-19-6-32 0-32 25-51 76-51 205 0 461-45 724-129 736-238 1075-637 1075-1273 0-618-391-1101-890-1101-128 0-237 45-429 187-204 148-352 212-486 212-186 0-275-77-275-238C205 90 506-64 986-64c537 0 998 174 1318 502 294 290 429 656 429 1145 0 463-122 759-442 1080-281 284-646 431-1401 566z" transform="scale(.01563)"/></defs><use xlink:href="#CMSY10-0" transform="scale(.99626)"/><use xlink:href="#NimbusRomNo9L-Regu-35" transform="matrix(.99626 0 0 .99626 77.409 0)"/><use xlink:href="#NimbusRomNo9L-Regu-30" transform="matrix(.99626 0 0 .99626 127.222 0)"/></g></g><g id="ytick_2"><use xlink:href="#m3e3f68e578" id="line2d_57" x="32.392" y="93.657" style="stroke:#000;stroke-width:.5"/><use xlink:href="#mf6a8b81346" id="line2d_58" x="216.532" y="93.657" style="stroke:#000;stroke-width:.5"/><use xlink:href="#NimbusRomNo9L-Regu-30" id="text_8" transform="matrix(.0797 0 0 -.0797 24.907 96.359)"/></g><g id="ytick_3"><use xlink:href="#m3e3f68e578" id="line2d_59" x="32.392" y="67.342" style="stroke:#000;stroke-width:.5"/><use xlink:href="#mf6a8b81346" id="line2d_60" x="216.532" y="67.342" style="stroke:#000;stroke-width:.5"/><g id="text_9" transform="matrix(.08 0 0 -.08 20.922 70.044)"><use xlink:href="#NimbusRomNo9L-Regu-35" transform="scale(.99626)"/><use xlink:href="#NimbusRomNo9L-Regu-30" transform="matrix(.99626 0 0 .99626 49.813 0)"/></g></g><g id="ytick_4"><use xlink:href="#m3e3f68e578" id="line2d_61" x="32.392" y="41.027" style="stroke:#000;stroke-width:.5"/><use xlink:href="#mf6a8b81346" id="line2d_62" x="216.532" y="41.027" style="stroke:#000;stroke-width:.5"/><g id="text_10" transform="matrix(.08 0 0 -.08 16.937 43.73)"><use xlink:href="#NimbusRomNo9L-Regu-31" transform="scale(.99626)"/><use xlink:href="#NimbusRomNo9L-Regu-30" transform="matrix(.99626 0 0 .99626 49.813 0)"/><use xlink:href="#NimbusRomNo9L-Regu-30" transform="matrix(.99626 0 0 .99626 99.626 0)"/></g></g><g id="ytick_5"><use xlink:href="#m3e3f68e578" id="line2d_63" x="32.392" y="14.713" style="stroke:#000;stroke-width:.5"/><use xlink:href="#mf6a8b81346" id="line2d_64" x="216.532" y="14.713" style="stroke:#000;stroke-width:.5"/><g id="text_11" transform="matrix(.08 0 0 -.08 16.937 17.414)"><use xlink:href="#NimbusRomNo9L-Regu-31" transform="scale(.99626)"/><use xlink:href="#NimbusRomNo9L-Regu-35" transform="matrix(.99626 0 0 .99626 49.813 0)"/><use xlink:href="#NimbusRomNo9L-Regu-30" transform="matrix(.99626 0 0 .99626 99.626 0)"/></g></g><g id="ytick_6"><g id="line2d_65"><defs><path id="mac709b7b20" d="M0 0h1.5" style="stroke:#000;stroke-width:.5"/></defs><use xlink:href="#mac709b7b20" x="32.392" y="141.024" style="stroke:#000;stroke-width:.5"/></g><g id="line2d_66"><defs><path id="mf43653bddc" d="M0 0h-1.5" style="stroke:#000;stroke-width:.5"/></defs><use xlink:href="#mf43653bddc" x="216.532" y="141.024" style="stroke:#000;stroke-width:.5"/></g></g><g id="ytick_7"><use xlink:href="#mac709b7b20" id="line2d_67" x="32.392" y="135.761" style="stroke:#000;stroke-width:.5"/><use xlink:href="#mf43653bddc" id="line2d_68" x="216.532" y="135.761" style="stroke:#000;stroke-width:.5"/></g><g id="ytick_8"><use xlink:href="#mac709b7b20" id="line2d_69" x="32.392" y="130.498" style="stroke:#000;stroke-width:.5"/><use xlink:href="#mf43653bddc" id="line2d_70" x="216.532" y="130.498" style="stroke:#000;stroke-width:.5"/></g><g id="ytick_9"><use xlink:href="#mac709b7b20" id="line2d_71" x="32.392" y="125.235" style="stroke:#000;stroke-width:.5"/><use xlink:href="#mf43653bddc" id="line2d_72" x="216.532" y="125.235" style="stroke:#000;stroke-width:.5"/></g><g id="ytick_10"><use xlink:href="#mac709b7b20" id="line2d_73" x="32.392" y="114.709" style="stroke:#000;stroke-width:.5"/><use xlink:href="#mf43653bddc" id="line2d_74" x="216.532" y="114.709" style="stroke:#000;stroke-width:.5"/></g><g id="ytick_11"><use xlink:href="#mac709b7b20" id="line2d_75" x="32.392" y="109.446" style="stroke:#000;stroke-width:.5"/><use xlink:href="#mf43653bddc" id="line2d_76" x="216.532" y="109.446" style="stroke:#000;stroke-width:.5"/></g><g id="ytick_12"><use xlink:href="#mac709b7b20" id="line2d_77" x="32.392" y="104.183" style="stroke:#000;stroke-width:.5"/><use xlink:href="#mf43653bddc" id="line2d_78" x="216.532" y="104.183" style="stroke:#000;stroke-width:.5"/></g><g id="ytick_13"><use xlink:href="#mac709b7b20" id="line2d_79" x="32.392" y="98.92" style="stroke:#000;stroke-width:.5"/><use xlink:href="#mf43653bddc" id="line2d_80" x="216.532" y="98.92" style="stroke:#000;stroke-width:.5"/></g><g id="ytick_14"><use xlink:href="#mac709b7b20" id="line2d_81" x="32.392" y="88.394" style="stroke:#000;stroke-width:.5"/><use xlink:href="#mf43653bddc" id="line2d_82" x="216.532" y="88.394" style="stroke:#000;stroke-width:.5"/></g><g id="ytick_15"><use xlink:href="#mac709b7b20" id="line2d_83" x="32.392" y="83.131" style="stroke:#000;stroke-width:.5"/><use xlink:href="#mf43653bddc" id="line2d_84" x="216.532" y="83.131" style="stroke:#000;stroke-width:.5"/></g><g id="ytick_16"><use xlink:href="#mac709b7b20" id="line2d_85" x="32.392" y="77.868" style="stroke:#000;stroke-width:.5"/><use xlink:href="#mf43653bddc" id="line2d_86" x="216.532" y="77.868" style="stroke:#000;stroke-width:.5"/></g><g id="ytick_17"><use xlink:href="#mac709b7b20" id="line2d_87" x="32.392" y="72.605" style="stroke:#000;stroke-width:.5"/><use xlink:href="#mf43653bddc" id="line2d_88" x="216.532" y="72.605" style="stroke:#000;stroke-width:.5"/></g><g id="ytick_18"><use xlink:href="#mac709b7b20" id="line2d_89" x="32.392" y="62.079" style="stroke:#000;stroke-width:.5"/><use xlink:href="#mf43653bddc" id="line2d_90" x="216.532" y="62.079" style="stroke:#000;stroke-width:.5"/></g><g id="ytick_19"><use xlink:href="#mac709b7b20" id="line2d_91" x="32.392" y="56.816" style="stroke:#000;stroke-width:.5"/><use xlink:href="#mf43653bddc" id="line2d_92" x="216.532" y="56.816" style="stroke:#000;stroke-width:.5"/></g><g id="ytick_20"><use xlink:href="#mac709b7b20" id="line2d_93" x="32.392" y="51.553" style="stroke:#000;stroke-width:.5"/><use xlink:href="#mf43653bddc" id="line2d_94" x="216.532" y="51.553" style="stroke:#000;stroke-width:.5"/></g><g id="ytick_21"><use xlink:href="#mac709b7b20" id="line2d_95" x="32.392" y="46.29" style="stroke:#000;stroke-width:.5"/><use xlink:href="#mf43653bddc" id="line2d_96" x="216.532" y="46.29" style="stroke:#000;stroke-width:.5"/></g><g id="ytick_22"><use xlink:href="#mac709b7b20" id="line2d_97" x="32.392" y="35.764" style="stroke:#000;stroke-width:.5"/><use xlink:href="#mf43653bddc" id="line2d_98" x="216.532" y="35.764" style="stroke:#000;stroke-width:.5"/></g><g id="ytick_23"><use xlink:href="#mac709b7b20" id="line2d_99" x="32.392" y="30.502" style="stroke:#000;stroke-width:.5"/><use xlink:href="#mf43653bddc" id="line2d_100" x="216.532" y="30.502" style="stroke:#000;stroke-width:.5"/></g><g id="ytick_24"><use xlink:href="#mac709b7b20" id="line2d_101" x="32.392" y="25.239" style="stroke:#000;stroke-width:.5"/><use xlink:href="#mf43653bddc" id="line2d_102" x="216.532" y="25.239" style="stroke:#000;stroke-width:.5"/></g><g id="ytick_25"><use xlink:href="#mac709b7b20" id="line2d_103" x="32.392" y="19.976" style="stroke:#000;stroke-width:.5"/><use xlink:href="#mf43653bddc" id="line2d_104" x="216.532" y="19.976" style="stroke:#000;stroke-width:.5"/></g><g id="ytick_26"><use xlink:href="#mac709b7b20" id="line2d_105" x="32.392" y="9.45" style="stroke:#000;stroke-width:.5"/><use xlink:href="#mf43653bddc" id="line2d_106" x="216.532" y="9.45" style="stroke:#000;stroke-width:.5"/></g><g id="ytick_27"><use xlink:href="#mac709b7b20" id="line2d_107" x="32.392" y="4.187" style="stroke:#000;stroke-width:.5"/><use xlink:href="#mf43653bddc" id="line2d_108" x="216.532" y="4.187" style="stroke:#000;stroke-width:.5"/></g><g id="text_12" transform="matrix(0 -.08 -.08 0 9.004 98.468)"><defs><path id="NimbusRomNo9L-Regu-4d" d="M4314 3667V751c0-534-77-617-583-617V0h1792v134c-467 0-557 89-557 547v2855c0 457 84 541 557 579v122H4250L2835 1004 1357 4237H90v-141c524 0 608-77 608-546V943c0-661-90-784-621-822V0h1504v134c-493 0-602 148-602 797v2589L2586 0h89z" transform="scale(.01563)"/><path id="NimbusRomNo9L-Regu-61" d="M2829 423c-109-90-186-122-282-122-147 0-192 89-192 371v1248c0 333-32 518-128 672-141 230-416 352-793 352-602 0-1076-314-1076-717 0-147 128-275 276-275 153 0 288 128 288 269 0 25-7 57-13 102-13 58-19 109-19 154 0 173 204 313 460 313 314 0 487-185 487-531v-390c-986-397-1095-448-1370-691-141-128-230-346-230-557 0-403 281-685 672-685 281 0 544 134 934 467 32-333 147-467 410-467 217 0 352 77 576 320zm-992 360c0-199-32-257-167-334-153-90-332-148-467-148-224 0-403 219-403 495v26c0 379 262 611 1037 893z" transform="scale(.01563)"/><path id="NimbusRomNo9L-Regu-67" d="M3008 2496v250h-493c-128 0-224 17-352 56l-141 45c-172 56-345 84-512 84-595 0-1068-464-1068-1050 0-405 172-651 595-863-122-112-237-219-275-250-212-180-295-305-295-430 0-132 77-207 339-332-454-335-627-549-627-787 0-343 499-627 1107-627 480 0 980 170 1312 446 244 203 352 414 352 663 0 407-300 683-774 683h-826c-339 0-499 59-499 164 0 130 211 360 384 412 58-7 103-13 122-13 121-13 205-19 243-19 237 0 493 98 691 275 211 184 307 414 307 742 0 190-32 341-121 551zM941-13c211-45 723-83 1037-83 582 0 793-84 793-318 0-377-486-629-1209-629-564 0-935 188-935 473 0 150 45 234 314 557m32 2158c0 381 179 607 473 607 199 0 365-110 468-303 115-226 192-522 192-774 0-361-186-587-480-587-384 0-653 419-653 1038z" transform="scale(.01563)"/><path id="NimbusRomNo9L-Regu-6e" d="M102 2579c39 19 103 26 173 26 179 0 237-96 237-410V608c0-365-70-454-397-480V32h1357v96c-326 26-422 102-422 333v1798c307 288 448 365 659 365 313 0 467-198 467-621V666c0-404-83-512-403-538V32h1331v96c-314 32-390 109-390 422v1466c0 602-282 960-756 960-294 0-492-109-928-518v505l-44 13c-314-115-532-186-884-288z" transform="scale(.01563)"/><path id="NimbusRomNo9L-Regu-69" d="m1120 2929-992-350v-95l51 6c77 12 160 19 218 19 153 0 211-103 211-384V640c0-461-64-531-506-531V0h1517v96c-422 32-473 95-473 554v2260zM819 4352c-173 0-320-147-320-326s141-327 320-327c186 0 333 141 333 327 0 179-147 326-333 326" transform="scale(.01563)"/><path id="NimbusRomNo9L-Regu-74" d="M1632 2880H986v742c0 64-7 84-45 84-45-58-83-116-128-180-243-352-519-659-621-685-70-47-109-93-109-126 0-20 7-33 26-33h339V751c0-539 192-815 570-815 313 0 556 154 768 487l-84 70c-134-160-243-224-384-224-236 0-332 174-332 578v1835h646z" transform="scale(.01563)"/><path id="NimbusRomNo9L-Regu-75" d="M3066 320h-32c-295 0-365 70-365 365v2195H1658v-122c396 0 473-64 473-383V875c0-178-32-268-121-338-173-140-372-217-564-217-249 0-454 217-454 485v2075H58v-102c307 0 396-96 396-391V770c0-507 308-834 775-834 237 0 486 102 659 275l275 275V-45l26-13c320 128 550 199 877 288z" transform="scale(.01563)"/><path id="NimbusRomNo9L-Regu-64" d="m2202-64 940 333v96h-147c-230 0-281 70-281 366v3633l-32 13c-308-109-532-173-941-281v-102c51 6 89 6 141 6 236 0 294-64 294-328V2669c-243 205-416 275-672 275-736 0-1331-723-1331-1632C173 493 653-64 1357-64c358 0 601 128 819 429V-45zm-26 717c0-45-45-122-109-192-115-128-275-192-461-192-531 0-883 512-883 1299 0 723 314 1197 800 1197 339 0 653-301 653-640z" transform="scale(.01563)"/><path id="NimbusRomNo9L-Regu-65" d="M2611 1053c-307-489-582-675-992-675-365 0-640 186-825 552-116 244-160 456-173 849h1971c-51 414-115 598-275 802-192 230-487 363-819 363-320 0-621-115-864-333-301-262-474-717-474-1241C160 486 621-64 1357-64c608 0 1088 379 1357 1072zM634 1984c70 495 288 730 678 730s544-179 627-730z" transform="scale(.01563)"/><path id="NimbusRomNo9L-Regu-42" d="M109 4237v-141c537 0 614-70 614-548V689c0-477-83-561-614-561V0h2137c500 0 954 136 1191 356 230 208 358 499 358 809 0 286-115 545-313 732-192 175-365 253-781 356 333 82 467 145 621 278 160 140 256 372 256 632 0 708-570 1074-1677 1074zm1267-2125c621 0 915-32 1146-130 364-155 537-414 537-823 0-350-134-604-390-753-205-116-467-168-890-168-313 0-403 58-403 266zm0 256v1444c0 132 45 189 141 189h281c736 0 1127-302 1127-864 0-491-339-769-941-769z" transform="scale(.01563)"/></defs><use xlink:href="#NimbusRomNo9L-Regu-4d" transform="scale(.99626)"/><use xlink:href="#NimbusRomNo9L-Regu-61" transform="matrix(.99626 0 0 .99626 88.567 0)"/><use xlink:href="#NimbusRomNo9L-Regu-67" transform="matrix(.99626 0 0 .99626 132.8 0)"/><use xlink:href="#NimbusRomNo9L-Regu-6e" transform="matrix(.99626 0 0 .99626 182.614 0)"/><use xlink:href="#NimbusRomNo9L-Regu-69" transform="matrix(.99626 0 0 .99626 232.427 0)"/><use xlink:href="#NimbusRomNo9L-Regu-74" transform="matrix(.99626 0 0 .99626 260.122 0)"/><use xlink:href="#NimbusRomNo9L-Regu-75" transform="matrix(.99626 0 0 .99626 287.817 0)"/><use xlink:href="#NimbusRomNo9L-Regu-64" transform="matrix(.99626 0 0 .99626 337.63 0)"/><use xlink:href="#NimbusRomNo9L-Regu-65" transform="matrix(.99626 0 0 .99626 387.444 0)"/><use xlink:href="#NimbusRomNo9L-Regu-28" transform="matrix(.99626 0 0 .99626 456.584 0)"/><use xlink:href="#NimbusRomNo9L-Regu-64" transform="matrix(.99626 0 0 .99626 489.759 0)"/><use xlink:href="#NimbusRomNo9L-Regu-42" transform="matrix(.99626 0 0 .99626 539.572 0)"/><use xlink:href="#NimbusRomNo9L-Regu-29" transform="matrix(.99626 0 0 .99626 606.022 0)"/></g></g><path id="line2d_109" d="m40.762 97.716.2 16.76.135-1.317.2-18.006.068 11.888.067-1.521.067-.316.134-9.132.067 1.353.067 4.82.067 16.737.134-24.3.067 9.763.067-.838.134-6.14.2 16.502.135-15.93.067 12.971.067-14.276.2 20.451.067-12.954.067 4.304.134-12.796.067 11.34.067-9.99.067 10.699.134-10.111.067-1.239.067 26.618.067-10.777.067-1.994.134-14.212.067 7.628.067-6.325.268 16.252.067-15.902.134 14.907.201-15.585.134 22.61.067-15.795.067 4.604.067-2.734.067-8.145.067 5.211.067-5.875.201 18.564.067-17.873.067 8.278.067.441.067 6.945.2-12.08.135 13.714.2-21.655.068 2.77.067 9.305.067-2.882.067-9.262.134 6.203.067 29.969.134-31.472.067.155.067 4.45.067-3.82.134 14.006.067-15.817.067 2.792.067 1.863.134-3.56.134 8.15.067-9.872.067 9.378.067 30.286.2-42.168.134 15.016.067-14.468.067 7.831.067-3.79.067 4.924.067-4.12.067 11.892.067-4.523.067.64.134-10.587.067 2.224.067 8.204.067-4.638.067-2.553.067 7.448.067-4.897.067 6.473.067-8.248.067 16.149.067-9.337.067-2.673.067 7.815.067-8.962.067.47.067-2.888.067 2.104.067 13.097.067-6.168.134-10.107.067 11.537.134-11.029.067 4.562.067-3.368.067 5.778.067-4.988.067 16.111.067-7.599.067 1.364.067-16.517.067 1.141.134 12.251.134-9.56.134 10.058.067 9.003.2-20.878.202 15.128.2-11.34.068 6.608.067-6.744.067 12.725.067-17.448.067 3.192.134 11.226.134-14.227.067 5.665.067-4.79.067 4.575.067-5.766.067 9.094.066-5.947.067.128.067.8.067 23.734.067-26.356.067 7.362.067 4.626.067-9.908.067 2.21.067 10.706.067-15.138.067 9.179.067 1.033.134-11.94.067.153.067 8.192.067-9.39.067 20.43.067-.467.268-20.093.067 2.009.067 9.826.067-6.419.067-9.773.067 9.934.067-5.844.067.996.067 5.11.067-6.07.067 11.006.067-5.084.067-.138.201 7.361.067-10.439.067 11.893.2-11.16.068-.723.067 16.164.067-18.34.067 5.426.067.78.067 4.096.067-5.364.134 8.07.067-15.47.067 4.25.067 6.356.067-7.94.067 2.618.067 5.026.067-10.743.067 5.693.134 8.298.067-2.662.2-32.506.135 38.185.067-10.57.134 14.966.067-13.646.067 3.417.067-.656.133-6.986.134.833.134 17.98.134-20.17.134 25.3.067-27.175.067 11.329.067 11.961.067-17.783.067 3.36.067-.523.067 17.165.067-29.585.067 24.79.067-17.07.067 1.933.134 9.762.067-4.601.067 3.154.067-6.437.067.005.067 8.83.201-14.063.067 12.17.067-11.285.067 9.154.067-10.611.067 4.848.067-6.663.067 9.778.067-6.216.067-3.293.134 6.559.067 19.958.134-22.969.2 17.609.202-16.188.134 5.579.067-1.928.067.156.134 7.005.134-12.981.134 12.57.067-12.285.067 4.455.067-.371.067 5.89.067-7.603.067 4.424.067-5.587.067 7.22.067-10.363.067 8.73.067-1.212.067-2.763.067 9.658.067-11.456.067 2.422.066 1.868.134-4.024.134 6.276.067-1.34.067 4.089.067-10.175.067 1.458.067 15.617.134-16.365.067 1.12.067-5.086.134 16.127.067-17.028.067 5.426.201 2.991.067-6.129.067 1.551.201 11.466.067-4.538.067 2.655.134-7.521.067 13.896.067-11.467.067 4.767.067 1.038.067-15.044.067 18.214.067-.234.067-7.848.067.167.134-2.656.067 7.451.067-3.71.067 1.7.067-.781.134 32.39.067-36.815.067 9.949.067 5.444.2-15.576.068-1.888.067 9.974.067-11.77.067 6.36.067 9.805.067-15.82.067 1.745.067 9.356.067-.598.067-8.013.2 26.76.068-31.105.067 8.405.067-1.127.067-9.715.067 1.309.067 15.639.067-1.36.067-13.153.067 3.255.067-.427.066-5.096.201 9.855.067 14.688.067-4.132.134-7.791.067-.582.067-10.245.067 5.387.067-4.527.067.406.134 13.486.134-16.53.134 23.194.134-9.82.067 6.711.067-12.865.067.36.067 8.2.067-7.013.067 9.24.134-16.076.067 17.167.067-6.756.067-6.753.067 8.053.067-.062.134-10.577.067 10.46.067-.903.134-10.289.067 4.37.134 7.494.067-3.795.067 2.972.134-10.22.067 6.854.067-6.47.067 35.326.067-14.667.2-20.488.068 1.276.067 5.243.067-2.958.067 3.613.067-2.82.134 9.763.134-13.652.067 8.735.067-7.538.067 12.039.067-6.815.067-3.628.067 5.576.067-.997.2-11.675.068 20.016.067-9.987.067-1.663.066 1.371.067-5.555.067 1.175.067.885.134 8.698.067-5.96.067 4.319.134-7.707.067.203.067-2.391.067 16.961.067-8.77.067-7.745.067 16.047.067-6.575.067-.54.067 1.94.067-8.41.067 1.214.067 9.144.067-2.317.067 1.438.134-5.675.067-11.547.067 6.574.134 7.234.134 11.95.067-2.051.067-14.272.067 5.179.067-.626.134-5.643.067 2.776.067-5.736.067 11.49.067-7.941.067 1.193.067 5.003.067-4.68.067 19.192.067-27.736.067 8.248.067-1.962.067 1.348.134-9.205.067 6.123.067-1.046.067 2.349.067 7.608.067-9.787.067 8.9.067-7.508.067 9.53.2-12.179.068 16.498.067-17.6.067 6.871.067 2.147.067-2.929.067 10.066.134-17.458.067 16.358.067-10.222.134-2.568.066 7.928.067-1.07.067-.403.067-7 .067 7.27.067-1.704.067 1.305.067 4.418.067-7.92.067 6.981.067-4.163.134 8.352.201-13.432.134 12.241.067-9.296.067 4.895.067-1.983.067.746.067.217.067 4.907.067-13.082.067 12.378.067-5.28.067 1.27.067-.981.067-4.226.134 12.192.067-16.607.067 6.867.067-3.032.067 3.265.067 9.178.067-12.305.067 4.054.201 4.146.067-11.075.067 6.505.134-5.492.067 13.655.067-18.895.067 8.617.2 12.157.068-1.275.134-14.415.067 9.387.067-3.887.134 11.968.067-12.347.067 15.162.067-17.41.067 1.204.067 3.443.067-.463.067-.015.067 13.631.2-21.46.202 18.003.134-17.453.067 9.592.066-1.791.067-.353.067-5.019.134 9.311.067-14.566.067 9.514.268-7.252.067.775.067 18.595.134-18.923.067-.1.134 8.465.067-.878.067-5.815.067 1.52.067 7.798.067-7.945.067 4.14.067 3.849.134-5.452.067 2.135.067-3.185.067 1.329.134-1.46.067 3.409.067-5.469.067 6.068.067-10.998.067 12.55.067-6.38.134 2.744.067-3.912.067 4.678.067-5.39.067 7.588.134-8.301.067 8.092.067-6.136.067 8.9.067-.935.067-3.162.067 3.085.067-6.193.067 9.122.067-.237.067-11.067.067 4.361.134 8.278.134-13.655.067 7.184.067-5.215.067 4.79.067-4.672.067 5.614.067-7.696.067 5.258.067-1.666.134-3.145.134 16.32.134-14.37.067-.314.066-4.822.067 15.675.067-4.523.067 7.21.067-16.056.067 1.929.067-1.067.134 7.017.067 10.8.067-24.544.067 7.906.067 17.89.134-15.812.067-.898.067-5.74.067 2.423.067 10.218.067-6.644.067 4.556.067-2.919.067-2.95.067 16.42.134-17.995.067.187.134 11.006.067 8.36.067-10.05.067 19.05.134-27.803.067 11.09.134-30.08.067 26.403.067-4.695.134 5.488.067-7.725.067 14.018.067-20.81.067 10.358.067-3.354.134 7.279.134-7.956.067 7.277.067-5.418.067 5.793.067-13.051.067 16.19.067-13.953.067 7.487.134-9.73.134 6.743.067-1.801.067.491.134-3.842.067 1.984.067 16.213.067-7.193.067-9.391.067 7.659.067-10.262.134 19.298.2-20.504.067-.23.134 15.36.067-.549.067-5.036.067 4.642.134-15.574.201 16.917.134-15.785.067 19.363.067-15.7.067 7.37.134-9.305.067 13.27.067-8.803.067 8.598.067-10.166.067.853.067 18.164.134-21.481.067 4.391.134-7.38.067 26.453.067-26.805.067 11.402.067-1.513.067 1.8.067-13.994.067 13.23.067-4.247.067 4.038.134-9.815.067 15.708.067-8.546.067 6.686.067-13.596.067 11.973.067-4.824.067-10.641.067.691.067 14.408.067-10.775.067 22.413.067-12.808.2-12.155.202 7.486.067-3.615.067 2.298.134-2.647.067 17.845.134-15.431.067-3.494.067 4.698.067-5.556.067 5.532.067-10.987.067 20.404.067-2.088.2-17.269.067 13.587.067-10.893.067 22.395.067-11.225.067-6.969.067 13.245.067-16.88.067.908.067-2.063.067 4.345.067-4.353.134 8.248.134-13.406.201 22.49.067-15.093.067 1.922.067-4.686.134 11.5.067-9.458.067 6.352.134-13.544.067 25.828.134-22.007.134-3.503.201 13.01.067-7.575.067 5.065.134-8.45.067 9.986.2-16.438.202 23.027.067-2.784.268-17.822.067 9.546.067-5.917.067-.335.2 10.152.068-10.928.067 2.482.067 14.747.067-10.547.067 3.194.2-8.256.135 11.858.067-.134.067 1.025.067-10.808.067 3.036.268 13.283.267-18.183.067 3.135.067 26.602.067-35.086.067 5.155.067 5.359.067-4.142.067 11.736.134-10.597.067 8.49.201-9.319.067 11.31.067-17.614.067 10.49.067-12.21.067 17.526.067-8.738.067-3.226.067 2.533.067 32.7.134-41.519.201 23.881.067-19.314.067 5.905.067 4.757.201-15.144.067 3.693.134 12.899.067-.34.067.138.134-10.966.067 1.356.067 13.682.134-26.121.2 29.508.135-20.819.2 18.173.135-13.454.067 15.2.067-15.099.067 2.756.067 7.72.067-7.304.067 7.041.067-6.266.067 6.14.134-11.55.067 3.008.067-4.21.067 3.063.2-7.509.068 19.178.067-4.27.133-15.73.201 6.016.067-4.267.067 10.736.067-3.12.134 20.77.067-12.606.067-14.554.067 9.55.067-.759.067 9.147.067-11.478.067 9.288.201-11.418.067-4.318.134 7.876.067-1.514.067 7.64.067-10.366.067 6.836.067-11.655.067 32.756.067-17.685.067-10.807.067 2.175.067 8.703.134-12.034.067 3.239.067 11.267.067-12.765.067 3.538.201-8.71.067 1.677.067 9.942.067-11.96.067 5.404.2 12.24.135-20.589.067 9.031.067 1.865.067-7.346.2 25.359.202-19.761.067 1.962.134-6.012.067 5.37.067-5.886.134 6.295.067-2.183.067 8.868.134-12.352.067 10.092.067-8.925.067 25.483.067-25.538.067 11.562.133-13.64.201 6.688.201-13.439.067 28.853.067-21.343.067 5.71.067-.068.067.726.067 5.912.067-4.022.067-13.21.067 13.66.067-8.179.067-3.391.067 14.125.067-1.452.067-2.397.067-7.554.067 8.462.067-3.016.067.61.268 11.336.134-16.911.067 2.424.067-4.376.134 12.074.067-11.96.067 1.166.067 5.216.067-7.49.134 24.415.067-24.904.067 11.519.067-11.234.134 11.346.067-9.392.067 3 .067 4.214.134-10.187.067 7.453.067-2.506.067-1.5.134 2.8.067-.323.134 8.523.134-6.84.067-5.057.067 6.83.067-7.245.067 8.217.067-12.306.134 11.935.067-2.613.067 5.02.067-2.525.067-5.602.067 6.303.134-11.16.066 6.979.067-.067.067-.528.067 11.355.067-14.01.067 11.766.067-12.474.067 4.218.067-5.278.067 11.44.067-13.741.067 13.817.067-18.857.067 5.155.067 10.883.067-3.642.067-12.446.201 16.843.067-15.603.067 8.195.134 11.822.067-14.513.067 6.573.067-10.366.067 5.755.134 4.467.201-11.967.067 20.366.067-3.047.067 8.574.067-23.896.067 3.496.067-2.377.067 5.859.067-17.53.067 6.992.134 12.823.134-24.195.067.52.067 13.07.2-20.446.068 3.689.067 14.93.2-21.504.068 1.706.067 7.875.2-14.007.068.585.067 13.438.2-19.044.068 1.61.067 9.907.2-16.776.068.76.067 18.357.2-26.702.067 2.456.067 15.322.201-31.004.134-4.34.067.586.201 17.202.067 17.556.134-17.778.134 10.14.067 16.562.134-19.117.134 8.472.067 8.304.134-11.517.067 2.187.134 16.857.134-14.023.067 2.19.134 11.817.134-9.581.067 1.192.134 20.312.134-18.619.201 20.445.134-13.59.067 3.3.067 20.896.067-9.3.134-10.514.067 17.529.067-5.859.067 2.377.067-3.496.067 23.896.067-8.574.067 3.047.067-20.366.067 1.007.134 10.96.067-1.013.134-9.209.2 18.306.202-20.017.067 15.603.067-7.872.067 2.813.067-11.784.134 16.088.133-16.038.067 18.857.067-13.817.067 13.74.067-11.439.067 5.278.067-4.218.067 12.474.067-11.765.067 14.009.067-11.355.067.528.067.067.067-6.978.067 4.576.067 6.583.067-6.303.134 8.127.067-5.02.067 2.613.067-3.061.067-8.874.067 12.306.067-8.217.067 7.245.067-6.83.201 11.897.134-8.523.067.323.067-.263.067-2.537.067 1.5.067 2.506.067-7.453.134 10.187.134-7.214.067 9.392.067-2.232.067-9.114.067 11.234.067-11.519.067 24.904.067-10.475.067-13.94.067 7.49.134-6.381.067 11.96.067-2.39.067-9.685.067 4.376.067-2.424.067 3.268.067 13.643.067-2.543.067-.331.2-9.072.068 3.016.067-8.462.2 11.403.068-14.125.067 3.391.067 8.18.067-13.66.133 17.231.134-6.638.067.069.067-5.71.067 21.342.067-28.853.067 9.613.067-2.388.067 6.214.067-.726.067-1.604.067-4.358.067 2.897.067 10.743.067-11.562.067 25.538.067-25.483.067 8.925.067-10.092.067 6.441.067 5.911.067-8.868.067 2.183.067-.004.067-6.291.067 5.886.067-5.37.067.006.201 14.893.067-4.57.067 13.482.201-25.36.067 7.347.067-1.865.067-9.03.134 20.588.134-6.087.134-11.558.067 11.96.134-11.617.067 7.225.067-2.201.067 3.685.067-3.538.067 12.765.134-14.506.134 12.034.134-10.878.134 28.492.067-32.756.067 11.655.067-6.836.067 10.366.067-7.64.067 1.514.067-.095.067-7.78.067 4.317.134 4.251.067 7.167.067-9.288.067 11.478.2-17.938.134 27.16.134-20.77.067 3.12.067-10.736.067 4.267.201-6.015.067 2.654.134 17.345.067-19.178.067 2.594.067 1.18.067 3.735.067-3.063.067 4.21.067-3.008.067 1.946.067 9.605.067-6.141.067 6.266.067-7.041.067 7.303.134-10.475.067 15.098.067-15.199.067 5.385.067 8.069.201-18.173.134 20.819.2-29.508.135 26.12.134-15.037.268 11.168.067-3.016.134-13.576.067 12.21.067-2.332.067 5.266.134-10.662.067 19.314.067-9.71.134-14.17.134 41.518.134-35.233.067 3.226.067 8.738.067-17.526.067 12.21.067-10.49.067 17.614.067-11.31.134 3.154.066 6.165.067-8.49.067.037.067 10.56.067-11.736.067 4.142.134-10.514.067 35.086.134-29.737.067 2.83.067-2.07.134 17.423.067-1.296.268-15.023.067 10.808.067-1.025.067.134.067-.504.067-11.354.067.965.134 7.29.067-3.193.067 10.547.134-17.23.067 10.929.067-8.43.067 1.143.067-2.865.067.335.067 5.917.067-9.546.067 1.996.067 13.344.067-3.91.134 9.176.134-14.544.067-8.483.2 16.438.068-9.986.067 3.682.067 4.768.067-5.065.067 7.575.067-4.626.067-.631.067-7.753.067.881.134 5.698.067 18.93.067-25.827.067 9.002.067 4.542.067-6.352.067 9.458.067-2.04.067-9.46.067 4.686.067-1.922.067 15.092.067-9.425.134-13.064.067 3.252.066 10.154.067-2.323.067-5.925.067 4.353.067-4.345.067 2.063.067-.909.067 16.88.067-13.244.067 6.97.067 11.224.067-22.395.067 10.893.067-13.587.201 17.269.067 2.088.067-20.404.067 10.987.067-5.532.067 5.556.067-4.698.134 3.74.067 15.185.067-17.845.067.192.067 2.455.067-2.298.067 3.615.067-1.812.067-.49.067-5.184.268 24.963.067-22.413.067 10.775.134-15.1.134 15.466.067-11.973.067 13.596.067-6.686.067 8.546.067-15.708.067 4.273.067 5.542.067-4.038.067 4.247.067-13.23.067 13.994.067-1.8.067 1.513.067-11.402.067 26.805.067-26.452.067 3.969.067 3.41.067-4.391.067.688.067 20.793.134-19.017.067 10.166.067-8.598.067 8.804.067-13.271.067 2.084.067 7.222.067-7.37.067 15.699.066-19.363.067 1.264.067 14.52.067-14.106.067.868.067-3.678.268 15.968.067.549.134-15.36.067.23.201 20.504.134-19.298.067 10.262.067-7.66.134 16.585.134-18.197.067.147.201 5.005.134-6.744.134 9.73.067-7.486.067 13.953.067-16.19.067 13.051.067-5.793.067 5.418.067-7.277.067 2.767.067 5.189.067-.62.2-13.664.068 20.811.067-14.018.067 7.725.067-.222.067-5.266.067 4.695.067-26.402.067 13.106.067 16.973.067-11.09.067 6.14.067 21.663.067-19.05.067 10.05.2-19.366.068-.187.067.92.067 17.075.067-16.42.067 2.95.067 2.919.067-4.556.067 6.644.134-12.641.267 22.45.134-25.796.067 24.544.067-10.8.134-7.017.067 1.067.067-1.93.067 16.056.067-7.21.067 4.524.067-15.675.067 4.822.067.314.067 2.921.067 11.45.134-16.321.067 1.414.134 3.397.067-5.258.067 7.696.067-5.614.067 4.672.067-4.79.067 5.215.067-7.184.067.436.067 13.22.067-4.044.134-8.596.134 11.304.067-9.122.067 6.193.067-3.085.134 4.096.067-8.899.067 6.136.067-8.092.067.948.067 7.353.067-7.587.067 5.389.067-4.678.067 3.912.067-1.438.067-1.305.067 6.38.067-12.55.067 10.997.067-6.068.067 5.469.067-3.41.067.173.067 1.288.067-1.33.067 3.186.067-2.135.134 5.452.134-7.99.067 7.946.134-9.318.134 6.693.134-8.466.134 2.584.066 16.44.134-19.37.201 5.487.067 1.765.067-9.514.067 14.566.067-4.65.067-4.66.201 7.162.067-9.592.067 2.277.067 15.176.067-6.474.134-11.53.201 21.461.067-13.631.067.015.067.463.134-4.648.067 17.411.067-15.162.067 12.347.067-6.221.067-5.747.067 3.887.067-9.387.067 4.72.134 10.97.067-.823.2-19.95.068 18.894.067-13.655.067 1.483.067 4.01.067-6.506.067 11.075.067-2.061.134-2.085.067-4.054.067 12.305.134-12.443.067 3.032.067-6.867.067 16.607.067-5.312.067-6.88.067 4.226.067.98.067-1.268.067 5.28.067-12.379.067 13.082.067-4.907.067-.217.067-.746.067 1.983.067-4.895.067 9.296.134-12.241.067.069.133 13.363.067-3.231.067-5.121.067 4.163.067-6.981.067 7.92.067-4.418.067-1.305.067 1.704.067-7.27.134 7.403.067 1.07.067-7.928.067 1.223.067 1.345.067 10.222.067-16.358.067 6.61.067 10.848.067-10.066.067 2.93.067-2.148.067-6.87.067 17.6.067-16.499.067 2.949.134 9.23.067-9.53.067 7.507.067-8.9.067 9.788.134-9.957.067 1.046.067-6.123.134 9.205.067-1.348.067 1.962.067-8.248.067 27.736.067-19.193.067 4.681.134-6.196.067 7.941.067-11.49.067 5.736.067-2.776.2 6.269.068-5.179.134 16.322.335-25.757.2 17.222.068-1.438.067 2.317.134-10.358.067 8.41.067-1.94.067.54.067 6.575.067-16.047.067 7.745.066 8.77.067-16.961.067 2.391.067-.203.067 1.396.067 6.31.067-4.319.067 5.961.067-2.646.134-6.937.067-1.175.067 5.555.067-1.37.067 1.662.067 9.987.067-20.016.067 9.215.067-2.577.134 6.034.067-5.576.067 3.628.067 6.815.067-12.039.067 7.538.067-8.735.134 13.652.134-9.763.067 2.82.067-3.613.067 2.958.134-6.52.067 2.365.201 32.791.067-35.326.067 6.47.067-6.853.134 10.219.067-2.972.067 3.795.2-11.864.202 11.192.067-10.46.067 3.073.134 7.566.067-8.053.134 13.51.067-17.168.067 8.74.067 7.336.067-9.24.067 7.013.134-8.56.067 12.865.067-6.712.134 9.821.134-23.194.067 1.963.067 14.567.067-8.746.133-5.146.067 4.527.067-5.387.134 10.827.067 1.297.134 10.626.134-21.54.067.875.067-3.878.134 5.523.067-3.255.134 14.513.134-16.948.134 10.842.067-8.405.067 31.104.067-15.186.067-1.99.067-9.583.134 8.61.134-11.1.067 15.82.067-9.805.067-6.36.067 11.77.067-9.974.067 1.888.201 15.576.067-5.444.067-9.95.067 36.816.067-23.124.067-9.266.067.782.067-1.7.067 3.71.067-7.452.067.386.268 10.185.067-18.214.067 15.044.067-1.038.067-4.767.067 11.467.067-13.896.067 3.93.067 3.591.067-2.655.067 4.538.2-11.466.068-1.551.067 6.13.067-1.275.067.165.067-1.882.067-5.426.067 17.028.067-9.678.067-6.449.267 20.331.134-17.075.067 10.175.067-4.09.067 1.341.134-6.276.067 2.594.067 1.43.134-4.29.067 11.456.067-9.658.067 2.763.067 1.211.067-8.73.067 10.364.067-7.22.067 5.587.067-4.424.067 7.603.201-9.974.067 12.286.067-6.93.067-5.641.134 12.98.067-1.304.134-5.856.067 1.928.134-5.58.2 16.189.202-17.609.067 3.667.067 19.302.134-22.948.067-3.569.134 9.509.067-9.778.067 6.663.067-4.848.067 10.61.067-9.153.067 11.286.067-12.171.067 6.275.067.86.067 6.928.134-8.835.067 6.437.067-3.154.067 4.6.067-2.136.134-9.558.067 17.07.067-24.79.067 29.585.067-17.165.067.524.066-3.361.067 17.783.134-23.29.067 27.176.067-15.162.067-10.14.067 4.665.067 15.505.067-8.33.067-9.649.067 2.734.067-3.567.201 7.642.067-3.417.067 13.646.067-6.552.067-8.415.067 10.571.134-38.185.067 24.504.067-1.449.134 12.113.201-13.991.067 10.743.067-5.026.067-2.618.067 7.94.134-10.606.067 15.47.067-4.094.067-3.976.067 5.364.2-10.302.068 18.34.067-16.164.067.723.2 11.16.068-11.893.067 10.44.067-5.404.067 1.123.067-3.081.067.138.067 5.084.067-11.005.067 6.07.134-6.107.067 5.844.067-9.934.134 16.192.134-11.835.134 7.41.2 13.15.068-20.43.067 9.39.134-8.345.133 11.94.067-1.033.067-9.18.067 15.14.134-12.917.067 9.908.067-4.626.067-7.362.067 26.356.134-24.534.067-.128.067 5.947.067-9.094.067 5.766.067-4.575.067 4.79.067-5.665.067.36.067 13.867.067-8.116.134-6.302.067 17.448.067-12.725.067 6.744.067-6.609.067 1.042.134 10.3.201-15.13.201 20.88.201-19.062.134 9.56.067-.042.134-13.35.2 22.752.068-16.111.067 4.988.067-5.778.067 3.368.067-4.562.067 1.361.067 9.668.067-11.537.067.763.134 15.512.134-15.2.2 11.379.068-7.815.067 2.673.067 9.337.067-16.15.067 8.249.067-6.473.067 4.897.067-7.448.067 2.553.067 4.638.134-10.428.133 10.586.067-.639.067 4.523.067-11.892.067 4.12.067-4.924.067 3.79.067-7.831.067 14.468.134-15.016.201 42.168.134-39.664.067 9.873.067-4.632.067-3.518.067 1.683.067 1.876.134-4.655.067 15.817.067-5.38.067-8.626.067 3.82.134-4.605.134 31.472.134-29.975.067-6.197.134 12.144.134-12.075.201 21.655.134-13.715.067.215.134 11.866.2-15.664.068 17.873.067-16.108.067 1.69.067-4.146.067 5.875.067-5.21.134 10.878.067-4.604.067 15.795.134-22.61.067 1.8.134 13.785.067-3.32.067-11.587.067 15.902.067-3.34.067-10.103.067 3.478.067-6.287.067 6.325.067-7.628.067.199.2 26.784.067-26.618.067 1.239.067.156.067 9.955.067-10.699.067 9.99.067-11.34.067 6.385.067 6.411.067-4.304.067 12.954.067-8.527.067-1.84.067-10.084.067 14.276.067-12.971.067 7.66.067 8.27.067-5.217.134-11.285.067 2.185.134 4.793.067-9.764.067 3.45.067 20.851.201-22.91.268 10.969.067-11.888.067 7.125.067-1.756.134 13.362.067.592.067-12.59.067 7.93" clip-path="url(#pfcea0380e9)" style="fill:none;stroke:#000;stroke-linecap:square"/><path id="patch_3" d="M32.392 142.2V3.6" style="fill:none;stroke:#000;stroke-width:.5;stroke-linejoin:miter;stroke-linecap:square"/><path id="patch_4" d="M216.532 142.2V3.6" style="fill:none;stroke:#000;stroke-width:.5;stroke-linejoin:miter;stroke-linecap:square"/><path id="patch_5" d="M32.392 142.2h184.14" style="fill:none;stroke:#000;stroke-width:.5;stroke-linejoin:miter;stroke-linecap:square"/><path id="patch_6" d="M32.392 3.6h184.14" style="fill:none;stroke:#000;stroke-width:.5;stroke-linejoin:miter;stroke-linecap:square"/></g></g><defs><clipPath id="pfcea0380e9"><path d="M32.392 3.6h184.14v138.6H32.392z"/></clipPath></defs></svg>