<svg xmlns="http://www.w3.org/2000/svg" xmlns:xlink="http://www.w3.org/1999/xlink" width="290.566" height="223.411" viewBox="0 0 217.924 167.558"><defs><style>*{stroke-linejoin:round;stroke-linecap:butt}</style></defs><g id="figure_1"><path id="patch_1" d="M0 167.558h217.924V0H0z" style="fill:none"/><g id="axes_1"><path id="patch_2" d="M30.184 142.2h184.14V3.6H30.184z" style="fill:none"/><g id="matplotlib.axis_1"><g id="xtick_1"><g id="line2d_1"><defs><path id="m41336d827d" d="M0 0v-3" style="stroke:#000;stroke-width:.5"/></defs><use xlink:href="#m41336d827d" x="55.301" y="142.2" style="stroke:#000;stroke-width:.5"/></g><g id="line2d_2"><defs><path id="m9c29cffbaa" d="M0 0v3" style="stroke:#000;stroke-width:.5"/></defs><use xlink:href="#m9c29cffbaa" x="55.301" y="3.6" style="stroke:#000;stroke-width:.5"/></g><g id="text_1" transform="matrix(.08 0 0 -.08 47.116 151.104)"><defs><path id="CMSY10-0" d="M4218 1472c108 0 224 0 224 128s-116 128-224 128H755c-109 0-224 0-224-128s115-128 224-128z" transform="scale(.01563)"/><path id="NimbusRomNo9L-Regu-30" d="M1626 4352c-352 0-621-108-858-332-371-359-614-1095-614-1844 0-697 211-1446 512-1804C902 90 1229-64 1600-64c326 0 602 109 832 333 371 352 614 1095 614 1869 0 1312-582 2214-1420 2214m-20-166c538 0 826-723 826-2061 0-1337-282-2022-832-2022S768 788 768 2119c0 1357 288 2067 838 2067" transform="scale(.01563)"/><path id="CMMI10-3a" d="M1229 338c0 184-154 337-339 337-186 0-340-153-340-337C550 153 704 0 890 0c185 0 339 153 339 338" transform="scale(.01563)"/><path id="NimbusRomNo9L-Regu-32" d="m3040 875-83 32c-237-363-320-421-608-421H819l1075 1123c570 593 820 1078 820 1576 0 638-519 1128-1184 1128-352 0-685-140-922-395-205-218-301-422-410-875l135-32c256 625 486 829 928 829 537 0 902-364 902-900 0-497-294-1090-832-1658L192 77V0h2496z" transform="scale(.01563)"/></defs><use xlink:href="#CMSY10-0" transform="scale(.99626)"/><use xlink:href="#NimbusRomNo9L-Regu-30" transform="matrix(.99626 0 0 .99626 77.409 0)"/><use xlink:href="#CMMI10-3a" transform="matrix(.99626 0 0 .99626 127.222 0)"/><use xlink:href="#NimbusRomNo9L-Regu-32" transform="matrix(.99626 0 0 .99626 154.817 0)"/></g></g><g id="xtick_2"><use xlink:href="#m41336d827d" id="line2d_3" x="88.794" y="142.2" style="stroke:#000;stroke-width:.5"/><use xlink:href="#m9c29cffbaa" id="line2d_4" x="88.794" y="3.6" style="stroke:#000;stroke-width:.5"/><g id="text_2" transform="matrix(.08 0 0 -.08 80.61 151.104)"><defs><path id="NimbusRomNo9L-Regu-31" d="M1862 4339 710 3757v-90c77 32 148 58 173 71 115 45 224 70 288 70 135 0 192-97 192-303V592c0-213-51-360-153-419-96-57-186-77-455-77V0h1767v96c-506 0-608 64-608 374v3857z" transform="scale(.01563)"/></defs><use xlink:href="#CMSY10-0" transform="scale(.99626)"/><use xlink:href="#NimbusRomNo9L-Regu-30" transform="matrix(.99626 0 0 .99626 77.409 0)"/><use xlink:href="#CMMI10-3a" transform="matrix(.99626 0 0 .99626 127.222 0)"/><use xlink:href="#NimbusRomNo9L-Regu-31" transform="matrix(.99626 0 0 .99626 154.817 0)"/></g></g><g id="xtick_3"><use xlink:href="#m41336d827d" id="line2d_5" x="122.288" y="142.2" style="stroke:#000;stroke-width:.5"/><use xlink:href="#m9c29cffbaa" id="line2d_6" x="122.288" y="3.6" style="stroke:#000;stroke-width:.5"/><g id="text_3" transform="matrix(.08 0 0 -.08 117.199 151.104)"><use xlink:href="#NimbusRomNo9L-Regu-30" transform="scale(.99626)"/><use xlink:href="#CMMI10-3a" transform="matrix(.99626 0 0 .99626 49.813 0)"/><use xlink:href="#NimbusRomNo9L-Regu-30" transform="matrix(.99626 0 0 .99626 77.409 0)"/></g></g><g id="xtick_4"><use xlink:href="#m41336d827d" id="line2d_7" x="155.781" y="142.2" style="stroke:#000;stroke-width:.5"/><use xlink:href="#m9c29cffbaa" id="line2d_8" x="155.781" y="3.6" style="stroke:#000;stroke-width:.5"/><g id="text_4" transform="matrix(.08 0 0 -.08 150.692 151.104)"><use xlink:href="#NimbusRomNo9L-Regu-30" transform="scale(.99626)"/><use xlink:href="#CMMI10-3a" transform="matrix(.99626 0 0 .99626 49.813 0)"/><use xlink:href="#NimbusRomNo9L-Regu-31" transform="matrix(.99626 0 0 .99626 77.409 0)"/></g></g><g id="xtick_5"><use xlink:href="#m41336d827d" id="line2d_9" x="189.275" y="142.2" style="stroke:#000;stroke-width:.5"/><use xlink:href="#m9c29cffbaa" id="line2d_10" x="189.275" y="3.6" style="stroke:#000;stroke-width:.5"/><g id="text_5" transform="matrix(.08 0 0 -.08 184.186 151.104)"><use xlink:href="#NimbusRomNo9L-Regu-30" transform="scale(.99626)"/><use xlink:href="#CMMI10-3a" transform="matrix(.99626 0 0 .99626 49.813 0)"/><use xlink:href="#NimbusRomNo9L-Regu-32" transform="matrix(.99626 0 0 .99626 77.409 0)"/></g></g><g id="xtick_6"><g id="line2d_11"><defs><path id="m0d58b24e34" d="M0 0v-1.5" style="stroke:#000;stroke-width:.5"/></defs><use xlink:href="#m0d58b24e34" x="35.205" y="142.2" style="stroke:#000;stroke-width:.5"/></g><g id="line2d_12"><defs><path id="me82ca73adb" d="M0 0v1.5" style="stroke:#000;stroke-width:.5"/></defs><use xlink:href="#me82ca73adb" x="35.205" y="3.6" style="stroke:#000;stroke-width:.5"/></g></g><g id="xtick_7"><use xlink:href="#m0d58b24e34" id="line2d_13" x="41.904" y="142.2" style="stroke:#000;stroke-width:.5"/><use xlink:href="#me82ca73adb" id="line2d_14" x="41.904" y="3.6" style="stroke:#000;stroke-width:.5"/></g><g id="xtick_8"><use xlink:href="#m0d58b24e34" id="line2d_15" x="48.602" y="142.2" style="stroke:#000;stroke-width:.5"/><use xlink:href="#me82ca73adb" id="line2d_16" x="48.602" y="3.6" style="stroke:#000;stroke-width:.5"/></g><g id="xtick_9"><use xlink:href="#m0d58b24e34" id="line2d_17" x="62" y="142.2" style="stroke:#000;stroke-width:.5"/><use xlink:href="#me82ca73adb" id="line2d_18" x="62" y="3.6" style="stroke:#000;stroke-width:.5"/></g><g id="xtick_10"><use xlink:href="#m0d58b24e34" id="line2d_19" x="68.698" y="142.2" style="stroke:#000;stroke-width:.5"/><use xlink:href="#me82ca73adb" id="line2d_20" x="68.698" y="3.6" style="stroke:#000;stroke-width:.5"/></g><g id="xtick_11"><use xlink:href="#m0d58b24e34" id="line2d_21" x="75.397" y="142.2" style="stroke:#000;stroke-width:.5"/><use xlink:href="#me82ca73adb" id="line2d_22" x="75.397" y="3.6" style="stroke:#000;stroke-width:.5"/></g><g id="xtick_12"><use xlink:href="#m0d58b24e34" id="line2d_23" x="82.096" y="142.2" style="stroke:#000;stroke-width:.5"/><use xlink:href="#me82ca73adb" id="line2d_24" x="82.096" y="3.6" style="stroke:#000;stroke-width:.5"/></g><g id="xtick_13"><use xlink:href="#m0d58b24e34" id="line2d_25" x="95.493" y="142.2" style="stroke:#000;stroke-width:.5"/><use xlink:href="#me82ca73adb" id="line2d_26" x="95.493" y="3.6" style="stroke:#000;stroke-width:.5"/></g><g id="xtick_14"><use xlink:href="#m0d58b24e34" id="line2d_27" x="102.192" y="142.2" style="stroke:#000;stroke-width:.5"/><use xlink:href="#me82ca73adb" id="line2d_28" x="102.192" y="3.6" style="stroke:#000;stroke-width:.5"/></g><g id="xtick_15"><use xlink:href="#m0d58b24e34" id="line2d_29" x="108.89" y="142.2" style="stroke:#000;stroke-width:.5"/><use xlink:href="#me82ca73adb" id="line2d_30" x="108.89" y="3.6" style="stroke:#000;stroke-width:.5"/></g><g id="xtick_16"><use xlink:href="#m0d58b24e34" id="line2d_31" x="115.589" y="142.2" style="stroke:#000;stroke-width:.5"/><use xlink:href="#me82ca73adb" id="line2d_32" x="115.589" y="3.6" style="stroke:#000;stroke-width:.5"/></g><g id="xtick_17"><use xlink:href="#m0d58b24e34" id="line2d_33" x="128.986" y="142.2" style="stroke:#000;stroke-width:.5"/><use xlink:href="#me82ca73adb" id="line2d_34" x="128.986" y="3.6" style="stroke:#000;stroke-width:.5"/></g><g id="xtick_18"><use xlink:href="#m0d58b24e34" id="line2d_35" x="135.685" y="142.2" style="stroke:#000;stroke-width:.5"/><use xlink:href="#me82ca73adb" id="line2d_36" x="135.685" y="3.6" style="stroke:#000;stroke-width:.5"/></g><g id="xtick_19"><use xlink:href="#m0d58b24e34" id="line2d_37" x="142.384" y="142.2" style="stroke:#000;stroke-width:.5"/><use xlink:href="#me82ca73adb" id="line2d_38" x="142.384" y="3.6" style="stroke:#000;stroke-width:.5"/></g><g id="xtick_20"><use xlink:href="#m0d58b24e34" id="line2d_39" x="149.082" y="142.2" style="stroke:#000;stroke-width:.5"/><use xlink:href="#me82ca73adb" id="line2d_40" x="149.082" y="3.6" style="stroke:#000;stroke-width:.5"/></g><g id="xtick_21"><use xlink:href="#m0d58b24e34" id="line2d_41" x="162.48" y="142.2" style="stroke:#000;stroke-width:.5"/><use xlink:href="#me82ca73adb" id="line2d_42" x="162.48" y="3.6" style="stroke:#000;stroke-width:.5"/></g><g id="xtick_22"><use xlink:href="#m0d58b24e34" id="line2d_43" x="169.179" y="142.2" style="stroke:#000;stroke-width:.5"/><use xlink:href="#me82ca73adb" id="line2d_44" x="169.179" y="3.6" style="stroke:#000;stroke-width:.5"/></g><g id="xtick_23"><use xlink:href="#m0d58b24e34" id="line2d_45" x="175.877" y="142.2" style="stroke:#000;stroke-width:.5"/><use xlink:href="#me82ca73adb" id="line2d_46" x="175.877" y="3.6" style="stroke:#000;stroke-width:.5"/></g><g id="xtick_24"><use xlink:href="#m0d58b24e34" id="line2d_47" x="182.576" y="142.2" style="stroke:#000;stroke-width:.5"/><use xlink:href="#me82ca73adb" id="line2d_48" x="182.576" y="3.6" style="stroke:#000;stroke-width:.5"/></g><g id="xtick_25"><use xlink:href="#m0d58b24e34" id="line2d_49" x="195.973" y="142.2" style="stroke:#000;stroke-width:.5"/><use xlink:href="#me82ca73adb" id="line2d_50" x="195.973" y="3.6" style="stroke:#000;stroke-width:.5"/></g><g id="xtick_26"><use xlink:href="#m0d58b24e34" id="line2d_51" x="202.672" y="142.2" style="stroke:#000;stroke-width:.5"/><use xlink:href="#me82ca73adb" id="line2d_52" x="202.672" y="3.6" style="stroke:#000;stroke-width:.5"/></g><g id="xtick_27"><use xlink:href="#m0d58b24e34" id="line2d_53" x="209.371" y="142.2" style="stroke:#000;stroke-width:.5"/><use xlink:href="#me82ca73adb" id="line2d_54" x="209.371" y="3.6" style="stroke:#000;stroke-width:.5"/></g><g id="text_6" transform="matrix(.08 0 0 -.08 109.753 162.233)"><defs><path id="NimbusRomNo9L-Regu-66" d="M1978 2880h-788v731c0 367 122 562 365 562 135 0 224-63 339-246 103-164 180-227 288-227 148 0 269 114 269 259 0 229-281 393-665 393-397 0-736-171-903-461-166-278-217-506-224-1011H134v-205h525V656c0-471-70-547-531-547V0h1664v109c-525 0-595 71-595 552v2014h781z" transform="scale(.01563)"/><path id="NimbusRomNo9L-Regu-28" d="M1888 4326c-474-307-666-473-902-768-455-556-679-1196-679-1945 0-813 237-1440 800-2093 263-307 429-448 762-653l77 103c-512 403-692 627-864 1107-154 429-224 915-224 1555 0 672 83 1197 256 1594 179 396 371 627 832 998z" transform="scale(.01563)"/><path id="NimbusRomNo9L-Regu-47" d="M4538 2304H2906v-128c275 0 352-19 428-71 96-58 135-207 135-484V574c0-207-391-382-851-382-1044 0-1684 730-1684 1920 0 602 180 1184 461 1498 282 314 679 486 1114 486 358 0 672-121 921-352 192-179 295-352 455-742h147l-51 1350h-141c-38-121-154-211-288-211-64 0-166 19-282 64-288 96-582 147-870 147-1280 0-2195-940-2195-2246 0-627 173-1107 531-1485C1165 180 1779-64 2483-64c551 0 1351 224 1607 449v1309c0 379 76 463 448 495z" transform="scale(.01563)"/><path id="NimbusRomNo9L-Regu-48" d="M1338 2304v1229c0 457 70 526 563 571v120H122v-120c492-45 563-115 563-577V749c0-539-64-615-563-615V0h1779v121c-480 38-563 121-563 578v1323h1939V757c0-546-64-623-563-623V0h1779v121c-480 38-563 121-563 575v2833c0 460 70 530 563 575v120H2714v-120c492-45 563-114 563-571V2304z" transform="scale(.01563)"/><path id="NimbusRomNo9L-Regu-7a" d="m2675 864-115 26c-64-320-102-423-186-532-89-108-307-166-633-166H858l1721 2592v96H358l-19-755h115c58 467 154 563 538 563h883L173 96V0h2413z" transform="scale(.01563)"/><path id="NimbusRomNo9L-Regu-29" d="M243-1133c474 307 666 474 903 768 454 557 678 1197 678 1946 0 819-237 1440-800 2093-262 307-429 448-762 652l-76-102c512-403 684-627 864-1107 153-429 224-915 224-1555 0-666-84-1197-256-1588-180-403-372-633-832-1004z" transform="scale(.01563)"/></defs><use xlink:href="#NimbusRomNo9L-Regu-66" transform="scale(.99626)"/><use xlink:href="#NimbusRomNo9L-Regu-28" transform="matrix(.99626 0 0 .99626 58.082 0)"/><use xlink:href="#NimbusRomNo9L-Regu-47" transform="matrix(.99626 0 0 .99626 91.257 0)"/><use xlink:href="#NimbusRomNo9L-Regu-48" transform="matrix(.99626 0 0 .99626 163.187 0)"/><use xlink:href="#NimbusRomNo9L-Regu-7a" transform="matrix(.99626 0 0 .99626 235.117 0)"/><use xlink:href="#NimbusRomNo9L-Regu-29" transform="matrix(.99626 0 0 .99626 279.35 0)"/></g></g><g id="matplotlib.axis_2"><g id="ytick_1"><g id="line2d_55"><defs><path id="me3ad46f6e1" d="M0 0h3" style="stroke:#000;stroke-width:.5"/></defs><use xlink:href="#me3ad46f6e1" x="30.184" y="142.119" style="stroke:#000;stroke-width:.5"/></g><g id="line2d_56"><defs><path id="m3163591af7" d="M0 0h-3" style="stroke:#000;stroke-width:.5"/></defs><use xlink:href="#m3163591af7" x="214.324" y="142.119" style="stroke:#000;stroke-width:.5"/></g><g id="text_7" transform="matrix(.08 0 0 -.08 18.714 144.82)"><defs><path id="NimbusRomNo9L-Regu-35" d="M1158 3776h1255c102 0 128 13 147 58l243 569-57 45c-96-134-160-166-295-166H1114L416 2759c-6-13-6-19-6-32 0-32 25-51 76-51 205 0 461-45 724-129 736-238 1075-637 1075-1273 0-618-391-1101-890-1101-128 0-237 45-429 187-204 148-352 212-486 212-186 0-275-77-275-238C205 90 506-64 986-64c537 0 998 174 1318 502 294 290 429 656 429 1145 0 463-122 759-442 1080-281 284-646 431-1401 566z" transform="scale(.01563)"/></defs><use xlink:href="#NimbusRomNo9L-Regu-32" transform="scale(.99626)"/><use xlink:href="#NimbusRomNo9L-Regu-35" transform="matrix(.99626 0 0 .99626 49.813 0)"/></g></g><g id="ytick_2"><use xlink:href="#me3ad46f6e1" id="line2d_57" x="30.184" y="121.3" style="stroke:#000;stroke-width:.5"/><use xlink:href="#m3163591af7" id="line2d_58" x="214.324" y="121.3" style="stroke:#000;stroke-width:.5"/><g id="text_8" transform="matrix(.08 0 0 -.08 18.714 124.001)"><use xlink:href="#NimbusRomNo9L-Regu-35" transform="scale(.99626)"/><use xlink:href="#NimbusRomNo9L-Regu-30" transform="matrix(.99626 0 0 .99626 49.813 0)"/></g></g><g id="ytick_3"><use xlink:href="#me3ad46f6e1" id="line2d_59" x="30.184" y="100.48" style="stroke:#000;stroke-width:.5"/><use xlink:href="#m3163591af7" id="line2d_60" x="214.324" y="100.48" style="stroke:#000;stroke-width:.5"/><g id="text_9" transform="matrix(.08 0 0 -.08 18.714 103.182)"><defs><path id="NimbusRomNo9L-Regu-37" d="M2874 4250H506l-378-940 109-52c275 435 390 518 742 518h1389L1101-32h416l1357 4180z" transform="scale(.01563)"/></defs><use xlink:href="#NimbusRomNo9L-Regu-37" transform="scale(.99626)"/><use xlink:href="#NimbusRomNo9L-Regu-35" transform="matrix(.99626 0 0 .99626 49.813 0)"/></g></g><g id="ytick_4"><use xlink:href="#me3ad46f6e1" id="line2d_61" x="30.184" y="79.661" style="stroke:#000;stroke-width:.5"/><use xlink:href="#m3163591af7" id="line2d_62" x="214.324" y="79.661" style="stroke:#000;stroke-width:.5"/><g id="text_10" transform="matrix(.08 0 0 -.08 14.73 82.362)"><use xlink:href="#NimbusRomNo9L-Regu-31" transform="scale(.99626)"/><use xlink:href="#NimbusRomNo9L-Regu-30" transform="matrix(.99626 0 0 .99626 49.813 0)"/><use xlink:href="#NimbusRomNo9L-Regu-30" transform="matrix(.99626 0 0 .99626 99.626 0)"/></g></g><g id="ytick_5"><use xlink:href="#me3ad46f6e1" id="line2d_63" x="30.184" y="58.841" style="stroke:#000;stroke-width:.5"/><use xlink:href="#m3163591af7" id="line2d_64" x="214.324" y="58.841" style="stroke:#000;stroke-width:.5"/><g id="text_11" transform="matrix(.08 0 0 -.08 14.73 61.543)"><use xlink:href="#NimbusRomNo9L-Regu-31" transform="scale(.99626)"/><use xlink:href="#NimbusRomNo9L-Regu-32" transform="matrix(.99626 0 0 .99626 49.813 0)"/><use xlink:href="#NimbusRomNo9L-Regu-35" transform="matrix(.99626 0 0 .99626 99.626 0)"/></g></g><g id="ytick_6"><use xlink:href="#me3ad46f6e1" id="line2d_65" x="30.184" y="38.022" style="stroke:#000;stroke-width:.5"/><use xlink:href="#m3163591af7" id="line2d_66" x="214.324" y="38.022" style="stroke:#000;stroke-width:.5"/><g id="text_12" transform="matrix(.08 0 0 -.08 14.73 40.723)"><use xlink:href="#NimbusRomNo9L-Regu-31" transform="scale(.99626)"/><use xlink:href="#NimbusRomNo9L-Regu-35" transform="matrix(.99626 0 0 .99626 49.813 0)"/><use xlink:href="#NimbusRomNo9L-Regu-30" transform="matrix(.99626 0 0 .99626 99.626 0)"/></g></g><g id="ytick_7"><use xlink:href="#me3ad46f6e1" id="line2d_67" x="30.184" y="17.202" style="stroke:#000;stroke-width:.5"/><use xlink:href="#m3163591af7" id="line2d_68" x="214.324" y="17.202" style="stroke:#000;stroke-width:.5"/><g id="text_13" transform="matrix(.08 0 0 -.08 14.73 19.904)"><use xlink:href="#NimbusRomNo9L-Regu-31" transform="scale(.99626)"/><use xlink:href="#NimbusRomNo9L-Regu-37" transform="matrix(.99626 0 0 .99626 49.813 0)"/><use xlink:href="#NimbusRomNo9L-Regu-35" transform="matrix(.99626 0 0 .99626 99.626 0)"/></g></g><g id="ytick_8"><g id="line2d_69"><defs><path id="m6040a0be1d" d="M0 0h1.5" style="stroke:#000;stroke-width:.5"/></defs><use xlink:href="#m6040a0be1d" x="30.184" y="137.955" style="stroke:#000;stroke-width:.5"/></g><g id="line2d_70"><defs><path id="md1f5fb967a" d="M0 0h-1.5" style="stroke:#000;stroke-width:.5"/></defs><use xlink:href="#md1f5fb967a" x="214.324" y="137.955" style="stroke:#000;stroke-width:.5"/></g></g><g id="ytick_9"><use xlink:href="#m6040a0be1d" id="line2d_71" x="30.184" y="133.791" style="stroke:#000;stroke-width:.5"/><use xlink:href="#md1f5fb967a" id="line2d_72" x="214.324" y="133.791" style="stroke:#000;stroke-width:.5"/></g><g id="ytick_10"><use xlink:href="#m6040a0be1d" id="line2d_73" x="30.184" y="129.627" style="stroke:#000;stroke-width:.5"/><use xlink:href="#md1f5fb967a" id="line2d_74" x="214.324" y="129.627" style="stroke:#000;stroke-width:.5"/></g><g id="ytick_11"><use xlink:href="#m6040a0be1d" id="line2d_75" x="30.184" y="125.463" style="stroke:#000;stroke-width:.5"/><use xlink:href="#md1f5fb967a" id="line2d_76" x="214.324" y="125.463" style="stroke:#000;stroke-width:.5"/></g><g id="ytick_12"><use xlink:href="#m6040a0be1d" id="line2d_77" x="30.184" y="117.136" style="stroke:#000;stroke-width:.5"/><use xlink:href="#md1f5fb967a" id="line2d_78" x="214.324" y="117.136" style="stroke:#000;stroke-width:.5"/></g><g id="ytick_13"><use xlink:href="#m6040a0be1d" id="line2d_79" x="30.184" y="112.972" style="stroke:#000;stroke-width:.5"/><use xlink:href="#md1f5fb967a" id="line2d_80" x="214.324" y="112.972" style="stroke:#000;stroke-width:.5"/></g><g id="ytick_14"><use xlink:href="#m6040a0be1d" id="line2d_81" x="30.184" y="108.808" style="stroke:#000;stroke-width:.5"/><use xlink:href="#md1f5fb967a" id="line2d_82" x="214.324" y="108.808" style="stroke:#000;stroke-width:.5"/></g><g id="ytick_15"><use xlink:href="#m6040a0be1d" id="line2d_83" x="30.184" y="104.644" style="stroke:#000;stroke-width:.5"/><use xlink:href="#md1f5fb967a" id="line2d_84" x="214.324" y="104.644" style="stroke:#000;stroke-width:.5"/></g><g id="ytick_16"><use xlink:href="#m6040a0be1d" id="line2d_85" x="30.184" y="96.316" style="stroke:#000;stroke-width:.5"/><use xlink:href="#md1f5fb967a" id="line2d_86" x="214.324" y="96.316" style="stroke:#000;stroke-width:.5"/></g><g id="ytick_17"><use xlink:href="#m6040a0be1d" id="line2d_87" x="30.184" y="92.152" style="stroke:#000;stroke-width:.5"/><use xlink:href="#md1f5fb967a" id="line2d_88" x="214.324" y="92.152" style="stroke:#000;stroke-width:.5"/></g><g id="ytick_18"><use xlink:href="#m6040a0be1d" id="line2d_89" x="30.184" y="87.988" style="stroke:#000;stroke-width:.5"/><use xlink:href="#md1f5fb967a" id="line2d_90" x="214.324" y="87.988" style="stroke:#000;stroke-width:.5"/></g><g id="ytick_19"><use xlink:href="#m6040a0be1d" id="line2d_91" x="30.184" y="83.824" style="stroke:#000;stroke-width:.5"/><use xlink:href="#md1f5fb967a" id="line2d_92" x="214.324" y="83.824" style="stroke:#000;stroke-width:.5"/></g><g id="ytick_20"><use xlink:href="#m6040a0be1d" id="line2d_93" x="30.184" y="75.497" style="stroke:#000;stroke-width:.5"/><use xlink:href="#md1f5fb967a" id="line2d_94" x="214.324" y="75.497" style="stroke:#000;stroke-width:.5"/></g><g id="ytick_21"><use xlink:href="#m6040a0be1d" id="line2d_95" x="30.184" y="71.333" style="stroke:#000;stroke-width:.5"/><use xlink:href="#md1f5fb967a" id="line2d_96" x="214.324" y="71.333" style="stroke:#000;stroke-width:.5"/></g><g id="ytick_22"><use xlink:href="#m6040a0be1d" id="line2d_97" x="30.184" y="67.169" style="stroke:#000;stroke-width:.5"/><use xlink:href="#md1f5fb967a" id="line2d_98" x="214.324" y="67.169" style="stroke:#000;stroke-width:.5"/></g><g id="ytick_23"><use xlink:href="#m6040a0be1d" id="line2d_99" x="30.184" y="63.005" style="stroke:#000;stroke-width:.5"/><use xlink:href="#md1f5fb967a" id="line2d_100" x="214.324" y="63.005" style="stroke:#000;stroke-width:.5"/></g><g id="ytick_24"><use xlink:href="#m6040a0be1d" id="line2d_101" x="30.184" y="54.677" style="stroke:#000;stroke-width:.5"/><use xlink:href="#md1f5fb967a" id="line2d_102" x="214.324" y="54.677" style="stroke:#000;stroke-width:.5"/></g><g id="ytick_25"><use xlink:href="#m6040a0be1d" id="line2d_103" x="30.184" y="50.513" style="stroke:#000;stroke-width:.5"/><use xlink:href="#md1f5fb967a" id="line2d_104" x="214.324" y="50.513" style="stroke:#000;stroke-width:.5"/></g><g id="ytick_26"><use xlink:href="#m6040a0be1d" id="line2d_105" x="30.184" y="46.349" style="stroke:#000;stroke-width:.5"/><use xlink:href="#md1f5fb967a" id="line2d_106" x="214.324" y="46.349" style="stroke:#000;stroke-width:.5"/></g><g id="ytick_27"><use xlink:href="#m6040a0be1d" id="line2d_107" x="30.184" y="42.185" style="stroke:#000;stroke-width:.5"/><use xlink:href="#md1f5fb967a" id="line2d_108" x="214.324" y="42.185" style="stroke:#000;stroke-width:.5"/></g><g id="ytick_28"><use xlink:href="#m6040a0be1d" id="line2d_109" x="30.184" y="33.858" style="stroke:#000;stroke-width:.5"/><use xlink:href="#md1f5fb967a" id="line2d_110" x="214.324" y="33.858" style="stroke:#000;stroke-width:.5"/></g><g id="ytick_29"><use xlink:href="#m6040a0be1d" id="line2d_111" x="30.184" y="29.694" style="stroke:#000;stroke-width:.5"/><use xlink:href="#md1f5fb967a" id="line2d_112" x="214.324" y="29.694" style="stroke:#000;stroke-width:.5"/></g><g id="ytick_30"><use xlink:href="#m6040a0be1d" id="line2d_113" x="30.184" y="25.53" style="stroke:#000;stroke-width:.5"/><use xlink:href="#md1f5fb967a" id="line2d_114" x="214.324" y="25.53" style="stroke:#000;stroke-width:.5"/></g><g id="ytick_31"><use xlink:href="#m6040a0be1d" id="line2d_115" x="30.184" y="21.366" style="stroke:#000;stroke-width:.5"/><use xlink:href="#md1f5fb967a" id="line2d_116" x="214.324" y="21.366" style="stroke:#000;stroke-width:.5"/></g><g id="ytick_32"><use xlink:href="#m6040a0be1d" id="line2d_117" x="30.184" y="13.038" style="stroke:#000;stroke-width:.5"/><use xlink:href="#md1f5fb967a" id="line2d_118" x="214.324" y="13.038" style="stroke:#000;stroke-width:.5"/></g><g id="ytick_33"><use xlink:href="#m6040a0be1d" id="line2d_119" x="30.184" y="8.874" style="stroke:#000;stroke-width:.5"/><use xlink:href="#md1f5fb967a" id="line2d_120" x="214.324" y="8.874" style="stroke:#000;stroke-width:.5"/></g><g id="ytick_34"><use xlink:href="#m6040a0be1d" id="line2d_121" x="30.184" y="4.71" style="stroke:#000;stroke-width:.5"/><use xlink:href="#md1f5fb967a" id="line2d_122" x="214.324" y="4.71" style="stroke:#000;stroke-width:.5"/></g><g id="text_14" transform="matrix(0 -.08 -.08 0 9.004 98.468)"><defs><path id="NimbusRomNo9L-Regu-4d" d="M4314 3667V751c0-534-77-617-583-617V0h1792v134c-467 0-557 89-557 547v2855c0 457 84 541 557 579v122H4250L2835 1004 1357 4237H90v-141c524 0 608-77 608-546V943c0-661-90-784-621-822V0h1504v134c-493 0-602 148-602 797v2589L2586 0h89z" transform="scale(.01563)"/><path id="NimbusRomNo9L-Regu-61" d="M2829 423c-109-90-186-122-282-122-147 0-192 89-192 371v1248c0 333-32 518-128 672-141 230-416 352-793 352-602 0-1076-314-1076-717 0-147 128-275 276-275 153 0 288 128 288 269 0 25-7 57-13 102-13 58-19 109-19 154 0 173 204 313 460 313 314 0 487-185 487-531v-390c-986-397-1095-448-1370-691-141-128-230-346-230-557 0-403 281-685 672-685 281 0 544 134 934 467 32-333 147-467 410-467 217 0 352 77 576 320zm-992 360c0-199-32-257-167-334-153-90-332-148-467-148-224 0-403 219-403 495v26c0 379 262 611 1037 893z" transform="scale(.01563)"/><path id="NimbusRomNo9L-Regu-67" d="M3008 2496v250h-493c-128 0-224 17-352 56l-141 45c-172 56-345 84-512 84-595 0-1068-464-1068-1050 0-405 172-651 595-863-122-112-237-219-275-250-212-180-295-305-295-430 0-132 77-207 339-332-454-335-627-549-627-787 0-343 499-627 1107-627 480 0 980 170 1312 446 244 203 352 414 352 663 0 407-300 683-774 683h-826c-339 0-499 59-499 164 0 130 211 360 384 412 58-7 103-13 122-13 121-13 205-19 243-19 237 0 493 98 691 275 211 184 307 414 307 742 0 190-32 341-121 551zM941-13c211-45 723-83 1037-83 582 0 793-84 793-318 0-377-486-629-1209-629-564 0-935 188-935 473 0 150 45 234 314 557m32 2158c0 381 179 607 473 607 199 0 365-110 468-303 115-226 192-522 192-774 0-361-186-587-480-587-384 0-653 419-653 1038z" transform="scale(.01563)"/><path id="NimbusRomNo9L-Regu-6e" d="M102 2579c39 19 103 26 173 26 179 0 237-96 237-410V608c0-365-70-454-397-480V32h1357v96c-326 26-422 102-422 333v1798c307 288 448 365 659 365 313 0 467-198 467-621V666c0-404-83-512-403-538V32h1331v96c-314 32-390 109-390 422v1466c0 602-282 960-756 960-294 0-492-109-928-518v505l-44 13c-314-115-532-186-884-288z" transform="scale(.01563)"/><path id="NimbusRomNo9L-Regu-69" d="m1120 2929-992-350v-95l51 6c77 12 160 19 218 19 153 0 211-103 211-384V640c0-461-64-531-506-531V0h1517v96c-422 32-473 95-473 554v2260zM819 4352c-173 0-320-147-320-326s141-327 320-327c186 0 333 141 333 327 0 179-147 326-333 326" transform="scale(.01563)"/><path id="NimbusRomNo9L-Regu-74" d="M1632 2880H986v742c0 64-7 84-45 84-45-58-83-116-128-180-243-352-519-659-621-685-70-47-109-93-109-126 0-20 7-33 26-33h339V751c0-539 192-815 570-815 313 0 556 154 768 487l-84 70c-134-160-243-224-384-224-236 0-332 174-332 578v1835h646z" transform="scale(.01563)"/><path id="NimbusRomNo9L-Regu-75" d="M3066 320h-32c-295 0-365 70-365 365v2195H1658v-122c396 0 473-64 473-383V875c0-178-32-268-121-338-173-140-372-217-564-217-249 0-454 217-454 485v2075H58v-102c307 0 396-96 396-391V770c0-507 308-834 775-834 237 0 486 102 659 275l275 275V-45l26-13c320 128 550 199 877 288z" transform="scale(.01563)"/><path id="NimbusRomNo9L-Regu-64" d="m2202-64 940 333v96h-147c-230 0-281 70-281 366v3633l-32 13c-308-109-532-173-941-281v-102c51 6 89 6 141 6 236 0 294-64 294-328V2669c-243 205-416 275-672 275-736 0-1331-723-1331-1632C173 493 653-64 1357-64c358 0 601 128 819 429V-45zm-26 717c0-45-45-122-109-192-115-128-275-192-461-192-531 0-883 512-883 1299 0 723 314 1197 800 1197 339 0 653-301 653-640z" transform="scale(.01563)"/><path id="NimbusRomNo9L-Regu-65" d="M2611 1053c-307-489-582-675-992-675-365 0-640 186-825 552-116 244-160 456-173 849h1971c-51 414-115 598-275 802-192 230-487 363-819 363-320 0-621-115-864-333-301-262-474-717-474-1241C160 486 621-64 1357-64c608 0 1088 379 1357 1072zM634 1984c70 495 288 730 678 730s544-179 627-730z" transform="scale(.01563)"/><path id="NimbusRomNo9L-Regu-42" d="M109 4237v-141c537 0 614-70 614-548V689c0-477-83-561-614-561V0h2137c500 0 954 136 1191 356 230 208 358 499 358 809 0 286-115 545-313 732-192 175-365 253-781 356 333 82 467 145 621 278 160 140 256 372 256 632 0 708-570 1074-1677 1074zm1267-2125c621 0 915-32 1146-130 364-155 537-414 537-823 0-350-134-604-390-753-205-116-467-168-890-168-313 0-403 58-403 266zm0 256v1444c0 132 45 189 141 189h281c736 0 1127-302 1127-864 0-491-339-769-941-769z" transform="scale(.01563)"/></defs><use xlink:href="#NimbusRomNo9L-Regu-4d" transform="scale(.99626)"/><use xlink:href="#NimbusRomNo9L-Regu-61" transform="matrix(.99626 0 0 .99626 88.567 0)"/><use xlink:href="#NimbusRomNo9L-Regu-67" transform="matrix(.99626 0 0 .99626 132.8 0)"/><use xlink:href="#NimbusRomNo9L-Regu-6e" transform="matrix(.99626 0 0 .99626 182.614 0)"/><use xlink:href="#NimbusRomNo9L-Regu-69" transform="matrix(.99626 0 0 .99626 232.427 0)"/><use xlink:href="#NimbusRomNo9L-Regu-74" transform="matrix(.99626 0 0 .99626 260.122 0)"/><use xlink:href="#NimbusRomNo9L-Regu-75" transform="matrix(.99626 0 0 .99626 287.817 0)"/><use xlink:href="#NimbusRomNo9L-Regu-64" transform="matrix(.99626 0 0 .99626 337.63 0)"/><use xlink:href="#NimbusRomNo9L-Regu-65" transform="matrix(.99626 0 0 .99626 387.444 0)"/><use xlink:href="#NimbusRomNo9L-Regu-28" transform="matrix(.99626 0 0 .99626 456.584 0)"/><use xlink:href="#NimbusRomNo9L-Regu-64" transform="matrix(.99626 0 0 .99626 489.759 0)"/><use xlink:href="#NimbusRomNo9L-Regu-42" transform="matrix(.99626 0 0 .99626 539.572 0)"/><use xlink:href="#NimbusRomNo9L-Regu-29" transform="matrix(.99626 0 0 .99626 606.022 0)"/></g></g><path id="line2d_123" d="m38.554 135.729 1.541-.021.2.104.068.025.067-.161.067.045.067.045.2-.1.202.154.268-.202.2.061.336.036.067.185.134-.282.134.14.268-.113.134.004.2.044.067-.062.067.094.067-.055.268.015.737-.038.804-.027.134-.008.67-.037.067.134.067-.148.067.102.2-.036.135-.066.134-.043.067.088.067-.08.469-.004.134-.034.067-.081.134.187.067-.001.134-.19.134.026.067.12.067-.061.2-.036.067-.062.134.122.201-.045.067.071.067-.076.134-.023.268-.05.134.003.47-.012 1.004-.041.536-.15.067.144.067-.044.2-.094.135.041.067-.026.067.122.067-.126.067.106.134-.08.067.13.134-.23.134.126.067-.094.067.095.268-.169.067-.032.134.193.066-.133.067.125.067-.194.134.188.067-.331.134.25.134-.113.134.041.201.019.067-.237.067.125.134.038.268-.09.067.109.067-.051 1.943-.268.134-.007.2.074.135-.037.067.076.134-.132.067.08.2-.145.135.062.134-.068.2.075.134-.053.067-.223.067.051.134.131.067-.074.067.064.335.114.067-.292.067.312.067-.291.067.182.134-.217.067.101.067.078.067-.226.067.024.201.053.134-.03.67-.094.268-.013.402-.076 1.54-.203.202-.179.267.169.067-.095.067.121.134-.173.134.01.134-.2.201.153.201-.167.134.182.067-.15.067.06.067.041.134-.11.067.093.067-.048.201-.187 1.139-.11.402-.07.268-.033 2.21-.337.067-.33.067.126.134.007.335-.008.134-.014.067.031.134-.238.067.159.067-.265.134.28.134-.154.067.093.067-.013.134-.157.268-.009.067-.08.067.124.067-.07.402-.076.335-.092.2-.045.537-.133.268-.033.2-.079.335-.03.268-.141.067.08.067-.116.067.06.47-.032.066-.218.067.163.067-.117.067-.03.067-.155.067.165.067-.05.134-.122.268.12.201-.082.067.005.067-.122.067.113.067-.22.067.08.067.073.268-.238.134.107.067-.128.067.04.134.01.067-.19.067.225.067-.06.335-.205.067.113.067-.057.268-.096.335-.106 1.272-.338.067-.109.067.064.335-.157.067.074.134-.13.201.099.201-.227.067.195.201-.378.201.13.201-.25.134.125.067-.106.067-.089.067.148.067-.066.134-.06 1.139-.39.402-.134.402-.105 1.808-.73.067.157.067-.19.067.065.268-.189.268-.037.134-.112.134-.02.067.03.2-.215.068.205.067-.202.067.2.067-.265.067.021.067-.096.134.106.067-.183.067.157.067-.063.134-.054.134-.056.469-.315.2.134.135-.243.067.099.067-.09.268-.134.602-.245 1.273-.555.067-.12.134.133.067.048.201-.448.067.196.134-.216.134.033.067-.1.067.278.2-.459.068-.014.067.119.134-.143.067.069.067-.266.067.153.134-.242.134.176.067-.057.134-.212.134-.081.067.237.134-.254.067-.018.067-.19.067.214.067-.218.134.174.468-.409.067.089.067-.233.067.038.067-.013.134-.12.335-.118.335-.19.335-.174.268-.2h.134l.134-.203.067.103.335-.346.134-.048.134-.088.134.103.268-.416.067.18.067-.05.067-.336.067.471.067-.333.067.09.067.152.134-.817.067.415.067-.135.067.223.067-.536.067.258.2.054.068-.462.067.44.067-.1.067.114.067-.402.067.413.067-.488.067.138.2-.426.068.145.2-.512.067.155.067.259.067-.106.134-.216.268-.057.268-.384.067.177.201-.25.201-.148.603-.302.134-.352.067.274.067-.184.067-.19.067.14.268-.362.067.198.067-.068.067.112.067-.5.067.229.134-.553.134.249.134-.2.067.184.134-.55.067.458.134-.885.067.342.067-.228.134.618.067-.174.067.064.067-.438.067.076.067-.1.2-.839.068.388.067-.238.134.217.067-.406.2.587.134-.82.134.104.067.26.268-.814.067.252.067-.255.067.123.067-.188.067.185.067-.075.067-.43.067.193.067-.046.134-.206.134-.034.134-.23.067.07.268-.317.536-.606.335-.293.067.107.067-.076.067-.385.067.412.067-.522.067.258.067.175.2-.82.068.075.2-.79.068 1.1.067-.58.268-.239.2-1.14.068.822.067-.084.067.1.134-.509.067.66.134-.912.066.276.134-.708.067.557.067-.94.067.609.067-.09.134-.503.067.06.134-.541.067.09.067-.09.067.567.067-.638.067.02.067.002.268-.568.067.3.201-.58.067.062.134-.307.067.062.335-.594.201-.268.469-.738.067-.233.067.03.067-.006.067-.304.067.029.2-.032.135-1.108.067.567.067-.139.067.118.067-.125.067-.703.067.118.067.109.067-.924.067.527.067-.07.067-.48.067.668.067-.828.067.905.067-1.11.067.352.2-.978.068.208.2-.6.067.512.067-.832.067.675.067-.814.067.464.134-1.338.067.469.134-.396.067.08.067.575.067-1.23.067.192.067-.087.067-.323.067.534.134-1.254.067.01.067.309.402-1.848.134.083.067-.089.067.108.067-.286.067.208.603-2.104.2-.502 1.207-3.766.067-.989.067.035.067-.133.335-1.682.067.395.133-1.142.067.219.201-2.005.067.863.067-1.103.067.043.067.068.067-.396.201-1.852.067 1.13.067-4.512.067 4.85.201-5.435.067 4.351.067-6.565.067 2.366.067-.973.067 3.887.067-7.495.067 3.495.201-6.801.067 5.633.134-6.123.067.468.067 2.983.134-8.712.067 8.23.067-5.004.134-6.938.067 8.968.067-12.441.067 2.976.067-3.669.067 4.91.067-14.519.067 14.572.2-25.106.068 31.291.2-56.676.068-5.862.067 5.862.2 56.676.068-31.29.067 14.854.067.248.067 10.003.067-14.572.067 14.52.067-4.91.067 3.668.067-2.976.067 12.441.067-8.968.067 2.02.134 9.921.067-8.229.067 2.172.067 6.54.066-2.983.067-.468.067 1.32.067 4.803.067-5.633.067 5.692.067-.845.067 1.954.067-3.495.067 7.495.067-3.887.067.973.067-2.366.067 6.565.067-4.35.067 1.883.067.138.067 3.413.067-4.85.067 4.511.067-1.129.067 1.442.067-.731.134 1.537.134-.111.067 1.103.067-.863.201 2.005.067-.22.536 2.43.067.133.067-.035.134 1.113.067.003.402 1.402.067.059.2.981.068.027.335 1.17.938 2.684.066-.108.067.09.067.07.067-.154.201.984.067.08.134.784.134-.32.134 1.255.134-.211.067.087.067-.192.067 1.23.067-.575.067-.08.134.396.067-.47.134 1.339.067-.464.067.814.067-.675.067.832.067-.512.201.6.067-.208.201.978.067-.353.067 1.11.067-.904.067.828.067-.667.134.55.067-.528.067.924.067-.109.067-.118.134.828.067-.118.067.14.067-.568.2 1.127.068-.03.134.014.134.31.067-.03.268.632.268.339.268.425.267.437.134-.007.067.252.067-.063.134.169.067.411.067-.3.201.354.134.212.067-.019.067.638.067-.568.067.092.067-.091.402 1.074.067-.609.067.94.067-.557.134.708.067-.276.134.911.067-.659.067.164.067.345.067-.1.067.084.067-.821.067.855.067-.32.134.708.067-.126.134.261.067.58.067-1.1.067.546.067-.328.2 1.064.068-.295.067.548.067-.175.067-.258.067.522.067-.412.134.461.067-.107.067.05.067-.031.603.794.2.139.201.263.067-.068.134.229.134.034.067-.003.134.255.067-.192.134.504.067-.185.201.32.067-.252.067.132.201.681.201-.364.067.204.067.617.067-.262.067.018.067-.343.067.406.067-.06.067-.157.067.238.067-.388.201.838.335.573.268-.732.134.885.067-.458.067.194.067.356.067-.184.067.032.067.168.067-.049.067-.2.268.824.067-.112.067.068.067-.198.067.268.067-.106.134.2.067-.14.134.374.067-.274.066.115.067.237.067-.102.938.802.134-.184.067.345.067-.112.134.216.067-.104.067.099.134.022.134.304.134-.414.201.512.067-.145.067.112.134.314.067-.138.067.488.067-.413.067.402.067-.114.067.1.067-.44.134.536.2-.386.068.536.067-.223.067.135.067-.415.134.817.067-.153.067-.09.067.334.067-.47.134.386.067-.181.067.065.2.35.269-.014.468.394.067-.103.067.064.134.158.134.006.335.229.536.31.201.04.335.21.067-.037.067.233.067-.089.067.139.067-.073.201.082.201.273.067-.186.067.218.067-.213.134.207.067-.01.067.264.067-.237.067.06.134.02.134.27.067-.026.067-.15.134.242.067-.153.067.266.067-.07h.067l.067.144.134-.105.134.184.067.275.067-.279.067.1.2-.003.068.187.067-.196.2.448.201-.18.067.119.67.311.134.032.871.385.134.057.335.149.067.09.134-.068.067.212.067-.051.402.104.2.128.135.056.067-.045.134.162.067-.157.134.187.067-.11.067.096.067-.02.067.263.067-.2.067.203.067-.205.067.056 1.004.487.067-.065.067.19.067-.156.201.17.67.227.134.063.335.098 1.742.603.067.147.067-.09.268.083.335.014.134.17.067-.149.067.089.067.106.067-.08.134.026.267.164.067-.115.201.378.134-.203.268.22.134-.084.067.13.067-.074.201.105.402.093.268.14.201-.009.335.113 1.407.45.067.059.067-.225.134.203.134-.063.134.108.067-.087.134.174.067-.041.067.105.067-.073.067-.08.067.22.066-.113.201.15.201.001.067.1.134-.172.067.044.134.128.067-.165.201.302.067-.163.067.218.067-.16.201.2.067-.125.067.102 3.751.835.067-.23.067.266.067-.159.067.043.067.195.067-.031.134.014.201.093.134-.085.134-.007.067-.126.067.33.067-.017.201-.004.067-.063.067.09.268.026.201.077.268.072.134.007.335.021.2.085.269.016 1.139.211.067-.058.067.084.134-.028.267.078.335-.05.201.238.067-.093.067-.022.067.132.067-.041.067-.06.067.15.067-.048.067-.134.067.145.067-.047.134.048.201-.03.134.155.134-.031.067.137.067-.121.067.095.268-.169.201.18.268-.031.402.133.134-.02.067.105.067-.082.2.078.269.013.67.06.2.054.268.044.201.082.201-.096.201.068.134-.07.067.226.067-.078.067-.1.134.216.067-.182.067.29.067-.311.067.292.067-.13.603-.156.134.263.268-.062.134.068.603.06.2-.047.135.009.134.007.2.09.604.067 1.004.094.67.011.067-.125.134.235.402.054.067.016.067-.265.067.33.067-.039.067-.148.067.194.067-.125.067.133.067-.098.134-.063.268.169.067-.095.067.094.2-.036.068.14.134-.148.067.098.067-.106.067.126.134-.096.402.097.134-.144.2.155.135-.044.536.053.67.032.267.002.47.009.267.142.201-.061.134.022.067-.11.067.063.268.097.201-.145.067.007.134.183.067.001.067-.188.067.081.2.036.135-.07.134.124.134-.052.067.08.067-.088.402.086.067.06.067-.103.067.148.2-.18.47.08 1.808.087.067-.103.067.053.402.03.201-.031.268.112.067-.003.067-.136.067.11.067.172.134-.2.067.022.067-.11.067.065.335.033.067.114.067-.077.067.073.067-.08 1.139.038.066-.114.067.076.47.015.535-.029h0" clip-path="url(#p34b8cfc725)" style="fill:none;stroke:#000;stroke-linecap:square"/><path id="patch_3" d="M30.184 142.2V3.6" style="fill:none;stroke:#000;stroke-width:.5;stroke-linejoin:miter;stroke-linecap:square"/><path id="patch_4" d="M214.324 142.2V3.6" style="fill:none;stroke:#000;stroke-width:.5;stroke-linejoin:miter;stroke-linecap:square"/><path id="patch_5" d="M30.184 142.2h184.14" style="fill:none;stroke:#000;stroke-width:.5;stroke-linejoin:miter;stroke-linecap:square"/><path id="patch_6" d="M30.184 3.6h184.14" style="fill:none;stroke:#000;stroke-width:.5;stroke-linejoin:miter;stroke-linecap:square"/></g></g><defs><clipPath id="p34b8cfc725"><path d="M30.184 3.6h184.14v138.6H30.184z"/></clipPath></defs></svg>