<svg xmlns="http://www.w3.org/2000/svg" xmlns:xlink="http://www.w3.org/1999/xlink" width="290.566" height="223.411" viewBox="0 0 217.924 167.558"><defs><style>*{stroke-linejoin:round;stroke-linecap:butt}</style></defs><g id="figure_1"><path id="patch_1" d="M0 167.558h217.924V0H0z" style="fill:none"/><g id="axes_1"><path id="patch_2" d="M30.184 142.2h184.14V3.6H30.184z" style="fill:none"/><g id="matplotlib.axis_1"><g id="xtick_1"><g id="line2d_1"><defs><path id="m6004a791f6" d="M0 0v-3" style="stroke:#000;stroke-width:.5"/></defs><use xlink:href="#m6004a791f6" x="55.301" y="142.2" style="stroke:#000;stroke-width:.5"/></g><g id="line2d_2"><defs><path id="md0500b2042" d="M0 0v3" style="stroke:#000;stroke-width:.5"/></defs><use xlink:href="#md0500b2042" x="55.301" y="3.6" style="stroke:#000;stroke-width:.5"/></g><g id="text_1" transform="matrix(.08 0 0 -.08 47.116 151.104)"><defs><path id="CMSY10-0" d="M4218 1472c108 0 224 0 224 128s-116 128-224 128H755c-109 0-224 0-224-128s115-128 224-128z" transform="scale(.01563)"/><path id="NimbusRomNo9L-Regu-30" d="M1626 4352c-352 0-621-108-858-332-371-359-614-1095-614-1844 0-697 211-1446 512-1804C902 90 1229-64 1600-64c326 0 602 109 832 333 371 352 614 1095 614 1869 0 1312-582 2214-1420 2214m-20-166c538 0 826-723 826-2061 0-1337-282-2022-832-2022S768 788 768 2119c0 1357 288 2067 838 2067" transform="scale(.01563)"/><path id="CMMI10-3a" d="M1229 338c0 184-154 337-339 337-186 0-340-153-340-337C550 153 704 0 890 0c185 0 339 153 339 338" transform="scale(.01563)"/><path id="NimbusRomNo9L-Regu-32" d="m3040 875-83 32c-237-363-320-421-608-421H819l1075 1123c570 593 820 1078 820 1576 0 638-519 1128-1184 1128-352 0-685-140-922-395-205-218-301-422-410-875l135-32c256 625 486 829 928 829 537 0 902-364 902-900 0-497-294-1090-832-1658L192 77V0h2496z" transform="scale(.01563)"/></defs><use xlink:href="#CMSY10-0" transform="scale(.99626)"/><use xlink:href="#NimbusRomNo9L-Regu-30" transform="matrix(.99626 0 0 .99626 77.409 0)"/><use xlink:href="#CMMI10-3a" transform="matrix(.99626 0 0 .99626 127.222 0)"/><use xlink:href="#NimbusRomNo9L-Regu-32" transform="matrix(.99626 0 0 .99626 154.817 0)"/></g></g><g id="xtick_2"><use xlink:href="#m6004a791f6" id="line2d_3" x="88.794" y="142.2" style="stroke:#000;stroke-width:.5"/><use xlink:href="#md0500b2042" id="line2d_4" x="88.794" y="3.6" style="stroke:#000;stroke-width:.5"/><g id="text_2" transform="matrix(.08 0 0 -.08 80.61 151.104)"><defs><path id="NimbusRomNo9L-Regu-31" d="M1862 4339 710 3757v-90c77 32 148 58 173 71 115 45 224 70 288 70 135 0 192-97 192-303V592c0-213-51-360-153-419-96-57-186-77-455-77V0h1767v96c-506 0-608 64-608 374v3857z" transform="scale(.01563)"/></defs><use xlink:href="#CMSY10-0" transform="scale(.99626)"/><use xlink:href="#NimbusRomNo9L-Regu-30" transform="matrix(.99626 0 0 .99626 77.409 0)"/><use xlink:href="#CMMI10-3a" transform="matrix(.99626 0 0 .99626 127.222 0)"/><use xlink:href="#NimbusRomNo9L-Regu-31" transform="matrix(.99626 0 0 .99626 154.817 0)"/></g></g><g id="xtick_3"><use xlink:href="#m6004a791f6" id="line2d_5" x="122.288" y="142.2" style="stroke:#000;stroke-width:.5"/><use xlink:href="#md0500b2042" id="line2d_6" x="122.288" y="3.6" style="stroke:#000;stroke-width:.5"/><g id="text_3" transform="matrix(.08 0 0 -.08 117.199 151.104)"><use xlink:href="#NimbusRomNo9L-Regu-30" transform="scale(.99626)"/><use xlink:href="#CMMI10-3a" transform="matrix(.99626 0 0 .99626 49.813 0)"/><use xlink:href="#NimbusRomNo9L-Regu-30" transform="matrix(.99626 0 0 .99626 77.409 0)"/></g></g><g id="xtick_4"><use xlink:href="#m6004a791f6" id="line2d_7" x="155.781" y="142.2" style="stroke:#000;stroke-width:.5"/><use xlink:href="#md0500b2042" id="line2d_8" x="155.781" y="3.6" style="stroke:#000;stroke-width:.5"/><g id="text_4" transform="matrix(.08 0 0 -.08 150.692 151.104)"><use xlink:href="#NimbusRomNo9L-Regu-30" transform="scale(.99626)"/><use xlink:href="#CMMI10-3a" transform="matrix(.99626 0 0 .99626 49.813 0)"/><use xlink:href="#NimbusRomNo9L-Regu-31" transform="matrix(.99626 0 0 .99626 77.409 0)"/></g></g><g id="xtick_5"><use xlink:href="#m6004a791f6" id="line2d_9" x="189.275" y="142.2" style="stroke:#000;stroke-width:.5"/><use xlink:href="#md0500b2042" id="line2d_10" x="189.275" y="3.6" style="stroke:#000;stroke-width:.5"/><g id="text_5" transform="matrix(.08 0 0 -.08 184.186 151.104)"><use xlink:href="#NimbusRomNo9L-Regu-30" transform="scale(.99626)"/><use xlink:href="#CMMI10-3a" transform="matrix(.99626 0 0 .99626 49.813 0)"/><use xlink:href="#NimbusRomNo9L-Regu-32" transform="matrix(.99626 0 0 .99626 77.409 0)"/></g></g><g id="xtick_6"><g id="line2d_11"><defs><path id="m58cfcac206" d="M0 0v-1.5" style="stroke:#000;stroke-width:.5"/></defs><use xlink:href="#m58cfcac206" x="35.205" y="142.2" style="stroke:#000;stroke-width:.5"/></g><g id="line2d_12"><defs><path id="mb3f4b5dc42" d="M0 0v1.5" style="stroke:#000;stroke-width:.5"/></defs><use xlink:href="#mb3f4b5dc42" x="35.205" y="3.6" style="stroke:#000;stroke-width:.5"/></g></g><g id="xtick_7"><use xlink:href="#m58cfcac206" id="line2d_13" x="41.904" y="142.2" style="stroke:#000;stroke-width:.5"/><use xlink:href="#mb3f4b5dc42" id="line2d_14" x="41.904" y="3.6" style="stroke:#000;stroke-width:.5"/></g><g id="xtick_8"><use xlink:href="#m58cfcac206" id="line2d_15" x="48.602" y="142.2" style="stroke:#000;stroke-width:.5"/><use xlink:href="#mb3f4b5dc42" id="line2d_16" x="48.602" y="3.6" style="stroke:#000;stroke-width:.5"/></g><g id="xtick_9"><use xlink:href="#m58cfcac206" id="line2d_17" x="62" y="142.2" style="stroke:#000;stroke-width:.5"/><use xlink:href="#mb3f4b5dc42" id="line2d_18" x="62" y="3.6" style="stroke:#000;stroke-width:.5"/></g><g id="xtick_10"><use xlink:href="#m58cfcac206" id="line2d_19" x="68.698" y="142.2" style="stroke:#000;stroke-width:.5"/><use xlink:href="#mb3f4b5dc42" id="line2d_20" x="68.698" y="3.6" style="stroke:#000;stroke-width:.5"/></g><g id="xtick_11"><use xlink:href="#m58cfcac206" id="line2d_21" x="75.397" y="142.2" style="stroke:#000;stroke-width:.5"/><use xlink:href="#mb3f4b5dc42" id="line2d_22" x="75.397" y="3.6" style="stroke:#000;stroke-width:.5"/></g><g id="xtick_12"><use xlink:href="#m58cfcac206" id="line2d_23" x="82.096" y="142.2" style="stroke:#000;stroke-width:.5"/><use xlink:href="#mb3f4b5dc42" id="line2d_24" x="82.096" y="3.6" style="stroke:#000;stroke-width:.5"/></g><g id="xtick_13"><use xlink:href="#m58cfcac206" id="line2d_25" x="95.493" y="142.2" style="stroke:#000;stroke-width:.5"/><use xlink:href="#mb3f4b5dc42" id="line2d_26" x="95.493" y="3.6" style="stroke:#000;stroke-width:.5"/></g><g id="xtick_14"><use xlink:href="#m58cfcac206" id="line2d_27" x="102.192" y="142.2" style="stroke:#000;stroke-width:.5"/><use xlink:href="#mb3f4b5dc42" id="line2d_28" x="102.192" y="3.6" style="stroke:#000;stroke-width:.5"/></g><g id="xtick_15"><use xlink:href="#m58cfcac206" id="line2d_29" x="108.89" y="142.2" style="stroke:#000;stroke-width:.5"/><use xlink:href="#mb3f4b5dc42" id="line2d_30" x="108.89" y="3.6" style="stroke:#000;stroke-width:.5"/></g><g id="xtick_16"><use xlink:href="#m58cfcac206" id="line2d_31" x="115.589" y="142.2" style="stroke:#000;stroke-width:.5"/><use xlink:href="#mb3f4b5dc42" id="line2d_32" x="115.589" y="3.6" style="stroke:#000;stroke-width:.5"/></g><g id="xtick_17"><use xlink:href="#m58cfcac206" id="line2d_33" x="128.986" y="142.2" style="stroke:#000;stroke-width:.5"/><use xlink:href="#mb3f4b5dc42" id="line2d_34" x="128.986" y="3.6" style="stroke:#000;stroke-width:.5"/></g><g id="xtick_18"><use xlink:href="#m58cfcac206" id="line2d_35" x="135.685" y="142.2" style="stroke:#000;stroke-width:.5"/><use xlink:href="#mb3f4b5dc42" id="line2d_36" x="135.685" y="3.6" style="stroke:#000;stroke-width:.5"/></g><g id="xtick_19"><use xlink:href="#m58cfcac206" id="line2d_37" x="142.384" y="142.2" style="stroke:#000;stroke-width:.5"/><use xlink:href="#mb3f4b5dc42" id="line2d_38" x="142.384" y="3.6" style="stroke:#000;stroke-width:.5"/></g><g id="xtick_20"><use xlink:href="#m58cfcac206" id="line2d_39" x="149.082" y="142.2" style="stroke:#000;stroke-width:.5"/><use xlink:href="#mb3f4b5dc42" id="line2d_40" x="149.082" y="3.6" style="stroke:#000;stroke-width:.5"/></g><g id="xtick_21"><use xlink:href="#m58cfcac206" id="line2d_41" x="162.48" y="142.2" style="stroke:#000;stroke-width:.5"/><use xlink:href="#mb3f4b5dc42" id="line2d_42" x="162.48" y="3.6" style="stroke:#000;stroke-width:.5"/></g><g id="xtick_22"><use xlink:href="#m58cfcac206" id="line2d_43" x="169.179" y="142.2" style="stroke:#000;stroke-width:.5"/><use xlink:href="#mb3f4b5dc42" id="line2d_44" x="169.179" y="3.6" style="stroke:#000;stroke-width:.5"/></g><g id="xtick_23"><use xlink:href="#m58cfcac206" id="line2d_45" x="175.877" y="142.2" style="stroke:#000;stroke-width:.5"/><use xlink:href="#mb3f4b5dc42" id="line2d_46" x="175.877" y="3.6" style="stroke:#000;stroke-width:.5"/></g><g id="xtick_24"><use xlink:href="#m58cfcac206" id="line2d_47" x="182.576" y="142.2" style="stroke:#000;stroke-width:.5"/><use xlink:href="#mb3f4b5dc42" id="line2d_48" x="182.576" y="3.6" style="stroke:#000;stroke-width:.5"/></g><g id="xtick_25"><use xlink:href="#m58cfcac206" id="line2d_49" x="195.973" y="142.2" style="stroke:#000;stroke-width:.5"/><use xlink:href="#mb3f4b5dc42" id="line2d_50" x="195.973" y="3.6" style="stroke:#000;stroke-width:.5"/></g><g id="xtick_26"><use xlink:href="#m58cfcac206" id="line2d_51" x="202.672" y="142.2" style="stroke:#000;stroke-width:.5"/><use xlink:href="#mb3f4b5dc42" id="line2d_52" x="202.672" y="3.6" style="stroke:#000;stroke-width:.5"/></g><g id="xtick_27"><use xlink:href="#m58cfcac206" id="line2d_53" x="209.371" y="142.2" style="stroke:#000;stroke-width:.5"/><use xlink:href="#mb3f4b5dc42" id="line2d_54" x="209.371" y="3.6" style="stroke:#000;stroke-width:.5"/></g><g id="text_6" transform="matrix(.08 0 0 -.08 109.753 162.233)"><defs><path id="NimbusRomNo9L-Regu-66" d="M1978 2880h-788v731c0 367 122 562 365 562 135 0 224-63 339-246 103-164 180-227 288-227 148 0 269 114 269 259 0 229-281 393-665 393-397 0-736-171-903-461-166-278-217-506-224-1011H134v-205h525V656c0-471-70-547-531-547V0h1664v109c-525 0-595 71-595 552v2014h781z" transform="scale(.01563)"/><path id="NimbusRomNo9L-Regu-28" d="M1888 4326c-474-307-666-473-902-768-455-556-679-1196-679-1945 0-813 237-1440 800-2093 263-307 429-448 762-653l77 103c-512 403-692 627-864 1107-154 429-224 915-224 1555 0 672 83 1197 256 1594 179 396 371 627 832 998z" transform="scale(.01563)"/><path id="NimbusRomNo9L-Regu-47" d="M4538 2304H2906v-128c275 0 352-19 428-71 96-58 135-207 135-484V574c0-207-391-382-851-382-1044 0-1684 730-1684 1920 0 602 180 1184 461 1498 282 314 679 486 1114 486 358 0 672-121 921-352 192-179 295-352 455-742h147l-51 1350h-141c-38-121-154-211-288-211-64 0-166 19-282 64-288 96-582 147-870 147-1280 0-2195-940-2195-2246 0-627 173-1107 531-1485C1165 180 1779-64 2483-64c551 0 1351 224 1607 449v1309c0 379 76 463 448 495z" transform="scale(.01563)"/><path id="NimbusRomNo9L-Regu-48" d="M1338 2304v1229c0 457 70 526 563 571v120H122v-120c492-45 563-115 563-577V749c0-539-64-615-563-615V0h1779v121c-480 38-563 121-563 578v1323h1939V757c0-546-64-623-563-623V0h1779v121c-480 38-563 121-563 575v2833c0 460 70 530 563 575v120H2714v-120c492-45 563-114 563-571V2304z" transform="scale(.01563)"/><path id="NimbusRomNo9L-Regu-7a" d="m2675 864-115 26c-64-320-102-423-186-532-89-108-307-166-633-166H858l1721 2592v96H358l-19-755h115c58 467 154 563 538 563h883L173 96V0h2413z" transform="scale(.01563)"/><path id="NimbusRomNo9L-Regu-29" d="M243-1133c474 307 666 474 903 768 454 557 678 1197 678 1946 0 819-237 1440-800 2093-262 307-429 448-762 652l-76-102c512-403 684-627 864-1107 153-429 224-915 224-1555 0-666-84-1197-256-1588-180-403-372-633-832-1004z" transform="scale(.01563)"/></defs><use xlink:href="#NimbusRomNo9L-Regu-66" transform="scale(.99626)"/><use xlink:href="#NimbusRomNo9L-Regu-28" transform="matrix(.99626 0 0 .99626 58.082 0)"/><use xlink:href="#NimbusRomNo9L-Regu-47" transform="matrix(.99626 0 0 .99626 91.257 0)"/><use xlink:href="#NimbusRomNo9L-Regu-48" transform="matrix(.99626 0 0 .99626 163.187 0)"/><use xlink:href="#NimbusRomNo9L-Regu-7a" transform="matrix(.99626 0 0 .99626 235.117 0)"/><use xlink:href="#NimbusRomNo9L-Regu-29" transform="matrix(.99626 0 0 .99626 279.35 0)"/></g></g><g id="matplotlib.axis_2"><g id="ytick_1"><g id="line2d_55"><defs><path id="mc7e997e5f5" d="M0 0h3" style="stroke:#000;stroke-width:.5"/></defs><use xlink:href="#mc7e997e5f5" x="30.184" y="134.472" style="stroke:#000;stroke-width:.5"/></g><g id="line2d_56"><defs><path id="m54d00d5b64" d="M0 0h-3" style="stroke:#000;stroke-width:.5"/></defs><use xlink:href="#m54d00d5b64" x="214.324" y="134.472" style="stroke:#000;stroke-width:.5"/></g><g id="text_7" transform="matrix(.08 0 0 -.08 18.714 137.173)"><defs><path id="NimbusRomNo9L-Regu-35" d="M1158 3776h1255c102 0 128 13 147 58l243 569-57 45c-96-134-160-166-295-166H1114L416 2759c-6-13-6-19-6-32 0-32 25-51 76-51 205 0 461-45 724-129 736-238 1075-637 1075-1273 0-618-391-1101-890-1101-128 0-237 45-429 187-204 148-352 212-486 212-186 0-275-77-275-238C205 90 506-64 986-64c537 0 998 174 1318 502 294 290 429 656 429 1145 0 463-122 759-442 1080-281 284-646 431-1401 566z" transform="scale(.01563)"/></defs><use xlink:href="#NimbusRomNo9L-Regu-32" transform="scale(.99626)"/><use xlink:href="#NimbusRomNo9L-Regu-35" transform="matrix(.99626 0 0 .99626 49.813 0)"/></g></g><g id="ytick_2"><use xlink:href="#mc7e997e5f5" id="line2d_57" x="30.184" y="114.052" style="stroke:#000;stroke-width:.5"/><use xlink:href="#m54d00d5b64" id="line2d_58" x="214.324" y="114.052" style="stroke:#000;stroke-width:.5"/><g id="text_8" transform="matrix(.08 0 0 -.08 18.714 116.754)"><use xlink:href="#NimbusRomNo9L-Regu-35" transform="scale(.99626)"/><use xlink:href="#NimbusRomNo9L-Regu-30" transform="matrix(.99626 0 0 .99626 49.813 0)"/></g></g><g id="ytick_3"><use xlink:href="#mc7e997e5f5" id="line2d_59" x="30.184" y="93.632" style="stroke:#000;stroke-width:.5"/><use xlink:href="#m54d00d5b64" id="line2d_60" x="214.324" y="93.632" style="stroke:#000;stroke-width:.5"/><g id="text_9" transform="matrix(.08 0 0 -.08 18.714 96.334)"><defs><path id="NimbusRomNo9L-Regu-37" d="M2874 4250H506l-378-940 109-52c275 435 390 518 742 518h1389L1101-32h416l1357 4180z" transform="scale(.01563)"/></defs><use xlink:href="#NimbusRomNo9L-Regu-37" transform="scale(.99626)"/><use xlink:href="#NimbusRomNo9L-Regu-35" transform="matrix(.99626 0 0 .99626 49.813 0)"/></g></g><g id="ytick_4"><use xlink:href="#mc7e997e5f5" id="line2d_61" x="30.184" y="73.212" style="stroke:#000;stroke-width:.5"/><use xlink:href="#m54d00d5b64" id="line2d_62" x="214.324" y="73.212" style="stroke:#000;stroke-width:.5"/><g id="text_10" transform="matrix(.08 0 0 -.08 14.73 75.914)"><use xlink:href="#NimbusRomNo9L-Regu-31" transform="scale(.99626)"/><use xlink:href="#NimbusRomNo9L-Regu-30" transform="matrix(.99626 0 0 .99626 49.813 0)"/><use xlink:href="#NimbusRomNo9L-Regu-30" transform="matrix(.99626 0 0 .99626 99.626 0)"/></g></g><g id="ytick_5"><use xlink:href="#mc7e997e5f5" id="line2d_63" x="30.184" y="52.792" style="stroke:#000;stroke-width:.5"/><use xlink:href="#m54d00d5b64" id="line2d_64" x="214.324" y="52.792" style="stroke:#000;stroke-width:.5"/><g id="text_11" transform="matrix(.08 0 0 -.08 14.73 55.494)"><use xlink:href="#NimbusRomNo9L-Regu-31" transform="scale(.99626)"/><use xlink:href="#NimbusRomNo9L-Regu-32" transform="matrix(.99626 0 0 .99626 49.813 0)"/><use xlink:href="#NimbusRomNo9L-Regu-35" transform="matrix(.99626 0 0 .99626 99.626 0)"/></g></g><g id="ytick_6"><use xlink:href="#mc7e997e5f5" id="line2d_65" x="30.184" y="32.373" style="stroke:#000;stroke-width:.5"/><use xlink:href="#m54d00d5b64" id="line2d_66" x="214.324" y="32.373" style="stroke:#000;stroke-width:.5"/><g id="text_12" transform="matrix(.08 0 0 -.08 14.73 35.074)"><use xlink:href="#NimbusRomNo9L-Regu-31" transform="scale(.99626)"/><use xlink:href="#NimbusRomNo9L-Regu-35" transform="matrix(.99626 0 0 .99626 49.813 0)"/><use xlink:href="#NimbusRomNo9L-Regu-30" transform="matrix(.99626 0 0 .99626 99.626 0)"/></g></g><g id="ytick_7"><use xlink:href="#mc7e997e5f5" id="line2d_67" x="30.184" y="11.953" style="stroke:#000;stroke-width:.5"/><use xlink:href="#m54d00d5b64" id="line2d_68" x="214.324" y="11.953" style="stroke:#000;stroke-width:.5"/><g id="text_13" transform="matrix(.08 0 0 -.08 14.73 14.655)"><use xlink:href="#NimbusRomNo9L-Regu-31" transform="scale(.99626)"/><use xlink:href="#NimbusRomNo9L-Regu-37" transform="matrix(.99626 0 0 .99626 49.813 0)"/><use xlink:href="#NimbusRomNo9L-Regu-35" transform="matrix(.99626 0 0 .99626 99.626 0)"/></g></g><g id="ytick_8"><g id="line2d_69"><defs><path id="m79ccd54e5c" d="M0 0h1.5" style="stroke:#000;stroke-width:.5"/></defs><use xlink:href="#m79ccd54e5c" x="30.184" y="138.556" style="stroke:#000;stroke-width:.5"/></g><g id="line2d_70"><defs><path id="maf89147ca1" d="M0 0h-1.5" style="stroke:#000;stroke-width:.5"/></defs><use xlink:href="#maf89147ca1" x="214.324" y="138.556" style="stroke:#000;stroke-width:.5"/></g></g><g id="ytick_9"><use xlink:href="#m79ccd54e5c" id="line2d_71" x="30.184" y="130.388" style="stroke:#000;stroke-width:.5"/><use xlink:href="#maf89147ca1" id="line2d_72" x="214.324" y="130.388" style="stroke:#000;stroke-width:.5"/></g><g id="ytick_10"><use xlink:href="#m79ccd54e5c" id="line2d_73" x="30.184" y="126.304" style="stroke:#000;stroke-width:.5"/><use xlink:href="#maf89147ca1" id="line2d_74" x="214.324" y="126.304" style="stroke:#000;stroke-width:.5"/></g><g id="ytick_11"><use xlink:href="#m79ccd54e5c" id="line2d_75" x="30.184" y="122.22" style="stroke:#000;stroke-width:.5"/><use xlink:href="#maf89147ca1" id="line2d_76" x="214.324" y="122.22" style="stroke:#000;stroke-width:.5"/></g><g id="ytick_12"><use xlink:href="#m79ccd54e5c" id="line2d_77" x="30.184" y="118.136" style="stroke:#000;stroke-width:.5"/><use xlink:href="#maf89147ca1" id="line2d_78" x="214.324" y="118.136" style="stroke:#000;stroke-width:.5"/></g><g id="ytick_13"><use xlink:href="#m79ccd54e5c" id="line2d_79" x="30.184" y="109.968" style="stroke:#000;stroke-width:.5"/><use xlink:href="#maf89147ca1" id="line2d_80" x="214.324" y="109.968" style="stroke:#000;stroke-width:.5"/></g><g id="ytick_14"><use xlink:href="#m79ccd54e5c" id="line2d_81" x="30.184" y="105.884" style="stroke:#000;stroke-width:.5"/><use xlink:href="#maf89147ca1" id="line2d_82" x="214.324" y="105.884" style="stroke:#000;stroke-width:.5"/></g><g id="ytick_15"><use xlink:href="#m79ccd54e5c" id="line2d_83" x="30.184" y="101.8" style="stroke:#000;stroke-width:.5"/><use xlink:href="#maf89147ca1" id="line2d_84" x="214.324" y="101.8" style="stroke:#000;stroke-width:.5"/></g><g id="ytick_16"><use xlink:href="#m79ccd54e5c" id="line2d_85" x="30.184" y="97.716" style="stroke:#000;stroke-width:.5"/><use xlink:href="#maf89147ca1" id="line2d_86" x="214.324" y="97.716" style="stroke:#000;stroke-width:.5"/></g><g id="ytick_17"><use xlink:href="#m79ccd54e5c" id="line2d_87" x="30.184" y="89.548" style="stroke:#000;stroke-width:.5"/><use xlink:href="#maf89147ca1" id="line2d_88" x="214.324" y="89.548" style="stroke:#000;stroke-width:.5"/></g><g id="ytick_18"><use xlink:href="#m79ccd54e5c" id="line2d_89" x="30.184" y="85.464" style="stroke:#000;stroke-width:.5"/><use xlink:href="#maf89147ca1" id="line2d_90" x="214.324" y="85.464" style="stroke:#000;stroke-width:.5"/></g><g id="ytick_19"><use xlink:href="#m79ccd54e5c" id="line2d_91" x="30.184" y="81.38" style="stroke:#000;stroke-width:.5"/><use xlink:href="#maf89147ca1" id="line2d_92" x="214.324" y="81.38" style="stroke:#000;stroke-width:.5"/></g><g id="ytick_20"><use xlink:href="#m79ccd54e5c" id="line2d_93" x="30.184" y="77.296" style="stroke:#000;stroke-width:.5"/><use xlink:href="#maf89147ca1" id="line2d_94" x="214.324" y="77.296" style="stroke:#000;stroke-width:.5"/></g><g id="ytick_21"><use xlink:href="#m79ccd54e5c" id="line2d_95" x="30.184" y="69.128" style="stroke:#000;stroke-width:.5"/><use xlink:href="#maf89147ca1" id="line2d_96" x="214.324" y="69.128" style="stroke:#000;stroke-width:.5"/></g><g id="ytick_22"><use xlink:href="#m79ccd54e5c" id="line2d_97" x="30.184" y="65.044" style="stroke:#000;stroke-width:.5"/><use xlink:href="#maf89147ca1" id="line2d_98" x="214.324" y="65.044" style="stroke:#000;stroke-width:.5"/></g><g id="ytick_23"><use xlink:href="#m79ccd54e5c" id="line2d_99" x="30.184" y="60.96" style="stroke:#000;stroke-width:.5"/><use xlink:href="#maf89147ca1" id="line2d_100" x="214.324" y="60.96" style="stroke:#000;stroke-width:.5"/></g><g id="ytick_24"><use xlink:href="#m79ccd54e5c" id="line2d_101" x="30.184" y="56.876" style="stroke:#000;stroke-width:.5"/><use xlink:href="#maf89147ca1" id="line2d_102" x="214.324" y="56.876" style="stroke:#000;stroke-width:.5"/></g><g id="ytick_25"><use xlink:href="#m79ccd54e5c" id="line2d_103" x="30.184" y="48.708" style="stroke:#000;stroke-width:.5"/><use xlink:href="#maf89147ca1" id="line2d_104" x="214.324" y="48.708" style="stroke:#000;stroke-width:.5"/></g><g id="ytick_26"><use xlink:href="#m79ccd54e5c" id="line2d_105" x="30.184" y="44.624" style="stroke:#000;stroke-width:.5"/><use xlink:href="#maf89147ca1" id="line2d_106" x="214.324" y="44.624" style="stroke:#000;stroke-width:.5"/></g><g id="ytick_27"><use xlink:href="#m79ccd54e5c" id="line2d_107" x="30.184" y="40.54" style="stroke:#000;stroke-width:.5"/><use xlink:href="#maf89147ca1" id="line2d_108" x="214.324" y="40.54" style="stroke:#000;stroke-width:.5"/></g><g id="ytick_28"><use xlink:href="#m79ccd54e5c" id="line2d_109" x="30.184" y="36.456" style="stroke:#000;stroke-width:.5"/><use xlink:href="#maf89147ca1" id="line2d_110" x="214.324" y="36.456" style="stroke:#000;stroke-width:.5"/></g><g id="ytick_29"><use xlink:href="#m79ccd54e5c" id="line2d_111" x="30.184" y="28.289" style="stroke:#000;stroke-width:.5"/><use xlink:href="#maf89147ca1" id="line2d_112" x="214.324" y="28.289" style="stroke:#000;stroke-width:.5"/></g><g id="ytick_30"><use xlink:href="#m79ccd54e5c" id="line2d_113" x="30.184" y="24.205" style="stroke:#000;stroke-width:.5"/><use xlink:href="#maf89147ca1" id="line2d_114" x="214.324" y="24.205" style="stroke:#000;stroke-width:.5"/></g><g id="ytick_31"><use xlink:href="#m79ccd54e5c" id="line2d_115" x="30.184" y="20.121" style="stroke:#000;stroke-width:.5"/><use xlink:href="#maf89147ca1" id="line2d_116" x="214.324" y="20.121" style="stroke:#000;stroke-width:.5"/></g><g id="ytick_32"><use xlink:href="#m79ccd54e5c" id="line2d_117" x="30.184" y="16.037" style="stroke:#000;stroke-width:.5"/><use xlink:href="#maf89147ca1" id="line2d_118" x="214.324" y="16.037" style="stroke:#000;stroke-width:.5"/></g><g id="ytick_33"><use xlink:href="#m79ccd54e5c" id="line2d_119" x="30.184" y="7.869" style="stroke:#000;stroke-width:.5"/><use xlink:href="#maf89147ca1" id="line2d_120" x="214.324" y="7.869" style="stroke:#000;stroke-width:.5"/></g><g id="ytick_34"><use xlink:href="#m79ccd54e5c" id="line2d_121" x="30.184" y="3.785" style="stroke:#000;stroke-width:.5"/><use xlink:href="#maf89147ca1" id="line2d_122" x="214.324" y="3.785" style="stroke:#000;stroke-width:.5"/></g><g id="text_14" transform="matrix(0 -.08 -.08 0 9.004 98.468)"><defs><path id="NimbusRomNo9L-Regu-4d" d="M4314 3667V751c0-534-77-617-583-617V0h1792v134c-467 0-557 89-557 547v2855c0 457 84 541 557 579v122H4250L2835 1004 1357 4237H90v-141c524 0 608-77 608-546V943c0-661-90-784-621-822V0h1504v134c-493 0-602 148-602 797v2589L2586 0h89z" transform="scale(.01563)"/><path id="NimbusRomNo9L-Regu-61" d="M2829 423c-109-90-186-122-282-122-147 0-192 89-192 371v1248c0 333-32 518-128 672-141 230-416 352-793 352-602 0-1076-314-1076-717 0-147 128-275 276-275 153 0 288 128 288 269 0 25-7 57-13 102-13 58-19 109-19 154 0 173 204 313 460 313 314 0 487-185 487-531v-390c-986-397-1095-448-1370-691-141-128-230-346-230-557 0-403 281-685 672-685 281 0 544 134 934 467 32-333 147-467 410-467 217 0 352 77 576 320zm-992 360c0-199-32-257-167-334-153-90-332-148-467-148-224 0-403 219-403 495v26c0 379 262 611 1037 893z" transform="scale(.01563)"/><path id="NimbusRomNo9L-Regu-67" d="M3008 2496v250h-493c-128 0-224 17-352 56l-141 45c-172 56-345 84-512 84-595 0-1068-464-1068-1050 0-405 172-651 595-863-122-112-237-219-275-250-212-180-295-305-295-430 0-132 77-207 339-332-454-335-627-549-627-787 0-343 499-627 1107-627 480 0 980 170 1312 446 244 203 352 414 352 663 0 407-300 683-774 683h-826c-339 0-499 59-499 164 0 130 211 360 384 412 58-7 103-13 122-13 121-13 205-19 243-19 237 0 493 98 691 275 211 184 307 414 307 742 0 190-32 341-121 551zM941-13c211-45 723-83 1037-83 582 0 793-84 793-318 0-377-486-629-1209-629-564 0-935 188-935 473 0 150 45 234 314 557m32 2158c0 381 179 607 473 607 199 0 365-110 468-303 115-226 192-522 192-774 0-361-186-587-480-587-384 0-653 419-653 1038z" transform="scale(.01563)"/><path id="NimbusRomNo9L-Regu-6e" d="M102 2579c39 19 103 26 173 26 179 0 237-96 237-410V608c0-365-70-454-397-480V32h1357v96c-326 26-422 102-422 333v1798c307 288 448 365 659 365 313 0 467-198 467-621V666c0-404-83-512-403-538V32h1331v96c-314 32-390 109-390 422v1466c0 602-282 960-756 960-294 0-492-109-928-518v505l-44 13c-314-115-532-186-884-288z" transform="scale(.01563)"/><path id="NimbusRomNo9L-Regu-69" d="m1120 2929-992-350v-95l51 6c77 12 160 19 218 19 153 0 211-103 211-384V640c0-461-64-531-506-531V0h1517v96c-422 32-473 95-473 554v2260zM819 4352c-173 0-320-147-320-326s141-327 320-327c186 0 333 141 333 327 0 179-147 326-333 326" transform="scale(.01563)"/><path id="NimbusRomNo9L-Regu-74" d="M1632 2880H986v742c0 64-7 84-45 84-45-58-83-116-128-180-243-352-519-659-621-685-70-47-109-93-109-126 0-20 7-33 26-33h339V751c0-539 192-815 570-815 313 0 556 154 768 487l-84 70c-134-160-243-224-384-224-236 0-332 174-332 578v1835h646z" transform="scale(.01563)"/><path id="NimbusRomNo9L-Regu-75" d="M3066 320h-32c-295 0-365 70-365 365v2195H1658v-122c396 0 473-64 473-383V875c0-178-32-268-121-338-173-140-372-217-564-217-249 0-454 217-454 485v2075H58v-102c307 0 396-96 396-391V770c0-507 308-834 775-834 237 0 486 102 659 275l275 275V-45l26-13c320 128 550 199 877 288z" transform="scale(.01563)"/><path id="NimbusRomNo9L-Regu-64" d="m2202-64 940 333v96h-147c-230 0-281 70-281 366v3633l-32 13c-308-109-532-173-941-281v-102c51 6 89 6 141 6 236 0 294-64 294-328V2669c-243 205-416 275-672 275-736 0-1331-723-1331-1632C173 493 653-64 1357-64c358 0 601 128 819 429V-45zm-26 717c0-45-45-122-109-192-115-128-275-192-461-192-531 0-883 512-883 1299 0 723 314 1197 800 1197 339 0 653-301 653-640z" transform="scale(.01563)"/><path id="NimbusRomNo9L-Regu-65" d="M2611 1053c-307-489-582-675-992-675-365 0-640 186-825 552-116 244-160 456-173 849h1971c-51 414-115 598-275 802-192 230-487 363-819 363-320 0-621-115-864-333-301-262-474-717-474-1241C160 486 621-64 1357-64c608 0 1088 379 1357 1072zM634 1984c70 495 288 730 678 730s544-179 627-730z" transform="scale(.01563)"/><path id="NimbusRomNo9L-Regu-42" d="M109 4237v-141c537 0 614-70 614-548V689c0-477-83-561-614-561V0h2137c500 0 954 136 1191 356 230 208 358 499 358 809 0 286-115 545-313 732-192 175-365 253-781 356 333 82 467 145 621 278 160 140 256 372 256 632 0 708-570 1074-1677 1074zm1267-2125c621 0 915-32 1146-130 364-155 537-414 537-823 0-350-134-604-390-753-205-116-467-168-890-168-313 0-403 58-403 266zm0 256v1444c0 132 45 189 141 189h281c736 0 1127-302 1127-864 0-491-339-769-941-769z" transform="scale(.01563)"/></defs><use xlink:href="#NimbusRomNo9L-Regu-4d" transform="scale(.99626)"/><use xlink:href="#NimbusRomNo9L-Regu-61" transform="matrix(.99626 0 0 .99626 88.567 0)"/><use xlink:href="#NimbusRomNo9L-Regu-67" transform="matrix(.99626 0 0 .99626 132.8 0)"/><use xlink:href="#NimbusRomNo9L-Regu-6e" transform="matrix(.99626 0 0 .99626 182.614 0)"/><use xlink:href="#NimbusRomNo9L-Regu-69" transform="matrix(.99626 0 0 .99626 232.427 0)"/><use xlink:href="#NimbusRomNo9L-Regu-74" transform="matrix(.99626 0 0 .99626 260.122 0)"/><use xlink:href="#NimbusRomNo9L-Regu-75" transform="matrix(.99626 0 0 .99626 287.817 0)"/><use xlink:href="#NimbusRomNo9L-Regu-64" transform="matrix(.99626 0 0 .99626 337.63 0)"/><use xlink:href="#NimbusRomNo9L-Regu-65" transform="matrix(.99626 0 0 .99626 387.444 0)"/><use xlink:href="#NimbusRomNo9L-Regu-28" transform="matrix(.99626 0 0 .99626 456.584 0)"/><use xlink:href="#NimbusRomNo9L-Regu-64" transform="matrix(.99626 0 0 .99626 489.759 0)"/><use xlink:href="#NimbusRomNo9L-Regu-42" transform="matrix(.99626 0 0 .99626 539.572 0)"/><use xlink:href="#NimbusRomNo9L-Regu-29" transform="matrix(.99626 0 0 .99626 606.022 0)"/></g></g><path id="line2d_123" d="m38.554 135.775 1.005.04.134-.057.134.027.536-.063.268.084.2-.157.202.251.2-.21.068.125.067-.052.2-.046.068.1.067-.077.067.027.134-.078.067.095.067-.048.268.024 3.55-.192.067.116.067-.041.067-.144.067.114.067.09.067-.085.2-.06.068.152.067-.18.067.114.134-.054.134.02.134-.14.067.21.067-.14.134.167.067-.061.134-.174.067.102.066-.092.268-.04.067-.023.134.177.402-.127.268.013.134-.024.402-.007 1.407-.118.134.02.134-.066.067.087.067-.079.536-.071.067.123.067-.05.067-.122.067.128.134-.114.2.094.068-.134.067.092.067.09.134-.167.401-.09.067.14.067-.034.134-.106.335.1.067-.113.067.04.268.018.402-.127.268.038 2.412-.212.067-.133.067.176.067-.106.335-.082.133.01.067-.065.067.157.067-.08.268-.033.268-.073.201-.087.067.162.067-.107.067.108.201-.177.067-.014.134.068.134-.03.134-.02.201-.095.067.11.067-.055.134-.031.201-.028.335-.03 1.407-.258.067.11.067-.128.067.152.2-.2.068.132.067-.154.067.058.2-.14.201.152.067.007.067-.22.067.125.067-.147.067.078.201.055.335-.208.067.181.134-.154.268-.038.067-.116.067.182.067-.117.67-.049.067-.1.067.081.201-.052 1.072-.19.67-.084.2-.082.336-.073.133-.007.268-.131.268.11.134-.148.134.018.268-.067.134.068.067-.095.067.093.134-.03.201-.189.201.008.067-.104.134.117.536-.22.2.108.135-.242.067.07.2-.036.537-.112 3.215-.716.067.118.201-.285.067.1.134-.125.268.014.067-.135.067.1.469-.113.469-.152.134-.083.536-.119 3.014-.783.067-.188.067.056.201-.035.2-.106.67-.239.068.085.067-.142.067.068.335-.132 1.406-.474.804-.291.134-.008.402-.167.134-.028.134-.106.201-.024.067-.15.067.118.134-.072.134-.03.67-.277.134.004.134-.16.134-.06 3.684-1.464.067-.17.067.083.134-.104.2-.111.068-.066.067.082.2-.186.135-.095.067.005.067.124.067-.061.134-.261.067.191.067-.092.2-.298.135.08.2.003.135-.149 2.21-1.128.201-.108.201-.264.067.146.201-.245.134.068.201-.231.201.107.134-.266.134.17.268-.507.2.272.135-.336.067.19.067-.316.067.26.134-.357.067.203.067-.136.268-.5.067.013.067.324.067-.218.067.225.134-.469.067.085.067-.138.067.075.2-.38.067.054.067.15.201-.266.067.137.201-.3.201-.028.201-.199.871-.598.067.012.201-.242.469-.336.067-.247.067.034.067.061.067-.115.067.229.2-.35.068.157.134-.407.067.028.067-.017.067.191.268-.614.067.308.067-.07.067.037.067-.778.067.586.067-.57.067.349.134-.167.067-.028.067.114.134-.292.067.131.134-.42.067.06.133-.292.067.328.067-.432.067.224.536-.663.067.126.201-.268.067.1.47-.616.602-.503.268-.324.134-.055.067.026.469-.588.067.094.2-.598.135.487.067-.762.067.13.067.212.067-.605.067.369.067.035.067-.694.067.53.067-.348.134-.147.134.284.2-.726.068-.05.067-.776.067.449.067.11.067-.053.067.04.066.247.268-.768.067.285.134-.576.067.109.067.337.134-.594.067.024.201-.478.067.26.268-.91.134.368.067-.672.067.341.201-.315.067.001.067-.413.067.15.134-.145.067-.27.067.082.402-.64.536-.653.134-.412.067.033.335-.667.067.11.134-.414.134-.077.067.218.067-1.105.067.322.134-.113.134-.157.067.05.067-.12.067-.58.067.062.067.245.133-.6.067-.019.067-.563.067.073.067.054.268-1.124.134.626.201-.864.067.172.067-.214.067.29.134-1.046.067-.003.067.12.201-.828.067-.03.067.164.067-.591.067.137.201-.8.067.234 2.077-6.28.067.084.2-1.47.068-.005.067-.193.067.66.067-.261.2-1.772.068-.221.067.045.066-1.191.067 1.08.201-2.579.067.59.201-1.734.067.597.067-1.513.067 2.013.067-3.235.067 2.248.067-3.692.067 4.029.067-4.479.067 2.954.067-4.951.067 5.343.067-6.788.067 5.083.067-5.714.067 4.388.067-6.3.067 5.366.067-5.298.067 3.748.067-6.304.067 4.525.067-4.564.067.837.268-6.21.067 3.73.201-9.45.067 7.483.067-10.455.067 8.138.067-11.201.067 9.985.067-15.64.067 18.672.2-29.54.068 34.474.2-60.626.068-6.387.067 6.387.2 60.626.068-34.475.067 22.126.067-13.636.067 21.051.067-18.672.067 15.64.067-9.985.067 11.2.067-8.137.067 10.455.067-7.483.2 9.45.068-3.73.067 2.145.2 4.065.067-.837.067 4.564.067-4.525.067 6.304.067-3.748.067 5.298.067-5.366.067 6.3.067-4.388.067 5.714.067-5.083.067 6.788.067-5.343.067 4.951.067-2.954.067 4.479.067-4.03.067 3.693.067-2.248.067 3.235.067-2.013.201 2.383.067-.294.067.562.067-.591.201 2.579.067-1.08.067 1.191.067-.045.067.221.268 2.034.067-.661.067.193.067.004.2 1.47.068-.083.335 1.278.067-.125.2.723 1.474 4.404.067-.233.201.799.067-.137.067.59.067-.163.067.03.201.827.134-.116.067.13.067.917.067-.291.067.214.067-.172.134.45.067.414.134-.626.067.056.201 1.068.067-.054.067-.073.134.582.067.12.067.48.067-.245.067-.062.134.7.134-.052.2.272.068-.322.067 1.105.067-.218.2.105.202.529.134.405.067-.094 1.206 1.775.067-.082.2.414.067-.149.201.591.067-.083.067.22.067-.342.067.672.067-.152.067-.216.067.539.067-.077.134.449.134-.255.134.472.067-.024.067.023.067.57.067-.336.067-.109.067.111.067.465.067-.285.268.768.067-.248.201-.096.067-.45.134.827.134.345.067.381.067-.143.067-.141.067.039.067.108.067.347.067-.53.067.695.067-.035.067-.369.067.605.067-.211.067-.13.067.76.067-.295.067-.19.2.597.068-.094.469.588.2.029.335.384.871.795.134.265.067-.101.201.268.067-.126.067.07.201.318.067-.052.201.327.067-.224.067.432.067-.328.067.106.268.546.067-.131.067.06.067.232.067-.114.2.195.068-.35.067.571.067-.587.067.779.067-.038.067.07.067-.307.134.448.067-.05.067.216.134-.174.067-.028.134.407.067-.156.134.137.067.212.067-.229.067.115.134-.095.2.426.202.187.134-.03.535.399 1.474 1.084.067-.149.067-.054.201.38.067-.075.067.138.067-.085.067.004.067.465.067-.225.067.218.134-.336.268.5.067.135.067-.203.134.357.067-.26.067.316.067-.19.067.02.067.316.067-.2.067.1.067-.172.067.129.134.218.134.16.134-.18.067.276.067-.098.2.162.068-.112.067.172.067-.052.066-.016.201.245.067-.146.201.264.134.013.201.155.335.17.871.438.134.04.134.178.067-.073.067.083.469.232.2.16.135-.015.067.038.067-.117.067.075.2.315.068-.191.067.14.134.182.134-.13.134.096.2.186.068-.082.067.066 1.741.83.268.112 1.005.385.402.183.134-.023.2.212.202.011.87.359.269.034.2.214.135-.044.067.088.067-.118.2.184.134-.014.201.138 5.292 1.808.067-.118.201.166.067-.08.067.087.268.026.067.122.067-.106.268.19.134.028.268.023.938.273.402.038.2.134.336.119.134.029.067-.1.067.057.2.127.068-.1.134.19.268-.087.2.189.335.015.067-.044.067.175.067-.118.201.129.067-.131.067.094.134.077.134.01.268.062.268.044.201.097 1.742.38.134.019.469.006.134.242.067-.102.2.047.135-.053.067.017.067.192.067-.057.2.066.067-.115.067.104 1.14.269.133-.08.134.126.201-.083.603.257.134-.046.268.066.134-.007.2.058.67.112 1.675.247.067.117.067-.182.067.116.201.035.134-.001.067.158.067-.18.067.088.067.08.067-.086.201.174.201-.182.067.147.067-.125.134.213.201-.151.067.129.067-.043.201.15.134-.144.268.187.134-.074.402.07 1.139.163.401.1.335-.044.201.083.134.03.067.032.201-.114.268.203.067-.162.067.09.134-.003.201.077.335.03.067.08.067-.158.067.066.536.177.067-.176.067.133.938.051.268-.022.402.088 2.01.25.066-.133.067.047.134-.039.134.154.134-.11.067.099.067-.047.201.008.067-.009.067.177.067-.09.067-.093.067.134.067-.097.268.117.067-.128.134.172.134-.14.2.158.068-.11.067.136.067-.103 2.277.17.134.024.134-.02.268.07.134-.048.201.099.134-.141.335.132.067-.102.067.085.134.15.134-.167.067.14.067-.21.067.08.2.04.202-.06.067.18.134-.15.268.053.067-.114.134.185.134-.137.134.076 2.68.087.267.013.201.028.134.005.469-.067.067-.035.2.162.135-.067.134.014.067.052.067-.126.2.211.202-.251.067.148.067-.041.134.006 1.942.018h0" clip-path="url(#pbbb4e66213)" style="fill:none;stroke:#000;stroke-linecap:square"/><path id="patch_3" d="M30.184 142.2V3.6" style="fill:none;stroke:#000;stroke-width:.5;stroke-linejoin:miter;stroke-linecap:square"/><path id="patch_4" d="M214.324 142.2V3.6" style="fill:none;stroke:#000;stroke-width:.5;stroke-linejoin:miter;stroke-linecap:square"/><path id="patch_5" d="M30.184 142.2h184.14" style="fill:none;stroke:#000;stroke-width:.5;stroke-linejoin:miter;stroke-linecap:square"/><path id="patch_6" d="M30.184 3.6h184.14" style="fill:none;stroke:#000;stroke-width:.5;stroke-linejoin:miter;stroke-linecap:square"/></g></g><defs><clipPath id="pbbb4e66213"><path d="M30.184 3.6h184.14v138.6H30.184z"/></clipPath></defs></svg>