<svg xmlns="http://www.w3.org/2000/svg" xmlns:xlink="http://www.w3.org/1999/xlink" width="290.566" height="226.843" viewBox="0 0 217.924 170.132"><defs><style>*{stroke-linejoin:round;stroke-linecap:butt}</style></defs><g id="figure_1"><path id="patch_1" d="M0 170.132h217.924V0H0z" style="fill:none"/><g id="axes_1"><path id="patch_2" d="M30.184 144.774h184.14V6.174H30.184z" style="fill:none"/><g id="matplotlib.axis_1"><g id="xtick_1"><g id="line2d_1"><defs><path id="m89e1a2c831" d="M0 0v-3" style="stroke:#000;stroke-width:.5"/></defs><use xlink:href="#m89e1a2c831" x="55.301" y="144.774" style="stroke:#000;stroke-width:.5"/></g><g id="line2d_2"><defs><path id="m958db5dc5c" d="M0 0v3" style="stroke:#000;stroke-width:.5"/></defs><use xlink:href="#m958db5dc5c" x="55.301" y="6.174" style="stroke:#000;stroke-width:.5"/></g><g id="text_1" transform="matrix(.08 0 0 -.08 47.116 153.677)"><defs><path id="CMSY10-0" d="M4218 1472c108 0 224 0 224 128s-116 128-224 128H755c-109 0-224 0-224-128s115-128 224-128z" transform="scale(.01563)"/><path id="NimbusRomNo9L-Regu-30" d="M1626 4352c-352 0-621-108-858-332-371-359-614-1095-614-1844 0-697 211-1446 512-1804C902 90 1229-64 1600-64c326 0 602 109 832 333 371 352 614 1095 614 1869 0 1312-582 2214-1420 2214m-20-166c538 0 826-723 826-2061 0-1337-282-2022-832-2022S768 788 768 2119c0 1357 288 2067 838 2067" transform="scale(.01563)"/><path id="CMMI10-3a" d="M1229 338c0 184-154 337-339 337-186 0-340-153-340-337C550 153 704 0 890 0c185 0 339 153 339 338" transform="scale(.01563)"/><path id="NimbusRomNo9L-Regu-34" d="M3021 1497h-653v2855h-282L77 1497v-409h1798V32h493v1056h653zm-1152 0H333l1536 2201z" transform="scale(.01563)"/></defs><use xlink:href="#CMSY10-0" transform="scale(.99626)"/><use xlink:href="#NimbusRomNo9L-Regu-30" transform="matrix(.99626 0 0 .99626 77.409 0)"/><use xlink:href="#CMMI10-3a" transform="matrix(.99626 0 0 .99626 127.222 0)"/><use xlink:href="#NimbusRomNo9L-Regu-34" transform="matrix(.99626 0 0 .99626 154.817 0)"/></g></g><g id="xtick_2"><use xlink:href="#m89e1a2c831" id="line2d_3" x="88.794" y="144.774" style="stroke:#000;stroke-width:.5"/><use xlink:href="#m958db5dc5c" id="line2d_4" x="88.794" y="6.174" style="stroke:#000;stroke-width:.5"/><g id="text_2" transform="matrix(.08 0 0 -.08 80.61 153.677)"><defs><path id="NimbusRomNo9L-Regu-32" d="m3040 875-83 32c-237-363-320-421-608-421H819l1075 1123c570 593 820 1078 820 1576 0 638-519 1128-1184 1128-352 0-685-140-922-395-205-218-301-422-410-875l135-32c256 625 486 829 928 829 537 0 902-364 902-900 0-497-294-1090-832-1658L192 77V0h2496z" transform="scale(.01563)"/></defs><use xlink:href="#CMSY10-0" transform="scale(.99626)"/><use xlink:href="#NimbusRomNo9L-Regu-30" transform="matrix(.99626 0 0 .99626 77.409 0)"/><use xlink:href="#CMMI10-3a" transform="matrix(.99626 0 0 .99626 127.222 0)"/><use xlink:href="#NimbusRomNo9L-Regu-32" transform="matrix(.99626 0 0 .99626 154.817 0)"/></g></g><g id="xtick_3"><use xlink:href="#m89e1a2c831" id="line2d_5" x="122.288" y="144.774" style="stroke:#000;stroke-width:.5"/><use xlink:href="#m958db5dc5c" id="line2d_6" x="122.288" y="6.174" style="stroke:#000;stroke-width:.5"/><g id="text_3" transform="matrix(.08 0 0 -.08 117.199 153.677)"><use xlink:href="#NimbusRomNo9L-Regu-30" transform="scale(.99626)"/><use xlink:href="#CMMI10-3a" transform="matrix(.99626 0 0 .99626 49.813 0)"/><use xlink:href="#NimbusRomNo9L-Regu-30" transform="matrix(.99626 0 0 .99626 77.409 0)"/></g></g><g id="xtick_4"><use xlink:href="#m89e1a2c831" id="line2d_7" x="155.781" y="144.774" style="stroke:#000;stroke-width:.5"/><use xlink:href="#m958db5dc5c" id="line2d_8" x="155.781" y="6.174" style="stroke:#000;stroke-width:.5"/><g id="text_4" transform="matrix(.08 0 0 -.08 150.692 153.677)"><use xlink:href="#NimbusRomNo9L-Regu-30" transform="scale(.99626)"/><use xlink:href="#CMMI10-3a" transform="matrix(.99626 0 0 .99626 49.813 0)"/><use xlink:href="#NimbusRomNo9L-Regu-32" transform="matrix(.99626 0 0 .99626 77.409 0)"/></g></g><g id="xtick_5"><use xlink:href="#m89e1a2c831" id="line2d_9" x="189.275" y="144.774" style="stroke:#000;stroke-width:.5"/><use xlink:href="#m958db5dc5c" id="line2d_10" x="189.275" y="6.174" style="stroke:#000;stroke-width:.5"/><g id="text_5" transform="matrix(.08 0 0 -.08 184.186 153.677)"><use xlink:href="#NimbusRomNo9L-Regu-30" transform="scale(.99626)"/><use xlink:href="#CMMI10-3a" transform="matrix(.99626 0 0 .99626 49.813 0)"/><use xlink:href="#NimbusRomNo9L-Regu-34" transform="matrix(.99626 0 0 .99626 77.409 0)"/></g></g><g id="xtick_6"><g id="line2d_11"><defs><path id="m37fb09faeb" d="M0 0v-1.5" style="stroke:#000;stroke-width:.5"/></defs><use xlink:href="#m37fb09faeb" x="38.554" y="144.774" style="stroke:#000;stroke-width:.5"/></g><g id="line2d_12"><defs><path id="m673f9f8abc" d="M0 0v1.5" style="stroke:#000;stroke-width:.5"/></defs><use xlink:href="#m673f9f8abc" x="38.554" y="6.174" style="stroke:#000;stroke-width:.5"/></g></g><g id="xtick_7"><use xlink:href="#m37fb09faeb" id="line2d_13" x="46.928" y="144.774" style="stroke:#000;stroke-width:.5"/><use xlink:href="#m673f9f8abc" id="line2d_14" x="46.928" y="6.174" style="stroke:#000;stroke-width:.5"/></g><g id="xtick_8"><use xlink:href="#m37fb09faeb" id="line2d_15" x="63.674" y="144.774" style="stroke:#000;stroke-width:.5"/><use xlink:href="#m673f9f8abc" id="line2d_16" x="63.674" y="6.174" style="stroke:#000;stroke-width:.5"/></g><g id="xtick_9"><use xlink:href="#m37fb09faeb" id="line2d_17" x="72.048" y="144.774" style="stroke:#000;stroke-width:.5"/><use xlink:href="#m673f9f8abc" id="line2d_18" x="72.048" y="6.174" style="stroke:#000;stroke-width:.5"/></g><g id="xtick_10"><use xlink:href="#m37fb09faeb" id="line2d_19" x="80.421" y="144.774" style="stroke:#000;stroke-width:.5"/><use xlink:href="#m673f9f8abc" id="line2d_20" x="80.421" y="6.174" style="stroke:#000;stroke-width:.5"/></g><g id="xtick_11"><use xlink:href="#m37fb09faeb" id="line2d_21" x="97.168" y="144.774" style="stroke:#000;stroke-width:.5"/><use xlink:href="#m673f9f8abc" id="line2d_22" x="97.168" y="6.174" style="stroke:#000;stroke-width:.5"/></g><g id="xtick_12"><use xlink:href="#m37fb09faeb" id="line2d_23" x="105.541" y="144.774" style="stroke:#000;stroke-width:.5"/><use xlink:href="#m673f9f8abc" id="line2d_24" x="105.541" y="6.174" style="stroke:#000;stroke-width:.5"/></g><g id="xtick_13"><use xlink:href="#m37fb09faeb" id="line2d_25" x="113.914" y="144.774" style="stroke:#000;stroke-width:.5"/><use xlink:href="#m673f9f8abc" id="line2d_26" x="113.914" y="6.174" style="stroke:#000;stroke-width:.5"/></g><g id="xtick_14"><use xlink:href="#m37fb09faeb" id="line2d_27" x="130.661" y="144.774" style="stroke:#000;stroke-width:.5"/><use xlink:href="#m673f9f8abc" id="line2d_28" x="130.661" y="6.174" style="stroke:#000;stroke-width:.5"/></g><g id="xtick_15"><use xlink:href="#m37fb09faeb" id="line2d_29" x="139.034" y="144.774" style="stroke:#000;stroke-width:.5"/><use xlink:href="#m673f9f8abc" id="line2d_30" x="139.034" y="6.174" style="stroke:#000;stroke-width:.5"/></g><g id="xtick_16"><use xlink:href="#m37fb09faeb" id="line2d_31" x="147.408" y="144.774" style="stroke:#000;stroke-width:.5"/><use xlink:href="#m673f9f8abc" id="line2d_32" x="147.408" y="6.174" style="stroke:#000;stroke-width:.5"/></g><g id="xtick_17"><use xlink:href="#m37fb09faeb" id="line2d_33" x="164.155" y="144.774" style="stroke:#000;stroke-width:.5"/><use xlink:href="#m673f9f8abc" id="line2d_34" x="164.155" y="6.174" style="stroke:#000;stroke-width:.5"/></g><g id="xtick_18"><use xlink:href="#m37fb09faeb" id="line2d_35" x="172.528" y="144.774" style="stroke:#000;stroke-width:.5"/><use xlink:href="#m673f9f8abc" id="line2d_36" x="172.528" y="6.174" style="stroke:#000;stroke-width:.5"/></g><g id="xtick_19"><use xlink:href="#m37fb09faeb" id="line2d_37" x="180.901" y="144.774" style="stroke:#000;stroke-width:.5"/><use xlink:href="#m673f9f8abc" id="line2d_38" x="180.901" y="6.174" style="stroke:#000;stroke-width:.5"/></g><g id="xtick_20"><use xlink:href="#m37fb09faeb" id="line2d_39" x="197.648" y="144.774" style="stroke:#000;stroke-width:.5"/><use xlink:href="#m673f9f8abc" id="line2d_40" x="197.648" y="6.174" style="stroke:#000;stroke-width:.5"/></g><g id="xtick_21"><use xlink:href="#m37fb09faeb" id="line2d_41" x="206.021" y="144.774" style="stroke:#000;stroke-width:.5"/><use xlink:href="#m673f9f8abc" id="line2d_42" x="206.021" y="6.174" style="stroke:#000;stroke-width:.5"/></g><g id="text_6" transform="matrix(.08 0 0 -.08 109.753 164.807)"><defs><path id="NimbusRomNo9L-Regu-66" d="M1978 2880h-788v731c0 367 122 562 365 562 135 0 224-63 339-246 103-164 180-227 288-227 148 0 269 114 269 259 0 229-281 393-665 393-397 0-736-171-903-461-166-278-217-506-224-1011H134v-205h525V656c0-471-70-547-531-547V0h1664v109c-525 0-595 71-595 552v2014h781z" transform="scale(.01563)"/><path id="NimbusRomNo9L-Regu-28" d="M1888 4326c-474-307-666-473-902-768-455-556-679-1196-679-1945 0-813 237-1440 800-2093 263-307 429-448 762-653l77 103c-512 403-692 627-864 1107-154 429-224 915-224 1555 0 672 83 1197 256 1594 179 396 371 627 832 998z" transform="scale(.01563)"/><path id="NimbusRomNo9L-Regu-47" d="M4538 2304H2906v-128c275 0 352-19 428-71 96-58 135-207 135-484V574c0-207-391-382-851-382-1044 0-1684 730-1684 1920 0 602 180 1184 461 1498 282 314 679 486 1114 486 358 0 672-121 921-352 192-179 295-352 455-742h147l-51 1350h-141c-38-121-154-211-288-211-64 0-166 19-282 64-288 96-582 147-870 147-1280 0-2195-940-2195-2246 0-627 173-1107 531-1485C1165 180 1779-64 2483-64c551 0 1351 224 1607 449v1309c0 379 76 463 448 495z" transform="scale(.01563)"/><path id="NimbusRomNo9L-Regu-48" d="M1338 2304v1229c0 457 70 526 563 571v120H122v-120c492-45 563-115 563-577V749c0-539-64-615-563-615V0h1779v121c-480 38-563 121-563 578v1323h1939V757c0-546-64-623-563-623V0h1779v121c-480 38-563 121-563 575v2833c0 460 70 530 563 575v120H2714v-120c492-45 563-114 563-571V2304z" transform="scale(.01563)"/><path id="NimbusRomNo9L-Regu-7a" d="m2675 864-115 26c-64-320-102-423-186-532-89-108-307-166-633-166H858l1721 2592v96H358l-19-755h115c58 467 154 563 538 563h883L173 96V0h2413z" transform="scale(.01563)"/><path id="NimbusRomNo9L-Regu-29" d="M243-1133c474 307 666 474 903 768 454 557 678 1197 678 1946 0 819-237 1440-800 2093-262 307-429 448-762 652l-76-102c512-403 684-627 864-1107 153-429 224-915 224-1555 0-666-84-1197-256-1588-180-403-372-633-832-1004z" transform="scale(.01563)"/></defs><use xlink:href="#NimbusRomNo9L-Regu-66" transform="scale(.99626)"/><use xlink:href="#NimbusRomNo9L-Regu-28" transform="matrix(.99626 0 0 .99626 58.082 0)"/><use xlink:href="#NimbusRomNo9L-Regu-47" transform="matrix(.99626 0 0 .99626 91.257 0)"/><use xlink:href="#NimbusRomNo9L-Regu-48" transform="matrix(.99626 0 0 .99626 163.187 0)"/><use xlink:href="#NimbusRomNo9L-Regu-7a" transform="matrix(.99626 0 0 .99626 235.117 0)"/><use xlink:href="#NimbusRomNo9L-Regu-29" transform="matrix(.99626 0 0 .99626 279.35 0)"/></g></g><g id="matplotlib.axis_2"><g id="ytick_1"><g id="line2d_43"><defs><path id="maf295e3582" d="M0 0h3" style="stroke:#000;stroke-width:.5"/></defs><use xlink:href="#maf295e3582" x="30.184" y="126.875" style="stroke:#000;stroke-width:.5"/></g><g id="line2d_44"><defs><path id="m8595edfa7e" d="M0 0h-3" style="stroke:#000;stroke-width:.5"/></defs><use xlink:href="#m8595edfa7e" x="214.324" y="126.875" style="stroke:#000;stroke-width:.5"/></g><g id="text_7" transform="matrix(.08 0 0 -.08 18.714 129.577)"><defs><path id="NimbusRomNo9L-Regu-35" d="M1158 3776h1255c102 0 128 13 147 58l243 569-57 45c-96-134-160-166-295-166H1114L416 2759c-6-13-6-19-6-32 0-32 25-51 76-51 205 0 461-45 724-129 736-238 1075-637 1075-1273 0-618-391-1101-890-1101-128 0-237 45-429 187-204 148-352 212-486 212-186 0-275-77-275-238C205 90 506-64 986-64c537 0 998 174 1318 502 294 290 429 656 429 1145 0 463-122 759-442 1080-281 284-646 431-1401 566z" transform="scale(.01563)"/></defs><use xlink:href="#NimbusRomNo9L-Regu-32" transform="scale(.99626)"/><use xlink:href="#NimbusRomNo9L-Regu-35" transform="matrix(.99626 0 0 .99626 49.813 0)"/></g></g><g id="ytick_2"><use xlink:href="#maf295e3582" id="line2d_45" x="30.184" y="106.779" style="stroke:#000;stroke-width:.5"/><use xlink:href="#m8595edfa7e" id="line2d_46" x="214.324" y="106.779" style="stroke:#000;stroke-width:.5"/><g id="text_8" transform="matrix(.08 0 0 -.08 18.714 109.481)"><use xlink:href="#NimbusRomNo9L-Regu-35" transform="scale(.99626)"/><use xlink:href="#NimbusRomNo9L-Regu-30" transform="matrix(.99626 0 0 .99626 49.813 0)"/></g></g><g id="ytick_3"><use xlink:href="#maf295e3582" id="line2d_47" x="30.184" y="86.684" style="stroke:#000;stroke-width:.5"/><use xlink:href="#m8595edfa7e" id="line2d_48" x="214.324" y="86.684" style="stroke:#000;stroke-width:.5"/><g id="text_9" transform="matrix(.08 0 0 -.08 18.714 89.386)"><defs><path id="NimbusRomNo9L-Regu-37" d="M2874 4250H506l-378-940 109-52c275 435 390 518 742 518h1389L1101-32h416l1357 4180z" transform="scale(.01563)"/></defs><use xlink:href="#NimbusRomNo9L-Regu-37" transform="scale(.99626)"/><use xlink:href="#NimbusRomNo9L-Regu-35" transform="matrix(.99626 0 0 .99626 49.813 0)"/></g></g><g id="ytick_4"><use xlink:href="#maf295e3582" id="line2d_49" x="30.184" y="66.588" style="stroke:#000;stroke-width:.5"/><use xlink:href="#m8595edfa7e" id="line2d_50" x="214.324" y="66.588" style="stroke:#000;stroke-width:.5"/><g id="text_10" transform="matrix(.08 0 0 -.08 14.73 69.29)"><defs><path id="NimbusRomNo9L-Regu-31" d="M1862 4339 710 3757v-90c77 32 148 58 173 71 115 45 224 70 288 70 135 0 192-97 192-303V592c0-213-51-360-153-419-96-57-186-77-455-77V0h1767v96c-506 0-608 64-608 374v3857z" transform="scale(.01563)"/></defs><use xlink:href="#NimbusRomNo9L-Regu-31" transform="scale(.99626)"/><use xlink:href="#NimbusRomNo9L-Regu-30" transform="matrix(.99626 0 0 .99626 49.813 0)"/><use xlink:href="#NimbusRomNo9L-Regu-30" transform="matrix(.99626 0 0 .99626 99.626 0)"/></g></g><g id="ytick_5"><use xlink:href="#maf295e3582" id="line2d_51" x="30.184" y="46.493" style="stroke:#000;stroke-width:.5"/><use xlink:href="#m8595edfa7e" id="line2d_52" x="214.324" y="46.493" style="stroke:#000;stroke-width:.5"/><g id="text_11" transform="matrix(.08 0 0 -.08 14.73 49.195)"><use xlink:href="#NimbusRomNo9L-Regu-31" transform="scale(.99626)"/><use xlink:href="#NimbusRomNo9L-Regu-32" transform="matrix(.99626 0 0 .99626 49.813 0)"/><use xlink:href="#NimbusRomNo9L-Regu-35" transform="matrix(.99626 0 0 .99626 99.626 0)"/></g></g><g id="ytick_6"><use xlink:href="#maf295e3582" id="line2d_53" x="30.184" y="26.397" style="stroke:#000;stroke-width:.5"/><use xlink:href="#m8595edfa7e" id="line2d_54" x="214.324" y="26.397" style="stroke:#000;stroke-width:.5"/><g id="text_12" transform="matrix(.08 0 0 -.08 14.73 29.1)"><use xlink:href="#NimbusRomNo9L-Regu-31" transform="scale(.99626)"/><use xlink:href="#NimbusRomNo9L-Regu-35" transform="matrix(.99626 0 0 .99626 49.813 0)"/><use xlink:href="#NimbusRomNo9L-Regu-30" transform="matrix(.99626 0 0 .99626 99.626 0)"/></g></g><g id="ytick_7"><use xlink:href="#maf295e3582" id="line2d_55" x="30.184" y="6.302" style="stroke:#000;stroke-width:.5"/><use xlink:href="#m8595edfa7e" id="line2d_56" x="214.324" y="6.302" style="stroke:#000;stroke-width:.5"/><g id="text_13" transform="matrix(.08 0 0 -.08 14.73 9.004)"><use xlink:href="#NimbusRomNo9L-Regu-31" transform="scale(.99626)"/><use xlink:href="#NimbusRomNo9L-Regu-37" transform="matrix(.99626 0 0 .99626 49.813 0)"/><use xlink:href="#NimbusRomNo9L-Regu-35" transform="matrix(.99626 0 0 .99626 99.626 0)"/></g></g><g id="ytick_8"><g id="line2d_57"><defs><path id="m84b04ad4fe" d="M0 0h1.5" style="stroke:#000;stroke-width:.5"/></defs><use xlink:href="#m84b04ad4fe" x="30.184" y="142.951" style="stroke:#000;stroke-width:.5"/></g><g id="line2d_58"><defs><path id="me85d11052f" d="M0 0h-1.5" style="stroke:#000;stroke-width:.5"/></defs><use xlink:href="#me85d11052f" x="214.324" y="142.951" style="stroke:#000;stroke-width:.5"/></g></g><g id="ytick_9"><use xlink:href="#m84b04ad4fe" id="line2d_59" x="30.184" y="138.932" style="stroke:#000;stroke-width:.5"/><use xlink:href="#me85d11052f" id="line2d_60" x="214.324" y="138.932" style="stroke:#000;stroke-width:.5"/></g><g id="ytick_10"><use xlink:href="#m84b04ad4fe" id="line2d_61" x="30.184" y="134.913" style="stroke:#000;stroke-width:.5"/><use xlink:href="#me85d11052f" id="line2d_62" x="214.324" y="134.913" style="stroke:#000;stroke-width:.5"/></g><g id="ytick_11"><use xlink:href="#m84b04ad4fe" id="line2d_63" x="30.184" y="130.894" style="stroke:#000;stroke-width:.5"/><use xlink:href="#me85d11052f" id="line2d_64" x="214.324" y="130.894" style="stroke:#000;stroke-width:.5"/></g><g id="ytick_12"><use xlink:href="#m84b04ad4fe" id="line2d_65" x="30.184" y="122.856" style="stroke:#000;stroke-width:.5"/><use xlink:href="#me85d11052f" id="line2d_66" x="214.324" y="122.856" style="stroke:#000;stroke-width:.5"/></g><g id="ytick_13"><use xlink:href="#m84b04ad4fe" id="line2d_67" x="30.184" y="118.837" style="stroke:#000;stroke-width:.5"/><use xlink:href="#me85d11052f" id="line2d_68" x="214.324" y="118.837" style="stroke:#000;stroke-width:.5"/></g><g id="ytick_14"><use xlink:href="#m84b04ad4fe" id="line2d_69" x="30.184" y="114.818" style="stroke:#000;stroke-width:.5"/><use xlink:href="#me85d11052f" id="line2d_70" x="214.324" y="114.818" style="stroke:#000;stroke-width:.5"/></g><g id="ytick_15"><use xlink:href="#m84b04ad4fe" id="line2d_71" x="30.184" y="110.798" style="stroke:#000;stroke-width:.5"/><use xlink:href="#me85d11052f" id="line2d_72" x="214.324" y="110.798" style="stroke:#000;stroke-width:.5"/></g><g id="ytick_16"><use xlink:href="#m84b04ad4fe" id="line2d_73" x="30.184" y="102.76" style="stroke:#000;stroke-width:.5"/><use xlink:href="#me85d11052f" id="line2d_74" x="214.324" y="102.76" style="stroke:#000;stroke-width:.5"/></g><g id="ytick_17"><use xlink:href="#m84b04ad4fe" id="line2d_75" x="30.184" y="98.741" style="stroke:#000;stroke-width:.5"/><use xlink:href="#me85d11052f" id="line2d_76" x="214.324" y="98.741" style="stroke:#000;stroke-width:.5"/></g><g id="ytick_18"><use xlink:href="#m84b04ad4fe" id="line2d_77" x="30.184" y="94.722" style="stroke:#000;stroke-width:.5"/><use xlink:href="#me85d11052f" id="line2d_78" x="214.324" y="94.722" style="stroke:#000;stroke-width:.5"/></g><g id="ytick_19"><use xlink:href="#m84b04ad4fe" id="line2d_79" x="30.184" y="90.703" style="stroke:#000;stroke-width:.5"/><use xlink:href="#me85d11052f" id="line2d_80" x="214.324" y="90.703" style="stroke:#000;stroke-width:.5"/></g><g id="ytick_20"><use xlink:href="#m84b04ad4fe" id="line2d_81" x="30.184" y="82.665" style="stroke:#000;stroke-width:.5"/><use xlink:href="#me85d11052f" id="line2d_82" x="214.324" y="82.665" style="stroke:#000;stroke-width:.5"/></g><g id="ytick_21"><use xlink:href="#m84b04ad4fe" id="line2d_83" x="30.184" y="78.646" style="stroke:#000;stroke-width:.5"/><use xlink:href="#me85d11052f" id="line2d_84" x="214.324" y="78.646" style="stroke:#000;stroke-width:.5"/></g><g id="ytick_22"><use xlink:href="#m84b04ad4fe" id="line2d_85" x="30.184" y="74.627" style="stroke:#000;stroke-width:.5"/><use xlink:href="#me85d11052f" id="line2d_86" x="214.324" y="74.627" style="stroke:#000;stroke-width:.5"/></g><g id="ytick_23"><use xlink:href="#m84b04ad4fe" id="line2d_87" x="30.184" y="70.607" style="stroke:#000;stroke-width:.5"/><use xlink:href="#me85d11052f" id="line2d_88" x="214.324" y="70.607" style="stroke:#000;stroke-width:.5"/></g><g id="ytick_24"><use xlink:href="#m84b04ad4fe" id="line2d_89" x="30.184" y="62.569" style="stroke:#000;stroke-width:.5"/><use xlink:href="#me85d11052f" id="line2d_90" x="214.324" y="62.569" style="stroke:#000;stroke-width:.5"/></g><g id="ytick_25"><use xlink:href="#m84b04ad4fe" id="line2d_91" x="30.184" y="58.55" style="stroke:#000;stroke-width:.5"/><use xlink:href="#me85d11052f" id="line2d_92" x="214.324" y="58.55" style="stroke:#000;stroke-width:.5"/></g><g id="ytick_26"><use xlink:href="#m84b04ad4fe" id="line2d_93" x="30.184" y="54.531" style="stroke:#000;stroke-width:.5"/><use xlink:href="#me85d11052f" id="line2d_94" x="214.324" y="54.531" style="stroke:#000;stroke-width:.5"/></g><g id="ytick_27"><use xlink:href="#m84b04ad4fe" id="line2d_95" x="30.184" y="50.512" style="stroke:#000;stroke-width:.5"/><use xlink:href="#me85d11052f" id="line2d_96" x="214.324" y="50.512" style="stroke:#000;stroke-width:.5"/></g><g id="ytick_28"><use xlink:href="#m84b04ad4fe" id="line2d_97" x="30.184" y="42.474" style="stroke:#000;stroke-width:.5"/><use xlink:href="#me85d11052f" id="line2d_98" x="214.324" y="42.474" style="stroke:#000;stroke-width:.5"/></g><g id="ytick_29"><use xlink:href="#m84b04ad4fe" id="line2d_99" x="30.184" y="38.455" style="stroke:#000;stroke-width:.5"/><use xlink:href="#me85d11052f" id="line2d_100" x="214.324" y="38.455" style="stroke:#000;stroke-width:.5"/></g><g id="ytick_30"><use xlink:href="#m84b04ad4fe" id="line2d_101" x="30.184" y="34.436" style="stroke:#000;stroke-width:.5"/><use xlink:href="#me85d11052f" id="line2d_102" x="214.324" y="34.436" style="stroke:#000;stroke-width:.5"/></g><g id="ytick_31"><use xlink:href="#m84b04ad4fe" id="line2d_103" x="30.184" y="30.416" style="stroke:#000;stroke-width:.5"/><use xlink:href="#me85d11052f" id="line2d_104" x="214.324" y="30.416" style="stroke:#000;stroke-width:.5"/></g><g id="ytick_32"><use xlink:href="#m84b04ad4fe" id="line2d_105" x="30.184" y="22.378" style="stroke:#000;stroke-width:.5"/><use xlink:href="#me85d11052f" id="line2d_106" x="214.324" y="22.378" style="stroke:#000;stroke-width:.5"/></g><g id="ytick_33"><use xlink:href="#m84b04ad4fe" id="line2d_107" x="30.184" y="18.359" style="stroke:#000;stroke-width:.5"/><use xlink:href="#me85d11052f" id="line2d_108" x="214.324" y="18.359" style="stroke:#000;stroke-width:.5"/></g><g id="ytick_34"><use xlink:href="#m84b04ad4fe" id="line2d_109" x="30.184" y="14.34" style="stroke:#000;stroke-width:.5"/><use xlink:href="#me85d11052f" id="line2d_110" x="214.324" y="14.34" style="stroke:#000;stroke-width:.5"/></g><g id="ytick_35"><use xlink:href="#m84b04ad4fe" id="line2d_111" x="30.184" y="10.321" style="stroke:#000;stroke-width:.5"/><use xlink:href="#me85d11052f" id="line2d_112" x="214.324" y="10.321" style="stroke:#000;stroke-width:.5"/></g><g id="text_14" transform="matrix(0 -.08 -.08 0 9.004 101.042)"><defs><path id="NimbusRomNo9L-Regu-4d" d="M4314 3667V751c0-534-77-617-583-617V0h1792v134c-467 0-557 89-557 547v2855c0 457 84 541 557 579v122H4250L2835 1004 1357 4237H90v-141c524 0 608-77 608-546V943c0-661-90-784-621-822V0h1504v134c-493 0-602 148-602 797v2589L2586 0h89z" transform="scale(.01563)"/><path id="NimbusRomNo9L-Regu-61" d="M2829 423c-109-90-186-122-282-122-147 0-192 89-192 371v1248c0 333-32 518-128 672-141 230-416 352-793 352-602 0-1076-314-1076-717 0-147 128-275 276-275 153 0 288 128 288 269 0 25-7 57-13 102-13 58-19 109-19 154 0 173 204 313 460 313 314 0 487-185 487-531v-390c-986-397-1095-448-1370-691-141-128-230-346-230-557 0-403 281-685 672-685 281 0 544 134 934 467 32-333 147-467 410-467 217 0 352 77 576 320zm-992 360c0-199-32-257-167-334-153-90-332-148-467-148-224 0-403 219-403 495v26c0 379 262 611 1037 893z" transform="scale(.01563)"/><path id="NimbusRomNo9L-Regu-67" d="M3008 2496v250h-493c-128 0-224 17-352 56l-141 45c-172 56-345 84-512 84-595 0-1068-464-1068-1050 0-405 172-651 595-863-122-112-237-219-275-250-212-180-295-305-295-430 0-132 77-207 339-332-454-335-627-549-627-787 0-343 499-627 1107-627 480 0 980 170 1312 446 244 203 352 414 352 663 0 407-300 683-774 683h-826c-339 0-499 59-499 164 0 130 211 360 384 412 58-7 103-13 122-13 121-13 205-19 243-19 237 0 493 98 691 275 211 184 307 414 307 742 0 190-32 341-121 551zM941-13c211-45 723-83 1037-83 582 0 793-84 793-318 0-377-486-629-1209-629-564 0-935 188-935 473 0 150 45 234 314 557m32 2158c0 381 179 607 473 607 199 0 365-110 468-303 115-226 192-522 192-774 0-361-186-587-480-587-384 0-653 419-653 1038z" transform="scale(.01563)"/><path id="NimbusRomNo9L-Regu-6e" d="M102 2579c39 19 103 26 173 26 179 0 237-96 237-410V608c0-365-70-454-397-480V32h1357v96c-326 26-422 102-422 333v1798c307 288 448 365 659 365 313 0 467-198 467-621V666c0-404-83-512-403-538V32h1331v96c-314 32-390 109-390 422v1466c0 602-282 960-756 960-294 0-492-109-928-518v505l-44 13c-314-115-532-186-884-288z" transform="scale(.01563)"/><path id="NimbusRomNo9L-Regu-69" d="m1120 2929-992-350v-95l51 6c77 12 160 19 218 19 153 0 211-103 211-384V640c0-461-64-531-506-531V0h1517v96c-422 32-473 95-473 554v2260zM819 4352c-173 0-320-147-320-326s141-327 320-327c186 0 333 141 333 327 0 179-147 326-333 326" transform="scale(.01563)"/><path id="NimbusRomNo9L-Regu-74" d="M1632 2880H986v742c0 64-7 84-45 84-45-58-83-116-128-180-243-352-519-659-621-685-70-47-109-93-109-126 0-20 7-33 26-33h339V751c0-539 192-815 570-815 313 0 556 154 768 487l-84 70c-134-160-243-224-384-224-236 0-332 174-332 578v1835h646z" transform="scale(.01563)"/><path id="NimbusRomNo9L-Regu-75" d="M3066 320h-32c-295 0-365 70-365 365v2195H1658v-122c396 0 473-64 473-383V875c0-178-32-268-121-338-173-140-372-217-564-217-249 0-454 217-454 485v2075H58v-102c307 0 396-96 396-391V770c0-507 308-834 775-834 237 0 486 102 659 275l275 275V-45l26-13c320 128 550 199 877 288z" transform="scale(.01563)"/><path id="NimbusRomNo9L-Regu-64" d="m2202-64 940 333v96h-147c-230 0-281 70-281 366v3633l-32 13c-308-109-532-173-941-281v-102c51 6 89 6 141 6 236 0 294-64 294-328V2669c-243 205-416 275-672 275-736 0-1331-723-1331-1632C173 493 653-64 1357-64c358 0 601 128 819 429V-45zm-26 717c0-45-45-122-109-192-115-128-275-192-461-192-531 0-883 512-883 1299 0 723 314 1197 800 1197 339 0 653-301 653-640z" transform="scale(.01563)"/><path id="NimbusRomNo9L-Regu-65" d="M2611 1053c-307-489-582-675-992-675-365 0-640 186-825 552-116 244-160 456-173 849h1971c-51 414-115 598-275 802-192 230-487 363-819 363-320 0-621-115-864-333-301-262-474-717-474-1241C160 486 621-64 1357-64c608 0 1088 379 1357 1072zM634 1984c70 495 288 730 678 730s544-179 627-730z" transform="scale(.01563)"/><path id="NimbusRomNo9L-Regu-42" d="M109 4237v-141c537 0 614-70 614-548V689c0-477-83-561-614-561V0h2137c500 0 954 136 1191 356 230 208 358 499 358 809 0 286-115 545-313 732-192 175-365 253-781 356 333 82 467 145 621 278 160 140 256 372 256 632 0 708-570 1074-1677 1074zm1267-2125c621 0 915-32 1146-130 364-155 537-414 537-823 0-350-134-604-390-753-205-116-467-168-890-168-313 0-403 58-403 266zm0 256v1444c0 132 45 189 141 189h281c736 0 1127-302 1127-864 0-491-339-769-941-769z" transform="scale(.01563)"/></defs><use xlink:href="#NimbusRomNo9L-Regu-4d" transform="scale(.99626)"/><use xlink:href="#NimbusRomNo9L-Regu-61" transform="matrix(.99626 0 0 .99626 88.567 0)"/><use xlink:href="#NimbusRomNo9L-Regu-67" transform="matrix(.99626 0 0 .99626 132.8 0)"/><use xlink:href="#NimbusRomNo9L-Regu-6e" transform="matrix(.99626 0 0 .99626 182.614 0)"/><use xlink:href="#NimbusRomNo9L-Regu-69" transform="matrix(.99626 0 0 .99626 232.427 0)"/><use xlink:href="#NimbusRomNo9L-Regu-74" transform="matrix(.99626 0 0 .99626 260.122 0)"/><use xlink:href="#NimbusRomNo9L-Regu-75" transform="matrix(.99626 0 0 .99626 287.817 0)"/><use xlink:href="#NimbusRomNo9L-Regu-64" transform="matrix(.99626 0 0 .99626 337.63 0)"/><use xlink:href="#NimbusRomNo9L-Regu-65" transform="matrix(.99626 0 0 .99626 387.444 0)"/><use xlink:href="#NimbusRomNo9L-Regu-28" transform="matrix(.99626 0 0 .99626 456.584 0)"/><use xlink:href="#NimbusRomNo9L-Regu-64" transform="matrix(.99626 0 0 .99626 489.759 0)"/><use xlink:href="#NimbusRomNo9L-Regu-42" transform="matrix(.99626 0 0 .99626 539.572 0)"/><use xlink:href="#NimbusRomNo9L-Regu-29" transform="matrix(.99626 0 0 .99626 606.022 0)"/></g></g><path id="line2d_113" d="m38.554 132.06 2.68.008.067-.136.067.14.067-.174.067.124.2-.015.068.19.067-.177.067.114.469-.22.067.171.067-.137.066.1.268-.095.067.091.067-.066.201.047.268-.078.335.057.268-.034 6.498-.295.2-.071.403.029 1.206-.135.067-.12.067.167.067-.103.134.05 1.004-.092.067.07.067-.112.067.078.201-.074.067.062.134-.102.47.005.2-.029.402-.053 2.345-.275.066.099.067-.084.402-.098.134.092.201-.11.201.049.134-.125.201.12.067-.141.067.057.201-.048.067.08.067-.163.067.07.134-.063.134-.003.402-.037 1.675-.233.134.035.134-.042.402.025.134-.126 1.138-.095.134-.136.067.105.134-.18.201.088.134-.14.134.12.134-.067.67-.113.2-.01.403-.077.335-.075 1.54-.371.067-.052.134.124.201-.119.201.104.268-.234.536.053.134-.093.067.157.067-.25.067.135.201-.204.268.088.134-.074.067.012.067-.108.067.07.134-.05.067-.096.067.083.268.02.067-.157.067.047.2-.046.269-.075.536-.088.469-.125.401.027.067-.16.067.028.335-.058.201-.166.134.201.067-.234.067.093.067-.128.067.122.067-.25.067.17.067.16.067-.12.067-.03.134-.151.067.113.067-.12.067.095.134-.21.067.182.067-.192.067.043.134-.045.067.08.201-.2.2.037.068-.191.067.161.067-.098.067.11.067-.05.067.026.134-.113.2-.046.135-.029 2.68-.788.133.073.268-.185h.201l.067-.192.067.04.268.1.201-.213.067-.05.067.139.134-.17.067.058.067-.15.067.151.067-.07.134-.006.2-.11 1.073-.351.134-.022 1.071-.375.201-.024.536-.246.067.058.067-.087 1.139-.384.067-.1.067.116.134-.2.067.058.134-.171.134.093.268-.143.067-.04.067.111.067-.258.067.037.2-.097.336-.084.335-.167.134.036.67-.313.736-.293.201-.117.402-.143.268-.19.067.122.134-.263.201.1.335-.292.067.143.2-.179.135-.102.134-.098.067.267.2-.37.202.08.268-.357.2-.028.202.01.134-.21.268-.023.067-.04.067-.292.067.196.267-.093.201-.166 1.34-.684.268-.173.067.06.067-.087.268-.207.335-.025.2-.258.269-.02.2-.376.068.155.067-.054.067-.154.067.09.067-.1.067.135.134-.403.067.08.067.096.134-.185.067.069.134-.226.067.068.067-.082.2-.21.068.127.134-.005.2-.342.067.095.134-.275.134.103.134-.25.067.056.201-.124.201-.2.134-.042.871-.554.268-.22.201-.097.067-.19.067.128.201-.237.067.012.134-.136.2-.12.068-.242.067.03.335-.291.067.082.067-.091.134-.032.2-.375.068.256.067-.163.067-.162.067.114.268-.328.134-.04.268-.357.066.226.134-.384.067.217.201-.362.067.016.268-.317.134-.02.201-.25.871-.755 1.675-1.664.067.144.134-.443.067.084.067-.013.067.154.2-.59.068.173.067-.11.067.005.2-.808.068.395.067-.284.067.15.067-.034.267-.413.067.066.067-.672.067.412.067-.489.067.155.067.13.201-.55.067.187.067-.119.067-.286.067.396.134-.645.067.144.268-.431.067.05.201-.39.536-.836.067.064.134-.196.804-1.108.134-.117.067-.43.067.054.2-.26.068-.428.067.306.067-.494.067.464.134-.786.067.046.067.116.2-.73.135.184.268-1.099.067 1.64.067-2.03.066.39.201-1.454.067 2.701.067-1.451.201-1.036.067.71.067-1.204.067.725.067-.874.067.502.067-.55.067.53.268-1.387.201.598.201-1.16.067.168.134-.587.067-.591.067.058.134.118.201-.799.067.22.201-.817.067-.4.067.224.335-1.094.67-2.228.335-.894.067.04.067-.91.067.345.067-.04.134-1.116.067-.085.2-.757.068.131.2-1.412.067-.337.067.276.268-2.184.134.57.268-2.07.067-.366.067.747.201-3.026.134.454.268-3.68.067 1.402.067-3.686.067 2.546.067-1.249.134-2.342.067 1.428.134-3.133.067 1.687.134-4.61.067.99.067 1.255.134-8.485.067 9.113.067-5.247.067-9.307.067 2.612.067 14.42.134-24.769.134 12.801.134-22.316.067 15.58.268-41.325.067 1.611.134 22.8.067 16.914.067-15.58.067 2.795.067 19.521.067-5.42.067-7.38.067 5.998.067 18.77.134-17.032.134 14.554.067-9.113.067 1.64.067 6.845.067-1.255.067-.99.133 4.61.067-1.687.134 3.133.067-1.428.067.391.134 3.2.067-2.546.067 3.686.067-1.403.134 1.82.134 1.86.067-.277.067-.176.201 3.026.067-.747.067.365.067.174.201 1.897.067-.068.067-.502.201 1.432.067.752.067-.276.536 2.375.134.139.134 1.102.067-.346.067.912.067-.041.134.096.938 3.233.737 1.846.067.09.133.53.134-.183.201 1.178.067-.169.201 1.16.067-.353.067.081.067-.325.268 1.387.067-.53.067.55.067-.502.067.874.067-.725.067 1.204.067-.71.067.05.134.986.067 1.451.067-2.7.067 1.002.067-.242.201 2.333.067-1.64.067.51.201.589.2-.153.135.699.067-.116.067-.046.134.786.067-.464.067.494.067-.306.2.64.135-.006.134.533.2.077.537.852.602.878.067.152.067-.04.268.335.201.384.201.223.067-.144.134.645.067-.396.134.405.067-.187.067.048.134.503.067-.131.067-.155.067.489.067-.412.067.672.067-.066.268.413.067.035.067-.151.067.284.067-.395.2.808.068-.005.067.11.067-.173.2.59.202-.225.134.443.067-.144.067.199.067-.16.067.12.067.016.067.28.067-.018.134.116.268.25 1.205 1.148.335.28.268.225.737.664.067.232.067-.217.134.384.067-.226.067.104.268.322.134.043.067.25.067-.102.067.108.067-.114.134.325.067-.256.268.452.067-.045.268.22.134.017.804.756.067-.127.2.261.268.158.268.18 1.206.827.067-.056.201.263.067-.116.268.343.067-.085.134.291.268.019.603.302.067-.08.134.403.067-.135.268.218.067-.155.268.409.067.1.134-.113.2.258.068-.068.067.122.067-.135.067.093.267.14.335.238.134.042.47.244 1.339.7.067-.197.134.332.268.023.067.003.067.207.067-.067.938.46.067.272.067-.267.067.023.402.356.134-.12.067.22.067-.053.267.08.067-.078.067.088.067.175.067-.121.402.236 1.474.656.067-.031.201.143.536.138.335.128.335.06.067.258.067-.111.402.162.134-.042.067.141.067-.057.067.031.067.168.067-.116.268.265.134-.054.2.092.134.04.47.141.066.087.067-.058.268.065.201.14.402.138.603.177 1.943.684.067-.15.067.149.067-.058.67.253.133-.1.134.202.134-.009.268.185.067.031.067-.104.067.102.067-.066.268.124.134.025.268.13.134-.01.201.083.268.047 2.01.553.067-.161.067.19.067-.058.535.187.067-.043.067.192.067-.183.067.117.201.119.134-.12.201.309.134-.33.067.25.067-.123.201.27.201-.187.402.204.134-.024.134.163.201-.113.201.107.201.05.737.14.469.121.067-.047.067.158.067-.048.134.038.402-.018.134.096.468-.007.134.197.067-.136.067.251.067-.157.067-.026.201.157.134.041.201-.123h.134l.201.225.067-.105.067.056.067-.055.201.12.268-.01.067.116.067-.065.134-.071.134.188.067-.058.134.04.536.108.603.089.2.042.135.06 1.004.134.067-.034.067.102.067-.06.134-.009.201.085.134-.092.067.187.067-.105.268.11.067.102.067-.094 6.498.84.134-.036.134.031.536.117.134-.028.335.041 1.004.123.335.003 1.608.21.134-.08.134.06.134-.05.067.103.067-.168.067.12.134.086.067-.105.067.056.067.07.067-.118.067.093.134-.033.2.013.135.073.067-.08.067.071 4.42.193.068.156.067-.103.2.018.068-.062.067.077.268-.084.2.134.202-.05.134.037.067-.102.067.15.067-.06.402.062.134-.032 1.004.014.268.021.603-.014.067.066.134-.098.201.102.067-.1.067.137.067-.171.067.096.134.013.335-.003.067.177.067-.19.067.043.2-.152.068.174.067-.14.134.105.134-.023.469.045.067-.1.067.096.067-.092.067.16.067-.097 1.607.035h0" clip-path="url(#p2ed879172c)" style="fill:none;stroke:#000;stroke-linecap:square"/><path id="line2d_114" d="m38.554 138.34.804.001.067-.078.067.084.335-.07.067-.058.201.243.134-.114.268.066.067-.216.134.242.067-.139.067.138.067-.214.067.107.134-.04.335.149.268-.201.469.15.2-.188.068.134.067-.078.2.15.067-.1.067.071.268-.111.268-.06.067.113.067-.076 1.005-.034.335.04.335-.102.536.042.067-.074.134.13.134-.174.067.15.067-.086.134.001.067.126.067-.163.067.046.067.139.067-.161.067.04.134.053.067-.003.067-.148.134.126.067-.19.067.125 1.004-.116.067.156.067-.119.067.116.201-.168.067.114.201-.114.201.035.402-.021 3.015-.224.134.048.2-.061.201-.015.067-.107.067.07.067.108.067-.138.067.049.268-.046.134.058.134-.096.268.012.201-.069.268.003 1.139-.12.335-.011.067-.071.067.071.268-.047.87-.12.068.07.067-.236.134.167.066.012.067-.292.067.253.067-.12.067.157.067-.094.134-.08.067.155.067-.124.335.084.134-.164.134.004.402-.003.201.047.469-.185.201.024 1.608-.2.067-.1.067.064h.2l.068.025.067-.096.067.128.067-.175.067.078.067.077.067-.079.067-.165.067.03.066-.049.067.106.067-.093.268.147.067-.185.067.05.067.11.134-.118.067.069.201-.227.134.07.134-.185.067.327.134-.314.134.078.067-.157.067.1.134.183.067-.057.067-.175.067.19.067-.179.067.034.469-.116.268-.05.335-.076.335-.04.67-.142.2-.027.336-.105.134.208.133-.217.134.104.134-.156.067.237.067-.099.067-.138.067.04.067.11.201-.28.067.308.067-.33.067.23.067-.045.201-.324.067.214.067-.049.067-.19.067.17.067-.201.067.233.067-.334.201.298.201-.154.067.114.067-.224.067.105.201-.14.134.13.134-.283.067.158.067-.125.134.086.2-.14.068.108.067-.13.067.068 1.474-.335.2.015.067-.144.067.044.067.024.067-.128.067.104.335-.056.067-.239.067.107.067.159.134-.328.134.201.067-.105.067.044.134-.015.201-.27.201.382.134-.357.067.106.067.086.067-.35.067.072.067.054.067-.259.067.375.067-.137.067.05.134-.234.067-.03.067.136.067-.252.067.096.134.07.134-.13.067.193.134-.167.469-.129 1.607-.486.201.037.201-.175.335.077.067-.295.067.044.067.215.067-.134.067-.168.067.039.067-.043.067.234.201-.31.067.014.067.17.134-.286.067.316.067-.117.067-.168.067.073.067.067.067-.345.067.17.2-.127.068.22.2-.305.403-.011.067-.22.067.117 2.612-.798.067-.207.067.09.335-.121.067.025.067-.173.067.104.067-.099.067.106.067-.129.067.144.201-.34.067.126.067-.175.134.137.067.06.134-.321.067.262.2-.343.202.068.268-.302.134.163.067-.228.067.164.067-.134.067.081.268-.162 1.34-.55 1.875-.894.067-.218.067.677.067-.549.067.365.134-.393.134.21.268-.504.067.298.134-.383.067.167.067-.045.134-.188.067.219.067-.136.067-.21.067.254.2-.442.135.29.268-.487.067-.099.067.183.067-.028.067.021.2-.268.067.115.134-.116.134.02.134-.164.67-.34.603-.32.067-.09.067.055.067.041.134-.165.067.106.268-.396.201.075.067-.199.067.114.134-.057.2-.292.068-.084.067.175.067-.202.067.125.469-.48.067.407.067-.538.067.19.134-.172.134-.192.134.223.134-.34.134.017.067.149.134-.434.067.366.067-.196.066-.004.201-.307.067-.079.067.128.067-.098.134-.087.201-.205.134-.046.134-.051.603-.427 1.742-1.256.067-.254.067.13.067.04.2-.42.135.298.268-.484.067.176.067-.218.067.026.067.16.067-.456.067.1.2.075.402-.692.134.082.067.091.268-.612.067.224.268-.447.402-.157.067-.263.067.048.067.002.268-.322.268-.229.67-.623.2-.267.068.156.335-.625.067.298.067-.405.067.055.134-.172.067.187.2-.655.068.353.2-.571.068.158.268-.526.2-.134.068.23.134-.574.067.228.133-.422.067.392.067-.127.134-.778.067.436.134-.705.067.208.067-.024.067-.222.067.797.201-1.206.134.134.134-.6.067.1.067.31.134-.428.067.17.067-.045.201-.578.067.052.067.122.268-.66.067.016.201-.319.737-1.062.134-.37.067.19.067-.111.067-.285.067.491.067-.838.067.37.335-1.462.134.435.2-.396.068.037.067-.387.067.018.067.572.134-1.361.067.528.067-.223.066-1.042.067.46.067-.306.067.707.067-1.486.067.225.067 1.595.067-.791.067-.61.067 1.175.067-2.034.067.247.067.284.067-.872.134 1.201.268-3.587.067 3.07.067-1.591.067.033.201-1.26.201.992.067-.801.067.57.067-.99.067.03.067-.056.067-.889.067.598.067-.363.067.123.268-1.166.067.098.335-1.022.335-.819.067-.531.067.286.335-1.686.067.51.2-1.192.068 1.055.067-2.795.067 1.674.067-1.892.067 2.444.067-2.412.067 1.864.067-3.87.067 3.457.067-2.828.067 2.685.067-3.688.066 2.791.067-4.404.067 3.134.067-4.178.067 5.58.067-5.762.067 5.516.067-7.035.067 6.597.067-8.35.067 8.127.067-9.134.067 7.914.067-9.448.067 11.646.067-11.957.067 9.977.067-12.565.067 14.54.067-15.631.067 17.16.067-18.14.067 19.092.067-20.237.067 17.807.067-19.74.067 26.533.067-29.166.067 37.388.067-38.71.067 37.638.067-39.955.067 36.085.067-37.326.067 29.67.067-31.026.067 29.063.067-30.614.067 26.139.067-28.12.067 28.207.067-30.75.067 27.75.067-29.864.067 30.639.067-34.303.067 33.734.067-38.038.067 39.375.067-45.373.067 45.544.067-54.112.067 56.388.134-81.817.067 7.379.067 74.438.067-56.388.067 54.112.067-45.544.067 45.373.067-39.375.067 38.038.067-33.734.067 34.303.067-30.64.067 29.866.067-27.751.067 30.75.067-28.207.067 28.12.067-26.139.067 30.614.067-29.063.067 31.026.067-29.67.066 37.326.067-36.085.067 39.955.067-37.638.067 38.71.067-37.388.067 29.166.067-26.534.067 19.741.067-17.807.067 20.237.067-19.091.067 18.14.067-17.161.067 15.63.067-14.54.067 12.566.067-9.977.067 11.957.067-11.646.067 9.448.067-7.914.067 9.134.067-8.127.067 8.35.067-6.597.067 7.035.067-5.516.067 5.761.067-5.58.067 4.18.067-3.135.067 4.404.067-2.791.067 3.688.067-2.685.067 2.828.067-3.457.067 3.87.067-1.864.067 2.412.067-2.444.067 1.892.067-1.674.067 2.795.067-1.055.2 1.191.068-.51.067.112.268 1.575.067-.286.2.77.47 1.301.268.802.067.096.2.71.068-.597.133.946.067-.031.067.99.067-.57.067.801.201-.993.067.967.067-.154.201 2.005.067-3.07.067 1.936.201 1.652.134-1.201.067.872.067-.284.067-.247.067 2.034.067-1.174.134 1.4.134-1.82.067 1.486.067-.707.067.307.067-.461.134 1.265.067-.528.134 1.361.134-.59.2.543.068-.084.067.287.134-.435.335 1.461.067-.37.067.84.067-.492.134.395.067-.19.067.13.2.453.068.057.067.322.067-.205.268.513.468.692.067-.226.134.66.134-.174.268.623.067-.17.134.428.134-.41.134.6.067-.047.067-.087.201 1.206.067-.797.067.222.067.024.067-.208.134.705.067-.436.201.905.067-.392.067.019.067.403.067-.228.134.575.134-.223.335.453.067.2.067-.16.2.572.068-.353.2.655.135-.198.2.533.068-.298.134.323.067-.034.134.336.067-.156.335.48.134.054.602.558.268.204.134.143.067-.048.201.448.067-.077.067.094.067-.066.134.088.201.38.067-.224.268.612.201-.173.201.346.067.032.201.33.201-.19.067.455.067-.16.067-.026.067.218.067-.176.2.313.068.171.067-.059.067-.24.2.42.135-.17.2.44.068-.14.2.342.135.06.134-.006.2.255.068-.106.067.061.067.2.067-.051 1.205.883.067-.046.268.194.134.154.201.185.067-.128.067.08.335.506.067-.366.067.091.067.343.067-.15.2.053.068.271.067-.178.134-.018.2.336.068-.19.067.539.067-.407.067.098.268.175.134.207.067-.125.067.202.067-.175.067.084.335.35.067-.115.067.2.067-.078.602.457.201-.006.134.095.134.041.268.16.804.352.134.194.134-.05.067.128.067-.115.201.268.335-.002.2.412.068-.067.134-.21.134.429.067-.253.134.345.067-.22.067.076.134.158.134-.152.067.368.067-.298.067.2.067-.03.134.333.067-.046.067-.163.134.393.067-.365.067.549.067-.677.067.218.067.206.067-.117.334.225.067-.085.201.283.067-.086.067.15.067-.09.201.112.134.024.067.124.067-.04.268.114 1.943.84.067-.165.067.228.067-.042.067-.12.2.221.202.084.134-.037.067.067.067.241.067-.262.067.123.067.197.067-.059.067.026.067-.163.2.244.068-.003.067.148.066-.144.067.13.067-.107.067.1.067-.105.134.148.134-.04.134.116.067.045.067-.09.067.207.067-.05.201.117.134-.03.402.157.335.127 1.072.319.268.137.2-.096.135.238.402.06.134.238.067-.22.067.148.2-.19.068.344.067-.067.067-.073.134.285.067-.316.067.035.066.25.067-.169.134.029.134.267.067-.234.067.043.067-.039.134.302.134-.26.067.296.067-.12.201.06.067-.017.201.175.536.02.201.13 1.072.3.067.037.067-.179.067.119.134.139.2.001.068.178.134-.213.134.173.134-.189.067.252.067-.136.134.047.2.304.068-.375.067.259.067-.054.067-.071.066.35.067-.087.067-.106.134.357.201-.382.268.304.402-.059.067.228.067-.159.067-.107.067.239.067-.055.268.11.067-.103.134.104.067-.044.067.144.067-.077.201.042 1.005.214.402.141.067-.068.067.13.067-.108.2.14.269-.12.2.274.068-.12.067.073.67.16.066-.232.067.334.067-.233.067.201.067-.17.134.239.067-.214.201.324.067.044.067-.229.067.33.067-.308.067.122.067-.03.067.188.067-.11.067-.04.134.237.134-.224.134.127.134-.057.067.186.067-.031.067-.177.067.056 1.407.273.335.03.536.13.134.052.2-.019.067.179.067-.19.134.232.201-.283.067.157.201-.037.067.273.134-.345.134.202.134-.032.335.238.067-.109.067-.05.067.185.067-.041.469-.1.134.244.134-.155.067.175.067-.128.2.126.202-.12.134.088.804.122 1.205.133.201.12.067-.086.067.076.201-.165.134.156.134-.026.47.225.133-.149.067.124.067-.155.067.045.134.129.201-.29.134.28.067.006.067-.173.067.236.067-.07.067-.019.067.11.067-.105.067.06 3.818.34.067.139.067-.108.067-.07.134.167.067-.046 1.072.026.134.065.268-.029.2.076.135-.026.268.016.67.078.2-.022.47.054 1.205.157.067-.156.067.139.067-.126.067.14.067-.06.201.05.268-.097.134.166.201-.221.134.186.067-.122.134.15.2-.092.068.161.134-.185.067.163.067-.126h.134l.067.085.067-.15.067.087.134.104.067-.147.067.074.134.059.134.025.402-.106 1.272.094.268-.018.067.076.067-.114.067.06.134-.016.603.064.201-.113.268.186.067.069.134-.196.067.055.2-.033.135.072.2.119.068-.19.067.056.268-.115.067.214.067-.138.067.14.067-.058.067-.185.067.216.067-.095.402.07.2-.112.068.097.133-.066.134.039.067-.084.067.078.201.004.536-.001" clip-path="url(#p2ed879172c)" style="fill:none;stroke-dasharray:3.7,1.6;stroke-dashoffset:0;stroke:red"/><path id="patch_3" d="M30.184 144.774V6.174" style="fill:none;stroke:#000;stroke-width:.5;stroke-linejoin:miter;stroke-linecap:square"/><path id="patch_4" d="M214.324 144.774V6.174" style="fill:none;stroke:#000;stroke-width:.5;stroke-linejoin:miter;stroke-linecap:square"/><path id="patch_5" d="M30.184 144.774h184.14" style="fill:none;stroke:#000;stroke-width:.5;stroke-linejoin:miter;stroke-linecap:square"/><path id="patch_6" d="M30.184 6.174h184.14" style="fill:none;stroke:#000;stroke-width:.5;stroke-linejoin:miter;stroke-linecap:square"/></g></g><defs><clipPath id="p2ed879172c"><path d="M30.184 6.174h184.14v138.6H30.184z"/></clipPath></defs></svg>