<svg xmlns="http://www.w3.org/2000/svg" xmlns:xlink="http://www.w3.org/1999/xlink" width="290.566" height="223.411" viewBox="0 0 217.924 167.558"><defs><style>*{stroke-linejoin:round;stroke-linecap:butt}</style></defs><g id="figure_1"><path id="patch_1" d="M0 167.558h217.924V0H0z" style="fill:none"/><g id="axes_1"><path id="patch_2" d="M30.184 142.2h184.14V3.6H30.184z" style="fill:none"/><g id="matplotlib.axis_1"><g id="xtick_1"><g id="line2d_1"><defs><path id="m843ccfe3ba" d="M0 0v-3" style="stroke:#000;stroke-width:.5"/></defs><use xlink:href="#m843ccfe3ba" x="55.301" y="142.2" style="stroke:#000;stroke-width:.5"/></g><g id="line2d_2"><defs><path id="mff688c55fa" d="M0 0v3" style="stroke:#000;stroke-width:.5"/></defs><use xlink:href="#mff688c55fa" x="55.301" y="3.6" style="stroke:#000;stroke-width:.5"/></g><g id="text_1" transform="matrix(.08 0 0 -.08 47.116 151.104)"><defs><path id="CMSY10-0" d="M4218 1472c108 0 224 0 224 128s-116 128-224 128H755c-109 0-224 0-224-128s115-128 224-128z" transform="scale(.01563)"/><path id="NimbusRomNo9L-Regu-30" d="M1626 4352c-352 0-621-108-858-332-371-359-614-1095-614-1844 0-697 211-1446 512-1804C902 90 1229-64 1600-64c326 0 602 109 832 333 371 352 614 1095 614 1869 0 1312-582 2214-1420 2214m-20-166c538 0 826-723 826-2061 0-1337-282-2022-832-2022S768 788 768 2119c0 1357 288 2067 838 2067" transform="scale(.01563)"/><path id="CMMI10-3a" d="M1229 338c0 184-154 337-339 337-186 0-340-153-340-337C550 153 704 0 890 0c185 0 339 153 339 338" transform="scale(.01563)"/><path id="NimbusRomNo9L-Regu-32" d="m3040 875-83 32c-237-363-320-421-608-421H819l1075 1123c570 593 820 1078 820 1576 0 638-519 1128-1184 1128-352 0-685-140-922-395-205-218-301-422-410-875l135-32c256 625 486 829 928 829 537 0 902-364 902-900 0-497-294-1090-832-1658L192 77V0h2496z" transform="scale(.01563)"/></defs><use xlink:href="#CMSY10-0" transform="scale(.99626)"/><use xlink:href="#NimbusRomNo9L-Regu-30" transform="matrix(.99626 0 0 .99626 77.409 0)"/><use xlink:href="#CMMI10-3a" transform="matrix(.99626 0 0 .99626 127.222 0)"/><use xlink:href="#NimbusRomNo9L-Regu-32" transform="matrix(.99626 0 0 .99626 154.817 0)"/></g></g><g id="xtick_2"><use xlink:href="#m843ccfe3ba" id="line2d_3" x="88.794" y="142.2" style="stroke:#000;stroke-width:.5"/><use xlink:href="#mff688c55fa" id="line2d_4" x="88.794" y="3.6" style="stroke:#000;stroke-width:.5"/><g id="text_2" transform="matrix(.08 0 0 -.08 80.61 151.104)"><defs><path id="NimbusRomNo9L-Regu-31" d="M1862 4339 710 3757v-90c77 32 148 58 173 71 115 45 224 70 288 70 135 0 192-97 192-303V592c0-213-51-360-153-419-96-57-186-77-455-77V0h1767v96c-506 0-608 64-608 374v3857z" transform="scale(.01563)"/></defs><use xlink:href="#CMSY10-0" transform="scale(.99626)"/><use xlink:href="#NimbusRomNo9L-Regu-30" transform="matrix(.99626 0 0 .99626 77.409 0)"/><use xlink:href="#CMMI10-3a" transform="matrix(.99626 0 0 .99626 127.222 0)"/><use xlink:href="#NimbusRomNo9L-Regu-31" transform="matrix(.99626 0 0 .99626 154.817 0)"/></g></g><g id="xtick_3"><use xlink:href="#m843ccfe3ba" id="line2d_5" x="122.288" y="142.2" style="stroke:#000;stroke-width:.5"/><use xlink:href="#mff688c55fa" id="line2d_6" x="122.288" y="3.6" style="stroke:#000;stroke-width:.5"/><g id="text_3" transform="matrix(.08 0 0 -.08 117.199 151.104)"><use xlink:href="#NimbusRomNo9L-Regu-30" transform="scale(.99626)"/><use xlink:href="#CMMI10-3a" transform="matrix(.99626 0 0 .99626 49.813 0)"/><use xlink:href="#NimbusRomNo9L-Regu-30" transform="matrix(.99626 0 0 .99626 77.409 0)"/></g></g><g id="xtick_4"><use xlink:href="#m843ccfe3ba" id="line2d_7" x="155.781" y="142.2" style="stroke:#000;stroke-width:.5"/><use xlink:href="#mff688c55fa" id="line2d_8" x="155.781" y="3.6" style="stroke:#000;stroke-width:.5"/><g id="text_4" transform="matrix(.08 0 0 -.08 150.692 151.104)"><use xlink:href="#NimbusRomNo9L-Regu-30" transform="scale(.99626)"/><use xlink:href="#CMMI10-3a" transform="matrix(.99626 0 0 .99626 49.813 0)"/><use xlink:href="#NimbusRomNo9L-Regu-31" transform="matrix(.99626 0 0 .99626 77.409 0)"/></g></g><g id="xtick_5"><use xlink:href="#m843ccfe3ba" id="line2d_9" x="189.275" y="142.2" style="stroke:#000;stroke-width:.5"/><use xlink:href="#mff688c55fa" id="line2d_10" x="189.275" y="3.6" style="stroke:#000;stroke-width:.5"/><g id="text_5" transform="matrix(.08 0 0 -.08 184.186 151.104)"><use xlink:href="#NimbusRomNo9L-Regu-30" transform="scale(.99626)"/><use xlink:href="#CMMI10-3a" transform="matrix(.99626 0 0 .99626 49.813 0)"/><use xlink:href="#NimbusRomNo9L-Regu-32" transform="matrix(.99626 0 0 .99626 77.409 0)"/></g></g><g id="xtick_6"><g id="line2d_11"><defs><path id="m0ee2c34311" d="M0 0v-1.5" style="stroke:#000;stroke-width:.5"/></defs><use xlink:href="#m0ee2c34311" x="35.205" y="142.2" style="stroke:#000;stroke-width:.5"/></g><g id="line2d_12"><defs><path id="mf7749aa1d5" d="M0 0v1.5" style="stroke:#000;stroke-width:.5"/></defs><use xlink:href="#mf7749aa1d5" x="35.205" y="3.6" style="stroke:#000;stroke-width:.5"/></g></g><g id="xtick_7"><use xlink:href="#m0ee2c34311" id="line2d_13" x="41.904" y="142.2" style="stroke:#000;stroke-width:.5"/><use xlink:href="#mf7749aa1d5" id="line2d_14" x="41.904" y="3.6" style="stroke:#000;stroke-width:.5"/></g><g id="xtick_8"><use xlink:href="#m0ee2c34311" id="line2d_15" x="48.602" y="142.2" style="stroke:#000;stroke-width:.5"/><use xlink:href="#mf7749aa1d5" id="line2d_16" x="48.602" y="3.6" style="stroke:#000;stroke-width:.5"/></g><g id="xtick_9"><use xlink:href="#m0ee2c34311" id="line2d_17" x="62" y="142.2" style="stroke:#000;stroke-width:.5"/><use xlink:href="#mf7749aa1d5" id="line2d_18" x="62" y="3.6" style="stroke:#000;stroke-width:.5"/></g><g id="xtick_10"><use xlink:href="#m0ee2c34311" id="line2d_19" x="68.698" y="142.2" style="stroke:#000;stroke-width:.5"/><use xlink:href="#mf7749aa1d5" id="line2d_20" x="68.698" y="3.6" style="stroke:#000;stroke-width:.5"/></g><g id="xtick_11"><use xlink:href="#m0ee2c34311" id="line2d_21" x="75.397" y="142.2" style="stroke:#000;stroke-width:.5"/><use xlink:href="#mf7749aa1d5" id="line2d_22" x="75.397" y="3.6" style="stroke:#000;stroke-width:.5"/></g><g id="xtick_12"><use xlink:href="#m0ee2c34311" id="line2d_23" x="82.096" y="142.2" style="stroke:#000;stroke-width:.5"/><use xlink:href="#mf7749aa1d5" id="line2d_24" x="82.096" y="3.6" style="stroke:#000;stroke-width:.5"/></g><g id="xtick_13"><use xlink:href="#m0ee2c34311" id="line2d_25" x="95.493" y="142.2" style="stroke:#000;stroke-width:.5"/><use xlink:href="#mf7749aa1d5" id="line2d_26" x="95.493" y="3.6" style="stroke:#000;stroke-width:.5"/></g><g id="xtick_14"><use xlink:href="#m0ee2c34311" id="line2d_27" x="102.192" y="142.2" style="stroke:#000;stroke-width:.5"/><use xlink:href="#mf7749aa1d5" id="line2d_28" x="102.192" y="3.6" style="stroke:#000;stroke-width:.5"/></g><g id="xtick_15"><use xlink:href="#m0ee2c34311" id="line2d_29" x="108.89" y="142.2" style="stroke:#000;stroke-width:.5"/><use xlink:href="#mf7749aa1d5" id="line2d_30" x="108.89" y="3.6" style="stroke:#000;stroke-width:.5"/></g><g id="xtick_16"><use xlink:href="#m0ee2c34311" id="line2d_31" x="115.589" y="142.2" style="stroke:#000;stroke-width:.5"/><use xlink:href="#mf7749aa1d5" id="line2d_32" x="115.589" y="3.6" style="stroke:#000;stroke-width:.5"/></g><g id="xtick_17"><use xlink:href="#m0ee2c34311" id="line2d_33" x="128.986" y="142.2" style="stroke:#000;stroke-width:.5"/><use xlink:href="#mf7749aa1d5" id="line2d_34" x="128.986" y="3.6" style="stroke:#000;stroke-width:.5"/></g><g id="xtick_18"><use xlink:href="#m0ee2c34311" id="line2d_35" x="135.685" y="142.2" style="stroke:#000;stroke-width:.5"/><use xlink:href="#mf7749aa1d5" id="line2d_36" x="135.685" y="3.6" style="stroke:#000;stroke-width:.5"/></g><g id="xtick_19"><use xlink:href="#m0ee2c34311" id="line2d_37" x="142.384" y="142.2" style="stroke:#000;stroke-width:.5"/><use xlink:href="#mf7749aa1d5" id="line2d_38" x="142.384" y="3.6" style="stroke:#000;stroke-width:.5"/></g><g id="xtick_20"><use xlink:href="#m0ee2c34311" id="line2d_39" x="149.082" y="142.2" style="stroke:#000;stroke-width:.5"/><use xlink:href="#mf7749aa1d5" id="line2d_40" x="149.082" y="3.6" style="stroke:#000;stroke-width:.5"/></g><g id="xtick_21"><use xlink:href="#m0ee2c34311" id="line2d_41" x="162.48" y="142.2" style="stroke:#000;stroke-width:.5"/><use xlink:href="#mf7749aa1d5" id="line2d_42" x="162.48" y="3.6" style="stroke:#000;stroke-width:.5"/></g><g id="xtick_22"><use xlink:href="#m0ee2c34311" id="line2d_43" x="169.179" y="142.2" style="stroke:#000;stroke-width:.5"/><use xlink:href="#mf7749aa1d5" id="line2d_44" x="169.179" y="3.6" style="stroke:#000;stroke-width:.5"/></g><g id="xtick_23"><use xlink:href="#m0ee2c34311" id="line2d_45" x="175.877" y="142.2" style="stroke:#000;stroke-width:.5"/><use xlink:href="#mf7749aa1d5" id="line2d_46" x="175.877" y="3.6" style="stroke:#000;stroke-width:.5"/></g><g id="xtick_24"><use xlink:href="#m0ee2c34311" id="line2d_47" x="182.576" y="142.2" style="stroke:#000;stroke-width:.5"/><use xlink:href="#mf7749aa1d5" id="line2d_48" x="182.576" y="3.6" style="stroke:#000;stroke-width:.5"/></g><g id="xtick_25"><use xlink:href="#m0ee2c34311" id="line2d_49" x="195.973" y="142.2" style="stroke:#000;stroke-width:.5"/><use xlink:href="#mf7749aa1d5" id="line2d_50" x="195.973" y="3.6" style="stroke:#000;stroke-width:.5"/></g><g id="xtick_26"><use xlink:href="#m0ee2c34311" id="line2d_51" x="202.672" y="142.2" style="stroke:#000;stroke-width:.5"/><use xlink:href="#mf7749aa1d5" id="line2d_52" x="202.672" y="3.6" style="stroke:#000;stroke-width:.5"/></g><g id="xtick_27"><use xlink:href="#m0ee2c34311" id="line2d_53" x="209.371" y="142.2" style="stroke:#000;stroke-width:.5"/><use xlink:href="#mf7749aa1d5" id="line2d_54" x="209.371" y="3.6" style="stroke:#000;stroke-width:.5"/></g><g id="text_6" transform="matrix(.08 0 0 -.08 109.753 162.233)"><defs><path id="NimbusRomNo9L-Regu-66" d="M1978 2880h-788v731c0 367 122 562 365 562 135 0 224-63 339-246 103-164 180-227 288-227 148 0 269 114 269 259 0 229-281 393-665 393-397 0-736-171-903-461-166-278-217-506-224-1011H134v-205h525V656c0-471-70-547-531-547V0h1664v109c-525 0-595 71-595 552v2014h781z" transform="scale(.01563)"/><path id="NimbusRomNo9L-Regu-28" d="M1888 4326c-474-307-666-473-902-768-455-556-679-1196-679-1945 0-813 237-1440 800-2093 263-307 429-448 762-653l77 103c-512 403-692 627-864 1107-154 429-224 915-224 1555 0 672 83 1197 256 1594 179 396 371 627 832 998z" transform="scale(.01563)"/><path id="NimbusRomNo9L-Regu-47" d="M4538 2304H2906v-128c275 0 352-19 428-71 96-58 135-207 135-484V574c0-207-391-382-851-382-1044 0-1684 730-1684 1920 0 602 180 1184 461 1498 282 314 679 486 1114 486 358 0 672-121 921-352 192-179 295-352 455-742h147l-51 1350h-141c-38-121-154-211-288-211-64 0-166 19-282 64-288 96-582 147-870 147-1280 0-2195-940-2195-2246 0-627 173-1107 531-1485C1165 180 1779-64 2483-64c551 0 1351 224 1607 449v1309c0 379 76 463 448 495z" transform="scale(.01563)"/><path id="NimbusRomNo9L-Regu-48" d="M1338 2304v1229c0 457 70 526 563 571v120H122v-120c492-45 563-115 563-577V749c0-539-64-615-563-615V0h1779v121c-480 38-563 121-563 578v1323h1939V757c0-546-64-623-563-623V0h1779v121c-480 38-563 121-563 575v2833c0 460 70 530 563 575v120H2714v-120c492-45 563-114 563-571V2304z" transform="scale(.01563)"/><path id="NimbusRomNo9L-Regu-7a" d="m2675 864-115 26c-64-320-102-423-186-532-89-108-307-166-633-166H858l1721 2592v96H358l-19-755h115c58 467 154 563 538 563h883L173 96V0h2413z" transform="scale(.01563)"/><path id="NimbusRomNo9L-Regu-29" d="M243-1133c474 307 666 474 903 768 454 557 678 1197 678 1946 0 819-237 1440-800 2093-262 307-429 448-762 652l-76-102c512-403 684-627 864-1107 153-429 224-915 224-1555 0-666-84-1197-256-1588-180-403-372-633-832-1004z" transform="scale(.01563)"/></defs><use xlink:href="#NimbusRomNo9L-Regu-66" transform="scale(.99626)"/><use xlink:href="#NimbusRomNo9L-Regu-28" transform="matrix(.99626 0 0 .99626 58.082 0)"/><use xlink:href="#NimbusRomNo9L-Regu-47" transform="matrix(.99626 0 0 .99626 91.257 0)"/><use xlink:href="#NimbusRomNo9L-Regu-48" transform="matrix(.99626 0 0 .99626 163.187 0)"/><use xlink:href="#NimbusRomNo9L-Regu-7a" transform="matrix(.99626 0 0 .99626 235.117 0)"/><use xlink:href="#NimbusRomNo9L-Regu-29" transform="matrix(.99626 0 0 .99626 279.35 0)"/></g></g><g id="matplotlib.axis_2"><g id="ytick_1"><g id="line2d_55"><defs><path id="ma3b6a4448c" d="M0 0h3" style="stroke:#000;stroke-width:.5"/></defs><use xlink:href="#ma3b6a4448c" x="30.184" y="112.826" style="stroke:#000;stroke-width:.5"/></g><g id="line2d_56"><defs><path id="m7985a7fcaa" d="M0 0h-3" style="stroke:#000;stroke-width:.5"/></defs><use xlink:href="#m7985a7fcaa" x="214.324" y="112.826" style="stroke:#000;stroke-width:.5"/></g><use xlink:href="#NimbusRomNo9L-Regu-30" id="text_7" transform="matrix(.0797 0 0 -.0797 22.7 115.527)"/></g><g id="ytick_2"><use xlink:href="#ma3b6a4448c" id="line2d_57" x="30.184" y="80.489" style="stroke:#000;stroke-width:.5"/><use xlink:href="#m7985a7fcaa" id="line2d_58" x="214.324" y="80.489" style="stroke:#000;stroke-width:.5"/><g id="text_8" transform="matrix(.08 0 0 -.08 18.714 83.19)"><defs><path id="NimbusRomNo9L-Regu-35" d="M1158 3776h1255c102 0 128 13 147 58l243 569-57 45c-96-134-160-166-295-166H1114L416 2759c-6-13-6-19-6-32 0-32 25-51 76-51 205 0 461-45 724-129 736-238 1075-637 1075-1273 0-618-391-1101-890-1101-128 0-237 45-429 187-204 148-352 212-486 212-186 0-275-77-275-238C205 90 506-64 986-64c537 0 998 174 1318 502 294 290 429 656 429 1145 0 463-122 759-442 1080-281 284-646 431-1401 566z" transform="scale(.01563)"/></defs><use xlink:href="#NimbusRomNo9L-Regu-35" transform="scale(.99626)"/><use xlink:href="#NimbusRomNo9L-Regu-30" transform="matrix(.99626 0 0 .99626 49.813 0)"/></g></g><g id="ytick_3"><use xlink:href="#ma3b6a4448c" id="line2d_59" x="30.184" y="48.151" style="stroke:#000;stroke-width:.5"/><use xlink:href="#m7985a7fcaa" id="line2d_60" x="214.324" y="48.151" style="stroke:#000;stroke-width:.5"/><g id="text_9" transform="matrix(.08 0 0 -.08 14.73 50.853)"><use xlink:href="#NimbusRomNo9L-Regu-31" transform="scale(.99626)"/><use xlink:href="#NimbusRomNo9L-Regu-30" transform="matrix(.99626 0 0 .99626 49.813 0)"/><use xlink:href="#NimbusRomNo9L-Regu-30" transform="matrix(.99626 0 0 .99626 99.626 0)"/></g></g><g id="ytick_4"><use xlink:href="#ma3b6a4448c" id="line2d_61" x="30.184" y="15.814" style="stroke:#000;stroke-width:.5"/><use xlink:href="#m7985a7fcaa" id="line2d_62" x="214.324" y="15.814" style="stroke:#000;stroke-width:.5"/><g id="text_10" transform="matrix(.08 0 0 -.08 14.73 18.516)"><use xlink:href="#NimbusRomNo9L-Regu-31" transform="scale(.99626)"/><use xlink:href="#NimbusRomNo9L-Regu-35" transform="matrix(.99626 0 0 .99626 49.813 0)"/><use xlink:href="#NimbusRomNo9L-Regu-30" transform="matrix(.99626 0 0 .99626 99.626 0)"/></g></g><g id="ytick_5"><g id="line2d_63"><defs><path id="m1943779ef3" d="M0 0h1.5" style="stroke:#000;stroke-width:.5"/></defs><use xlink:href="#m1943779ef3" x="30.184" y="138.695" style="stroke:#000;stroke-width:.5"/></g><g id="line2d_64"><defs><path id="me0ceeb609f" d="M0 0h-1.5" style="stroke:#000;stroke-width:.5"/></defs><use xlink:href="#me0ceeb609f" x="214.324" y="138.695" style="stroke:#000;stroke-width:.5"/></g></g><g id="ytick_6"><use xlink:href="#m1943779ef3" id="line2d_65" x="30.184" y="132.228" style="stroke:#000;stroke-width:.5"/><use xlink:href="#me0ceeb609f" id="line2d_66" x="214.324" y="132.228" style="stroke:#000;stroke-width:.5"/></g><g id="ytick_7"><use xlink:href="#m1943779ef3" id="line2d_67" x="30.184" y="125.76" style="stroke:#000;stroke-width:.5"/><use xlink:href="#me0ceeb609f" id="line2d_68" x="214.324" y="125.76" style="stroke:#000;stroke-width:.5"/></g><g id="ytick_8"><use xlink:href="#m1943779ef3" id="line2d_69" x="30.184" y="119.293" style="stroke:#000;stroke-width:.5"/><use xlink:href="#me0ceeb609f" id="line2d_70" x="214.324" y="119.293" style="stroke:#000;stroke-width:.5"/></g><g id="ytick_9"><use xlink:href="#m1943779ef3" id="line2d_71" x="30.184" y="106.358" style="stroke:#000;stroke-width:.5"/><use xlink:href="#me0ceeb609f" id="line2d_72" x="214.324" y="106.358" style="stroke:#000;stroke-width:.5"/></g><g id="ytick_10"><use xlink:href="#m1943779ef3" id="line2d_73" x="30.184" y="99.891" style="stroke:#000;stroke-width:.5"/><use xlink:href="#me0ceeb609f" id="line2d_74" x="214.324" y="99.891" style="stroke:#000;stroke-width:.5"/></g><g id="ytick_11"><use xlink:href="#m1943779ef3" id="line2d_75" x="30.184" y="93.423" style="stroke:#000;stroke-width:.5"/><use xlink:href="#me0ceeb609f" id="line2d_76" x="214.324" y="93.423" style="stroke:#000;stroke-width:.5"/></g><g id="ytick_12"><use xlink:href="#m1943779ef3" id="line2d_77" x="30.184" y="86.956" style="stroke:#000;stroke-width:.5"/><use xlink:href="#me0ceeb609f" id="line2d_78" x="214.324" y="86.956" style="stroke:#000;stroke-width:.5"/></g><g id="ytick_13"><use xlink:href="#m1943779ef3" id="line2d_79" x="30.184" y="74.021" style="stroke:#000;stroke-width:.5"/><use xlink:href="#me0ceeb609f" id="line2d_80" x="214.324" y="74.021" style="stroke:#000;stroke-width:.5"/></g><g id="ytick_14"><use xlink:href="#m1943779ef3" id="line2d_81" x="30.184" y="67.554" style="stroke:#000;stroke-width:.5"/><use xlink:href="#me0ceeb609f" id="line2d_82" x="214.324" y="67.554" style="stroke:#000;stroke-width:.5"/></g><g id="ytick_15"><use xlink:href="#m1943779ef3" id="line2d_83" x="30.184" y="61.086" style="stroke:#000;stroke-width:.5"/><use xlink:href="#me0ceeb609f" id="line2d_84" x="214.324" y="61.086" style="stroke:#000;stroke-width:.5"/></g><g id="ytick_16"><use xlink:href="#m1943779ef3" id="line2d_85" x="30.184" y="54.619" style="stroke:#000;stroke-width:.5"/><use xlink:href="#me0ceeb609f" id="line2d_86" x="214.324" y="54.619" style="stroke:#000;stroke-width:.5"/></g><g id="ytick_17"><use xlink:href="#m1943779ef3" id="line2d_87" x="30.184" y="41.684" style="stroke:#000;stroke-width:.5"/><use xlink:href="#me0ceeb609f" id="line2d_88" x="214.324" y="41.684" style="stroke:#000;stroke-width:.5"/></g><g id="ytick_18"><use xlink:href="#m1943779ef3" id="line2d_89" x="30.184" y="35.217" style="stroke:#000;stroke-width:.5"/><use xlink:href="#me0ceeb609f" id="line2d_90" x="214.324" y="35.217" style="stroke:#000;stroke-width:.5"/></g><g id="ytick_19"><use xlink:href="#m1943779ef3" id="line2d_91" x="30.184" y="28.749" style="stroke:#000;stroke-width:.5"/><use xlink:href="#me0ceeb609f" id="line2d_92" x="214.324" y="28.749" style="stroke:#000;stroke-width:.5"/></g><g id="ytick_20"><use xlink:href="#m1943779ef3" id="line2d_93" x="30.184" y="22.282" style="stroke:#000;stroke-width:.5"/><use xlink:href="#me0ceeb609f" id="line2d_94" x="214.324" y="22.282" style="stroke:#000;stroke-width:.5"/></g><g id="ytick_21"><use xlink:href="#m1943779ef3" id="line2d_95" x="30.184" y="9.347" style="stroke:#000;stroke-width:.5"/><use xlink:href="#me0ceeb609f" id="line2d_96" x="214.324" y="9.347" style="stroke:#000;stroke-width:.5"/></g><g id="text_11" transform="matrix(0 -.08 -.08 0 9.004 98.468)"><defs><path id="NimbusRomNo9L-Regu-4d" d="M4314 3667V751c0-534-77-617-583-617V0h1792v134c-467 0-557 89-557 547v2855c0 457 84 541 557 579v122H4250L2835 1004 1357 4237H90v-141c524 0 608-77 608-546V943c0-661-90-784-621-822V0h1504v134c-493 0-602 148-602 797v2589L2586 0h89z" transform="scale(.01563)"/><path id="NimbusRomNo9L-Regu-61" d="M2829 423c-109-90-186-122-282-122-147 0-192 89-192 371v1248c0 333-32 518-128 672-141 230-416 352-793 352-602 0-1076-314-1076-717 0-147 128-275 276-275 153 0 288 128 288 269 0 25-7 57-13 102-13 58-19 109-19 154 0 173 204 313 460 313 314 0 487-185 487-531v-390c-986-397-1095-448-1370-691-141-128-230-346-230-557 0-403 281-685 672-685 281 0 544 134 934 467 32-333 147-467 410-467 217 0 352 77 576 320zm-992 360c0-199-32-257-167-334-153-90-332-148-467-148-224 0-403 219-403 495v26c0 379 262 611 1037 893z" transform="scale(.01563)"/><path id="NimbusRomNo9L-Regu-67" d="M3008 2496v250h-493c-128 0-224 17-352 56l-141 45c-172 56-345 84-512 84-595 0-1068-464-1068-1050 0-405 172-651 595-863-122-112-237-219-275-250-212-180-295-305-295-430 0-132 77-207 339-332-454-335-627-549-627-787 0-343 499-627 1107-627 480 0 980 170 1312 446 244 203 352 414 352 663 0 407-300 683-774 683h-826c-339 0-499 59-499 164 0 130 211 360 384 412 58-7 103-13 122-13 121-13 205-19 243-19 237 0 493 98 691 275 211 184 307 414 307 742 0 190-32 341-121 551zM941-13c211-45 723-83 1037-83 582 0 793-84 793-318 0-377-486-629-1209-629-564 0-935 188-935 473 0 150 45 234 314 557m32 2158c0 381 179 607 473 607 199 0 365-110 468-303 115-226 192-522 192-774 0-361-186-587-480-587-384 0-653 419-653 1038z" transform="scale(.01563)"/><path id="NimbusRomNo9L-Regu-6e" d="M102 2579c39 19 103 26 173 26 179 0 237-96 237-410V608c0-365-70-454-397-480V32h1357v96c-326 26-422 102-422 333v1798c307 288 448 365 659 365 313 0 467-198 467-621V666c0-404-83-512-403-538V32h1331v96c-314 32-390 109-390 422v1466c0 602-282 960-756 960-294 0-492-109-928-518v505l-44 13c-314-115-532-186-884-288z" transform="scale(.01563)"/><path id="NimbusRomNo9L-Regu-69" d="m1120 2929-992-350v-95l51 6c77 12 160 19 218 19 153 0 211-103 211-384V640c0-461-64-531-506-531V0h1517v96c-422 32-473 95-473 554v2260zM819 4352c-173 0-320-147-320-326s141-327 320-327c186 0 333 141 333 327 0 179-147 326-333 326" transform="scale(.01563)"/><path id="NimbusRomNo9L-Regu-74" d="M1632 2880H986v742c0 64-7 84-45 84-45-58-83-116-128-180-243-352-519-659-621-685-70-47-109-93-109-126 0-20 7-33 26-33h339V751c0-539 192-815 570-815 313 0 556 154 768 487l-84 70c-134-160-243-224-384-224-236 0-332 174-332 578v1835h646z" transform="scale(.01563)"/><path id="NimbusRomNo9L-Regu-75" d="M3066 320h-32c-295 0-365 70-365 365v2195H1658v-122c396 0 473-64 473-383V875c0-178-32-268-121-338-173-140-372-217-564-217-249 0-454 217-454 485v2075H58v-102c307 0 396-96 396-391V770c0-507 308-834 775-834 237 0 486 102 659 275l275 275V-45l26-13c320 128 550 199 877 288z" transform="scale(.01563)"/><path id="NimbusRomNo9L-Regu-64" d="m2202-64 940 333v96h-147c-230 0-281 70-281 366v3633l-32 13c-308-109-532-173-941-281v-102c51 6 89 6 141 6 236 0 294-64 294-328V2669c-243 205-416 275-672 275-736 0-1331-723-1331-1632C173 493 653-64 1357-64c358 0 601 128 819 429V-45zm-26 717c0-45-45-122-109-192-115-128-275-192-461-192-531 0-883 512-883 1299 0 723 314 1197 800 1197 339 0 653-301 653-640z" transform="scale(.01563)"/><path id="NimbusRomNo9L-Regu-65" d="M2611 1053c-307-489-582-675-992-675-365 0-640 186-825 552-116 244-160 456-173 849h1971c-51 414-115 598-275 802-192 230-487 363-819 363-320 0-621-115-864-333-301-262-474-717-474-1241C160 486 621-64 1357-64c608 0 1088 379 1357 1072zM634 1984c70 495 288 730 678 730s544-179 627-730z" transform="scale(.01563)"/><path id="NimbusRomNo9L-Regu-42" d="M109 4237v-141c537 0 614-70 614-548V689c0-477-83-561-614-561V0h2137c500 0 954 136 1191 356 230 208 358 499 358 809 0 286-115 545-313 732-192 175-365 253-781 356 333 82 467 145 621 278 160 140 256 372 256 632 0 708-570 1074-1677 1074zm1267-2125c621 0 915-32 1146-130 364-155 537-414 537-823 0-350-134-604-390-753-205-116-467-168-890-168-313 0-403 58-403 266zm0 256v1444c0 132 45 189 141 189h281c736 0 1127-302 1127-864 0-491-339-769-941-769z" transform="scale(.01563)"/></defs><use xlink:href="#NimbusRomNo9L-Regu-4d" transform="scale(.99626)"/><use xlink:href="#NimbusRomNo9L-Regu-61" transform="matrix(.99626 0 0 .99626 88.567 0)"/><use xlink:href="#NimbusRomNo9L-Regu-67" transform="matrix(.99626 0 0 .99626 132.8 0)"/><use xlink:href="#NimbusRomNo9L-Regu-6e" transform="matrix(.99626 0 0 .99626 182.614 0)"/><use xlink:href="#NimbusRomNo9L-Regu-69" transform="matrix(.99626 0 0 .99626 232.427 0)"/><use xlink:href="#NimbusRomNo9L-Regu-74" transform="matrix(.99626 0 0 .99626 260.122 0)"/><use xlink:href="#NimbusRomNo9L-Regu-75" transform="matrix(.99626 0 0 .99626 287.817 0)"/><use xlink:href="#NimbusRomNo9L-Regu-64" transform="matrix(.99626 0 0 .99626 337.63 0)"/><use xlink:href="#NimbusRomNo9L-Regu-65" transform="matrix(.99626 0 0 .99626 387.444 0)"/><use xlink:href="#NimbusRomNo9L-Regu-28" transform="matrix(.99626 0 0 .99626 456.584 0)"/><use xlink:href="#NimbusRomNo9L-Regu-64" transform="matrix(.99626 0 0 .99626 489.759 0)"/><use xlink:href="#NimbusRomNo9L-Regu-42" transform="matrix(.99626 0 0 .99626 539.572 0)"/><use xlink:href="#NimbusRomNo9L-Regu-29" transform="matrix(.99626 0 0 .99626 606.022 0)"/></g></g><path id="line2d_97" d="m38.554 133.73.268.043.134-.293.067.5.067-.362.067.068.067.265.067-.345.067.108.134.676.201-1.393.067 1.785.067-.623.067-.87.134 1.26.067-.198.067-1.013.067.182.067.732.134-.867.134.345.067-.36.268 1.179.067-2.465.067 1.046.067 2.232.134-2.312.067 1.912.067-2.688.067 1.442.067.35.067-.715.067 1.497.067-1.956.067.03.067.798.067-.785.067 1.385.067-.294.067-.49.067.099.067.416.067-.517.067.225.067.55.067-1.8.066.714.134.412.067-.277.268 1.263.268-1.61.201.757.134-.378.067.495.067-.277.201.067.067-.12.067.062.402-.012.067-.102.134.52.335-.926.067 1.015.067-.51.134-.745.067.58.067-.069.067.117.067-.29.134.39.134-1.27.2 2.961.135-2.945.134.381.134 1.396.067-1.157.067.019.067.769.067-.877.067 1.224.067-.57.067.981.134-1.524.134 1.58.067-1.034.067.079.067.419.067-.848.2 1.257.134-1.154.134 1.132.067-1.848.067.64.067.179.067.511.134-1.09.134 1.235.067-.517.067.042.201-.797.201.909.067.237.134-.54.134.21.268-.167.201.089.201-.196.134.188.201-.068.067.368.067-.069.067-.263.067.612.067-.843.067.355.067.03.067.535.134-1.346.134.915.134-.623.067.73.067-.244.067-.051.134-.53.134 1.224.134-1.852.067 1.382.067-1.067.067.75.067-.156.134.845.067-1.564.067 2.139.067-2.825.067.944.134 3.083.066-2.836.067 1.77.067.064.268-2.319.067 1.589.067-.403.134-.714.067.056.067.052.067-.736.067 1.498.067-1.429.067 1.57.067-.99.067.909.067-1.442.067.23.067.315.067-.457.067.074.134 1.496.067-.71.134-1.08.067 1.005.067-.25.067-.665.067.606.067-.101.067.006.134-.177.268.097.067-.112.067.1.067-.066.067.252.067-.059.067-.045.067-.374.067.67.067-.02.067-.404.067.177.067-.16.134.693.2-1.75.135.946.067-.84.067 1.473.067-1.081.067.363.067 1.831.067-1.636.067 1.197.067-.292.067-1.763.067.725.067-.182.067.496.067-.711.067.09.067-.144.066-.642.134 2.404.067-1.333.067 1.423.134-2.588.067 2.042.067-1.254.067 1.074.067-2.265.067.798.067 1.133.067-1.499.067.756.067 1.017.134-1.236.067 1.065.134-1.149.134 1.584.067-1.896.067.673.134-.568.134.944.067-.804.067 1.422.067-1.182.067.075.067.71.067-.238.067-.33.067.2.067-.099.067-.34.067.568.067-.371.067.223.067-.069.067-.18.067.115.268-.013.067.133.067-.322.067.329.134-.35.067.05.067-.346.067.454.067-.04.067.091.067-.374.067.93.067-.904.067.06.067.093.134 1.24.2-1.563.135 1.995.067-1.535.067.437.067-.823.2 1.25.067-2.086.067 1.18.134-.61.067.387.067-1.67.134 1.558.067-.618.134 1.78.067-2.017.067 1.839.067-.336.067-.007.067.329.201-1.883.134 1.053.067-.152.067-.562.067.537.067-.234.067.236.067-1.279.067 2.307.067-.896.134-1.017.067 1.256.067-.68.067-.52.067.922.067-.318.067.25.067-.756.067.64.067-.394.067-.616.067.114.067.99.067-.278.067-.36.067.152.067-.03.067-.16.067.69.067-.47.067.122.134.066.268-.048.2.371.135-.374.134.769.067-1.03.067.164.268-.94.067 1.472.067-.82.067.04.067-.242.067.334.066-.732.067.556.067-.58.067 1.73.067-1.086.201-1.509.268 2.85.067-.232.134-.831.268 1.12.067-2.613.067 2.465.134-1.75.067.284.067 1.331.067-1.222.067 1.35.201-1.778.067-.269.268 1.9.134-2.722.201 2.145.067-.842.067.125.067.262.067-.06.067-.038.134-.783.067.891.067-.76.067.84.067-.505.067.383.2-.697.068.02.067.334.067-.12.067.083.2-.17.202.09.067.014.2-.438.068.424.067-.14.067.023.067.247.134-.924.2 1.048.067-.14.134-.037.067-.798.067.67.201-.986.067.935.067-.86.067 1.173.067-1.396.201 2.008.134-2.208.067 2.24.134-2.197.067-.152.067 4.317.134-4.47.134.932.067-1.244.067 2.058.067-1.452.067 1.13.134-1.42.134.966.067-1.087.067.375.134 1.799.067-.688.067-1.114.067.924.067-.098.067-.775.067 2.152.067-1.405.134.418.134-1.083.067.123.067.386.067-.105.134-.347.067.543.067-.33.067.266.067-.064.134-.493.067.365.067-.29.067.193.067.138.2-.237.202.028.2-.35.134.358.067-.475.067.275.067.418.067-.18.067.246.201-1.291.067 1.025.067-.19.134-.271.067.546.134-1.812.067 1.53.067-.193.067-.848.067 1.504.067-1.13.067.35.134-.736.134 1.096.067-1.088.067.684.067-.678.067.348.067.541.067-.535.067.802.067-1.752.134 1.596.067-1.474.067.657.067.32.067-.356.067 1.444.067-.768.067-.91.067.224.134 1.495.134-1.537.067.01.067.276.067-.903.134 1.638.134-1.77.2 1.84.202-2.043.067 1.51.067-.04.067-1.122.067.675.067-.09.067.35.067-.153.067-.468.067.341.067-.353.067.157.535-.15.067-.153.067.369.067-.677.067.452.067-.263.067-.003.067.212.201-.453.067.543.067-.833.067.386.067-.045.067-.185.067.26.067.869.067-.04.134-1.3.067.975.067-.25.067.049.067-.69.067.16.067.779.134-1.367.067 1.033.067-1.2.067.914.067-.717.067.52.067-1.069.067.636.067.14.134-.835.134 1.872.134-1.243.067.94.067-1.185.067.965.067-.457.067.262.067-1.359.067.827.067-.718.067 1.785.067-1.14.067.894.067-2.065.067.93.067.96.067-.53.2-.678.068-.022.067.952.067-.79.067.366.067.377.067-.494.134.739.067-.901.067.083.067-.206.2.356.201-.432.067.11.201-.13.134-.006.067-.027.067.134.067-.315.067.611.201-.784.201.508.201-.829.067.9.067-1.232.067.874.067-1.338.134 1.73.134-2.007.067.653.067-.63.134 2.58.067-1.168.067-.624.067.193.067.707.067-.646.067 1.721.067-3.097.067.987.067.84.067-2.234.134 3.716.134-2.386.067.005.067.583.067-.604.067 1.179.067-1.46.134 2.059.067-2.334.067.116.2-.223.068-.714.067 2.288.067-1.132.134-.064.067-.747.134 1.45.067-1.264.067 1.263.067-.32.133-.879.067 1.29.067-1.195.067 1.379.067-1.147.067.015.067.014.067 1.005.134-1.44.201.473.067-.467.067.15.201-.116.067.008.134-.478.067.666.067-.237.067.01.268-.977.067 1.947.067-.595.134-1.482.268 1.018.201-1.463.067.449.067-.974.067 1.234.067-.9.134 2.555.2-4.251.202 3.685.067.813.067-3.312.067 1.995.067 3.259.134-6.463.067 3.565.067-1.505.067 1.79.067-.027.134-5.262.134 5.095.067-.733.2-3.313.068 2.574.067-.19.067.18.067 1.243.134-5.273.067 4.797.066-2.817.067.128.134-1.226.067 4.62.067-.284.134-2.796.134.63.067-1.6.067 1.756.067-.635.067-.411.067 2.506.067-.144.201-1.416.201-.696.201.3.134-.469.067.405.067-.435.067 1.062.067-.039.268-2.091.067.888.067-1.962.067 1.083.067 1.126.067-.228.067-.41.067-1.59.067 2.935.067-2.622.067.202.067.535.134-1.063.2 3.36.068-.546.067-2.082.067 6.9.067-8.808.067 2.43.067-3.42.067 2.123.067 4.322.067-1.818.2-2.925.068 5.024.067-3.223.067-5.552.134 7.345.2-6.575.068.956.134 4.71.067 7.988.067-9.504.066 1.05.067-1.69.067 5.067.067-6.86.067 2.292.268 4.062.067-6.848.067 2.539.067-1.514.067.454.067 2.245.134-1.523.067-.301.067 1.388.067 8.514.134-10.186.067-.48.067.116.067 2.26.134-2.625.067.47.067-.475.067.682.067-.309.201-.033.201-.424.067.77.067-.328.067.34.134-.745.067.579.134-2.927.067-.093.067 3.31.067-1.571.067-.748.067-3.057.134 9.825.067-8.273.067 8.686.067-5.144.067 2.875.134-3.523.067 1.091.067-4.591.067 2.026.067-.608.067 1.222.067-.818.067.415.2-1.312.068-2.983.2 7.862.135-4.894.067.798.067 14.025.133-13.932.067-1.739.067 2.295.067-.852.134-2.985.201 4.235.268-6.545.067 1.044.067 4.112.067-4.399.134 7.02.134-3.394.067.214.067-5.298.134 8.288.134-4.971.134 1.63.067-.684.067.85.134-1.643.134-.57.067 1.726.067-1.04.067.61.067-.387.201-.748.067.7.268-1.749.067.322.067 1.681.067-3.591.067 3.091.067-.232.067-.38.134-3.622.067 10.382.134-8.353.067-1.47.067 3.166.067-.196.067-1.336.067.62.067 9.126.067-11.26.067 3.581.067-1.144.067-4.914.067 3.209.067 1 .067-3.952.134 4.492.134-4.62.067 1.922.066-2.801.201 8.2.067-11.434.067 10.882.067-6.397.067.602.134-1.157.067-3.882.067 9.902.067-7.313.067.41.201 9.443.134-7.623.067 4.149.134-9.168.134 8.59.134-1.968.067.189.268-5.108.067.099.067-.47.134 3.408.201-2.515.067 3.052.134-3.316.067-.135.067-1.096.067.67.067.297.268-.85.134-.408.067.624.067-1.393.067 1.964.067-2.585.067.552.067-1.053.067 1.527.067-3.255.067 5.542.067-7.349.067.926.067 3.51.067-.629.067-6.523.2 13.794.068-14.773.067 5.73.067 6.09.067-3.391.067-5.644.067 4.254.067-6.76.067 2.847.133 2.4.201-8.756.067 19.812.067-7.954.067 2.622.067-13.784.067 4.881.067-4.387.067 7.355.067-19.332.067 12.41.067-1.552.067 13.504.134-28.71.067-1.143.067 15.08.201-24.754.067 4.677.067 17.632.067-11.182.134-15.285.067 1.876.067 9.158.201-17.338.067.51.067 16.72.201-24.039.067 1.952.067 11.884.2-20.709.068.822.067 22.618.2-33.078.068 2.99.067 18.772.2-38.146.135-5.346.067.723.2 21.189.068 21.58.134-21.762.134 12.558.067 20.52.134-23.44.134 10.54.067 10.169.134-13.836.067 2.815.134 21.224.133-17.23.134 9.935.067 7.403.134-11.034.067 1.365.134 25.102.134-22.309.201 24.753.067-15.079.067 1.144.067 2.219.067 26.49.067-13.504.067 1.552.067-12.41.067 19.332.067-7.355.067 4.387.067-4.881.201 19.116.067-19.812.067 1.914.134 6.842.067-.648.134-4.598.067 6.76.067-4.255.134 9.034.134-11.819.067 14.773.2-13.794.135 7.151.134-4.435.067 7.35.067-5.543.067 3.255.067-1.527.2 3.086.068-1.964.067 1.393.067-.624.402 1.258.134-.967.134 1.23.067.019.067 3.298.067-3.052.067 1.88.067-1.031.067 1.666.067-1.04.066-2.369.067.471.067-.1.268 5.109.067-.189.067-1.84.067 3.809.134-8.59.067 1.683.067 7.484.067-4.15.067.048.067 7.576.067-7.143.067 3.347.134-6.057.067 7.313.067-9.902.067 3.882.134 1.157.067-.602.067 6.397.067-10.882.067 11.434.067-6.515.067.464.067-2.15.067 2.802.067-1.923.134 4.621.067-1.08.067-3.412.067 3.953.067-1.001.067-3.209.134 6.058.067-3.581.067 11.26.134-9.746.134 1.532.067-3.166.067 1.47.067.036.067 8.317.067-10.382.067.023.134 3.979.067.232.067-3.091.067 3.591.067-1.681.067-.322.268 1.75.067-.701.067.29.067.116.134.728.067-.61.067 1.04.067-1.725.066.412.134.285.067 1.516.067-.85.067.685.134-1.631.067 1.087.067 3.884.134-8.288.067 5.298.067-.214.134 3.395.134-7.02.067 4.398.134-5.156.201 4.992.067 1.553.201-4.235.201 3.837.067-2.295.134 3.713.067 11.958.134-14.823.067.686.067 4.208.067-2.084.134-5.778.134 3.573.067.145.067.577.067-.415.067.818.2-2.64.068 4.591.067-1.091.067.666.067 2.857.067-2.875.067 5.144.067-8.686.067 8.273.067-5.194.067-4.631.2 5.376.068-3.31.067.093.067.408.067 2.519.067-.579.134.744.067-.339.067.328.067-.77.067.285.067-.061.133.234h.134l.067.308.067-.682.067.476.067-.47.067.474.067 2.15.134-2.376.134 1.528.067 9.138.134-9.902.134.337.067 1.487.134-2.699.067 1.514.067-2.54.067 6.849.067-2.024.268-4.33.067 6.86.067-5.068.067 1.69.067-1.05.067 9.505.201-12.698.067-.956.201 6.575.067-.443.067-6.902.134 8.775.067-5.024.067 2.512.067-.573.134 2.804.134-6.445.067 3.42.067-2.43.067 8.807.067-6.9.067 2.083.067.546.2-3.36.068.553.067.51.134-.737.067 2.622.067-2.935.067 1.59.134.638.134-2.21.067 1.963.067-.888.133.403.201 1.727.067-1.062.067.435.067-.405.067.17.134.322.134-.323.201.696.067.109.201 1.451.067-2.506.067.411.067.635.067-1.755.067 1.6.067-.035.067-.596.201 3.08.067-4.62.067.328.201 3.587.067-4.797.067 2.353.067 2.92.067-1.243.067-.18.067.19.067-2.574.067 1.563.067-.598.134 3.081.134-5.095.067.906.134 4.383.067-1.79.067 1.505.067-3.565.067.57.067 5.893.067-3.259.067-1.995.067 3.312.067-.813.2-3.685.202 4.25.067-.396.067-2.158.067.9.067-1.234.067.974.067-.45.2 1.464.068-.196.066-.046.134-.776.067.395.134 1.682.067-1.947.067.378.067.47.067-.097.201.453.067-.666.067.168.134.302.201.116.067-.15.067.467.067-.17.134-.304.067.389.067 1.052.134-1.02.067-.014.067 1.147.067-1.379.067 1.196.067-1.29.067.099.134 1.099.067-1.263.067 1.265.067-.259.067-1.192.067.747.134.064.067 1.132.067-2.288.067.714.2.223.068-.116.067 2.334.067-.2.067-1.858.067 1.459.067-1.179.067.604.134-.588.067.336.067 2.05.067-.834.067-2.882.067 2.233.067-.839.067-.987.067 3.097.067-1.721.067.646.134-.9.134 1.792.134-2.58.067.63.066-.653.134 2.008.067-.73.067-1.001.067 1.338.067-.874.067 1.232.067-.9.067.092.134.737.067-.326.134-.182.201.784.067-.61.067.314.134-.107.335.136.067-.11.268.419.134-.343.134.123.067.9.067-.355.067-.383.067.494.134-.743.067.79.067-.952.067.022.268 1.207.134-1.889.067 2.065.067-.894.067 1.14.067-1.785.067.718.067-.827.067 1.36.067-.263.067.457.067-.965.067 1.185.067-.94.067.42.067.823.134-1.872.067.229.067.605.067-.139.067-.636.067 1.069.067-.52.067.717.067-.915.067 1.2.066-1.032.067.333.067 1.034.134-.94.067.69.067-.048.067.25.067-.974.067.613.134.726.134-1.129.134.23.067-.386.067.833.067-.543.201.453.134-.21.067.264.067-.452.067.677.067-.369.067.152.067-.042.469.193.067-.157.067.353.067-.34.134.62.2-.935.135 1.163.067-1.511.067.555.134 1.487.134-.63.067-1.208.134 1.769.134-1.638.067.903.067-.275.067-.011.067.388.067 1.149.067-.463.134-1.256.134 1.678.067-1.444.067.357.134-.978.067 1.474.067-.267.067-1.329.067 1.752.066-.802.067.535.134-.89.067.68.067-.685.067 1.088.067-.544.067-.552.067.034.201 1.482.067-1.504.067.848.067.192.067-1.529.067.51.067 1.302.067-.546.201.461.067-1.025.201 1.29.067-.245.067.18.134-.693.067.475.067-.013.067-.345.067.22.067-.102.067.232.067-.065.268.105.067.17.134-.333.067.29.067-.364.067.087.134.47.067-.267.067.33.067-.542.067.134.134.318.134-.509.067.01.067 1.073.067-.283.067-.135.067 1.405.067-2.152.067.775.067.098.067-.924.134 1.802.2-2.174.068 1.087.067-.155.067-.811.066.483.067.938.067-1.13.067 1.451.067-2.058.067 1.244.134-.931.067.708.067 3.761.067-4.317.067.152.067.305.067 1.893.067-2.241.067 1.434.067.774.201-2.008.067 1.396.067-1.172.067.859.067-.935.067.403.067.13.067.453.067-.67.067.798.067-.035.134.212.134-.66.067-.388.134.924.067-.247.067-.022.067.14.067-.425.067.068.2.356.202-.09.134.07.2.137.135-.354.134.364.067.333.067-.383.067.504.067-.84.067.761.067-.891.067.384.134.437.067.06.134-.387.067.842.067-.343.067-.338.067-1.464.134 2.721.067-.927.2-.972.067.27.201 1.778.067-1.351.067 1.222.134-1.614.067.087.067 1.662.067-2.465.067 2.613.067-.547.201-.573.201 1.064.268-2.851.067 1.147.067-.097.134 1.545.067-1.73.067.58.067-.556.067.732.067-.334.201 1.022.067-1.472.067.544.067-.128.134.524.067-.164.067 1.03.067-.241.067-.528.067.128.067.246.067-.304.067.047.2-.148.202.1.134-.207.067.471.067-.69.067.16.067.03.067-.152.134.639.134-1.105.134 1.01.067-.64.067.756.067-.25.067.318.067-.922.067.52.066.68.067-1.256.067.522.134 1.39.067-2.306.067 1.279.067-.236.067.234.067-.537.134.714.067-.213.067-.84.201 1.883.134-.322.067.336.067-1.84.067 2.019.067-1.18.067-.601.067.618.067-.028.067-1.53.067 1.67.067-.386.134.61.067-1.181.067 2.086.067-.998.067.4.067-.652.201 1.92.067-.286.067-1.708.067.968.067-.244.067.84.067-.132.134-1.202.067-.06.067.904.067-.93.067.374.134-.051.067-.454.067.346.067-.05.134.35.067-.329.067.322.067-.133.335-.103.134.25.067-.223.067.37.067-.567.067.34.067.1.067-.201.133.568.134-.785.067 1.182.067-1.422.067.804.134-.944.067.118.067.45.067-.673.067 1.896.067-.764.067-.82.067.35.067.8.067-1.066.067.486.067.75.134-1.773.067 1.499.134-1.931.067 2.265.067-1.074.067 1.254.067-2.042.067 1.33.067 1.258.067-1.423.067 1.333.067-.717.067-1.687.067.642.067.144.067-.09.067.711.201-1.04.134 2.056.067-1.197.067 1.636.134-2.194.067 1.081.067-1.473.067.84.067-.239.067-.707.2 1.75.068-.169.067-.524.067.16.067-.177.134.423.067-.669.067.374.134.104.067-.252.067.065.067-.099.134.135.268-.085.2.237.067-.606.134.915.067-1.006.067.306.134 1.485.201-1.57.067.457.134-.545.067 1.442.067-.908.067.989.067-1.57.067 1.429.067-1.498.067.736.134-.108.201 1.117.067-1.589.067.444.201 1.875.067-.064.067-1.77.067 2.836.201-4.027.067 2.825.067-2.139.067 1.564.067-.522.2-.917.068 1.067.067-1.382.067.332.067 1.52.067-.356.067-.868.067.336.2.489.068-.73.067.306.067.317.134-.915.067.311.067 1.035.067-.536.067-.029.067-.355.067.843.067-.612.067.263.067.07.067-.369.067.081.067-.089.067.076.067-.002.067-.186.067.095.267.072.134-.001.134.037.134.008.134-.146.067.539.067-.237.201-.909.335 1.272.134-1.235.067.223.067.867.067-.511.067-.18.067-.64.067 1.849.067-.822.067-.31.067.28.067.874.067-.172.067-.178.067-.907.067.848.067-.42.067-.078.067 1.033.067-.657.067-.922.067.314.067 1.21.2-1.635.068.877.134-.788.067 1.157.134-1.396.067.345.067-.726.134 2.945.2-2.961.135 1.27.067-.005.067-.385.067.29.067-.117.067.07.067-.581.2 1.255.068-1.015.067.372.067-.066.2.62.067-.005.067-.515.067.102.067.146.067-.092.067.02.067-.104.067.054.402-.021.067.277.067-.495.067.08.067.298.067-.165.067-.062.067-.53.268 1.61.268-1.263.067.277.067-.07.134-1.056.067 1.8.067-.55.067-.225.067.517.134-.515.134.784.067-1.385.067.785.134-.828.067 1.956.067-1.497.067.714.067-.349.067-1.442.067 2.688.067-1.912.067.327.067 1.985.134-3.278.067 2.465.067-.32.2-.859.068.36.067-.172.067-.173.134.867.134-.914.134 1.21.067-.065.067-1.193.134 1.492.066-1.785.067.798.067-.39.067.985.067-.4.134-.384.067.345.134-.333.067.362.067-.5.067.203.134.078.134-.014h0" clip-path="url(#p009aafd33c)" style="fill:none;stroke:#000;stroke-linecap:square"/><path id="patch_3" d="M30.184 142.2V3.6" style="fill:none;stroke:#000;stroke-width:.5;stroke-linejoin:miter;stroke-linecap:square"/><path id="patch_4" d="M214.324 142.2V3.6" style="fill:none;stroke:#000;stroke-width:.5;stroke-linejoin:miter;stroke-linecap:square"/><path id="patch_5" d="M30.184 142.2h184.14" style="fill:none;stroke:#000;stroke-width:.5;stroke-linejoin:miter;stroke-linecap:square"/><path id="patch_6" d="M30.184 3.6h184.14" style="fill:none;stroke:#000;stroke-width:.5;stroke-linejoin:miter;stroke-linecap:square"/></g></g><defs><clipPath id="p009aafd33c"><path d="M30.184 3.6h184.14v138.6H30.184z"/></clipPath></defs></svg>