<svg xmlns="http://www.w3.org/2000/svg" xmlns:xlink="http://www.w3.org/1999/xlink" width="290.566" height="223.411" viewBox="0 0 217.924 167.558"><defs><style>*{stroke-linejoin:round;stroke-linecap:butt}</style></defs><g id="figure_1"><path id="patch_1" d="M0 167.558h217.924V0H0z" style="fill:none"/><g id="axes_1"><path id="patch_2" d="M30.184 142.2h184.14V3.6H30.184z" style="fill:none"/><g id="matplotlib.axis_1"><g id="xtick_1"><g id="line2d_1"><defs><path id="mcdd602c871" d="M0 0v-3" style="stroke:#000;stroke-width:.5"/></defs><use xlink:href="#mcdd602c871" x="55.301" y="142.2" style="stroke:#000;stroke-width:.5"/></g><g id="line2d_2"><defs><path id="m852b8d6e92" d="M0 0v3" style="stroke:#000;stroke-width:.5"/></defs><use xlink:href="#m852b8d6e92" x="55.301" y="3.6" style="stroke:#000;stroke-width:.5"/></g><g id="text_1" transform="matrix(.08 0 0 -.08 47.116 151.104)"><defs><path id="CMSY10-0" d="M4218 1472c108 0 224 0 224 128s-116 128-224 128H755c-109 0-224 0-224-128s115-128 224-128z" transform="scale(.01563)"/><path id="NimbusRomNo9L-Regu-30" d="M1626 4352c-352 0-621-108-858-332-371-359-614-1095-614-1844 0-697 211-1446 512-1804C902 90 1229-64 1600-64c326 0 602 109 832 333 371 352 614 1095 614 1869 0 1312-582 2214-1420 2214m-20-166c538 0 826-723 826-2061 0-1337-282-2022-832-2022S768 788 768 2119c0 1357 288 2067 838 2067" transform="scale(.01563)"/><path id="CMMI10-3a" d="M1229 338c0 184-154 337-339 337-186 0-340-153-340-337C550 153 704 0 890 0c185 0 339 153 339 338" transform="scale(.01563)"/><path id="NimbusRomNo9L-Regu-34" d="M3021 1497h-653v2855h-282L77 1497v-409h1798V32h493v1056h653zm-1152 0H333l1536 2201z" transform="scale(.01563)"/></defs><use xlink:href="#CMSY10-0" transform="scale(.99626)"/><use xlink:href="#NimbusRomNo9L-Regu-30" transform="matrix(.99626 0 0 .99626 77.409 0)"/><use xlink:href="#CMMI10-3a" transform="matrix(.99626 0 0 .99626 127.222 0)"/><use xlink:href="#NimbusRomNo9L-Regu-34" transform="matrix(.99626 0 0 .99626 154.817 0)"/></g></g><g id="xtick_2"><use xlink:href="#mcdd602c871" id="line2d_3" x="88.794" y="142.2" style="stroke:#000;stroke-width:.5"/><use xlink:href="#m852b8d6e92" id="line2d_4" x="88.794" y="3.6" style="stroke:#000;stroke-width:.5"/><g id="text_2" transform="matrix(.08 0 0 -.08 80.61 151.104)"><defs><path id="NimbusRomNo9L-Regu-32" d="m3040 875-83 32c-237-363-320-421-608-421H819l1075 1123c570 593 820 1078 820 1576 0 638-519 1128-1184 1128-352 0-685-140-922-395-205-218-301-422-410-875l135-32c256 625 486 829 928 829 537 0 902-364 902-900 0-497-294-1090-832-1658L192 77V0h2496z" transform="scale(.01563)"/></defs><use xlink:href="#CMSY10-0" transform="scale(.99626)"/><use xlink:href="#NimbusRomNo9L-Regu-30" transform="matrix(.99626 0 0 .99626 77.409 0)"/><use xlink:href="#CMMI10-3a" transform="matrix(.99626 0 0 .99626 127.222 0)"/><use xlink:href="#NimbusRomNo9L-Regu-32" transform="matrix(.99626 0 0 .99626 154.817 0)"/></g></g><g id="xtick_3"><use xlink:href="#mcdd602c871" id="line2d_5" x="122.288" y="142.2" style="stroke:#000;stroke-width:.5"/><use xlink:href="#m852b8d6e92" id="line2d_6" x="122.288" y="3.6" style="stroke:#000;stroke-width:.5"/><g id="text_3" transform="matrix(.08 0 0 -.08 117.199 151.104)"><use xlink:href="#NimbusRomNo9L-Regu-30" transform="scale(.99626)"/><use xlink:href="#CMMI10-3a" transform="matrix(.99626 0 0 .99626 49.813 0)"/><use xlink:href="#NimbusRomNo9L-Regu-30" transform="matrix(.99626 0 0 .99626 77.409 0)"/></g></g><g id="xtick_4"><use xlink:href="#mcdd602c871" id="line2d_7" x="155.781" y="142.2" style="stroke:#000;stroke-width:.5"/><use xlink:href="#m852b8d6e92" id="line2d_8" x="155.781" y="3.6" style="stroke:#000;stroke-width:.5"/><g id="text_4" transform="matrix(.08 0 0 -.08 150.692 151.104)"><use xlink:href="#NimbusRomNo9L-Regu-30" transform="scale(.99626)"/><use xlink:href="#CMMI10-3a" transform="matrix(.99626 0 0 .99626 49.813 0)"/><use xlink:href="#NimbusRomNo9L-Regu-32" transform="matrix(.99626 0 0 .99626 77.409 0)"/></g></g><g id="xtick_5"><use xlink:href="#mcdd602c871" id="line2d_9" x="189.275" y="142.2" style="stroke:#000;stroke-width:.5"/><use xlink:href="#m852b8d6e92" id="line2d_10" x="189.275" y="3.6" style="stroke:#000;stroke-width:.5"/><g id="text_5" transform="matrix(.08 0 0 -.08 184.186 151.104)"><use xlink:href="#NimbusRomNo9L-Regu-30" transform="scale(.99626)"/><use xlink:href="#CMMI10-3a" transform="matrix(.99626 0 0 .99626 49.813 0)"/><use xlink:href="#NimbusRomNo9L-Regu-34" transform="matrix(.99626 0 0 .99626 77.409 0)"/></g></g><g id="xtick_6"><g id="line2d_11"><defs><path id="meb1c4eae46" d="M0 0v-1.5" style="stroke:#000;stroke-width:.5"/></defs><use xlink:href="#meb1c4eae46" x="38.554" y="142.2" style="stroke:#000;stroke-width:.5"/></g><g id="line2d_12"><defs><path id="mcd05984687" d="M0 0v1.5" style="stroke:#000;stroke-width:.5"/></defs><use xlink:href="#mcd05984687" x="38.554" y="3.6" style="stroke:#000;stroke-width:.5"/></g></g><g id="xtick_7"><use xlink:href="#meb1c4eae46" id="line2d_13" x="46.928" y="142.2" style="stroke:#000;stroke-width:.5"/><use xlink:href="#mcd05984687" id="line2d_14" x="46.928" y="3.6" style="stroke:#000;stroke-width:.5"/></g><g id="xtick_8"><use xlink:href="#meb1c4eae46" id="line2d_15" x="63.674" y="142.2" style="stroke:#000;stroke-width:.5"/><use xlink:href="#mcd05984687" id="line2d_16" x="63.674" y="3.6" style="stroke:#000;stroke-width:.5"/></g><g id="xtick_9"><use xlink:href="#meb1c4eae46" id="line2d_17" x="72.048" y="142.2" style="stroke:#000;stroke-width:.5"/><use xlink:href="#mcd05984687" id="line2d_18" x="72.048" y="3.6" style="stroke:#000;stroke-width:.5"/></g><g id="xtick_10"><use xlink:href="#meb1c4eae46" id="line2d_19" x="80.421" y="142.2" style="stroke:#000;stroke-width:.5"/><use xlink:href="#mcd05984687" id="line2d_20" x="80.421" y="3.6" style="stroke:#000;stroke-width:.5"/></g><g id="xtick_11"><use xlink:href="#meb1c4eae46" id="line2d_21" x="97.168" y="142.2" style="stroke:#000;stroke-width:.5"/><use xlink:href="#mcd05984687" id="line2d_22" x="97.168" y="3.6" style="stroke:#000;stroke-width:.5"/></g><g id="xtick_12"><use xlink:href="#meb1c4eae46" id="line2d_23" x="105.541" y="142.2" style="stroke:#000;stroke-width:.5"/><use xlink:href="#mcd05984687" id="line2d_24" x="105.541" y="3.6" style="stroke:#000;stroke-width:.5"/></g><g id="xtick_13"><use xlink:href="#meb1c4eae46" id="line2d_25" x="113.914" y="142.2" style="stroke:#000;stroke-width:.5"/><use xlink:href="#mcd05984687" id="line2d_26" x="113.914" y="3.6" style="stroke:#000;stroke-width:.5"/></g><g id="xtick_14"><use xlink:href="#meb1c4eae46" id="line2d_27" x="130.661" y="142.2" style="stroke:#000;stroke-width:.5"/><use xlink:href="#mcd05984687" id="line2d_28" x="130.661" y="3.6" style="stroke:#000;stroke-width:.5"/></g><g id="xtick_15"><use xlink:href="#meb1c4eae46" id="line2d_29" x="139.034" y="142.2" style="stroke:#000;stroke-width:.5"/><use xlink:href="#mcd05984687" id="line2d_30" x="139.034" y="3.6" style="stroke:#000;stroke-width:.5"/></g><g id="xtick_16"><use xlink:href="#meb1c4eae46" id="line2d_31" x="147.408" y="142.2" style="stroke:#000;stroke-width:.5"/><use xlink:href="#mcd05984687" id="line2d_32" x="147.408" y="3.6" style="stroke:#000;stroke-width:.5"/></g><g id="xtick_17"><use xlink:href="#meb1c4eae46" id="line2d_33" x="164.155" y="142.2" style="stroke:#000;stroke-width:.5"/><use xlink:href="#mcd05984687" id="line2d_34" x="164.155" y="3.6" style="stroke:#000;stroke-width:.5"/></g><g id="xtick_18"><use xlink:href="#meb1c4eae46" id="line2d_35" x="172.528" y="142.2" style="stroke:#000;stroke-width:.5"/><use xlink:href="#mcd05984687" id="line2d_36" x="172.528" y="3.6" style="stroke:#000;stroke-width:.5"/></g><g id="xtick_19"><use xlink:href="#meb1c4eae46" id="line2d_37" x="180.901" y="142.2" style="stroke:#000;stroke-width:.5"/><use xlink:href="#mcd05984687" id="line2d_38" x="180.901" y="3.6" style="stroke:#000;stroke-width:.5"/></g><g id="xtick_20"><use xlink:href="#meb1c4eae46" id="line2d_39" x="197.648" y="142.2" style="stroke:#000;stroke-width:.5"/><use xlink:href="#mcd05984687" id="line2d_40" x="197.648" y="3.6" style="stroke:#000;stroke-width:.5"/></g><g id="xtick_21"><use xlink:href="#meb1c4eae46" id="line2d_41" x="206.021" y="142.2" style="stroke:#000;stroke-width:.5"/><use xlink:href="#mcd05984687" id="line2d_42" x="206.021" y="3.6" style="stroke:#000;stroke-width:.5"/></g><g id="text_6" transform="matrix(.08 0 0 -.08 109.753 162.233)"><defs><path id="NimbusRomNo9L-Regu-66" d="M1978 2880h-788v731c0 367 122 562 365 562 135 0 224-63 339-246 103-164 180-227 288-227 148 0 269 114 269 259 0 229-281 393-665 393-397 0-736-171-903-461-166-278-217-506-224-1011H134v-205h525V656c0-471-70-547-531-547V0h1664v109c-525 0-595 71-595 552v2014h781z" transform="scale(.01563)"/><path id="NimbusRomNo9L-Regu-28" d="M1888 4326c-474-307-666-473-902-768-455-556-679-1196-679-1945 0-813 237-1440 800-2093 263-307 429-448 762-653l77 103c-512 403-692 627-864 1107-154 429-224 915-224 1555 0 672 83 1197 256 1594 179 396 371 627 832 998z" transform="scale(.01563)"/><path id="NimbusRomNo9L-Regu-47" d="M4538 2304H2906v-128c275 0 352-19 428-71 96-58 135-207 135-484V574c0-207-391-382-851-382-1044 0-1684 730-1684 1920 0 602 180 1184 461 1498 282 314 679 486 1114 486 358 0 672-121 921-352 192-179 295-352 455-742h147l-51 1350h-141c-38-121-154-211-288-211-64 0-166 19-282 64-288 96-582 147-870 147-1280 0-2195-940-2195-2246 0-627 173-1107 531-1485C1165 180 1779-64 2483-64c551 0 1351 224 1607 449v1309c0 379 76 463 448 495z" transform="scale(.01563)"/><path id="NimbusRomNo9L-Regu-48" d="M1338 2304v1229c0 457 70 526 563 571v120H122v-120c492-45 563-115 563-577V749c0-539-64-615-563-615V0h1779v121c-480 38-563 121-563 578v1323h1939V757c0-546-64-623-563-623V0h1779v121c-480 38-563 121-563 575v2833c0 460 70 530 563 575v120H2714v-120c492-45 563-114 563-571V2304z" transform="scale(.01563)"/><path id="NimbusRomNo9L-Regu-7a" d="m2675 864-115 26c-64-320-102-423-186-532-89-108-307-166-633-166H858l1721 2592v96H358l-19-755h115c58 467 154 563 538 563h883L173 96V0h2413z" transform="scale(.01563)"/><path id="NimbusRomNo9L-Regu-29" d="M243-1133c474 307 666 474 903 768 454 557 678 1197 678 1946 0 819-237 1440-800 2093-262 307-429 448-762 652l-76-102c512-403 684-627 864-1107 153-429 224-915 224-1555 0-666-84-1197-256-1588-180-403-372-633-832-1004z" transform="scale(.01563)"/></defs><use xlink:href="#NimbusRomNo9L-Regu-66" transform="scale(.99626)"/><use xlink:href="#NimbusRomNo9L-Regu-28" transform="matrix(.99626 0 0 .99626 58.082 0)"/><use xlink:href="#NimbusRomNo9L-Regu-47" transform="matrix(.99626 0 0 .99626 91.257 0)"/><use xlink:href="#NimbusRomNo9L-Regu-48" transform="matrix(.99626 0 0 .99626 163.187 0)"/><use xlink:href="#NimbusRomNo9L-Regu-7a" transform="matrix(.99626 0 0 .99626 235.117 0)"/><use xlink:href="#NimbusRomNo9L-Regu-29" transform="matrix(.99626 0 0 .99626 279.35 0)"/></g></g><g id="matplotlib.axis_2"><g id="ytick_1"><g id="line2d_43"><defs><path id="m57486ad2cd" d="M0 0h3" style="stroke:#000;stroke-width:.5"/></defs><use xlink:href="#m57486ad2cd" x="30.184" y="124.716" style="stroke:#000;stroke-width:.5"/></g><g id="line2d_44"><defs><path id="mfbcd24d5b5" d="M0 0h-3" style="stroke:#000;stroke-width:.5"/></defs><use xlink:href="#mfbcd24d5b5" x="214.324" y="124.716" style="stroke:#000;stroke-width:.5"/></g><g id="text_7" transform="matrix(.08 0 0 -.08 18.714 127.418)"><defs><path id="NimbusRomNo9L-Regu-35" d="M1158 3776h1255c102 0 128 13 147 58l243 569-57 45c-96-134-160-166-295-166H1114L416 2759c-6-13-6-19-6-32 0-32 25-51 76-51 205 0 461-45 724-129 736-238 1075-637 1075-1273 0-618-391-1101-890-1101-128 0-237 45-429 187-204 148-352 212-486 212-186 0-275-77-275-238C205 90 506-64 986-64c537 0 998 174 1318 502 294 290 429 656 429 1145 0 463-122 759-442 1080-281 284-646 431-1401 566z" transform="scale(.01563)"/></defs><use xlink:href="#NimbusRomNo9L-Regu-32" transform="scale(.99626)"/><use xlink:href="#NimbusRomNo9L-Regu-35" transform="matrix(.99626 0 0 .99626 49.813 0)"/></g></g><g id="ytick_2"><use xlink:href="#m57486ad2cd" id="line2d_45" x="30.184" y="105.438" style="stroke:#000;stroke-width:.5"/><use xlink:href="#mfbcd24d5b5" id="line2d_46" x="214.324" y="105.438" style="stroke:#000;stroke-width:.5"/><g id="text_8" transform="matrix(.08 0 0 -.08 18.714 108.14)"><use xlink:href="#NimbusRomNo9L-Regu-35" transform="scale(.99626)"/><use xlink:href="#NimbusRomNo9L-Regu-30" transform="matrix(.99626 0 0 .99626 49.813 0)"/></g></g><g id="ytick_3"><use xlink:href="#m57486ad2cd" id="line2d_47" x="30.184" y="86.161" style="stroke:#000;stroke-width:.5"/><use xlink:href="#mfbcd24d5b5" id="line2d_48" x="214.324" y="86.161" style="stroke:#000;stroke-width:.5"/><g id="text_9" transform="matrix(.08 0 0 -.08 18.714 88.863)"><defs><path id="NimbusRomNo9L-Regu-37" d="M2874 4250H506l-378-940 109-52c275 435 390 518 742 518h1389L1101-32h416l1357 4180z" transform="scale(.01563)"/></defs><use xlink:href="#NimbusRomNo9L-Regu-37" transform="scale(.99626)"/><use xlink:href="#NimbusRomNo9L-Regu-35" transform="matrix(.99626 0 0 .99626 49.813 0)"/></g></g><g id="ytick_4"><use xlink:href="#m57486ad2cd" id="line2d_49" x="30.184" y="66.883" style="stroke:#000;stroke-width:.5"/><use xlink:href="#mfbcd24d5b5" id="line2d_50" x="214.324" y="66.883" style="stroke:#000;stroke-width:.5"/><g id="text_10" transform="matrix(.08 0 0 -.08 14.73 69.585)"><defs><path id="NimbusRomNo9L-Regu-31" d="M1862 4339 710 3757v-90c77 32 148 58 173 71 115 45 224 70 288 70 135 0 192-97 192-303V592c0-213-51-360-153-419-96-57-186-77-455-77V0h1767v96c-506 0-608 64-608 374v3857z" transform="scale(.01563)"/></defs><use xlink:href="#NimbusRomNo9L-Regu-31" transform="scale(.99626)"/><use xlink:href="#NimbusRomNo9L-Regu-30" transform="matrix(.99626 0 0 .99626 49.813 0)"/><use xlink:href="#NimbusRomNo9L-Regu-30" transform="matrix(.99626 0 0 .99626 99.626 0)"/></g></g><g id="ytick_5"><use xlink:href="#m57486ad2cd" id="line2d_51" x="30.184" y="47.606" style="stroke:#000;stroke-width:.5"/><use xlink:href="#mfbcd24d5b5" id="line2d_52" x="214.324" y="47.606" style="stroke:#000;stroke-width:.5"/><g id="text_11" transform="matrix(.08 0 0 -.08 14.73 50.308)"><use xlink:href="#NimbusRomNo9L-Regu-31" transform="scale(.99626)"/><use xlink:href="#NimbusRomNo9L-Regu-32" transform="matrix(.99626 0 0 .99626 49.813 0)"/><use xlink:href="#NimbusRomNo9L-Regu-35" transform="matrix(.99626 0 0 .99626 99.626 0)"/></g></g><g id="ytick_6"><use xlink:href="#m57486ad2cd" id="line2d_53" x="30.184" y="28.328" style="stroke:#000;stroke-width:.5"/><use xlink:href="#mfbcd24d5b5" id="line2d_54" x="214.324" y="28.328" style="stroke:#000;stroke-width:.5"/><g id="text_12" transform="matrix(.08 0 0 -.08 14.73 31.03)"><use xlink:href="#NimbusRomNo9L-Regu-31" transform="scale(.99626)"/><use xlink:href="#NimbusRomNo9L-Regu-35" transform="matrix(.99626 0 0 .99626 49.813 0)"/><use xlink:href="#NimbusRomNo9L-Regu-30" transform="matrix(.99626 0 0 .99626 99.626 0)"/></g></g><g id="ytick_7"><use xlink:href="#m57486ad2cd" id="line2d_55" x="30.184" y="9.051" style="stroke:#000;stroke-width:.5"/><use xlink:href="#mfbcd24d5b5" id="line2d_56" x="214.324" y="9.051" style="stroke:#000;stroke-width:.5"/><g id="text_13" transform="matrix(.08 0 0 -.08 14.73 11.753)"><use xlink:href="#NimbusRomNo9L-Regu-31" transform="scale(.99626)"/><use xlink:href="#NimbusRomNo9L-Regu-37" transform="matrix(.99626 0 0 .99626 49.813 0)"/><use xlink:href="#NimbusRomNo9L-Regu-35" transform="matrix(.99626 0 0 .99626 99.626 0)"/></g></g><g id="ytick_8"><g id="line2d_57"><defs><path id="m8b4aed914d" d="M0 0h1.5" style="stroke:#000;stroke-width:.5"/></defs><use xlink:href="#m8b4aed914d" x="30.184" y="140.138" style="stroke:#000;stroke-width:.5"/></g><g id="line2d_58"><defs><path id="m61a37730d5" d="M0 0h-1.5" style="stroke:#000;stroke-width:.5"/></defs><use xlink:href="#m61a37730d5" x="214.324" y="140.138" style="stroke:#000;stroke-width:.5"/></g></g><g id="ytick_9"><use xlink:href="#m8b4aed914d" id="line2d_59" x="30.184" y="136.282" style="stroke:#000;stroke-width:.5"/><use xlink:href="#m61a37730d5" id="line2d_60" x="214.324" y="136.282" style="stroke:#000;stroke-width:.5"/></g><g id="ytick_10"><use xlink:href="#m8b4aed914d" id="line2d_61" x="30.184" y="132.427" style="stroke:#000;stroke-width:.5"/><use xlink:href="#m61a37730d5" id="line2d_62" x="214.324" y="132.427" style="stroke:#000;stroke-width:.5"/></g><g id="ytick_11"><use xlink:href="#m8b4aed914d" id="line2d_63" x="30.184" y="128.571" style="stroke:#000;stroke-width:.5"/><use xlink:href="#m61a37730d5" id="line2d_64" x="214.324" y="128.571" style="stroke:#000;stroke-width:.5"/></g><g id="ytick_12"><use xlink:href="#m8b4aed914d" id="line2d_65" x="30.184" y="120.86" style="stroke:#000;stroke-width:.5"/><use xlink:href="#m61a37730d5" id="line2d_66" x="214.324" y="120.86" style="stroke:#000;stroke-width:.5"/></g><g id="ytick_13"><use xlink:href="#m8b4aed914d" id="line2d_67" x="30.184" y="117.005" style="stroke:#000;stroke-width:.5"/><use xlink:href="#m61a37730d5" id="line2d_68" x="214.324" y="117.005" style="stroke:#000;stroke-width:.5"/></g><g id="ytick_14"><use xlink:href="#m8b4aed914d" id="line2d_69" x="30.184" y="113.149" style="stroke:#000;stroke-width:.5"/><use xlink:href="#m61a37730d5" id="line2d_70" x="214.324" y="113.149" style="stroke:#000;stroke-width:.5"/></g><g id="ytick_15"><use xlink:href="#m8b4aed914d" id="line2d_71" x="30.184" y="109.294" style="stroke:#000;stroke-width:.5"/><use xlink:href="#m61a37730d5" id="line2d_72" x="214.324" y="109.294" style="stroke:#000;stroke-width:.5"/></g><g id="ytick_16"><use xlink:href="#m8b4aed914d" id="line2d_73" x="30.184" y="101.583" style="stroke:#000;stroke-width:.5"/><use xlink:href="#m61a37730d5" id="line2d_74" x="214.324" y="101.583" style="stroke:#000;stroke-width:.5"/></g><g id="ytick_17"><use xlink:href="#m8b4aed914d" id="line2d_75" x="30.184" y="97.727" style="stroke:#000;stroke-width:.5"/><use xlink:href="#m61a37730d5" id="line2d_76" x="214.324" y="97.727" style="stroke:#000;stroke-width:.5"/></g><g id="ytick_18"><use xlink:href="#m8b4aed914d" id="line2d_77" x="30.184" y="93.872" style="stroke:#000;stroke-width:.5"/><use xlink:href="#m61a37730d5" id="line2d_78" x="214.324" y="93.872" style="stroke:#000;stroke-width:.5"/></g><g id="ytick_19"><use xlink:href="#m8b4aed914d" id="line2d_79" x="30.184" y="90.016" style="stroke:#000;stroke-width:.5"/><use xlink:href="#m61a37730d5" id="line2d_80" x="214.324" y="90.016" style="stroke:#000;stroke-width:.5"/></g><g id="ytick_20"><use xlink:href="#m8b4aed914d" id="line2d_81" x="30.184" y="82.305" style="stroke:#000;stroke-width:.5"/><use xlink:href="#m61a37730d5" id="line2d_82" x="214.324" y="82.305" style="stroke:#000;stroke-width:.5"/></g><g id="ytick_21"><use xlink:href="#m8b4aed914d" id="line2d_83" x="30.184" y="78.45" style="stroke:#000;stroke-width:.5"/><use xlink:href="#m61a37730d5" id="line2d_84" x="214.324" y="78.45" style="stroke:#000;stroke-width:.5"/></g><g id="ytick_22"><use xlink:href="#m8b4aed914d" id="line2d_85" x="30.184" y="74.594" style="stroke:#000;stroke-width:.5"/><use xlink:href="#m61a37730d5" id="line2d_86" x="214.324" y="74.594" style="stroke:#000;stroke-width:.5"/></g><g id="ytick_23"><use xlink:href="#m8b4aed914d" id="line2d_87" x="30.184" y="70.739" style="stroke:#000;stroke-width:.5"/><use xlink:href="#m61a37730d5" id="line2d_88" x="214.324" y="70.739" style="stroke:#000;stroke-width:.5"/></g><g id="ytick_24"><use xlink:href="#m8b4aed914d" id="line2d_89" x="30.184" y="63.028" style="stroke:#000;stroke-width:.5"/><use xlink:href="#m61a37730d5" id="line2d_90" x="214.324" y="63.028" style="stroke:#000;stroke-width:.5"/></g><g id="ytick_25"><use xlink:href="#m8b4aed914d" id="line2d_91" x="30.184" y="59.172" style="stroke:#000;stroke-width:.5"/><use xlink:href="#m61a37730d5" id="line2d_92" x="214.324" y="59.172" style="stroke:#000;stroke-width:.5"/></g><g id="ytick_26"><use xlink:href="#m8b4aed914d" id="line2d_93" x="30.184" y="55.317" style="stroke:#000;stroke-width:.5"/><use xlink:href="#m61a37730d5" id="line2d_94" x="214.324" y="55.317" style="stroke:#000;stroke-width:.5"/></g><g id="ytick_27"><use xlink:href="#m8b4aed914d" id="line2d_95" x="30.184" y="51.461" style="stroke:#000;stroke-width:.5"/><use xlink:href="#m61a37730d5" id="line2d_96" x="214.324" y="51.461" style="stroke:#000;stroke-width:.5"/></g><g id="ytick_28"><use xlink:href="#m8b4aed914d" id="line2d_97" x="30.184" y="43.75" style="stroke:#000;stroke-width:.5"/><use xlink:href="#m61a37730d5" id="line2d_98" x="214.324" y="43.75" style="stroke:#000;stroke-width:.5"/></g><g id="ytick_29"><use xlink:href="#m8b4aed914d" id="line2d_99" x="30.184" y="39.895" style="stroke:#000;stroke-width:.5"/><use xlink:href="#m61a37730d5" id="line2d_100" x="214.324" y="39.895" style="stroke:#000;stroke-width:.5"/></g><g id="ytick_30"><use xlink:href="#m8b4aed914d" id="line2d_101" x="30.184" y="36.039" style="stroke:#000;stroke-width:.5"/><use xlink:href="#m61a37730d5" id="line2d_102" x="214.324" y="36.039" style="stroke:#000;stroke-width:.5"/></g><g id="ytick_31"><use xlink:href="#m8b4aed914d" id="line2d_103" x="30.184" y="32.184" style="stroke:#000;stroke-width:.5"/><use xlink:href="#m61a37730d5" id="line2d_104" x="214.324" y="32.184" style="stroke:#000;stroke-width:.5"/></g><g id="ytick_32"><use xlink:href="#m8b4aed914d" id="line2d_105" x="30.184" y="24.473" style="stroke:#000;stroke-width:.5"/><use xlink:href="#m61a37730d5" id="line2d_106" x="214.324" y="24.473" style="stroke:#000;stroke-width:.5"/></g><g id="ytick_33"><use xlink:href="#m8b4aed914d" id="line2d_107" x="30.184" y="20.617" style="stroke:#000;stroke-width:.5"/><use xlink:href="#m61a37730d5" id="line2d_108" x="214.324" y="20.617" style="stroke:#000;stroke-width:.5"/></g><g id="ytick_34"><use xlink:href="#m8b4aed914d" id="line2d_109" x="30.184" y="16.762" style="stroke:#000;stroke-width:.5"/><use xlink:href="#m61a37730d5" id="line2d_110" x="214.324" y="16.762" style="stroke:#000;stroke-width:.5"/></g><g id="ytick_35"><use xlink:href="#m8b4aed914d" id="line2d_111" x="30.184" y="12.906" style="stroke:#000;stroke-width:.5"/><use xlink:href="#m61a37730d5" id="line2d_112" x="214.324" y="12.906" style="stroke:#000;stroke-width:.5"/></g><g id="ytick_36"><use xlink:href="#m8b4aed914d" id="line2d_113" x="30.184" y="5.195" style="stroke:#000;stroke-width:.5"/><use xlink:href="#m61a37730d5" id="line2d_114" x="214.324" y="5.195" style="stroke:#000;stroke-width:.5"/></g><g id="text_14" transform="matrix(0 -.08 -.08 0 9.004 98.468)"><defs><path id="NimbusRomNo9L-Regu-4d" d="M4314 3667V751c0-534-77-617-583-617V0h1792v134c-467 0-557 89-557 547v2855c0 457 84 541 557 579v122H4250L2835 1004 1357 4237H90v-141c524 0 608-77 608-546V943c0-661-90-784-621-822V0h1504v134c-493 0-602 148-602 797v2589L2586 0h89z" transform="scale(.01563)"/><path id="NimbusRomNo9L-Regu-61" d="M2829 423c-109-90-186-122-282-122-147 0-192 89-192 371v1248c0 333-32 518-128 672-141 230-416 352-793 352-602 0-1076-314-1076-717 0-147 128-275 276-275 153 0 288 128 288 269 0 25-7 57-13 102-13 58-19 109-19 154 0 173 204 313 460 313 314 0 487-185 487-531v-390c-986-397-1095-448-1370-691-141-128-230-346-230-557 0-403 281-685 672-685 281 0 544 134 934 467 32-333 147-467 410-467 217 0 352 77 576 320zm-992 360c0-199-32-257-167-334-153-90-332-148-467-148-224 0-403 219-403 495v26c0 379 262 611 1037 893z" transform="scale(.01563)"/><path id="NimbusRomNo9L-Regu-67" d="M3008 2496v250h-493c-128 0-224 17-352 56l-141 45c-172 56-345 84-512 84-595 0-1068-464-1068-1050 0-405 172-651 595-863-122-112-237-219-275-250-212-180-295-305-295-430 0-132 77-207 339-332-454-335-627-549-627-787 0-343 499-627 1107-627 480 0 980 170 1312 446 244 203 352 414 352 663 0 407-300 683-774 683h-826c-339 0-499 59-499 164 0 130 211 360 384 412 58-7 103-13 122-13 121-13 205-19 243-19 237 0 493 98 691 275 211 184 307 414 307 742 0 190-32 341-121 551zM941-13c211-45 723-83 1037-83 582 0 793-84 793-318 0-377-486-629-1209-629-564 0-935 188-935 473 0 150 45 234 314 557m32 2158c0 381 179 607 473 607 199 0 365-110 468-303 115-226 192-522 192-774 0-361-186-587-480-587-384 0-653 419-653 1038z" transform="scale(.01563)"/><path id="NimbusRomNo9L-Regu-6e" d="M102 2579c39 19 103 26 173 26 179 0 237-96 237-410V608c0-365-70-454-397-480V32h1357v96c-326 26-422 102-422 333v1798c307 288 448 365 659 365 313 0 467-198 467-621V666c0-404-83-512-403-538V32h1331v96c-314 32-390 109-390 422v1466c0 602-282 960-756 960-294 0-492-109-928-518v505l-44 13c-314-115-532-186-884-288z" transform="scale(.01563)"/><path id="NimbusRomNo9L-Regu-69" d="m1120 2929-992-350v-95l51 6c77 12 160 19 218 19 153 0 211-103 211-384V640c0-461-64-531-506-531V0h1517v96c-422 32-473 95-473 554v2260zM819 4352c-173 0-320-147-320-326s141-327 320-327c186 0 333 141 333 327 0 179-147 326-333 326" transform="scale(.01563)"/><path id="NimbusRomNo9L-Regu-74" d="M1632 2880H986v742c0 64-7 84-45 84-45-58-83-116-128-180-243-352-519-659-621-685-70-47-109-93-109-126 0-20 7-33 26-33h339V751c0-539 192-815 570-815 313 0 556 154 768 487l-84 70c-134-160-243-224-384-224-236 0-332 174-332 578v1835h646z" transform="scale(.01563)"/><path id="NimbusRomNo9L-Regu-75" d="M3066 320h-32c-295 0-365 70-365 365v2195H1658v-122c396 0 473-64 473-383V875c0-178-32-268-121-338-173-140-372-217-564-217-249 0-454 217-454 485v2075H58v-102c307 0 396-96 396-391V770c0-507 308-834 775-834 237 0 486 102 659 275l275 275V-45l26-13c320 128 550 199 877 288z" transform="scale(.01563)"/><path id="NimbusRomNo9L-Regu-64" d="m2202-64 940 333v96h-147c-230 0-281 70-281 366v3633l-32 13c-308-109-532-173-941-281v-102c51 6 89 6 141 6 236 0 294-64 294-328V2669c-243 205-416 275-672 275-736 0-1331-723-1331-1632C173 493 653-64 1357-64c358 0 601 128 819 429V-45zm-26 717c0-45-45-122-109-192-115-128-275-192-461-192-531 0-883 512-883 1299 0 723 314 1197 800 1197 339 0 653-301 653-640z" transform="scale(.01563)"/><path id="NimbusRomNo9L-Regu-65" d="M2611 1053c-307-489-582-675-992-675-365 0-640 186-825 552-116 244-160 456-173 849h1971c-51 414-115 598-275 802-192 230-487 363-819 363-320 0-621-115-864-333-301-262-474-717-474-1241C160 486 621-64 1357-64c608 0 1088 379 1357 1072zM634 1984c70 495 288 730 678 730s544-179 627-730z" transform="scale(.01563)"/><path id="NimbusRomNo9L-Regu-42" d="M109 4237v-141c537 0 614-70 614-548V689c0-477-83-561-614-561V0h2137c500 0 954 136 1191 356 230 208 358 499 358 809 0 286-115 545-313 732-192 175-365 253-781 356 333 82 467 145 621 278 160 140 256 372 256 632 0 708-570 1074-1677 1074zm1267-2125c621 0 915-32 1146-130 364-155 537-414 537-823 0-350-134-604-390-753-205-116-467-168-890-168-313 0-403 58-403 266zm0 256v1444c0 132 45 189 141 189h281c736 0 1127-302 1127-864 0-491-339-769-941-769z" transform="scale(.01563)"/></defs><use xlink:href="#NimbusRomNo9L-Regu-4d" transform="scale(.99626)"/><use xlink:href="#NimbusRomNo9L-Regu-61" transform="matrix(.99626 0 0 .99626 88.567 0)"/><use xlink:href="#NimbusRomNo9L-Regu-67" transform="matrix(.99626 0 0 .99626 132.8 0)"/><use xlink:href="#NimbusRomNo9L-Regu-6e" transform="matrix(.99626 0 0 .99626 182.614 0)"/><use xlink:href="#NimbusRomNo9L-Regu-69" transform="matrix(.99626 0 0 .99626 232.427 0)"/><use xlink:href="#NimbusRomNo9L-Regu-74" transform="matrix(.99626 0 0 .99626 260.122 0)"/><use xlink:href="#NimbusRomNo9L-Regu-75" transform="matrix(.99626 0 0 .99626 287.817 0)"/><use xlink:href="#NimbusRomNo9L-Regu-64" transform="matrix(.99626 0 0 .99626 337.63 0)"/><use xlink:href="#NimbusRomNo9L-Regu-65" transform="matrix(.99626 0 0 .99626 387.444 0)"/><use xlink:href="#NimbusRomNo9L-Regu-28" transform="matrix(.99626 0 0 .99626 456.584 0)"/><use xlink:href="#NimbusRomNo9L-Regu-64" transform="matrix(.99626 0 0 .99626 489.759 0)"/><use xlink:href="#NimbusRomNo9L-Regu-42" transform="matrix(.99626 0 0 .99626 539.572 0)"/><use xlink:href="#NimbusRomNo9L-Regu-29" transform="matrix(.99626 0 0 .99626 606.022 0)"/></g></g><path id="line2d_115" d="m38.554 129.433 1.541-.015.067.151.134-.2.067.078.067-.1.067.19.067-.085 1.139-.085.067.149.067-.151.067.036.402-.002.267-.04.201.102.067-.126.067.054.335.012.134-.068.268.026.804-.028.268.009.402-.041.268.086.067-.099.067.048.2-.044.202.004.335-.001.469-.046.067.062.134-.1.2.084.202-.031.134-.026.067.072.067-.16.066.064.134-.082.268.052.402-.041.134.043.268-.051.268.004.335-.037.536-.032 3.416-.221.201-.024.402-.054.134-.013.335-.026 1.876-.171.268-.036.067.04.134-.07.2.011.135-.043.67-.05.066.068.201-.137.134-.024.268.013.067-.1.067.157.067-.073.067.08.134-.228.067.082.067.089.067-.086.201-.05.134-.003.603-.029.201-.075.335-.015.938-.138.268-.042.2-.018.068.044.067-.117.067.1.2-.062.202-.103.067.083.2-.16.201.21.201-.178.201.065.268-.173.134.036.134-.064.134.126.536-.228.201.077.201-.141.335.044.268-.14.469-.055 1.608-.293.067.148.2-.154.067-.097.067.068.804-.148.067.163.134-.345.067.028.134.117.067-.095.067.11.067-.044.067-.004.067-.203.067.208.067-.123.268.075.201-.268.134.145.067-.015.067-.135.067.078.536-.095.067.066.134-.178.067.093.067-.067.469-.105.87-.2.068-.085.067.067.133-.073.067.107.134-.173.201.019.067-.12.067.21.067-.169.067.062.134-.16.067.167.067-.07.603-.15.067-.185.134.261.335-.305.067.19.067-.206.067.114.067-.124.067.07.469-.177 2.478-.647.134-.06.134.03.402-.096.201-.024.268-.126 1.005-.324.134.003.067-.006.067-.142.067.076.2-.193.068.116.067-.075.067.07.067-.151.067.06.603-.143.335-.118 1.138-.383.804-.285.201-.035.201-.014.268-.253.268-.001.134-.082.067.1.067-.151.067.034.268-.096.067.132.067-.107.067.07.134-.257.134.053.067-.172.067.1.2-.129.135.026.067.001.067-.209.067.076.134-.07.2-.085.068.061.2-.116 2.144-.914.067.057.067-.084.47-.182.535-.177.2-.192.068.096.2-.268.068.009.067.203.2-.34.604-.099.067-.24.067.17.2-.242.068.12.2-.271.068.123.067-.053.134-.152.133.008.268-.182.067.095.201-.226 1.005-.509 1.139-.6.067.054.134-.217.134.09.067-.16.067.091.536-.435.067.127.2-.303.202.087.469-.389.067.047.134-.24.267-.039.536-.353.268-.162.402-.307.201-.111 1.742-1.115.067-.215.067.096.134-.03.2-.363.068.174.134-.176.067-.013.2-.31.135.099.134-.187.067.042.067-.316.067.067.335-.297.067.11.066-.172.067.07.603-.608.67-.502.268-.254.47-.412 1.54-1.446.067.168.134-.567.067.165.067-.111.134.076.2-.5.068.064.067-.374.067.14.2-.08.068-.463.067.345.067-.038.334-.516.067.422.067-.67.067.242.268-.616.067.019.201-.437.067.38.067-.438.067.116.335-.495.067.037.134-.472.067.229.134-.42.134.016.201-.4.603-.756.134-.198.067.066.804-1.476.067.44.067-.628.067.107.134-.3.067.163.134-.478.067.305.134-.824.067.057.067.183.067-.326.067.49.067-.325.067.01.067-1.432.066.174.134-.028.067.554.201-1.046.067.137.067-.298.067.58.067-.973.067.5.134-1.02.067.467.268-1.264.067.593.067-.374.067-.574.067.36.067.214.134-.74.067.336.067-.716.067.38.067-.402.067.467.067-.968.067.286.268-.954.134-.165.201-.66.268-.765.335-.938.536-1.55.067-.018.2-1.141.068.31.2-1.248.068-.147.067.128.134-1.042.067.002.268-1.252.066.54.201-1.72.201-1.236.067-.864.134 1.2.067-1.146.067.344.201-1.06.067-.234.201-3.605.067 1.982.201-3.284.067-.328.067.087.067 1.26.201-3.517.134-1.903.067 1.034.067-2.509.067 2.763.067-6.108.067 6.111.067-7.778.067 6.961.067-9.772.067 6.373.067-9.081.067 4.801.067-6.651.067 1.5.268-12.573.067 6.933.067-14.034.067 13.153.067-22.222.067 21.761.134-45.259.067 5.916.067 39.343.067-21.761.067 22.222.067-13.153.067 14.034.067-6.933.067 8.106.067-1.877.134 6.345.067-1.501.067 6.651.067-4.801.067 9.081.067-6.373.067 9.772.067-6.961.067 7.778.067-6.11.067 6.107.066-2.763.067 2.509.067-1.034.201 3.098.067-.169.067 2.491.067-1.26.067-.087.067.328.201 3.284.067-1.982.067 2.73.067-.78.201 2.345.067-.09.201 1.496.067-.144.067-1.056.268 2.1.067.079.335 1.756.067.135.268 1.502.067-.128.067.147.2 1.248.068-.31.2 1.141.135.095.268.923.134.315.603 1.807.2.42.202.536.267.954.067-.286.067.968.067-.467.067.402.067-.38.067.716.067-.336.134.74.067-.213.067-.361.134.948.067-.593.134.686.067.104.067.474.067-.467.268 1.494.067-.581.067.298.067-.137.201 1.046.134-.55.067.024.067-.174.067 1.432.067-.01.067.326.067-.49.067.325.134-.24.335.997.067-.163.134.3.067-.107.067.628.067-.44.2.497.068-.146.536 1.125.067-.066.134.198.469.673.133.083.268.439.134-.016.067.38.067-.228.268.487.067.074.201.369.067-.116.067.438.067-.38.067.221.402.547.067.266.067-.242.067.67.067-.422.067.021.201.368.134.165.067-.345.134.552.2-.149.202.7.067-.158.067.268.067-.084.268.123.067.398.067-.168.268.336.067-.1.067.231.067-.145.335.48 1.272 1.077.201.233.201.175.067-.021.268.374.067-.066.536.408.134.24.067-.07.067.171.067-.11.335.298.067-.067.067.316.067-.042.067.016.067.17.067-.063.067-.035.2.31.135-.008.067.197.067-.174.067.109.268.284.067-.096.2.282.403.196.2.181.202.143h.067l.2.202.268.154 2.01 1.17.067.214.067-.047.335.203.2.221.135-.122.804.611.067-.091.134.19.134-.12.067.217.067-.053.602.368.335.165.134.025 1.273.776.067-.095.067.057 1.072.592.067-.17.134.238.134-.004.536.273.067.172.134-.212.2.268.068-.096 1.272.635.134-.007 1.876.741.134.093.67.24.067-.076.134.208.134-.026.134.016.2.185.202-.019.067.224.067-.071.067.107.134-.223.067.202.067-.044.602.152.134.068.201.162.201.014.067.062.067-.076.402.2.335.097 6.967 2.053.067-.105.067.063.067.11.067-.069.2.057.336.098.134.009.134.06.268.125.067-.114.067.206.066-.19.067.09.067-.073.201.288.134-.261.067.185.402.083.268.137.067-.166.067.096.201.17.067-.21.067.12h.134l.134.019.067.135.067-.107 1.072.28.737.073.067.195.067-.066.2.005.202.161.2-.149.135.15.067-.008.067-.137.2.268.134-.05.201.098.067-.208.134.207.067.043.067-.109.067.095.268-.009.067.209.134-.153.268.07.067-.076.067.065.268.064.67.123.067-.08.134.098.2.054.47.076.536.072.268.05 1.272.188.067-.126.201.278.067-.095.201.157.134-.135.134.093.134-.082.067.166.067-.051.067.075.067-.084.335.198.201-.211.201.16.134-.042.201.073.134.05.067-.1.067.118.067-.044.2.018.67.103.805.106.2.01.201.031.134.007.201.089.134-.047.201.06.067-.073.067.066.067.086.067-.09.067-.081.268.221.067-.157.067.1.134-.043.47.19.2-.126.201.115.268-.02.938.106.469.05 1.34.127.2-.002.268.041.268.016 1.139.101.737.022.067.092.067-.077.134.06.134-.048.402.085.134-.005.2-.007 1.14.09 1.071.099.134-.05.201.09.201-.108.067.106.067-.072.134-.025.201.17.134-.097.268.082.268-.1.067.116.067-.062.2-.06.135.17.134-.064.134-.01.067-.097.067.084.268.02.134.004.2.09.135-.042 1.674.01.201-.019.536.002.067.126.067-.072.201.019.134-.045.201-.002.335.004.067.151.134-.127.335.102.067-.123.067.077.402-.024.268.117.067-.19.067.1.134-.074.067.195.134-.135.2.016.268-.081.402.096.268-.04.268.005h0" clip-path="url(#p123132c98d)" style="fill:none;stroke:#000;stroke-linecap:square"/><path id="line2d_116" d="m38.554 135.75 1.407-.024.067-.138.134.243.067-.084.134.068.2-.196.135.186.134-.129.2.045h.068l.067.17.067-.064.067-.216.067.106.067.183.2-.281.135.08.134-.033.067.08.134-.105.134-.002.067.204.067-.116.067.071.2-.189.201.163.067-.102.067.057.603-.075.335.022.603-.025.402.02.067-.116.067.085.134-.048.67-.025.134-.072.335.197.2-.165.202.192.067-.198.067.04.134.05.2-.177.269.14.2-.104.067.035.067.179.067-.117.067.03.201-.256.134.167.402-.075.268.057 2.613-.111.067-.184.067.086.2-.007.202-.017.067.035.067-.224.067.211.067-.154.134.143.2-.111.067-.018.067.121.067-.149.067.081.47-.062.2-.085.067.183.067-.154.067.043.067.011.067-.117.067.119.067-.064.268.049.134-.082.402-.02.402-.046 1.675-.129.2-.12.202.081.067-.158.067.116.2-.046.335-.044.067.15.134-.187.067.02.067-.11.134.21.201-.144.201.03.603-.176.067.12.134-.111.134.075.402-.103.134.016.335-.077 1.273-.26.067.18.067-.099.134-.011.2-.15.402.007.201-.031.134.152.201-.081.335-.122.067.055.201-.182.067.07.067-.11.134.164.134-.12.067.18.268-.358.067.165.067-.1h.134l2.278-.365.067.069.067-.142.067.092.067.09.067-.078.067-.13.067.12.2-.192.067.118.067-.133.067.098.067.065.268-.272.134.14.067-.18.067.196.134-.157.134-.041.067-.058.067.247.134-.192.201.07.067-.246.067.234.067-.127.067-.14.067.11.134-.045.067-.09.067.061.134.086.067-.095.134.107.201-.334.134.114.067-.064.134.188.134-.227.067.033.87-.172 1.34-.298.067.057.067-.228.067.097.201.077.201-.26.134.123.067.009.067-.302.067.145.134.007.067.222.067-.31.067.184.201-.288.067.325.067-.074.134-.346.067.242.067-.225.067.034.067-.09.067.209.067-.4.067.406.067-.224.2.173.269-.301.067.081.067-.081.469-.147.067.095.067-.063.335-.005.2-.115.403-.09 1.138-.31.067.126.201-.238.134.011.134-.15.201.065.268.044.067-.13.067.062.134-.042.134-.219.201.157.067-.24.067.02.2-.07.202.158.067-.251.067.116.067.113.134-.243.067.095.2-.267.068.155.067-.114.067-.117.067.056 2.612-.756.067.06.201-.29.201.124.402-.345.067.073.201-.21.134.02.067.16.2-.214.202.057.067-.25.067.095.067.082.134-.193.134.117.067-.214.067.041.134-.013.268-.136.067.098.067-.261.067.185.2-.122.135-.09.268-.194.067.111.066-.148.067.039 1.34-.655.067.158.067-.192.067.171.067-.23.067.212.067-.066.067-.192.067.096.134-.076.067-.177.067.104.268-.275.067.214.134-.271.134.039.134-.18.067.131.067-.274.067.21.067-.155.134.014.067.155.134-.446.067.201.067-.129.067.146.067-.21.067.174.134-.18.067.096.067-.059.2-.16.068.102.2-.301.135-.011.2-.147.201.075.134-.2.067.065.067-.217.067.023h.134l.47-.246 1.808-1.004.134-.255.2.16.269-.065.2-.282.068.043.134-.293.134.31.067-.487.067.172.067.082.335-.493.067.08.067.275.134-.335.067.082.067-.212.067.07.267-.418.067.312.067-.09.067-.168.067.073.067.038.134-.27.067.076.201-.215h.134l.335-.275.871-.54.335-.336.067.174.268-.359.067-.06.067.106.067-.06.402-.523.067.38.134-.488.067.093.2-.33.202-.069.067-.093.067.192.067-.1.268-.355.067.073.067.007.067-.324.067.228.2-.389.067-.027.067.303.201-.504.067.072.268-.322.067.014.134-.277.067.269.067-.123.134-.256.201-.115.67-.596 1.005-.907.067-.23.067.179.2-.406.068.261.067-.499.067.075.067.03.067-.183.067.308.134-.693.067.077.067-.268.067.467.134-.574.067.11.067-.059.067.12.067-.087.067-.16.067.392.134-1.01.067.147.067.588.2-1.208.067.409.134-.625.067.224.067-.027.067-.259.067.084.134-.085.067.24.201-.618.067.026.201-.431.268-.36.067.08.067-.03.067-.246.067.08 1.139-1.35.2-.74.068.057.067.12.2-.74.068.392.067-.127.067-.899.067.504.067.215.134-.851.067 1.27.134-1.094.067.071.067-.603.067.515.067-.922.067.139.067-.076.067-.536.067 1.374.2-1.294.068.635.067-1.099.066.49.067-.266.067 1.002.067-2.026.067.385.134 1.122.201-2.471.067-.029.067.938.067-1.298.067.588.067-.282.067.473.067-.953.201 1.64.067-1.987.067.47.134-1.065.067.314.067 1.072.067-1.98.067.221.067.304.134-.578.067.197.134-1.23.067.015.067.703.067-.44.134-.18.134-.966.067.231.268-.703.268-.846.067.048.268-1.15.134-.063.2-.825.068-.208.067-.87.067.21.2-.845.068.57.067-.432.067.802.067-1.9.067 1.48.067-2.47.067 1.501.067-1.702.067 1.61.067-3.231.066 2.685.067-4.227.067 4.23.067-4.716.067 3.831.067-4.292.067 4.135.067-6.475.067 7.45.067-7.082.067 7.663.067-10.123.067 9.721.067-9.362.067 10.336.067-11.667.067 12.2.067-14.121.067 13.031.067-13.92.067 13.803.067-15.93.067 18.935.067-20.344.067 22.544.067-24.45.067 27.054.067-28.72.067 28.728.067-30.73.067 32.167.067-34.143.067 26.26.067-27.49.067 22.215.067-23.55.067 22.12.067-23.157.067 24.498.067-26.762.067 23.69.067-25.14.067 26.643.067-29.86.067 29.326.067-32.21.067 34.03.067-38.45.067 36.7.067-42.304.067 47.726.067-56.01.067 51.412.134-75.951.067 7.165.067 68.786.067-51.412.067 56.01.067-47.726.067 42.304.067-36.7.067 38.45.067-34.03.067 32.21.067-29.326.067 29.86.067-26.643.067 25.14.067-23.69.067 26.762.067-24.498.067 23.157.067-22.12.067 23.55.067-22.215.066 27.49.067-26.26.067 34.143.067-32.166.067 30.729.067-28.729.067 28.72.067-27.052.067 24.45.067-22.545.067 20.344.067-18.934.067 15.93.067-13.804.067 13.92.067-13.031.067 14.121.067-12.2.067 11.667.067-10.336.067 9.362.067-9.721.067 10.123.067-7.663.067 7.082.067-7.45.067 6.475.067-4.135.067 4.292.067-3.831.067 4.717.067-4.23.067 4.226.067-2.685.067 3.23.067-1.609.067 1.702.067-1.5.067 2.47.067-1.481.067 1.9.067-.802.067.431.067-.569.067.655.067-.079.067.27.067-.21.2 1.382.068.047.134.488.067.048.268 1.15.067-.048.536 1.55.067-.232.335 1.586.134-.717.133 1.229.067-.197.134.578.134-.525.067 1.98.067-1.072.067-.314.134 1.066.067-.471.067 1.987.067-.782.067.022.067-.88.067.953.067-.473.067.282.067-.588.067 1.298.067-.938.067.029.201 2.471.201-1.507.067 2.026.067-1.002.067.267.067-.49.067 1.098.067-.635.201 1.294.067-1.374.067.536.067.076.067-.139.067.922.067-.515.067.603.067-.071.067.254.067.84.067-1.27.067.05.067.801.067-.215.067-.504.134 1.026.067-.393.067.617.067-.17.067.294.067-.12.067-.058.2.741.135.065.134.156.402.546.133.284.067-.156.268.455.067-.08.134.277.067-.08.134.309.067-.032.067.082.067.332.067-.164.201.674.067-.113.067.294.067-.24.067.021.268.266.067-.224.134.625.067-.409.201 1.208.134-.735.134 1.01.067-.392.067.16.067.087.2-.171.135.574.067-.467.067.268.067-.077.067.062.067.63.067-.307.067.183.067-.03.067-.075.067.5.067-.262.2.406.068-.179.268.527.067-.17.2.347.135.08 1.34 1.086.133.357.067-.269.067.165.268.28.067-.007.067.147.067-.072.134.229.067.275.067-.303.067.027.201.39.067-.23.134.318.067-.073.134.34.067-.068.067.083.067.1.067-.192.067.093.067.159.067-.08.067-.01.2.33.068-.093.134.489.067-.38.067.13.067.04.2.282.135.13.067-.106.067.06.268.359.067-.174.067.108.134.148.067-.02.2.189.201.103.737.456.335.22.268.168.067.188.067-.038.067-.073.134.258.067-.312.067.313.067-.063.134.169.067-.07.067.211.067-.082.134.335.134-.355.067.063.2.335.068.095.067-.082.067-.172.067.487.067-.14.067-.17.067.13.2.237.403.23.268-.088.268.442.067.047.067-.15.067.278.067-.083.267.073.134.22.134-.108 1.675.909.067.134.067-.087.134.012.134.056.134.159.067-.057.134.13.067.17.067-.101.2.16.068.06.134-.058.067.141.067-.174.067.21.067-.146.067.129.067-.201.067.138.067.308.067-.155.134-.014.067.155.067-.21.067.274.067-.131.067.007.134.217.067-.083.134.27.067-.213.134.24.2-.07.201.254.067-.096.134.258.067-.211.067.23.067-.172.067.192.067-.158.067.118 1.273.537.067-.04.067.15.067-.112.067.116.067-.053.469.343.067-.185.067.261.067-.098.469.108.067.214.067-.084.134-.048.067.208.067-.082.067-.095.067.25.067-.116.134.059.067-.034.134.248.134-.183.067.002.2.21.068-.072.067.069.334.276.201-.124.201.29.268-.123.134.116 2.412.764.067.114.067-.155.067.085.335.33.067-.113.067-.116.067.251.067-.09.402-.018.067.24.067-.047.067.012.067-.122.067.09.2.17.067-.06.067.129.067-.07.201.026h.134l.134-.045.134.153.067-.034.201.238.134-.186.134.117.067-.075.067.072.067.106.067-.078.201.092.268.077.335.09 1.54.294.202.218.067.083.067-.148.067.095.067-.12.067.224.067-.406.067.4.067-.208.2.28.067-.242.201.42.067-.325.067.044.134.244.067-.184.067.31.134-.217.067-.012.067-.145.134.293.067.005.067-.128.067.097.067.013.067.15.067-.075.067.07.067-.072.067-.097.067.228.067-.057.201.064.134.001.201.1.201.046 1.608.313.067.14.067-.07.067-.118.067.064.268.015.134.204.067-.106.067.095.133-.086.067-.06.067.089.134.044.067-.108.134.266.067-.234.134.322.201-.154.067.2.067-.247.067.058.134.04.067-.016.067.174.067-.195.067.18.067-.108.134.033.134.102.067.104.067-.065.067-.098.067.133.134-.125.335.288.134-.183.067.142.067-.07.268.039.2.096.202.001 2.01.195.133.328.067-.18.067.034.134.057.067-.135.067.11.134-.013.603.194.603-.035.067.104.201-.118.268.176.067-.015.067.1.067-.181.067.09.2.053 1.274.154.268.038.2-.045.201.15.134-.098.067.118.067-.12.067.082.134-.092.268.16.603.102.067-.172.067.11.134.006.067.161.201-.254.067.16.067-.045.268.079.067-.116.067.158.067-.115.2.07.202.037.2.093.135-.074.134.068.134.025.067.057.134-.058.268-.008.268.05.937.073.335.06.201-.01.067.063.067-.119.134.106.067-.043.067.154.067-.183.067.098.134-.013.536-.019.067.15.067-.122.335.117.067-.131.067.154.067-.21.067.223.067-.035.469-.062.067.184.067-.085.067.033.067-.095.067.09.134.05 1.34.028 1.607.11.067-.169.201.257.067-.031.067.117.134-.214.268.08.402.06.134-.05.067-.039.067.198.067-.147.402.065.268-.142.067-.036.2.173.068-.072.067.08.067.049.134-.186.067.19.067-.1 1.272.07.603.038.268-.014.268.087.067-.167.067.081.067-.077.201.19.067-.072.067.116.067-.204.067.028.134-.055.067.134.067-.08.268-.047.2.281.135-.29.134.28.134-.17.402.05.067-.151.067.082.067-.011.134.132.268-.234.067.138.067-.04.334.083.201-.036.737.015" clip-path="url(#p123132c98d)" style="fill:none;stroke-dasharray:3.7,1.6;stroke-dashoffset:0;stroke:red"/><path id="patch_3" d="M30.184 142.2V3.6" style="fill:none;stroke:#000;stroke-width:.5;stroke-linejoin:miter;stroke-linecap:square"/><path id="patch_4" d="M214.324 142.2V3.6" style="fill:none;stroke:#000;stroke-width:.5;stroke-linejoin:miter;stroke-linecap:square"/><path id="patch_5" d="M30.184 142.2h184.14" style="fill:none;stroke:#000;stroke-width:.5;stroke-linejoin:miter;stroke-linecap:square"/><path id="patch_6" d="M30.184 3.6h184.14" style="fill:none;stroke:#000;stroke-width:.5;stroke-linejoin:miter;stroke-linecap:square"/></g></g><defs><clipPath id="p123132c98d"><path d="M30.184 3.6h184.14v138.6H30.184z"/></clipPath></defs></svg>