<svg xmlns="http://www.w3.org/2000/svg" xmlns:xlink="http://www.w3.org/1999/xlink" width="290.566" height="223.411" viewBox="0 0 217.924 167.558"><defs><style>*{stroke-linejoin:round;stroke-linecap:butt}</style></defs><g id="figure_1"><path id="patch_1" d="M0 167.558h217.924V0H0z" style="fill:none"/><g id="axes_1"><path id="patch_2" d="M30.184 142.2h184.14V3.6H30.184z" style="fill:none"/><g id="matplotlib.axis_1"><g id="xtick_1"><g id="line2d_1"><defs><path id="mc73bdda014" d="M0 0v-3" style="stroke:#000;stroke-width:.5"/></defs><use xlink:href="#mc73bdda014" x="55.301" y="142.2" style="stroke:#000;stroke-width:.5"/></g><g id="line2d_2"><defs><path id="m6942581d97" d="M0 0v3" style="stroke:#000;stroke-width:.5"/></defs><use xlink:href="#m6942581d97" x="55.301" y="3.6" style="stroke:#000;stroke-width:.5"/></g><g id="text_1" transform="matrix(.08 0 0 -.08 47.116 151.104)"><defs><path id="CMSY10-0" d="M4218 1472c108 0 224 0 224 128s-116 128-224 128H755c-109 0-224 0-224-128s115-128 224-128z" transform="scale(.01563)"/><path id="NimbusRomNo9L-Regu-30" d="M1626 4352c-352 0-621-108-858-332-371-359-614-1095-614-1844 0-697 211-1446 512-1804C902 90 1229-64 1600-64c326 0 602 109 832 333 371 352 614 1095 614 1869 0 1312-582 2214-1420 2214m-20-166c538 0 826-723 826-2061 0-1337-282-2022-832-2022S768 788 768 2119c0 1357 288 2067 838 2067" transform="scale(.01563)"/><path id="CMMI10-3a" d="M1229 338c0 184-154 337-339 337-186 0-340-153-340-337C550 153 704 0 890 0c185 0 339 153 339 338" transform="scale(.01563)"/><path id="NimbusRomNo9L-Regu-32" d="m3040 875-83 32c-237-363-320-421-608-421H819l1075 1123c570 593 820 1078 820 1576 0 638-519 1128-1184 1128-352 0-685-140-922-395-205-218-301-422-410-875l135-32c256 625 486 829 928 829 537 0 902-364 902-900 0-497-294-1090-832-1658L192 77V0h2496z" transform="scale(.01563)"/></defs><use xlink:href="#CMSY10-0" transform="scale(.99626)"/><use xlink:href="#NimbusRomNo9L-Regu-30" transform="matrix(.99626 0 0 .99626 77.409 0)"/><use xlink:href="#CMMI10-3a" transform="matrix(.99626 0 0 .99626 127.222 0)"/><use xlink:href="#NimbusRomNo9L-Regu-32" transform="matrix(.99626 0 0 .99626 154.817 0)"/></g></g><g id="xtick_2"><use xlink:href="#mc73bdda014" id="line2d_3" x="88.794" y="142.2" style="stroke:#000;stroke-width:.5"/><use xlink:href="#m6942581d97" id="line2d_4" x="88.794" y="3.6" style="stroke:#000;stroke-width:.5"/><g id="text_2" transform="matrix(.08 0 0 -.08 80.61 151.104)"><defs><path id="NimbusRomNo9L-Regu-31" d="M1862 4339 710 3757v-90c77 32 148 58 173 71 115 45 224 70 288 70 135 0 192-97 192-303V592c0-213-51-360-153-419-96-57-186-77-455-77V0h1767v96c-506 0-608 64-608 374v3857z" transform="scale(.01563)"/></defs><use xlink:href="#CMSY10-0" transform="scale(.99626)"/><use xlink:href="#NimbusRomNo9L-Regu-30" transform="matrix(.99626 0 0 .99626 77.409 0)"/><use xlink:href="#CMMI10-3a" transform="matrix(.99626 0 0 .99626 127.222 0)"/><use xlink:href="#NimbusRomNo9L-Regu-31" transform="matrix(.99626 0 0 .99626 154.817 0)"/></g></g><g id="xtick_3"><use xlink:href="#mc73bdda014" id="line2d_5" x="122.288" y="142.2" style="stroke:#000;stroke-width:.5"/><use xlink:href="#m6942581d97" id="line2d_6" x="122.288" y="3.6" style="stroke:#000;stroke-width:.5"/><g id="text_3" transform="matrix(.08 0 0 -.08 117.199 151.104)"><use xlink:href="#NimbusRomNo9L-Regu-30" transform="scale(.99626)"/><use xlink:href="#CMMI10-3a" transform="matrix(.99626 0 0 .99626 49.813 0)"/><use xlink:href="#NimbusRomNo9L-Regu-30" transform="matrix(.99626 0 0 .99626 77.409 0)"/></g></g><g id="xtick_4"><use xlink:href="#mc73bdda014" id="line2d_7" x="155.781" y="142.2" style="stroke:#000;stroke-width:.5"/><use xlink:href="#m6942581d97" id="line2d_8" x="155.781" y="3.6" style="stroke:#000;stroke-width:.5"/><g id="text_4" transform="matrix(.08 0 0 -.08 150.692 151.104)"><use xlink:href="#NimbusRomNo9L-Regu-30" transform="scale(.99626)"/><use xlink:href="#CMMI10-3a" transform="matrix(.99626 0 0 .99626 49.813 0)"/><use xlink:href="#NimbusRomNo9L-Regu-31" transform="matrix(.99626 0 0 .99626 77.409 0)"/></g></g><g id="xtick_5"><use xlink:href="#mc73bdda014" id="line2d_9" x="189.275" y="142.2" style="stroke:#000;stroke-width:.5"/><use xlink:href="#m6942581d97" id="line2d_10" x="189.275" y="3.6" style="stroke:#000;stroke-width:.5"/><g id="text_5" transform="matrix(.08 0 0 -.08 184.186 151.104)"><use xlink:href="#NimbusRomNo9L-Regu-30" transform="scale(.99626)"/><use xlink:href="#CMMI10-3a" transform="matrix(.99626 0 0 .99626 49.813 0)"/><use xlink:href="#NimbusRomNo9L-Regu-32" transform="matrix(.99626 0 0 .99626 77.409 0)"/></g></g><g id="xtick_6"><g id="line2d_11"><defs><path id="mda5fe8b025" d="M0 0v-1.5" style="stroke:#000;stroke-width:.5"/></defs><use xlink:href="#mda5fe8b025" x="35.205" y="142.2" style="stroke:#000;stroke-width:.5"/></g><g id="line2d_12"><defs><path id="m546bd846e1" d="M0 0v1.5" style="stroke:#000;stroke-width:.5"/></defs><use xlink:href="#m546bd846e1" x="35.205" y="3.6" style="stroke:#000;stroke-width:.5"/></g></g><g id="xtick_7"><use xlink:href="#mda5fe8b025" id="line2d_13" x="41.904" y="142.2" style="stroke:#000;stroke-width:.5"/><use xlink:href="#m546bd846e1" id="line2d_14" x="41.904" y="3.6" style="stroke:#000;stroke-width:.5"/></g><g id="xtick_8"><use xlink:href="#mda5fe8b025" id="line2d_15" x="48.602" y="142.2" style="stroke:#000;stroke-width:.5"/><use xlink:href="#m546bd846e1" id="line2d_16" x="48.602" y="3.6" style="stroke:#000;stroke-width:.5"/></g><g id="xtick_9"><use xlink:href="#mda5fe8b025" id="line2d_17" x="62" y="142.2" style="stroke:#000;stroke-width:.5"/><use xlink:href="#m546bd846e1" id="line2d_18" x="62" y="3.6" style="stroke:#000;stroke-width:.5"/></g><g id="xtick_10"><use xlink:href="#mda5fe8b025" id="line2d_19" x="68.698" y="142.2" style="stroke:#000;stroke-width:.5"/><use xlink:href="#m546bd846e1" id="line2d_20" x="68.698" y="3.6" style="stroke:#000;stroke-width:.5"/></g><g id="xtick_11"><use xlink:href="#mda5fe8b025" id="line2d_21" x="75.397" y="142.2" style="stroke:#000;stroke-width:.5"/><use xlink:href="#m546bd846e1" id="line2d_22" x="75.397" y="3.6" style="stroke:#000;stroke-width:.5"/></g><g id="xtick_12"><use xlink:href="#mda5fe8b025" id="line2d_23" x="82.096" y="142.2" style="stroke:#000;stroke-width:.5"/><use xlink:href="#m546bd846e1" id="line2d_24" x="82.096" y="3.6" style="stroke:#000;stroke-width:.5"/></g><g id="xtick_13"><use xlink:href="#mda5fe8b025" id="line2d_25" x="95.493" y="142.2" style="stroke:#000;stroke-width:.5"/><use xlink:href="#m546bd846e1" id="line2d_26" x="95.493" y="3.6" style="stroke:#000;stroke-width:.5"/></g><g id="xtick_14"><use xlink:href="#mda5fe8b025" id="line2d_27" x="102.192" y="142.2" style="stroke:#000;stroke-width:.5"/><use xlink:href="#m546bd846e1" id="line2d_28" x="102.192" y="3.6" style="stroke:#000;stroke-width:.5"/></g><g id="xtick_15"><use xlink:href="#mda5fe8b025" id="line2d_29" x="108.89" y="142.2" style="stroke:#000;stroke-width:.5"/><use xlink:href="#m546bd846e1" id="line2d_30" x="108.89" y="3.6" style="stroke:#000;stroke-width:.5"/></g><g id="xtick_16"><use xlink:href="#mda5fe8b025" id="line2d_31" x="115.589" y="142.2" style="stroke:#000;stroke-width:.5"/><use xlink:href="#m546bd846e1" id="line2d_32" x="115.589" y="3.6" style="stroke:#000;stroke-width:.5"/></g><g id="xtick_17"><use xlink:href="#mda5fe8b025" id="line2d_33" x="128.986" y="142.2" style="stroke:#000;stroke-width:.5"/><use xlink:href="#m546bd846e1" id="line2d_34" x="128.986" y="3.6" style="stroke:#000;stroke-width:.5"/></g><g id="xtick_18"><use xlink:href="#mda5fe8b025" id="line2d_35" x="135.685" y="142.2" style="stroke:#000;stroke-width:.5"/><use xlink:href="#m546bd846e1" id="line2d_36" x="135.685" y="3.6" style="stroke:#000;stroke-width:.5"/></g><g id="xtick_19"><use xlink:href="#mda5fe8b025" id="line2d_37" x="142.384" y="142.2" style="stroke:#000;stroke-width:.5"/><use xlink:href="#m546bd846e1" id="line2d_38" x="142.384" y="3.6" style="stroke:#000;stroke-width:.5"/></g><g id="xtick_20"><use xlink:href="#mda5fe8b025" id="line2d_39" x="149.082" y="142.2" style="stroke:#000;stroke-width:.5"/><use xlink:href="#m546bd846e1" id="line2d_40" x="149.082" y="3.6" style="stroke:#000;stroke-width:.5"/></g><g id="xtick_21"><use xlink:href="#mda5fe8b025" id="line2d_41" x="162.48" y="142.2" style="stroke:#000;stroke-width:.5"/><use xlink:href="#m546bd846e1" id="line2d_42" x="162.48" y="3.6" style="stroke:#000;stroke-width:.5"/></g><g id="xtick_22"><use xlink:href="#mda5fe8b025" id="line2d_43" x="169.179" y="142.2" style="stroke:#000;stroke-width:.5"/><use xlink:href="#m546bd846e1" id="line2d_44" x="169.179" y="3.6" style="stroke:#000;stroke-width:.5"/></g><g id="xtick_23"><use xlink:href="#mda5fe8b025" id="line2d_45" x="175.877" y="142.2" style="stroke:#000;stroke-width:.5"/><use xlink:href="#m546bd846e1" id="line2d_46" x="175.877" y="3.6" style="stroke:#000;stroke-width:.5"/></g><g id="xtick_24"><use xlink:href="#mda5fe8b025" id="line2d_47" x="182.576" y="142.2" style="stroke:#000;stroke-width:.5"/><use xlink:href="#m546bd846e1" id="line2d_48" x="182.576" y="3.6" style="stroke:#000;stroke-width:.5"/></g><g id="xtick_25"><use xlink:href="#mda5fe8b025" id="line2d_49" x="195.973" y="142.2" style="stroke:#000;stroke-width:.5"/><use xlink:href="#m546bd846e1" id="line2d_50" x="195.973" y="3.6" style="stroke:#000;stroke-width:.5"/></g><g id="xtick_26"><use xlink:href="#mda5fe8b025" id="line2d_51" x="202.672" y="142.2" style="stroke:#000;stroke-width:.5"/><use xlink:href="#m546bd846e1" id="line2d_52" x="202.672" y="3.6" style="stroke:#000;stroke-width:.5"/></g><g id="xtick_27"><use xlink:href="#mda5fe8b025" id="line2d_53" x="209.371" y="142.2" style="stroke:#000;stroke-width:.5"/><use xlink:href="#m546bd846e1" id="line2d_54" x="209.371" y="3.6" style="stroke:#000;stroke-width:.5"/></g><g id="text_6" transform="matrix(.08 0 0 -.08 109.753 162.233)"><defs><path id="NimbusRomNo9L-Regu-66" d="M1978 2880h-788v731c0 367 122 562 365 562 135 0 224-63 339-246 103-164 180-227 288-227 148 0 269 114 269 259 0 229-281 393-665 393-397 0-736-171-903-461-166-278-217-506-224-1011H134v-205h525V656c0-471-70-547-531-547V0h1664v109c-525 0-595 71-595 552v2014h781z" transform="scale(.01563)"/><path id="NimbusRomNo9L-Regu-28" d="M1888 4326c-474-307-666-473-902-768-455-556-679-1196-679-1945 0-813 237-1440 800-2093 263-307 429-448 762-653l77 103c-512 403-692 627-864 1107-154 429-224 915-224 1555 0 672 83 1197 256 1594 179 396 371 627 832 998z" transform="scale(.01563)"/><path id="NimbusRomNo9L-Regu-47" d="M4538 2304H2906v-128c275 0 352-19 428-71 96-58 135-207 135-484V574c0-207-391-382-851-382-1044 0-1684 730-1684 1920 0 602 180 1184 461 1498 282 314 679 486 1114 486 358 0 672-121 921-352 192-179 295-352 455-742h147l-51 1350h-141c-38-121-154-211-288-211-64 0-166 19-282 64-288 96-582 147-870 147-1280 0-2195-940-2195-2246 0-627 173-1107 531-1485C1165 180 1779-64 2483-64c551 0 1351 224 1607 449v1309c0 379 76 463 448 495z" transform="scale(.01563)"/><path id="NimbusRomNo9L-Regu-48" d="M1338 2304v1229c0 457 70 526 563 571v120H122v-120c492-45 563-115 563-577V749c0-539-64-615-563-615V0h1779v121c-480 38-563 121-563 578v1323h1939V757c0-546-64-623-563-623V0h1779v121c-480 38-563 121-563 575v2833c0 460 70 530 563 575v120H2714v-120c492-45 563-114 563-571V2304z" transform="scale(.01563)"/><path id="NimbusRomNo9L-Regu-7a" d="m2675 864-115 26c-64-320-102-423-186-532-89-108-307-166-633-166H858l1721 2592v96H358l-19-755h115c58 467 154 563 538 563h883L173 96V0h2413z" transform="scale(.01563)"/><path id="NimbusRomNo9L-Regu-29" d="M243-1133c474 307 666 474 903 768 454 557 678 1197 678 1946 0 819-237 1440-800 2093-262 307-429 448-762 652l-76-102c512-403 684-627 864-1107 153-429 224-915 224-1555 0-666-84-1197-256-1588-180-403-372-633-832-1004z" transform="scale(.01563)"/></defs><use xlink:href="#NimbusRomNo9L-Regu-66" transform="scale(.99626)"/><use xlink:href="#NimbusRomNo9L-Regu-28" transform="matrix(.99626 0 0 .99626 58.082 0)"/><use xlink:href="#NimbusRomNo9L-Regu-47" transform="matrix(.99626 0 0 .99626 91.257 0)"/><use xlink:href="#NimbusRomNo9L-Regu-48" transform="matrix(.99626 0 0 .99626 163.187 0)"/><use xlink:href="#NimbusRomNo9L-Regu-7a" transform="matrix(.99626 0 0 .99626 235.117 0)"/><use xlink:href="#NimbusRomNo9L-Regu-29" transform="matrix(.99626 0 0 .99626 279.35 0)"/></g></g><g id="matplotlib.axis_2"><g id="ytick_1"><g id="line2d_55"><defs><path id="mecd6c3ad06" d="M0 0h3" style="stroke:#000;stroke-width:.5"/></defs><use xlink:href="#mecd6c3ad06" x="30.184" y="127.821" style="stroke:#000;stroke-width:.5"/></g><g id="line2d_56"><defs><path id="mf23b324104" d="M0 0h-3" style="stroke:#000;stroke-width:.5"/></defs><use xlink:href="#mf23b324104" x="214.324" y="127.821" style="stroke:#000;stroke-width:.5"/></g><g id="text_7" transform="matrix(.08 0 0 -.08 18.714 130.522)"><defs><path id="NimbusRomNo9L-Regu-35" d="M1158 3776h1255c102 0 128 13 147 58l243 569-57 45c-96-134-160-166-295-166H1114L416 2759c-6-13-6-19-6-32 0-32 25-51 76-51 205 0 461-45 724-129 736-238 1075-637 1075-1273 0-618-391-1101-890-1101-128 0-237 45-429 187-204 148-352 212-486 212-186 0-275-77-275-238C205 90 506-64 986-64c537 0 998 174 1318 502 294 290 429 656 429 1145 0 463-122 759-442 1080-281 284-646 431-1401 566z" transform="scale(.01563)"/></defs><use xlink:href="#NimbusRomNo9L-Regu-32" transform="scale(.99626)"/><use xlink:href="#NimbusRomNo9L-Regu-35" transform="matrix(.99626 0 0 .99626 49.813 0)"/></g></g><g id="ytick_2"><use xlink:href="#mecd6c3ad06" id="line2d_57" x="30.184" y="107.85" style="stroke:#000;stroke-width:.5"/><use xlink:href="#mf23b324104" id="line2d_58" x="214.324" y="107.85" style="stroke:#000;stroke-width:.5"/><g id="text_8" transform="matrix(.08 0 0 -.08 18.714 110.552)"><use xlink:href="#NimbusRomNo9L-Regu-35" transform="scale(.99626)"/><use xlink:href="#NimbusRomNo9L-Regu-30" transform="matrix(.99626 0 0 .99626 49.813 0)"/></g></g><g id="ytick_3"><use xlink:href="#mecd6c3ad06" id="line2d_59" x="30.184" y="87.879" style="stroke:#000;stroke-width:.5"/><use xlink:href="#mf23b324104" id="line2d_60" x="214.324" y="87.879" style="stroke:#000;stroke-width:.5"/><g id="text_9" transform="matrix(.08 0 0 -.08 18.714 90.581)"><defs><path id="NimbusRomNo9L-Regu-37" d="M2874 4250H506l-378-940 109-52c275 435 390 518 742 518h1389L1101-32h416l1357 4180z" transform="scale(.01563)"/></defs><use xlink:href="#NimbusRomNo9L-Regu-37" transform="scale(.99626)"/><use xlink:href="#NimbusRomNo9L-Regu-35" transform="matrix(.99626 0 0 .99626 49.813 0)"/></g></g><g id="ytick_4"><use xlink:href="#mecd6c3ad06" id="line2d_61" x="30.184" y="67.909" style="stroke:#000;stroke-width:.5"/><use xlink:href="#mf23b324104" id="line2d_62" x="214.324" y="67.909" style="stroke:#000;stroke-width:.5"/><g id="text_10" transform="matrix(.08 0 0 -.08 14.73 70.61)"><use xlink:href="#NimbusRomNo9L-Regu-31" transform="scale(.99626)"/><use xlink:href="#NimbusRomNo9L-Regu-30" transform="matrix(.99626 0 0 .99626 49.813 0)"/><use xlink:href="#NimbusRomNo9L-Regu-30" transform="matrix(.99626 0 0 .99626 99.626 0)"/></g></g><g id="ytick_5"><use xlink:href="#mecd6c3ad06" id="line2d_63" x="30.184" y="47.938" style="stroke:#000;stroke-width:.5"/><use xlink:href="#mf23b324104" id="line2d_64" x="214.324" y="47.938" style="stroke:#000;stroke-width:.5"/><g id="text_11" transform="matrix(.08 0 0 -.08 14.73 50.64)"><use xlink:href="#NimbusRomNo9L-Regu-31" transform="scale(.99626)"/><use xlink:href="#NimbusRomNo9L-Regu-32" transform="matrix(.99626 0 0 .99626 49.813 0)"/><use xlink:href="#NimbusRomNo9L-Regu-35" transform="matrix(.99626 0 0 .99626 99.626 0)"/></g></g><g id="ytick_6"><use xlink:href="#mecd6c3ad06" id="line2d_65" x="30.184" y="27.968" style="stroke:#000;stroke-width:.5"/><use xlink:href="#mf23b324104" id="line2d_66" x="214.324" y="27.968" style="stroke:#000;stroke-width:.5"/><g id="text_12" transform="matrix(.08 0 0 -.08 14.73 30.67)"><use xlink:href="#NimbusRomNo9L-Regu-31" transform="scale(.99626)"/><use xlink:href="#NimbusRomNo9L-Regu-35" transform="matrix(.99626 0 0 .99626 49.813 0)"/><use xlink:href="#NimbusRomNo9L-Regu-30" transform="matrix(.99626 0 0 .99626 99.626 0)"/></g></g><g id="ytick_7"><use xlink:href="#mecd6c3ad06" id="line2d_67" x="30.184" y="7.997" style="stroke:#000;stroke-width:.5"/><use xlink:href="#mf23b324104" id="line2d_68" x="214.324" y="7.997" style="stroke:#000;stroke-width:.5"/><g id="text_13" transform="matrix(.08 0 0 -.08 14.73 10.699)"><use xlink:href="#NimbusRomNo9L-Regu-31" transform="scale(.99626)"/><use xlink:href="#NimbusRomNo9L-Regu-37" transform="matrix(.99626 0 0 .99626 49.813 0)"/><use xlink:href="#NimbusRomNo9L-Regu-35" transform="matrix(.99626 0 0 .99626 99.626 0)"/></g></g><g id="ytick_8"><g id="line2d_69"><defs><path id="m9d582ee1ca" d="M0 0h1.5" style="stroke:#000;stroke-width:.5"/></defs><use xlink:href="#m9d582ee1ca" x="30.184" y="139.803" style="stroke:#000;stroke-width:.5"/></g><g id="line2d_70"><defs><path id="m1da7c71f20" d="M0 0h-1.5" style="stroke:#000;stroke-width:.5"/></defs><use xlink:href="#m1da7c71f20" x="214.324" y="139.803" style="stroke:#000;stroke-width:.5"/></g></g><g id="ytick_9"><use xlink:href="#m9d582ee1ca" id="line2d_71" x="30.184" y="135.809" style="stroke:#000;stroke-width:.5"/><use xlink:href="#m1da7c71f20" id="line2d_72" x="214.324" y="135.809" style="stroke:#000;stroke-width:.5"/></g><g id="ytick_10"><use xlink:href="#m9d582ee1ca" id="line2d_73" x="30.184" y="131.815" style="stroke:#000;stroke-width:.5"/><use xlink:href="#m1da7c71f20" id="line2d_74" x="214.324" y="131.815" style="stroke:#000;stroke-width:.5"/></g><g id="ytick_11"><use xlink:href="#m9d582ee1ca" id="line2d_75" x="30.184" y="123.827" style="stroke:#000;stroke-width:.5"/><use xlink:href="#m1da7c71f20" id="line2d_76" x="214.324" y="123.827" style="stroke:#000;stroke-width:.5"/></g><g id="ytick_12"><use xlink:href="#m9d582ee1ca" id="line2d_77" x="30.184" y="119.832" style="stroke:#000;stroke-width:.5"/><use xlink:href="#m1da7c71f20" id="line2d_78" x="214.324" y="119.832" style="stroke:#000;stroke-width:.5"/></g><g id="ytick_13"><use xlink:href="#m9d582ee1ca" id="line2d_79" x="30.184" y="115.838" style="stroke:#000;stroke-width:.5"/><use xlink:href="#m1da7c71f20" id="line2d_80" x="214.324" y="115.838" style="stroke:#000;stroke-width:.5"/></g><g id="ytick_14"><use xlink:href="#m9d582ee1ca" id="line2d_81" x="30.184" y="111.844" style="stroke:#000;stroke-width:.5"/><use xlink:href="#m1da7c71f20" id="line2d_82" x="214.324" y="111.844" style="stroke:#000;stroke-width:.5"/></g><g id="ytick_15"><use xlink:href="#m9d582ee1ca" id="line2d_83" x="30.184" y="103.856" style="stroke:#000;stroke-width:.5"/><use xlink:href="#m1da7c71f20" id="line2d_84" x="214.324" y="103.856" style="stroke:#000;stroke-width:.5"/></g><g id="ytick_16"><use xlink:href="#m9d582ee1ca" id="line2d_85" x="30.184" y="99.862" style="stroke:#000;stroke-width:.5"/><use xlink:href="#m1da7c71f20" id="line2d_86" x="214.324" y="99.862" style="stroke:#000;stroke-width:.5"/></g><g id="ytick_17"><use xlink:href="#m9d582ee1ca" id="line2d_87" x="30.184" y="95.868" style="stroke:#000;stroke-width:.5"/><use xlink:href="#m1da7c71f20" id="line2d_88" x="214.324" y="95.868" style="stroke:#000;stroke-width:.5"/></g><g id="ytick_18"><use xlink:href="#m9d582ee1ca" id="line2d_89" x="30.184" y="91.874" style="stroke:#000;stroke-width:.5"/><use xlink:href="#m1da7c71f20" id="line2d_90" x="214.324" y="91.874" style="stroke:#000;stroke-width:.5"/></g><g id="ytick_19"><use xlink:href="#m9d582ee1ca" id="line2d_91" x="30.184" y="83.885" style="stroke:#000;stroke-width:.5"/><use xlink:href="#m1da7c71f20" id="line2d_92" x="214.324" y="83.885" style="stroke:#000;stroke-width:.5"/></g><g id="ytick_20"><use xlink:href="#m9d582ee1ca" id="line2d_93" x="30.184" y="79.891" style="stroke:#000;stroke-width:.5"/><use xlink:href="#m1da7c71f20" id="line2d_94" x="214.324" y="79.891" style="stroke:#000;stroke-width:.5"/></g><g id="ytick_21"><use xlink:href="#m9d582ee1ca" id="line2d_95" x="30.184" y="75.897" style="stroke:#000;stroke-width:.5"/><use xlink:href="#m1da7c71f20" id="line2d_96" x="214.324" y="75.897" style="stroke:#000;stroke-width:.5"/></g><g id="ytick_22"><use xlink:href="#m9d582ee1ca" id="line2d_97" x="30.184" y="71.903" style="stroke:#000;stroke-width:.5"/><use xlink:href="#m1da7c71f20" id="line2d_98" x="214.324" y="71.903" style="stroke:#000;stroke-width:.5"/></g><g id="ytick_23"><use xlink:href="#m9d582ee1ca" id="line2d_99" x="30.184" y="63.915" style="stroke:#000;stroke-width:.5"/><use xlink:href="#m1da7c71f20" id="line2d_100" x="214.324" y="63.915" style="stroke:#000;stroke-width:.5"/></g><g id="ytick_24"><use xlink:href="#m9d582ee1ca" id="line2d_101" x="30.184" y="59.921" style="stroke:#000;stroke-width:.5"/><use xlink:href="#m1da7c71f20" id="line2d_102" x="214.324" y="59.921" style="stroke:#000;stroke-width:.5"/></g><g id="ytick_25"><use xlink:href="#m9d582ee1ca" id="line2d_103" x="30.184" y="55.927" style="stroke:#000;stroke-width:.5"/><use xlink:href="#m1da7c71f20" id="line2d_104" x="214.324" y="55.927" style="stroke:#000;stroke-width:.5"/></g><g id="ytick_26"><use xlink:href="#m9d582ee1ca" id="line2d_105" x="30.184" y="51.932" style="stroke:#000;stroke-width:.5"/><use xlink:href="#m1da7c71f20" id="line2d_106" x="214.324" y="51.932" style="stroke:#000;stroke-width:.5"/></g><g id="ytick_27"><use xlink:href="#m9d582ee1ca" id="line2d_107" x="30.184" y="43.944" style="stroke:#000;stroke-width:.5"/><use xlink:href="#m1da7c71f20" id="line2d_108" x="214.324" y="43.944" style="stroke:#000;stroke-width:.5"/></g><g id="ytick_28"><use xlink:href="#m9d582ee1ca" id="line2d_109" x="30.184" y="39.95" style="stroke:#000;stroke-width:.5"/><use xlink:href="#m1da7c71f20" id="line2d_110" x="214.324" y="39.95" style="stroke:#000;stroke-width:.5"/></g><g id="ytick_29"><use xlink:href="#m9d582ee1ca" id="line2d_111" x="30.184" y="35.956" style="stroke:#000;stroke-width:.5"/><use xlink:href="#m1da7c71f20" id="line2d_112" x="214.324" y="35.956" style="stroke:#000;stroke-width:.5"/></g><g id="ytick_30"><use xlink:href="#m9d582ee1ca" id="line2d_113" x="30.184" y="31.962" style="stroke:#000;stroke-width:.5"/><use xlink:href="#m1da7c71f20" id="line2d_114" x="214.324" y="31.962" style="stroke:#000;stroke-width:.5"/></g><g id="ytick_31"><use xlink:href="#m9d582ee1ca" id="line2d_115" x="30.184" y="23.974" style="stroke:#000;stroke-width:.5"/><use xlink:href="#m1da7c71f20" id="line2d_116" x="214.324" y="23.974" style="stroke:#000;stroke-width:.5"/></g><g id="ytick_32"><use xlink:href="#m9d582ee1ca" id="line2d_117" x="30.184" y="19.98" style="stroke:#000;stroke-width:.5"/><use xlink:href="#m1da7c71f20" id="line2d_118" x="214.324" y="19.98" style="stroke:#000;stroke-width:.5"/></g><g id="ytick_33"><use xlink:href="#m9d582ee1ca" id="line2d_119" x="30.184" y="15.985" style="stroke:#000;stroke-width:.5"/><use xlink:href="#m1da7c71f20" id="line2d_120" x="214.324" y="15.985" style="stroke:#000;stroke-width:.5"/></g><g id="ytick_34"><use xlink:href="#m9d582ee1ca" id="line2d_121" x="30.184" y="11.991" style="stroke:#000;stroke-width:.5"/><use xlink:href="#m1da7c71f20" id="line2d_122" x="214.324" y="11.991" style="stroke:#000;stroke-width:.5"/></g><g id="ytick_35"><use xlink:href="#m9d582ee1ca" id="line2d_123" x="30.184" y="4.003" style="stroke:#000;stroke-width:.5"/><use xlink:href="#m1da7c71f20" id="line2d_124" x="214.324" y="4.003" style="stroke:#000;stroke-width:.5"/></g><g id="text_14" transform="matrix(0 -.08 -.08 0 9.004 98.468)"><defs><path id="NimbusRomNo9L-Regu-4d" d="M4314 3667V751c0-534-77-617-583-617V0h1792v134c-467 0-557 89-557 547v2855c0 457 84 541 557 579v122H4250L2835 1004 1357 4237H90v-141c524 0 608-77 608-546V943c0-661-90-784-621-822V0h1504v134c-493 0-602 148-602 797v2589L2586 0h89z" transform="scale(.01563)"/><path id="NimbusRomNo9L-Regu-61" d="M2829 423c-109-90-186-122-282-122-147 0-192 89-192 371v1248c0 333-32 518-128 672-141 230-416 352-793 352-602 0-1076-314-1076-717 0-147 128-275 276-275 153 0 288 128 288 269 0 25-7 57-13 102-13 58-19 109-19 154 0 173 204 313 460 313 314 0 487-185 487-531v-390c-986-397-1095-448-1370-691-141-128-230-346-230-557 0-403 281-685 672-685 281 0 544 134 934 467 32-333 147-467 410-467 217 0 352 77 576 320zm-992 360c0-199-32-257-167-334-153-90-332-148-467-148-224 0-403 219-403 495v26c0 379 262 611 1037 893z" transform="scale(.01563)"/><path id="NimbusRomNo9L-Regu-67" d="M3008 2496v250h-493c-128 0-224 17-352 56l-141 45c-172 56-345 84-512 84-595 0-1068-464-1068-1050 0-405 172-651 595-863-122-112-237-219-275-250-212-180-295-305-295-430 0-132 77-207 339-332-454-335-627-549-627-787 0-343 499-627 1107-627 480 0 980 170 1312 446 244 203 352 414 352 663 0 407-300 683-774 683h-826c-339 0-499 59-499 164 0 130 211 360 384 412 58-7 103-13 122-13 121-13 205-19 243-19 237 0 493 98 691 275 211 184 307 414 307 742 0 190-32 341-121 551zM941-13c211-45 723-83 1037-83 582 0 793-84 793-318 0-377-486-629-1209-629-564 0-935 188-935 473 0 150 45 234 314 557m32 2158c0 381 179 607 473 607 199 0 365-110 468-303 115-226 192-522 192-774 0-361-186-587-480-587-384 0-653 419-653 1038z" transform="scale(.01563)"/><path id="NimbusRomNo9L-Regu-6e" d="M102 2579c39 19 103 26 173 26 179 0 237-96 237-410V608c0-365-70-454-397-480V32h1357v96c-326 26-422 102-422 333v1798c307 288 448 365 659 365 313 0 467-198 467-621V666c0-404-83-512-403-538V32h1331v96c-314 32-390 109-390 422v1466c0 602-282 960-756 960-294 0-492-109-928-518v505l-44 13c-314-115-532-186-884-288z" transform="scale(.01563)"/><path id="NimbusRomNo9L-Regu-69" d="m1120 2929-992-350v-95l51 6c77 12 160 19 218 19 153 0 211-103 211-384V640c0-461-64-531-506-531V0h1517v96c-422 32-473 95-473 554v2260zM819 4352c-173 0-320-147-320-326s141-327 320-327c186 0 333 141 333 327 0 179-147 326-333 326" transform="scale(.01563)"/><path id="NimbusRomNo9L-Regu-74" d="M1632 2880H986v742c0 64-7 84-45 84-45-58-83-116-128-180-243-352-519-659-621-685-70-47-109-93-109-126 0-20 7-33 26-33h339V751c0-539 192-815 570-815 313 0 556 154 768 487l-84 70c-134-160-243-224-384-224-236 0-332 174-332 578v1835h646z" transform="scale(.01563)"/><path id="NimbusRomNo9L-Regu-75" d="M3066 320h-32c-295 0-365 70-365 365v2195H1658v-122c396 0 473-64 473-383V875c0-178-32-268-121-338-173-140-372-217-564-217-249 0-454 217-454 485v2075H58v-102c307 0 396-96 396-391V770c0-507 308-834 775-834 237 0 486 102 659 275l275 275V-45l26-13c320 128 550 199 877 288z" transform="scale(.01563)"/><path id="NimbusRomNo9L-Regu-64" d="m2202-64 940 333v96h-147c-230 0-281 70-281 366v3633l-32 13c-308-109-532-173-941-281v-102c51 6 89 6 141 6 236 0 294-64 294-328V2669c-243 205-416 275-672 275-736 0-1331-723-1331-1632C173 493 653-64 1357-64c358 0 601 128 819 429V-45zm-26 717c0-45-45-122-109-192-115-128-275-192-461-192-531 0-883 512-883 1299 0 723 314 1197 800 1197 339 0 653-301 653-640z" transform="scale(.01563)"/><path id="NimbusRomNo9L-Regu-65" d="M2611 1053c-307-489-582-675-992-675-365 0-640 186-825 552-116 244-160 456-173 849h1971c-51 414-115 598-275 802-192 230-487 363-819 363-320 0-621-115-864-333-301-262-474-717-474-1241C160 486 621-64 1357-64c608 0 1088 379 1357 1072zM634 1984c70 495 288 730 678 730s544-179 627-730z" transform="scale(.01563)"/><path id="NimbusRomNo9L-Regu-42" d="M109 4237v-141c537 0 614-70 614-548V689c0-477-83-561-614-561V0h2137c500 0 954 136 1191 356 230 208 358 499 358 809 0 286-115 545-313 732-192 175-365 253-781 356 333 82 467 145 621 278 160 140 256 372 256 632 0 708-570 1074-1677 1074zm1267-2125c621 0 915-32 1146-130 364-155 537-414 537-823 0-350-134-604-390-753-205-116-467-168-890-168-313 0-403 58-403 266zm0 256v1444c0 132 45 189 141 189h281c736 0 1127-302 1127-864 0-491-339-769-941-769z" transform="scale(.01563)"/></defs><use xlink:href="#NimbusRomNo9L-Regu-4d" transform="scale(.99626)"/><use xlink:href="#NimbusRomNo9L-Regu-61" transform="matrix(.99626 0 0 .99626 88.567 0)"/><use xlink:href="#NimbusRomNo9L-Regu-67" transform="matrix(.99626 0 0 .99626 132.8 0)"/><use xlink:href="#NimbusRomNo9L-Regu-6e" transform="matrix(.99626 0 0 .99626 182.614 0)"/><use xlink:href="#NimbusRomNo9L-Regu-69" transform="matrix(.99626 0 0 .99626 232.427 0)"/><use xlink:href="#NimbusRomNo9L-Regu-74" transform="matrix(.99626 0 0 .99626 260.122 0)"/><use xlink:href="#NimbusRomNo9L-Regu-75" transform="matrix(.99626 0 0 .99626 287.817 0)"/><use xlink:href="#NimbusRomNo9L-Regu-64" transform="matrix(.99626 0 0 .99626 337.63 0)"/><use xlink:href="#NimbusRomNo9L-Regu-65" transform="matrix(.99626 0 0 .99626 387.444 0)"/><use xlink:href="#NimbusRomNo9L-Regu-28" transform="matrix(.99626 0 0 .99626 456.584 0)"/><use xlink:href="#NimbusRomNo9L-Regu-64" transform="matrix(.99626 0 0 .99626 489.759 0)"/><use xlink:href="#NimbusRomNo9L-Regu-42" transform="matrix(.99626 0 0 .99626 539.572 0)"/><use xlink:href="#NimbusRomNo9L-Regu-29" transform="matrix(.99626 0 0 .99626 606.022 0)"/></g></g><path id="line2d_125" d="m38.554 135.766 1.206-.054.067-.064.067.252.067-.154.134.089.067-.153.134.149.134-.062.134.046.268-.04.067.052.067-.124.2.155.068-.037.067-.21.067.148.067-.143.067.073.067.087.067-.084.268-.094.067.153.067-.176.067.048.067.215.067-.098.067-.104.067.055.067.012.133.106 1.072-.114 1.005-.02.469.021.134-.133.067.043.067-.109.067.204.067-.064.134-.002.335-.082.067.051.067-.09.134.178.268-.168.067.118.067-.114.067.087.268-.007.067-.157.134.22.134-.2.067.144.067-.191.067.14.2-.149.47.087.334-.003 1.407-.099.402.026.2-.145.135.097.067-.173.067.06.134.067.067.016.067-.11.067.161.067-.228.067.174.067-.175.067.129.067-.075.067.114.067-.184.067.088.067-.121.134.197.134-.124.067-.093.067.25.067-.03.067-.21.067.065.067.12.134-.177.067.103.067-.146.066.156.067-.031.067-.094.067.2.067-.083.067-.002.067-.184.067.124.134.137.201-.296.201.26.268-.25.201.086.067-.124.067.092.335.022.067-.111.067.1.201-.074.737-.018.067-.095.067.06.067.03.134-.156.067.126.067-.081.134.063.067-.107.067.186.2-.24.202-.051.134.178.2-.28.068.195.067-.058.335.066.066-.32.067.413.067-.172.268.103.067-.317.067.142.268-.195.201.21.067-.139.067.059.067.119.134-.208.335.065.067-.18.067.117.134-.073.469.007.335-.082.87-.066.068-.08.067.068.603-.2.134.13.067-.12.067.074.134-.158.067.16.067-.045.2-.157.067.14.067-.063.335-.253.134.268.067-.346.067.306.067-.226.067.29.134-.264.134.047.067-.096.067.234.067-.262.067.164.201-.202.067.268.067-.149.067-.076.067.142.067-.244.067.061.067.1.067-.2.067.04.335-.001.067-.11.067.05.2.1.068-.189.067.09.2-.033.202-.059 1.674-.23.067-.167.067.128.536-.11.402-.174.134-.058.067.2.134-.163.067.224.134-.383.134.127.201-.16.134.143.067-.166.067.088.201-.127.067-.036.067.154.067-.085.067-.132.067.05.268-.03.134.01.469-.161.134.036 1.139-.236.067.054.067-.117.066.107.067-.162.067.083.134-.08.067.034.201-.162.201.032.067-.24.067.168.067-.121.067.335.067-.194.067-.043.067.13.067-.3.067.085.134-.126.067.144.067-.245.067.271.067-.094.067-.033.134-.224.067.157.067-.12.067.094.201-.148.067.18.067-.099.335-.163.067-.018.067.104.067-.055.335-.087h.067l.067-.137.067.047.268-.026.2-.093.604-.168.736-.216.067.069.067-.08.067.023.201-.187.201.095.067-.178.067.1.067.066.134-.156.067.03.134-.25.067.106.134.069.067-.007.067-.161.067.111.067-.01.067-.138.067.155.067-.12.067.047.067-.215.067.05.134-.1.134.16.134-.2.067.066.067-.172.067.115.067.042.067-.26.067.105.134-.044.067-.069.067.107.067-.05.067-.147.067.109.134-.05.134-.064.536-.17.402-.134.401-.13.737-.238.067.026.201-.122.335-.13.47-.273.066.153.134-.16.402.018.067-.233.067.18.134-.18.067.05.134-.214.067.221.2-.287.135.12.2-.15.068.076.067-.254.067.093.134-.109.067-.136.067.11.134-.026.067-.13.067.085.268-.062.134-.047.134-.174.134.054.2-.143.134-.056.938-.389.201-.107.536-.142.201-.137.134-.1.067.181.134-.385.067.261.134-.292.067.168.067-.026.067-.278.067.149.134-.058.134-.25.067.214.067-.14.067.086.067-.066.134-.306.067.312.134-.247.067.058.067-.176.067.122.067-.036.134-.306.067.193.067-.14.402-.073.067.088.067-.262.067.035 1.875-.99.067-.206.067.05.067.148.067-.035.469-.472.067.216.067-.052.134-.37.067.09.067.403.134-.637.067.218.134-.397.134.365.067-.233.067-.048.067.13.067-.073.268-.938.067.618.067-.289.067.354.067-.187.134-.198.134-.013.067.05.067.3.134-.572.067-.005.067-.195.067.184.067-.063.066-.015.067-.22.067.387.201-.59.134.16.134-.307.268-.2.067.468.134-.421.067.028.201-.242.067.055.268-.233.335-.17.067-.163.067.089.268-.412.067.265.067-.457.067.22.2-.027.068-.342.067.391.2-.663.068.258.067-.14.067-.332.134.36.134-.276.067-.38.067.332.067-.45.067.105.067-.09.067.498.2-1.002.135.753.067-.082.134-.806.067.512.067-.187.067.288.2-1.108.134.687.067-.673.067.244.067-.114.067.431.067-.379.067.28.201-1.029.134.699.134-.729.067.536.067-.266.067-.474.067.415.067-.47.067.379.067-.4.067.09.067-.006.067.15.067-.304.067.027.335-.403.335-.227.134-.317.067.081.2-.374.068.134.067-.291.067.174.134-.01.067-.06.067-.431.067.506.067-.53.067.035.067-.046.067.142.134-.57.067.251.067-.672.067.154.067.062.067.415.067-.197.134-.427.067.074.067.468.067-.66.067.224.2-.754.068.667.2-1.459.134.947.067.18.067-1.267.067.654.067-.765.067.156.067.692.201-1.07.067.349.134-.389.067.053.067-.096.067.143.134-.972.067.773.067-.3.134-.398.067.197.201-.744.067.492.134-.526.134.021.134-.325.134-.064.201-.372.335-.428.536-.95.134.386.2-1.18.068.42.067-.218.067-.21.067.145.067.552.067-.37.067-.826.067.412.067-.682.067.03.067.05.2-.89.135.74.134-1.047.067.29.267-1.023.134.786.201-1.842.134.668.067-.3.067.27.067-.798.067.581.134-.946.067.17.067-.455.067.375.134-.761.067.355.067-1.106.067.7.067-.32.067.428.201-1.635.067.085.067.02.201-.29.067-.061.87-2.459.202-.511.2-.818.068.07.2-.98.068.157.2-1.04.135-.632.067.706.268-3.23.134 1.272.067-.822.067.647.067-2.01.067 1.315.133-.183.201-2.392.067.705.201-2.697.067 2.452.067-3.18.067 2.349.067-4.133.067 5.937.067-6.499.067 4.778.067-6.676.067 7.43.067-8.228.067 6.484.067-8.133.067 9.07.067-11.12.067 8.12.067-9.314.067 10.361.067-12.176.067 7.725.067-7.44.067 4.014.067-6.142.067 4.076.067-6.057.067.626.067 1.445.134-4.255.067-3.97.067 6.22.201-12.071.067 7.406.067-11.792.067 15.444.2-25.127.068 26.63.2-40.693.068 17.795.134-40.454.067 6.28.067 34.174.067-17.795.2 40.693.068-26.63.067 17.203.067-9.67.067 17.594.067-15.444.067 11.792.067-7.406.2 12.071.068-6.22.067 3.97.134 4.255.133-2.07.067 6.056.067-4.076.201 9.568.067-7.725.067 12.176.067-10.361.067 9.313.067-8.118.067 11.118.067-9.07.067 8.134.067-6.484.067 8.229.067-7.431.067 6.676.067-4.778.067 6.499.067-5.937.067 4.133.067-2.348.067 3.18.067-2.453.067 1.153.067-.085.201 2.565.067-1.002.134 1.82.067.116.067-1.315.067 2.01.067-.647.067.822.134-1.272.2 2.401.068.83.067-.707.067.393.067.24.2 1.04.068-.158.603 2.098.268.72.268.756.067.012.2.765.47.678.066-.085.201 1.635.067-.428.067.32.067-.7.067 1.106.067-.355.067.091.067.67.067-.375.067.456.067-.171.067.217.067.729.067-.581.067.798.067-.27.067.3.134-.668.067 1.416.067-.76.067 1.186.067-.42.067-.366.268 1.024.067-.291.134 1.047.134-.74.2.89.135-.08.2 1.097.068.369.134-.696.134.427.067-.42.067.255.134.925.067-.171.067-.215.067.082.335.63.803 1.102.067-.004.067.329.067-.03.134.076.067.46.067-.493.067.18.402 1.065.067-.773.067.49.067.482.067-.143.067.096.067-.053.067.044.067.345.067-.349.067.175.134.895.134-.848.067.765.067-.654.067 1.266.067-.18.067-.034.067-.912.201 1.459.067-.667.201.754.067-.224.067.66.134-.542.2.624.202-.63.067.671.067-.25.067.135.067.434.067-.142.134.012.067.529.067-.506.134.492.134.009.067-.174.2.47.068-.082.067.143.067-.081.468.544.067.025.268.378.067-.027.067.304.067-.15.134-.084.067.4.067-.379.067.47.067-.415.134.74.067-.536.067.075.067.654.067-.185.067-.514.201 1.03.067-.28.067.378.067-.43.067.113.067-.244.067.673.067-.26.067-.427.201 1.108.201-.613.2.888.135-.753.067.145.134.857.067-.498.067.09.067-.106.067.45.067-.331.2.656.135-.36.134.472.067-.258.2.663.068-.391.067.342.067-.122.134.15.067-.22.067.456.067-.265.134.315.2.008.201.202.134.1.402.209.201.242.134.039.067.354.067-.468.067.049.268.169.067.289.067-.073.067-.087.201.59.067-.387.067.22.134.078.067-.184.268.773.134-.351.2-.006.135.404.067-.354.067.289.067-.618.067.536.067-.14.2.616.068-.13.067.047.067.233.134-.365.335.816.134-.493.2.422.135-.25.2.356.067-.125.201.31.134-.198.134.19.268.17.67.363.938.438.067.262.067-.088.201.068.067-.098.067.088.067.016.067.139.067-.193.067.121.134.221.067-.122.067.176.067-.058.067.023.067.224.134-.299.134.36.067-.087.067.14.067-.214.067.085.2.223.068-.15.134.305.067-.168.067.093.067.2.134-.267.067.39.067-.181.2.21.067-.084.201.156.335.082.47.206 1.74.733.068-.085.134.206.067-.05.067-.11.2.245.068-.093.067.254.067-.077.134.064.134.095.067-.128.2.287.068-.22.067.08.067.132.067-.05.067-.015.067.196.067-.18.067.233.067-.062.067-.034.067.092.067-.095.267.241.067-.153.067.033.067.157.067-.073.47.186.401.196.134-.007.335.181.268.065 2.077.64.067-.103.067.259.067-.042.067-.115.067.172.067-.066.067.03.134.182.134-.154.334.32.067-.155.134.148.067-.111.134.168.134-.07.067-.105.201.22 2.747.751.067-.047.134.137.2-.004.202.146.2-.111.336.287.067-.18.067.11.067-.063.2.127.134-.159.201.353.067-.27.067.244.067-.144.201.04.067.301.067-.13.067.043.067.194.067-.335.067.12.067-.168.067.241.067-.118.201.175.067-.031.134.07.067-.03.201.19.067-.108.067.117.067-.054.335.024.536.135 1.608.27.067.21.067-.09.736-.01.067.369.067-.224.067.007.067.155.134-.21.335.23.268-.092.067-.028.201.179.134.064.067-.128.201.262.134-.104.268.153.134-.12.134.042.134.041h.2l.336.095 1.407.18.066-.04.067.2.067-.1.067-.06.067.243.067-.142.134.225.067-.268.067.1.067-.021.067.123.067-.164.067.262.067-.234.067.096.201-.028.067.244.067-.289.067.226.067-.306.067.346.067-.123.067-.145.067.045.201.138.134.134.067-.141.067.148.067-.08.134.135.067-.16.067.082.2.12.068-.003.067-.126.067.061.536.14.067-.07.067.08.402.02.603.127.134-.04.2.132.067-.104.067.078.201-.071.067-.035.067.108.067-.116.067.179.067-.03.335-.04.067.213.067-.12.067-.058.067.14.067-.112.067.048.067-.147.134.17.201-.117.067.317.067-.13.134.046.067-.019.067.172.067-.413.067.32.067-.118.134.03.201.08.067-.195.067.107.134.173.067-.042.067-.136.067.124.067-.094.2.085.068.176.067-.186.067.107.2.018.135-.121.067.152.067-.03.067-.06.134.097.134-.07.2.058 1.541.213.134.03.268-.13.067.209.067-.024.134-.237.201.268.067-.2.067.095.067.03.067-.155.067.146.067-.103.067.02.067.158.067-.12.067-.066.134.24.067-.25.067.093.134.124.268-.164.067.184.067-.114.067.075.067-.129.067.175.067-.174.067.228.067-.16.2.127.135-.16.134.181.067-.106.067.06.2.042.336.017.87.096.201-.091.134.13.201-.036.335.003.067-.134.134.144.201-.098.201.054.067.096.067-.14.067.191.067-.144.201.193.067-.213.067.157.268.007.067-.087.067.114.134-.198.2.248.336-.122.335.115.335-.122.067-.004.067.137.067-.053.334.044.67.003 1.005.028.536.115.201-.197.134.202.134-.263.067.176.067-.153.067.06.335.031.067-.073.067.143.067-.147.2.264.269-.101.134-.026.268.02.134.062.335-.085.067.154.067-.252.067.064.267.157.201-.1.134-.012.201-.006.335.016h0" clip-path="url(#pefb7a970a9)" style="fill:none;stroke:#000;stroke-linecap:square"/><path id="patch_3" d="M30.184 142.2V3.6" style="fill:none;stroke:#000;stroke-width:.5;stroke-linejoin:miter;stroke-linecap:square"/><path id="patch_4" d="M214.324 142.2V3.6" style="fill:none;stroke:#000;stroke-width:.5;stroke-linejoin:miter;stroke-linecap:square"/><path id="patch_5" d="M30.184 142.2h184.14" style="fill:none;stroke:#000;stroke-width:.5;stroke-linejoin:miter;stroke-linecap:square"/><path id="patch_6" d="M30.184 3.6h184.14" style="fill:none;stroke:#000;stroke-width:.5;stroke-linejoin:miter;stroke-linecap:square"/></g></g><defs><clipPath id="pefb7a970a9"><path d="M30.184 3.6h184.14v138.6H30.184z"/></clipPath></defs></svg>