<?xml version="1.0" encoding="utf-8" standalone="no"?>
<!DOCTYPE svg PUBLIC "-//W3C//DTD SVG 1.1//EN"
  "http://www.w3.org/Graphics/SVG/1.1/DTD/svg11.dtd">
<svg xmlns:xlink="http://www.w3.org/1999/xlink" width="192.292205pt" height="188.484059pt" viewBox="0 0 192.292205 188.484059" xmlns="http://www.w3.org/2000/svg" version="1.1">
 <metadata>
  <rdf:RDF xmlns:dc="http://purl.org/dc/elements/1.1/" xmlns:cc="http://creativecommons.org/ns#" xmlns:rdf="http://www.w3.org/1999/02/22-rdf-syntax-ns#">
   <cc:Work>
    <dc:type rdf:resource="http://purl.org/dc/dcmitype/StillImage"/>
    <dc:date>2025-03-29T10:17:50.542412</dc:date>
    <dc:format>image/svg+xml</dc:format>
    <dc:creator>
     <cc:Agent>
      <dc:title>Matplotlib v3.9.2, https://matplotlib.org/</dc:title>
     </cc:Agent>
    </dc:creator>
   </cc:Work>
  </rdf:RDF>
 </metadata>
 <defs>
  <style type="text/css">*{stroke-linejoin: round; stroke-linecap: butt}</style>
 </defs>
 <g id="figure_1">
  <g id="patch_1">
   <path d="M 0 188.484059 
L 192.292205 188.484059 
L 192.292205 0 
L 0 0 
L 0 188.484059 
z
" style="fill: none"/>
  </g>
  <g id="axes_1">
   <g id="patch_2">
    <path d="M 165.446102 101.519499 
C 165.446102 92.419107 163.653524 83.407204 160.170954 74.999538 
C 156.688385 66.591871 151.583552 58.951949 145.148602 52.516999 
C 138.713653 46.08205 131.073731 40.977217 122.666064 37.494648 
C 114.258398 34.012078 105.246495 32.219499 96.146102 32.219499 
C 87.04571 32.219499 78.033807 34.012078 69.626141 37.494648 
C 61.218474 40.977217 53.578552 46.08205 47.143603 52.516999 
C 40.708653 58.951949 35.60382 66.591871 32.121251 74.999538 
C 28.638681 83.407204 26.846102 92.419107 26.846102 101.519499 
C 26.846102 110.619892 28.638681 119.631795 32.121251 128.039461 
C 35.60382 136.447128 40.708653 144.08705 47.143603 150.521999 
C 53.578552 156.956949 61.218474 162.061782 69.626141 165.544351 
C 78.033807 169.02692 87.04571 170.819499 96.146102 170.819499 
C 105.246495 170.819499 114.258398 169.02692 122.666064 165.544351 
C 131.073731 162.061782 138.713653 156.956949 145.148602 150.521999 
C 151.583552 144.08705 156.688385 136.447128 160.170954 128.039461 
C 163.653524 119.631795 165.446102 110.619892 165.446102 101.519499 
M 96.146102 101.519499 
C 96.146102 101.519499 96.146102 101.519499 96.146102 101.519499 
C 96.146102 101.519499 96.146102 101.519499 96.146102 101.519499 
C 96.146102 101.519499 96.146102 101.519499 96.146102 101.519499 
C 96.146102 101.519499 96.146102 101.519499 96.146102 101.519499 
C 96.146102 101.519499 96.146102 101.519499 96.146102 101.519499 
C 96.146102 101.519499 96.146102 101.519499 96.146102 101.519499 
C 96.146102 101.519499 96.146102 101.519499 96.146102 101.519499 
C 96.146102 101.519499 96.146102 101.519499 96.146102 101.519499 
C 96.146102 101.519499 96.146102 101.519499 96.146102 101.519499 
C 96.146102 101.519499 96.146102 101.519499 96.146102 101.519499 
C 96.146102 101.519499 96.146102 101.519499 96.146102 101.519499 
C 96.146102 101.519499 96.146102 101.519499 96.146102 101.519499 
C 96.146102 101.519499 96.146102 101.519499 96.146102 101.519499 
C 96.146102 101.519499 96.146102 101.519499 96.146102 101.519499 
C 96.146102 101.519499 96.146102 101.519499 96.146102 101.519499 
C 96.146102 101.519499 96.146102 101.519499 96.146102 101.519499 
L 96.146102 101.519499 
z
" style="fill: none"/>
   </g>
   <g id="matplotlib.axis_1">
    <g id="xtick_1">
     <g id="line2d_1">
      <path d="M 96.146102 101.519499 
L 165.446102 101.519499 
" clip-path="url(#pd1f342382e)" style="fill: none; stroke: #b0b0b0; stroke-width: 0.5; stroke-linecap: square"/>
     </g>
     <g id="text_1">
      <!-- 0° -->
      <g transform="translate(172.359554 103.358596) scale(0.08 -0.08)">
       <defs>
        <path id="NimbusRomNo9L-Regu-30" d="M 1626 4352 
C 1274 4352 1005 4244 768 4020 
C 397 3661 154 2925 154 2176 
C 154 1479 365 730 666 372 
C 902 90 1229 -64 1600 -64 
C 1926 -64 2202 45 2432 269 
C 2803 621 3046 1364 3046 2138 
C 3046 3450 2464 4352 1626 4352 
z
M 1606 4186 
C 2144 4186 2432 3463 2432 2125 
C 2432 788 2150 103 1600 103 
C 1050 103 768 788 768 2119 
C 768 3476 1056 4186 1606 4186 
z
" transform="scale(0.015625)"/>
        <path id="NimbusRomNo9L-Regu-b0" d="M 1280 4313 
C 768 4313 365 3913 365 3404 
C 365 2903 768 2496 1267 2496 
C 1786 2496 2195 2890 2195 3399 
C 2195 3913 1792 4313 1280 4313 
z
M 1280 4096 
C 1638 4096 1946 3779 1946 3405 
C 1946 3024 1645 2714 1274 2714 
C 915 2714 614 3031 614 3405 
C 614 3779 915 4096 1280 4096 
z
" transform="scale(0.015625)"/>
       </defs>
       <use xlink:href="#NimbusRomNo9L-Regu-30" transform="scale(0.996264)"/>
       <use xlink:href="#NimbusRomNo9L-Regu-b0" transform="translate(49.8132 0) scale(0.996264)"/>
      </g>
     </g>
    </g>
    <g id="xtick_2">
     <g id="line2d_2">
      <path d="M 96.146102 101.519499 
L 145.148602 52.516999 
" clip-path="url(#pd1f342382e)" style="fill: none; stroke: #b0b0b0; stroke-width: 0.5; stroke-linecap: square"/>
     </g>
     <g id="text_2">
      <!-- 45° -->
      <g transform="translate(146.994147 46.931475) scale(0.08 -0.08)">
       <defs>
        <path id="NimbusRomNo9L-Regu-34" d="M 3021 1497 
L 2368 1497 
L 2368 4352 
L 2086 4352 
L 77 1497 
L 77 1088 
L 1875 1088 
L 1875 32 
L 2368 32 
L 2368 1088 
L 3021 1088 
L 3021 1497 
z
M 1869 1497 
L 333 1497 
L 1869 3698 
L 1869 1497 
z
" transform="scale(0.015625)"/>
        <path id="NimbusRomNo9L-Regu-35" d="M 1158 3776 
L 2413 3776 
C 2515 3776 2541 3789 2560 3834 
L 2803 4403 
L 2746 4448 
C 2650 4314 2586 4282 2451 4282 
L 1114 4282 
L 416 2759 
C 410 2746 410 2740 410 2727 
C 410 2695 435 2676 486 2676 
C 691 2676 947 2631 1210 2547 
C 1946 2309 2285 1910 2285 1274 
C 2285 656 1894 173 1395 173 
C 1267 173 1158 218 966 360 
C 762 508 614 572 480 572 
C 294 572 205 495 205 334 
C 205 90 506 -64 986 -64 
C 1523 -64 1984 110 2304 438 
C 2598 728 2733 1094 2733 1583 
C 2733 2046 2611 2342 2291 2663 
C 2010 2947 1645 3094 890 3229 
L 1158 3776 
z
" transform="scale(0.015625)"/>
       </defs>
       <use xlink:href="#NimbusRomNo9L-Regu-34" transform="scale(0.996264)"/>
       <use xlink:href="#NimbusRomNo9L-Regu-35" transform="translate(49.8132 0) scale(0.996264)"/>
       <use xlink:href="#NimbusRomNo9L-Regu-b0" transform="translate(99.626401 0) scale(0.996264)"/>
      </g>
     </g>
    </g>
    <g id="xtick_3">
     <g id="line2d_3">
      <path d="M 96.146102 101.519499 
L 96.146102 32.219499 
" clip-path="url(#pd1f342382e)" style="fill: none; stroke: #b0b0b0; stroke-width: 0.5; stroke-linecap: square"/>
     </g>
     <g id="text_3">
      <!-- 90° -->
      <g transform="translate(90.567026 23.558596) scale(0.08 -0.08)">
       <defs>
        <path id="NimbusRomNo9L-Regu-39" d="M 378 -123 
C 1094 -40 1446 82 1882 396 
C 2547 882 2938 1676 2938 2539 
C 2938 3593 2349 4339 1523 4339 
C 762 4339 192 3694 192 2832 
C 192 2053 653 1536 1344 1536 
C 1696 1536 1965 1638 2304 1900 
C 2042 856 1331 172 358 5 
L 378 -123 
z
M 2317 2290 
C 2317 2162 2291 2104 2221 2047 
C 2042 1894 1805 1811 1574 1811 
C 1088 1811 781 2290 781 3050 
C 781 3413 883 3796 1018 3963 
C 1126 4090 1286 4160 1472 4160 
C 2029 4160 2317 3611 2317 2539 
L 2317 2290 
z
" transform="scale(0.015625)"/>
       </defs>
       <use xlink:href="#NimbusRomNo9L-Regu-39" transform="scale(0.996264)"/>
       <use xlink:href="#NimbusRomNo9L-Regu-30" transform="translate(49.8132 0) scale(0.996264)"/>
       <use xlink:href="#NimbusRomNo9L-Regu-b0" transform="translate(99.626401 0) scale(0.996264)"/>
      </g>
     </g>
    </g>
    <g id="xtick_4">
     <g id="line2d_4">
      <path d="M 96.146102 101.519499 
L 47.143603 52.516999 
" clip-path="url(#pd1f342382e)" style="fill: none; stroke: #b0b0b0; stroke-width: 0.5; stroke-linecap: square"/>
     </g>
     <g id="text_4">
      <!-- 135° -->
      <g transform="translate(32.147376 46.931475) scale(0.08 -0.08)">
       <defs>
        <path id="NimbusRomNo9L-Regu-31" d="M 1862 4339 
L 710 3757 
L 710 3667 
C 787 3699 858 3725 883 3738 
C 998 3783 1107 3808 1171 3808 
C 1306 3808 1363 3711 1363 3505 
L 1363 592 
C 1363 379 1312 232 1210 173 
C 1114 116 1024 96 755 96 
L 755 0 
L 2522 0 
L 2522 96 
C 2016 96 1914 160 1914 470 
L 1914 4327 
L 1862 4339 
z
" transform="scale(0.015625)"/>
        <path id="NimbusRomNo9L-Regu-33" d="M 979 2138 
C 1357 2138 1504 2125 1658 2068 
C 2054 1927 2304 1562 2304 1120 
C 2304 583 1939 167 1466 167 
C 1293 167 1165 212 928 365 
C 736 480 627 525 518 525 
C 371 525 275 436 275 301 
C 275 77 550 -64 998 -64 
C 1491 -64 1997 103 2298 365 
C 2598 628 2765 999 2765 1428 
C 2765 1754 2662 2055 2477 2253 
C 2349 2394 2227 2471 1946 2592 
C 2387 2893 2547 3130 2547 3476 
C 2547 3994 2138 4352 1549 4352 
C 1229 4352 947 4244 717 4039 
C 525 3866 429 3699 288 3315 
L 384 3290 
C 646 3757 934 3968 1338 3968 
C 1754 3968 2042 3687 2042 3284 
C 2042 3053 1946 2823 1786 2663 
C 1594 2471 1414 2375 979 2221 
L 979 2138 
z
" transform="scale(0.015625)"/>
       </defs>
       <use xlink:href="#NimbusRomNo9L-Regu-31" transform="scale(0.996264)"/>
       <use xlink:href="#NimbusRomNo9L-Regu-33" transform="translate(49.8132 0) scale(0.996264)"/>
       <use xlink:href="#NimbusRomNo9L-Regu-35" transform="translate(99.626401 0) scale(0.996264)"/>
       <use xlink:href="#NimbusRomNo9L-Regu-b0" transform="translate(149.439601 0) scale(0.996264)"/>
      </g>
     </g>
    </g>
    <g id="xtick_5">
     <g id="line2d_5">
      <path d="M 96.146102 101.519499 
L 26.846102 101.519499 
" clip-path="url(#pd1f342382e)" style="fill: none; stroke: #b0b0b0; stroke-width: 0.5; stroke-linecap: square"/>
     </g>
     <g id="text_5">
      <!-- 180° -->
      <g transform="translate(8.774497 103.358596) scale(0.08 -0.08)">
       <defs>
        <path id="NimbusRomNo9L-Regu-38" d="M 1856 2400 
C 2490 2740 2714 3008 2714 3444 
C 2714 3968 2253 4352 1613 4352 
C 915 4352 397 3924 397 3341 
C 397 2925 518 2740 1190 2151 
C 499 1626 358 1428 358 992 
C 358 372 864 -64 1587 -64 
C 2355 -64 2848 359 2848 1018 
C 2848 1511 2630 1824 1856 2400 
z
M 1741 1741 
C 2208 1408 2362 1178 2362 820 
C 2362 404 2074 116 1658 116 
C 1171 116 845 487 845 1044 
C 845 1453 986 1722 1357 2023 
L 1741 1741 
z
M 1670 2516 
C 1101 2887 870 3181 870 3540 
C 870 3911 1158 4173 1562 4173 
C 1997 4173 2272 3892 2272 3450 
C 2272 3085 2093 2797 1728 2554 
C 1696 2535 1696 2535 1670 2516 
z
" transform="scale(0.015625)"/>
       </defs>
       <use xlink:href="#NimbusRomNo9L-Regu-31" transform="scale(0.996264)"/>
       <use xlink:href="#NimbusRomNo9L-Regu-38" transform="translate(49.8132 0) scale(0.996264)"/>
       <use xlink:href="#NimbusRomNo9L-Regu-30" transform="translate(99.626401 0) scale(0.996264)"/>
       <use xlink:href="#NimbusRomNo9L-Regu-b0" transform="translate(149.439601 0) scale(0.996264)"/>
      </g>
     </g>
    </g>
    <g id="xtick_6">
     <g id="line2d_6">
      <path d="M 96.146102 101.519499 
L 47.143603 150.521999 
" clip-path="url(#pd1f342382e)" style="fill: none; stroke: #b0b0b0; stroke-width: 0.5; stroke-linecap: square"/>
     </g>
     <g id="text_6">
      <!-- 225° -->
      <g transform="translate(32.147376 159.785717) scale(0.08 -0.08)">
       <defs>
        <path id="NimbusRomNo9L-Regu-32" d="M 3040 875 
L 2957 907 
C 2720 544 2637 486 2349 486 
L 819 486 
L 1894 1609 
C 2464 2202 2714 2687 2714 3185 
C 2714 3823 2195 4313 1530 4313 
C 1178 4313 845 4173 608 3918 
C 403 3700 307 3496 198 3043 
L 333 3011 
C 589 3636 819 3840 1261 3840 
C 1798 3840 2163 3476 2163 2940 
C 2163 2443 1869 1850 1331 1282 
L 192 77 
L 192 0 
L 2688 0 
L 3040 875 
z
" transform="scale(0.015625)"/>
       </defs>
       <use xlink:href="#NimbusRomNo9L-Regu-32" transform="scale(0.996264)"/>
       <use xlink:href="#NimbusRomNo9L-Regu-32" transform="translate(49.8132 0) scale(0.996264)"/>
       <use xlink:href="#NimbusRomNo9L-Regu-35" transform="translate(99.626401 0) scale(0.996264)"/>
       <use xlink:href="#NimbusRomNo9L-Regu-b0" transform="translate(149.439601 0) scale(0.996264)"/>
      </g>
     </g>
    </g>
    <g id="xtick_7">
     <g id="line2d_7">
      <path d="M 96.146102 101.519499 
L 96.146102 170.819499 
" clip-path="url(#pd1f342382e)" style="fill: none; stroke: #b0b0b0; stroke-width: 0.5; stroke-linecap: square"/>
     </g>
     <g id="text_7">
      <!-- 270° -->
      <g transform="translate(88.574497 183.158596) scale(0.08 -0.08)">
       <defs>
        <path id="NimbusRomNo9L-Regu-37" d="M 2874 4250 
L 506 4250 
L 128 3310 
L 237 3258 
C 512 3693 627 3776 979 3776 
L 2368 3776 
L 1101 -32 
L 1517 -32 
L 2874 4148 
L 2874 4250 
z
" transform="scale(0.015625)"/>
       </defs>
       <use xlink:href="#NimbusRomNo9L-Regu-32" transform="scale(0.996264)"/>
       <use xlink:href="#NimbusRomNo9L-Regu-37" transform="translate(49.8132 0) scale(0.996264)"/>
       <use xlink:href="#NimbusRomNo9L-Regu-30" transform="translate(99.626401 0) scale(0.996264)"/>
       <use xlink:href="#NimbusRomNo9L-Regu-b0" transform="translate(149.439601 0) scale(0.996264)"/>
      </g>
     </g>
    </g>
    <g id="xtick_8">
     <g id="line2d_8">
      <path d="M 96.146102 101.519499 
L 145.148602 150.521999 
" clip-path="url(#pd1f342382e)" style="fill: none; stroke: #b0b0b0; stroke-width: 0.5; stroke-linecap: square"/>
     </g>
     <g id="text_8">
      <!-- 315° -->
      <g transform="translate(145.001619 159.785717) scale(0.08 -0.08)">
       <use xlink:href="#NimbusRomNo9L-Regu-33" transform="scale(0.996264)"/>
       <use xlink:href="#NimbusRomNo9L-Regu-31" transform="translate(49.8132 0) scale(0.996264)"/>
       <use xlink:href="#NimbusRomNo9L-Regu-35" transform="translate(99.626401 0) scale(0.996264)"/>
       <use xlink:href="#NimbusRomNo9L-Regu-b0" transform="translate(149.439601 0) scale(0.996264)"/>
      </g>
     </g>
    </g>
   </g>
   <g id="matplotlib.axis_2">
    <g id="ytick_1">
     <g id="line2d_9">
      <path d="M 109.346102 101.519499 
C 109.346102 99.786091 109.004659 98.069538 108.341312 96.468078 
C 107.677966 94.866618 106.705617 93.411395 105.479912 92.18569 
C 104.254207 90.959985 102.798984 89.987636 101.197524 89.32429 
C 99.596063 88.660943 97.879511 88.319499 96.146102 88.319499 
C 94.412694 88.319499 92.696141 88.660943 91.094681 89.32429 
C 89.493221 89.987636 88.037998 90.959985 86.812293 92.18569 
C 85.586588 93.411395 84.614239 94.866618 83.950893 96.468078 
C 83.287546 98.069538 82.946102 99.786091 82.946102 101.519499 
C 82.946102 103.252908 83.287546 104.96946 83.950893 106.570921 
C 84.614239 108.172381 85.586588 109.627604 86.812293 110.853309 
C 88.037998 112.079014 89.493221 113.051363 91.094681 113.714709 
C 92.696141 114.378056 94.412694 114.719499 96.146102 114.719499 
C 97.879511 114.719499 99.596063 114.378056 101.197524 113.714709 
C 102.798984 113.051363 104.254207 112.079014 105.479912 110.853309 
C 106.705617 109.627604 107.677966 108.172381 108.341312 106.570921 
C 109.004659 104.96946 109.346102 103.252908 109.346102 101.519499 
" clip-path="url(#pd1f342382e)" style="fill: none; stroke: #b0b0b0; stroke-width: 0.5; stroke-linecap: square"/>
     </g>
     <g id="text_9">
      <!-- $\mathdefault{0.2}$ -->
      <g transform="translate(108.341312 104.845458) scale(0.08 -0.08)">
       <defs>
        <path id="CMMI10-3a" d="M 1229 338 
C 1229 522 1075 675 890 675 
C 704 675 550 522 550 338 
C 550 153 704 0 890 0 
C 1075 0 1229 153 1229 338 
z
" transform="scale(0.015625)"/>
       </defs>
       <use xlink:href="#NimbusRomNo9L-Regu-30" transform="scale(0.996264)"/>
       <use xlink:href="#CMMI10-3a" transform="translate(49.8132 0) scale(0.996264)"/>
       <use xlink:href="#NimbusRomNo9L-Regu-32" transform="translate(77.408707 0) scale(0.996264)"/>
      </g>
     </g>
    </g>
    <g id="ytick_2">
     <g id="line2d_10">
      <path d="M 122.546102 101.519499 
C 122.546102 98.052683 121.863215 94.619577 120.536522 91.416657 
C 119.209829 88.213736 117.265131 85.30329 114.813721 82.85188 
C 112.362312 80.400471 109.451866 78.455773 106.248945 77.12908 
C 103.046024 75.802387 99.612919 75.119499 96.146102 75.119499 
C 92.679286 75.119499 89.24618 75.802387 86.04326 77.12908 
C 82.840339 78.455773 79.929893 80.400471 77.478483 82.85188 
C 75.027074 85.30329 73.082376 88.213736 71.755683 91.416657 
C 70.42899 94.619577 69.746102 98.052683 69.746102 101.519499 
C 69.746102 104.986316 70.42899 108.419421 71.755683 111.622342 
C 73.082376 114.825263 75.027074 117.735709 77.478483 120.187118 
C 79.929893 122.638528 82.840339 124.583226 86.04326 125.909919 
C 89.24618 127.236612 92.679286 127.919499 96.146102 127.919499 
C 99.612919 127.919499 103.046024 127.236612 106.248945 125.909919 
C 109.451866 124.583226 112.362312 122.638528 114.813721 120.187118 
C 117.265131 117.735709 119.209829 114.825263 120.536522 111.622342 
C 121.863215 108.419421 122.546102 104.986316 122.546102 101.519499 
" clip-path="url(#pd1f342382e)" style="fill: none; stroke: #b0b0b0; stroke-width: 0.5; stroke-linecap: square"/>
     </g>
     <g id="text_10">
      <!-- $\mathdefault{0.4}$ -->
      <g transform="translate(120.536522 109.896879) scale(0.08 -0.08)">
       <use xlink:href="#NimbusRomNo9L-Regu-30" transform="scale(0.996264)"/>
       <use xlink:href="#CMMI10-3a" transform="translate(49.8132 0) scale(0.996264)"/>
       <use xlink:href="#NimbusRomNo9L-Regu-34" transform="translate(77.408707 0) scale(0.996264)"/>
      </g>
     </g>
    </g>
    <g id="ytick_3">
     <g id="line2d_11">
      <path d="M 135.746102 101.519499 
C 135.746102 96.319275 134.721772 91.169616 132.731732 86.365235 
C 130.741692 81.560855 127.824645 77.195185 124.147531 73.518071 
C 120.470417 69.840957 116.104747 66.92391 111.300366 64.93387 
C 106.495986 62.94383 101.346327 61.919499 96.146102 61.919499 
C 90.945878 61.919499 85.796219 62.94383 80.991839 64.93387 
C 76.187458 66.92391 71.821788 69.840957 68.144674 73.518071 
C 64.46756 77.195185 61.550513 81.560855 59.560473 86.365235 
C 57.570433 91.169616 56.546102 96.319275 56.546102 101.519499 
C 56.546102 106.719724 57.570433 111.869382 59.560473 116.673763 
C 61.550513 121.478144 64.46756 125.843814 68.144674 129.520928 
C 71.821788 133.198042 76.187458 136.115089 80.991839 138.105129 
C 85.796219 140.095169 90.945878 141.119499 96.146102 141.119499 
C 101.346327 141.119499 106.495986 140.095169 111.300366 138.105129 
C 116.104747 136.115089 120.470417 133.198042 124.147531 129.520928 
C 127.824645 125.843814 130.741692 121.478144 132.731732 116.673763 
C 134.721772 111.869382 135.746102 106.719724 135.746102 101.519499 
" clip-path="url(#pd1f342382e)" style="fill: none; stroke: #b0b0b0; stroke-width: 0.5; stroke-linecap: square"/>
     </g>
     <g id="text_11">
      <!-- $\mathdefault{0.6}$ -->
      <g transform="translate(132.731732 114.9483) scale(0.08 -0.08)">
       <defs>
        <path id="NimbusRomNo9L-Regu-36" d="M 2854 4391 
C 2125 4327 1754 4205 1286 3879 
C 595 3386 218 2656 218 1802 
C 218 1248 390 688 666 370 
C 909 89 1254 -64 1651 -64 
C 2445 -64 2995 541 2995 1421 
C 2995 2236 2528 2752 1792 2752 
C 1510 2752 1376 2707 973 2464 
C 1146 3431 1862 4122 2867 4288 
L 2854 4391 
z
M 1549 2458 
C 2099 2458 2419 2000 2419 1204 
C 2419 504 2170 116 1722 116 
C 1158 116 813 714 813 1700 
C 813 2025 864 2203 992 2299 
C 1126 2400 1325 2458 1549 2458 
z
" transform="scale(0.015625)"/>
       </defs>
       <use xlink:href="#NimbusRomNo9L-Regu-30" transform="scale(0.996264)"/>
       <use xlink:href="#CMMI10-3a" transform="translate(49.8132 0) scale(0.996264)"/>
       <use xlink:href="#NimbusRomNo9L-Regu-36" transform="translate(77.408707 0) scale(0.996264)"/>
      </g>
     </g>
    </g>
    <g id="ytick_4">
     <g id="line2d_12">
      <path d="M 148.946102 101.519499 
C 148.946102 94.585867 147.580328 87.719655 144.926942 81.313814 
C 142.273555 74.907973 138.384159 69.08708 133.48134 64.184261 
C 128.578522 59.281443 122.757629 55.392046 116.351788 52.73866 
C 109.945947 50.085274 103.079735 48.719499 96.146102 48.719499 
C 89.21247 48.719499 82.346258 50.085274 75.940417 52.73866 
C 69.534576 55.392046 63.713683 59.281443 58.810864 64.184261 
C 53.908046 69.08708 50.018649 74.907973 47.365263 81.313814 
C 44.711877 87.719655 43.346102 94.585867 43.346102 101.519499 
C 43.346102 108.453132 44.711877 115.319343 47.365263 121.725185 
C 50.018649 128.131026 53.908046 133.951919 58.810864 138.854737 
C 63.713683 143.757556 69.534576 147.646952 75.940417 150.300339 
C 82.346258 152.953725 89.21247 154.319499 96.146102 154.319499 
C 103.079735 154.319499 109.945947 152.953725 116.351788 150.300339 
C 122.757629 147.646952 128.578522 143.757556 133.48134 138.854737 
C 138.384159 133.951919 142.273555 128.131026 144.926942 121.725185 
C 147.580328 115.319343 148.946102 108.453132 148.946102 101.519499 
" clip-path="url(#pd1f342382e)" style="fill: none; stroke: #b0b0b0; stroke-width: 0.5; stroke-linecap: square"/>
     </g>
     <g id="text_12">
      <!-- $\mathdefault{0.8}$ -->
      <g transform="translate(144.926942 119.999722) scale(0.08 -0.08)">
       <use xlink:href="#NimbusRomNo9L-Regu-30" transform="scale(0.996264)"/>
       <use xlink:href="#CMMI10-3a" transform="translate(49.8132 0) scale(0.996264)"/>
       <use xlink:href="#NimbusRomNo9L-Regu-38" transform="translate(77.408707 0) scale(0.996264)"/>
      </g>
     </g>
    </g>
    <g id="ytick_5">
     <g id="line2d_13">
      <path d="M 162.146102 101.519499 
C 162.146102 92.852459 160.438884 84.269694 157.122152 76.262393 
C 153.805419 68.255091 148.943673 60.978975 142.81515 54.850452 
C 136.686627 48.721929 129.41051 43.860183 121.403209 40.54345 
C 113.395908 37.226717 104.813143 35.519499 96.146102 35.519499 
C 87.479062 35.519499 78.896297 37.226717 70.888996 40.54345 
C 62.881695 43.860183 55.605578 48.721929 49.477055 54.850452 
C 43.348532 60.978975 38.486786 68.255091 35.170053 76.262393 
C 31.85332 84.269694 30.146102 92.852459 30.146102 101.519499 
C 30.146102 110.18654 31.85332 118.769305 35.170053 126.776606 
C 38.486786 134.783907 43.348532 142.060024 49.477055 148.188547 
C 55.605578 154.31707 62.881695 159.178816 70.888996 162.495549 
C 78.896297 165.812281 87.479062 167.519499 96.146102 167.519499 
C 104.813143 167.519499 113.395908 165.812281 121.403209 162.495549 
C 129.41051 159.178816 136.686627 154.31707 142.81515 148.188547 
C 148.943673 142.060024 153.805419 134.783907 157.122152 126.776606 
C 160.438884 118.769305 162.146102 110.18654 162.146102 101.519499 
" clip-path="url(#pd1f342382e)" style="fill: none; stroke: #b0b0b0; stroke-width: 0.5; stroke-linecap: square"/>
     </g>
     <g id="text_13">
      <!-- $\mathdefault{1.0}$ -->
      <g transform="translate(157.122152 125.051143) scale(0.08 -0.08)">
       <use xlink:href="#NimbusRomNo9L-Regu-31" transform="scale(0.996264)"/>
       <use xlink:href="#CMMI10-3a" transform="translate(49.8132 0) scale(0.996264)"/>
       <use xlink:href="#NimbusRomNo9L-Regu-30" transform="translate(77.408707 0) scale(0.996264)"/>
      </g>
     </g>
    </g>
   </g>
   <g id="line2d_14">
    <path d="M 96.146102 101.519499 
L 98.448066 101.439113 
L 100.738815 101.198346 
L 103.007188 100.79837 
L 105.242135 100.241135 
L 107.432767 99.529356 
L 109.568412 98.666499 
L 111.638664 97.65677 
L 113.633438 96.505087 
L 115.543016 95.21706 
L 117.358094 93.798966 
L 119.069829 92.257713 
L 120.669882 90.600809 
L 122.150457 88.836328 
L 123.504342 86.972865 
L 124.724941 85.019499 
L 125.806306 82.985747 
L 126.74317 80.881517 
L 127.530967 78.71706 
L 128.165861 76.502922 
L 128.644758 74.249889 
L 128.965325 71.968939 
L 129.126 69.671183 
L 129.126 67.367816 
L 128.965325 65.07006 
L 128.644758 62.78911 
L 128.165861 60.536077 
L 127.530967 58.321939 
L 126.74317 56.157482 
L 125.806306 54.053252 
L 124.724941 52.019499 
L 123.504342 50.066134 
L 122.150457 48.202671 
L 120.669882 46.438189 
L 119.069829 44.781286 
L 117.358094 43.240033 
L 115.543016 41.821939 
L 113.633438 40.533912 
L 111.638664 39.382229 
L 109.568412 38.372499 
L 107.432767 37.509643 
L 105.242135 36.797863 
L 103.007188 36.240629 
L 100.738815 35.840653 
L 98.448066 35.599886 
L 96.146102 35.519499 
L 93.844139 35.599886 
L 91.55339 35.840653 
L 89.285017 36.240629 
L 87.05007 36.797863 
L 84.859438 37.509643 
L 82.723793 38.372499 
L 80.653541 39.382229 
L 78.658767 40.533912 
L 76.749189 41.821939 
L 74.934111 43.240033 
L 73.222376 44.781286 
L 71.622323 46.438189 
L 70.141748 48.202671 
L 68.787863 50.066134 
L 67.567264 52.019499 
L 66.485899 54.053252 
L 65.549035 56.157482 
L 64.761237 58.321939 
L 64.126343 60.536077 
L 63.647447 62.78911 
L 63.32688 65.07006 
L 63.166205 67.367816 
L 63.166205 69.671183 
L 63.32688 71.968939 
L 63.647447 74.249889 
L 64.126343 76.502922 
L 64.761237 78.71706 
L 65.549035 80.881517 
L 66.485899 82.985747 
L 67.567264 85.019499 
L 68.787863 86.972865 
L 70.141748 88.836328 
L 71.622323 90.600809 
L 73.222376 92.257713 
L 74.934111 93.798966 
L 76.749189 95.21706 
L 78.658767 96.505087 
L 80.653541 97.65677 
L 82.723793 98.666499 
L 84.859438 99.529356 
L 87.05007 100.241135 
L 89.285017 100.79837 
L 91.55339 101.198346 
L 93.844139 101.439113 
L 96.146102 101.519499 
L 94.994419 101.539602 
L 92.696663 101.700277 
L 90.415713 102.020844 
L 88.16268 102.49974 
L 85.948542 103.134634 
L 83.784085 103.922432 
L 81.679855 104.859296 
L 79.646102 105.940661 
L 77.692737 107.161259 
L 75.829274 108.515145 
L 74.064792 109.99572 
L 72.407889 111.595773 
L 70.866636 113.307508 
L 69.448542 115.122586 
L 68.160515 117.032164 
L 67.008832 119.026938 
L 65.999102 121.09719 
L 65.136246 123.232835 
L 64.424466 125.423467 
L 63.867232 127.658414 
L 63.467256 129.926787 
L 63.226489 132.217536 
L 63.146102 134.519499 
L 63.226489 136.821463 
L 63.467256 139.112212 
L 63.867232 141.380585 
L 64.424466 143.615532 
L 65.136246 145.806164 
L 65.999102 147.941809 
L 67.008832 150.012061 
L 68.160515 152.006835 
L 69.448542 153.916413 
L 70.866636 155.731491 
L 72.407889 157.443226 
L 74.064792 159.043279 
L 75.829274 160.523854 
L 77.692737 161.877739 
L 79.646102 163.098338 
L 81.679855 164.179703 
L 83.784085 165.116567 
L 85.948542 165.904364 
L 88.16268 166.539258 
L 90.415713 167.018155 
L 92.696663 167.338722 
L 94.994419 167.499397 
L 97.297786 167.499397 
L 99.595542 167.338722 
L 101.876492 167.018155 
L 104.129525 166.539258 
L 106.343663 165.904364 
L 108.50812 165.116567 
L 110.61235 164.179703 
L 112.646102 163.098338 
L 114.599468 161.877739 
L 116.462931 160.523854 
L 118.227412 159.043279 
L 119.884316 157.443226 
L 121.425569 155.731491 
L 122.843663 153.916413 
L 124.13169 152.006835 
L 125.283373 150.012061 
L 126.293103 147.941809 
L 127.155959 145.806164 
L 127.867738 143.615532 
L 128.424973 141.380585 
L 128.824949 139.112212 
L 129.065716 136.821463 
L 129.146102 134.519499 
L 129.065716 132.217536 
L 128.824949 129.926787 
L 128.424973 127.658414 
L 127.867738 125.423467 
L 127.155959 123.232835 
L 126.293103 121.09719 
L 125.283373 119.026938 
L 124.13169 117.032164 
L 122.843663 115.122586 
L 121.425569 113.307508 
L 119.884316 111.595773 
L 118.227412 109.99572 
L 116.462931 108.515145 
L 114.599468 107.161259 
L 112.646102 105.940661 
L 110.61235 104.859296 
L 108.50812 103.922432 
L 106.343663 103.134634 
L 104.129525 102.49974 
L 101.876492 102.020844 
L 99.595542 101.700277 
L 97.297786 101.539602 
L 96.146102 101.519499 
L 96.146102 101.519499 
" clip-path="url(#pd1f342382e)" style="fill: none; stroke: #000000; stroke-linecap: square"/>
   </g>
   <g id="line2d_15">
    <path d="M 96.146102 101.519499 
L 98.448066 101.439113 
L 100.738815 101.198346 
L 103.007188 100.79837 
L 105.242135 100.241135 
L 107.432767 99.529356 
L 109.568412 98.666499 
L 111.638664 97.65677 
L 113.633438 96.505087 
L 115.543016 95.21706 
L 117.358094 93.798966 
L 119.069829 92.257713 
L 120.669882 90.600809 
L 122.150457 88.836328 
L 123.504342 86.972865 
L 124.724941 85.019499 
L 125.806306 82.985747 
L 126.74317 80.881517 
L 127.530967 78.71706 
L 128.165861 76.502922 
L 128.644758 74.249889 
L 128.965325 71.968939 
L 129.126 69.671183 
L 129.126 67.367816 
L 128.965325 65.07006 
L 128.644758 62.78911 
L 128.165861 60.536077 
L 127.530967 58.321939 
L 126.74317 56.157482 
L 125.806306 54.053252 
L 124.724941 52.019499 
L 123.504342 50.066134 
L 122.150457 48.202671 
L 120.669882 46.438189 
L 119.069829 44.781286 
L 117.358094 43.240033 
L 115.543016 41.821939 
L 113.633438 40.533912 
L 111.638664 39.382229 
L 109.568412 38.372499 
L 107.432767 37.509643 
L 105.242135 36.797863 
L 103.007188 36.240629 
L 100.738815 35.840653 
L 98.448066 35.599886 
L 96.146102 35.519499 
L 93.844139 35.599886 
L 91.55339 35.840653 
L 89.285017 36.240629 
L 87.05007 36.797863 
L 84.859438 37.509643 
L 82.723793 38.372499 
L 80.653541 39.382229 
L 78.658767 40.533912 
L 76.749189 41.821939 
L 74.934111 43.240033 
L 73.222376 44.781286 
L 71.622323 46.438189 
L 70.141748 48.202671 
L 68.787863 50.066134 
L 67.567264 52.019499 
L 66.485899 54.053252 
L 65.549035 56.157482 
L 64.761237 58.321939 
L 64.126343 60.536077 
L 63.647447 62.78911 
L 63.32688 65.07006 
L 63.166205 67.367816 
L 63.166205 69.671183 
L 63.32688 71.968939 
L 63.647447 74.249889 
L 64.126343 76.502922 
L 64.761237 78.71706 
L 65.549035 80.881517 
L 66.485899 82.985747 
L 67.567264 85.019499 
L 68.787863 86.972865 
L 70.141748 88.836328 
L 71.622323 90.600809 
L 73.222376 92.257713 
L 74.934111 93.798966 
L 76.749189 95.21706 
L 78.658767 96.505087 
L 80.653541 97.65677 
L 82.723793 98.666499 
L 84.859438 99.529356 
L 87.05007 100.241135 
L 89.285017 100.79837 
L 91.55339 101.198346 
L 93.844139 101.439113 
L 96.146102 101.519499 
L 94.994419 101.539602 
L 92.696663 101.700277 
L 90.415713 102.020844 
L 88.16268 102.49974 
L 85.948542 103.134634 
L 83.784085 103.922432 
L 81.679855 104.859296 
L 79.646102 105.940661 
L 77.692737 107.161259 
L 75.829274 108.515145 
L 74.064792 109.99572 
L 72.407889 111.595773 
L 70.866636 113.307508 
L 69.448542 115.122586 
L 68.160515 117.032164 
L 67.008832 119.026938 
L 65.999102 121.09719 
L 65.136246 123.232835 
L 64.424466 125.423467 
L 63.867232 127.658414 
L 63.467256 129.926787 
L 63.226489 132.217536 
L 63.146102 134.519499 
L 63.226489 136.821463 
L 63.467256 139.112212 
L 63.867232 141.380585 
L 64.424466 143.615532 
L 65.136246 145.806164 
L 65.999102 147.941809 
L 67.008832 150.012061 
L 68.160515 152.006835 
L 69.448542 153.916413 
L 70.866636 155.731491 
L 72.407889 157.443226 
L 74.064792 159.043279 
L 75.829274 160.523854 
L 77.692737 161.877739 
L 79.646102 163.098338 
L 81.679855 164.179703 
L 83.784085 165.116567 
L 85.948542 165.904364 
L 88.16268 166.539258 
L 90.415713 167.018155 
L 92.696663 167.338722 
L 94.994419 167.499397 
L 97.297786 167.499397 
L 99.595542 167.338722 
L 101.876492 167.018155 
L 104.129525 166.539258 
L 106.343663 165.904364 
L 108.50812 165.116567 
L 110.61235 164.179703 
L 112.646102 163.098338 
L 114.599468 161.877739 
L 116.462931 160.523854 
L 118.227412 159.043279 
L 119.884316 157.443226 
L 121.425569 155.731491 
L 122.843663 153.916413 
L 124.13169 152.006835 
L 125.283373 150.012061 
L 126.293103 147.941809 
L 127.155959 145.806164 
L 127.867738 143.615532 
L 128.424973 141.380585 
L 128.824949 139.112212 
L 129.065716 136.821463 
L 129.146102 134.519499 
L 129.065716 132.217536 
L 128.824949 129.926787 
L 128.424973 127.658414 
L 127.867738 125.423467 
L 127.155959 123.232835 
L 126.293103 121.09719 
L 125.283373 119.026938 
L 124.13169 117.032164 
L 122.843663 115.122586 
L 121.425569 113.307508 
L 119.884316 111.595773 
L 118.227412 109.99572 
L 116.462931 108.515145 
L 114.599468 107.161259 
L 112.646102 105.940661 
L 110.61235 104.859296 
L 108.50812 103.922432 
L 106.343663 103.134634 
L 104.129525 102.49974 
L 101.876492 102.020844 
L 99.595542 101.700277 
L 97.297786 101.539602 
L 96.146102 101.519499 
L 96.146102 101.519499 
" clip-path="url(#pd1f342382e)" style="fill: none; stroke-dasharray: 3.7,1.6; stroke-dashoffset: 0; stroke: #ff0000"/>
   </g>
   <g id="line2d_16">
    <path d="M 96.146102 101.519499 
L 98.448066 101.439113 
L 100.738815 101.198346 
L 103.007188 100.79837 
L 105.242135 100.241135 
L 107.432767 99.529356 
L 109.568412 98.666499 
L 111.638664 97.65677 
L 113.633438 96.505087 
L 115.543016 95.21706 
L 117.358094 93.798966 
L 119.069829 92.257713 
L 120.669882 90.600809 
L 122.150457 88.836328 
L 123.504342 86.972865 
L 124.724941 85.019499 
L 125.806306 82.985747 
L 126.74317 80.881517 
L 127.530967 78.71706 
L 128.165861 76.502922 
L 128.644758 74.249889 
L 128.965325 71.968939 
L 129.126 69.671183 
L 129.126 67.367816 
L 128.965325 65.07006 
L 128.644758 62.78911 
L 128.165861 60.536077 
L 127.530967 58.321939 
L 126.74317 56.157482 
L 125.806306 54.053252 
L 124.724941 52.019499 
L 123.504342 50.066134 
L 122.150457 48.202671 
L 120.669882 46.438189 
L 119.069829 44.781286 
L 117.358094 43.240033 
L 115.543016 41.821939 
L 113.633438 40.533912 
L 111.638664 39.382229 
L 109.568412 38.372499 
L 107.432767 37.509643 
L 105.242135 36.797863 
L 103.007188 36.240629 
L 100.738815 35.840653 
L 98.448066 35.599886 
L 96.146102 35.519499 
L 93.844139 35.599886 
L 91.55339 35.840653 
L 89.285017 36.240629 
L 87.05007 36.797863 
L 84.859438 37.509643 
L 82.723793 38.372499 
L 80.653541 39.382229 
L 78.658767 40.533912 
L 76.749189 41.821939 
L 74.934111 43.240033 
L 73.222376 44.781286 
L 71.622323 46.438189 
L 70.141748 48.202671 
L 68.787863 50.066134 
L 67.567264 52.019499 
L 66.485899 54.053252 
L 65.549035 56.157482 
L 64.761237 58.321939 
L 64.126343 60.536077 
L 63.647447 62.78911 
L 63.32688 65.07006 
L 63.166205 67.367816 
L 63.166205 69.671183 
L 63.32688 71.968939 
L 63.647447 74.249889 
L 64.126343 76.502922 
L 64.761237 78.71706 
L 65.549035 80.881517 
L 66.485899 82.985747 
L 67.567264 85.019499 
L 68.787863 86.972865 
L 70.141748 88.836328 
L 71.622323 90.600809 
L 73.222376 92.257713 
L 74.934111 93.798966 
L 76.749189 95.21706 
L 78.658767 96.505087 
L 80.653541 97.65677 
L 82.723793 98.666499 
L 84.859438 99.529356 
L 87.05007 100.241135 
L 89.285017 100.79837 
L 91.55339 101.198346 
L 93.844139 101.439113 
L 96.146102 101.519499 
L 94.994419 101.539602 
L 92.696663 101.700277 
L 90.415713 102.020844 
L 88.16268 102.49974 
L 85.948542 103.134634 
L 83.784085 103.922432 
L 81.679855 104.859296 
L 79.646102 105.940661 
L 77.692737 107.161259 
L 75.829274 108.515145 
L 74.064792 109.99572 
L 72.407889 111.595773 
L 70.866636 113.307508 
L 69.448542 115.122586 
L 68.160515 117.032164 
L 67.008832 119.026938 
L 65.999102 121.09719 
L 65.136246 123.232835 
L 64.424466 125.423467 
L 63.867232 127.658414 
L 63.467256 129.926787 
L 63.226489 132.217536 
L 63.146102 134.519499 
L 63.226489 136.821463 
L 63.467256 139.112212 
L 63.867232 141.380585 
L 64.424466 143.615532 
L 65.136246 145.806164 
L 65.999102 147.941809 
L 67.008832 150.012061 
L 68.160515 152.006835 
L 69.448542 153.916413 
L 70.866636 155.731491 
L 72.407889 157.443226 
L 74.064792 159.043279 
L 75.829274 160.523854 
L 77.692737 161.877739 
L 79.646102 163.098338 
L 81.679855 164.179703 
L 83.784085 165.116567 
L 85.948542 165.904364 
L 88.16268 166.539258 
L 90.415713 167.018155 
L 92.696663 167.338722 
L 94.994419 167.499397 
L 97.297786 167.499397 
L 99.595542 167.338722 
L 101.876492 167.018155 
L 104.129525 166.539258 
L 106.343663 165.904364 
L 108.50812 165.116567 
L 110.61235 164.179703 
L 112.646102 163.098338 
L 114.599468 161.877739 
L 116.462931 160.523854 
L 118.227412 159.043279 
L 119.884316 157.443226 
L 121.425569 155.731491 
L 122.843663 153.916413 
L 124.13169 152.006835 
L 125.283373 150.012061 
L 126.293103 147.941809 
L 127.155959 145.806164 
L 127.867738 143.615532 
L 128.424973 141.380585 
L 128.824949 139.112212 
L 129.065716 136.821463 
L 129.146102 134.519499 
L 129.065716 132.217536 
L 128.824949 129.926787 
L 128.424973 127.658414 
L 127.867738 125.423467 
L 127.155959 123.232835 
L 126.293103 121.09719 
L 125.283373 119.026938 
L 124.13169 117.032164 
L 122.843663 115.122586 
L 121.425569 113.307508 
L 119.884316 111.595773 
L 118.227412 109.99572 
L 116.462931 108.515145 
L 114.599468 107.161259 
L 112.646102 105.940661 
L 110.61235 104.859296 
L 108.50812 103.922432 
L 106.343663 103.134634 
L 104.129525 102.49974 
L 101.876492 102.020844 
L 99.595542 101.700277 
L 97.297786 101.539602 
L 96.146102 101.519499 
L 96.146102 101.519499 
" clip-path="url(#pd1f342382e)" style="fill: none; stroke-dasharray: 1,1.65; stroke-dashoffset: 0; stroke: #0000ff"/>
   </g>
   <g id="patch_3">
    <path d="M 165.446102 101.519499 
C 165.446102 92.419107 163.653524 83.407204 160.170954 74.999538 
C 156.688385 66.591871 151.583552 58.951949 145.148602 52.516999 
C 138.713653 46.08205 131.073731 40.977217 122.666064 37.494648 
C 114.258398 34.012078 105.246495 32.219499 96.146102 32.219499 
C 87.04571 32.219499 78.033807 34.012078 69.626141 37.494648 
C 61.218474 40.977217 53.578552 46.08205 47.143603 52.516999 
C 40.708653 58.951949 35.60382 66.591871 32.121251 74.999538 
C 28.638681 83.407204 26.846102 92.419107 26.846102 101.519499 
C 26.846102 110.619892 28.638681 119.631795 32.121251 128.039461 
C 35.60382 136.447128 40.708653 144.08705 47.143603 150.521999 
C 53.578552 156.956949 61.218474 162.061782 69.626141 165.544351 
C 78.033807 169.02692 87.04571 170.819499 96.146102 170.819499 
C 105.246495 170.819499 114.258398 169.02692 122.666064 165.544351 
C 131.073731 162.061782 138.713653 156.956949 145.148602 150.521999 
C 151.583552 144.08705 156.688385 136.447128 160.170954 128.039461 
C 163.653524 119.631795 165.446102 110.619892 165.446102 101.519499 
" style="fill: none; stroke: #000000; stroke-width: 0.5; stroke-linejoin: miter; stroke-linecap: square"/>
   </g>
   <g id="text_14">
    <!-- Polarization Pattern dielectric_reflection_vertical -->
    <g transform="translate(3.6 10.084396) scale(0.096 -0.096)">
     <defs>
      <path id="NimbusRomNo9L-Regu-50" d="M 1293 1875 
C 1459 1856 1568 1856 1734 1856 
C 2234 1856 2579 1919 2854 2072 
C 3238 2274 3469 2660 3469 3078 
C 3469 3344 3379 3584 3206 3768 
C 2950 4047 2394 4224 1792 4224 
L 102 4224 
L 102 4102 
C 576 4051 640 3987 640 3528 
L 640 766 
C 640 230 589 166 102 122 
L 102 0 
L 1894 0 
L 1894 128 
C 1389 128 1293 218 1293 693 
L 1293 1875 
z
M 1293 3772 
C 1293 3943 1338 3987 1510 3987 
C 2374 3987 2771 3690 2771 3040 
C 2771 2428 2394 2112 1658 2112 
C 1530 2112 1440 2119 1293 2131 
L 1293 3772 
z
" transform="scale(0.015625)"/>
      <path id="NimbusRomNo9L-Regu-6f" d="M 1600 2944 
C 768 2944 186 2330 186 1446 
C 186 582 781 -64 1587 -64 
C 2394 -64 3008 614 3008 1498 
C 3008 2336 2419 2944 1600 2944 
z
M 1517 2765 
C 2054 2765 2432 2150 2432 1274 
C 2432 550 2144 115 1664 115 
C 1414 115 1178 269 1043 525 
C 864 858 762 1306 762 1760 
C 762 2368 1062 2765 1517 2765 
z
" transform="scale(0.015625)"/>
      <path id="NimbusRomNo9L-Regu-6c" d="M 122 4000 
L 160 4000 
C 230 4000 307 4000 358 4000 
C 563 4000 627 3910 627 3610 
L 627 557 
C 627 211 538 128 134 96 
L 134 0 
L 1645 0 
L 1645 109 
C 1242 109 1165 173 1165 528 
L 1165 4371 
L 1139 4384 
C 806 4275 563 4211 122 4103 
L 122 4000 
z
" transform="scale(0.015625)"/>
      <path id="NimbusRomNo9L-Regu-61" d="M 2829 423 
C 2720 333 2643 301 2547 301 
C 2400 301 2355 390 2355 672 
L 2355 1920 
C 2355 2253 2323 2438 2227 2592 
C 2086 2822 1811 2944 1434 2944 
C 832 2944 358 2630 358 2227 
C 358 2080 486 1952 634 1952 
C 787 1952 922 2080 922 2221 
C 922 2246 915 2278 909 2323 
C 896 2381 890 2432 890 2477 
C 890 2650 1094 2790 1350 2790 
C 1664 2790 1837 2605 1837 2259 
L 1837 1869 
C 851 1472 742 1421 467 1178 
C 326 1050 237 832 237 621 
C 237 218 518 -64 909 -64 
C 1190 -64 1453 70 1843 403 
C 1875 70 1990 -64 2253 -64 
C 2470 -64 2605 13 2829 256 
L 2829 423 
z
M 1837 783 
C 1837 584 1805 526 1670 449 
C 1517 359 1338 301 1203 301 
C 979 301 800 520 800 796 
L 800 822 
C 800 1201 1062 1433 1837 1715 
L 1837 783 
z
" transform="scale(0.015625)"/>
      <path id="NimbusRomNo9L-Regu-72" d="M 45 2496 
C 134 2515 192 2522 269 2522 
C 429 2522 486 2419 486 2138 
L 486 538 
C 486 218 442 173 32 96 
L 32 0 
L 1568 0 
L 1568 102 
C 1133 102 1024 199 1024 565 
L 1024 2013 
C 1024 2219 1299 2541 1472 2541 
C 1510 2541 1568 2509 1638 2445 
C 1741 2355 1811 2317 1894 2317 
C 2048 2317 2144 2426 2144 2605 
C 2144 2816 2010 2944 1792 2944 
C 1523 2944 1338 2797 1024 2343 
L 1024 2931 
L 992 2944 
C 653 2803 422 2721 45 2599 
L 45 2496 
z
" transform="scale(0.015625)"/>
      <path id="NimbusRomNo9L-Regu-69" d="M 1120 2929 
L 128 2579 
L 128 2484 
L 179 2490 
C 256 2502 339 2509 397 2509 
C 550 2509 608 2406 608 2125 
L 608 640 
C 608 179 544 109 102 109 
L 102 0 
L 1619 0 
L 1619 96 
C 1197 128 1146 191 1146 650 
L 1146 2910 
L 1120 2929 
z
M 819 4352 
C 646 4352 499 4205 499 4026 
C 499 3847 640 3699 819 3699 
C 1005 3699 1152 3840 1152 4026 
C 1152 4205 1005 4352 819 4352 
z
" transform="scale(0.015625)"/>
      <path id="NimbusRomNo9L-Regu-7a" d="M 2675 864 
L 2560 890 
C 2496 570 2458 467 2374 358 
C 2285 250 2067 192 1741 192 
L 858 192 
L 2579 2784 
L 2579 2880 
L 358 2880 
L 339 2125 
L 454 2125 
C 512 2592 608 2688 992 2688 
L 1875 2688 
L 173 96 
L 173 0 
L 2586 0 
L 2675 864 
z
" transform="scale(0.015625)"/>
      <path id="NimbusRomNo9L-Regu-74" d="M 1632 2880 
L 986 2880 
L 986 3622 
C 986 3686 979 3706 941 3706 
C 896 3648 858 3590 813 3526 
C 570 3174 294 2867 192 2841 
C 122 2794 83 2748 83 2715 
C 83 2695 90 2682 109 2682 
L 448 2682 
L 448 751 
C 448 212 640 -64 1018 -64 
C 1331 -64 1574 90 1786 423 
L 1702 493 
C 1568 333 1459 269 1318 269 
C 1082 269 986 443 986 847 
L 986 2682 
L 1632 2682 
L 1632 2880 
z
" transform="scale(0.015625)"/>
      <path id="NimbusRomNo9L-Regu-6e" d="M 102 2579 
C 141 2598 205 2605 275 2605 
C 454 2605 512 2509 512 2195 
L 512 608 
C 512 243 442 154 115 128 
L 115 32 
L 1472 32 
L 1472 128 
C 1146 154 1050 230 1050 461 
L 1050 2259 
C 1357 2547 1498 2624 1709 2624 
C 2022 2624 2176 2426 2176 2003 
L 2176 666 
C 2176 262 2093 154 1773 128 
L 1773 32 
L 3104 32 
L 3104 128 
C 2790 160 2714 237 2714 550 
L 2714 2016 
C 2714 2618 2432 2976 1958 2976 
C 1664 2976 1466 2867 1030 2458 
L 1030 2963 
L 986 2976 
C 672 2861 454 2790 102 2688 
L 102 2579 
z
" transform="scale(0.015625)"/>
      <path id="NimbusRomNo9L-Regu-65" d="M 2611 1053 
C 2304 564 2029 378 1619 378 
C 1254 378 979 564 794 930 
C 678 1174 634 1386 621 1779 
L 2592 1779 
C 2541 2193 2477 2377 2317 2581 
C 2125 2811 1830 2944 1498 2944 
C 1178 2944 877 2829 634 2611 
C 333 2349 160 1894 160 1370 
C 160 486 621 -64 1357 -64 
C 1965 -64 2445 315 2714 1008 
L 2611 1053 
z
M 634 1984 
C 704 2479 922 2714 1312 2714 
C 1702 2714 1856 2535 1939 1984 
L 634 1984 
z
" transform="scale(0.015625)"/>
      <path id="NimbusRomNo9L-Regu-64" d="M 2202 -64 
L 3142 269 
L 3142 365 
C 3027 365 3014 365 2995 365 
C 2765 365 2714 435 2714 731 
L 2714 4364 
L 2682 4377 
C 2374 4268 2150 4204 1741 4096 
L 1741 3994 
C 1792 4000 1830 4000 1882 4000 
C 2118 4000 2176 3936 2176 3672 
L 2176 2669 
C 1933 2874 1760 2944 1504 2944 
C 768 2944 173 2221 173 1312 
C 173 493 653 -64 1357 -64 
C 1715 -64 1958 64 2176 365 
L 2176 -45 
L 2202 -64 
z
M 2176 653 
C 2176 608 2131 531 2067 461 
C 1952 333 1792 269 1606 269 
C 1075 269 723 781 723 1568 
C 723 2291 1037 2765 1523 2765 
C 1862 2765 2176 2464 2176 2125 
L 2176 653 
z
" transform="scale(0.015625)"/>
      <path id="NimbusRomNo9L-Regu-63" d="M 2547 998 
C 2240 550 2010 397 1645 397 
C 1062 397 653 909 653 1645 
C 653 2304 1005 2758 1523 2758 
C 1754 2758 1837 2688 1901 2451 
L 1939 2310 
C 1990 2131 2106 2016 2240 2016 
C 2406 2016 2547 2138 2547 2285 
C 2547 2643 2099 2944 1562 2944 
C 1248 2944 922 2816 659 2586 
C 339 2304 160 1869 160 1363 
C 160 531 666 -64 1376 -64 
C 1664 -64 1920 38 2150 237 
C 2323 390 2445 563 2637 941 
L 2547 998 
z
" transform="scale(0.015625)"/>
      <path id="NimbusRomNo9L-Regu-3" d="M 205 2675 
L 646 2675 
L 646 637 
C 646 344 608 181 518 122 
C 454 77 390 64 205 64 
L 205 -38 
L 1638 -38 
L 1638 58 
C 1274 97 1184 175 1184 474 
L 1184 2675 
L 2387 2675 
L 2387 507 
C 2387 188 2291 84 1958 58 
L 1958 -38 
L 3334 -38 
L 3334 58 
C 2989 84 2925 148 2925 482 
L 2925 4339 
L 2893 4352 
C 2842 4346 2771 4320 2694 4282 
C 2573 4224 2483 4192 2426 4192 
C 2394 4192 2330 4211 2234 4243 
C 2054 4314 1869 4352 1715 4352 
C 1414 4352 1120 4201 941 3954 
C 749 3683 685 3436 659 2880 
L 205 2880 
L 205 2675 
z
M 2387 2880 
L 1184 2880 
L 1184 3208 
C 1184 3864 1318 4179 1600 4179 
C 1741 4179 1818 4129 1933 3958 
C 2054 3782 2138 3726 2285 3726 
C 2330 3726 2355 3738 2387 3770 
L 2387 2880 
z
" transform="scale(0.015625)"/>
      <path id="NimbusRomNo9L-Regu-76" d="M 3053 2854 
L 2163 2854 
L 2163 2758 
C 2368 2739 2464 2675 2464 2552 
C 2464 2488 2451 2424 2426 2359 
L 1792 695 
L 1139 2340 
C 1101 2431 1082 2520 1082 2578 
C 1082 2694 1152 2739 1376 2758 
L 1376 2854 
L 122 2854 
L 122 2752 
C 365 2752 410 2688 704 2024 
L 1472 175 
C 1485 137 1504 91 1523 40 
C 1562 -76 1600 -128 1638 -128 
C 1677 -128 1722 -44 1818 193 
L 2637 2257 
C 2822 2694 2861 2739 3053 2758 
L 3053 2854 
z
" transform="scale(0.015625)"/>
     </defs>
     <use xlink:href="#NimbusRomNo9L-Regu-50" transform="scale(0.996264)"/>
     <use xlink:href="#NimbusRomNo9L-Regu-6f" transform="translate(55.391677 0) scale(0.996264)"/>
     <use xlink:href="#NimbusRomNo9L-Regu-6c" transform="translate(105.204877 0) scale(0.996264)"/>
     <use xlink:href="#NimbusRomNo9L-Regu-61" transform="translate(132.900047 0) scale(0.996264)"/>
     <use xlink:href="#NimbusRomNo9L-Regu-72" transform="translate(177.133616 0) scale(0.996264)"/>
     <use xlink:href="#NimbusRomNo9L-Regu-69" transform="translate(210.308845 0) scale(0.996264)"/>
     <use xlink:href="#NimbusRomNo9L-Regu-7a" transform="translate(238.004015 0) scale(0.996264)"/>
     <use xlink:href="#NimbusRomNo9L-Regu-61" transform="translate(282.237584 0) scale(0.996264)"/>
     <use xlink:href="#NimbusRomNo9L-Regu-74" transform="translate(326.471152 0) scale(0.996264)"/>
     <use xlink:href="#NimbusRomNo9L-Regu-69" transform="translate(354.166322 0) scale(0.996264)"/>
     <use xlink:href="#NimbusRomNo9L-Regu-6f" transform="translate(381.861492 0) scale(0.996264)"/>
     <use xlink:href="#NimbusRomNo9L-Regu-6e" transform="translate(431.674692 0) scale(0.996264)"/>
     <use xlink:href="#NimbusRomNo9L-Regu-50" transform="translate(506.394493 0) scale(0.996264)"/>
     <use xlink:href="#NimbusRomNo9L-Regu-61" transform="translate(560.292777 0) scale(0.996264)"/>
     <use xlink:href="#NimbusRomNo9L-Regu-74" transform="translate(604.526346 0) scale(0.996264)"/>
     <use xlink:href="#NimbusRomNo9L-Regu-74" transform="translate(632.221516 0) scale(0.996264)"/>
     <use xlink:href="#NimbusRomNo9L-Regu-65" transform="translate(659.916685 0) scale(0.996264)"/>
     <use xlink:href="#NimbusRomNo9L-Regu-72" transform="translate(704.150254 0) scale(0.996264)"/>
     <use xlink:href="#NimbusRomNo9L-Regu-6e" transform="translate(737.325484 0) scale(0.996264)"/>
     <use xlink:href="#NimbusRomNo9L-Regu-64" transform="translate(812.045284 0) scale(0.996264)"/>
     <use xlink:href="#NimbusRomNo9L-Regu-69" transform="translate(861.858485 0) scale(0.996264)"/>
     <use xlink:href="#NimbusRomNo9L-Regu-65" transform="translate(889.553654 0) scale(0.996264)"/>
     <use xlink:href="#NimbusRomNo9L-Regu-6c" transform="translate(933.787223 0) scale(0.996264)"/>
     <use xlink:href="#NimbusRomNo9L-Regu-65" transform="translate(961.482393 0) scale(0.996264)"/>
     <use xlink:href="#NimbusRomNo9L-Regu-63" transform="translate(1005.715961 0) scale(0.996264)"/>
     <use xlink:href="#NimbusRomNo9L-Regu-74" transform="translate(1049.94953 0) scale(0.996264)"/>
     <use xlink:href="#NimbusRomNo9L-Regu-72" transform="translate(1077.6447 0) scale(0.996264)"/>
     <use xlink:href="#NimbusRomNo9L-Regu-69" transform="translate(1110.819929 0) scale(0.996264)"/>
     <use xlink:href="#NimbusRomNo9L-Regu-63" transform="translate(1138.515099 0) scale(0.996264)"/>
     <use xlink:href="#NimbusRomNo9L-Regu-72" transform="translate(1218.614233 0) scale(0.996264)"/>
     <use xlink:href="#NimbusRomNo9L-Regu-65" transform="translate(1251.789463 0) scale(0.996264)"/>
     <use xlink:href="#NimbusRomNo9L-Regu-3" transform="translate(1296.023031 0) scale(0.996264)"/>
     <use xlink:href="#NimbusRomNo9L-Regu-65" transform="translate(1351.414708 0) scale(0.996264)"/>
     <use xlink:href="#NimbusRomNo9L-Regu-63" transform="translate(1395.648277 0) scale(0.996264)"/>
     <use xlink:href="#NimbusRomNo9L-Regu-74" transform="translate(1439.881846 0) scale(0.996264)"/>
     <use xlink:href="#NimbusRomNo9L-Regu-69" transform="translate(1467.577015 0) scale(0.996264)"/>
     <use xlink:href="#NimbusRomNo9L-Regu-6f" transform="translate(1495.272185 0) scale(0.996264)"/>
     <use xlink:href="#NimbusRomNo9L-Regu-6e" transform="translate(1545.085385 0) scale(0.996264)"/>
     <use xlink:href="#NimbusRomNo9L-Regu-76" transform="translate(1630.764151 0) scale(0.996264)"/>
     <use xlink:href="#NimbusRomNo9L-Regu-65" transform="translate(1679.083959 0) scale(0.996264)"/>
     <use xlink:href="#NimbusRomNo9L-Regu-72" transform="translate(1723.317528 0) scale(0.996264)"/>
     <use xlink:href="#NimbusRomNo9L-Regu-74" transform="translate(1756.492757 0) scale(0.996264)"/>
     <use xlink:href="#NimbusRomNo9L-Regu-69" transform="translate(1784.187927 0) scale(0.996264)"/>
     <use xlink:href="#NimbusRomNo9L-Regu-63" transform="translate(1811.883096 0) scale(0.996264)"/>
     <use xlink:href="#NimbusRomNo9L-Regu-61" transform="translate(1856.116665 0) scale(0.996264)"/>
     <use xlink:href="#NimbusRomNo9L-Regu-6c" transform="translate(1900.350234 0) scale(0.996264)"/>
     <path d="M 1188.726009 0 
L 1218.614233 0 
L 1218.614233 0.3985 
L 1188.726009 0.3985 
L 1188.726009 0 
z
"/>
     <path d="M 1600.875927 0 
L 1630.764151 0 
L 1630.764151 0.3985 
L 1600.875927 0.3985 
L 1600.875927 0 
z
"/>
    </g>
   </g>
   <g id="legend_1">
    <g id="text_15">
     <!-- H -->
     <g transform="translate(143.538521 43.023155) scale(0.08 -0.08)">
      <defs>
       <path id="NimbusRomNo9L-Regu-48" d="M 1338 2304 
L 1338 3533 
C 1338 3990 1408 4059 1901 4104 
L 1901 4224 
L 122 4224 
L 122 4104 
C 614 4059 685 3989 685 3527 
L 685 749 
C 685 210 621 134 122 134 
L 122 0 
L 1901 0 
L 1901 121 
C 1421 159 1338 242 1338 699 
L 1338 2022 
L 3277 2022 
L 3277 757 
C 3277 211 3213 134 2714 134 
L 2714 0 
L 4493 0 
L 4493 121 
C 4013 159 3930 242 3930 696 
L 3930 3529 
C 3930 3989 4000 4059 4493 4104 
L 4493 4224 
L 2714 4224 
L 2714 4104 
C 3206 4059 3277 3990 3277 3533 
L 3277 2304 
L 1338 2304 
z
" transform="scale(0.015625)"/>
      </defs>
      <use xlink:href="#NimbusRomNo9L-Regu-48" transform="scale(0.996264)"/>
     </g>
    </g>
    <g id="line2d_17">
     <path d="M 132.78533 49.848618 
L 138.78533 49.848618 
L 144.78533 49.848618 
" style="fill: none; stroke: #000000; stroke-linecap: square"/>
    </g>
    <g id="text_16">
     <!-- 0.24 -->
     <g transform="translate(149.58533 51.948618) scale(0.06 -0.06)">
      <defs>
       <path id="NimbusRomNo9L-Regu-2e" d="M 800 646 
C 608 646 448 480 448 281 
C 448 96 608 -64 794 -64 
C 992 -64 1158 96 1158 281 
C 1158 480 992 646 800 646 
z
" transform="scale(0.015625)"/>
      </defs>
      <use xlink:href="#NimbusRomNo9L-Regu-30" transform="scale(0.996264)"/>
      <use xlink:href="#NimbusRomNo9L-Regu-2e" transform="translate(49.8132 0) scale(0.996264)"/>
      <use xlink:href="#NimbusRomNo9L-Regu-32" transform="translate(74.719801 0) scale(0.996264)"/>
      <use xlink:href="#NimbusRomNo9L-Regu-34" transform="translate(124.533001 0) scale(0.996264)"/>
     </g>
    </g>
    <g id="line2d_18">
     <path d="M 132.78533 58.342716 
L 138.78533 58.342716 
L 144.78533 58.342716 
" style="fill: none; stroke-dasharray: 3.7,1.6; stroke-dashoffset: 0; stroke: #ff0000"/>
    </g>
    <g id="text_17">
     <!-- 0.42 -->
     <g transform="translate(149.58533 60.442716) scale(0.06 -0.06)">
      <use xlink:href="#NimbusRomNo9L-Regu-30" transform="scale(0.996264)"/>
      <use xlink:href="#NimbusRomNo9L-Regu-2e" transform="translate(49.8132 0) scale(0.996264)"/>
      <use xlink:href="#NimbusRomNo9L-Regu-34" transform="translate(74.719801 0) scale(0.996264)"/>
      <use xlink:href="#NimbusRomNo9L-Regu-32" transform="translate(124.533001 0) scale(0.996264)"/>
     </g>
    </g>
    <g id="line2d_19">
     <path d="M 132.78533 66.836813 
L 138.78533 66.836813 
L 144.78533 66.836813 
" style="fill: none; stroke-dasharray: 1,1.65; stroke-dashoffset: 0; stroke: #0000ff"/>
    </g>
    <g id="text_18">
     <!-- 0.59 -->
     <g transform="translate(149.58533 68.936813) scale(0.06 -0.06)">
      <use xlink:href="#NimbusRomNo9L-Regu-30" transform="scale(0.996264)"/>
      <use xlink:href="#NimbusRomNo9L-Regu-2e" transform="translate(49.8132 0) scale(0.996264)"/>
      <use xlink:href="#NimbusRomNo9L-Regu-35" transform="translate(74.719801 0) scale(0.996264)"/>
      <use xlink:href="#NimbusRomNo9L-Regu-39" transform="translate(124.533001 0) scale(0.996264)"/>
     </g>
    </g>
   </g>
  </g>
 </g>
 <defs>
  <clipPath id="pd1f342382e">
   <path d="M 165.446102 101.519499 
C 165.446102 92.419107 163.653524 83.407204 160.170954 74.999538 
C 156.688385 66.591871 151.583552 58.951949 145.148602 52.516999 
C 138.713653 46.08205 131.073731 40.977217 122.666064 37.494648 
C 114.258398 34.012078 105.246495 32.219499 96.146102 32.219499 
C 87.04571 32.219499 78.033807 34.012078 69.626141 37.494648 
C 61.218474 40.977217 53.578552 46.08205 47.143603 52.516999 
C 40.708653 58.951949 35.60382 66.591871 32.121251 74.999538 
C 28.638681 83.407204 26.846102 92.419107 26.846102 101.519499 
C 26.846102 110.619892 28.638681 119.631795 32.121251 128.039461 
C 35.60382 136.447128 40.708653 144.08705 47.143603 150.521999 
C 53.578552 156.956949 61.218474 162.061782 69.626141 165.544351 
C 78.033807 169.02692 87.04571 170.819499 96.146102 170.819499 
C 105.246495 170.819499 114.258398 169.02692 122.666064 165.544351 
C 131.073731 162.061782 138.713653 156.956949 145.148602 150.521999 
C 151.583552 144.08705 156.688385 136.447128 160.170954 128.039461 
C 163.653524 119.631795 165.446102 110.619892 165.446102 101.519499 
M 96.146102 101.519499 
C 96.146102 101.519499 96.146102 101.519499 96.146102 101.519499 
C 96.146102 101.519499 96.146102 101.519499 96.146102 101.519499 
C 96.146102 101.519499 96.146102 101.519499 96.146102 101.519499 
C 96.146102 101.519499 96.146102 101.519499 96.146102 101.519499 
C 96.146102 101.519499 96.146102 101.519499 96.146102 101.519499 
C 96.146102 101.519499 96.146102 101.519499 96.146102 101.519499 
C 96.146102 101.519499 96.146102 101.519499 96.146102 101.519499 
C 96.146102 101.519499 96.146102 101.519499 96.146102 101.519499 
C 96.146102 101.519499 96.146102 101.519499 96.146102 101.519499 
C 96.146102 101.519499 96.146102 101.519499 96.146102 101.519499 
C 96.146102 101.519499 96.146102 101.519499 96.146102 101.519499 
C 96.146102 101.519499 96.146102 101.519499 96.146102 101.519499 
C 96.146102 101.519499 96.146102 101.519499 96.146102 101.519499 
C 96.146102 101.519499 96.146102 101.519499 96.146102 101.519499 
C 96.146102 101.519499 96.146102 101.519499 96.146102 101.519499 
C 96.146102 101.519499 96.146102 101.519499 96.146102 101.519499 
z
"/>
  </clipPath>
 </defs>
</svg>
