<svg xmlns="http://www.w3.org/2000/svg" xmlns:xlink="http://www.w3.org/1999/xlink" width="308.673" height="227.188" viewBox="0 0 231.505 170.391"><defs><style>*{stroke-linejoin:round;stroke-linecap:butt}</style></defs><g id="figure_1"><path id="patch_1" d="M0 170.391h231.505V0H0z" style="fill:none"/><g id="axes_1"><path id="patch_2" d="M28.407 154.684h184.14v-138.6H28.407z" style="fill:none"/><g id="matplotlib.axis_1"><g id="xtick_1"><g id="line2d_1"><defs><path id="m00ba540359" d="M0 0v-3" style="stroke:#000;stroke-width:.5"/></defs><use xlink:href="#m00ba540359" x="74.442" y="154.684" style="stroke:#000;stroke-width:.5"/></g><g id="line2d_2"><defs><path id="mc2fa7f7ef5" d="M0 0v3" style="stroke:#000;stroke-width:.5"/></defs><use xlink:href="#mc2fa7f7ef5" x="74.442" y="16.084" style="stroke:#000;stroke-width:.5"/></g><g id="text_1" transform="matrix(.08 0 0 -.08 34.143 164.162)"><defs><path id="NimbusRomNo9L-ReguItal-76" d="M134 2573c71 6 122 6 192 6 250 0 314-108 404-699C794 1437 870 469 870 97c0-180 13-225 58-225 160 0 755 680 1408 1591 224 320 390 737 390 975 0 205-166 378-358 378-141 0-237-83-237-218 0-102 39-180 154-282 83-77 115-128 115-192 0-296-422-1008-877-1483l-198-205c-45 905-83 1239-167 1713-128 655-128 667-185 667-32 0-77-6-128-25-115-32-467-97-711-135z" transform="scale(.01563)"/><path id="NimbusRomNo9L-Regu-6f" d="M1600 2944c-832 0-1414-614-1414-1498C186 582 781-64 1587-64c807 0 1421 678 1421 1562 0 838-589 1446-1408 1446m-83-179c537 0 915-615 915-1491 0-724-288-1159-768-1159-250 0-486 154-621 410-179 333-281 781-281 1235 0 608 300 1005 755 1005" transform="scale(.01563)"/><path id="NimbusRomNo9L-Regu-62" d="m979 4364-32 13c-269-96-441-147-742-230l-186-51v-102c39 6 64 6 109 6 256 0 314-58 314-327V347c0-200 544-411 1056-411 844 0 1497 704 1497 1619 0 787-486 1389-1126 1389-391 0-762-230-890-544zm0-2303c0 249 301 480 634 480 499 0 819-499 819-1280 0-711-307-1120-832-1120-333 0-621 147-621 307z" transform="scale(.01563)"/><path id="NimbusRomNo9L-Regu-73" d="m2016 2010-26 870h-70l-13-13c-57-45-64-51-89-51-39 0-103 13-173 45-141 54-282 83-448 83-506 0-871-328-871-790 0-358 205-615 749-923l371-211c224-128 333-283 333-481 0-283-205-462-531-462-218 0-416 82-538 221-134 157-192 302-275 662H333V-39h83c45 72 70 87 147 87 58 0 147-13 295-50 179-37 352-62 467-62 493 0 902 372 902 821 0 320-153 532-537 763l-692 410c-179 103-275 264-275 437 0 257 199 436 493 436 365 0 557-220 704-793z" transform="scale(.01563)"/><path id="NimbusRomNo9L-Regu-74" d="M1632 2880H986v742c0 64-7 84-45 84-45-58-83-116-128-180-243-352-519-659-621-685-70-47-109-93-109-126 0-20 7-33 26-33h339V751c0-539 192-815 570-815 313 0 556 154 768 487l-84 70c-134-160-243-224-384-224-236 0-332 174-332 578v1835h646z" transform="scale(.01563)"/><path id="NimbusRomNo9L-Regu-72" d="M45 2496c89 19 147 26 224 26 160 0 217-103 217-384V538c0-320-44-365-454-442V0h1536v102c-435 0-544 97-544 463v1448c0 206 275 528 448 528 38 0 96-32 166-96 103-90 173-128 256-128 154 0 250 109 250 288 0 211-134 339-352 339-269 0-454-147-768-601v588l-32 13c-339-141-570-223-947-345z" transform="scale(.01563)"/><path id="CMR10-3d" d="M4397 2048c96 0 217 0 217 129 0 128-121 128-211 128H570c-90 0-212 0-212-128 0-129 122-129 218-129zm6-1216c90 0 211 0 211 129 0 128-121 128-217 128H576c-96 0-218 0-218-128 0-129 122-129 212-129z" transform="scale(.01563)"/><path id="NimbusRomNo9L-Regu-33" d="M979 2138c378 0 525-13 679-70 396-141 646-506 646-948 0-537-365-953-838-953-173 0-301 45-538 198-192 115-301 160-410 160-147 0-243-89-243-224C275 77 550-64 998-64c493 0 999 167 1300 429 300 263 467 634 467 1063 0 326-103 627-288 825-128 141-250 218-531 339 441 301 601 538 601 884 0 518-409 876-998 876-320 0-602-108-832-313-192-173-288-340-429-724l96-25c262 467 550 678 954 678 416 0 704-281 704-684 0-231-96-461-256-621-192-192-372-288-807-442z" transform="scale(.01563)"/><path id="CMMI10-3a" d="M1229 338c0 184-154 337-339 337-186 0-340-153-340-337C550 153 704 0 890 0c185 0 339 153 339 338" transform="scale(.01563)"/><path id="NimbusRomNo9L-Regu-37" d="M2874 4250H506l-378-940 109-52c275 435 390 518 742 518h1389L1101-32h416l1357 4180z" transform="scale(.01563)"/><path id="NimbusRomNo9L-Regu-39" d="M378-123c716 83 1068 205 1504 519 665 486 1056 1280 1056 2143 0 1054-589 1800-1415 1800-761 0-1331-645-1331-1507 0-779 461-1296 1152-1296 352 0 621 102 960 364C2042 856 1331 172 358 5zm1939 2413c0-128-26-186-96-243-179-153-416-236-647-236-486 0-793 479-793 1239 0 363 102 746 237 913 108 127 268 197 454 197 557 0 845-549 845-1621z" transform="scale(.01563)"/><path id="CMR10-5b" d="M1632-1600v257h-621v5887h621v257H755v-6401z" transform="scale(.01563)"/><path id="NimbusRomNo9L-Regu-63" d="M2547 998c-307-448-537-601-902-601-583 0-992 512-992 1248 0 659 352 1113 870 1113 231 0 314-70 378-307l38-141c51-179 167-294 301-294 166 0 307 122 307 269 0 358-448 659-985 659-314 0-640-128-903-358-320-282-499-717-499-1223C160 531 666-64 1376-64c288 0 544 102 774 301 173 153 295 326 487 704z" transform="scale(.01563)"/><path id="NimbusRomNo9L-Regu-6d" d="M122 2547c83 19 134 26 204 26 167 0 224-103 224-411V539c0-347-89-443-448-443V0h1421v96c-339 0-435 70-435 322v1816c0 12 51 76 96 121 160 147 435 256 659 256 282 0 423-226 423-679V528c0-361-71-432-436-432V0h1434v96c-365 0-461 109-461 507v1618c192 275 403 390 698 390 365 0 480-173 480-704V557c0-365-51-416-423-461V0h1402v96l-166 19c-192 0-276 115-276 365v1322c0 757-249 1142-742 1142-371 0-698-166-1043-537-115 364-333 537-679 537-281 0-460-90-992-493v480l-44 13c-327-122-544-192-896-288z" transform="scale(.01563)"/><path id="CMR10-5d" d="M1018 4801H141v-257h621v-5887H141v-257h877z" transform="scale(.01563)"/><path id="CMMI10-3b" d="M1299 11c0 418-160 664-409 664-212 0-340-159-340-337C550 166 678 0 890 0c76 0 160 25 224 83 19 13 25 19 32 19 6 0 12-6 12-96 0-466-224-843-435-1052-70-69-70-81-70-100 0-44 32-70 64-70 70 0 582 487 582 1227" transform="scale(.01563)"/><path id="NimbusRomNo9L-ReguItal-6e" d="m2944 739-134-167c-186-237-301-340-391-340-51 0-102 51-102 102 0 46 0 46 89 404l365 1322c32 134 58 275 58 365 0 231-173 391-423 391-409 0-812-384-1472-1410l429 1397-19 12c-346-70-480-95-1037-197v-108c327 0 410-38 410-167 0-39-7-77-13-109L90-12h480c300 1014 358 1156 640 1592 384 589 710 911 947 911 96 0 153-71 153-187 0-76-38-288-89-487L1939 758c-83-327-102-417-102-481 0-244 89-346 301-346 288 0 454 135 896 725z" transform="scale(.01563)"/><path id="NimbusRomNo9L-Regu-31" d="M1862 4339 710 3757v-90c77 32 148 58 173 71 115 45 224 70 288 70 135 0 192-97 192-303V592c0-213-51-360-153-419-96-57-186-77-455-77V0h1767v96c-506 0-608 64-608 374v3857z" transform="scale(.01563)"/></defs><use xlink:href="#NimbusRomNo9L-ReguItal-76" transform="scale(.99626)"/><use xlink:href="#NimbusRomNo9L-Regu-6f" transform="translate(44.234 -16.008)scale(.73724)"/><use xlink:href="#NimbusRomNo9L-Regu-62" transform="translate(81.096 -16.008)scale(.73724)"/><use xlink:href="#NimbusRomNo9L-Regu-73" transform="translate(117.958 -16.008)scale(.73724)"/><use xlink:href="#NimbusRomNo9L-Regu-74" transform="translate(146.636 -16.008)scale(.73724)"/><use xlink:href="#NimbusRomNo9L-Regu-72" transform="translate(167.13 -16.008)scale(.73724)"/><use xlink:href="#CMR10-3d" transform="matrix(.99626 0 0 .99626 214.317 0)"/><use xlink:href="#NimbusRomNo9L-Regu-33" transform="matrix(.99626 0 0 .99626 313.865 0)"/><use xlink:href="#CMMI10-3a" transform="matrix(.99626 0 0 .99626 363.678 0)"/><use xlink:href="#NimbusRomNo9L-Regu-37" transform="matrix(.99626 0 0 .99626 391.274 0)"/><use xlink:href="#NimbusRomNo9L-Regu-39" transform="matrix(.99626 0 0 .99626 441.087 0)"/><use xlink:href="#CMR10-5b" transform="matrix(.99626 0 0 .99626 513.04 0)"/><use xlink:href="#NimbusRomNo9L-Regu-63" transform="matrix(.99626 0 0 .99626 540.635 0)"/><use xlink:href="#NimbusRomNo9L-Regu-6d" transform="matrix(.99626 0 0 .99626 584.868 0)"/><use xlink:href="#CMR10-5d" transform="matrix(.99626 0 0 .99626 662.377 0)"/><use xlink:href="#CMMI10-3b" transform="matrix(.99626 0 0 .99626 689.972 0)"/><use xlink:href="#NimbusRomNo9L-ReguItal-6e" transform="matrix(.99626 0 0 .99626 728.637 0)"/><use xlink:href="#CMR10-3d" transform="matrix(.99626 0 0 .99626 800.59 0)"/><use xlink:href="#NimbusRomNo9L-Regu-31" transform="matrix(.99626 0 0 .99626 900.138 0)"/><use xlink:href="#NimbusRomNo9L-Regu-37" transform="matrix(.99626 0 0 .99626 949.95 0)"/></g></g><g id="xtick_2"><use xlink:href="#m00ba540359" id="line2d_3" x="166.512" y="154.684" style="stroke:#000;stroke-width:.5"/><use xlink:href="#mc2fa7f7ef5" id="line2d_4" x="166.512" y="16.084" style="stroke:#000;stroke-width:.5"/><g id="text_2" transform="matrix(.08 0 0 -.08 125.385 164.162)"><defs><path id="NimbusRomNo9L-Regu-70" d="M58 2516c57 6 102 6 160 6 217 0 262-64 262-367V-855c0-334-70-406-448-444v-109h1549v115c-480 0-563 71-563 477V199c224-212 377-276 646-276 755 0 1344 720 1344 1652 0 797-448 1369-1069 1369-358 0-640-160-921-506v493l-39 13c-345-134-569-218-921-326zm960-380c0 193 358 424 652 424 474 0 788-489 788-1236 0-713-314-1196-775-1196-301 0-665 231-665 424z" transform="scale(.01563)"/><path id="NimbusRomNo9L-Regu-68" d="M1005 2222c269 294 461 402 710 402 320 0 480-229 480-676V684c0-434-64-518-435-556V32h1357v96c-346 64-384 115-384 556v1270c0 671-269 1016-787 1016-378 0-647-154-941-538v1958l-32 19c-218-77-378-128-736-230l-173-51v-102c26 6 45 6 77 6 275 0 326-52 326-327V686c0-449-38-507-409-558V32h1382v96c-371 38-435 115-435 556z" transform="scale(.01563)"/><path id="NimbusRomNo9L-Regu-61" d="M2829 423c-109-90-186-122-282-122-147 0-192 89-192 371v1248c0 333-32 518-128 672-141 230-416 352-793 352-602 0-1076-314-1076-717 0-147 128-275 276-275 153 0 288 128 288 269 0 25-7 57-13 102-13 58-19 109-19 154 0 173 204 313 460 313 314 0 487-185 487-531v-390c-986-397-1095-448-1370-691-141-128-230-346-230-557 0-403 281-685 672-685 281 0 544 134 934 467 32-333 147-467 410-467 217 0 352 77 576 320zm-992 360c0-199-32-257-167-334-153-90-332-148-467-148-224 0-403 219-403 495v26c0 379 262 611 1037 893z" transform="scale(.01563)"/><path id="NimbusRomNo9L-Regu-65" d="M2611 1053c-307-489-582-675-992-675-365 0-640 186-825 552-116 244-160 456-173 849h1971c-51 414-115 598-275 802-192 230-487 363-819 363-320 0-621-115-864-333-301-262-474-717-474-1241C160 486 621-64 1357-64c608 0 1088 379 1357 1072zM634 1984c70 495 288 730 678 730s544-179 627-730z" transform="scale(.01563)"/><path id="NimbusRomNo9L-Regu-36" d="M2854 4391c-729-64-1100-186-1568-512C595 3386 218 2656 218 1802c0-554 172-1114 448-1432C909 89 1254-64 1651-64c794 0 1344 605 1344 1485 0 815-467 1331-1203 1331-282 0-416-45-819-288 173 967 889 1658 1894 1824zM1549 2458c550 0 870-458 870-1254 0-700-249-1088-697-1088-564 0-909 598-909 1584 0 325 51 503 179 599 134 101 333 159 557 159" transform="scale(.01563)"/><path id="NimbusRomNo9L-Regu-38" d="M1856 2400c634 340 858 608 858 1044 0 524-461 908-1101 908-698 0-1216-428-1216-1011 0-416 121-601 793-1190-691-525-832-723-832-1159C358 372 864-64 1587-64c768 0 1261 423 1261 1082 0 493-218 806-992 1382m-115-659c467-333 621-563 621-921 0-416-288-704-704-704-487 0-813 371-813 928 0 409 141 678 512 979zm-71 775c-569 371-800 665-800 1024 0 371 288 633 692 633 435 0 710-281 710-723 0-365-179-653-544-896-32-19-32-19-58-38" transform="scale(.01563)"/></defs><use xlink:href="#NimbusRomNo9L-ReguItal-76" transform="scale(.99626)"/><use xlink:href="#NimbusRomNo9L-Regu-70" transform="translate(44.234 -16.008)scale(.73724)"/><use xlink:href="#NimbusRomNo9L-Regu-68" transform="translate(81.096 -16.008)scale(.73724)"/><use xlink:href="#NimbusRomNo9L-Regu-61" transform="translate(117.958 -16.008)scale(.73724)"/><use xlink:href="#NimbusRomNo9L-Regu-73" transform="translate(150.69 -16.008)scale(.73724)"/><use xlink:href="#NimbusRomNo9L-Regu-65" transform="translate(179.369 -16.008)scale(.73724)"/><use xlink:href="#CMR10-3d" transform="matrix(.99626 0 0 .99626 234.74 0)"/><use xlink:href="#NimbusRomNo9L-Regu-33" transform="matrix(.99626 0 0 .99626 334.287 0)"/><use xlink:href="#CMMI10-3a" transform="matrix(.99626 0 0 .99626 384.1 0)"/><use xlink:href="#NimbusRomNo9L-Regu-36" transform="matrix(.99626 0 0 .99626 411.696 0)"/><use xlink:href="#NimbusRomNo9L-Regu-37" transform="matrix(.99626 0 0 .99626 461.509 0)"/><use xlink:href="#CMR10-5b" transform="matrix(.99626 0 0 .99626 533.461 0)"/><use xlink:href="#NimbusRomNo9L-Regu-63" transform="matrix(.99626 0 0 .99626 561.057 0)"/><use xlink:href="#NimbusRomNo9L-Regu-6d" transform="matrix(.99626 0 0 .99626 605.29 0)"/><use xlink:href="#CMR10-5d" transform="matrix(.99626 0 0 .99626 682.799 0)"/><use xlink:href="#CMMI10-3b" transform="matrix(.99626 0 0 .99626 710.394 0)"/><use xlink:href="#NimbusRomNo9L-ReguItal-6e" transform="matrix(.99626 0 0 .99626 749.06 0)"/><use xlink:href="#CMR10-3d" transform="matrix(.99626 0 0 .99626 821.012 0)"/><use xlink:href="#NimbusRomNo9L-Regu-31" transform="matrix(.99626 0 0 .99626 920.56 0)"/><use xlink:href="#NimbusRomNo9L-Regu-38" transform="matrix(.99626 0 0 .99626 970.373 0)"/></g></g><g id="xtick_3"><g id="line2d_5"><defs><path id="mc6a100f296" d="M0 0v-1.5" style="stroke:#000;stroke-width:.5"/></defs><use xlink:href="#mc6a100f296" x="37.614" y="154.684" style="stroke:#000;stroke-width:.5"/></g><g id="line2d_6"><defs><path id="m331b9e2feb" d="M0 0v1.5" style="stroke:#000;stroke-width:.5"/></defs><use xlink:href="#m331b9e2feb" x="37.614" y="16.084" style="stroke:#000;stroke-width:.5"/></g></g><g id="xtick_4"><use xlink:href="#mc6a100f296" id="line2d_7" x="56.028" y="154.684" style="stroke:#000;stroke-width:.5"/><use xlink:href="#m331b9e2feb" id="line2d_8" x="56.028" y="16.084" style="stroke:#000;stroke-width:.5"/></g><g id="xtick_5"><use xlink:href="#mc6a100f296" id="line2d_9" x="92.856" y="154.684" style="stroke:#000;stroke-width:.5"/><use xlink:href="#m331b9e2feb" id="line2d_10" x="92.856" y="16.084" style="stroke:#000;stroke-width:.5"/></g><g id="xtick_6"><use xlink:href="#mc6a100f296" id="line2d_11" x="111.27" y="154.684" style="stroke:#000;stroke-width:.5"/><use xlink:href="#m331b9e2feb" id="line2d_12" x="111.27" y="16.084" style="stroke:#000;stroke-width:.5"/></g><g id="xtick_7"><use xlink:href="#mc6a100f296" id="line2d_13" x="129.684" y="154.684" style="stroke:#000;stroke-width:.5"/><use xlink:href="#m331b9e2feb" id="line2d_14" x="129.684" y="16.084" style="stroke:#000;stroke-width:.5"/></g><g id="xtick_8"><use xlink:href="#mc6a100f296" id="line2d_15" x="148.098" y="154.684" style="stroke:#000;stroke-width:.5"/><use xlink:href="#m331b9e2feb" id="line2d_16" x="148.098" y="16.084" style="stroke:#000;stroke-width:.5"/></g><g id="xtick_9"><use xlink:href="#mc6a100f296" id="line2d_17" x="184.926" y="154.684" style="stroke:#000;stroke-width:.5"/><use xlink:href="#m331b9e2feb" id="line2d_18" x="184.926" y="16.084" style="stroke:#000;stroke-width:.5"/></g><g id="xtick_10"><use xlink:href="#mc6a100f296" id="line2d_19" x="203.34" y="154.684" style="stroke:#000;stroke-width:.5"/><use xlink:href="#m331b9e2feb" id="line2d_20" x="203.34" y="16.084" style="stroke:#000;stroke-width:.5"/></g></g><g id="matplotlib.axis_2"><g id="ytick_1"><g id="line2d_21"><defs><path id="m546b20189f" d="M0 0h3" style="stroke:#000;stroke-width:.5"/></defs><use xlink:href="#m546b20189f" x="28.407" y="148.384" style="stroke:#000;stroke-width:.5"/></g><g id="line2d_22"><defs><path id="m896598f2d4" d="M0 0h-3" style="stroke:#000;stroke-width:.5"/></defs><use xlink:href="#m896598f2d4" x="212.547" y="148.384" style="stroke:#000;stroke-width:.5"/></g><g id="text_3" transform="matrix(.08 0 0 -.08 14.73 151.086)"><defs><path id="NimbusRomNo9L-Regu-32" d="m3040 875-83 32c-237-363-320-421-608-421H819l1075 1123c570 593 820 1078 820 1576 0 638-519 1128-1184 1128-352 0-685-140-922-395-205-218-301-422-410-875l135-32c256 625 486 829 928 829 537 0 902-364 902-900 0-497-294-1090-832-1658L192 77V0h2496z" transform="scale(.01563)"/><path id="NimbusRomNo9L-Regu-30" d="M1626 4352c-352 0-621-108-858-332-371-359-614-1095-614-1844 0-697 211-1446 512-1804C902 90 1229-64 1600-64c326 0 602 109 832 333 371 352 614 1095 614 1869 0 1312-582 2214-1420 2214m-20-166c538 0 826-723 826-2061 0-1337-282-2022-832-2022S768 788 768 2119c0 1357 288 2067 838 2067" transform="scale(.01563)"/></defs><use xlink:href="#NimbusRomNo9L-Regu-32" transform="scale(.99626)"/><use xlink:href="#CMMI10-3a" transform="matrix(.99626 0 0 .99626 49.813 0)"/><use xlink:href="#NimbusRomNo9L-Regu-30" transform="matrix(.99626 0 0 .99626 77.409 0)"/></g></g><g id="ytick_2"><use xlink:href="#m546b20189f" id="line2d_23" x="28.407" y="128.697" style="stroke:#000;stroke-width:.5"/><use xlink:href="#m896598f2d4" id="line2d_24" x="212.547" y="128.697" style="stroke:#000;stroke-width:.5"/><g id="text_4" transform="matrix(.08 0 0 -.08 14.73 131.399)"><defs><path id="NimbusRomNo9L-Regu-35" d="M1158 3776h1255c102 0 128 13 147 58l243 569-57 45c-96-134-160-166-295-166H1114L416 2759c-6-13-6-19-6-32 0-32 25-51 76-51 205 0 461-45 724-129 736-238 1075-637 1075-1273 0-618-391-1101-890-1101-128 0-237 45-429 187-204 148-352 212-486 212-186 0-275-77-275-238C205 90 506-64 986-64c537 0 998 174 1318 502 294 290 429 656 429 1145 0 463-122 759-442 1080-281 284-646 431-1401 566z" transform="scale(.01563)"/></defs><use xlink:href="#NimbusRomNo9L-Regu-32" transform="scale(.99626)"/><use xlink:href="#CMMI10-3a" transform="matrix(.99626 0 0 .99626 49.813 0)"/><use xlink:href="#NimbusRomNo9L-Regu-35" transform="matrix(.99626 0 0 .99626 77.409 0)"/></g></g><g id="ytick_3"><use xlink:href="#m546b20189f" id="line2d_25" x="28.407" y="109.009" style="stroke:#000;stroke-width:.5"/><use xlink:href="#m896598f2d4" id="line2d_26" x="212.547" y="109.009" style="stroke:#000;stroke-width:.5"/><g id="text_5" transform="matrix(.08 0 0 -.08 14.73 111.711)"><use xlink:href="#NimbusRomNo9L-Regu-33" transform="scale(.99626)"/><use xlink:href="#CMMI10-3a" transform="matrix(.99626 0 0 .99626 49.813 0)"/><use xlink:href="#NimbusRomNo9L-Regu-30" transform="matrix(.99626 0 0 .99626 77.409 0)"/></g></g><g id="ytick_4"><use xlink:href="#m546b20189f" id="line2d_27" x="28.407" y="89.322" style="stroke:#000;stroke-width:.5"/><use xlink:href="#m896598f2d4" id="line2d_28" x="212.547" y="89.322" style="stroke:#000;stroke-width:.5"/><g id="text_6" transform="matrix(.08 0 0 -.08 14.73 92.024)"><use xlink:href="#NimbusRomNo9L-Regu-33" transform="scale(.99626)"/><use xlink:href="#CMMI10-3a" transform="matrix(.99626 0 0 .99626 49.813 0)"/><use xlink:href="#NimbusRomNo9L-Regu-35" transform="matrix(.99626 0 0 .99626 77.409 0)"/></g></g><g id="ytick_5"><use xlink:href="#m546b20189f" id="line2d_29" x="28.407" y="69.634" style="stroke:#000;stroke-width:.5"/><use xlink:href="#m896598f2d4" id="line2d_30" x="212.547" y="69.634" style="stroke:#000;stroke-width:.5"/><g id="text_7" transform="matrix(.08 0 0 -.08 14.73 72.336)"><defs><path id="NimbusRomNo9L-Regu-34" d="M3021 1497h-653v2855h-282L77 1497v-409h1798V32h493v1056h653zm-1152 0H333l1536 2201z" transform="scale(.01563)"/></defs><use xlink:href="#NimbusRomNo9L-Regu-34" transform="scale(.99626)"/><use xlink:href="#CMMI10-3a" transform="matrix(.99626 0 0 .99626 49.813 0)"/><use xlink:href="#NimbusRomNo9L-Regu-30" transform="matrix(.99626 0 0 .99626 77.409 0)"/></g></g><g id="ytick_6"><use xlink:href="#m546b20189f" id="line2d_31" x="28.407" y="49.947" style="stroke:#000;stroke-width:.5"/><use xlink:href="#m896598f2d4" id="line2d_32" x="212.547" y="49.947" style="stroke:#000;stroke-width:.5"/><g id="text_8" transform="matrix(.08 0 0 -.08 14.73 52.649)"><use xlink:href="#NimbusRomNo9L-Regu-34" transform="scale(.99626)"/><use xlink:href="#CMMI10-3a" transform="matrix(.99626 0 0 .99626 49.813 0)"/><use xlink:href="#NimbusRomNo9L-Regu-35" transform="matrix(.99626 0 0 .99626 77.409 0)"/></g></g><g id="ytick_7"><use xlink:href="#m546b20189f" id="line2d_33" x="28.407" y="30.259" style="stroke:#000;stroke-width:.5"/><use xlink:href="#m896598f2d4" id="line2d_34" x="212.547" y="30.259" style="stroke:#000;stroke-width:.5"/><g id="text_9" transform="matrix(.08 0 0 -.08 14.73 32.961)"><use xlink:href="#NimbusRomNo9L-Regu-35" transform="scale(.99626)"/><use xlink:href="#CMMI10-3a" transform="matrix(.99626 0 0 .99626 49.813 0)"/><use xlink:href="#NimbusRomNo9L-Regu-30" transform="matrix(.99626 0 0 .99626 77.409 0)"/></g></g><g id="ytick_8"><g id="line2d_35"><defs><path id="m681aa1da13" d="M0 0h1.5" style="stroke:#000;stroke-width:.5"/></defs><use xlink:href="#m681aa1da13" x="28.407" y="152.322" style="stroke:#000;stroke-width:.5"/></g><g id="line2d_36"><defs><path id="m6b8c6617bf" d="M0 0h-1.5" style="stroke:#000;stroke-width:.5"/></defs><use xlink:href="#m6b8c6617bf" x="212.547" y="152.322" style="stroke:#000;stroke-width:.5"/></g></g><g id="ytick_9"><use xlink:href="#m681aa1da13" id="line2d_37" x="28.407" y="144.447" style="stroke:#000;stroke-width:.5"/><use xlink:href="#m6b8c6617bf" id="line2d_38" x="212.547" y="144.447" style="stroke:#000;stroke-width:.5"/></g><g id="ytick_10"><use xlink:href="#m681aa1da13" id="line2d_39" x="28.407" y="140.509" style="stroke:#000;stroke-width:.5"/><use xlink:href="#m6b8c6617bf" id="line2d_40" x="212.547" y="140.509" style="stroke:#000;stroke-width:.5"/></g><g id="ytick_11"><use xlink:href="#m681aa1da13" id="line2d_41" x="28.407" y="136.572" style="stroke:#000;stroke-width:.5"/><use xlink:href="#m6b8c6617bf" id="line2d_42" x="212.547" y="136.572" style="stroke:#000;stroke-width:.5"/></g><g id="ytick_12"><use xlink:href="#m681aa1da13" id="line2d_43" x="28.407" y="132.634" style="stroke:#000;stroke-width:.5"/><use xlink:href="#m6b8c6617bf" id="line2d_44" x="212.547" y="132.634" style="stroke:#000;stroke-width:.5"/></g><g id="ytick_13"><use xlink:href="#m681aa1da13" id="line2d_45" x="28.407" y="124.759" style="stroke:#000;stroke-width:.5"/><use xlink:href="#m6b8c6617bf" id="line2d_46" x="212.547" y="124.759" style="stroke:#000;stroke-width:.5"/></g><g id="ytick_14"><use xlink:href="#m681aa1da13" id="line2d_47" x="28.407" y="120.822" style="stroke:#000;stroke-width:.5"/><use xlink:href="#m6b8c6617bf" id="line2d_48" x="212.547" y="120.822" style="stroke:#000;stroke-width:.5"/></g><g id="ytick_15"><use xlink:href="#m681aa1da13" id="line2d_49" x="28.407" y="116.884" style="stroke:#000;stroke-width:.5"/><use xlink:href="#m6b8c6617bf" id="line2d_50" x="212.547" y="116.884" style="stroke:#000;stroke-width:.5"/></g><g id="ytick_16"><use xlink:href="#m681aa1da13" id="line2d_51" x="28.407" y="112.947" style="stroke:#000;stroke-width:.5"/><use xlink:href="#m6b8c6617bf" id="line2d_52" x="212.547" y="112.947" style="stroke:#000;stroke-width:.5"/></g><g id="ytick_17"><use xlink:href="#m681aa1da13" id="line2d_53" x="28.407" y="105.072" style="stroke:#000;stroke-width:.5"/><use xlink:href="#m6b8c6617bf" id="line2d_54" x="212.547" y="105.072" style="stroke:#000;stroke-width:.5"/></g><g id="ytick_18"><use xlink:href="#m681aa1da13" id="line2d_55" x="28.407" y="101.134" style="stroke:#000;stroke-width:.5"/><use xlink:href="#m6b8c6617bf" id="line2d_56" x="212.547" y="101.134" style="stroke:#000;stroke-width:.5"/></g><g id="ytick_19"><use xlink:href="#m681aa1da13" id="line2d_57" x="28.407" y="97.197" style="stroke:#000;stroke-width:.5"/><use xlink:href="#m6b8c6617bf" id="line2d_58" x="212.547" y="97.197" style="stroke:#000;stroke-width:.5"/></g><g id="ytick_20"><use xlink:href="#m681aa1da13" id="line2d_59" x="28.407" y="93.259" style="stroke:#000;stroke-width:.5"/><use xlink:href="#m6b8c6617bf" id="line2d_60" x="212.547" y="93.259" style="stroke:#000;stroke-width:.5"/></g><g id="ytick_21"><use xlink:href="#m681aa1da13" id="line2d_61" x="28.407" y="85.384" style="stroke:#000;stroke-width:.5"/><use xlink:href="#m6b8c6617bf" id="line2d_62" x="212.547" y="85.384" style="stroke:#000;stroke-width:.5"/></g><g id="ytick_22"><use xlink:href="#m681aa1da13" id="line2d_63" x="28.407" y="81.447" style="stroke:#000;stroke-width:.5"/><use xlink:href="#m6b8c6617bf" id="line2d_64" x="212.547" y="81.447" style="stroke:#000;stroke-width:.5"/></g><g id="ytick_23"><use xlink:href="#m681aa1da13" id="line2d_65" x="28.407" y="77.509" style="stroke:#000;stroke-width:.5"/><use xlink:href="#m6b8c6617bf" id="line2d_66" x="212.547" y="77.509" style="stroke:#000;stroke-width:.5"/></g><g id="ytick_24"><use xlink:href="#m681aa1da13" id="line2d_67" x="28.407" y="73.572" style="stroke:#000;stroke-width:.5"/><use xlink:href="#m6b8c6617bf" id="line2d_68" x="212.547" y="73.572" style="stroke:#000;stroke-width:.5"/></g><g id="ytick_25"><use xlink:href="#m681aa1da13" id="line2d_69" x="28.407" y="65.697" style="stroke:#000;stroke-width:.5"/><use xlink:href="#m6b8c6617bf" id="line2d_70" x="212.547" y="65.697" style="stroke:#000;stroke-width:.5"/></g><g id="ytick_26"><use xlink:href="#m681aa1da13" id="line2d_71" x="28.407" y="61.759" style="stroke:#000;stroke-width:.5"/><use xlink:href="#m6b8c6617bf" id="line2d_72" x="212.547" y="61.759" style="stroke:#000;stroke-width:.5"/></g><g id="ytick_27"><use xlink:href="#m681aa1da13" id="line2d_73" x="28.407" y="57.822" style="stroke:#000;stroke-width:.5"/><use xlink:href="#m6b8c6617bf" id="line2d_74" x="212.547" y="57.822" style="stroke:#000;stroke-width:.5"/></g><g id="ytick_28"><use xlink:href="#m681aa1da13" id="line2d_75" x="28.407" y="53.884" style="stroke:#000;stroke-width:.5"/><use xlink:href="#m6b8c6617bf" id="line2d_76" x="212.547" y="53.884" style="stroke:#000;stroke-width:.5"/></g><g id="ytick_29"><use xlink:href="#m681aa1da13" id="line2d_77" x="28.407" y="46.009" style="stroke:#000;stroke-width:.5"/><use xlink:href="#m6b8c6617bf" id="line2d_78" x="212.547" y="46.009" style="stroke:#000;stroke-width:.5"/></g><g id="ytick_30"><use xlink:href="#m681aa1da13" id="line2d_79" x="28.407" y="42.072" style="stroke:#000;stroke-width:.5"/><use xlink:href="#m6b8c6617bf" id="line2d_80" x="212.547" y="42.072" style="stroke:#000;stroke-width:.5"/></g><g id="ytick_31"><use xlink:href="#m681aa1da13" id="line2d_81" x="28.407" y="38.134" style="stroke:#000;stroke-width:.5"/><use xlink:href="#m6b8c6617bf" id="line2d_82" x="212.547" y="38.134" style="stroke:#000;stroke-width:.5"/></g><g id="ytick_32"><use xlink:href="#m681aa1da13" id="line2d_83" x="28.407" y="34.197" style="stroke:#000;stroke-width:.5"/><use xlink:href="#m6b8c6617bf" id="line2d_84" x="212.547" y="34.197" style="stroke:#000;stroke-width:.5"/></g><g id="ytick_33"><use xlink:href="#m681aa1da13" id="line2d_85" x="28.407" y="26.322" style="stroke:#000;stroke-width:.5"/><use xlink:href="#m6b8c6617bf" id="line2d_86" x="212.547" y="26.322" style="stroke:#000;stroke-width:.5"/></g><g id="ytick_34"><use xlink:href="#m681aa1da13" id="line2d_87" x="28.407" y="22.384" style="stroke:#000;stroke-width:.5"/><use xlink:href="#m6b8c6617bf" id="line2d_88" x="212.547" y="22.384" style="stroke:#000;stroke-width:.5"/></g><g id="ytick_35"><use xlink:href="#m681aa1da13" id="line2d_89" x="28.407" y="18.447" style="stroke:#000;stroke-width:.5"/><use xlink:href="#m6b8c6617bf" id="line2d_90" x="212.547" y="18.447" style="stroke:#000;stroke-width:.5"/></g><g id="text_10" transform="matrix(0 -.08 -.08 0 9.004 105.194)"><defs><path id="NimbusRomNo9L-Regu-4c" d="M3667 1114c-109-244-198-391-294-500-224-249-576-364-1107-364h-429c-467 0-551 38-551 263v3037c0 457 90 546 596 546v141H77v-122c473-38 557-129 557-579V681c0-451-90-547-557-547V0h3443l307 1114z" transform="scale(.01563)"/><path id="NimbusRomNo9L-Regu-6e" d="M102 2579c39 19 103 26 173 26 179 0 237-96 237-410V608c0-365-70-454-397-480V32h1357v96c-326 26-422 102-422 333v1798c307 288 448 365 659 365 313 0 467-198 467-621V666c0-404-83-512-403-538V32h1331v96c-314 32-390 109-390 422v1466c0 602-282 960-756 960-294 0-492-109-928-518v505l-44 13c-314-115-532-186-884-288z" transform="scale(.01563)"/><path id="NimbusRomNo9L-Regu-67" d="M3008 2496v250h-493c-128 0-224 17-352 56l-141 45c-172 56-345 84-512 84-595 0-1068-464-1068-1050 0-405 172-651 595-863-122-112-237-219-275-250-212-180-295-305-295-430 0-132 77-207 339-332-454-335-627-549-627-787 0-343 499-627 1107-627 480 0 980 170 1312 446 244 203 352 414 352 663 0 407-300 683-774 683h-826c-339 0-499 59-499 164 0 130 211 360 384 412 58-7 103-13 122-13 121-13 205-19 243-19 237 0 493 98 691 275 211 184 307 414 307 742 0 190-32 341-121 551zM941-13c211-45 723-83 1037-83 582 0 793-84 793-318 0-377-486-629-1209-629-564 0-935 188-935 473 0 150 45 234 314 557m32 2158c0 381 179 607 473 607 199 0 365-110 468-303 115-226 192-522 192-774 0-361-186-587-480-587-384 0-653 419-653 1038z" transform="scale(.01563)"/><path id="NimbusRomNo9L-Regu-5b" d="M1914-864h-551c-211 0-313 108-313 333v4312c0 200 83 283 288 283h576v160H563v-5248h1351z" transform="scale(.01563)"/><path id="NimbusRomNo9L-Regu-5d" d="M218-864v-160h1350v5248H218v-160h550c211 0 314-109 314-334V-582c0-199-90-282-288-282z" transform="scale(.01563)"/></defs><use xlink:href="#NimbusRomNo9L-Regu-4c" transform="scale(.99626)"/><use xlink:href="#NimbusRomNo9L-Regu-65" transform="matrix(.99626 0 0 .99626 60.872 0)"/><use xlink:href="#NimbusRomNo9L-Regu-6e" transform="matrix(.99626 0 0 .99626 105.105 0)"/><use xlink:href="#NimbusRomNo9L-Regu-67" transform="matrix(.99626 0 0 .99626 154.918 0)"/><use xlink:href="#NimbusRomNo9L-Regu-68" transform="matrix(.99626 0 0 .99626 204.732 0)"/><use xlink:href="#NimbusRomNo9L-Regu-74" transform="matrix(.99626 0 0 .99626 254.545 0)"/><use xlink:href="#NimbusRomNo9L-Regu-5b" transform="matrix(.99626 0 0 .99626 307.147 0)"/><use xlink:href="#NimbusRomNo9L-Regu-63" transform="matrix(.99626 0 0 .99626 340.322 0)"/><use xlink:href="#NimbusRomNo9L-Regu-6d" transform="matrix(.99626 0 0 .99626 384.555 0)"/><use xlink:href="#NimbusRomNo9L-Regu-5d" transform="matrix(.99626 0 0 .99626 462.064 0)"/></g></g><path id="line2d_91" d="M67.537 85.384h13.81v-15.75h-13.81v15.75" clip-path="url(#pe71ca87436)" style="fill:none;stroke:#000;stroke-linecap:square"/><path id="line2d_92" d="M74.442 85.384v15.75" clip-path="url(#pe71ca87436)" style="fill:none;stroke:#000;stroke-linecap:square"/><path id="line2d_93" d="M74.442 69.634v-15.75" clip-path="url(#pe71ca87436)" style="fill:none;stroke:#000;stroke-linecap:square"/><path id="line2d_94" d="M70.99 101.134h6.904" clip-path="url(#pe71ca87436)" style="fill:none;stroke:#000;stroke-linecap:square"/><path id="line2d_95" d="M70.99 53.884h6.904" clip-path="url(#pe71ca87436)" style="fill:none;stroke:#000;stroke-linecap:square"/><g id="line2d_96"><defs><path id="m8da26ec437" d="M0 3a3 3 0 1 0 0-6 3 3 0 0 0 0 6z" style="stroke:#000"/></defs><g clip-path="url(#pe71ca87436)"><use xlink:href="#m8da26ec437" x="74.442" y="148.384" style="fill-opacity:0;stroke:#000"/><use xlink:href="#m8da26ec437" x="74.442" y="22.384" style="fill-opacity:0;stroke:#000"/></g></g><path id="line2d_97" d="M159.607 85.384h13.81v-6.89h-13.81v6.89" clip-path="url(#pe71ca87436)" style="fill:none;stroke:#000;stroke-linecap:square"/><path id="line2d_98" d="M166.512 85.384h0" clip-path="url(#pe71ca87436)" style="fill:none;stroke:#000;stroke-linecap:square"/><path id="line2d_99" d="M166.512 78.494v-.985" clip-path="url(#pe71ca87436)" style="fill:none;stroke:#000;stroke-linecap:square"/><path id="line2d_100" d="M163.06 85.384h6.904" clip-path="url(#pe71ca87436)" style="fill:none;stroke:#000;stroke-linecap:square"/><path id="line2d_101" d="M163.06 77.51h6.904" clip-path="url(#pe71ca87436)" style="fill:none;stroke:#000;stroke-linecap:square"/><path id="line2d_103" d="M67.537 69.634h13.81" clip-path="url(#pe71ca87436)" style="fill:none;stroke:red"/><path id="line2d_104" d="M67.537 77.973h13.81" clip-path="url(#pe71ca87436)" style="fill:none;stroke-dasharray:3.7,1.6;stroke-dashoffset:0;stroke:#00f"/><path id="line2d_105" d="M159.607 85.384h13.81" clip-path="url(#pe71ca87436)" style="fill:none;stroke:red"/><path id="line2d_106" d="M159.607 82.76h13.81" clip-path="url(#pe71ca87436)" style="fill:none;stroke-dasharray:3.7,1.6;stroke-dashoffset:0;stroke:#00f"/><path id="patch_3" d="M28.407 154.684v-138.6" style="fill:none;stroke:#000;stroke-width:.5;stroke-linejoin:miter;stroke-linecap:square"/><path id="patch_4" d="M212.547 154.684v-138.6" style="fill:none;stroke:#000;stroke-width:.5;stroke-linejoin:miter;stroke-linecap:square"/><path id="patch_5" d="M28.407 154.684h184.14" style="fill:none;stroke:#000;stroke-width:.5;stroke-linejoin:miter;stroke-linecap:square"/><path id="patch_6" d="M28.407 16.084h184.14" style="fill:none;stroke:#000;stroke-width:.5;stroke-linejoin:miter;stroke-linecap:square"/><g id="text_11" transform="matrix(.096 0 0 -.096 13.049 10.084)"><defs><path id="NimbusRomNo9L-Regu-57" d="M5965 4224H4698v-122c326-32 441-102 441-276 0-134-38-302-102-481l-800-2176-845 2189c-13 32-70 173-77 193-57 134-96 256-96 326 0 155 147 219 493 219v128H2003v-128c365 0 429-58 647-572l211-526-685-1810-922 2424c-44 116-70 226-70 297 0 142 90 187 416 187v128H32v-122c326-32 422-147 659-751L1926-96h96l986 2715L4032-96h96c544 1675 608 1855 1306 3743 121 334 192 391 531 455z" transform="scale(.01563)"/><path id="NimbusRomNo9L-Regu-76" d="M3053 2854h-890v-96c205-19 301-83 301-206 0-64-13-128-38-193L1792 695l-653 1645c-38 91-57 180-57 238 0 116 70 161 294 180v96H122v-102c243 0 288-64 582-728l768-1849c13-38 32-84 51-135 39-116 77-168 115-168 39 0 84 84 180 321l819 2064c185 437 224 482 416 501z" transform="scale(.01563)"/><path id="NimbusRomNo9L-Regu-6c" d="M122 4000h236c205 0 269-90 269-390V557c0-346-89-429-493-461V0h1511v109c-403 0-480 64-480 419v3843l-26 13c-333-109-576-173-1017-281z" transform="scale(.01563)"/><path id="NimbusRomNo9L-Regu-75" d="M3066 320h-32c-295 0-365 70-365 365v2195H1658v-122c396 0 473-64 473-383V875c0-178-32-268-121-338-173-140-372-217-564-217-249 0-454 217-454 485v2075H58v-102c307 0 396-96 396-391V770c0-507 308-834 775-834 237 0 486 102 659 275l275 275V-45l26-13c320 128 550 199 877 288z" transform="scale(.01563)"/><path id="NimbusRomNo9L-Regu-69" d="m1120 2929-992-350v-95l51 6c77 12 160 19 218 19 153 0 211-103 211-384V640c0-461-64-531-506-531V0h1517v96c-422 32-473 95-473 554v2260zM819 4352c-173 0-320-147-320-326s141-327 320-327c186 0 333 141 333 327 0 179-147 326-333 326" transform="scale(.01563)"/><path id="NimbusRomNo9L-Regu-64" d="m2202-64 940 333v96h-147c-230 0-281 70-281 366v3633l-32 13c-308-109-532-173-941-281v-102c51 6 89 6 141 6 236 0 294-64 294-328V2669c-243 205-416 275-672 275-736 0-1331-723-1331-1632C173 493 653-64 1357-64c358 0 601 128 819 429V-45zm-26 717c0-45-45-122-109-192-115-128-275-192-461-192-531 0-883 512-883 1299 0 723 314 1197 800 1197 339 0 653-301 653-640z" transform="scale(.01563)"/></defs><use xlink:href="#NimbusRomNo9L-Regu-57" transform="scale(.99626)"/><use xlink:href="#NimbusRomNo9L-Regu-61" transform="matrix(.99626 0 0 .99626 86.077 0)"/><use xlink:href="#NimbusRomNo9L-Regu-76" transform="matrix(.99626 0 0 .99626 128.319 0)"/><use xlink:href="#NimbusRomNo9L-Regu-65" transform="matrix(.99626 0 0 .99626 176.639 0)"/><use xlink:href="#NimbusRomNo9L-Regu-6c" transform="matrix(.99626 0 0 .99626 220.872 0)"/><use xlink:href="#NimbusRomNo9L-Regu-65" transform="matrix(.99626 0 0 .99626 248.567 0)"/><use xlink:href="#NimbusRomNo9L-Regu-6e" transform="matrix(.99626 0 0 .99626 292.801 0)"/><use xlink:href="#NimbusRomNo9L-Regu-67" transform="matrix(.99626 0 0 .99626 342.614 0)"/><use xlink:href="#NimbusRomNo9L-Regu-74" transform="matrix(.99626 0 0 .99626 392.427 0)"/><use xlink:href="#NimbusRomNo9L-Regu-68" transform="matrix(.99626 0 0 .99626 420.123 0)"/><use xlink:href="#NimbusRomNo9L-Regu-73" transform="matrix(.99626 0 0 .99626 469.936 0)"/><use xlink:href="#NimbusRomNo9L-Regu-75" transform="matrix(.99626 0 0 .99626 533.596 0)"/><use xlink:href="#NimbusRomNo9L-Regu-73" transform="matrix(.99626 0 0 .99626 583.41 0)"/><use xlink:href="#NimbusRomNo9L-Regu-69" transform="matrix(.99626 0 0 .99626 622.163 0)"/><use xlink:href="#NimbusRomNo9L-Regu-6e" transform="matrix(.99626 0 0 .99626 649.858 0)"/><use xlink:href="#NimbusRomNo9L-Regu-67" transform="matrix(.99626 0 0 .99626 699.671 0)"/><use xlink:href="#NimbusRomNo9L-Regu-6f" transform="matrix(.99626 0 0 .99626 774.391 0)"/><use xlink:href="#NimbusRomNo9L-Regu-62" transform="matrix(.99626 0 0 .99626 824.204 0)"/><use xlink:href="#NimbusRomNo9L-Regu-73" transform="matrix(.99626 0 0 .99626 874.018 0)"/><use xlink:href="#NimbusRomNo9L-Regu-74" transform="matrix(.99626 0 0 .99626 912.771 0)"/><use xlink:href="#NimbusRomNo9L-Regu-72" transform="matrix(.99626 0 0 .99626 940.466 0)"/><use xlink:href="#NimbusRomNo9L-Regu-75" transform="matrix(.99626 0 0 .99626 973.642 0)"/><use xlink:href="#NimbusRomNo9L-Regu-63" transform="matrix(.99626 0 0 .99626 1023.455 0)"/><use xlink:href="#NimbusRomNo9L-Regu-74" transform="matrix(.99626 0 0 .99626 1067.688 0)"/><use xlink:href="#NimbusRomNo9L-Regu-69" transform="matrix(.99626 0 0 .99626 1095.384 0)"/><use xlink:href="#NimbusRomNo9L-Regu-6f" transform="matrix(.99626 0 0 .99626 1123.079 0)"/><use xlink:href="#NimbusRomNo9L-Regu-6e" transform="matrix(.99626 0 0 .99626 1172.892 0)"/><use xlink:href="#NimbusRomNo9L-Regu-61" transform="matrix(.99626 0 0 .99626 1247.612 0)"/><use xlink:href="#NimbusRomNo9L-Regu-6e" transform="matrix(.99626 0 0 .99626 1291.845 0)"/><use xlink:href="#NimbusRomNo9L-Regu-64" transform="matrix(.99626 0 0 .99626 1341.659 0)"/><use xlink:href="#NimbusRomNo9L-Regu-70" transform="matrix(.99626 0 0 .99626 1416.378 0)"/><use xlink:href="#NimbusRomNo9L-Regu-68" transform="matrix(.99626 0 0 .99626 1466.192 0)"/><use xlink:href="#NimbusRomNo9L-Regu-61" transform="matrix(.99626 0 0 .99626 1516.005 0)"/><use xlink:href="#NimbusRomNo9L-Regu-73" transform="matrix(.99626 0 0 .99626 1560.238 0)"/><use xlink:href="#NimbusRomNo9L-Regu-65" transform="matrix(.99626 0 0 .99626 1598.992 0)"/><use xlink:href="#NimbusRomNo9L-Regu-6d" transform="matrix(.99626 0 0 .99626 1668.132 0)"/><use xlink:href="#NimbusRomNo9L-Regu-65" transform="matrix(.99626 0 0 .99626 1745.64 0)"/><use xlink:href="#NimbusRomNo9L-Regu-61" transform="matrix(.99626 0 0 .99626 1789.874 0)"/><use xlink:href="#NimbusRomNo9L-Regu-73" transform="matrix(.99626 0 0 .99626 1834.108 0)"/><use xlink:href="#NimbusRomNo9L-Regu-75" transform="matrix(.99626 0 0 .99626 1872.861 0)"/><use xlink:href="#NimbusRomNo9L-Regu-72" transform="matrix(.99626 0 0 .99626 1922.675 0)"/><use xlink:href="#NimbusRomNo9L-Regu-65" transform="matrix(.99626 0 0 .99626 1955.85 0)"/><use xlink:href="#NimbusRomNo9L-Regu-6d" transform="matrix(.99626 0 0 .99626 2000.083 0)"/><use xlink:href="#NimbusRomNo9L-Regu-65" transform="matrix(.99626 0 0 .99626 2077.592 0)"/><use xlink:href="#NimbusRomNo9L-Regu-6e" transform="matrix(.99626 0 0 .99626 2121.825 0)"/><use xlink:href="#NimbusRomNo9L-Regu-74" transform="matrix(.99626 0 0 .99626 2171.639 0)"/><use xlink:href="#NimbusRomNo9L-Regu-73" transform="matrix(.99626 0 0 .99626 2199.334 0)"/></g></g></g><defs><clipPath id="pe71ca87436"><path d="M28.407 16.084h184.14v138.6H28.407z"/></clipPath></defs></svg>