<?xml version="1.0" encoding="utf-8" standalone="no"?>
<!DOCTYPE svg PUBLIC "-//W3C//DTD SVG 1.1//EN"
  "http://www.w3.org/Graphics/SVG/1.1/DTD/svg11.dtd">
<svg xmlns:xlink="http://www.w3.org/1999/xlink" width="209.954175pt" height="180.042634pt" viewBox="0 0 209.954175 180.042634" xmlns="http://www.w3.org/2000/svg" version="1.1">
 <metadata>
  <rdf:RDF xmlns:dc="http://purl.org/dc/elements/1.1/" xmlns:cc="http://creativecommons.org/ns#" xmlns:rdf="http://www.w3.org/1999/02/22-rdf-syntax-ns#">
   <cc:Work>
    <dc:type rdf:resource="http://purl.org/dc/dcmitype/StillImage"/>
    <dc:date>2025-02-28T13:26:13.545981</dc:date>
    <dc:format>image/svg+xml</dc:format>
    <dc:creator>
     <cc:Agent>
      <dc:title>Matplotlib v3.9.2, https://matplotlib.org/</dc:title>
     </cc:Agent>
    </dc:creator>
   </cc:Work>
  </rdf:RDF>
 </metadata>
 <defs>
  <style type="text/css">*{stroke-linejoin: round; stroke-linecap: butt}</style>
 </defs>
 <g id="figure_1">
  <g id="patch_1">
   <path d="M 0 180.042634 
L 209.954175 180.042634 
L 209.954175 0 
L 0 0 
L 0 180.042634 
z
" style="fill: none"/>
  </g>
  <g id="axes_1">
   <g id="patch_2">
    <path d="M 22.214175 154.684396 
L 206.354175 154.684396 
L 206.354175 16.084396 
L 22.214175 16.084396 
L 22.214175 154.684396 
z
" style="fill: none"/>
   </g>
   <g id="matplotlib.axis_1">
    <g id="xtick_1">
     <g id="line2d_1">
      <defs>
       <path id="ma980d0141c" d="M 0 0 
L 0 -3 
" style="stroke: #000000; stroke-width: 0.5"/>
      </defs>
      <g>
       <use xlink:href="#ma980d0141c" x="47.330874" y="154.684396" style="stroke: #000000; stroke-width: 0.5"/>
      </g>
     </g>
     <g id="line2d_2">
      <defs>
       <path id="m00c19d06c0" d="M 0 0 
L 0 3 
" style="stroke: #000000; stroke-width: 0.5"/>
      </defs>
      <g>
       <use xlink:href="#m00c19d06c0" x="47.330874" y="16.084396" style="stroke: #000000; stroke-width: 0.5"/>
      </g>
     </g>
     <g id="text_1">
      <!-- $\mathdefault{−1000}$ -->
      <g transform="translate(36.264417 163.588052) scale(0.08 -0.08)">
       <defs>
        <path id="CMSY10-0" d="M 4218 1472 
C 4326 1472 4442 1472 4442 1600 
C 4442 1728 4326 1728 4218 1728 
L 755 1728 
C 646 1728 531 1728 531 1600 
C 531 1472 646 1472 755 1472 
L 4218 1472 
z
" transform="scale(0.015625)"/>
        <path id="NimbusRomNo9L-Regu-31" d="M 1862 4339 
L 710 3757 
L 710 3667 
C 787 3699 858 3725 883 3738 
C 998 3783 1107 3808 1171 3808 
C 1306 3808 1363 3711 1363 3505 
L 1363 592 
C 1363 379 1312 232 1210 173 
C 1114 116 1024 96 755 96 
L 755 0 
L 2522 0 
L 2522 96 
C 2016 96 1914 160 1914 470 
L 1914 4327 
L 1862 4339 
z
" transform="scale(0.015625)"/>
        <path id="NimbusRomNo9L-Regu-30" d="M 1626 4352 
C 1274 4352 1005 4244 768 4020 
C 397 3661 154 2925 154 2176 
C 154 1479 365 730 666 372 
C 902 90 1229 -64 1600 -64 
C 1926 -64 2202 45 2432 269 
C 2803 621 3046 1364 3046 2138 
C 3046 3450 2464 4352 1626 4352 
z
M 1606 4186 
C 2144 4186 2432 3463 2432 2125 
C 2432 788 2150 103 1600 103 
C 1050 103 768 788 768 2119 
C 768 3476 1056 4186 1606 4186 
z
" transform="scale(0.015625)"/>
       </defs>
       <use xlink:href="#CMSY10-0" transform="scale(0.996264)"/>
       <use xlink:href="#NimbusRomNo9L-Regu-31" transform="translate(77.408707 0) scale(0.996264)"/>
       <use xlink:href="#NimbusRomNo9L-Regu-30" transform="translate(127.221908 0) scale(0.996264)"/>
       <use xlink:href="#NimbusRomNo9L-Regu-30" transform="translate(177.035108 0) scale(0.996264)"/>
       <use xlink:href="#NimbusRomNo9L-Regu-30" transform="translate(226.848309 0) scale(0.996264)"/>
      </g>
     </g>
    </g>
    <g id="xtick_2">
     <g id="line2d_3">
      <g>
       <use xlink:href="#ma980d0141c" x="80.824271" y="154.684396" style="stroke: #000000; stroke-width: 0.5"/>
      </g>
     </g>
     <g id="line2d_4">
      <g>
       <use xlink:href="#m00c19d06c0" x="80.824271" y="16.084396" style="stroke: #000000; stroke-width: 0.5"/>
      </g>
     </g>
     <g id="text_2">
      <!-- $\mathdefault{−500}$ -->
      <g transform="translate(71.750342 163.588052) scale(0.08 -0.08)">
       <defs>
        <path id="NimbusRomNo9L-Regu-35" d="M 1158 3776 
L 2413 3776 
C 2515 3776 2541 3789 2560 3834 
L 2803 4403 
L 2746 4448 
C 2650 4314 2586 4282 2451 4282 
L 1114 4282 
L 416 2759 
C 410 2746 410 2740 410 2727 
C 410 2695 435 2676 486 2676 
C 691 2676 947 2631 1210 2547 
C 1946 2309 2285 1910 2285 1274 
C 2285 656 1894 173 1395 173 
C 1267 173 1158 218 966 360 
C 762 508 614 572 480 572 
C 294 572 205 495 205 334 
C 205 90 506 -64 986 -64 
C 1523 -64 1984 110 2304 438 
C 2598 728 2733 1094 2733 1583 
C 2733 2046 2611 2342 2291 2663 
C 2010 2947 1645 3094 890 3229 
L 1158 3776 
z
" transform="scale(0.015625)"/>
       </defs>
       <use xlink:href="#CMSY10-0" transform="scale(0.996264)"/>
       <use xlink:href="#NimbusRomNo9L-Regu-35" transform="translate(77.408707 0) scale(0.996264)"/>
       <use xlink:href="#NimbusRomNo9L-Regu-30" transform="translate(127.221908 0) scale(0.996264)"/>
       <use xlink:href="#NimbusRomNo9L-Regu-30" transform="translate(177.035108 0) scale(0.996264)"/>
      </g>
     </g>
    </g>
    <g id="xtick_3">
     <g id="line2d_5">
      <g>
       <use xlink:href="#ma980d0141c" x="114.317669" y="154.684396" style="stroke: #000000; stroke-width: 0.5"/>
      </g>
     </g>
     <g id="line2d_6">
      <g>
       <use xlink:href="#m00c19d06c0" x="114.317669" y="16.084396" style="stroke: #000000; stroke-width: 0.5"/>
      </g>
     </g>
     <g id="text_3">
      <!-- $\mathdefault{0}$ -->
      <g transform="translate(112.32514 163.588052) scale(0.08 -0.08)">
       <use xlink:href="#NimbusRomNo9L-Regu-30" transform="scale(0.996264)"/>
      </g>
     </g>
    </g>
    <g id="xtick_4">
     <g id="line2d_7">
      <g>
       <use xlink:href="#ma980d0141c" x="147.811066" y="154.684396" style="stroke: #000000; stroke-width: 0.5"/>
      </g>
     </g>
     <g id="line2d_8">
      <g>
       <use xlink:href="#m00c19d06c0" x="147.811066" y="16.084396" style="stroke: #000000; stroke-width: 0.5"/>
      </g>
     </g>
     <g id="text_4">
      <!-- $\mathdefault{500}$ -->
      <g transform="translate(141.833482 163.588052) scale(0.08 -0.08)">
       <use xlink:href="#NimbusRomNo9L-Regu-35" transform="scale(0.996264)"/>
       <use xlink:href="#NimbusRomNo9L-Regu-30" transform="translate(49.8132 0) scale(0.996264)"/>
       <use xlink:href="#NimbusRomNo9L-Regu-30" transform="translate(99.626401 0) scale(0.996264)"/>
      </g>
     </g>
    </g>
    <g id="xtick_5">
     <g id="line2d_9">
      <g>
       <use xlink:href="#ma980d0141c" x="181.304463" y="154.684396" style="stroke: #000000; stroke-width: 0.5"/>
      </g>
     </g>
     <g id="line2d_10">
      <g>
       <use xlink:href="#m00c19d06c0" x="181.304463" y="16.084396" style="stroke: #000000; stroke-width: 0.5"/>
      </g>
     </g>
     <g id="text_5">
      <!-- $\mathdefault{1000}$ -->
      <g transform="translate(173.334351 163.588052) scale(0.08 -0.08)">
       <use xlink:href="#NimbusRomNo9L-Regu-31" transform="scale(0.996264)"/>
       <use xlink:href="#NimbusRomNo9L-Regu-30" transform="translate(49.8132 0) scale(0.996264)"/>
       <use xlink:href="#NimbusRomNo9L-Regu-30" transform="translate(99.626401 0) scale(0.996264)"/>
       <use xlink:href="#NimbusRomNo9L-Regu-30" transform="translate(149.439601 0) scale(0.996264)"/>
      </g>
     </g>
    </g>
    <g id="xtick_6">
     <g id="line2d_11">
      <defs>
       <path id="med64908dd1" d="M 0 0 
L 0 -1.5 
" style="stroke: #000000; stroke-width: 0.5"/>
      </defs>
      <g>
       <use xlink:href="#med64908dd1" x="27.234835" y="154.684396" style="stroke: #000000; stroke-width: 0.5"/>
      </g>
     </g>
     <g id="line2d_12">
      <defs>
       <path id="m4be95e56c9" d="M 0 0 
L 0 1.5 
" style="stroke: #000000; stroke-width: 0.5"/>
      </defs>
      <g>
       <use xlink:href="#m4be95e56c9" x="27.234835" y="16.084396" style="stroke: #000000; stroke-width: 0.5"/>
      </g>
     </g>
    </g>
    <g id="xtick_7">
     <g id="line2d_13">
      <g>
       <use xlink:href="#med64908dd1" x="33.933515" y="154.684396" style="stroke: #000000; stroke-width: 0.5"/>
      </g>
     </g>
     <g id="line2d_14">
      <g>
       <use xlink:href="#m4be95e56c9" x="33.933515" y="16.084396" style="stroke: #000000; stroke-width: 0.5"/>
      </g>
     </g>
    </g>
    <g id="xtick_8">
     <g id="line2d_15">
      <g>
       <use xlink:href="#med64908dd1" x="40.632194" y="154.684396" style="stroke: #000000; stroke-width: 0.5"/>
      </g>
     </g>
     <g id="line2d_16">
      <g>
       <use xlink:href="#m4be95e56c9" x="40.632194" y="16.084396" style="stroke: #000000; stroke-width: 0.5"/>
      </g>
     </g>
    </g>
    <g id="xtick_9">
     <g id="line2d_17">
      <g>
       <use xlink:href="#med64908dd1" x="54.029553" y="154.684396" style="stroke: #000000; stroke-width: 0.5"/>
      </g>
     </g>
     <g id="line2d_18">
      <g>
       <use xlink:href="#m4be95e56c9" x="54.029553" y="16.084396" style="stroke: #000000; stroke-width: 0.5"/>
      </g>
     </g>
    </g>
    <g id="xtick_10">
     <g id="line2d_19">
      <g>
       <use xlink:href="#med64908dd1" x="60.728233" y="154.684396" style="stroke: #000000; stroke-width: 0.5"/>
      </g>
     </g>
     <g id="line2d_20">
      <g>
       <use xlink:href="#m4be95e56c9" x="60.728233" y="16.084396" style="stroke: #000000; stroke-width: 0.5"/>
      </g>
     </g>
    </g>
    <g id="xtick_11">
     <g id="line2d_21">
      <g>
       <use xlink:href="#med64908dd1" x="67.426912" y="154.684396" style="stroke: #000000; stroke-width: 0.5"/>
      </g>
     </g>
     <g id="line2d_22">
      <g>
       <use xlink:href="#m4be95e56c9" x="67.426912" y="16.084396" style="stroke: #000000; stroke-width: 0.5"/>
      </g>
     </g>
    </g>
    <g id="xtick_12">
     <g id="line2d_23">
      <g>
       <use xlink:href="#med64908dd1" x="74.125592" y="154.684396" style="stroke: #000000; stroke-width: 0.5"/>
      </g>
     </g>
     <g id="line2d_24">
      <g>
       <use xlink:href="#m4be95e56c9" x="74.125592" y="16.084396" style="stroke: #000000; stroke-width: 0.5"/>
      </g>
     </g>
    </g>
    <g id="xtick_13">
     <g id="line2d_25">
      <g>
       <use xlink:href="#med64908dd1" x="87.522951" y="154.684396" style="stroke: #000000; stroke-width: 0.5"/>
      </g>
     </g>
     <g id="line2d_26">
      <g>
       <use xlink:href="#m4be95e56c9" x="87.522951" y="16.084396" style="stroke: #000000; stroke-width: 0.5"/>
      </g>
     </g>
    </g>
    <g id="xtick_14">
     <g id="line2d_27">
      <g>
       <use xlink:href="#med64908dd1" x="94.22163" y="154.684396" style="stroke: #000000; stroke-width: 0.5"/>
      </g>
     </g>
     <g id="line2d_28">
      <g>
       <use xlink:href="#m4be95e56c9" x="94.22163" y="16.084396" style="stroke: #000000; stroke-width: 0.5"/>
      </g>
     </g>
    </g>
    <g id="xtick_15">
     <g id="line2d_29">
      <g>
       <use xlink:href="#med64908dd1" x="100.92031" y="154.684396" style="stroke: #000000; stroke-width: 0.5"/>
      </g>
     </g>
     <g id="line2d_30">
      <g>
       <use xlink:href="#m4be95e56c9" x="100.92031" y="16.084396" style="stroke: #000000; stroke-width: 0.5"/>
      </g>
     </g>
    </g>
    <g id="xtick_16">
     <g id="line2d_31">
      <g>
       <use xlink:href="#med64908dd1" x="107.618989" y="154.684396" style="stroke: #000000; stroke-width: 0.5"/>
      </g>
     </g>
     <g id="line2d_32">
      <g>
       <use xlink:href="#m4be95e56c9" x="107.618989" y="16.084396" style="stroke: #000000; stroke-width: 0.5"/>
      </g>
     </g>
    </g>
    <g id="xtick_17">
     <g id="line2d_33">
      <g>
       <use xlink:href="#med64908dd1" x="121.016348" y="154.684396" style="stroke: #000000; stroke-width: 0.5"/>
      </g>
     </g>
     <g id="line2d_34">
      <g>
       <use xlink:href="#m4be95e56c9" x="121.016348" y="16.084396" style="stroke: #000000; stroke-width: 0.5"/>
      </g>
     </g>
    </g>
    <g id="xtick_18">
     <g id="line2d_35">
      <g>
       <use xlink:href="#med64908dd1" x="127.715027" y="154.684396" style="stroke: #000000; stroke-width: 0.5"/>
      </g>
     </g>
     <g id="line2d_36">
      <g>
       <use xlink:href="#m4be95e56c9" x="127.715027" y="16.084396" style="stroke: #000000; stroke-width: 0.5"/>
      </g>
     </g>
    </g>
    <g id="xtick_19">
     <g id="line2d_37">
      <g>
       <use xlink:href="#med64908dd1" x="134.413707" y="154.684396" style="stroke: #000000; stroke-width: 0.5"/>
      </g>
     </g>
     <g id="line2d_38">
      <g>
       <use xlink:href="#m4be95e56c9" x="134.413707" y="16.084396" style="stroke: #000000; stroke-width: 0.5"/>
      </g>
     </g>
    </g>
    <g id="xtick_20">
     <g id="line2d_39">
      <g>
       <use xlink:href="#med64908dd1" x="141.112386" y="154.684396" style="stroke: #000000; stroke-width: 0.5"/>
      </g>
     </g>
     <g id="line2d_40">
      <g>
       <use xlink:href="#m4be95e56c9" x="141.112386" y="16.084396" style="stroke: #000000; stroke-width: 0.5"/>
      </g>
     </g>
    </g>
    <g id="xtick_21">
     <g id="line2d_41">
      <g>
       <use xlink:href="#med64908dd1" x="154.509745" y="154.684396" style="stroke: #000000; stroke-width: 0.5"/>
      </g>
     </g>
     <g id="line2d_42">
      <g>
       <use xlink:href="#m4be95e56c9" x="154.509745" y="16.084396" style="stroke: #000000; stroke-width: 0.5"/>
      </g>
     </g>
    </g>
    <g id="xtick_22">
     <g id="line2d_43">
      <g>
       <use xlink:href="#med64908dd1" x="161.208425" y="154.684396" style="stroke: #000000; stroke-width: 0.5"/>
      </g>
     </g>
     <g id="line2d_44">
      <g>
       <use xlink:href="#m4be95e56c9" x="161.208425" y="16.084396" style="stroke: #000000; stroke-width: 0.5"/>
      </g>
     </g>
    </g>
    <g id="xtick_23">
     <g id="line2d_45">
      <g>
       <use xlink:href="#med64908dd1" x="167.907104" y="154.684396" style="stroke: #000000; stroke-width: 0.5"/>
      </g>
     </g>
     <g id="line2d_46">
      <g>
       <use xlink:href="#m4be95e56c9" x="167.907104" y="16.084396" style="stroke: #000000; stroke-width: 0.5"/>
      </g>
     </g>
    </g>
    <g id="xtick_24">
     <g id="line2d_47">
      <g>
       <use xlink:href="#med64908dd1" x="174.605784" y="154.684396" style="stroke: #000000; stroke-width: 0.5"/>
      </g>
     </g>
     <g id="line2d_48">
      <g>
       <use xlink:href="#m4be95e56c9" x="174.605784" y="16.084396" style="stroke: #000000; stroke-width: 0.5"/>
      </g>
     </g>
    </g>
    <g id="xtick_25">
     <g id="line2d_49">
      <g>
       <use xlink:href="#med64908dd1" x="188.003143" y="154.684396" style="stroke: #000000; stroke-width: 0.5"/>
      </g>
     </g>
     <g id="line2d_50">
      <g>
       <use xlink:href="#m4be95e56c9" x="188.003143" y="16.084396" style="stroke: #000000; stroke-width: 0.5"/>
      </g>
     </g>
    </g>
    <g id="xtick_26">
     <g id="line2d_51">
      <g>
       <use xlink:href="#med64908dd1" x="194.701822" y="154.684396" style="stroke: #000000; stroke-width: 0.5"/>
      </g>
     </g>
     <g id="line2d_52">
      <g>
       <use xlink:href="#m4be95e56c9" x="194.701822" y="16.084396" style="stroke: #000000; stroke-width: 0.5"/>
      </g>
     </g>
    </g>
    <g id="xtick_27">
     <g id="line2d_53">
      <g>
       <use xlink:href="#med64908dd1" x="201.400502" y="154.684396" style="stroke: #000000; stroke-width: 0.5"/>
      </g>
     </g>
     <g id="line2d_54">
      <g>
       <use xlink:href="#m4be95e56c9" x="201.400502" y="16.084396" style="stroke: #000000; stroke-width: 0.5"/>
      </g>
     </g>
    </g>
    <g id="text_6">
     <!-- ns -->
     <g transform="translate(110.741499 174.717171) scale(0.08 -0.08)">
      <defs>
       <path id="NimbusRomNo9L-Regu-6e" d="M 102 2579 
C 141 2598 205 2605 275 2605 
C 454 2605 512 2509 512 2195 
L 512 608 
C 512 243 442 154 115 128 
L 115 32 
L 1472 32 
L 1472 128 
C 1146 154 1050 230 1050 461 
L 1050 2259 
C 1357 2547 1498 2624 1709 2624 
C 2022 2624 2176 2426 2176 2003 
L 2176 666 
C 2176 262 2093 154 1773 128 
L 1773 32 
L 3104 32 
L 3104 128 
C 2790 160 2714 237 2714 550 
L 2714 2016 
C 2714 2618 2432 2976 1958 2976 
C 1664 2976 1466 2867 1030 2458 
L 1030 2963 
L 986 2976 
C 672 2861 454 2790 102 2688 
L 102 2579 
z
" transform="scale(0.015625)"/>
       <path id="NimbusRomNo9L-Regu-73" d="M 2016 2010 
L 1990 2880 
L 1920 2880 
L 1907 2867 
C 1850 2822 1843 2816 1818 2816 
C 1779 2816 1715 2829 1645 2861 
C 1504 2915 1363 2944 1197 2944 
C 691 2944 326 2616 326 2154 
C 326 1796 531 1539 1075 1231 
L 1446 1020 
C 1670 892 1779 737 1779 539 
C 1779 256 1574 77 1248 77 
C 1030 77 832 159 710 298 
C 576 455 518 600 435 960 
L 333 960 
L 333 -39 
L 416 -39 
C 461 33 486 48 563 48 
C 621 48 710 35 858 -2 
C 1037 -39 1210 -64 1325 -64 
C 1818 -64 2227 308 2227 757 
C 2227 1077 2074 1289 1690 1520 
L 998 1930 
C 819 2033 723 2194 723 2367 
C 723 2624 922 2803 1216 2803 
C 1581 2803 1773 2583 1920 2010 
L 2016 2010 
z
" transform="scale(0.015625)"/>
      </defs>
      <use xlink:href="#NimbusRomNo9L-Regu-6e" transform="scale(0.996264)"/>
      <use xlink:href="#NimbusRomNo9L-Regu-73" transform="translate(49.8132 0) scale(0.996264)"/>
     </g>
    </g>
   </g>
   <g id="matplotlib.axis_2">
    <g id="ytick_1">
     <g id="line2d_55">
      <defs>
       <path id="medfb341d9e" d="M 0 0 
L 3 0 
" style="stroke: #000000; stroke-width: 0.5"/>
      </defs>
      <g>
       <use xlink:href="#medfb341d9e" x="22.214175" y="145.52076" style="stroke: #000000; stroke-width: 0.5"/>
      </g>
     </g>
     <g id="line2d_56">
      <defs>
       <path id="mb28ccc786a" d="M 0 0 
L -3 0 
" style="stroke: #000000; stroke-width: 0.5"/>
      </defs>
      <g>
       <use xlink:href="#mb28ccc786a" x="206.354175" y="145.52076" style="stroke: #000000; stroke-width: 0.5"/>
      </g>
     </g>
     <g id="text_7">
      <!-- $\mathdefault{0}$ -->
      <g transform="translate(14.729119 148.222588) scale(0.08 -0.08)">
       <use xlink:href="#NimbusRomNo9L-Regu-30" transform="scale(0.996264)"/>
      </g>
     </g>
    </g>
    <g id="ytick_2">
     <g id="line2d_57">
      <g>
       <use xlink:href="#medfb341d9e" x="22.214175" y="121.657124" style="stroke: #000000; stroke-width: 0.5"/>
      </g>
     </g>
     <g id="line2d_58">
      <g>
       <use xlink:href="#mb28ccc786a" x="206.354175" y="121.657124" style="stroke: #000000; stroke-width: 0.5"/>
      </g>
     </g>
     <g id="text_8">
      <!-- $\mathdefault{1}$ -->
      <g transform="translate(14.729119 124.358952) scale(0.08 -0.08)">
       <use xlink:href="#NimbusRomNo9L-Regu-31" transform="scale(0.996264)"/>
      </g>
     </g>
    </g>
    <g id="ytick_3">
     <g id="line2d_59">
      <g>
       <use xlink:href="#medfb341d9e" x="22.214175" y="97.793487" style="stroke: #000000; stroke-width: 0.5"/>
      </g>
     </g>
     <g id="line2d_60">
      <g>
       <use xlink:href="#mb28ccc786a" x="206.354175" y="97.793487" style="stroke: #000000; stroke-width: 0.5"/>
      </g>
     </g>
     <g id="text_9">
      <!-- $\mathdefault{2}$ -->
      <g transform="translate(14.729119 100.495315) scale(0.08 -0.08)">
       <defs>
        <path id="NimbusRomNo9L-Regu-32" d="M 3040 875 
L 2957 907 
C 2720 544 2637 486 2349 486 
L 819 486 
L 1894 1609 
C 2464 2202 2714 2687 2714 3185 
C 2714 3823 2195 4313 1530 4313 
C 1178 4313 845 4173 608 3918 
C 403 3700 307 3496 198 3043 
L 333 3011 
C 589 3636 819 3840 1261 3840 
C 1798 3840 2163 3476 2163 2940 
C 2163 2443 1869 1850 1331 1282 
L 192 77 
L 192 0 
L 2688 0 
L 3040 875 
z
" transform="scale(0.015625)"/>
       </defs>
       <use xlink:href="#NimbusRomNo9L-Regu-32" transform="scale(0.996264)"/>
      </g>
     </g>
    </g>
    <g id="ytick_4">
     <g id="line2d_61">
      <g>
       <use xlink:href="#medfb341d9e" x="22.214175" y="73.929851" style="stroke: #000000; stroke-width: 0.5"/>
      </g>
     </g>
     <g id="line2d_62">
      <g>
       <use xlink:href="#mb28ccc786a" x="206.354175" y="73.929851" style="stroke: #000000; stroke-width: 0.5"/>
      </g>
     </g>
     <g id="text_10">
      <!-- $\mathdefault{3}$ -->
      <g transform="translate(14.729119 76.631679) scale(0.08 -0.08)">
       <defs>
        <path id="NimbusRomNo9L-Regu-33" d="M 979 2138 
C 1357 2138 1504 2125 1658 2068 
C 2054 1927 2304 1562 2304 1120 
C 2304 583 1939 167 1466 167 
C 1293 167 1165 212 928 365 
C 736 480 627 525 518 525 
C 371 525 275 436 275 301 
C 275 77 550 -64 998 -64 
C 1491 -64 1997 103 2298 365 
C 2598 628 2765 999 2765 1428 
C 2765 1754 2662 2055 2477 2253 
C 2349 2394 2227 2471 1946 2592 
C 2387 2893 2547 3130 2547 3476 
C 2547 3994 2138 4352 1549 4352 
C 1229 4352 947 4244 717 4039 
C 525 3866 429 3699 288 3315 
L 384 3290 
C 646 3757 934 3968 1338 3968 
C 1754 3968 2042 3687 2042 3284 
C 2042 3053 1946 2823 1786 2663 
C 1594 2471 1414 2375 979 2221 
L 979 2138 
z
" transform="scale(0.015625)"/>
       </defs>
       <use xlink:href="#NimbusRomNo9L-Regu-33" transform="scale(0.996264)"/>
      </g>
     </g>
    </g>
    <g id="ytick_5">
     <g id="line2d_63">
      <g>
       <use xlink:href="#medfb341d9e" x="22.214175" y="50.066214" style="stroke: #000000; stroke-width: 0.5"/>
      </g>
     </g>
     <g id="line2d_64">
      <g>
       <use xlink:href="#mb28ccc786a" x="206.354175" y="50.066214" style="stroke: #000000; stroke-width: 0.5"/>
      </g>
     </g>
     <g id="text_11">
      <!-- $\mathdefault{4}$ -->
      <g transform="translate(14.729119 52.768042) scale(0.08 -0.08)">
       <defs>
        <path id="NimbusRomNo9L-Regu-34" d="M 3021 1497 
L 2368 1497 
L 2368 4352 
L 2086 4352 
L 77 1497 
L 77 1088 
L 1875 1088 
L 1875 32 
L 2368 32 
L 2368 1088 
L 3021 1088 
L 3021 1497 
z
M 1869 1497 
L 333 1497 
L 1869 3698 
L 1869 1497 
z
" transform="scale(0.015625)"/>
       </defs>
       <use xlink:href="#NimbusRomNo9L-Regu-34" transform="scale(0.996264)"/>
      </g>
     </g>
    </g>
    <g id="ytick_6">
     <g id="line2d_65">
      <g>
       <use xlink:href="#medfb341d9e" x="22.214175" y="26.202578" style="stroke: #000000; stroke-width: 0.5"/>
      </g>
     </g>
     <g id="line2d_66">
      <g>
       <use xlink:href="#mb28ccc786a" x="206.354175" y="26.202578" style="stroke: #000000; stroke-width: 0.5"/>
      </g>
     </g>
     <g id="text_12">
      <!-- $\mathdefault{5}$ -->
      <g transform="translate(14.729119 28.904406) scale(0.08 -0.08)">
       <use xlink:href="#NimbusRomNo9L-Regu-35" transform="scale(0.996264)"/>
      </g>
     </g>
    </g>
    <g id="ytick_7">
     <g id="line2d_67">
      <defs>
       <path id="m8e909fefd2" d="M 0 0 
L 1.5 0 
" style="stroke: #000000; stroke-width: 0.5"/>
      </defs>
      <g>
       <use xlink:href="#m8e909fefd2" x="22.214175" y="150.293487" style="stroke: #000000; stroke-width: 0.5"/>
      </g>
     </g>
     <g id="line2d_68">
      <defs>
       <path id="m8ec8b0914c" d="M 0 0 
L -1.5 0 
" style="stroke: #000000; stroke-width: 0.5"/>
      </defs>
      <g>
       <use xlink:href="#m8ec8b0914c" x="206.354175" y="150.293487" style="stroke: #000000; stroke-width: 0.5"/>
      </g>
     </g>
    </g>
    <g id="ytick_8">
     <g id="line2d_69">
      <g>
       <use xlink:href="#m8e909fefd2" x="22.214175" y="140.748033" style="stroke: #000000; stroke-width: 0.5"/>
      </g>
     </g>
     <g id="line2d_70">
      <g>
       <use xlink:href="#m8ec8b0914c" x="206.354175" y="140.748033" style="stroke: #000000; stroke-width: 0.5"/>
      </g>
     </g>
    </g>
    <g id="ytick_9">
     <g id="line2d_71">
      <g>
       <use xlink:href="#m8e909fefd2" x="22.214175" y="135.975305" style="stroke: #000000; stroke-width: 0.5"/>
      </g>
     </g>
     <g id="line2d_72">
      <g>
       <use xlink:href="#m8ec8b0914c" x="206.354175" y="135.975305" style="stroke: #000000; stroke-width: 0.5"/>
      </g>
     </g>
    </g>
    <g id="ytick_10">
     <g id="line2d_73">
      <g>
       <use xlink:href="#m8e909fefd2" x="22.214175" y="131.202578" style="stroke: #000000; stroke-width: 0.5"/>
      </g>
     </g>
     <g id="line2d_74">
      <g>
       <use xlink:href="#m8ec8b0914c" x="206.354175" y="131.202578" style="stroke: #000000; stroke-width: 0.5"/>
      </g>
     </g>
    </g>
    <g id="ytick_11">
     <g id="line2d_75">
      <g>
       <use xlink:href="#m8e909fefd2" x="22.214175" y="126.429851" style="stroke: #000000; stroke-width: 0.5"/>
      </g>
     </g>
     <g id="line2d_76">
      <g>
       <use xlink:href="#m8ec8b0914c" x="206.354175" y="126.429851" style="stroke: #000000; stroke-width: 0.5"/>
      </g>
     </g>
    </g>
    <g id="ytick_12">
     <g id="line2d_77">
      <g>
       <use xlink:href="#m8e909fefd2" x="22.214175" y="116.884396" style="stroke: #000000; stroke-width: 0.5"/>
      </g>
     </g>
     <g id="line2d_78">
      <g>
       <use xlink:href="#m8ec8b0914c" x="206.354175" y="116.884396" style="stroke: #000000; stroke-width: 0.5"/>
      </g>
     </g>
    </g>
    <g id="ytick_13">
     <g id="line2d_79">
      <g>
       <use xlink:href="#m8e909fefd2" x="22.214175" y="112.111669" style="stroke: #000000; stroke-width: 0.5"/>
      </g>
     </g>
     <g id="line2d_80">
      <g>
       <use xlink:href="#m8ec8b0914c" x="206.354175" y="112.111669" style="stroke: #000000; stroke-width: 0.5"/>
      </g>
     </g>
    </g>
    <g id="ytick_14">
     <g id="line2d_81">
      <g>
       <use xlink:href="#m8e909fefd2" x="22.214175" y="107.338942" style="stroke: #000000; stroke-width: 0.5"/>
      </g>
     </g>
     <g id="line2d_82">
      <g>
       <use xlink:href="#m8ec8b0914c" x="206.354175" y="107.338942" style="stroke: #000000; stroke-width: 0.5"/>
      </g>
     </g>
    </g>
    <g id="ytick_15">
     <g id="line2d_83">
      <g>
       <use xlink:href="#m8e909fefd2" x="22.214175" y="102.566214" style="stroke: #000000; stroke-width: 0.5"/>
      </g>
     </g>
     <g id="line2d_84">
      <g>
       <use xlink:href="#m8ec8b0914c" x="206.354175" y="102.566214" style="stroke: #000000; stroke-width: 0.5"/>
      </g>
     </g>
    </g>
    <g id="ytick_16">
     <g id="line2d_85">
      <g>
       <use xlink:href="#m8e909fefd2" x="22.214175" y="93.02076" style="stroke: #000000; stroke-width: 0.5"/>
      </g>
     </g>
     <g id="line2d_86">
      <g>
       <use xlink:href="#m8ec8b0914c" x="206.354175" y="93.02076" style="stroke: #000000; stroke-width: 0.5"/>
      </g>
     </g>
    </g>
    <g id="ytick_17">
     <g id="line2d_87">
      <g>
       <use xlink:href="#m8e909fefd2" x="22.214175" y="88.248033" style="stroke: #000000; stroke-width: 0.5"/>
      </g>
     </g>
     <g id="line2d_88">
      <g>
       <use xlink:href="#m8ec8b0914c" x="206.354175" y="88.248033" style="stroke: #000000; stroke-width: 0.5"/>
      </g>
     </g>
    </g>
    <g id="ytick_18">
     <g id="line2d_89">
      <g>
       <use xlink:href="#m8e909fefd2" x="22.214175" y="83.475305" style="stroke: #000000; stroke-width: 0.5"/>
      </g>
     </g>
     <g id="line2d_90">
      <g>
       <use xlink:href="#m8ec8b0914c" x="206.354175" y="83.475305" style="stroke: #000000; stroke-width: 0.5"/>
      </g>
     </g>
    </g>
    <g id="ytick_19">
     <g id="line2d_91">
      <g>
       <use xlink:href="#m8e909fefd2" x="22.214175" y="78.702578" style="stroke: #000000; stroke-width: 0.5"/>
      </g>
     </g>
     <g id="line2d_92">
      <g>
       <use xlink:href="#m8ec8b0914c" x="206.354175" y="78.702578" style="stroke: #000000; stroke-width: 0.5"/>
      </g>
     </g>
    </g>
    <g id="ytick_20">
     <g id="line2d_93">
      <g>
       <use xlink:href="#m8e909fefd2" x="22.214175" y="69.157124" style="stroke: #000000; stroke-width: 0.5"/>
      </g>
     </g>
     <g id="line2d_94">
      <g>
       <use xlink:href="#m8ec8b0914c" x="206.354175" y="69.157124" style="stroke: #000000; stroke-width: 0.5"/>
      </g>
     </g>
    </g>
    <g id="ytick_21">
     <g id="line2d_95">
      <g>
       <use xlink:href="#m8e909fefd2" x="22.214175" y="64.384396" style="stroke: #000000; stroke-width: 0.5"/>
      </g>
     </g>
     <g id="line2d_96">
      <g>
       <use xlink:href="#m8ec8b0914c" x="206.354175" y="64.384396" style="stroke: #000000; stroke-width: 0.5"/>
      </g>
     </g>
    </g>
    <g id="ytick_22">
     <g id="line2d_97">
      <g>
       <use xlink:href="#m8e909fefd2" x="22.214175" y="59.611669" style="stroke: #000000; stroke-width: 0.5"/>
      </g>
     </g>
     <g id="line2d_98">
      <g>
       <use xlink:href="#m8ec8b0914c" x="206.354175" y="59.611669" style="stroke: #000000; stroke-width: 0.5"/>
      </g>
     </g>
    </g>
    <g id="ytick_23">
     <g id="line2d_99">
      <g>
       <use xlink:href="#m8e909fefd2" x="22.214175" y="54.838942" style="stroke: #000000; stroke-width: 0.5"/>
      </g>
     </g>
     <g id="line2d_100">
      <g>
       <use xlink:href="#m8ec8b0914c" x="206.354175" y="54.838942" style="stroke: #000000; stroke-width: 0.5"/>
      </g>
     </g>
    </g>
    <g id="ytick_24">
     <g id="line2d_101">
      <g>
       <use xlink:href="#m8e909fefd2" x="22.214175" y="45.293487" style="stroke: #000000; stroke-width: 0.5"/>
      </g>
     </g>
     <g id="line2d_102">
      <g>
       <use xlink:href="#m8ec8b0914c" x="206.354175" y="45.293487" style="stroke: #000000; stroke-width: 0.5"/>
      </g>
     </g>
    </g>
    <g id="ytick_25">
     <g id="line2d_103">
      <g>
       <use xlink:href="#m8e909fefd2" x="22.214175" y="40.52076" style="stroke: #000000; stroke-width: 0.5"/>
      </g>
     </g>
     <g id="line2d_104">
      <g>
       <use xlink:href="#m8ec8b0914c" x="206.354175" y="40.52076" style="stroke: #000000; stroke-width: 0.5"/>
      </g>
     </g>
    </g>
    <g id="ytick_26">
     <g id="line2d_105">
      <g>
       <use xlink:href="#m8e909fefd2" x="22.214175" y="35.748033" style="stroke: #000000; stroke-width: 0.5"/>
      </g>
     </g>
     <g id="line2d_106">
      <g>
       <use xlink:href="#m8ec8b0914c" x="206.354175" y="35.748033" style="stroke: #000000; stroke-width: 0.5"/>
      </g>
     </g>
    </g>
    <g id="ytick_27">
     <g id="line2d_107">
      <g>
       <use xlink:href="#m8e909fefd2" x="22.214175" y="30.975305" style="stroke: #000000; stroke-width: 0.5"/>
      </g>
     </g>
     <g id="line2d_108">
      <g>
       <use xlink:href="#m8ec8b0914c" x="206.354175" y="30.975305" style="stroke: #000000; stroke-width: 0.5"/>
      </g>
     </g>
    </g>
    <g id="ytick_28">
     <g id="line2d_109">
      <g>
       <use xlink:href="#m8e909fefd2" x="22.214175" y="21.429851" style="stroke: #000000; stroke-width: 0.5"/>
      </g>
     </g>
     <g id="line2d_110">
      <g>
       <use xlink:href="#m8ec8b0914c" x="206.354175" y="21.429851" style="stroke: #000000; stroke-width: 0.5"/>
      </g>
     </g>
    </g>
    <g id="ytick_29">
     <g id="line2d_111">
      <g>
       <use xlink:href="#m8e909fefd2" x="22.214175" y="16.657124" style="stroke: #000000; stroke-width: 0.5"/>
      </g>
     </g>
     <g id="line2d_112">
      <g>
       <use xlink:href="#m8ec8b0914c" x="206.354175" y="16.657124" style="stroke: #000000; stroke-width: 0.5"/>
      </g>
     </g>
    </g>
    <g id="text_13">
     <!-- V -->
     <g transform="translate(9.003656 88.261592) rotate(-90) scale(0.08 -0.08)">
      <defs>
       <path id="NimbusRomNo9L-Regu-56" d="M 4461 4231 
L 3149 4231 
L 3149 4096 
C 3501 4096 3616 4026 3616 3846 
C 3616 3744 3571 3572 3494 3380 
L 2554 1033 
L 1587 3199 
C 1376 3667 1325 3814 1325 3910 
C 1325 4032 1414 4096 1619 4096 
C 1645 4096 1715 4096 1805 4109 
L 1805 4231 
L 102 4231 
L 102 4096 
C 416 4096 506 4007 781 3439 
L 2355 -64 
L 2451 -64 
L 3872 3521 
C 4083 4026 4154 4096 4461 4096 
L 4461 4231 
z
" transform="scale(0.015625)"/>
      </defs>
      <use xlink:href="#NimbusRomNo9L-Regu-56" transform="scale(0.996264)"/>
     </g>
    </g>
   </g>
   <g id="line2d_113">
    <path d="M 30.584175 146.475305 
L 30.718149 147.429851 
L 30.986096 147.429851 
L 31.120069 148.384396 
L 31.254043 147.429851 
L 31.52199 147.429851 
L 31.655964 146.475305 
L 32.526792 146.475305 
L 32.593779 145.52076 
L 32.727753 146.475305 
L 33.933515 146.475305 
L 34.067488 147.429851 
L 34.536396 147.429851 
L 34.67037 146.475305 
L 35.608185 146.475305 
L 35.742158 147.429851 
L 36.010105 147.429851 
L 36.144079 148.384396 
L 36.278053 147.429851 
L 36.546 147.429851 
L 36.679973 146.475305 
L 36.947921 146.475305 
L 37.081894 147.429851 
L 38.22067 147.429851 
L 38.354643 146.475305 
L 38.555604 146.475305 
L 38.689577 145.52076 
L 38.957524 145.52076 
L 39.158485 147.429851 
L 39.560406 147.429851 
L 39.694379 146.475305 
L 39.828353 146.475305 
L 39.962326 145.52076 
L 40.0963 146.475305 
L 40.565208 146.475305 
L 40.699181 145.52076 
L 40.833155 146.475305 
L 40.967128 146.475305 
L 41.101102 147.429851 
L 41.570009 147.429851 
L 41.636996 146.475305 
L 41.77097 147.429851 
L 42.038917 147.429851 
L 42.172891 148.384396 
L 42.306864 147.429851 
L 42.574811 147.429851 
L 42.708785 146.475305 
L 42.842759 146.475305 
L 42.976732 145.52076 
L 43.110706 146.475305 
L 43.579613 146.475305 
L 43.713587 145.52076 
L 43.981534 145.52076 
L 44.182494 147.429851 
L 44.316468 147.429851 
L 44.450442 148.384396 
L 44.584415 148.384396 
L 44.718389 147.429851 
L 44.919349 147.429851 
L 45.053323 146.475305 
L 45.32127 146.475305 
L 45.455244 147.429851 
L 47.263887 147.429851 
L 47.397861 146.475305 
L 47.531834 146.475305 
L 47.665808 145.52076 
L 47.866768 147.429851 
L 48.067729 147.429851 
L 48.134715 148.384396 
L 48.268689 147.429851 
L 48.402663 147.429851 
L 48.536636 148.384396 
L 48.67061 147.429851 
L 48.804583 147.429851 
L 49.005544 145.52076 
L 49.07253 145.52076 
L 49.206504 146.475305 
L 49.608425 146.475305 
L 49.742398 145.52076 
L 50.34528 145.52076 
L 50.479253 146.475305 
L 50.7472 146.475305 
L 50.881174 147.429851 
L 51.015148 146.475305 
L 51.283095 146.475305 
L 51.417068 145.52076 
L 51.685015 145.52076 
L 51.818989 146.475305 
L 52.287897 146.475305 
L 52.354883 145.52076 
L 52.488857 146.475305 
L 54.364487 146.475305 
L 54.498461 147.429851 
L 54.967368 147.429851 
L 55.101342 146.475305 
L 55.369289 146.475305 
L 55.503263 147.429851 
L 55.77121 147.429851 
L 55.905184 148.384396 
L 56.039157 147.429851 
L 56.307104 147.429851 
L 56.441078 146.475305 
L 56.575051 146.475305 
L 56.709025 145.52076 
L 56.909985 147.429851 
L 57.311906 147.429851 
L 57.378893 146.475305 
L 57.512867 147.429851 
L 58.986576 147.429851 
L 59.12055 146.475305 
L 59.388497 146.475305 
L 59.52247 147.429851 
L 59.790418 147.429851 
L 59.924391 148.384396 
L 60.058365 147.429851 
L 60.326312 147.429851 
L 60.460286 146.475305 
L 60.594259 146.475305 
L 60.728233 145.52076 
L 60.862206 146.475305 
L 61.331114 146.475305 
L 61.465087 145.52076 
L 61.733035 145.52076 
L 61.867008 146.475305 
L 62.402903 146.475305 
L 62.536876 147.429851 
L 62.804823 147.429851 
L 62.938797 148.384396 
L 63.072771 147.429851 
L 63.340718 147.429851 
L 63.407705 146.475305 
L 63.541678 147.429851 
L 64.680454 147.429851 
L 64.74744 146.475305 
L 64.881414 147.429851 
L 65.350322 147.429851 
L 65.484295 146.475305 
L 66.757044 146.475305 
L 66.891018 147.429851 
L 67.091978 147.429851 
L 67.225952 148.384396 
L 67.359925 148.384396 
L 67.493899 147.429851 
L 67.560886 147.429851 
L 67.761846 145.52076 
L 67.828833 145.52076 
L 67.962807 146.475305 
L 69.436516 146.475305 
L 69.57049 147.429851 
L 70.709265 147.429851 
L 70.843239 146.475305 
L 71.714067 146.475305 
L 71.848041 145.52076 
L 71.982014 145.52076 
L 72.115988 144.566214 
L 72.316948 146.475305 
L 72.517909 146.475305 
L 72.584895 147.429851 
L 72.718869 146.475305 
L 73.12079 146.475305 
L 73.254763 147.429851 
L 73.723671 147.429851 
L 73.790658 146.475305 
L 73.924631 147.429851 
L 74.79546 147.429851 
L 74.929433 148.384396 
L 75.264367 148.384396 
L 75.465328 146.475305 
L 75.800262 146.475305 
L 75.934235 147.429851 
L 76.403143 147.429851 
L 76.537116 146.475305 
L 77.139997 146.475305 
L 77.273971 147.429851 
L 77.541918 147.429851 
L 77.675892 148.384396 
L 77.809865 147.429851 
L 78.077813 147.429851 
L 78.211786 146.475305 
L 78.747681 146.475305 
L 78.881654 145.52076 
L 79.149601 145.52076 
L 79.283575 146.475305 
L 79.484535 146.475305 
L 79.618509 147.429851 
L 79.886456 147.429851 
L 80.02043 148.384396 
L 80.154403 147.429851 
L 80.42235 147.429851 
L 80.556324 146.475305 
L 81.762086 146.475305 
L 81.89606 145.52076 
L 82.164007 145.52076 
L 82.297981 146.475305 
L 82.766888 146.475305 
L 82.900862 145.52076 
L 83.503743 145.52076 
L 83.637717 146.475305 
L 83.905664 146.475305 
L 84.039637 147.429851 
L 84.173611 146.475305 
L 84.441558 146.475305 
L 84.575532 145.52076 
L 84.843479 145.52076 
L 84.977452 146.475305 
L 85.44636 146.475305 
L 85.513347 145.52076 
L 85.64732 146.475305 
L 85.915268 146.475305 
L 86.049241 147.429851 
L 86.183215 146.475305 
L 86.451162 146.475305 
L 86.585135 145.52076 
L 86.853083 145.52076 
L 86.987056 146.475305 
L 87.857885 146.475305 
L 87.991858 147.429851 
L 88.460766 147.429851 
L 88.527753 146.475305 
L 88.661726 147.429851 
L 89.130634 147.429851 
L 89.264607 146.475305 
L 90.537356 146.475305 
L 90.67133 147.429851 
L 91.140238 147.429851 
L 91.274211 146.475305 
L 91.408185 147.429851 
L 91.542158 147.429851 
L 91.676132 148.384396 
L 92.011066 148.384396 
L 92.212026 146.475305 
L 92.412987 146.475305 
L 92.54696 145.52076 
L 92.680934 146.475305 
L 92.948881 146.475305 
L 93.082855 147.429851 
L 93.216828 146.475305 
L 93.484775 146.475305 
L 93.618749 145.52076 
L 93.752723 145.52076 
L 93.886696 144.566214 
L 94.087657 146.475305 
L 94.489577 146.475305 
L 94.556564 145.52076 
L 94.690538 146.475305 
L 96.901102 146.475305 
L 97.035075 147.429851 
L 97.503983 147.429851 
L 97.57097 146.475305 
L 97.704943 147.429851 
L 98.173851 147.429851 
L 98.307825 146.475305 
L 98.843719 146.475305 
L 98.910706 145.52076 
L 99.044679 146.475305 
L 99.513587 146.475305 
L 99.580574 145.52076 
L 99.714547 146.475305 
L 104.269649 146.475305 
L 104.403623 147.429851 
L 104.604583 147.429851 
L 104.738557 148.384396 
L 104.87253 148.384396 
L 105.006504 147.429851 
L 105.073491 147.429851 
L 105.274451 145.52076 
L 105.341438 145.52076 
L 105.475412 146.475305 
L 105.877332 146.475305 
L 106.011306 145.52076 
L 106.279253 145.52076 
L 106.413227 146.475305 
L 106.614187 146.475305 
L 106.748161 147.429851 
L 107.016108 147.429851 
L 107.150081 148.384396 
L 107.284055 147.429851 
L 107.552002 147.429851 
L 107.685976 146.475305 
L 107.953923 146.475305 
L 108.087897 147.429851 
L 108.556804 147.429851 
L 108.690778 146.475305 
L 108.824751 146.475305 
L 108.958725 145.52076 
L 109.092699 146.475305 
L 109.561606 146.475305 
L 109.628593 145.52076 
L 109.762566 146.475305 
L 110.030514 146.475305 
L 110.164487 147.429851 
L 110.298461 146.475305 
L 110.499421 146.475305 
L 110.633395 145.52076 
L 110.834355 147.429851 
L 110.968329 147.429851 
L 111.102302 148.384396 
L 111.236276 148.384396 
L 111.37025 147.429851 
L 111.437236 147.429851 
L 111.638197 145.52076 
L 111.973131 145.52076 
L 112.107104 146.475305 
L 113.24588 146.475305 
L 113.379853 145.52076 
L 113.580814 145.52076 
L 113.714787 144.566214 
L 113.915748 144.566214 
L 114.049721 143.611669 
L 114.250682 143.611669 
L 114.384655 142.657124 
L 114.786576 142.657124 
L 114.987536 140.748033 
L 115.054523 140.748033 
L 115.657404 133.111669 
L 115.724391 133.111669 
L 116.930154 114.975305 
L 117.198101 110.202578 
L 117.399061 106.384396 
L 117.800982 97.793487 
L 118.135916 92.066214 
L 118.67181 79.657124 
L 119.274691 70.111669 
L 119.542639 65.338942 
L 120.279493 53.884396 
L 120.614427 47.202578 
L 121.351282 37.657124 
L 121.418269 37.657124 
L 122.02115 30.02076 
L 122.088137 30.02076 
L 122.22211 29.066214 
L 122.289097 29.066214 
L 122.423071 28.111669 
L 122.490057 28.111669 
L 122.691018 26.202578 
L 122.958965 26.202578 
L 123.092939 25.248033 
L 123.293899 25.248033 
L 123.427873 24.293487 
L 123.561846 24.293487 
L 123.69582 23.338942 
L 123.829793 24.293487 
L 124.365688 24.293487 
L 124.499661 25.248033 
L 124.700622 25.248033 
L 124.834595 26.202578 
L 124.968569 26.202578 
L 125.102542 25.248033 
L 125.169529 25.248033 
L 125.37049 23.338942 
L 125.705424 23.338942 
L 125.839397 24.293487 
L 127.648041 24.293487 
L 127.715027 23.338942 
L 127.849001 24.293487 
L 128.317909 24.293487 
L 128.451882 23.338942 
L 128.719829 23.338942 
L 128.853803 24.293487 
L 129.322711 24.293487 
L 129.389697 23.338942 
L 129.523671 24.293487 
L 129.992578 24.293487 
L 130.059565 23.338942 
L 130.193539 24.293487 
L 131.332314 24.293487 
L 131.399301 23.338942 
L 131.533275 24.293487 
L 134.34672 24.293487 
L 134.413707 23.338942 
L 134.547681 24.293487 
L 134.815628 24.293487 
L 134.949601 25.248033 
L 135.083575 24.293487 
L 135.351522 24.293487 
L 135.485496 23.338942 
L 135.619469 23.338942 
L 135.753443 22.384396 
L 135.887416 23.338942 
L 137.428113 23.338942 
L 137.562086 24.293487 
L 137.763047 24.293487 
L 137.89702 25.248033 
L 138.365928 25.248033 
L 138.499901 24.293487 
L 139.37073 24.293487 
L 139.504703 23.338942 
L 139.638677 24.293487 
L 139.772651 24.293487 
L 139.906624 25.248033 
L 140.509505 25.248033 
L 140.643479 26.202578 
L 140.777452 25.248033 
L 140.911426 25.248033 
L 141.112386 23.338942 
L 141.44732 23.338942 
L 141.581294 24.293487 
L 143.389937 24.293487 
L 143.456924 23.338942 
L 143.590898 24.293487 
L 144.059805 24.293487 
L 144.193779 23.338942 
L 144.461726 23.338942 
L 144.5957 24.293487 
L 146.069409 24.293487 
L 146.203383 23.338942 
L 148.146 23.338942 
L 148.279973 24.293487 
L 148.547921 24.293487 
L 148.681894 25.248033 
L 148.815868 24.293487 
L 149.083815 24.293487 
L 149.217789 23.338942 
L 150.155604 23.338942 
L 150.289577 24.293487 
L 150.758485 24.293487 
L 150.825472 23.338942 
L 150.959445 24.293487 
L 151.227392 24.293487 
L 151.361366 25.248033 
L 151.49534 24.293487 
L 151.763287 24.293487 
L 151.89726 23.338942 
L 153.170009 23.338942 
L 153.303983 24.293487 
L 153.772891 24.293487 
L 153.906864 23.338942 
L 154.442759 23.338942 
L 154.509745 22.384396 
L 154.643719 23.338942 
L 155.849481 23.338942 
L 155.983455 24.293487 
L 156.452362 24.293487 
L 156.519349 23.338942 
L 156.653323 24.293487 
L 157.12223 24.293487 
L 157.189217 23.338942 
L 157.323191 24.293487 
L 157.591138 24.293487 
L 157.725111 25.248033 
L 157.859085 24.293487 
L 158.127032 24.293487 
L 158.194019 23.338942 
L 158.327993 24.293487 
L 158.59594 24.293487 
L 158.729913 25.248033 
L 158.863887 24.293487 
L 159.131834 24.293487 
L 159.265808 23.338942 
L 159.533755 23.338942 
L 159.667729 24.293487 
L 160.136636 24.293487 
L 160.203623 23.338942 
L 160.337596 24.293487 
L 160.806504 24.293487 
L 160.940478 23.338942 
L 161.208425 23.338942 
L 161.342398 24.293487 
L 161.610346 24.293487 
L 161.744319 25.248033 
L 161.878293 24.293487 
L 162.14624 24.293487 
L 162.213227 23.338942 
L 162.3472 24.293487 
L 163.552963 24.293487 
L 163.686936 25.248033 
L 164.155844 25.248033 
L 164.289817 24.293487 
L 165.562566 24.293487 
L 165.69654 25.248033 
L 166.165448 25.248033 
L 166.232434 24.293487 
L 166.366408 25.248033 
L 166.634355 25.248033 
L 166.768329 26.202578 
L 166.902302 25.248033 
L 167.17025 25.248033 
L 167.304223 24.293487 
L 169.179853 24.293487 
L 169.313827 23.338942 
L 170.586576 23.338942 
L 170.72055 24.293487 
L 170.988497 24.293487 
L 171.12247 25.248033 
L 171.256444 24.293487 
L 171.524391 24.293487 
L 171.591378 23.338942 
L 171.725352 24.293487 
L 172.194259 24.293487 
L 172.328233 23.338942 
L 172.59618 23.338942 
L 172.79714 25.248033 
L 172.931114 25.248033 
L 173.065087 26.202578 
L 173.199061 26.202578 
L 173.333035 25.248033 
L 173.533995 25.248033 
L 173.667969 24.293487 
L 174.203863 24.293487 
L 174.337837 23.338942 
L 174.605784 23.338942 
L 174.739757 24.293487 
L 175.208665 24.293487 
L 175.342639 23.338942 
L 175.610586 23.338942 
L 175.744559 24.293487 
L 176.213467 24.293487 
L 176.34744 23.338942 
L 176.615388 23.338942 
L 176.749361 24.293487 
L 177.017308 24.293487 
L 177.151282 25.248033 
L 177.285256 24.293487 
L 177.553203 24.293487 
L 177.62019 23.338942 
L 177.754163 24.293487 
L 178.02211 24.293487 
L 178.156084 25.248033 
L 178.290057 24.293487 
L 178.558005 24.293487 
L 178.691978 23.338942 
L 178.959925 23.338942 
L 179.093899 24.293487 
L 179.361846 24.293487 
L 179.49582 25.248033 
L 179.629793 24.293487 
L 179.897741 24.293487 
L 179.964727 23.338942 
L 180.098701 24.293487 
L 180.366648 24.293487 
L 180.500622 25.248033 
L 180.634595 24.293487 
L 180.902542 24.293487 
L 181.036516 23.338942 
L 181.304463 23.338942 
L 181.438437 24.293487 
L 181.907344 24.293487 
L 182.041318 23.338942 
L 182.175292 23.338942 
L 182.309265 22.384396 
L 182.443239 23.338942 
L 182.912146 23.338942 
L 182.979133 22.384396 
L 183.113107 23.338942 
L 183.649001 23.338942 
L 183.782975 24.293487 
L 184.92175 24.293487 
L 184.988737 23.338942 
L 185.122711 24.293487 
L 186.261486 24.293487 
L 186.39546 23.338942 
L 186.663407 23.338942 
L 186.79738 24.293487 
L 187.065328 24.293487 
L 187.199301 25.248033 
L 187.333275 24.293487 
L 187.601222 24.293487 
L 187.668209 23.338942 
L 187.802182 24.293487 
L 188.673011 24.293487 
L 188.806984 25.248033 
L 189.275892 25.248033 
L 189.409865 24.293487 
L 190.615628 24.293487 
L 190.749601 23.338942 
L 191.017548 23.338942 
L 191.151522 24.293487 
L 192.02235 24.293487 
L 192.156324 25.248033 
L 192.424271 25.248033 
L 192.558245 26.202578 
L 192.692218 25.248033 
L 192.960166 25.248033 
L 193.027152 24.293487 
L 193.161126 25.248033 
L 193.630033 25.248033 
L 193.830994 23.338942 
L 193.964967 23.338942 
L 194.098941 22.384396 
L 194.232915 23.338942 
L 194.366888 23.338942 
L 194.500862 24.293487 
L 194.969769 24.293487 
L 195.103743 23.338942 
L 196.041558 23.338942 
L 196.175532 24.293487 
L 197.984175 24.293487 
L 197.984175 24.293487 
" clip-path="url(#pc8bcedd9c5)" style="fill: none; stroke: #000000; stroke-linecap: square"/>
   </g>
   <g id="line2d_114">
    <path d="M 30.584175 144.566214 
L 30.718149 145.52076 
L 31.187056 145.52076 
L 31.32103 144.566214 
L 33.263647 144.566214 
L 33.39762 145.52076 
L 33.866528 145.52076 
L 34.000502 144.566214 
L 34.268449 144.566214 
L 34.402422 145.52076 
L 35.541198 145.52076 
L 35.675172 144.566214 
L 37.952723 144.566214 
L 38.086696 145.52076 
L 39.225472 145.52076 
L 39.359445 144.566214 
L 39.493419 144.566214 
L 39.627392 143.611669 
L 39.761366 144.566214 
L 40.230274 144.566214 
L 40.364247 143.611669 
L 40.498221 144.566214 
L 40.632194 144.566214 
L 40.766168 145.52076 
L 41.235075 145.52076 
L 41.302062 144.566214 
L 41.436036 145.52076 
L 41.904943 145.52076 
L 42.038917 144.566214 
L 42.641798 144.566214 
L 42.775772 145.52076 
L 43.043719 145.52076 
L 43.177693 146.475305 
L 43.311666 145.52076 
L 43.579613 145.52076 
L 43.713587 144.566214 
L 45.656204 144.566214 
L 45.790178 145.52076 
L 46.259085 145.52076 
L 46.393059 144.566214 
L 46.661006 144.566214 
L 46.794979 145.52076 
L 46.99594 145.52076 
L 47.129913 146.475305 
L 47.263887 146.475305 
L 47.397861 145.52076 
L 47.464847 145.52076 
L 47.665808 143.611669 
L 48.000742 143.611669 
L 48.134715 144.566214 
L 50.010346 144.566214 
L 50.144319 145.52076 
L 50.412266 145.52076 
L 50.54624 146.475305 
L 50.680214 145.52076 
L 50.948161 145.52076 
L 51.015148 144.566214 
L 51.149121 145.52076 
L 51.618029 145.52076 
L 51.752002 144.566214 
L 51.885976 144.566214 
L 52.019949 143.611669 
L 52.086936 143.611669 
L 52.22091 144.566214 
L 52.354883 144.566214 
L 52.488857 145.52076 
L 52.957765 145.52076 
L 53.091738 144.566214 
L 54.364487 144.566214 
L 54.498461 145.52076 
L 54.967368 145.52076 
L 55.101342 144.566214 
L 55.369289 144.566214 
L 55.503263 145.52076 
L 55.97217 145.52076 
L 56.039157 144.566214 
L 56.173131 145.52076 
L 57.311906 145.52076 
L 57.44588 144.566214 
L 57.713827 144.566214 
L 57.847801 145.52076 
L 58.316708 145.52076 
L 58.450682 144.566214 
L 59.053563 144.566214 
L 59.187536 145.52076 
L 59.388497 145.52076 
L 59.52247 146.475305 
L 59.857404 146.475305 
L 60.058365 144.566214 
L 60.661246 144.566214 
L 60.728233 143.611669 
L 60.862206 144.566214 
L 62.067969 144.566214 
L 62.201942 145.52076 
L 62.67085 145.52076 
L 62.737837 144.566214 
L 62.87181 145.52076 
L 63.340718 145.52076 
L 63.407705 144.566214 
L 63.541678 145.52076 
L 64.010586 145.52076 
L 64.144559 144.566214 
L 65.752242 144.566214 
L 65.886216 145.52076 
L 66.355123 145.52076 
L 66.489097 144.566214 
L 66.757044 144.566214 
L 66.891018 145.52076 
L 68.029793 145.52076 
L 68.09678 144.566214 
L 68.230754 145.52076 
L 68.498701 145.52076 
L 68.632675 146.475305 
L 68.766648 145.52076 
L 69.034595 145.52076 
L 69.168569 144.566214 
L 69.369529 144.566214 
L 69.503503 143.611669 
L 69.77145 143.611669 
L 69.97241 145.52076 
L 70.374331 145.52076 
L 70.508305 144.566214 
L 70.642278 144.566214 
L 70.776252 143.611669 
L 70.910226 144.566214 
L 71.379133 144.566214 
L 71.44612 143.611669 
L 71.580093 144.566214 
L 73.053803 144.566214 
L 73.187777 143.611669 
L 73.455724 143.611669 
L 73.589697 144.566214 
L 75.063407 144.566214 
L 75.19738 143.611669 
L 75.465328 143.611669 
L 75.599301 144.566214 
L 76.068209 144.566214 
L 76.202182 143.611669 
L 76.470129 143.611669 
L 76.604103 144.566214 
L 77.474931 144.566214 
L 77.608905 145.52076 
L 77.876852 145.52076 
L 78.010826 146.475305 
L 78.144799 145.52076 
L 78.412747 145.52076 
L 78.54672 144.566214 
L 79.417548 144.566214 
L 79.551522 143.611669 
L 79.819469 143.611669 
L 80.02043 145.52076 
L 80.154403 145.52076 
L 80.288377 146.475305 
L 80.42235 146.475305 
L 80.556324 145.52076 
L 80.623311 145.52076 
L 80.824271 143.611669 
L 81.159205 143.611669 
L 81.293179 144.566214 
L 81.494139 144.566214 
L 81.628113 145.52076 
L 81.89606 145.52076 
L 82.030033 146.475305 
L 82.164007 145.52076 
L 82.431954 145.52076 
L 82.565928 144.566214 
L 82.699901 144.566214 
L 82.833875 143.611669 
L 82.967849 144.566214 
L 84.173611 144.566214 
L 84.307584 145.52076 
L 84.508545 145.52076 
L 84.642518 146.475305 
L 84.776492 146.475305 
L 84.910466 145.52076 
L 84.977452 145.52076 
L 85.178413 143.611669 
L 85.513347 143.611669 
L 85.64732 144.566214 
L 85.915268 144.566214 
L 86.049241 145.52076 
L 86.183215 144.566214 
L 86.451162 144.566214 
L 86.518149 143.611669 
L 86.652122 144.566214 
L 86.920069 144.566214 
L 87.054043 145.52076 
L 87.188017 144.566214 
L 87.455964 144.566214 
L 87.589937 143.611669 
L 87.857885 143.611669 
L 88.058845 145.52076 
L 88.460766 145.52076 
L 88.594739 144.566214 
L 89.465568 144.566214 
L 89.599541 143.611669 
L 89.733515 144.566214 
L 89.867488 144.566214 
L 90.001462 145.52076 
L 90.47037 145.52076 
L 90.604343 144.566214 
L 90.87229 144.566214 
L 91.006264 145.52076 
L 91.207224 145.52076 
L 91.341198 146.475305 
L 91.475172 146.475305 
L 91.609145 145.52076 
L 91.676132 145.52076 
L 91.877092 143.611669 
L 92.212026 143.611669 
L 92.412987 145.52076 
L 92.613947 145.52076 
L 92.680934 146.475305 
L 92.814907 145.52076 
L 92.948881 145.52076 
L 93.082855 146.475305 
L 93.216828 145.52076 
L 93.350802 145.52076 
L 93.551762 143.611669 
L 93.618749 143.611669 
L 93.752723 144.566214 
L 94.154643 144.566214 
L 94.288617 143.611669 
L 94.42259 144.566214 
L 94.556564 144.566214 
L 94.690538 145.52076 
L 95.159445 145.52076 
L 95.226432 144.566214 
L 95.360406 145.52076 
L 95.829313 145.52076 
L 95.963287 144.566214 
L 96.09726 144.566214 
L 96.231234 143.611669 
L 96.365208 144.566214 
L 102.929913 144.566214 
L 103.063887 145.52076 
L 103.532795 145.52076 
L 103.666768 144.566214 
L 103.800742 144.566214 
L 103.934715 143.611669 
L 104.068689 144.566214 
L 104.537596 144.566214 
L 104.67157 143.611669 
L 104.939517 143.611669 
L 105.073491 144.566214 
L 105.341438 144.566214 
L 105.475412 145.52076 
L 105.609385 144.566214 
L 105.877332 144.566214 
L 105.944319 143.611669 
L 106.078293 144.566214 
L 106.5472 144.566214 
L 106.681174 143.611669 
L 106.949121 143.611669 
L 107.083095 144.566214 
L 107.618989 144.566214 
L 107.752963 145.52076 
L 108.22187 145.52076 
L 108.355844 144.566214 
L 108.891738 144.566214 
L 109.025712 143.611669 
L 109.159685 144.566214 
L 109.293659 144.566214 
L 109.427632 145.52076 
L 109.89654 145.52076 
L 110.030514 144.566214 
L 111.57121 144.566214 
L 111.638197 143.611669 
L 111.77217 144.566214 
L 111.973131 144.566214 
L 112.107104 145.52076 
L 112.241078 145.52076 
L 112.375051 144.566214 
L 112.442038 144.566214 
L 112.642999 142.657124 
L 112.709985 142.657124 
L 113.24588 134.066214 
L 113.915748 112.111669 
L 114.719589 81.566214 
L 115.255484 69.157124 
L 115.523431 66.293487 
L 115.590418 66.293487 
L 115.724391 65.338942 
L 115.858365 65.338942 
L 115.992338 64.384396 
L 116.327272 64.384396 
L 116.461246 65.338942 
L 116.528233 65.338942 
L 116.79618 68.202578 
L 116.863167 68.202578 
L 117.064127 70.111669 
L 117.131114 70.111669 
L 117.265087 71.066214 
L 117.332074 71.066214 
L 117.466048 72.02076 
L 118.001942 72.02076 
L 118.202903 73.929851 
L 118.336876 73.929851 
L 118.47085 74.884396 
L 118.939757 74.884396 
L 119.073731 73.929851 
L 119.944559 73.929851 
L 120.078533 72.975305 
L 120.14552 72.975305 
L 120.34648 71.066214 
L 120.614427 71.066214 
L 120.748401 70.111669 
L 120.949361 70.111669 
L 121.083335 69.157124 
L 121.150322 69.157124 
L 121.351282 67.248033 
L 121.485256 67.248033 
L 121.686216 65.338942 
L 121.887176 65.338942 
L 122.02115 64.384396 
L 122.624031 64.384396 
L 122.758005 63.429851 
L 123.293899 63.429851 
L 123.360886 62.475305 
L 123.494859 63.429851 
L 124.365688 63.429851 
L 124.499661 64.384396 
L 125.035556 64.384396 
L 125.169529 65.338942 
L 125.77241 65.338942 
L 125.906384 66.293487 
L 126.040358 65.338942 
L 126.174331 65.338942 
L 126.375292 63.429851 
L 126.442278 63.429851 
L 126.576252 64.384396 
L 126.777212 64.384396 
L 126.911186 65.338942 
L 127.04516 64.384396 
L 127.313107 64.384396 
L 127.44708 63.429851 
L 127.715027 63.429851 
L 127.849001 64.384396 
L 128.049961 64.384396 
L 128.183935 65.338942 
L 128.317909 65.338942 
L 128.451882 64.384396 
L 128.518869 64.384396 
L 128.719829 62.475305 
L 128.786816 62.475305 
L 128.92079 63.429851 
L 129.322711 63.429851 
L 129.389697 62.475305 
L 129.523671 63.429851 
L 130.662446 63.429851 
L 130.79642 62.475305 
L 131.734235 62.475305 
L 131.868209 63.429851 
L 132.739037 63.429851 
L 132.873011 64.384396 
L 133.341918 64.384396 
L 133.475892 63.429851 
L 135.083575 63.429851 
L 135.217548 64.384396 
L 135.485496 64.384396 
L 135.619469 65.338942 
L 135.753443 64.384396 
L 136.02139 64.384396 
L 136.155364 63.429851 
L 136.691258 63.429851 
L 136.825232 62.475305 
L 137.763047 62.475305 
L 137.89702 63.429851 
L 139.035796 63.429851 
L 139.169769 62.475305 
L 139.437717 62.475305 
L 139.57169 63.429851 
L 142.720069 63.429851 
L 142.854043 62.475305 
L 143.456924 62.475305 
L 143.657885 64.384396 
L 143.791858 64.384396 
L 143.925832 65.338942 
L 144.059805 65.338942 
L 144.193779 64.384396 
L 144.394739 64.384396 
L 144.528713 63.429851 
L 144.729673 63.429851 
L 144.863647 62.475305 
L 145.131594 62.475305 
L 145.265568 63.429851 
L 145.533515 63.429851 
L 145.667488 64.384396 
L 145.801462 63.429851 
L 146.069409 63.429851 
L 146.203383 62.475305 
L 147.141198 62.475305 
L 147.275172 63.429851 
L 147.543119 63.429851 
L 147.677092 64.384396 
L 147.811066 63.429851 
L 148.079013 63.429851 
L 148.212987 62.475305 
L 148.815868 62.475305 
L 148.949841 63.429851 
L 149.418749 63.429851 
L 149.552723 62.475305 
L 149.686696 62.475305 
L 149.82067 61.52076 
L 149.954643 62.475305 
L 151.428353 62.475305 
L 151.49534 61.52076 
L 151.629313 62.475305 
L 152.165208 62.475305 
L 152.299181 63.429851 
L 152.768089 63.429851 
L 152.902062 62.475305 
L 153.170009 62.475305 
L 153.303983 63.429851 
L 153.772891 63.429851 
L 153.839877 62.475305 
L 153.973851 63.429851 
L 154.442759 63.429851 
L 154.509745 62.475305 
L 154.643719 63.429851 
L 155.112626 63.429851 
L 155.179613 62.475305 
L 155.313587 63.429851 
L 155.581534 63.429851 
L 155.715508 64.384396 
L 155.849481 63.429851 
L 156.117428 63.429851 
L 156.184415 62.475305 
L 156.318389 63.429851 
L 156.787296 63.429851 
L 156.92127 62.475305 
L 158.461966 62.475305 
L 158.59594 61.52076 
L 158.863887 61.52076 
L 158.997861 62.475305 
L 159.533755 62.475305 
L 159.667729 63.429851 
L 159.935676 63.429851 
L 160.069649 64.384396 
L 160.203623 63.429851 
L 160.47157 63.429851 
L 160.605544 62.475305 
L 160.739517 62.475305 
L 160.873491 61.52076 
L 161.007464 62.475305 
L 163.485976 62.475305 
L 163.552963 61.52076 
L 163.686936 62.475305 
L 164.557765 62.475305 
L 164.691738 63.429851 
L 165.160646 63.429851 
L 165.294619 62.475305 
L 165.8975 62.475305 
L 166.031474 63.429851 
L 166.500382 63.429851 
L 166.634355 62.475305 
L 166.902302 62.475305 
L 167.036276 63.429851 
L 167.505184 63.429851 
L 167.639157 62.475305 
L 167.907104 62.475305 
L 168.041078 63.429851 
L 168.309025 63.429851 
L 168.442999 64.384396 
L 168.576972 63.429851 
L 168.844919 63.429851 
L 168.978893 62.475305 
L 169.24684 62.475305 
L 169.380814 63.429851 
L 170.519589 63.429851 
L 170.653563 62.475305 
L 170.92151 62.475305 
L 171.055484 63.429851 
L 171.256444 63.429851 
L 171.390418 64.384396 
L 171.725352 64.384396 
L 171.926312 62.475305 
L 172.261246 62.475305 
L 172.39522 63.429851 
L 174.538797 63.429851 
L 174.605784 62.475305 
L 174.739757 63.429851 
L 176.548401 63.429851 
L 176.615388 62.475305 
L 176.749361 63.429851 
L 177.017308 63.429851 
L 177.151282 64.384396 
L 177.285256 63.429851 
L 177.553203 63.429851 
L 177.687176 62.475305 
L 177.955123 62.475305 
L 178.089097 63.429851 
L 178.290057 63.429851 
L 178.424031 64.384396 
L 178.892939 64.384396 
L 179.026912 63.429851 
L 179.227873 63.429851 
L 179.361846 62.475305 
L 180.299661 62.475305 
L 180.433635 63.429851 
L 180.902542 63.429851 
L 180.969529 62.475305 
L 181.103503 63.429851 
L 181.57241 63.429851 
L 181.639397 62.475305 
L 181.773371 63.429851 
L 182.041318 63.429851 
L 182.175292 64.384396 
L 182.309265 63.429851 
L 182.577212 63.429851 
L 182.711186 62.475305 
L 182.979133 62.475305 
L 183.113107 63.429851 
L 186.261486 63.429851 
L 186.328473 62.475305 
L 186.462446 63.429851 
L 186.931354 63.429851 
L 187.065328 62.475305 
L 187.668209 62.475305 
L 187.802182 63.429851 
L 188.27109 63.429851 
L 188.405063 62.475305 
L 188.673011 62.475305 
L 188.873971 64.384396 
L 189.007945 64.384396 
L 189.141918 65.338942 
L 189.275892 65.338942 
L 189.409865 64.384396 
L 189.476852 64.384396 
L 189.677813 62.475305 
L 189.744799 62.475305 
L 189.878773 63.429851 
L 190.280694 63.429851 
L 190.347681 62.475305 
L 190.481654 63.429851 
L 191.687416 63.429851 
L 191.82139 64.384396 
L 192.02235 64.384396 
L 192.156324 65.338942 
L 192.290298 65.338942 
L 192.424271 64.384396 
L 192.491258 64.384396 
L 192.692218 62.475305 
L 192.759205 62.475305 
L 192.893179 63.429851 
L 193.094139 63.429851 
L 193.228113 64.384396 
L 193.362086 63.429851 
L 193.630033 63.429851 
L 193.69702 62.475305 
L 193.830994 63.429851 
L 195.974571 63.429851 
L 196.108545 62.475305 
L 196.376492 62.475305 
L 196.510466 63.429851 
L 197.649241 63.429851 
L 197.783215 62.475305 
L 197.917188 63.429851 
L 197.984175 63.429851 
L 197.984175 63.429851 
" clip-path="url(#pc8bcedd9c5)" style="fill: none; stroke-dasharray: 3.7,1.6; stroke-dashoffset: 0; stroke: #ff0000"/>
   </g>
   <g id="patch_3">
    <path d="M 22.214175 154.684396 
L 22.214175 16.084396 
" style="fill: none; stroke: #000000; stroke-width: 0.5; stroke-linejoin: miter; stroke-linecap: square"/>
   </g>
   <g id="patch_4">
    <path d="M 206.354175 154.684396 
L 206.354175 16.084396 
" style="fill: none; stroke: #000000; stroke-width: 0.5; stroke-linejoin: miter; stroke-linecap: square"/>
   </g>
   <g id="patch_5">
    <path d="M 22.214175 154.684396 
L 206.354175 154.684396 
" style="fill: none; stroke: #000000; stroke-width: 0.5; stroke-linejoin: miter; stroke-linecap: square"/>
   </g>
   <g id="patch_6">
    <path d="M 22.214175 16.084396 
L 206.354175 16.084396 
" style="fill: none; stroke: #000000; stroke-width: 0.5; stroke-linejoin: miter; stroke-linecap: square"/>
   </g>
   <g id="text_14">
    <!-- Waveforms with different loads -->
    <g transform="translate(53.997228 10.084396) scale(0.096 -0.096)">
     <defs>
      <path id="NimbusRomNo9L-Regu-57" d="M 5965 4224 
L 4698 4224 
L 4698 4102 
C 5024 4070 5139 4000 5139 3826 
C 5139 3692 5101 3524 5037 3345 
L 4237 1169 
L 3392 3358 
C 3379 3390 3322 3531 3315 3551 
C 3258 3685 3219 3807 3219 3877 
C 3219 4032 3366 4096 3712 4096 
L 3712 4224 
L 2003 4224 
L 2003 4096 
C 2368 4096 2432 4038 2650 3524 
L 2861 2998 
L 2176 1188 
L 1254 3612 
C 1210 3728 1184 3838 1184 3909 
C 1184 4051 1274 4096 1600 4096 
L 1600 4224 
L 32 4224 
L 32 4102 
C 358 4070 454 3955 691 3351 
L 1926 -96 
L 2022 -96 
L 3008 2619 
L 4032 -96 
L 4128 -96 
C 4672 1579 4736 1759 5434 3647 
C 5555 3981 5626 4038 5965 4102 
L 5965 4224 
z
" transform="scale(0.015625)"/>
      <path id="NimbusRomNo9L-Regu-61" d="M 2829 423 
C 2720 333 2643 301 2547 301 
C 2400 301 2355 390 2355 672 
L 2355 1920 
C 2355 2253 2323 2438 2227 2592 
C 2086 2822 1811 2944 1434 2944 
C 832 2944 358 2630 358 2227 
C 358 2080 486 1952 634 1952 
C 787 1952 922 2080 922 2221 
C 922 2246 915 2278 909 2323 
C 896 2381 890 2432 890 2477 
C 890 2650 1094 2790 1350 2790 
C 1664 2790 1837 2605 1837 2259 
L 1837 1869 
C 851 1472 742 1421 467 1178 
C 326 1050 237 832 237 621 
C 237 218 518 -64 909 -64 
C 1190 -64 1453 70 1843 403 
C 1875 70 1990 -64 2253 -64 
C 2470 -64 2605 13 2829 256 
L 2829 423 
z
M 1837 783 
C 1837 584 1805 526 1670 449 
C 1517 359 1338 301 1203 301 
C 979 301 800 520 800 796 
L 800 822 
C 800 1201 1062 1433 1837 1715 
L 1837 783 
z
" transform="scale(0.015625)"/>
      <path id="NimbusRomNo9L-Regu-76" d="M 3053 2854 
L 2163 2854 
L 2163 2758 
C 2368 2739 2464 2675 2464 2552 
C 2464 2488 2451 2424 2426 2359 
L 1792 695 
L 1139 2340 
C 1101 2431 1082 2520 1082 2578 
C 1082 2694 1152 2739 1376 2758 
L 1376 2854 
L 122 2854 
L 122 2752 
C 365 2752 410 2688 704 2024 
L 1472 175 
C 1485 137 1504 91 1523 40 
C 1562 -76 1600 -128 1638 -128 
C 1677 -128 1722 -44 1818 193 
L 2637 2257 
C 2822 2694 2861 2739 3053 2758 
L 3053 2854 
z
" transform="scale(0.015625)"/>
      <path id="NimbusRomNo9L-Regu-65" d="M 2611 1053 
C 2304 564 2029 378 1619 378 
C 1254 378 979 564 794 930 
C 678 1174 634 1386 621 1779 
L 2592 1779 
C 2541 2193 2477 2377 2317 2581 
C 2125 2811 1830 2944 1498 2944 
C 1178 2944 877 2829 634 2611 
C 333 2349 160 1894 160 1370 
C 160 486 621 -64 1357 -64 
C 1965 -64 2445 315 2714 1008 
L 2611 1053 
z
M 634 1984 
C 704 2479 922 2714 1312 2714 
C 1702 2714 1856 2535 1939 1984 
L 634 1984 
z
" transform="scale(0.015625)"/>
      <path id="NimbusRomNo9L-Regu-66" d="M 1978 2880 
L 1190 2880 
L 1190 3611 
C 1190 3978 1312 4173 1555 4173 
C 1690 4173 1779 4110 1894 3927 
C 1997 3763 2074 3700 2182 3700 
C 2330 3700 2451 3814 2451 3959 
C 2451 4188 2170 4352 1786 4352 
C 1389 4352 1050 4181 883 3891 
C 717 3613 666 3385 659 2880 
L 134 2880 
L 134 2675 
L 659 2675 
L 659 656 
C 659 185 589 109 128 109 
L 128 0 
L 1792 0 
L 1792 109 
C 1267 109 1197 180 1197 661 
L 1197 2675 
L 1978 2675 
L 1978 2880 
z
" transform="scale(0.015625)"/>
      <path id="NimbusRomNo9L-Regu-6f" d="M 1600 2944 
C 768 2944 186 2330 186 1446 
C 186 582 781 -64 1587 -64 
C 2394 -64 3008 614 3008 1498 
C 3008 2336 2419 2944 1600 2944 
z
M 1517 2765 
C 2054 2765 2432 2150 2432 1274 
C 2432 550 2144 115 1664 115 
C 1414 115 1178 269 1043 525 
C 864 858 762 1306 762 1760 
C 762 2368 1062 2765 1517 2765 
z
" transform="scale(0.015625)"/>
      <path id="NimbusRomNo9L-Regu-72" d="M 45 2496 
C 134 2515 192 2522 269 2522 
C 429 2522 486 2419 486 2138 
L 486 538 
C 486 218 442 173 32 96 
L 32 0 
L 1568 0 
L 1568 102 
C 1133 102 1024 199 1024 565 
L 1024 2013 
C 1024 2219 1299 2541 1472 2541 
C 1510 2541 1568 2509 1638 2445 
C 1741 2355 1811 2317 1894 2317 
C 2048 2317 2144 2426 2144 2605 
C 2144 2816 2010 2944 1792 2944 
C 1523 2944 1338 2797 1024 2343 
L 1024 2931 
L 992 2944 
C 653 2803 422 2721 45 2599 
L 45 2496 
z
" transform="scale(0.015625)"/>
      <path id="NimbusRomNo9L-Regu-6d" d="M 122 2547 
C 205 2566 256 2573 326 2573 
C 493 2573 550 2470 550 2162 
L 550 539 
C 550 192 461 96 102 96 
L 102 0 
L 1523 0 
L 1523 96 
C 1184 96 1088 166 1088 418 
L 1088 2234 
C 1088 2246 1139 2310 1184 2355 
C 1344 2502 1619 2611 1843 2611 
C 2125 2611 2266 2385 2266 1932 
L 2266 528 
C 2266 167 2195 96 1830 96 
L 1830 0 
L 3264 0 
L 3264 96 
C 2899 96 2803 205 2803 603 
L 2803 2221 
C 2995 2496 3206 2611 3501 2611 
C 3866 2611 3981 2438 3981 1907 
L 3981 557 
C 3981 192 3930 141 3558 96 
L 3558 0 
L 4960 0 
L 4960 96 
L 4794 115 
C 4602 115 4518 230 4518 480 
L 4518 1802 
C 4518 2559 4269 2944 3776 2944 
C 3405 2944 3078 2778 2733 2407 
C 2618 2771 2400 2944 2054 2944 
C 1773 2944 1594 2854 1062 2451 
L 1062 2931 
L 1018 2944 
C 691 2822 474 2752 122 2656 
L 122 2547 
z
" transform="scale(0.015625)"/>
      <path id="NimbusRomNo9L-Regu-77" d="M 3654 2912 
L 3654 2816 
C 3872 2771 3936 2726 3936 2618 
C 3936 2521 3898 2367 3827 2194 
L 3251 770 
L 2714 2207 
C 2605 2501 2605 2501 2605 2586 
C 2605 2726 2675 2771 2976 2816 
L 2976 2912 
L 1677 2912 
L 1677 2816 
C 1914 2790 1990 2720 2118 2373 
C 2163 2252 2208 2129 2246 2014 
L 1664 738 
L 1030 2412 
C 1005 2476 992 2540 992 2605 
C 992 2739 1069 2790 1286 2816 
L 1286 2912 
L 134 2912 
L 134 2816 
C 282 2803 333 2739 474 2412 
L 1338 219 
C 1414 26 1466 -64 1504 -64 
C 1536 -64 1587 20 1664 186 
L 2381 1725 
L 2963 212 
C 3053 -25 3078 -64 3117 -64 
C 3162 -64 3194 -6 3296 251 
L 4179 2469 
C 4294 2739 4314 2771 4442 2816 
L 4442 2912 
L 3654 2912 
z
" transform="scale(0.015625)"/>
      <path id="NimbusRomNo9L-Regu-69" d="M 1120 2929 
L 128 2579 
L 128 2484 
L 179 2490 
C 256 2502 339 2509 397 2509 
C 550 2509 608 2406 608 2125 
L 608 640 
C 608 179 544 109 102 109 
L 102 0 
L 1619 0 
L 1619 96 
C 1197 128 1146 191 1146 650 
L 1146 2910 
L 1120 2929 
z
M 819 4352 
C 646 4352 499 4205 499 4026 
C 499 3847 640 3699 819 3699 
C 1005 3699 1152 3840 1152 4026 
C 1152 4205 1005 4352 819 4352 
z
" transform="scale(0.015625)"/>
      <path id="NimbusRomNo9L-Regu-74" d="M 1632 2880 
L 986 2880 
L 986 3622 
C 986 3686 979 3706 941 3706 
C 896 3648 858 3590 813 3526 
C 570 3174 294 2867 192 2841 
C 122 2794 83 2748 83 2715 
C 83 2695 90 2682 109 2682 
L 448 2682 
L 448 751 
C 448 212 640 -64 1018 -64 
C 1331 -64 1574 90 1786 423 
L 1702 493 
C 1568 333 1459 269 1318 269 
C 1082 269 986 443 986 847 
L 986 2682 
L 1632 2682 
L 1632 2880 
z
" transform="scale(0.015625)"/>
      <path id="NimbusRomNo9L-Regu-68" d="M 1005 2222 
C 1274 2516 1466 2624 1715 2624 
C 2035 2624 2195 2395 2195 1948 
L 2195 684 
C 2195 250 2131 166 1760 128 
L 1760 32 
L 3117 32 
L 3117 128 
C 2771 192 2733 243 2733 684 
L 2733 1954 
C 2733 2625 2464 2970 1946 2970 
C 1568 2970 1299 2816 1005 2432 
L 1005 4390 
L 973 4409 
C 755 4332 595 4281 237 4179 
L 64 4128 
L 64 4026 
C 90 4032 109 4032 141 4032 
C 416 4032 467 3980 467 3705 
L 467 686 
C 467 237 429 179 58 128 
L 58 32 
L 1440 32 
L 1440 128 
C 1069 166 1005 243 1005 684 
L 1005 2222 
z
" transform="scale(0.015625)"/>
      <path id="NimbusRomNo9L-Regu-64" d="M 2202 -64 
L 3142 269 
L 3142 365 
C 3027 365 3014 365 2995 365 
C 2765 365 2714 435 2714 731 
L 2714 4364 
L 2682 4377 
C 2374 4268 2150 4204 1741 4096 
L 1741 3994 
C 1792 4000 1830 4000 1882 4000 
C 2118 4000 2176 3936 2176 3672 
L 2176 2669 
C 1933 2874 1760 2944 1504 2944 
C 768 2944 173 2221 173 1312 
C 173 493 653 -64 1357 -64 
C 1715 -64 1958 64 2176 365 
L 2176 -45 
L 2202 -64 
z
M 2176 653 
C 2176 608 2131 531 2067 461 
C 1952 333 1792 269 1606 269 
C 1075 269 723 781 723 1568 
C 723 2291 1037 2765 1523 2765 
C 1862 2765 2176 2464 2176 2125 
L 2176 653 
z
" transform="scale(0.015625)"/>
      <path id="NimbusRomNo9L-Regu-6c" d="M 122 4000 
L 160 4000 
C 230 4000 307 4000 358 4000 
C 563 4000 627 3910 627 3610 
L 627 557 
C 627 211 538 128 134 96 
L 134 0 
L 1645 0 
L 1645 109 
C 1242 109 1165 173 1165 528 
L 1165 4371 
L 1139 4384 
C 806 4275 563 4211 122 4103 
L 122 4000 
z
" transform="scale(0.015625)"/>
     </defs>
     <use xlink:href="#NimbusRomNo9L-Regu-57" transform="scale(0.996264)"/>
     <use xlink:href="#NimbusRomNo9L-Regu-61" transform="translate(86.077326 0) scale(0.996264)"/>
     <use xlink:href="#NimbusRomNo9L-Regu-76" transform="translate(128.318884 0) scale(0.996264)"/>
     <use xlink:href="#NimbusRomNo9L-Regu-65" transform="translate(176.638691 0) scale(0.996264)"/>
     <use xlink:href="#NimbusRomNo9L-Regu-66" transform="translate(220.87226 0) scale(0.996264)"/>
     <use xlink:href="#NimbusRomNo9L-Regu-6f" transform="translate(254.04749 0) scale(0.996264)"/>
     <use xlink:href="#NimbusRomNo9L-Regu-72" transform="translate(303.86069 0) scale(0.996264)"/>
     <use xlink:href="#NimbusRomNo9L-Regu-6d" transform="translate(337.03592 0) scale(0.996264)"/>
     <use xlink:href="#NimbusRomNo9L-Regu-73" transform="translate(414.54429 0) scale(0.996264)"/>
     <use xlink:href="#NimbusRomNo9L-Regu-77" transform="translate(478.204597 0) scale(0.996264)"/>
     <use xlink:href="#NimbusRomNo9L-Regu-69" transform="translate(550.134581 0) scale(0.996264)"/>
     <use xlink:href="#NimbusRomNo9L-Regu-74" transform="translate(577.829751 0) scale(0.996264)"/>
     <use xlink:href="#NimbusRomNo9L-Regu-68" transform="translate(605.524921 0) scale(0.996264)"/>
     <use xlink:href="#NimbusRomNo9L-Regu-64" transform="translate(680.244721 0) scale(0.996264)"/>
     <use xlink:href="#NimbusRomNo9L-Regu-69" transform="translate(730.057922 0) scale(0.996264)"/>
     <use xlink:href="#NimbusRomNo9L-Regu-66" transform="translate(757.753091 0) scale(0.996264)"/>
     <use xlink:href="#NimbusRomNo9L-Regu-66" transform="translate(788.437692 0) scale(0.996264)"/>
     <use xlink:href="#NimbusRomNo9L-Regu-65" transform="translate(821.612739 0) scale(0.996264)"/>
     <use xlink:href="#NimbusRomNo9L-Regu-72" transform="translate(865.846308 0) scale(0.996264)"/>
     <use xlink:href="#NimbusRomNo9L-Regu-65" transform="translate(899.021537 0) scale(0.996264)"/>
     <use xlink:href="#NimbusRomNo9L-Regu-6e" transform="translate(943.255106 0) scale(0.996264)"/>
     <use xlink:href="#NimbusRomNo9L-Regu-74" transform="translate(993.068306 0) scale(0.996264)"/>
     <use xlink:href="#NimbusRomNo9L-Regu-6c" transform="translate(1045.670076 0) scale(0.996264)"/>
     <use xlink:href="#NimbusRomNo9L-Regu-6f" transform="translate(1073.365246 0) scale(0.996264)"/>
     <use xlink:href="#NimbusRomNo9L-Regu-61" transform="translate(1123.178446 0) scale(0.996264)"/>
     <use xlink:href="#NimbusRomNo9L-Regu-64" transform="translate(1167.412015 0) scale(0.996264)"/>
     <use xlink:href="#NimbusRomNo9L-Regu-73" transform="translate(1217.225216 0) scale(0.996264)"/>
    </g>
   </g>
   <g id="legend_1">
    <g id="line2d_115">
     <path d="M 29.414175 26.084396 
L 37.414175 26.084396 
L 45.414175 26.084396 
" style="fill: none; stroke: #000000; stroke-linecap: square"/>
    </g>
    <g id="text_15">
     <!-- CH1 -->
     <g transform="translate(51.814175 28.884396) scale(0.08 -0.08)">
      <defs>
       <path id="NimbusRomNo9L-Regu-43" d="M 3968 2906 
L 3910 4352 
L 3776 4352 
C 3738 4218 3635 4141 3507 4141 
C 3450 4141 3354 4160 3258 4199 
C 2944 4301 2624 4352 2323 4352 
C 1798 4352 1267 4154 870 3802 
C 422 3405 179 2810 179 2106 
C 179 1511 371 960 698 596 
C 1082 180 1670 -64 2304 -64 
C 3027 -64 3661 231 4051 749 
L 3936 864 
C 3462 410 3040 218 2509 218 
C 2106 218 1747 346 1472 589 
C 1120 903 922 1479 922 2189 
C 922 3348 1517 4096 2445 4096 
C 2810 4096 3142 3962 3398 3706 
C 3603 3501 3699 3322 3821 2906 
L 3968 2906 
z
" transform="scale(0.015625)"/>
       <path id="NimbusRomNo9L-Regu-48" d="M 1338 2304 
L 1338 3533 
C 1338 3990 1408 4059 1901 4104 
L 1901 4224 
L 122 4224 
L 122 4104 
C 614 4059 685 3989 685 3527 
L 685 749 
C 685 210 621 134 122 134 
L 122 0 
L 1901 0 
L 1901 121 
C 1421 159 1338 242 1338 699 
L 1338 2022 
L 3277 2022 
L 3277 757 
C 3277 211 3213 134 2714 134 
L 2714 0 
L 4493 0 
L 4493 121 
C 4013 159 3930 242 3930 696 
L 3930 3529 
C 3930 3989 4000 4059 4493 4104 
L 4493 4224 
L 2714 4224 
L 2714 4104 
C 3206 4059 3277 3990 3277 3533 
L 3277 2304 
L 1338 2304 
z
" transform="scale(0.015625)"/>
      </defs>
      <use xlink:href="#NimbusRomNo9L-Regu-43" transform="scale(0.996264)"/>
      <use xlink:href="#NimbusRomNo9L-Regu-48" transform="translate(66.450031 0) scale(0.996264)"/>
      <use xlink:href="#NimbusRomNo9L-Regu-31" transform="translate(138.380016 0) scale(0.996264)"/>
     </g>
    </g>
    <g id="line2d_116">
     <path d="M 29.414175 37.409859 
L 37.414175 37.409859 
L 45.414175 37.409859 
" style="fill: none; stroke-dasharray: 3.7,1.6; stroke-dashoffset: 0; stroke: #ff0000"/>
    </g>
    <g id="text_16">
     <!-- CH2 -->
     <g transform="translate(51.814175 40.209859) scale(0.08 -0.08)">
      <use xlink:href="#NimbusRomNo9L-Regu-43" transform="scale(0.996264)"/>
      <use xlink:href="#NimbusRomNo9L-Regu-48" transform="translate(66.450031 0) scale(0.996264)"/>
      <use xlink:href="#NimbusRomNo9L-Regu-32" transform="translate(138.380016 0) scale(0.996264)"/>
     </g>
    </g>
   </g>
  </g>
 </g>
 <defs>
  <clipPath id="pc8bcedd9c5">
   <rect x="22.214175" y="16.084396" width="184.14" height="138.6"/>
  </clipPath>
 </defs>
</svg>
