<?xml version="1.0" encoding="utf-8" standalone="no"?>
<!DOCTYPE svg PUBLIC "-//W3C//DTD SVG 1.1//EN"
  "http://www.w3.org/Graphics/SVG/1.1/DTD/svg11.dtd">
<svg xmlns:xlink="http://www.w3.org/1999/xlink" width="209.954175pt" height="180.042634pt" viewBox="0 0 209.954175 180.042634" xmlns="http://www.w3.org/2000/svg" version="1.1">
 <metadata>
  <rdf:RDF xmlns:dc="http://purl.org/dc/elements/1.1/" xmlns:cc="http://creativecommons.org/ns#" xmlns:rdf="http://www.w3.org/1999/02/22-rdf-syntax-ns#">
   <cc:Work>
    <dc:type rdf:resource="http://purl.org/dc/dcmitype/StillImage"/>
    <dc:date>2025-02-28T13:26:15.303770</dc:date>
    <dc:format>image/svg+xml</dc:format>
    <dc:creator>
     <cc:Agent>
      <dc:title>Matplotlib v3.9.2, https://matplotlib.org/</dc:title>
     </cc:Agent>
    </dc:creator>
   </cc:Work>
  </rdf:RDF>
 </metadata>
 <defs>
  <style type="text/css">*{stroke-linejoin: round; stroke-linecap: butt}</style>
 </defs>
 <g id="figure_1">
  <g id="patch_1">
   <path d="M 0 180.042634 
L 209.954175 180.042634 
L 209.954175 0 
L 0 0 
L 0 180.042634 
z
" style="fill: none"/>
  </g>
  <g id="axes_1">
   <g id="patch_2">
    <path d="M 22.214175 154.684396 
L 206.354175 154.684396 
L 206.354175 16.084396 
L 22.214175 16.084396 
L 22.214175 154.684396 
z
" style="fill: none"/>
   </g>
   <g id="matplotlib.axis_1">
    <g id="xtick_1">
     <g id="line2d_1">
      <defs>
       <path id="m14d8f002df" d="M 0 0 
L 0 -3 
" style="stroke: #000000; stroke-width: 0.5"/>
      </defs>
      <g>
       <use xlink:href="#m14d8f002df" x="47.330874" y="154.684396" style="stroke: #000000; stroke-width: 0.5"/>
      </g>
     </g>
     <g id="line2d_2">
      <defs>
       <path id="m982a2cde0d" d="M 0 0 
L 0 3 
" style="stroke: #000000; stroke-width: 0.5"/>
      </defs>
      <g>
       <use xlink:href="#m982a2cde0d" x="47.330874" y="16.084396" style="stroke: #000000; stroke-width: 0.5"/>
      </g>
     </g>
     <g id="text_1">
      <!-- $\mathdefault{−2000}$ -->
      <g transform="translate(36.264417 163.588052) scale(0.08 -0.08)">
       <defs>
        <path id="CMSY10-0" d="M 4218 1472 
C 4326 1472 4442 1472 4442 1600 
C 4442 1728 4326 1728 4218 1728 
L 755 1728 
C 646 1728 531 1728 531 1600 
C 531 1472 646 1472 755 1472 
L 4218 1472 
z
" transform="scale(0.015625)"/>
        <path id="NimbusRomNo9L-Regu-32" d="M 3040 875 
L 2957 907 
C 2720 544 2637 486 2349 486 
L 819 486 
L 1894 1609 
C 2464 2202 2714 2687 2714 3185 
C 2714 3823 2195 4313 1530 4313 
C 1178 4313 845 4173 608 3918 
C 403 3700 307 3496 198 3043 
L 333 3011 
C 589 3636 819 3840 1261 3840 
C 1798 3840 2163 3476 2163 2940 
C 2163 2443 1869 1850 1331 1282 
L 192 77 
L 192 0 
L 2688 0 
L 3040 875 
z
" transform="scale(0.015625)"/>
        <path id="NimbusRomNo9L-Regu-30" d="M 1626 4352 
C 1274 4352 1005 4244 768 4020 
C 397 3661 154 2925 154 2176 
C 154 1479 365 730 666 372 
C 902 90 1229 -64 1600 -64 
C 1926 -64 2202 45 2432 269 
C 2803 621 3046 1364 3046 2138 
C 3046 3450 2464 4352 1626 4352 
z
M 1606 4186 
C 2144 4186 2432 3463 2432 2125 
C 2432 788 2150 103 1600 103 
C 1050 103 768 788 768 2119 
C 768 3476 1056 4186 1606 4186 
z
" transform="scale(0.015625)"/>
       </defs>
       <use xlink:href="#CMSY10-0" transform="scale(0.996264)"/>
       <use xlink:href="#NimbusRomNo9L-Regu-32" transform="translate(77.408707 0) scale(0.996264)"/>
       <use xlink:href="#NimbusRomNo9L-Regu-30" transform="translate(127.221908 0) scale(0.996264)"/>
       <use xlink:href="#NimbusRomNo9L-Regu-30" transform="translate(177.035108 0) scale(0.996264)"/>
       <use xlink:href="#NimbusRomNo9L-Regu-30" transform="translate(226.848309 0) scale(0.996264)"/>
      </g>
     </g>
    </g>
    <g id="xtick_2">
     <g id="line2d_3">
      <g>
       <use xlink:href="#m14d8f002df" x="80.824271" y="154.684396" style="stroke: #000000; stroke-width: 0.5"/>
      </g>
     </g>
     <g id="line2d_4">
      <g>
       <use xlink:href="#m982a2cde0d" x="80.824271" y="16.084396" style="stroke: #000000; stroke-width: 0.5"/>
      </g>
     </g>
     <g id="text_2">
      <!-- $\mathdefault{−1000}$ -->
      <g transform="translate(69.757814 163.588052) scale(0.08 -0.08)">
       <defs>
        <path id="NimbusRomNo9L-Regu-31" d="M 1862 4339 
L 710 3757 
L 710 3667 
C 787 3699 858 3725 883 3738 
C 998 3783 1107 3808 1171 3808 
C 1306 3808 1363 3711 1363 3505 
L 1363 592 
C 1363 379 1312 232 1210 173 
C 1114 116 1024 96 755 96 
L 755 0 
L 2522 0 
L 2522 96 
C 2016 96 1914 160 1914 470 
L 1914 4327 
L 1862 4339 
z
" transform="scale(0.015625)"/>
       </defs>
       <use xlink:href="#CMSY10-0" transform="scale(0.996264)"/>
       <use xlink:href="#NimbusRomNo9L-Regu-31" transform="translate(77.408707 0) scale(0.996264)"/>
       <use xlink:href="#NimbusRomNo9L-Regu-30" transform="translate(127.221908 0) scale(0.996264)"/>
       <use xlink:href="#NimbusRomNo9L-Regu-30" transform="translate(177.035108 0) scale(0.996264)"/>
       <use xlink:href="#NimbusRomNo9L-Regu-30" transform="translate(226.848309 0) scale(0.996264)"/>
      </g>
     </g>
    </g>
    <g id="xtick_3">
     <g id="line2d_5">
      <g>
       <use xlink:href="#m14d8f002df" x="114.317669" y="154.684396" style="stroke: #000000; stroke-width: 0.5"/>
      </g>
     </g>
     <g id="line2d_6">
      <g>
       <use xlink:href="#m982a2cde0d" x="114.317669" y="16.084396" style="stroke: #000000; stroke-width: 0.5"/>
      </g>
     </g>
     <g id="text_3">
      <!-- $\mathdefault{0}$ -->
      <g transform="translate(112.32514 163.588052) scale(0.08 -0.08)">
       <use xlink:href="#NimbusRomNo9L-Regu-30" transform="scale(0.996264)"/>
      </g>
     </g>
    </g>
    <g id="xtick_4">
     <g id="line2d_7">
      <g>
       <use xlink:href="#m14d8f002df" x="147.811066" y="154.684396" style="stroke: #000000; stroke-width: 0.5"/>
      </g>
     </g>
     <g id="line2d_8">
      <g>
       <use xlink:href="#m982a2cde0d" x="147.811066" y="16.084396" style="stroke: #000000; stroke-width: 0.5"/>
      </g>
     </g>
     <g id="text_4">
      <!-- $\mathdefault{1000}$ -->
      <g transform="translate(139.840954 163.588052) scale(0.08 -0.08)">
       <use xlink:href="#NimbusRomNo9L-Regu-31" transform="scale(0.996264)"/>
       <use xlink:href="#NimbusRomNo9L-Regu-30" transform="translate(49.8132 0) scale(0.996264)"/>
       <use xlink:href="#NimbusRomNo9L-Regu-30" transform="translate(99.626401 0) scale(0.996264)"/>
       <use xlink:href="#NimbusRomNo9L-Regu-30" transform="translate(149.439601 0) scale(0.996264)"/>
      </g>
     </g>
    </g>
    <g id="xtick_5">
     <g id="line2d_9">
      <g>
       <use xlink:href="#m14d8f002df" x="181.304463" y="154.684396" style="stroke: #000000; stroke-width: 0.5"/>
      </g>
     </g>
     <g id="line2d_10">
      <g>
       <use xlink:href="#m982a2cde0d" x="181.304463" y="16.084396" style="stroke: #000000; stroke-width: 0.5"/>
      </g>
     </g>
     <g id="text_5">
      <!-- $\mathdefault{2000}$ -->
      <g transform="translate(173.334351 163.588052) scale(0.08 -0.08)">
       <use xlink:href="#NimbusRomNo9L-Regu-32" transform="scale(0.996264)"/>
       <use xlink:href="#NimbusRomNo9L-Regu-30" transform="translate(49.8132 0) scale(0.996264)"/>
       <use xlink:href="#NimbusRomNo9L-Regu-30" transform="translate(99.626401 0) scale(0.996264)"/>
       <use xlink:href="#NimbusRomNo9L-Regu-30" transform="translate(149.439601 0) scale(0.996264)"/>
      </g>
     </g>
    </g>
    <g id="xtick_6">
     <g id="line2d_11">
      <defs>
       <path id="mbbe8a8d23e" d="M 0 0 
L 0 -1.5 
" style="stroke: #000000; stroke-width: 0.5"/>
      </defs>
      <g>
       <use xlink:href="#mbbe8a8d23e" x="27.234835" y="154.684396" style="stroke: #000000; stroke-width: 0.5"/>
      </g>
     </g>
     <g id="line2d_12">
      <defs>
       <path id="m6eab08a39c" d="M 0 0 
L 0 1.5 
" style="stroke: #000000; stroke-width: 0.5"/>
      </defs>
      <g>
       <use xlink:href="#m6eab08a39c" x="27.234835" y="16.084396" style="stroke: #000000; stroke-width: 0.5"/>
      </g>
     </g>
    </g>
    <g id="xtick_7">
     <g id="line2d_13">
      <g>
       <use xlink:href="#mbbe8a8d23e" x="33.933515" y="154.684396" style="stroke: #000000; stroke-width: 0.5"/>
      </g>
     </g>
     <g id="line2d_14">
      <g>
       <use xlink:href="#m6eab08a39c" x="33.933515" y="16.084396" style="stroke: #000000; stroke-width: 0.5"/>
      </g>
     </g>
    </g>
    <g id="xtick_8">
     <g id="line2d_15">
      <g>
       <use xlink:href="#mbbe8a8d23e" x="40.632194" y="154.684396" style="stroke: #000000; stroke-width: 0.5"/>
      </g>
     </g>
     <g id="line2d_16">
      <g>
       <use xlink:href="#m6eab08a39c" x="40.632194" y="16.084396" style="stroke: #000000; stroke-width: 0.5"/>
      </g>
     </g>
    </g>
    <g id="xtick_9">
     <g id="line2d_17">
      <g>
       <use xlink:href="#mbbe8a8d23e" x="54.029553" y="154.684396" style="stroke: #000000; stroke-width: 0.5"/>
      </g>
     </g>
     <g id="line2d_18">
      <g>
       <use xlink:href="#m6eab08a39c" x="54.029553" y="16.084396" style="stroke: #000000; stroke-width: 0.5"/>
      </g>
     </g>
    </g>
    <g id="xtick_10">
     <g id="line2d_19">
      <g>
       <use xlink:href="#mbbe8a8d23e" x="60.728233" y="154.684396" style="stroke: #000000; stroke-width: 0.5"/>
      </g>
     </g>
     <g id="line2d_20">
      <g>
       <use xlink:href="#m6eab08a39c" x="60.728233" y="16.084396" style="stroke: #000000; stroke-width: 0.5"/>
      </g>
     </g>
    </g>
    <g id="xtick_11">
     <g id="line2d_21">
      <g>
       <use xlink:href="#mbbe8a8d23e" x="67.426912" y="154.684396" style="stroke: #000000; stroke-width: 0.5"/>
      </g>
     </g>
     <g id="line2d_22">
      <g>
       <use xlink:href="#m6eab08a39c" x="67.426912" y="16.084396" style="stroke: #000000; stroke-width: 0.5"/>
      </g>
     </g>
    </g>
    <g id="xtick_12">
     <g id="line2d_23">
      <g>
       <use xlink:href="#mbbe8a8d23e" x="74.125592" y="154.684396" style="stroke: #000000; stroke-width: 0.5"/>
      </g>
     </g>
     <g id="line2d_24">
      <g>
       <use xlink:href="#m6eab08a39c" x="74.125592" y="16.084396" style="stroke: #000000; stroke-width: 0.5"/>
      </g>
     </g>
    </g>
    <g id="xtick_13">
     <g id="line2d_25">
      <g>
       <use xlink:href="#mbbe8a8d23e" x="87.522951" y="154.684396" style="stroke: #000000; stroke-width: 0.5"/>
      </g>
     </g>
     <g id="line2d_26">
      <g>
       <use xlink:href="#m6eab08a39c" x="87.522951" y="16.084396" style="stroke: #000000; stroke-width: 0.5"/>
      </g>
     </g>
    </g>
    <g id="xtick_14">
     <g id="line2d_27">
      <g>
       <use xlink:href="#mbbe8a8d23e" x="94.22163" y="154.684396" style="stroke: #000000; stroke-width: 0.5"/>
      </g>
     </g>
     <g id="line2d_28">
      <g>
       <use xlink:href="#m6eab08a39c" x="94.22163" y="16.084396" style="stroke: #000000; stroke-width: 0.5"/>
      </g>
     </g>
    </g>
    <g id="xtick_15">
     <g id="line2d_29">
      <g>
       <use xlink:href="#mbbe8a8d23e" x="100.92031" y="154.684396" style="stroke: #000000; stroke-width: 0.5"/>
      </g>
     </g>
     <g id="line2d_30">
      <g>
       <use xlink:href="#m6eab08a39c" x="100.92031" y="16.084396" style="stroke: #000000; stroke-width: 0.5"/>
      </g>
     </g>
    </g>
    <g id="xtick_16">
     <g id="line2d_31">
      <g>
       <use xlink:href="#mbbe8a8d23e" x="107.618989" y="154.684396" style="stroke: #000000; stroke-width: 0.5"/>
      </g>
     </g>
     <g id="line2d_32">
      <g>
       <use xlink:href="#m6eab08a39c" x="107.618989" y="16.084396" style="stroke: #000000; stroke-width: 0.5"/>
      </g>
     </g>
    </g>
    <g id="xtick_17">
     <g id="line2d_33">
      <g>
       <use xlink:href="#mbbe8a8d23e" x="121.016348" y="154.684396" style="stroke: #000000; stroke-width: 0.5"/>
      </g>
     </g>
     <g id="line2d_34">
      <g>
       <use xlink:href="#m6eab08a39c" x="121.016348" y="16.084396" style="stroke: #000000; stroke-width: 0.5"/>
      </g>
     </g>
    </g>
    <g id="xtick_18">
     <g id="line2d_35">
      <g>
       <use xlink:href="#mbbe8a8d23e" x="127.715027" y="154.684396" style="stroke: #000000; stroke-width: 0.5"/>
      </g>
     </g>
     <g id="line2d_36">
      <g>
       <use xlink:href="#m6eab08a39c" x="127.715027" y="16.084396" style="stroke: #000000; stroke-width: 0.5"/>
      </g>
     </g>
    </g>
    <g id="xtick_19">
     <g id="line2d_37">
      <g>
       <use xlink:href="#mbbe8a8d23e" x="134.413707" y="154.684396" style="stroke: #000000; stroke-width: 0.5"/>
      </g>
     </g>
     <g id="line2d_38">
      <g>
       <use xlink:href="#m6eab08a39c" x="134.413707" y="16.084396" style="stroke: #000000; stroke-width: 0.5"/>
      </g>
     </g>
    </g>
    <g id="xtick_20">
     <g id="line2d_39">
      <g>
       <use xlink:href="#mbbe8a8d23e" x="141.112386" y="154.684396" style="stroke: #000000; stroke-width: 0.5"/>
      </g>
     </g>
     <g id="line2d_40">
      <g>
       <use xlink:href="#m6eab08a39c" x="141.112386" y="16.084396" style="stroke: #000000; stroke-width: 0.5"/>
      </g>
     </g>
    </g>
    <g id="xtick_21">
     <g id="line2d_41">
      <g>
       <use xlink:href="#mbbe8a8d23e" x="154.509745" y="154.684396" style="stroke: #000000; stroke-width: 0.5"/>
      </g>
     </g>
     <g id="line2d_42">
      <g>
       <use xlink:href="#m6eab08a39c" x="154.509745" y="16.084396" style="stroke: #000000; stroke-width: 0.5"/>
      </g>
     </g>
    </g>
    <g id="xtick_22">
     <g id="line2d_43">
      <g>
       <use xlink:href="#mbbe8a8d23e" x="161.208425" y="154.684396" style="stroke: #000000; stroke-width: 0.5"/>
      </g>
     </g>
     <g id="line2d_44">
      <g>
       <use xlink:href="#m6eab08a39c" x="161.208425" y="16.084396" style="stroke: #000000; stroke-width: 0.5"/>
      </g>
     </g>
    </g>
    <g id="xtick_23">
     <g id="line2d_45">
      <g>
       <use xlink:href="#mbbe8a8d23e" x="167.907104" y="154.684396" style="stroke: #000000; stroke-width: 0.5"/>
      </g>
     </g>
     <g id="line2d_46">
      <g>
       <use xlink:href="#m6eab08a39c" x="167.907104" y="16.084396" style="stroke: #000000; stroke-width: 0.5"/>
      </g>
     </g>
    </g>
    <g id="xtick_24">
     <g id="line2d_47">
      <g>
       <use xlink:href="#mbbe8a8d23e" x="174.605784" y="154.684396" style="stroke: #000000; stroke-width: 0.5"/>
      </g>
     </g>
     <g id="line2d_48">
      <g>
       <use xlink:href="#m6eab08a39c" x="174.605784" y="16.084396" style="stroke: #000000; stroke-width: 0.5"/>
      </g>
     </g>
    </g>
    <g id="xtick_25">
     <g id="line2d_49">
      <g>
       <use xlink:href="#mbbe8a8d23e" x="188.003143" y="154.684396" style="stroke: #000000; stroke-width: 0.5"/>
      </g>
     </g>
     <g id="line2d_50">
      <g>
       <use xlink:href="#m6eab08a39c" x="188.003143" y="16.084396" style="stroke: #000000; stroke-width: 0.5"/>
      </g>
     </g>
    </g>
    <g id="xtick_26">
     <g id="line2d_51">
      <g>
       <use xlink:href="#mbbe8a8d23e" x="194.701822" y="154.684396" style="stroke: #000000; stroke-width: 0.5"/>
      </g>
     </g>
     <g id="line2d_52">
      <g>
       <use xlink:href="#m6eab08a39c" x="194.701822" y="16.084396" style="stroke: #000000; stroke-width: 0.5"/>
      </g>
     </g>
    </g>
    <g id="xtick_27">
     <g id="line2d_53">
      <g>
       <use xlink:href="#mbbe8a8d23e" x="201.400502" y="154.684396" style="stroke: #000000; stroke-width: 0.5"/>
      </g>
     </g>
     <g id="line2d_54">
      <g>
       <use xlink:href="#m6eab08a39c" x="201.400502" y="16.084396" style="stroke: #000000; stroke-width: 0.5"/>
      </g>
     </g>
    </g>
    <g id="text_6">
     <!-- ns -->
     <g transform="translate(110.741499 174.717171) scale(0.08 -0.08)">
      <defs>
       <path id="NimbusRomNo9L-Regu-6e" d="M 102 2579 
C 141 2598 205 2605 275 2605 
C 454 2605 512 2509 512 2195 
L 512 608 
C 512 243 442 154 115 128 
L 115 32 
L 1472 32 
L 1472 128 
C 1146 154 1050 230 1050 461 
L 1050 2259 
C 1357 2547 1498 2624 1709 2624 
C 2022 2624 2176 2426 2176 2003 
L 2176 666 
C 2176 262 2093 154 1773 128 
L 1773 32 
L 3104 32 
L 3104 128 
C 2790 160 2714 237 2714 550 
L 2714 2016 
C 2714 2618 2432 2976 1958 2976 
C 1664 2976 1466 2867 1030 2458 
L 1030 2963 
L 986 2976 
C 672 2861 454 2790 102 2688 
L 102 2579 
z
" transform="scale(0.015625)"/>
       <path id="NimbusRomNo9L-Regu-73" d="M 2016 2010 
L 1990 2880 
L 1920 2880 
L 1907 2867 
C 1850 2822 1843 2816 1818 2816 
C 1779 2816 1715 2829 1645 2861 
C 1504 2915 1363 2944 1197 2944 
C 691 2944 326 2616 326 2154 
C 326 1796 531 1539 1075 1231 
L 1446 1020 
C 1670 892 1779 737 1779 539 
C 1779 256 1574 77 1248 77 
C 1030 77 832 159 710 298 
C 576 455 518 600 435 960 
L 333 960 
L 333 -39 
L 416 -39 
C 461 33 486 48 563 48 
C 621 48 710 35 858 -2 
C 1037 -39 1210 -64 1325 -64 
C 1818 -64 2227 308 2227 757 
C 2227 1077 2074 1289 1690 1520 
L 998 1930 
C 819 2033 723 2194 723 2367 
C 723 2624 922 2803 1216 2803 
C 1581 2803 1773 2583 1920 2010 
L 2016 2010 
z
" transform="scale(0.015625)"/>
      </defs>
      <use xlink:href="#NimbusRomNo9L-Regu-6e" transform="scale(0.996264)"/>
      <use xlink:href="#NimbusRomNo9L-Regu-73" transform="translate(49.8132 0) scale(0.996264)"/>
     </g>
    </g>
   </g>
   <g id="matplotlib.axis_2">
    <g id="ytick_1">
     <g id="line2d_55">
      <defs>
       <path id="mf24289f600" d="M 0 0 
L 3 0 
" style="stroke: #000000; stroke-width: 0.5"/>
      </defs>
      <g>
       <use xlink:href="#mf24289f600" x="22.214175" y="143.060453" style="stroke: #000000; stroke-width: 0.5"/>
      </g>
     </g>
     <g id="line2d_56">
      <defs>
       <path id="mc3bee2f34c" d="M 0 0 
L -3 0 
" style="stroke: #000000; stroke-width: 0.5"/>
      </defs>
      <g>
       <use xlink:href="#mc3bee2f34c" x="206.354175" y="143.060453" style="stroke: #000000; stroke-width: 0.5"/>
      </g>
     </g>
     <g id="text_7">
      <!-- $\mathdefault{0}$ -->
      <g transform="translate(14.729119 145.762281) scale(0.08 -0.08)">
       <use xlink:href="#NimbusRomNo9L-Regu-30" transform="scale(0.996264)"/>
      </g>
     </g>
    </g>
    <g id="ytick_2">
     <g id="line2d_57">
      <g>
       <use xlink:href="#mf24289f600" x="22.214175" y="120.877354" style="stroke: #000000; stroke-width: 0.5"/>
      </g>
     </g>
     <g id="line2d_58">
      <g>
       <use xlink:href="#mc3bee2f34c" x="206.354175" y="120.877354" style="stroke: #000000; stroke-width: 0.5"/>
      </g>
     </g>
     <g id="text_8">
      <!-- $\mathdefault{1}$ -->
      <g transform="translate(14.729119 123.579182) scale(0.08 -0.08)">
       <use xlink:href="#NimbusRomNo9L-Regu-31" transform="scale(0.996264)"/>
      </g>
     </g>
    </g>
    <g id="ytick_3">
     <g id="line2d_59">
      <g>
       <use xlink:href="#mf24289f600" x="22.214175" y="98.694255" style="stroke: #000000; stroke-width: 0.5"/>
      </g>
     </g>
     <g id="line2d_60">
      <g>
       <use xlink:href="#mc3bee2f34c" x="206.354175" y="98.694255" style="stroke: #000000; stroke-width: 0.5"/>
      </g>
     </g>
     <g id="text_9">
      <!-- $\mathdefault{2}$ -->
      <g transform="translate(14.729119 101.396083) scale(0.08 -0.08)">
       <use xlink:href="#NimbusRomNo9L-Regu-32" transform="scale(0.996264)"/>
      </g>
     </g>
    </g>
    <g id="ytick_4">
     <g id="line2d_61">
      <g>
       <use xlink:href="#mf24289f600" x="22.214175" y="76.511157" style="stroke: #000000; stroke-width: 0.5"/>
      </g>
     </g>
     <g id="line2d_62">
      <g>
       <use xlink:href="#mc3bee2f34c" x="206.354175" y="76.511157" style="stroke: #000000; stroke-width: 0.5"/>
      </g>
     </g>
     <g id="text_10">
      <!-- $\mathdefault{3}$ -->
      <g transform="translate(14.729119 79.212985) scale(0.08 -0.08)">
       <defs>
        <path id="NimbusRomNo9L-Regu-33" d="M 979 2138 
C 1357 2138 1504 2125 1658 2068 
C 2054 1927 2304 1562 2304 1120 
C 2304 583 1939 167 1466 167 
C 1293 167 1165 212 928 365 
C 736 480 627 525 518 525 
C 371 525 275 436 275 301 
C 275 77 550 -64 998 -64 
C 1491 -64 1997 103 2298 365 
C 2598 628 2765 999 2765 1428 
C 2765 1754 2662 2055 2477 2253 
C 2349 2394 2227 2471 1946 2592 
C 2387 2893 2547 3130 2547 3476 
C 2547 3994 2138 4352 1549 4352 
C 1229 4352 947 4244 717 4039 
C 525 3866 429 3699 288 3315 
L 384 3290 
C 646 3757 934 3968 1338 3968 
C 1754 3968 2042 3687 2042 3284 
C 2042 3053 1946 2823 1786 2663 
C 1594 2471 1414 2375 979 2221 
L 979 2138 
z
" transform="scale(0.015625)"/>
       </defs>
       <use xlink:href="#NimbusRomNo9L-Regu-33" transform="scale(0.996264)"/>
      </g>
     </g>
    </g>
    <g id="ytick_5">
     <g id="line2d_63">
      <g>
       <use xlink:href="#mf24289f600" x="22.214175" y="54.328058" style="stroke: #000000; stroke-width: 0.5"/>
      </g>
     </g>
     <g id="line2d_64">
      <g>
       <use xlink:href="#mc3bee2f34c" x="206.354175" y="54.328058" style="stroke: #000000; stroke-width: 0.5"/>
      </g>
     </g>
     <g id="text_11">
      <!-- $\mathdefault{4}$ -->
      <g transform="translate(14.729119 57.029886) scale(0.08 -0.08)">
       <defs>
        <path id="NimbusRomNo9L-Regu-34" d="M 3021 1497 
L 2368 1497 
L 2368 4352 
L 2086 4352 
L 77 1497 
L 77 1088 
L 1875 1088 
L 1875 32 
L 2368 32 
L 2368 1088 
L 3021 1088 
L 3021 1497 
z
M 1869 1497 
L 333 1497 
L 1869 3698 
L 1869 1497 
z
" transform="scale(0.015625)"/>
       </defs>
       <use xlink:href="#NimbusRomNo9L-Regu-34" transform="scale(0.996264)"/>
      </g>
     </g>
    </g>
    <g id="ytick_6">
     <g id="line2d_65">
      <g>
       <use xlink:href="#mf24289f600" x="22.214175" y="32.14496" style="stroke: #000000; stroke-width: 0.5"/>
      </g>
     </g>
     <g id="line2d_66">
      <g>
       <use xlink:href="#mc3bee2f34c" x="206.354175" y="32.14496" style="stroke: #000000; stroke-width: 0.5"/>
      </g>
     </g>
     <g id="text_12">
      <!-- $\mathdefault{5}$ -->
      <g transform="translate(14.729119 34.846788) scale(0.08 -0.08)">
       <defs>
        <path id="NimbusRomNo9L-Regu-35" d="M 1158 3776 
L 2413 3776 
C 2515 3776 2541 3789 2560 3834 
L 2803 4403 
L 2746 4448 
C 2650 4314 2586 4282 2451 4282 
L 1114 4282 
L 416 2759 
C 410 2746 410 2740 410 2727 
C 410 2695 435 2676 486 2676 
C 691 2676 947 2631 1210 2547 
C 1946 2309 2285 1910 2285 1274 
C 2285 656 1894 173 1395 173 
C 1267 173 1158 218 966 360 
C 762 508 614 572 480 572 
C 294 572 205 495 205 334 
C 205 90 506 -64 986 -64 
C 1523 -64 1984 110 2304 438 
C 2598 728 2733 1094 2733 1583 
C 2733 2046 2611 2342 2291 2663 
C 2010 2947 1645 3094 890 3229 
L 1158 3776 
z
" transform="scale(0.015625)"/>
       </defs>
       <use xlink:href="#NimbusRomNo9L-Regu-35" transform="scale(0.996264)"/>
      </g>
     </g>
    </g>
    <g id="ytick_7">
     <g id="line2d_67">
      <defs>
       <path id="meba24e196a" d="M 0 0 
L 1.5 0 
" style="stroke: #000000; stroke-width: 0.5"/>
      </defs>
      <g>
       <use xlink:href="#meba24e196a" x="22.214175" y="151.933692" style="stroke: #000000; stroke-width: 0.5"/>
      </g>
     </g>
     <g id="line2d_68">
      <defs>
       <path id="me6d237d5bd" d="M 0 0 
L -1.5 0 
" style="stroke: #000000; stroke-width: 0.5"/>
      </defs>
      <g>
       <use xlink:href="#me6d237d5bd" x="206.354175" y="151.933692" style="stroke: #000000; stroke-width: 0.5"/>
      </g>
     </g>
    </g>
    <g id="ytick_8">
     <g id="line2d_69">
      <g>
       <use xlink:href="#meba24e196a" x="22.214175" y="147.497072" style="stroke: #000000; stroke-width: 0.5"/>
      </g>
     </g>
     <g id="line2d_70">
      <g>
       <use xlink:href="#me6d237d5bd" x="206.354175" y="147.497072" style="stroke: #000000; stroke-width: 0.5"/>
      </g>
     </g>
    </g>
    <g id="ytick_9">
     <g id="line2d_71">
      <g>
       <use xlink:href="#meba24e196a" x="22.214175" y="138.623833" style="stroke: #000000; stroke-width: 0.5"/>
      </g>
     </g>
     <g id="line2d_72">
      <g>
       <use xlink:href="#me6d237d5bd" x="206.354175" y="138.623833" style="stroke: #000000; stroke-width: 0.5"/>
      </g>
     </g>
    </g>
    <g id="ytick_10">
     <g id="line2d_73">
      <g>
       <use xlink:href="#meba24e196a" x="22.214175" y="134.187213" style="stroke: #000000; stroke-width: 0.5"/>
      </g>
     </g>
     <g id="line2d_74">
      <g>
       <use xlink:href="#me6d237d5bd" x="206.354175" y="134.187213" style="stroke: #000000; stroke-width: 0.5"/>
      </g>
     </g>
    </g>
    <g id="ytick_11">
     <g id="line2d_75">
      <g>
       <use xlink:href="#meba24e196a" x="22.214175" y="129.750593" style="stroke: #000000; stroke-width: 0.5"/>
      </g>
     </g>
     <g id="line2d_76">
      <g>
       <use xlink:href="#me6d237d5bd" x="206.354175" y="129.750593" style="stroke: #000000; stroke-width: 0.5"/>
      </g>
     </g>
    </g>
    <g id="ytick_12">
     <g id="line2d_77">
      <g>
       <use xlink:href="#meba24e196a" x="22.214175" y="125.313974" style="stroke: #000000; stroke-width: 0.5"/>
      </g>
     </g>
     <g id="line2d_78">
      <g>
       <use xlink:href="#me6d237d5bd" x="206.354175" y="125.313974" style="stroke: #000000; stroke-width: 0.5"/>
      </g>
     </g>
    </g>
    <g id="ytick_13">
     <g id="line2d_79">
      <g>
       <use xlink:href="#meba24e196a" x="22.214175" y="116.440734" style="stroke: #000000; stroke-width: 0.5"/>
      </g>
     </g>
     <g id="line2d_80">
      <g>
       <use xlink:href="#me6d237d5bd" x="206.354175" y="116.440734" style="stroke: #000000; stroke-width: 0.5"/>
      </g>
     </g>
    </g>
    <g id="ytick_14">
     <g id="line2d_81">
      <g>
       <use xlink:href="#meba24e196a" x="22.214175" y="112.004115" style="stroke: #000000; stroke-width: 0.5"/>
      </g>
     </g>
     <g id="line2d_82">
      <g>
       <use xlink:href="#me6d237d5bd" x="206.354175" y="112.004115" style="stroke: #000000; stroke-width: 0.5"/>
      </g>
     </g>
    </g>
    <g id="ytick_15">
     <g id="line2d_83">
      <g>
       <use xlink:href="#meba24e196a" x="22.214175" y="107.567495" style="stroke: #000000; stroke-width: 0.5"/>
      </g>
     </g>
     <g id="line2d_84">
      <g>
       <use xlink:href="#me6d237d5bd" x="206.354175" y="107.567495" style="stroke: #000000; stroke-width: 0.5"/>
      </g>
     </g>
    </g>
    <g id="ytick_16">
     <g id="line2d_85">
      <g>
       <use xlink:href="#meba24e196a" x="22.214175" y="103.130875" style="stroke: #000000; stroke-width: 0.5"/>
      </g>
     </g>
     <g id="line2d_86">
      <g>
       <use xlink:href="#me6d237d5bd" x="206.354175" y="103.130875" style="stroke: #000000; stroke-width: 0.5"/>
      </g>
     </g>
    </g>
    <g id="ytick_17">
     <g id="line2d_87">
      <g>
       <use xlink:href="#meba24e196a" x="22.214175" y="94.257636" style="stroke: #000000; stroke-width: 0.5"/>
      </g>
     </g>
     <g id="line2d_88">
      <g>
       <use xlink:href="#me6d237d5bd" x="206.354175" y="94.257636" style="stroke: #000000; stroke-width: 0.5"/>
      </g>
     </g>
    </g>
    <g id="ytick_18">
     <g id="line2d_89">
      <g>
       <use xlink:href="#meba24e196a" x="22.214175" y="89.821016" style="stroke: #000000; stroke-width: 0.5"/>
      </g>
     </g>
     <g id="line2d_90">
      <g>
       <use xlink:href="#me6d237d5bd" x="206.354175" y="89.821016" style="stroke: #000000; stroke-width: 0.5"/>
      </g>
     </g>
    </g>
    <g id="ytick_19">
     <g id="line2d_91">
      <g>
       <use xlink:href="#meba24e196a" x="22.214175" y="85.384396" style="stroke: #000000; stroke-width: 0.5"/>
      </g>
     </g>
     <g id="line2d_92">
      <g>
       <use xlink:href="#me6d237d5bd" x="206.354175" y="85.384396" style="stroke: #000000; stroke-width: 0.5"/>
      </g>
     </g>
    </g>
    <g id="ytick_20">
     <g id="line2d_93">
      <g>
       <use xlink:href="#meba24e196a" x="22.214175" y="80.947777" style="stroke: #000000; stroke-width: 0.5"/>
      </g>
     </g>
     <g id="line2d_94">
      <g>
       <use xlink:href="#me6d237d5bd" x="206.354175" y="80.947777" style="stroke: #000000; stroke-width: 0.5"/>
      </g>
     </g>
    </g>
    <g id="ytick_21">
     <g id="line2d_95">
      <g>
       <use xlink:href="#meba24e196a" x="22.214175" y="72.074537" style="stroke: #000000; stroke-width: 0.5"/>
      </g>
     </g>
     <g id="line2d_96">
      <g>
       <use xlink:href="#me6d237d5bd" x="206.354175" y="72.074537" style="stroke: #000000; stroke-width: 0.5"/>
      </g>
     </g>
    </g>
    <g id="ytick_22">
     <g id="line2d_97">
      <g>
       <use xlink:href="#meba24e196a" x="22.214175" y="67.637917" style="stroke: #000000; stroke-width: 0.5"/>
      </g>
     </g>
     <g id="line2d_98">
      <g>
       <use xlink:href="#me6d237d5bd" x="206.354175" y="67.637917" style="stroke: #000000; stroke-width: 0.5"/>
      </g>
     </g>
    </g>
    <g id="ytick_23">
     <g id="line2d_99">
      <g>
       <use xlink:href="#meba24e196a" x="22.214175" y="63.201298" style="stroke: #000000; stroke-width: 0.5"/>
      </g>
     </g>
     <g id="line2d_100">
      <g>
       <use xlink:href="#me6d237d5bd" x="206.354175" y="63.201298" style="stroke: #000000; stroke-width: 0.5"/>
      </g>
     </g>
    </g>
    <g id="ytick_24">
     <g id="line2d_101">
      <g>
       <use xlink:href="#meba24e196a" x="22.214175" y="58.764678" style="stroke: #000000; stroke-width: 0.5"/>
      </g>
     </g>
     <g id="line2d_102">
      <g>
       <use xlink:href="#me6d237d5bd" x="206.354175" y="58.764678" style="stroke: #000000; stroke-width: 0.5"/>
      </g>
     </g>
    </g>
    <g id="ytick_25">
     <g id="line2d_103">
      <g>
       <use xlink:href="#meba24e196a" x="22.214175" y="49.891439" style="stroke: #000000; stroke-width: 0.5"/>
      </g>
     </g>
     <g id="line2d_104">
      <g>
       <use xlink:href="#me6d237d5bd" x="206.354175" y="49.891439" style="stroke: #000000; stroke-width: 0.5"/>
      </g>
     </g>
    </g>
    <g id="ytick_26">
     <g id="line2d_105">
      <g>
       <use xlink:href="#meba24e196a" x="22.214175" y="45.454819" style="stroke: #000000; stroke-width: 0.5"/>
      </g>
     </g>
     <g id="line2d_106">
      <g>
       <use xlink:href="#me6d237d5bd" x="206.354175" y="45.454819" style="stroke: #000000; stroke-width: 0.5"/>
      </g>
     </g>
    </g>
    <g id="ytick_27">
     <g id="line2d_107">
      <g>
       <use xlink:href="#meba24e196a" x="22.214175" y="41.018199" style="stroke: #000000; stroke-width: 0.5"/>
      </g>
     </g>
     <g id="line2d_108">
      <g>
       <use xlink:href="#me6d237d5bd" x="206.354175" y="41.018199" style="stroke: #000000; stroke-width: 0.5"/>
      </g>
     </g>
    </g>
    <g id="ytick_28">
     <g id="line2d_109">
      <g>
       <use xlink:href="#meba24e196a" x="22.214175" y="36.581579" style="stroke: #000000; stroke-width: 0.5"/>
      </g>
     </g>
     <g id="line2d_110">
      <g>
       <use xlink:href="#me6d237d5bd" x="206.354175" y="36.581579" style="stroke: #000000; stroke-width: 0.5"/>
      </g>
     </g>
    </g>
    <g id="ytick_29">
     <g id="line2d_111">
      <g>
       <use xlink:href="#meba24e196a" x="22.214175" y="27.70834" style="stroke: #000000; stroke-width: 0.5"/>
      </g>
     </g>
     <g id="line2d_112">
      <g>
       <use xlink:href="#me6d237d5bd" x="206.354175" y="27.70834" style="stroke: #000000; stroke-width: 0.5"/>
      </g>
     </g>
    </g>
    <g id="ytick_30">
     <g id="line2d_113">
      <g>
       <use xlink:href="#meba24e196a" x="22.214175" y="23.27172" style="stroke: #000000; stroke-width: 0.5"/>
      </g>
     </g>
     <g id="line2d_114">
      <g>
       <use xlink:href="#me6d237d5bd" x="206.354175" y="23.27172" style="stroke: #000000; stroke-width: 0.5"/>
      </g>
     </g>
    </g>
    <g id="ytick_31">
     <g id="line2d_115">
      <g>
       <use xlink:href="#meba24e196a" x="22.214175" y="18.835101" style="stroke: #000000; stroke-width: 0.5"/>
      </g>
     </g>
     <g id="line2d_116">
      <g>
       <use xlink:href="#me6d237d5bd" x="206.354175" y="18.835101" style="stroke: #000000; stroke-width: 0.5"/>
      </g>
     </g>
    </g>
    <g id="text_13">
     <!-- V -->
     <g transform="translate(9.003656 88.261592) rotate(-90) scale(0.08 -0.08)">
      <defs>
       <path id="NimbusRomNo9L-Regu-56" d="M 4461 4231 
L 3149 4231 
L 3149 4096 
C 3501 4096 3616 4026 3616 3846 
C 3616 3744 3571 3572 3494 3380 
L 2554 1033 
L 1587 3199 
C 1376 3667 1325 3814 1325 3910 
C 1325 4032 1414 4096 1619 4096 
C 1645 4096 1715 4096 1805 4109 
L 1805 4231 
L 102 4231 
L 102 4096 
C 416 4096 506 4007 781 3439 
L 2355 -64 
L 2451 -64 
L 3872 3521 
C 4083 4026 4154 4096 4461 4096 
L 4461 4231 
z
" transform="scale(0.015625)"/>
      </defs>
      <use xlink:href="#NimbusRomNo9L-Regu-56" transform="scale(0.996264)"/>
     </g>
    </g>
   </g>
   <g id="line2d_117">
    <path d="M 30.584175 147.497072 
L 30.651162 148.384396 
L 30.785135 147.497072 
L 30.852122 147.497072 
L 30.986096 146.609748 
L 31.32103 146.609748 
L 31.388017 145.722424 
L 31.52199 146.609748 
L 31.655964 146.609748 
L 31.722951 145.722424 
L 31.856924 146.609748 
L 31.923911 146.609748 
L 31.990898 147.497072 
L 32.124871 146.609748 
L 32.191858 146.609748 
L 32.258845 145.722424 
L 32.459805 147.497072 
L 32.660766 147.497072 
L 32.727753 146.609748 
L 32.861726 147.497072 
L 32.928713 147.497072 
L 32.9957 148.384396 
L 33.129673 147.497072 
L 33.19666 147.497072 
L 33.330634 146.609748 
L 33.39762 146.609748 
L 33.531594 147.497072 
L 33.665568 147.497072 
L 33.866528 145.722424 
L 34.000502 146.609748 
L 34.402422 146.609748 
L 34.469409 147.497072 
L 34.603383 146.609748 
L 34.67037 146.609748 
L 34.87133 144.835101 
L 35.07229 146.609748 
L 35.876132 146.609748 
L 36.010105 145.722424 
L 36.077092 145.722424 
L 36.211066 146.609748 
L 36.278053 146.609748 
L 36.345039 147.497072 
L 36.479013 146.609748 
L 36.546 146.609748 
L 36.679973 145.722424 
L 37.550802 145.722424 
L 37.684775 146.609748 
L 37.751762 146.609748 
L 37.818749 147.497072 
L 37.952723 146.609748 
L 38.019709 146.609748 
L 38.153683 145.722424 
L 38.22067 145.722424 
L 38.42163 147.497072 
L 38.555604 147.497072 
L 38.689577 146.609748 
L 39.091498 146.609748 
L 39.225472 147.497072 
L 39.359445 147.497072 
L 39.493419 146.609748 
L 40.0963 146.609748 
L 40.230274 147.497072 
L 40.364247 147.497072 
L 40.498221 146.609748 
L 41.034115 146.609748 
L 41.168089 145.722424 
L 41.235075 145.722424 
L 41.369049 146.609748 
L 41.436036 146.609748 
L 41.503023 147.497072 
L 41.636996 146.609748 
L 41.703983 146.609748 
L 41.837957 145.722424 
L 41.904943 145.722424 
L 42.038917 146.609748 
L 42.105904 146.609748 
L 42.172891 147.497072 
L 42.306864 146.609748 
L 42.373851 146.609748 
L 42.507825 145.722424 
L 42.574811 145.722424 
L 42.708785 146.609748 
L 42.775772 146.609748 
L 42.842759 147.497072 
L 42.976732 146.609748 
L 43.043719 146.609748 
L 43.110706 145.722424 
L 43.244679 146.609748 
L 43.378653 146.609748 
L 43.44564 145.722424 
L 43.579613 146.609748 
L 43.713587 146.609748 
L 43.84756 145.722424 
L 43.914547 145.722424 
L 44.048521 146.609748 
L 44.249481 146.609748 
L 44.383455 145.722424 
L 44.785376 145.722424 
L 44.919349 146.609748 
L 45.388257 146.609748 
L 45.455244 145.722424 
L 45.589217 146.609748 
L 45.723191 146.609748 
L 45.857164 145.722424 
L 45.924151 145.722424 
L 46.058125 146.609748 
L 46.259085 146.609748 
L 46.393059 145.722424 
L 46.460045 145.722424 
L 46.594019 146.609748 
L 46.727993 146.609748 
L 46.861966 145.722424 
L 46.928953 145.722424 
L 47.1969 148.384396 
L 47.263887 148.384396 
L 47.531834 145.722424 
L 47.732795 145.722424 
L 47.866768 144.835101 
L 47.933755 144.835101 
L 48.067729 145.722424 
L 48.268689 145.722424 
L 48.335676 144.835101 
L 48.536636 146.609748 
L 48.737596 146.609748 
L 48.87157 145.722424 
L 49.07253 145.722424 
L 49.206504 144.835101 
L 49.474451 144.835101 
L 49.608425 145.722424 
L 49.742398 145.722424 
L 49.876372 144.835101 
L 49.943359 144.835101 
L 50.077332 145.722424 
L 50.144319 145.722424 
L 50.211306 146.609748 
L 50.34528 145.722424 
L 50.412266 145.722424 
L 50.479253 144.835101 
L 50.613227 145.722424 
L 50.7472 145.722424 
L 50.814187 144.835101 
L 50.948161 145.722424 
L 51.082134 145.722424 
L 51.216108 144.835101 
L 51.283095 144.835101 
L 51.417068 145.722424 
L 51.484055 145.722424 
L 51.551042 146.609748 
L 51.685015 145.722424 
L 51.752002 145.722424 
L 51.885976 144.835101 
L 51.952963 144.835101 
L 52.086936 145.722424 
L 52.153923 145.722424 
L 52.22091 146.609748 
L 52.354883 145.722424 
L 52.42187 145.722424 
L 52.555844 144.835101 
L 52.957765 144.835101 
L 53.091738 145.722424 
L 53.292699 145.722424 
L 53.493659 143.947777 
L 53.694619 145.722424 
L 53.761606 145.722424 
L 53.89558 144.835101 
L 53.962566 144.835101 
L 54.09654 145.722424 
L 54.833395 145.722424 
L 54.967368 146.609748 
L 55.77121 146.609748 
L 55.905184 145.722424 
L 55.97217 145.722424 
L 56.106144 146.609748 
L 56.307104 146.609748 
L 56.441078 145.722424 
L 56.508065 145.722424 
L 56.642038 146.609748 
L 56.709025 146.609748 
L 56.776012 147.497072 
L 56.909985 146.609748 
L 56.976972 146.609748 
L 57.177933 144.835101 
L 57.311906 145.722424 
L 57.64684 145.722424 
L 57.780814 146.609748 
L 58.316708 146.609748 
L 58.450682 145.722424 
L 58.517669 145.722424 
L 58.651642 146.609748 
L 58.785616 146.609748 
L 58.919589 145.722424 
L 59.12055 145.722424 
L 59.187536 144.835101 
L 59.32151 145.722424 
L 59.455484 145.722424 
L 59.589457 144.835101 
L 59.656444 144.835101 
L 59.790418 145.722424 
L 59.857404 145.722424 
L 59.924391 146.609748 
L 60.058365 145.722424 
L 60.125352 145.722424 
L 60.259325 144.835101 
L 60.527272 144.835101 
L 60.728233 146.609748 
L 60.929193 146.609748 
L 61.063167 144.835101 
L 61.264127 146.609748 
L 61.398101 145.722424 
L 61.465087 145.722424 
L 61.599061 144.835101 
L 61.666048 144.835101 
L 61.867008 146.609748 
L 62.000982 146.609748 
L 62.201942 144.835101 
L 62.335916 145.722424 
L 62.469889 145.722424 
L 62.536876 144.835101 
L 62.67085 145.722424 
L 62.804823 145.722424 
L 63.005784 143.947777 
L 63.206744 145.722424 
L 63.340718 145.722424 
L 63.541678 143.947777 
L 63.809625 146.609748 
L 63.943599 145.722424 
L 64.010586 145.722424 
L 64.144559 144.835101 
L 64.211546 144.835101 
L 64.34552 145.722424 
L 64.479493 145.722424 
L 64.613467 144.835101 
L 64.680454 144.835101 
L 64.814427 143.947777 
L 64.881414 143.947777 
L 65.082374 145.722424 
L 65.350322 145.722424 
L 65.551282 143.947777 
L 65.685256 144.835101 
L 65.886216 144.835101 
L 66.02019 145.722424 
L 66.087176 145.722424 
L 66.154163 146.609748 
L 66.288137 145.722424 
L 66.355123 145.722424 
L 66.489097 144.835101 
L 66.556084 144.835101 
L 66.690057 145.722424 
L 66.824031 145.722424 
L 66.958005 144.835101 
L 67.024991 144.835101 
L 67.158965 145.722424 
L 67.694859 145.722424 
L 67.828833 144.835101 
L 68.364727 144.835101 
L 68.498701 145.722424 
L 68.699661 145.722424 
L 68.833635 146.609748 
L 69.034595 146.609748 
L 69.168569 145.722424 
L 70.374331 145.722424 
L 70.575292 143.947777 
L 70.843239 146.609748 
L 71.044199 146.609748 
L 71.24516 144.835101 
L 71.379133 144.835101 
L 71.64708 147.497072 
L 71.714067 147.497072 
L 71.982014 144.835101 
L 72.049001 144.835101 
L 72.182975 145.722424 
L 72.383935 145.722424 
L 72.517909 144.835101 
L 72.584895 144.835101 
L 72.718869 145.722424 
L 72.852843 145.722424 
L 72.986816 144.835101 
L 73.053803 144.835101 
L 73.187777 145.722424 
L 73.388737 145.722424 
L 73.522711 144.835101 
L 73.723671 144.835101 
L 73.857645 145.722424 
L 74.058605 145.722424 
L 74.192578 144.835101 
L 74.259565 144.835101 
L 74.393539 145.722424 
L 74.460526 145.722424 
L 74.527512 146.609748 
L 74.661486 145.722424 
L 74.929433 145.722424 
L 74.99642 146.609748 
L 75.130394 145.722424 
L 75.19738 145.722424 
L 75.331354 144.835101 
L 75.532314 144.835101 
L 75.666288 143.947777 
L 75.733275 143.947777 
L 75.867248 144.835101 
L 75.934235 144.835101 
L 76.001222 145.722424 
L 76.135196 144.835101 
L 76.202182 144.835101 
L 76.269169 143.947777 
L 76.403143 144.835101 
L 76.537116 144.835101 
L 76.67109 143.947777 
L 76.738077 143.947777 
L 76.87205 144.835101 
L 77.073011 144.835101 
L 77.139997 143.947777 
L 77.340958 145.722424 
L 77.541918 145.722424 
L 77.675892 144.835101 
L 77.742879 144.835101 
L 77.876852 145.722424 
L 78.278773 145.722424 
L 78.34576 146.609748 
L 78.479733 145.722424 
L 78.54672 145.722424 
L 78.613707 144.835101 
L 78.747681 145.722424 
L 78.814667 145.722424 
L 78.881654 146.609748 
L 79.015628 145.722424 
L 79.082614 145.722424 
L 79.216588 144.835101 
L 79.283575 144.835101 
L 79.417548 145.722424 
L 79.551522 145.722424 
L 79.618509 144.835101 
L 79.752482 145.722424 
L 79.886456 145.722424 
L 80.02043 144.835101 
L 80.556324 144.835101 
L 80.690298 143.947777 
L 80.757284 143.947777 
L 80.891258 144.835101 
L 81.092218 144.835101 
L 81.226192 143.947777 
L 81.628113 143.947777 
L 81.762086 144.835101 
L 82.230994 144.835101 
L 82.364967 143.947777 
L 82.431954 143.947777 
L 82.565928 144.835101 
L 82.632915 144.835101 
L 82.699901 145.722424 
L 82.833875 144.835101 
L 82.900862 144.835101 
L 82.967849 143.947777 
L 83.101822 144.835101 
L 83.168809 144.835101 
L 83.235796 145.722424 
L 83.369769 144.835101 
L 83.436756 144.835101 
L 83.57073 143.947777 
L 83.637717 143.947777 
L 83.838677 145.722424 
L 83.905664 145.722424 
L 84.039637 144.835101 
L 84.441558 144.835101 
L 84.575532 145.722424 
L 84.642518 145.722424 
L 84.709505 146.609748 
L 84.843479 145.722424 
L 84.910466 145.722424 
L 85.044439 144.835101 
L 85.44636 144.835101 
L 85.580334 145.722424 
L 85.781294 145.722424 
L 85.915268 144.835101 
L 86.116228 144.835101 
L 86.250202 143.947777 
L 86.652122 143.947777 
L 86.786096 144.835101 
L 87.589937 144.835101 
L 87.656924 143.947777 
L 87.790898 144.835101 
L 87.991858 144.835101 
L 88.125832 145.722424 
L 88.192819 145.722424 
L 88.259805 146.609748 
L 88.393779 145.722424 
L 88.460766 145.722424 
L 88.661726 143.947777 
L 88.862687 145.722424 
L 89.130634 145.722424 
L 89.331594 143.947777 
L 89.465568 143.947777 
L 89.599541 144.835101 
L 90.269409 144.835101 
L 90.403383 143.947777 
L 90.47037 143.947777 
L 90.604343 144.835101 
L 90.805304 144.835101 
L 90.87229 143.947777 
L 91.073251 145.722424 
L 91.207224 145.722424 
L 91.274211 146.609748 
L 91.408185 145.722424 
L 91.475172 145.722424 
L 91.609145 144.835101 
L 91.676132 144.835101 
L 91.810105 145.722424 
L 91.877092 145.722424 
L 92.078053 143.947777 
L 92.346 143.947777 
L 92.479973 144.835101 
L 92.613947 144.835101 
L 92.747921 143.947777 
L 92.814907 143.947777 
L 92.948881 144.835101 
L 93.149841 144.835101 
L 93.283815 143.947777 
L 93.819709 143.947777 
L 93.953683 144.835101 
L 94.02067 144.835101 
L 94.087657 145.722424 
L 94.22163 144.835101 
L 94.288617 144.835101 
L 94.355604 143.947777 
L 94.489577 144.835101 
L 94.623551 144.835101 
L 94.757524 143.947777 
L 94.824511 143.947777 
L 94.958485 144.835101 
L 95.025472 144.835101 
L 95.092458 145.722424 
L 95.226432 144.835101 
L 95.293419 144.835101 
L 95.360406 143.947777 
L 95.494379 144.835101 
L 95.628353 144.835101 
L 95.69534 143.947777 
L 95.829313 144.835101 
L 95.963287 144.835101 
L 96.030274 143.947777 
L 96.164247 144.835101 
L 96.231234 144.835101 
L 96.298221 145.722424 
L 96.432194 144.835101 
L 96.499181 144.835101 
L 96.566168 143.947777 
L 96.767128 145.722424 
L 96.968089 145.722424 
L 97.102062 144.835101 
L 97.169049 144.835101 
L 97.303023 143.947777 
L 97.370009 143.947777 
L 97.503983 144.835101 
L 97.637957 144.835101 
L 97.77193 143.947777 
L 97.972891 143.947777 
L 98.039877 143.060453 
L 98.307825 145.722424 
L 98.441798 144.835101 
L 98.709745 144.835101 
L 98.776732 145.722424 
L 98.910706 144.835101 
L 98.977693 144.835101 
L 99.111666 143.947777 
L 99.178653 143.947777 
L 99.312626 144.835101 
L 100.987296 144.835101 
L 101.054283 143.947777 
L 101.188257 144.835101 
L 101.389217 144.835101 
L 101.523191 145.722424 
L 101.657164 145.722424 
L 101.724151 144.835101 
L 101.858125 145.722424 
L 102.327032 145.722424 
L 102.527993 143.947777 
L 102.661966 144.835101 
L 102.728953 144.835101 
L 102.79594 145.722424 
L 102.929913 144.835101 
L 102.9969 144.835101 
L 103.130874 143.947777 
L 103.197861 143.947777 
L 103.331834 144.835101 
L 103.398821 144.835101 
L 103.465808 145.722424 
L 103.599781 144.835101 
L 103.666768 144.835101 
L 103.733755 143.947777 
L 103.867729 144.835101 
L 104.87253 144.835101 
L 105.006504 145.722424 
L 105.207464 145.722424 
L 105.408425 143.947777 
L 105.609385 145.722424 
L 105.877332 145.722424 
L 106.011306 144.835101 
L 106.882134 144.835101 
L 107.016108 145.722424 
L 107.217068 145.722424 
L 107.351042 144.835101 
L 107.886936 144.835101 
L 108.02091 143.947777 
L 108.087897 143.947777 
L 108.22187 144.835101 
L 108.355844 144.835101 
L 108.489817 143.947777 
L 109.427632 143.947777 
L 109.561606 144.835101 
L 109.69558 144.835101 
L 109.762566 143.947777 
L 109.89654 144.835101 
L 109.963527 144.835101 
L 110.030514 145.722424 
L 110.164487 144.835101 
L 110.432434 144.835101 
L 110.499421 145.722424 
L 110.633395 144.835101 
L 110.700382 144.835101 
L 110.767368 143.947777 
L 110.901342 144.835101 
L 111.035316 144.835101 
L 111.169289 143.947777 
L 111.236276 143.947777 
L 111.37025 144.835101 
L 111.906144 144.835101 
L 112.040117 143.947777 
L 112.241078 143.947777 
L 112.375051 144.835101 
L 112.776972 144.835101 
L 112.843959 145.722424 
L 112.977933 144.835101 
L 113.044919 144.835101 
L 113.178893 143.947777 
L 113.915748 143.947777 
L 114.049721 143.060453 
L 114.183695 143.060453 
L 114.853563 133.299889 
L 115.657404 110.229467 
L 115.992338 97.806931 
L 116.99714 61.42665 
L 118.202903 31.257636 
L 118.269889 31.257636 
L 118.67181 26.821016 
L 118.738797 26.821016 
L 118.872771 25.933692 
L 119.073731 25.933692 
L 119.274691 24.159044 
L 119.475652 25.933692 
L 120.279493 25.933692 
L 120.413467 26.821016 
L 121.083335 26.821016 
L 121.284295 25.046368 
L 121.351282 25.046368 
L 121.552242 26.821016 
L 121.686216 26.821016 
L 121.753203 27.70834 
L 121.887176 26.821016 
L 121.954163 26.821016 
L 122.155123 25.046368 
L 122.289097 25.046368 
L 122.423071 24.159044 
L 122.490057 24.159044 
L 122.624031 25.046368 
L 122.758005 25.046368 
L 122.824991 24.159044 
L 122.958965 25.046368 
L 123.159925 25.046368 
L 123.293899 25.933692 
L 123.360886 25.933692 
L 123.427873 26.821016 
L 123.561846 25.933692 
L 123.628833 25.933692 
L 123.762807 25.046368 
L 124.432675 25.046368 
L 124.566648 24.159044 
L 124.633635 24.159044 
L 124.767608 25.046368 
L 124.968569 25.046368 
L 125.035556 24.159044 
L 125.236516 25.933692 
L 125.437476 25.933692 
L 125.57145 25.046368 
L 125.973371 25.046368 
L 126.107344 25.933692 
L 126.174331 25.933692 
L 126.241318 26.821016 
L 126.375292 25.933692 
L 126.442278 25.933692 
L 126.576252 25.046368 
L 127.782014 25.046368 
L 127.915988 24.159044 
L 127.982975 24.159044 
L 128.116948 25.046368 
L 128.183935 25.046368 
L 128.250922 25.933692 
L 128.384895 25.046368 
L 128.451882 25.046368 
L 128.585856 24.159044 
L 128.987777 24.159044 
L 129.12175 25.046368 
L 129.322711 25.046368 
L 129.523671 23.27172 
L 129.657645 24.159044 
L 131.868209 24.159044 
L 132.002182 25.046368 
L 132.136156 25.046368 
L 132.337116 23.27172 
L 132.404103 23.27172 
L 132.605063 25.046368 
L 132.806024 25.046368 
L 132.939997 24.159044 
L 133.475892 24.159044 
L 133.542879 23.27172 
L 133.743839 25.046368 
L 134.011786 25.046368 
L 134.14576 24.159044 
L 134.34672 24.159044 
L 134.480694 23.27172 
L 134.681654 23.27172 
L 134.815628 24.159044 
L 135.351522 24.159044 
L 135.485496 23.27172 
L 135.552482 23.27172 
L 135.686456 24.159044 
L 136.02139 24.159044 
L 136.155364 25.046368 
L 136.22235 25.046368 
L 136.289337 25.933692 
L 136.423311 25.046368 
L 136.490298 25.046368 
L 136.758245 22.384396 
L 136.892218 23.27172 
L 137.026192 23.27172 
L 137.160166 24.159044 
L 137.361126 24.159044 
L 137.495099 23.27172 
L 137.69606 23.27172 
L 137.830033 24.159044 
L 138.499901 24.159044 
L 138.633875 23.27172 
L 138.700862 23.27172 
L 138.834835 24.159044 
L 139.035796 24.159044 
L 139.169769 23.27172 
L 140.241558 23.27172 
L 140.375532 24.159044 
L 140.509505 24.159044 
L 140.576492 23.27172 
L 140.710466 24.159044 
L 140.777452 24.159044 
L 140.844439 25.046368 
L 140.978413 24.159044 
L 141.0454 24.159044 
L 141.179373 23.27172 
L 141.380334 23.27172 
L 141.514307 22.384396 
L 141.581294 22.384396 
L 141.849241 25.046368 
L 141.983215 24.159044 
L 142.385135 24.159044 
L 142.519109 23.27172 
L 142.586096 23.27172 
L 142.720069 24.159044 
L 143.188977 24.159044 
L 143.322951 23.27172 
L 143.389937 23.27172 
L 143.523911 24.159044 
L 143.724871 24.159044 
L 143.858845 23.27172 
L 145.064607 23.27172 
L 145.131594 22.384396 
L 145.332554 24.159044 
L 145.533515 24.159044 
L 145.667488 23.27172 
L 145.734475 23.27172 
L 145.868449 24.159044 
L 145.935436 24.159044 
L 146.002422 25.046368 
L 146.136396 24.159044 
L 146.203383 24.159044 
L 146.404343 22.384396 
L 146.538317 23.27172 
L 146.940238 23.27172 
L 147.074211 24.159044 
L 147.141198 24.159044 
L 147.208185 25.046368 
L 147.342158 24.159044 
L 147.811066 24.159044 
L 148.079013 26.821016 
L 148.279973 26.821016 
L 149.150802 39.243551 
L 151.830274 107.567495 
L 152.701102 118.215382 
L 152.768089 118.215382 
L 152.902062 119.102706 
L 152.969049 119.102706 
L 153.103023 119.99003 
L 153.437957 119.99003 
L 153.705904 122.652002 
L 153.839877 121.764678 
L 153.973851 121.764678 
L 154.107825 122.652002 
L 154.442759 122.652002 
L 154.777693 126.201298 
L 154.978653 126.201298 
L 155.179613 127.975946 
L 155.648521 127.975946 
L 155.849481 129.750593 
L 155.983455 129.750593 
L 156.117428 130.637917 
L 156.251402 130.637917 
L 156.385376 129.750593 
L 156.787296 129.750593 
L 156.92127 130.637917 
L 157.12223 130.637917 
L 157.256204 131.525241 
L 157.792098 131.525241 
L 157.926072 130.637917 
L 157.993059 130.637917 
L 158.127032 131.525241 
L 158.194019 131.525241 
L 158.261006 132.412565 
L 158.394979 131.525241 
L 158.461966 131.525241 
L 158.59594 130.637917 
L 158.7969 130.637917 
L 158.930874 131.525241 
L 159.131834 131.525241 
L 159.265808 132.412565 
L 160.806504 132.412565 
L 160.940478 131.525241 
L 161.007464 131.525241 
L 161.141438 132.412565 
L 161.208425 132.412565 
L 161.275412 133.299889 
L 161.409385 132.412565 
L 161.476372 132.412565 
L 161.543359 131.525241 
L 161.744319 133.299889 
L 161.94528 133.299889 
L 162.079253 132.412565 
L 162.14624 132.412565 
L 162.3472 134.187213 
L 162.481174 134.187213 
L 162.615148 133.299889 
L 163.954883 133.299889 
L 164.155844 131.525241 
L 164.222831 131.525241 
L 164.423791 133.299889 
L 164.557765 133.299889 
L 164.624751 134.187213 
L 164.758725 133.299889 
L 164.825712 133.299889 
L 164.959685 132.412565 
L 165.026672 132.412565 
L 165.227632 134.187213 
L 165.294619 134.187213 
L 165.428593 133.299889 
L 165.49558 133.299889 
L 165.629553 134.187213 
L 165.830514 134.187213 
L 166.031474 132.412565 
L 166.232434 134.187213 
L 166.299421 134.187213 
L 166.366408 133.299889 
L 166.500382 134.187213 
L 166.634355 134.187213 
L 166.768329 133.299889 
L 166.835316 133.299889 
L 166.969289 134.187213 
L 167.37121 134.187213 
L 167.438197 135.074537 
L 167.57217 134.187213 
L 167.639157 134.187213 
L 167.706144 133.299889 
L 167.840117 134.187213 
L 167.974091 134.187213 
L 168.041078 133.299889 
L 168.175051 134.187213 
L 168.509985 134.187213 
L 168.643959 135.074537 
L 168.844919 135.074537 
L 169.04588 133.299889 
L 169.24684 135.074537 
L 169.514787 135.074537 
L 169.648761 134.187213 
L 169.849721 134.187213 
L 169.916708 133.299889 
L 170.117669 135.074537 
L 170.318629 135.074537 
L 170.452602 134.187213 
L 171.189457 134.187213 
L 171.323431 133.299889 
L 171.390418 133.299889 
L 171.591378 135.074537 
L 172.328233 135.074537 
L 172.39522 134.187213 
L 172.529193 135.074537 
L 172.663167 135.074537 
L 172.730154 134.187213 
L 172.864127 135.074537 
L 172.931114 135.074537 
L 172.998101 135.961861 
L 173.132074 135.074537 
L 173.734955 135.074537 
L 173.801942 135.961861 
L 173.935916 135.074537 
L 174.002903 135.074537 
L 174.136876 134.187213 
L 174.404823 134.187213 
L 174.538797 135.074537 
L 174.605784 135.074537 
L 174.672771 135.961861 
L 174.806744 135.074537 
L 175.141678 135.074537 
L 175.342639 133.299889 
L 175.409625 133.299889 
L 175.677572 135.961861 
L 175.811546 135.074537 
L 175.878533 135.074537 
L 176.012506 134.187213 
L 176.079493 134.187213 
L 176.213467 135.074537 
L 176.280454 135.074537 
L 176.34744 135.961861 
L 176.481414 135.074537 
L 176.548401 135.074537 
L 176.682374 134.187213 
L 177.084295 134.187213 
L 177.218269 135.074537 
L 177.352242 135.074537 
L 177.553203 133.299889 
L 177.62019 133.299889 
L 177.82115 135.074537 
L 177.955123 135.074537 
L 178.02211 135.961861 
L 178.156084 135.074537 
L 178.424031 135.074537 
L 178.491018 135.961861 
L 178.624991 135.074537 
L 178.691978 135.074537 
L 178.825952 134.187213 
L 178.892939 134.187213 
L 179.026912 135.074537 
L 179.093899 135.074537 
L 179.227873 135.961861 
L 179.49582 133.299889 
L 179.562807 133.299889 
L 179.830754 135.961861 
L 179.897741 135.961861 
L 180.098701 134.187213 
L 180.366648 134.187213 
L 180.500622 133.299889 
L 180.567608 133.299889 
L 180.768569 135.074537 
L 180.902542 135.074537 
L 181.103503 133.299889 
L 181.237476 134.187213 
L 181.37145 134.187213 
L 181.505424 133.299889 
L 181.57241 133.299889 
L 181.773371 135.074537 
L 181.907344 135.074537 
L 181.974331 134.187213 
L 182.175292 135.961861 
L 182.242278 135.961861 
L 182.376252 136.849185 
L 182.577212 136.849185 
L 182.711186 137.736509 
L 182.912146 137.736509 
L 183.04612 136.849185 
L 183.113107 136.849185 
L 183.381054 139.511157 
L 183.582014 139.511157 
L 183.715988 140.398481 
L 183.916948 140.398481 
L 184.050922 141.285805 
L 184.251882 141.285805 
L 184.385856 140.398481 
L 184.452843 140.398481 
L 184.586816 141.285805 
L 184.72079 141.285805 
L 184.787777 140.398481 
L 184.92175 141.285805 
L 185.256684 141.285805 
L 185.390658 142.173129 
L 185.457645 142.173129 
L 185.591618 143.060453 
L 185.725592 143.060453 
L 185.792578 142.173129 
L 185.926552 143.060453 
L 186.39546 143.060453 
L 186.462446 142.173129 
L 186.59642 143.060453 
L 186.663407 143.060453 
L 186.730394 143.947777 
L 186.864367 143.060453 
L 186.931354 143.060453 
L 187.065328 142.173129 
L 187.400262 142.173129 
L 187.467248 141.285805 
L 187.601222 142.173129 
L 188.405063 142.173129 
L 188.539037 141.285805 
L 189.275892 141.285805 
L 189.476852 139.511157 
L 189.610826 140.398481 
L 189.677813 140.398481 
L 189.744799 141.285805 
L 189.878773 140.398481 
L 189.94576 140.398481 
L 190.079733 139.511157 
L 190.481654 139.511157 
L 190.548641 140.398481 
L 190.682614 139.511157 
L 190.749601 139.511157 
L 190.883575 138.623833 
L 190.950562 138.623833 
L 191.084535 139.511157 
L 191.151522 139.511157 
L 191.218509 140.398481 
L 191.352482 139.511157 
L 191.419469 139.511157 
L 191.553443 138.623833 
L 191.754403 138.623833 
L 191.82139 137.736509 
L 192.02235 139.511157 
L 192.156324 139.511157 
L 192.223311 140.398481 
L 192.357284 139.511157 
L 192.424271 139.511157 
L 192.491258 138.623833 
L 192.625232 139.511157 
L 192.759205 139.511157 
L 192.893179 138.623833 
L 192.960166 138.623833 
L 193.094139 139.511157 
L 193.830994 139.511157 
L 193.897981 140.398481 
L 194.031954 139.511157 
L 194.098941 139.511157 
L 194.232915 138.623833 
L 194.835796 138.623833 
L 194.969769 139.511157 
L 195.103743 139.511157 
L 195.237717 138.623833 
L 195.505664 138.623833 
L 195.706624 140.398481 
L 195.773611 140.398481 
L 196.041558 137.736509 
L 196.242518 139.511157 
L 196.443479 139.511157 
L 196.577452 138.623833 
L 196.8454 138.623833 
L 196.912386 139.511157 
L 197.180334 136.849185 
L 197.314307 137.736509 
L 197.649241 137.736509 
L 197.783215 138.623833 
L 197.984175 138.623833 
L 197.984175 138.623833 
" clip-path="url(#p0419e8a349)" style="fill: none; stroke: #000000; stroke-linecap: square"/>
   </g>
   <g id="patch_3">
    <path d="M 22.214175 154.684396 
L 22.214175 16.084396 
" style="fill: none; stroke: #000000; stroke-width: 0.5; stroke-linejoin: miter; stroke-linecap: square"/>
   </g>
   <g id="patch_4">
    <path d="M 206.354175 154.684396 
L 206.354175 16.084396 
" style="fill: none; stroke: #000000; stroke-width: 0.5; stroke-linejoin: miter; stroke-linecap: square"/>
   </g>
   <g id="patch_5">
    <path d="M 22.214175 154.684396 
L 206.354175 154.684396 
" style="fill: none; stroke: #000000; stroke-width: 0.5; stroke-linejoin: miter; stroke-linecap: square"/>
   </g>
   <g id="patch_6">
    <path d="M 22.214175 16.084396 
L 206.354175 16.084396 
" style="fill: none; stroke: #000000; stroke-width: 0.5; stroke-linejoin: miter; stroke-linecap: square"/>
   </g>
   <g id="text_14">
    <!-- Waveforms with different loads -->
    <g transform="translate(53.997228 10.084396) scale(0.096 -0.096)">
     <defs>
      <path id="NimbusRomNo9L-Regu-57" d="M 5965 4224 
L 4698 4224 
L 4698 4102 
C 5024 4070 5139 4000 5139 3826 
C 5139 3692 5101 3524 5037 3345 
L 4237 1169 
L 3392 3358 
C 3379 3390 3322 3531 3315 3551 
C 3258 3685 3219 3807 3219 3877 
C 3219 4032 3366 4096 3712 4096 
L 3712 4224 
L 2003 4224 
L 2003 4096 
C 2368 4096 2432 4038 2650 3524 
L 2861 2998 
L 2176 1188 
L 1254 3612 
C 1210 3728 1184 3838 1184 3909 
C 1184 4051 1274 4096 1600 4096 
L 1600 4224 
L 32 4224 
L 32 4102 
C 358 4070 454 3955 691 3351 
L 1926 -96 
L 2022 -96 
L 3008 2619 
L 4032 -96 
L 4128 -96 
C 4672 1579 4736 1759 5434 3647 
C 5555 3981 5626 4038 5965 4102 
L 5965 4224 
z
" transform="scale(0.015625)"/>
      <path id="NimbusRomNo9L-Regu-61" d="M 2829 423 
C 2720 333 2643 301 2547 301 
C 2400 301 2355 390 2355 672 
L 2355 1920 
C 2355 2253 2323 2438 2227 2592 
C 2086 2822 1811 2944 1434 2944 
C 832 2944 358 2630 358 2227 
C 358 2080 486 1952 634 1952 
C 787 1952 922 2080 922 2221 
C 922 2246 915 2278 909 2323 
C 896 2381 890 2432 890 2477 
C 890 2650 1094 2790 1350 2790 
C 1664 2790 1837 2605 1837 2259 
L 1837 1869 
C 851 1472 742 1421 467 1178 
C 326 1050 237 832 237 621 
C 237 218 518 -64 909 -64 
C 1190 -64 1453 70 1843 403 
C 1875 70 1990 -64 2253 -64 
C 2470 -64 2605 13 2829 256 
L 2829 423 
z
M 1837 783 
C 1837 584 1805 526 1670 449 
C 1517 359 1338 301 1203 301 
C 979 301 800 520 800 796 
L 800 822 
C 800 1201 1062 1433 1837 1715 
L 1837 783 
z
" transform="scale(0.015625)"/>
      <path id="NimbusRomNo9L-Regu-76" d="M 3053 2854 
L 2163 2854 
L 2163 2758 
C 2368 2739 2464 2675 2464 2552 
C 2464 2488 2451 2424 2426 2359 
L 1792 695 
L 1139 2340 
C 1101 2431 1082 2520 1082 2578 
C 1082 2694 1152 2739 1376 2758 
L 1376 2854 
L 122 2854 
L 122 2752 
C 365 2752 410 2688 704 2024 
L 1472 175 
C 1485 137 1504 91 1523 40 
C 1562 -76 1600 -128 1638 -128 
C 1677 -128 1722 -44 1818 193 
L 2637 2257 
C 2822 2694 2861 2739 3053 2758 
L 3053 2854 
z
" transform="scale(0.015625)"/>
      <path id="NimbusRomNo9L-Regu-65" d="M 2611 1053 
C 2304 564 2029 378 1619 378 
C 1254 378 979 564 794 930 
C 678 1174 634 1386 621 1779 
L 2592 1779 
C 2541 2193 2477 2377 2317 2581 
C 2125 2811 1830 2944 1498 2944 
C 1178 2944 877 2829 634 2611 
C 333 2349 160 1894 160 1370 
C 160 486 621 -64 1357 -64 
C 1965 -64 2445 315 2714 1008 
L 2611 1053 
z
M 634 1984 
C 704 2479 922 2714 1312 2714 
C 1702 2714 1856 2535 1939 1984 
L 634 1984 
z
" transform="scale(0.015625)"/>
      <path id="NimbusRomNo9L-Regu-66" d="M 1978 2880 
L 1190 2880 
L 1190 3611 
C 1190 3978 1312 4173 1555 4173 
C 1690 4173 1779 4110 1894 3927 
C 1997 3763 2074 3700 2182 3700 
C 2330 3700 2451 3814 2451 3959 
C 2451 4188 2170 4352 1786 4352 
C 1389 4352 1050 4181 883 3891 
C 717 3613 666 3385 659 2880 
L 134 2880 
L 134 2675 
L 659 2675 
L 659 656 
C 659 185 589 109 128 109 
L 128 0 
L 1792 0 
L 1792 109 
C 1267 109 1197 180 1197 661 
L 1197 2675 
L 1978 2675 
L 1978 2880 
z
" transform="scale(0.015625)"/>
      <path id="NimbusRomNo9L-Regu-6f" d="M 1600 2944 
C 768 2944 186 2330 186 1446 
C 186 582 781 -64 1587 -64 
C 2394 -64 3008 614 3008 1498 
C 3008 2336 2419 2944 1600 2944 
z
M 1517 2765 
C 2054 2765 2432 2150 2432 1274 
C 2432 550 2144 115 1664 115 
C 1414 115 1178 269 1043 525 
C 864 858 762 1306 762 1760 
C 762 2368 1062 2765 1517 2765 
z
" transform="scale(0.015625)"/>
      <path id="NimbusRomNo9L-Regu-72" d="M 45 2496 
C 134 2515 192 2522 269 2522 
C 429 2522 486 2419 486 2138 
L 486 538 
C 486 218 442 173 32 96 
L 32 0 
L 1568 0 
L 1568 102 
C 1133 102 1024 199 1024 565 
L 1024 2013 
C 1024 2219 1299 2541 1472 2541 
C 1510 2541 1568 2509 1638 2445 
C 1741 2355 1811 2317 1894 2317 
C 2048 2317 2144 2426 2144 2605 
C 2144 2816 2010 2944 1792 2944 
C 1523 2944 1338 2797 1024 2343 
L 1024 2931 
L 992 2944 
C 653 2803 422 2721 45 2599 
L 45 2496 
z
" transform="scale(0.015625)"/>
      <path id="NimbusRomNo9L-Regu-6d" d="M 122 2547 
C 205 2566 256 2573 326 2573 
C 493 2573 550 2470 550 2162 
L 550 539 
C 550 192 461 96 102 96 
L 102 0 
L 1523 0 
L 1523 96 
C 1184 96 1088 166 1088 418 
L 1088 2234 
C 1088 2246 1139 2310 1184 2355 
C 1344 2502 1619 2611 1843 2611 
C 2125 2611 2266 2385 2266 1932 
L 2266 528 
C 2266 167 2195 96 1830 96 
L 1830 0 
L 3264 0 
L 3264 96 
C 2899 96 2803 205 2803 603 
L 2803 2221 
C 2995 2496 3206 2611 3501 2611 
C 3866 2611 3981 2438 3981 1907 
L 3981 557 
C 3981 192 3930 141 3558 96 
L 3558 0 
L 4960 0 
L 4960 96 
L 4794 115 
C 4602 115 4518 230 4518 480 
L 4518 1802 
C 4518 2559 4269 2944 3776 2944 
C 3405 2944 3078 2778 2733 2407 
C 2618 2771 2400 2944 2054 2944 
C 1773 2944 1594 2854 1062 2451 
L 1062 2931 
L 1018 2944 
C 691 2822 474 2752 122 2656 
L 122 2547 
z
" transform="scale(0.015625)"/>
      <path id="NimbusRomNo9L-Regu-77" d="M 3654 2912 
L 3654 2816 
C 3872 2771 3936 2726 3936 2618 
C 3936 2521 3898 2367 3827 2194 
L 3251 770 
L 2714 2207 
C 2605 2501 2605 2501 2605 2586 
C 2605 2726 2675 2771 2976 2816 
L 2976 2912 
L 1677 2912 
L 1677 2816 
C 1914 2790 1990 2720 2118 2373 
C 2163 2252 2208 2129 2246 2014 
L 1664 738 
L 1030 2412 
C 1005 2476 992 2540 992 2605 
C 992 2739 1069 2790 1286 2816 
L 1286 2912 
L 134 2912 
L 134 2816 
C 282 2803 333 2739 474 2412 
L 1338 219 
C 1414 26 1466 -64 1504 -64 
C 1536 -64 1587 20 1664 186 
L 2381 1725 
L 2963 212 
C 3053 -25 3078 -64 3117 -64 
C 3162 -64 3194 -6 3296 251 
L 4179 2469 
C 4294 2739 4314 2771 4442 2816 
L 4442 2912 
L 3654 2912 
z
" transform="scale(0.015625)"/>
      <path id="NimbusRomNo9L-Regu-69" d="M 1120 2929 
L 128 2579 
L 128 2484 
L 179 2490 
C 256 2502 339 2509 397 2509 
C 550 2509 608 2406 608 2125 
L 608 640 
C 608 179 544 109 102 109 
L 102 0 
L 1619 0 
L 1619 96 
C 1197 128 1146 191 1146 650 
L 1146 2910 
L 1120 2929 
z
M 819 4352 
C 646 4352 499 4205 499 4026 
C 499 3847 640 3699 819 3699 
C 1005 3699 1152 3840 1152 4026 
C 1152 4205 1005 4352 819 4352 
z
" transform="scale(0.015625)"/>
      <path id="NimbusRomNo9L-Regu-74" d="M 1632 2880 
L 986 2880 
L 986 3622 
C 986 3686 979 3706 941 3706 
C 896 3648 858 3590 813 3526 
C 570 3174 294 2867 192 2841 
C 122 2794 83 2748 83 2715 
C 83 2695 90 2682 109 2682 
L 448 2682 
L 448 751 
C 448 212 640 -64 1018 -64 
C 1331 -64 1574 90 1786 423 
L 1702 493 
C 1568 333 1459 269 1318 269 
C 1082 269 986 443 986 847 
L 986 2682 
L 1632 2682 
L 1632 2880 
z
" transform="scale(0.015625)"/>
      <path id="NimbusRomNo9L-Regu-68" d="M 1005 2222 
C 1274 2516 1466 2624 1715 2624 
C 2035 2624 2195 2395 2195 1948 
L 2195 684 
C 2195 250 2131 166 1760 128 
L 1760 32 
L 3117 32 
L 3117 128 
C 2771 192 2733 243 2733 684 
L 2733 1954 
C 2733 2625 2464 2970 1946 2970 
C 1568 2970 1299 2816 1005 2432 
L 1005 4390 
L 973 4409 
C 755 4332 595 4281 237 4179 
L 64 4128 
L 64 4026 
C 90 4032 109 4032 141 4032 
C 416 4032 467 3980 467 3705 
L 467 686 
C 467 237 429 179 58 128 
L 58 32 
L 1440 32 
L 1440 128 
C 1069 166 1005 243 1005 684 
L 1005 2222 
z
" transform="scale(0.015625)"/>
      <path id="NimbusRomNo9L-Regu-64" d="M 2202 -64 
L 3142 269 
L 3142 365 
C 3027 365 3014 365 2995 365 
C 2765 365 2714 435 2714 731 
L 2714 4364 
L 2682 4377 
C 2374 4268 2150 4204 1741 4096 
L 1741 3994 
C 1792 4000 1830 4000 1882 4000 
C 2118 4000 2176 3936 2176 3672 
L 2176 2669 
C 1933 2874 1760 2944 1504 2944 
C 768 2944 173 2221 173 1312 
C 173 493 653 -64 1357 -64 
C 1715 -64 1958 64 2176 365 
L 2176 -45 
L 2202 -64 
z
M 2176 653 
C 2176 608 2131 531 2067 461 
C 1952 333 1792 269 1606 269 
C 1075 269 723 781 723 1568 
C 723 2291 1037 2765 1523 2765 
C 1862 2765 2176 2464 2176 2125 
L 2176 653 
z
" transform="scale(0.015625)"/>
      <path id="NimbusRomNo9L-Regu-6c" d="M 122 4000 
L 160 4000 
C 230 4000 307 4000 358 4000 
C 563 4000 627 3910 627 3610 
L 627 557 
C 627 211 538 128 134 96 
L 134 0 
L 1645 0 
L 1645 109 
C 1242 109 1165 173 1165 528 
L 1165 4371 
L 1139 4384 
C 806 4275 563 4211 122 4103 
L 122 4000 
z
" transform="scale(0.015625)"/>
     </defs>
     <use xlink:href="#NimbusRomNo9L-Regu-57" transform="scale(0.996264)"/>
     <use xlink:href="#NimbusRomNo9L-Regu-61" transform="translate(86.077326 0) scale(0.996264)"/>
     <use xlink:href="#NimbusRomNo9L-Regu-76" transform="translate(128.318884 0) scale(0.996264)"/>
     <use xlink:href="#NimbusRomNo9L-Regu-65" transform="translate(176.638691 0) scale(0.996264)"/>
     <use xlink:href="#NimbusRomNo9L-Regu-66" transform="translate(220.87226 0) scale(0.996264)"/>
     <use xlink:href="#NimbusRomNo9L-Regu-6f" transform="translate(254.04749 0) scale(0.996264)"/>
     <use xlink:href="#NimbusRomNo9L-Regu-72" transform="translate(303.86069 0) scale(0.996264)"/>
     <use xlink:href="#NimbusRomNo9L-Regu-6d" transform="translate(337.03592 0) scale(0.996264)"/>
     <use xlink:href="#NimbusRomNo9L-Regu-73" transform="translate(414.54429 0) scale(0.996264)"/>
     <use xlink:href="#NimbusRomNo9L-Regu-77" transform="translate(478.204597 0) scale(0.996264)"/>
     <use xlink:href="#NimbusRomNo9L-Regu-69" transform="translate(550.134581 0) scale(0.996264)"/>
     <use xlink:href="#NimbusRomNo9L-Regu-74" transform="translate(577.829751 0) scale(0.996264)"/>
     <use xlink:href="#NimbusRomNo9L-Regu-68" transform="translate(605.524921 0) scale(0.996264)"/>
     <use xlink:href="#NimbusRomNo9L-Regu-64" transform="translate(680.244721 0) scale(0.996264)"/>
     <use xlink:href="#NimbusRomNo9L-Regu-69" transform="translate(730.057922 0) scale(0.996264)"/>
     <use xlink:href="#NimbusRomNo9L-Regu-66" transform="translate(757.753091 0) scale(0.996264)"/>
     <use xlink:href="#NimbusRomNo9L-Regu-66" transform="translate(788.437692 0) scale(0.996264)"/>
     <use xlink:href="#NimbusRomNo9L-Regu-65" transform="translate(821.612739 0) scale(0.996264)"/>
     <use xlink:href="#NimbusRomNo9L-Regu-72" transform="translate(865.846308 0) scale(0.996264)"/>
     <use xlink:href="#NimbusRomNo9L-Regu-65" transform="translate(899.021537 0) scale(0.996264)"/>
     <use xlink:href="#NimbusRomNo9L-Regu-6e" transform="translate(943.255106 0) scale(0.996264)"/>
     <use xlink:href="#NimbusRomNo9L-Regu-74" transform="translate(993.068306 0) scale(0.996264)"/>
     <use xlink:href="#NimbusRomNo9L-Regu-6c" transform="translate(1045.670076 0) scale(0.996264)"/>
     <use xlink:href="#NimbusRomNo9L-Regu-6f" transform="translate(1073.365246 0) scale(0.996264)"/>
     <use xlink:href="#NimbusRomNo9L-Regu-61" transform="translate(1123.178446 0) scale(0.996264)"/>
     <use xlink:href="#NimbusRomNo9L-Regu-64" transform="translate(1167.412015 0) scale(0.996264)"/>
     <use xlink:href="#NimbusRomNo9L-Regu-73" transform="translate(1217.225216 0) scale(0.996264)"/>
    </g>
   </g>
   <g id="legend_1">
    <g id="line2d_118">
     <path d="M 161.698725 26.084396 
L 169.698725 26.084396 
L 177.698725 26.084396 
" style="fill: none; stroke: #000000; stroke-linecap: square"/>
    </g>
    <g id="text_15">
     <!-- CH1 -->
     <g transform="translate(184.098725 28.884396) scale(0.08 -0.08)">
      <defs>
       <path id="NimbusRomNo9L-Regu-43" d="M 3968 2906 
L 3910 4352 
L 3776 4352 
C 3738 4218 3635 4141 3507 4141 
C 3450 4141 3354 4160 3258 4199 
C 2944 4301 2624 4352 2323 4352 
C 1798 4352 1267 4154 870 3802 
C 422 3405 179 2810 179 2106 
C 179 1511 371 960 698 596 
C 1082 180 1670 -64 2304 -64 
C 3027 -64 3661 231 4051 749 
L 3936 864 
C 3462 410 3040 218 2509 218 
C 2106 218 1747 346 1472 589 
C 1120 903 922 1479 922 2189 
C 922 3348 1517 4096 2445 4096 
C 2810 4096 3142 3962 3398 3706 
C 3603 3501 3699 3322 3821 2906 
L 3968 2906 
z
" transform="scale(0.015625)"/>
       <path id="NimbusRomNo9L-Regu-48" d="M 1338 2304 
L 1338 3533 
C 1338 3990 1408 4059 1901 4104 
L 1901 4224 
L 122 4224 
L 122 4104 
C 614 4059 685 3989 685 3527 
L 685 749 
C 685 210 621 134 122 134 
L 122 0 
L 1901 0 
L 1901 121 
C 1421 159 1338 242 1338 699 
L 1338 2022 
L 3277 2022 
L 3277 757 
C 3277 211 3213 134 2714 134 
L 2714 0 
L 4493 0 
L 4493 121 
C 4013 159 3930 242 3930 696 
L 3930 3529 
C 3930 3989 4000 4059 4493 4104 
L 4493 4224 
L 2714 4224 
L 2714 4104 
C 3206 4059 3277 3990 3277 3533 
L 3277 2304 
L 1338 2304 
z
" transform="scale(0.015625)"/>
      </defs>
      <use xlink:href="#NimbusRomNo9L-Regu-43" transform="scale(0.996264)"/>
      <use xlink:href="#NimbusRomNo9L-Regu-48" transform="translate(66.450031 0) scale(0.996264)"/>
      <use xlink:href="#NimbusRomNo9L-Regu-31" transform="translate(138.380016 0) scale(0.996264)"/>
     </g>
    </g>
   </g>
  </g>
 </g>
 <defs>
  <clipPath id="p0419e8a349">
   <rect x="22.214175" y="16.084396" width="184.14" height="138.6"/>
  </clipPath>
 </defs>
</svg>
