<?xml version="1.0" encoding="utf-8" standalone="no"?>
<!DOCTYPE svg PUBLIC "-//W3C//DTD SVG 1.1//EN"
  "http://www.w3.org/Graphics/SVG/1.1/DTD/svg11.dtd">
<svg xmlns:xlink="http://www.w3.org/1999/xlink" width="209.954175pt" height="180.042634pt" viewBox="0 0 209.954175 180.042634" xmlns="http://www.w3.org/2000/svg" version="1.1">
 <metadata>
  <rdf:RDF xmlns:dc="http://purl.org/dc/elements/1.1/" xmlns:cc="http://creativecommons.org/ns#" xmlns:rdf="http://www.w3.org/1999/02/22-rdf-syntax-ns#">
   <cc:Work>
    <dc:type rdf:resource="http://purl.org/dc/dcmitype/StillImage"/>
    <dc:date>2025-02-28T13:26:15.775326</dc:date>
    <dc:format>image/svg+xml</dc:format>
    <dc:creator>
     <cc:Agent>
      <dc:title>Matplotlib v3.9.2, https://matplotlib.org/</dc:title>
     </cc:Agent>
    </dc:creator>
   </cc:Work>
  </rdf:RDF>
 </metadata>
 <defs>
  <style type="text/css">*{stroke-linejoin: round; stroke-linecap: butt}</style>
 </defs>
 <g id="figure_1">
  <g id="patch_1">
   <path d="M 0 180.042634 
L 209.954175 180.042634 
L 209.954175 0 
L 0 0 
L 0 180.042634 
z
" style="fill: none"/>
  </g>
  <g id="axes_1">
   <g id="patch_2">
    <path d="M 22.214175 154.684396 
L 206.354175 154.684396 
L 206.354175 16.084396 
L 22.214175 16.084396 
L 22.214175 154.684396 
z
" style="fill: none"/>
   </g>
   <g id="matplotlib.axis_1">
    <g id="xtick_1">
     <g id="line2d_1">
      <defs>
       <path id="m913fc314ce" d="M 0 0 
L 0 -3 
" style="stroke: #000000; stroke-width: 0.5"/>
      </defs>
      <g>
       <use xlink:href="#m913fc314ce" x="47.330874" y="154.684396" style="stroke: #000000; stroke-width: 0.5"/>
      </g>
     </g>
     <g id="line2d_2">
      <defs>
       <path id="m01f30403d4" d="M 0 0 
L 0 3 
" style="stroke: #000000; stroke-width: 0.5"/>
      </defs>
      <g>
       <use xlink:href="#m01f30403d4" x="47.330874" y="16.084396" style="stroke: #000000; stroke-width: 0.5"/>
      </g>
     </g>
     <g id="text_1">
      <!-- $\mathdefault{−2000}$ -->
      <g transform="translate(36.264417 163.588052) scale(0.08 -0.08)">
       <defs>
        <path id="CMSY10-0" d="M 4218 1472 
C 4326 1472 4442 1472 4442 1600 
C 4442 1728 4326 1728 4218 1728 
L 755 1728 
C 646 1728 531 1728 531 1600 
C 531 1472 646 1472 755 1472 
L 4218 1472 
z
" transform="scale(0.015625)"/>
        <path id="NimbusRomNo9L-Regu-32" d="M 3040 875 
L 2957 907 
C 2720 544 2637 486 2349 486 
L 819 486 
L 1894 1609 
C 2464 2202 2714 2687 2714 3185 
C 2714 3823 2195 4313 1530 4313 
C 1178 4313 845 4173 608 3918 
C 403 3700 307 3496 198 3043 
L 333 3011 
C 589 3636 819 3840 1261 3840 
C 1798 3840 2163 3476 2163 2940 
C 2163 2443 1869 1850 1331 1282 
L 192 77 
L 192 0 
L 2688 0 
L 3040 875 
z
" transform="scale(0.015625)"/>
        <path id="NimbusRomNo9L-Regu-30" d="M 1626 4352 
C 1274 4352 1005 4244 768 4020 
C 397 3661 154 2925 154 2176 
C 154 1479 365 730 666 372 
C 902 90 1229 -64 1600 -64 
C 1926 -64 2202 45 2432 269 
C 2803 621 3046 1364 3046 2138 
C 3046 3450 2464 4352 1626 4352 
z
M 1606 4186 
C 2144 4186 2432 3463 2432 2125 
C 2432 788 2150 103 1600 103 
C 1050 103 768 788 768 2119 
C 768 3476 1056 4186 1606 4186 
z
" transform="scale(0.015625)"/>
       </defs>
       <use xlink:href="#CMSY10-0" transform="scale(0.996264)"/>
       <use xlink:href="#NimbusRomNo9L-Regu-32" transform="translate(77.408707 0) scale(0.996264)"/>
       <use xlink:href="#NimbusRomNo9L-Regu-30" transform="translate(127.221908 0) scale(0.996264)"/>
       <use xlink:href="#NimbusRomNo9L-Regu-30" transform="translate(177.035108 0) scale(0.996264)"/>
       <use xlink:href="#NimbusRomNo9L-Regu-30" transform="translate(226.848309 0) scale(0.996264)"/>
      </g>
     </g>
    </g>
    <g id="xtick_2">
     <g id="line2d_3">
      <g>
       <use xlink:href="#m913fc314ce" x="80.824271" y="154.684396" style="stroke: #000000; stroke-width: 0.5"/>
      </g>
     </g>
     <g id="line2d_4">
      <g>
       <use xlink:href="#m01f30403d4" x="80.824271" y="16.084396" style="stroke: #000000; stroke-width: 0.5"/>
      </g>
     </g>
     <g id="text_2">
      <!-- $\mathdefault{−1000}$ -->
      <g transform="translate(69.757814 163.588052) scale(0.08 -0.08)">
       <defs>
        <path id="NimbusRomNo9L-Regu-31" d="M 1862 4339 
L 710 3757 
L 710 3667 
C 787 3699 858 3725 883 3738 
C 998 3783 1107 3808 1171 3808 
C 1306 3808 1363 3711 1363 3505 
L 1363 592 
C 1363 379 1312 232 1210 173 
C 1114 116 1024 96 755 96 
L 755 0 
L 2522 0 
L 2522 96 
C 2016 96 1914 160 1914 470 
L 1914 4327 
L 1862 4339 
z
" transform="scale(0.015625)"/>
       </defs>
       <use xlink:href="#CMSY10-0" transform="scale(0.996264)"/>
       <use xlink:href="#NimbusRomNo9L-Regu-31" transform="translate(77.408707 0) scale(0.996264)"/>
       <use xlink:href="#NimbusRomNo9L-Regu-30" transform="translate(127.221908 0) scale(0.996264)"/>
       <use xlink:href="#NimbusRomNo9L-Regu-30" transform="translate(177.035108 0) scale(0.996264)"/>
       <use xlink:href="#NimbusRomNo9L-Regu-30" transform="translate(226.848309 0) scale(0.996264)"/>
      </g>
     </g>
    </g>
    <g id="xtick_3">
     <g id="line2d_5">
      <g>
       <use xlink:href="#m913fc314ce" x="114.317669" y="154.684396" style="stroke: #000000; stroke-width: 0.5"/>
      </g>
     </g>
     <g id="line2d_6">
      <g>
       <use xlink:href="#m01f30403d4" x="114.317669" y="16.084396" style="stroke: #000000; stroke-width: 0.5"/>
      </g>
     </g>
     <g id="text_3">
      <!-- $\mathdefault{0}$ -->
      <g transform="translate(112.32514 163.588052) scale(0.08 -0.08)">
       <use xlink:href="#NimbusRomNo9L-Regu-30" transform="scale(0.996264)"/>
      </g>
     </g>
    </g>
    <g id="xtick_4">
     <g id="line2d_7">
      <g>
       <use xlink:href="#m913fc314ce" x="147.811066" y="154.684396" style="stroke: #000000; stroke-width: 0.5"/>
      </g>
     </g>
     <g id="line2d_8">
      <g>
       <use xlink:href="#m01f30403d4" x="147.811066" y="16.084396" style="stroke: #000000; stroke-width: 0.5"/>
      </g>
     </g>
     <g id="text_4">
      <!-- $\mathdefault{1000}$ -->
      <g transform="translate(139.840954 163.588052) scale(0.08 -0.08)">
       <use xlink:href="#NimbusRomNo9L-Regu-31" transform="scale(0.996264)"/>
       <use xlink:href="#NimbusRomNo9L-Regu-30" transform="translate(49.8132 0) scale(0.996264)"/>
       <use xlink:href="#NimbusRomNo9L-Regu-30" transform="translate(99.626401 0) scale(0.996264)"/>
       <use xlink:href="#NimbusRomNo9L-Regu-30" transform="translate(149.439601 0) scale(0.996264)"/>
      </g>
     </g>
    </g>
    <g id="xtick_5">
     <g id="line2d_9">
      <g>
       <use xlink:href="#m913fc314ce" x="181.304463" y="154.684396" style="stroke: #000000; stroke-width: 0.5"/>
      </g>
     </g>
     <g id="line2d_10">
      <g>
       <use xlink:href="#m01f30403d4" x="181.304463" y="16.084396" style="stroke: #000000; stroke-width: 0.5"/>
      </g>
     </g>
     <g id="text_5">
      <!-- $\mathdefault{2000}$ -->
      <g transform="translate(173.334351 163.588052) scale(0.08 -0.08)">
       <use xlink:href="#NimbusRomNo9L-Regu-32" transform="scale(0.996264)"/>
       <use xlink:href="#NimbusRomNo9L-Regu-30" transform="translate(49.8132 0) scale(0.996264)"/>
       <use xlink:href="#NimbusRomNo9L-Regu-30" transform="translate(99.626401 0) scale(0.996264)"/>
       <use xlink:href="#NimbusRomNo9L-Regu-30" transform="translate(149.439601 0) scale(0.996264)"/>
      </g>
     </g>
    </g>
    <g id="xtick_6">
     <g id="line2d_11">
      <defs>
       <path id="mf56e041266" d="M 0 0 
L 0 -1.5 
" style="stroke: #000000; stroke-width: 0.5"/>
      </defs>
      <g>
       <use xlink:href="#mf56e041266" x="27.234835" y="154.684396" style="stroke: #000000; stroke-width: 0.5"/>
      </g>
     </g>
     <g id="line2d_12">
      <defs>
       <path id="m328b54e03e" d="M 0 0 
L 0 1.5 
" style="stroke: #000000; stroke-width: 0.5"/>
      </defs>
      <g>
       <use xlink:href="#m328b54e03e" x="27.234835" y="16.084396" style="stroke: #000000; stroke-width: 0.5"/>
      </g>
     </g>
    </g>
    <g id="xtick_7">
     <g id="line2d_13">
      <g>
       <use xlink:href="#mf56e041266" x="33.933515" y="154.684396" style="stroke: #000000; stroke-width: 0.5"/>
      </g>
     </g>
     <g id="line2d_14">
      <g>
       <use xlink:href="#m328b54e03e" x="33.933515" y="16.084396" style="stroke: #000000; stroke-width: 0.5"/>
      </g>
     </g>
    </g>
    <g id="xtick_8">
     <g id="line2d_15">
      <g>
       <use xlink:href="#mf56e041266" x="40.632194" y="154.684396" style="stroke: #000000; stroke-width: 0.5"/>
      </g>
     </g>
     <g id="line2d_16">
      <g>
       <use xlink:href="#m328b54e03e" x="40.632194" y="16.084396" style="stroke: #000000; stroke-width: 0.5"/>
      </g>
     </g>
    </g>
    <g id="xtick_9">
     <g id="line2d_17">
      <g>
       <use xlink:href="#mf56e041266" x="54.029553" y="154.684396" style="stroke: #000000; stroke-width: 0.5"/>
      </g>
     </g>
     <g id="line2d_18">
      <g>
       <use xlink:href="#m328b54e03e" x="54.029553" y="16.084396" style="stroke: #000000; stroke-width: 0.5"/>
      </g>
     </g>
    </g>
    <g id="xtick_10">
     <g id="line2d_19">
      <g>
       <use xlink:href="#mf56e041266" x="60.728233" y="154.684396" style="stroke: #000000; stroke-width: 0.5"/>
      </g>
     </g>
     <g id="line2d_20">
      <g>
       <use xlink:href="#m328b54e03e" x="60.728233" y="16.084396" style="stroke: #000000; stroke-width: 0.5"/>
      </g>
     </g>
    </g>
    <g id="xtick_11">
     <g id="line2d_21">
      <g>
       <use xlink:href="#mf56e041266" x="67.426912" y="154.684396" style="stroke: #000000; stroke-width: 0.5"/>
      </g>
     </g>
     <g id="line2d_22">
      <g>
       <use xlink:href="#m328b54e03e" x="67.426912" y="16.084396" style="stroke: #000000; stroke-width: 0.5"/>
      </g>
     </g>
    </g>
    <g id="xtick_12">
     <g id="line2d_23">
      <g>
       <use xlink:href="#mf56e041266" x="74.125592" y="154.684396" style="stroke: #000000; stroke-width: 0.5"/>
      </g>
     </g>
     <g id="line2d_24">
      <g>
       <use xlink:href="#m328b54e03e" x="74.125592" y="16.084396" style="stroke: #000000; stroke-width: 0.5"/>
      </g>
     </g>
    </g>
    <g id="xtick_13">
     <g id="line2d_25">
      <g>
       <use xlink:href="#mf56e041266" x="87.522951" y="154.684396" style="stroke: #000000; stroke-width: 0.5"/>
      </g>
     </g>
     <g id="line2d_26">
      <g>
       <use xlink:href="#m328b54e03e" x="87.522951" y="16.084396" style="stroke: #000000; stroke-width: 0.5"/>
      </g>
     </g>
    </g>
    <g id="xtick_14">
     <g id="line2d_27">
      <g>
       <use xlink:href="#mf56e041266" x="94.22163" y="154.684396" style="stroke: #000000; stroke-width: 0.5"/>
      </g>
     </g>
     <g id="line2d_28">
      <g>
       <use xlink:href="#m328b54e03e" x="94.22163" y="16.084396" style="stroke: #000000; stroke-width: 0.5"/>
      </g>
     </g>
    </g>
    <g id="xtick_15">
     <g id="line2d_29">
      <g>
       <use xlink:href="#mf56e041266" x="100.92031" y="154.684396" style="stroke: #000000; stroke-width: 0.5"/>
      </g>
     </g>
     <g id="line2d_30">
      <g>
       <use xlink:href="#m328b54e03e" x="100.92031" y="16.084396" style="stroke: #000000; stroke-width: 0.5"/>
      </g>
     </g>
    </g>
    <g id="xtick_16">
     <g id="line2d_31">
      <g>
       <use xlink:href="#mf56e041266" x="107.618989" y="154.684396" style="stroke: #000000; stroke-width: 0.5"/>
      </g>
     </g>
     <g id="line2d_32">
      <g>
       <use xlink:href="#m328b54e03e" x="107.618989" y="16.084396" style="stroke: #000000; stroke-width: 0.5"/>
      </g>
     </g>
    </g>
    <g id="xtick_17">
     <g id="line2d_33">
      <g>
       <use xlink:href="#mf56e041266" x="121.016348" y="154.684396" style="stroke: #000000; stroke-width: 0.5"/>
      </g>
     </g>
     <g id="line2d_34">
      <g>
       <use xlink:href="#m328b54e03e" x="121.016348" y="16.084396" style="stroke: #000000; stroke-width: 0.5"/>
      </g>
     </g>
    </g>
    <g id="xtick_18">
     <g id="line2d_35">
      <g>
       <use xlink:href="#mf56e041266" x="127.715027" y="154.684396" style="stroke: #000000; stroke-width: 0.5"/>
      </g>
     </g>
     <g id="line2d_36">
      <g>
       <use xlink:href="#m328b54e03e" x="127.715027" y="16.084396" style="stroke: #000000; stroke-width: 0.5"/>
      </g>
     </g>
    </g>
    <g id="xtick_19">
     <g id="line2d_37">
      <g>
       <use xlink:href="#mf56e041266" x="134.413707" y="154.684396" style="stroke: #000000; stroke-width: 0.5"/>
      </g>
     </g>
     <g id="line2d_38">
      <g>
       <use xlink:href="#m328b54e03e" x="134.413707" y="16.084396" style="stroke: #000000; stroke-width: 0.5"/>
      </g>
     </g>
    </g>
    <g id="xtick_20">
     <g id="line2d_39">
      <g>
       <use xlink:href="#mf56e041266" x="141.112386" y="154.684396" style="stroke: #000000; stroke-width: 0.5"/>
      </g>
     </g>
     <g id="line2d_40">
      <g>
       <use xlink:href="#m328b54e03e" x="141.112386" y="16.084396" style="stroke: #000000; stroke-width: 0.5"/>
      </g>
     </g>
    </g>
    <g id="xtick_21">
     <g id="line2d_41">
      <g>
       <use xlink:href="#mf56e041266" x="154.509745" y="154.684396" style="stroke: #000000; stroke-width: 0.5"/>
      </g>
     </g>
     <g id="line2d_42">
      <g>
       <use xlink:href="#m328b54e03e" x="154.509745" y="16.084396" style="stroke: #000000; stroke-width: 0.5"/>
      </g>
     </g>
    </g>
    <g id="xtick_22">
     <g id="line2d_43">
      <g>
       <use xlink:href="#mf56e041266" x="161.208425" y="154.684396" style="stroke: #000000; stroke-width: 0.5"/>
      </g>
     </g>
     <g id="line2d_44">
      <g>
       <use xlink:href="#m328b54e03e" x="161.208425" y="16.084396" style="stroke: #000000; stroke-width: 0.5"/>
      </g>
     </g>
    </g>
    <g id="xtick_23">
     <g id="line2d_45">
      <g>
       <use xlink:href="#mf56e041266" x="167.907104" y="154.684396" style="stroke: #000000; stroke-width: 0.5"/>
      </g>
     </g>
     <g id="line2d_46">
      <g>
       <use xlink:href="#m328b54e03e" x="167.907104" y="16.084396" style="stroke: #000000; stroke-width: 0.5"/>
      </g>
     </g>
    </g>
    <g id="xtick_24">
     <g id="line2d_47">
      <g>
       <use xlink:href="#mf56e041266" x="174.605784" y="154.684396" style="stroke: #000000; stroke-width: 0.5"/>
      </g>
     </g>
     <g id="line2d_48">
      <g>
       <use xlink:href="#m328b54e03e" x="174.605784" y="16.084396" style="stroke: #000000; stroke-width: 0.5"/>
      </g>
     </g>
    </g>
    <g id="xtick_25">
     <g id="line2d_49">
      <g>
       <use xlink:href="#mf56e041266" x="188.003143" y="154.684396" style="stroke: #000000; stroke-width: 0.5"/>
      </g>
     </g>
     <g id="line2d_50">
      <g>
       <use xlink:href="#m328b54e03e" x="188.003143" y="16.084396" style="stroke: #000000; stroke-width: 0.5"/>
      </g>
     </g>
    </g>
    <g id="xtick_26">
     <g id="line2d_51">
      <g>
       <use xlink:href="#mf56e041266" x="194.701822" y="154.684396" style="stroke: #000000; stroke-width: 0.5"/>
      </g>
     </g>
     <g id="line2d_52">
      <g>
       <use xlink:href="#m328b54e03e" x="194.701822" y="16.084396" style="stroke: #000000; stroke-width: 0.5"/>
      </g>
     </g>
    </g>
    <g id="xtick_27">
     <g id="line2d_53">
      <g>
       <use xlink:href="#mf56e041266" x="201.400502" y="154.684396" style="stroke: #000000; stroke-width: 0.5"/>
      </g>
     </g>
     <g id="line2d_54">
      <g>
       <use xlink:href="#m328b54e03e" x="201.400502" y="16.084396" style="stroke: #000000; stroke-width: 0.5"/>
      </g>
     </g>
    </g>
    <g id="text_6">
     <!-- ns -->
     <g transform="translate(110.741499 174.717171) scale(0.08 -0.08)">
      <defs>
       <path id="NimbusRomNo9L-Regu-6e" d="M 102 2579 
C 141 2598 205 2605 275 2605 
C 454 2605 512 2509 512 2195 
L 512 608 
C 512 243 442 154 115 128 
L 115 32 
L 1472 32 
L 1472 128 
C 1146 154 1050 230 1050 461 
L 1050 2259 
C 1357 2547 1498 2624 1709 2624 
C 2022 2624 2176 2426 2176 2003 
L 2176 666 
C 2176 262 2093 154 1773 128 
L 1773 32 
L 3104 32 
L 3104 128 
C 2790 160 2714 237 2714 550 
L 2714 2016 
C 2714 2618 2432 2976 1958 2976 
C 1664 2976 1466 2867 1030 2458 
L 1030 2963 
L 986 2976 
C 672 2861 454 2790 102 2688 
L 102 2579 
z
" transform="scale(0.015625)"/>
       <path id="NimbusRomNo9L-Regu-73" d="M 2016 2010 
L 1990 2880 
L 1920 2880 
L 1907 2867 
C 1850 2822 1843 2816 1818 2816 
C 1779 2816 1715 2829 1645 2861 
C 1504 2915 1363 2944 1197 2944 
C 691 2944 326 2616 326 2154 
C 326 1796 531 1539 1075 1231 
L 1446 1020 
C 1670 892 1779 737 1779 539 
C 1779 256 1574 77 1248 77 
C 1030 77 832 159 710 298 
C 576 455 518 600 435 960 
L 333 960 
L 333 -39 
L 416 -39 
C 461 33 486 48 563 48 
C 621 48 710 35 858 -2 
C 1037 -39 1210 -64 1325 -64 
C 1818 -64 2227 308 2227 757 
C 2227 1077 2074 1289 1690 1520 
L 998 1930 
C 819 2033 723 2194 723 2367 
C 723 2624 922 2803 1216 2803 
C 1581 2803 1773 2583 1920 2010 
L 2016 2010 
z
" transform="scale(0.015625)"/>
      </defs>
      <use xlink:href="#NimbusRomNo9L-Regu-6e" transform="scale(0.996264)"/>
      <use xlink:href="#NimbusRomNo9L-Regu-73" transform="translate(49.8132 0) scale(0.996264)"/>
     </g>
    </g>
   </g>
   <g id="matplotlib.axis_2">
    <g id="ytick_1">
     <g id="line2d_55">
      <defs>
       <path id="md4e7fd041e" d="M 0 0 
L 3 0 
" style="stroke: #000000; stroke-width: 0.5"/>
      </defs>
      <g>
       <use xlink:href="#md4e7fd041e" x="22.214175" y="144.784396" style="stroke: #000000; stroke-width: 0.5"/>
      </g>
     </g>
     <g id="line2d_56">
      <defs>
       <path id="m513dbc4005" d="M 0 0 
L -3 0 
" style="stroke: #000000; stroke-width: 0.5"/>
      </defs>
      <g>
       <use xlink:href="#m513dbc4005" x="206.354175" y="144.784396" style="stroke: #000000; stroke-width: 0.5"/>
      </g>
     </g>
     <g id="text_7">
      <!-- $\mathdefault{0}$ -->
      <g transform="translate(14.729119 147.486224) scale(0.08 -0.08)">
       <use xlink:href="#NimbusRomNo9L-Regu-30" transform="scale(0.996264)"/>
      </g>
     </g>
    </g>
    <g id="ytick_2">
     <g id="line2d_57">
      <g>
       <use xlink:href="#md4e7fd041e" x="22.214175" y="122.284396" style="stroke: #000000; stroke-width: 0.5"/>
      </g>
     </g>
     <g id="line2d_58">
      <g>
       <use xlink:href="#m513dbc4005" x="206.354175" y="122.284396" style="stroke: #000000; stroke-width: 0.5"/>
      </g>
     </g>
     <g id="text_8">
      <!-- $\mathdefault{1}$ -->
      <g transform="translate(14.729119 124.986224) scale(0.08 -0.08)">
       <use xlink:href="#NimbusRomNo9L-Regu-31" transform="scale(0.996264)"/>
      </g>
     </g>
    </g>
    <g id="ytick_3">
     <g id="line2d_59">
      <g>
       <use xlink:href="#md4e7fd041e" x="22.214175" y="99.784396" style="stroke: #000000; stroke-width: 0.5"/>
      </g>
     </g>
     <g id="line2d_60">
      <g>
       <use xlink:href="#m513dbc4005" x="206.354175" y="99.784396" style="stroke: #000000; stroke-width: 0.5"/>
      </g>
     </g>
     <g id="text_9">
      <!-- $\mathdefault{2}$ -->
      <g transform="translate(14.729119 102.486224) scale(0.08 -0.08)">
       <use xlink:href="#NimbusRomNo9L-Regu-32" transform="scale(0.996264)"/>
      </g>
     </g>
    </g>
    <g id="ytick_4">
     <g id="line2d_61">
      <g>
       <use xlink:href="#md4e7fd041e" x="22.214175" y="77.284396" style="stroke: #000000; stroke-width: 0.5"/>
      </g>
     </g>
     <g id="line2d_62">
      <g>
       <use xlink:href="#m513dbc4005" x="206.354175" y="77.284396" style="stroke: #000000; stroke-width: 0.5"/>
      </g>
     </g>
     <g id="text_10">
      <!-- $\mathdefault{3}$ -->
      <g transform="translate(14.729119 79.986224) scale(0.08 -0.08)">
       <defs>
        <path id="NimbusRomNo9L-Regu-33" d="M 979 2138 
C 1357 2138 1504 2125 1658 2068 
C 2054 1927 2304 1562 2304 1120 
C 2304 583 1939 167 1466 167 
C 1293 167 1165 212 928 365 
C 736 480 627 525 518 525 
C 371 525 275 436 275 301 
C 275 77 550 -64 998 -64 
C 1491 -64 1997 103 2298 365 
C 2598 628 2765 999 2765 1428 
C 2765 1754 2662 2055 2477 2253 
C 2349 2394 2227 2471 1946 2592 
C 2387 2893 2547 3130 2547 3476 
C 2547 3994 2138 4352 1549 4352 
C 1229 4352 947 4244 717 4039 
C 525 3866 429 3699 288 3315 
L 384 3290 
C 646 3757 934 3968 1338 3968 
C 1754 3968 2042 3687 2042 3284 
C 2042 3053 1946 2823 1786 2663 
C 1594 2471 1414 2375 979 2221 
L 979 2138 
z
" transform="scale(0.015625)"/>
       </defs>
       <use xlink:href="#NimbusRomNo9L-Regu-33" transform="scale(0.996264)"/>
      </g>
     </g>
    </g>
    <g id="ytick_5">
     <g id="line2d_63">
      <g>
       <use xlink:href="#md4e7fd041e" x="22.214175" y="54.784396" style="stroke: #000000; stroke-width: 0.5"/>
      </g>
     </g>
     <g id="line2d_64">
      <g>
       <use xlink:href="#m513dbc4005" x="206.354175" y="54.784396" style="stroke: #000000; stroke-width: 0.5"/>
      </g>
     </g>
     <g id="text_11">
      <!-- $\mathdefault{4}$ -->
      <g transform="translate(14.729119 57.486224) scale(0.08 -0.08)">
       <defs>
        <path id="NimbusRomNo9L-Regu-34" d="M 3021 1497 
L 2368 1497 
L 2368 4352 
L 2086 4352 
L 77 1497 
L 77 1088 
L 1875 1088 
L 1875 32 
L 2368 32 
L 2368 1088 
L 3021 1088 
L 3021 1497 
z
M 1869 1497 
L 333 1497 
L 1869 3698 
L 1869 1497 
z
" transform="scale(0.015625)"/>
       </defs>
       <use xlink:href="#NimbusRomNo9L-Regu-34" transform="scale(0.996264)"/>
      </g>
     </g>
    </g>
    <g id="ytick_6">
     <g id="line2d_65">
      <g>
       <use xlink:href="#md4e7fd041e" x="22.214175" y="32.284396" style="stroke: #000000; stroke-width: 0.5"/>
      </g>
     </g>
     <g id="line2d_66">
      <g>
       <use xlink:href="#m513dbc4005" x="206.354175" y="32.284396" style="stroke: #000000; stroke-width: 0.5"/>
      </g>
     </g>
     <g id="text_12">
      <!-- $\mathdefault{5}$ -->
      <g transform="translate(14.729119 34.986224) scale(0.08 -0.08)">
       <defs>
        <path id="NimbusRomNo9L-Regu-35" d="M 1158 3776 
L 2413 3776 
C 2515 3776 2541 3789 2560 3834 
L 2803 4403 
L 2746 4448 
C 2650 4314 2586 4282 2451 4282 
L 1114 4282 
L 416 2759 
C 410 2746 410 2740 410 2727 
C 410 2695 435 2676 486 2676 
C 691 2676 947 2631 1210 2547 
C 1946 2309 2285 1910 2285 1274 
C 2285 656 1894 173 1395 173 
C 1267 173 1158 218 966 360 
C 762 508 614 572 480 572 
C 294 572 205 495 205 334 
C 205 90 506 -64 986 -64 
C 1523 -64 1984 110 2304 438 
C 2598 728 2733 1094 2733 1583 
C 2733 2046 2611 2342 2291 2663 
C 2010 2947 1645 3094 890 3229 
L 1158 3776 
z
" transform="scale(0.015625)"/>
       </defs>
       <use xlink:href="#NimbusRomNo9L-Regu-35" transform="scale(0.996264)"/>
      </g>
     </g>
    </g>
    <g id="ytick_7">
     <g id="line2d_67">
      <defs>
       <path id="m05e944a310" d="M 0 0 
L 1.5 0 
" style="stroke: #000000; stroke-width: 0.5"/>
      </defs>
      <g>
       <use xlink:href="#m05e944a310" x="22.214175" y="153.784396" style="stroke: #000000; stroke-width: 0.5"/>
      </g>
     </g>
     <g id="line2d_68">
      <defs>
       <path id="m99dcaac943" d="M 0 0 
L -1.5 0 
" style="stroke: #000000; stroke-width: 0.5"/>
      </defs>
      <g>
       <use xlink:href="#m99dcaac943" x="206.354175" y="153.784396" style="stroke: #000000; stroke-width: 0.5"/>
      </g>
     </g>
    </g>
    <g id="ytick_8">
     <g id="line2d_69">
      <g>
       <use xlink:href="#m05e944a310" x="22.214175" y="149.284396" style="stroke: #000000; stroke-width: 0.5"/>
      </g>
     </g>
     <g id="line2d_70">
      <g>
       <use xlink:href="#m99dcaac943" x="206.354175" y="149.284396" style="stroke: #000000; stroke-width: 0.5"/>
      </g>
     </g>
    </g>
    <g id="ytick_9">
     <g id="line2d_71">
      <g>
       <use xlink:href="#m05e944a310" x="22.214175" y="140.284396" style="stroke: #000000; stroke-width: 0.5"/>
      </g>
     </g>
     <g id="line2d_72">
      <g>
       <use xlink:href="#m99dcaac943" x="206.354175" y="140.284396" style="stroke: #000000; stroke-width: 0.5"/>
      </g>
     </g>
    </g>
    <g id="ytick_10">
     <g id="line2d_73">
      <g>
       <use xlink:href="#m05e944a310" x="22.214175" y="135.784396" style="stroke: #000000; stroke-width: 0.5"/>
      </g>
     </g>
     <g id="line2d_74">
      <g>
       <use xlink:href="#m99dcaac943" x="206.354175" y="135.784396" style="stroke: #000000; stroke-width: 0.5"/>
      </g>
     </g>
    </g>
    <g id="ytick_11">
     <g id="line2d_75">
      <g>
       <use xlink:href="#m05e944a310" x="22.214175" y="131.284396" style="stroke: #000000; stroke-width: 0.5"/>
      </g>
     </g>
     <g id="line2d_76">
      <g>
       <use xlink:href="#m99dcaac943" x="206.354175" y="131.284396" style="stroke: #000000; stroke-width: 0.5"/>
      </g>
     </g>
    </g>
    <g id="ytick_12">
     <g id="line2d_77">
      <g>
       <use xlink:href="#m05e944a310" x="22.214175" y="126.784396" style="stroke: #000000; stroke-width: 0.5"/>
      </g>
     </g>
     <g id="line2d_78">
      <g>
       <use xlink:href="#m99dcaac943" x="206.354175" y="126.784396" style="stroke: #000000; stroke-width: 0.5"/>
      </g>
     </g>
    </g>
    <g id="ytick_13">
     <g id="line2d_79">
      <g>
       <use xlink:href="#m05e944a310" x="22.214175" y="117.784396" style="stroke: #000000; stroke-width: 0.5"/>
      </g>
     </g>
     <g id="line2d_80">
      <g>
       <use xlink:href="#m99dcaac943" x="206.354175" y="117.784396" style="stroke: #000000; stroke-width: 0.5"/>
      </g>
     </g>
    </g>
    <g id="ytick_14">
     <g id="line2d_81">
      <g>
       <use xlink:href="#m05e944a310" x="22.214175" y="113.284396" style="stroke: #000000; stroke-width: 0.5"/>
      </g>
     </g>
     <g id="line2d_82">
      <g>
       <use xlink:href="#m99dcaac943" x="206.354175" y="113.284396" style="stroke: #000000; stroke-width: 0.5"/>
      </g>
     </g>
    </g>
    <g id="ytick_15">
     <g id="line2d_83">
      <g>
       <use xlink:href="#m05e944a310" x="22.214175" y="108.784396" style="stroke: #000000; stroke-width: 0.5"/>
      </g>
     </g>
     <g id="line2d_84">
      <g>
       <use xlink:href="#m99dcaac943" x="206.354175" y="108.784396" style="stroke: #000000; stroke-width: 0.5"/>
      </g>
     </g>
    </g>
    <g id="ytick_16">
     <g id="line2d_85">
      <g>
       <use xlink:href="#m05e944a310" x="22.214175" y="104.284396" style="stroke: #000000; stroke-width: 0.5"/>
      </g>
     </g>
     <g id="line2d_86">
      <g>
       <use xlink:href="#m99dcaac943" x="206.354175" y="104.284396" style="stroke: #000000; stroke-width: 0.5"/>
      </g>
     </g>
    </g>
    <g id="ytick_17">
     <g id="line2d_87">
      <g>
       <use xlink:href="#m05e944a310" x="22.214175" y="95.284396" style="stroke: #000000; stroke-width: 0.5"/>
      </g>
     </g>
     <g id="line2d_88">
      <g>
       <use xlink:href="#m99dcaac943" x="206.354175" y="95.284396" style="stroke: #000000; stroke-width: 0.5"/>
      </g>
     </g>
    </g>
    <g id="ytick_18">
     <g id="line2d_89">
      <g>
       <use xlink:href="#m05e944a310" x="22.214175" y="90.784396" style="stroke: #000000; stroke-width: 0.5"/>
      </g>
     </g>
     <g id="line2d_90">
      <g>
       <use xlink:href="#m99dcaac943" x="206.354175" y="90.784396" style="stroke: #000000; stroke-width: 0.5"/>
      </g>
     </g>
    </g>
    <g id="ytick_19">
     <g id="line2d_91">
      <g>
       <use xlink:href="#m05e944a310" x="22.214175" y="86.284396" style="stroke: #000000; stroke-width: 0.5"/>
      </g>
     </g>
     <g id="line2d_92">
      <g>
       <use xlink:href="#m99dcaac943" x="206.354175" y="86.284396" style="stroke: #000000; stroke-width: 0.5"/>
      </g>
     </g>
    </g>
    <g id="ytick_20">
     <g id="line2d_93">
      <g>
       <use xlink:href="#m05e944a310" x="22.214175" y="81.784396" style="stroke: #000000; stroke-width: 0.5"/>
      </g>
     </g>
     <g id="line2d_94">
      <g>
       <use xlink:href="#m99dcaac943" x="206.354175" y="81.784396" style="stroke: #000000; stroke-width: 0.5"/>
      </g>
     </g>
    </g>
    <g id="ytick_21">
     <g id="line2d_95">
      <g>
       <use xlink:href="#m05e944a310" x="22.214175" y="72.784396" style="stroke: #000000; stroke-width: 0.5"/>
      </g>
     </g>
     <g id="line2d_96">
      <g>
       <use xlink:href="#m99dcaac943" x="206.354175" y="72.784396" style="stroke: #000000; stroke-width: 0.5"/>
      </g>
     </g>
    </g>
    <g id="ytick_22">
     <g id="line2d_97">
      <g>
       <use xlink:href="#m05e944a310" x="22.214175" y="68.284396" style="stroke: #000000; stroke-width: 0.5"/>
      </g>
     </g>
     <g id="line2d_98">
      <g>
       <use xlink:href="#m99dcaac943" x="206.354175" y="68.284396" style="stroke: #000000; stroke-width: 0.5"/>
      </g>
     </g>
    </g>
    <g id="ytick_23">
     <g id="line2d_99">
      <g>
       <use xlink:href="#m05e944a310" x="22.214175" y="63.784396" style="stroke: #000000; stroke-width: 0.5"/>
      </g>
     </g>
     <g id="line2d_100">
      <g>
       <use xlink:href="#m99dcaac943" x="206.354175" y="63.784396" style="stroke: #000000; stroke-width: 0.5"/>
      </g>
     </g>
    </g>
    <g id="ytick_24">
     <g id="line2d_101">
      <g>
       <use xlink:href="#m05e944a310" x="22.214175" y="59.284396" style="stroke: #000000; stroke-width: 0.5"/>
      </g>
     </g>
     <g id="line2d_102">
      <g>
       <use xlink:href="#m99dcaac943" x="206.354175" y="59.284396" style="stroke: #000000; stroke-width: 0.5"/>
      </g>
     </g>
    </g>
    <g id="ytick_25">
     <g id="line2d_103">
      <g>
       <use xlink:href="#m05e944a310" x="22.214175" y="50.284396" style="stroke: #000000; stroke-width: 0.5"/>
      </g>
     </g>
     <g id="line2d_104">
      <g>
       <use xlink:href="#m99dcaac943" x="206.354175" y="50.284396" style="stroke: #000000; stroke-width: 0.5"/>
      </g>
     </g>
    </g>
    <g id="ytick_26">
     <g id="line2d_105">
      <g>
       <use xlink:href="#m05e944a310" x="22.214175" y="45.784396" style="stroke: #000000; stroke-width: 0.5"/>
      </g>
     </g>
     <g id="line2d_106">
      <g>
       <use xlink:href="#m99dcaac943" x="206.354175" y="45.784396" style="stroke: #000000; stroke-width: 0.5"/>
      </g>
     </g>
    </g>
    <g id="ytick_27">
     <g id="line2d_107">
      <g>
       <use xlink:href="#m05e944a310" x="22.214175" y="41.284396" style="stroke: #000000; stroke-width: 0.5"/>
      </g>
     </g>
     <g id="line2d_108">
      <g>
       <use xlink:href="#m99dcaac943" x="206.354175" y="41.284396" style="stroke: #000000; stroke-width: 0.5"/>
      </g>
     </g>
    </g>
    <g id="ytick_28">
     <g id="line2d_109">
      <g>
       <use xlink:href="#m05e944a310" x="22.214175" y="36.784396" style="stroke: #000000; stroke-width: 0.5"/>
      </g>
     </g>
     <g id="line2d_110">
      <g>
       <use xlink:href="#m99dcaac943" x="206.354175" y="36.784396" style="stroke: #000000; stroke-width: 0.5"/>
      </g>
     </g>
    </g>
    <g id="ytick_29">
     <g id="line2d_111">
      <g>
       <use xlink:href="#m05e944a310" x="22.214175" y="27.784396" style="stroke: #000000; stroke-width: 0.5"/>
      </g>
     </g>
     <g id="line2d_112">
      <g>
       <use xlink:href="#m99dcaac943" x="206.354175" y="27.784396" style="stroke: #000000; stroke-width: 0.5"/>
      </g>
     </g>
    </g>
    <g id="ytick_30">
     <g id="line2d_113">
      <g>
       <use xlink:href="#m05e944a310" x="22.214175" y="23.284396" style="stroke: #000000; stroke-width: 0.5"/>
      </g>
     </g>
     <g id="line2d_114">
      <g>
       <use xlink:href="#m99dcaac943" x="206.354175" y="23.284396" style="stroke: #000000; stroke-width: 0.5"/>
      </g>
     </g>
    </g>
    <g id="ytick_31">
     <g id="line2d_115">
      <g>
       <use xlink:href="#m05e944a310" x="22.214175" y="18.784396" style="stroke: #000000; stroke-width: 0.5"/>
      </g>
     </g>
     <g id="line2d_116">
      <g>
       <use xlink:href="#m99dcaac943" x="206.354175" y="18.784396" style="stroke: #000000; stroke-width: 0.5"/>
      </g>
     </g>
    </g>
    <g id="text_13">
     <!-- V -->
     <g transform="translate(9.003656 88.261592) rotate(-90) scale(0.08 -0.08)">
      <defs>
       <path id="NimbusRomNo9L-Regu-56" d="M 4461 4231 
L 3149 4231 
L 3149 4096 
C 3501 4096 3616 4026 3616 3846 
C 3616 3744 3571 3572 3494 3380 
L 2554 1033 
L 1587 3199 
C 1376 3667 1325 3814 1325 3910 
C 1325 4032 1414 4096 1619 4096 
C 1645 4096 1715 4096 1805 4109 
L 1805 4231 
L 102 4231 
L 102 4096 
C 416 4096 506 4007 781 3439 
L 2355 -64 
L 2451 -64 
L 3872 3521 
C 4083 4026 4154 4096 4461 4096 
L 4461 4231 
z
" transform="scale(0.015625)"/>
      </defs>
      <use xlink:href="#NimbusRomNo9L-Regu-56" transform="scale(0.996264)"/>
     </g>
    </g>
   </g>
   <g id="line2d_117">
    <path d="M 30.584175 147.484396 
L 30.718149 147.484396 
L 30.852122 146.584396 
L 30.919109 146.584396 
L 31.120069 148.384396 
L 31.254043 148.384396 
L 31.388017 147.484396 
L 31.588977 147.484396 
L 31.655964 146.584396 
L 31.856924 148.384396 
L 32.057885 148.384396 
L 32.258845 146.584396 
L 32.392819 147.484396 
L 32.459805 147.484396 
L 32.526792 148.384396 
L 32.660766 147.484396 
L 32.727753 147.484396 
L 32.861726 146.584396 
L 32.928713 146.584396 
L 33.062687 147.484396 
L 33.464607 147.484396 
L 33.531594 148.384396 
L 33.665568 147.484396 
L 33.732554 147.484396 
L 33.866528 146.584396 
L 34.134475 146.584396 
L 34.268449 147.484396 
L 34.335436 147.484396 
L 34.402422 148.384396 
L 34.536396 147.484396 
L 34.603383 147.484396 
L 34.737356 146.584396 
L 34.938317 146.584396 
L 35.07229 145.684396 
L 35.139277 145.684396 
L 35.340238 147.484396 
L 35.474211 147.484396 
L 35.541198 148.384396 
L 35.675172 147.484396 
L 35.742158 147.484396 
L 35.876132 146.584396 
L 36.077092 146.584396 
L 36.211066 145.684396 
L 36.278053 145.684396 
L 36.546 148.384396 
L 36.612987 148.384396 
L 36.813947 146.584396 
L 36.947921 147.484396 
L 37.081894 147.484396 
L 37.215868 146.584396 
L 37.818749 146.584396 
L 37.952723 147.484396 
L 38.086696 147.484396 
L 38.153683 146.584396 
L 38.287657 147.484396 
L 38.42163 147.484396 
L 38.555604 146.584396 
L 38.62259 146.584396 
L 38.756564 147.484396 
L 39.426432 147.484396 
L 39.560406 146.584396 
L 39.627392 146.584396 
L 39.761366 147.484396 
L 39.828353 147.484396 
L 39.89534 148.384396 
L 40.029313 147.484396 
L 40.0963 147.484396 
L 40.230274 146.584396 
L 40.632194 146.584396 
L 40.766168 145.684396 
L 40.967128 145.684396 
L 41.101102 146.584396 
L 41.168089 146.584396 
L 41.235075 147.484396 
L 41.369049 146.584396 
L 41.436036 146.584396 
L 41.570009 145.684396 
L 41.636996 145.684396 
L 41.837957 147.484396 
L 42.641798 147.484396 
L 42.775772 146.584396 
L 43.44564 146.584396 
L 43.512626 145.684396 
L 43.6466 146.584396 
L 43.713587 146.584396 
L 43.780574 147.484396 
L 43.914547 146.584396 
L 44.852362 146.584396 
L 45.053323 148.384396 
L 45.12031 148.384396 
L 45.388257 145.684396 
L 45.589217 147.484396 
L 45.723191 147.484396 
L 45.790178 148.384396 
L 45.924151 147.484396 
L 45.991138 147.484396 
L 46.192098 145.684396 
L 46.326072 146.584396 
L 46.460045 146.584396 
L 46.527032 145.684396 
L 46.661006 146.584396 
L 46.794979 146.584396 
L 46.928953 145.684396 
L 46.99594 145.684396 
L 47.1969 147.484396 
L 47.330874 147.484396 
L 47.464847 146.584396 
L 47.531834 146.584396 
L 47.665808 147.484396 
L 47.799781 147.484396 
L 47.933755 146.584396 
L 48.201702 146.584396 
L 48.335676 147.484396 
L 48.402663 147.484396 
L 48.469649 148.384396 
L 48.603623 147.484396 
L 48.67061 147.484396 
L 48.804583 146.584396 
L 49.675412 146.584396 
L 49.809385 145.684396 
L 50.010346 145.684396 
L 50.144319 146.584396 
L 51.149121 146.584396 
L 51.283095 145.684396 
L 51.350081 145.684396 
L 51.484055 146.584396 
L 51.685015 146.584396 
L 51.818989 145.684396 
L 51.885976 145.684396 
L 52.019949 146.584396 
L 52.354883 146.584396 
L 52.488857 147.484396 
L 52.689817 147.484396 
L 52.823791 146.584396 
L 52.890778 146.584396 
L 53.024751 147.484396 
L 53.158725 147.484396 
L 53.225712 146.584396 
L 53.359685 147.484396 
L 53.493659 147.484396 
L 53.560646 146.584396 
L 53.761606 148.384396 
L 53.828593 148.384396 
L 54.09654 145.684396 
L 54.230514 145.684396 
L 54.364487 146.584396 
L 54.565448 146.584396 
L 54.766408 148.384396 
L 54.833395 148.384396 
L 55.101342 145.684396 
L 55.369289 145.684396 
L 55.503263 146.584396 
L 55.704223 146.584396 
L 55.838197 147.484396 
L 56.039157 147.484396 
L 56.173131 146.584396 
L 56.374091 146.584396 
L 56.508065 147.484396 
L 56.709025 147.484396 
L 56.909985 145.684396 
L 57.512867 145.684396 
L 57.579853 144.784396 
L 57.780814 146.584396 
L 58.383695 146.584396 
L 58.517669 145.684396 
L 58.584655 145.684396 
L 58.718629 146.584396 
L 58.785616 146.584396 
L 58.852602 147.484396 
L 58.986576 146.584396 
L 59.254523 146.584396 
L 59.32151 147.484396 
L 59.455484 146.584396 
L 59.52247 146.584396 
L 59.589457 145.684396 
L 59.723431 146.584396 
L 59.790418 146.584396 
L 59.857404 147.484396 
L 59.991378 146.584396 
L 60.259325 146.584396 
L 60.326312 147.484396 
L 60.460286 146.584396 
L 60.527272 146.584396 
L 60.594259 145.684396 
L 60.728233 146.584396 
L 60.862206 146.584396 
L 60.929193 145.684396 
L 61.063167 146.584396 
L 61.398101 146.584396 
L 61.532074 147.484396 
L 61.599061 147.484396 
L 61.733035 148.384396 
L 62.000982 145.684396 
L 62.067969 145.684396 
L 62.201942 146.584396 
L 62.268929 146.584396 
L 62.402903 147.484396 
L 62.67085 144.784396 
L 62.737837 144.784396 
L 62.938797 146.584396 
L 63.072771 146.584396 
L 63.206744 145.684396 
L 63.407705 145.684396 
L 63.541678 146.584396 
L 63.943599 146.584396 
L 64.010586 147.484396 
L 64.144559 146.584396 
L 64.211546 146.584396 
L 64.278533 145.684396 
L 64.412506 146.584396 
L 64.479493 146.584396 
L 64.54648 147.484396 
L 64.680454 146.584396 
L 64.74744 146.584396 
L 64.948401 144.784396 
L 65.082374 145.684396 
L 65.618269 145.684396 
L 65.752242 146.584396 
L 65.886216 146.584396 
L 66.02019 145.684396 
L 66.087176 145.684396 
L 66.288137 147.484396 
L 66.42211 147.484396 
L 66.556084 146.584396 
L 67.225952 146.584396 
L 67.359925 145.684396 
L 67.426912 145.684396 
L 67.560886 146.584396 
L 68.364727 146.584396 
L 68.498701 144.784396 
L 68.632675 145.684396 
L 68.967608 145.684396 
L 69.101582 146.584396 
L 69.235556 146.584396 
L 69.369529 145.684396 
L 69.436516 145.684396 
L 69.637476 147.484396 
L 69.77145 147.484396 
L 69.97241 145.684396 
L 70.106384 145.684396 
L 70.240358 146.584396 
L 70.307344 146.584396 
L 70.374331 147.484396 
L 70.508305 146.584396 
L 70.575292 146.584396 
L 70.642278 145.684396 
L 70.776252 146.584396 
L 70.843239 146.584396 
L 70.910226 147.484396 
L 71.111186 145.684396 
L 71.379133 148.384396 
L 71.513107 147.484396 
L 71.580093 148.384396 
L 71.848041 145.684396 
L 71.982014 145.684396 
L 72.115988 146.584396 
L 72.584895 146.584396 
L 72.718869 145.684396 
L 72.785856 145.684396 
L 72.919829 146.584396 
L 73.12079 146.584396 
L 73.254763 145.684396 
L 73.32175 145.684396 
L 73.455724 146.584396 
L 73.522711 146.584396 
L 73.589697 147.484396 
L 73.723671 146.584396 
L 73.790658 146.584396 
L 73.991618 144.784396 
L 74.192578 146.584396 
L 74.326552 146.584396 
L 74.393539 147.484396 
L 74.527512 146.584396 
L 74.594499 146.584396 
L 74.661486 145.684396 
L 74.79546 146.584396 
L 74.929433 146.584396 
L 75.063407 145.684396 
L 75.130394 145.684396 
L 75.264367 146.584396 
L 75.666288 146.584396 
L 75.800262 147.484396 
L 75.867248 147.484396 
L 75.934235 148.384396 
L 76.068209 147.484396 
L 76.135196 147.484396 
L 76.269169 146.584396 
L 77.474931 146.584396 
L 77.608905 145.684396 
L 77.675892 145.684396 
L 77.809865 146.584396 
L 78.278773 146.584396 
L 78.412747 145.684396 
L 78.479733 145.684396 
L 78.613707 146.584396 
L 79.015628 146.584396 
L 79.149601 147.484396 
L 79.350562 144.784396 
L 79.484535 145.684396 
L 80.02043 145.684396 
L 80.154403 146.584396 
L 80.22139 146.584396 
L 80.288377 147.484396 
L 80.42235 146.584396 
L 80.489337 146.584396 
L 80.623311 145.684396 
L 80.690298 145.684396 
L 80.891258 147.484396 
L 80.958245 147.484396 
L 81.092218 146.584396 
L 81.494139 146.584396 
L 81.628113 147.484396 
L 81.829073 147.484396 
L 81.963047 146.584396 
L 83.503743 146.584396 
L 83.637717 145.684396 
L 83.704703 145.684396 
L 83.838677 146.584396 
L 84.307584 146.584396 
L 84.441558 145.684396 
L 85.044439 145.684396 
L 85.178413 146.584396 
L 85.312386 146.584396 
L 85.44636 145.684396 
L 85.513347 145.684396 
L 85.64732 146.584396 
L 86.049241 146.584396 
L 86.116228 147.484396 
L 86.250202 146.584396 
L 86.317188 146.584396 
L 86.384175 145.684396 
L 86.518149 146.584396 
L 86.652122 146.584396 
L 86.786096 145.684396 
L 86.853083 145.684396 
L 86.987056 146.584396 
L 87.857885 146.584396 
L 87.991858 145.684396 
L 88.058845 145.684396 
L 88.259805 147.484396 
L 88.393779 147.484396 
L 88.460766 148.384396 
L 88.594739 147.484396 
L 88.661726 147.484396 
L 88.862687 145.684396 
L 88.99666 146.584396 
L 89.19762 146.584396 
L 89.331594 145.684396 
L 89.398581 145.684396 
L 89.532554 146.584396 
L 89.733515 146.584396 
L 89.800502 147.484396 
L 90.068449 144.784396 
L 90.202422 145.684396 
L 90.336396 145.684396 
L 90.403383 144.784396 
L 90.537356 145.684396 
L 90.738317 145.684396 
L 90.939277 147.484396 
L 91.542158 147.484396 
L 91.743119 145.684396 
L 91.944079 147.484396 
L 92.212026 147.484396 
L 92.346 146.584396 
L 93.685736 146.584396 
L 93.752723 145.684396 
L 93.886696 146.584396 
L 94.02067 146.584396 
L 94.154643 145.684396 
L 94.42259 145.684396 
L 94.556564 146.584396 
L 95.226432 146.584396 
L 95.360406 145.684396 
L 96.566168 145.684396 
L 96.700142 146.584396 
L 98.039877 146.584396 
L 98.106864 145.684396 
L 98.240838 146.584396 
L 98.374811 146.584396 
L 98.508785 145.684396 
L 98.575772 145.684396 
L 98.709745 146.584396 
L 99.111666 146.584396 
L 99.312626 148.384396 
L 99.379613 148.384396 
L 99.64756 145.684396 
L 99.781534 146.584396 
L 99.915508 146.584396 
L 99.982494 145.684396 
L 100.183455 147.484396 
L 100.317428 147.484396 
L 100.384415 148.384396 
L 100.518389 147.484396 
L 100.585376 147.484396 
L 100.719349 146.584396 
L 100.92031 146.584396 
L 101.054283 145.684396 
L 101.523191 145.684396 
L 101.590178 144.784396 
L 101.858125 147.484396 
L 101.925111 147.484396 
L 102.126072 145.684396 
L 102.260045 146.584396 
L 102.461006 146.584396 
L 102.594979 147.484396 
L 102.661966 147.484396 
L 102.728953 148.384396 
L 102.862927 147.484396 
L 102.929913 147.484396 
L 103.063887 146.584396 
L 103.130874 146.584396 
L 103.264847 147.484396 
L 103.398821 147.484396 
L 103.532795 146.584396 
L 103.599781 146.584396 
L 103.733755 145.684396 
L 103.800742 145.684396 
L 103.934715 146.584396 
L 104.068689 146.584396 
L 104.202663 145.684396 
L 104.269649 145.684396 
L 104.403623 146.584396 
L 105.475412 146.584396 
L 105.542398 147.484396 
L 105.676372 146.584396 
L 105.743359 146.584396 
L 105.877332 145.684396 
L 105.944319 145.684396 
L 106.078293 146.584396 
L 106.14528 146.584396 
L 106.212266 147.484396 
L 106.34624 146.584396 
L 106.413227 146.584396 
L 106.5472 145.684396 
L 106.614187 145.684396 
L 106.748161 146.584396 
L 106.882134 146.584396 
L 107.150081 143.884396 
L 107.351042 145.684396 
L 107.485015 145.684396 
L 107.618989 146.584396 
L 107.752963 146.584396 
L 107.886936 145.684396 
L 107.953923 145.684396 
L 108.087897 146.584396 
L 108.288857 146.584396 
L 108.355844 145.684396 
L 108.556804 147.484396 
L 108.690778 147.484396 
L 108.958725 144.784396 
L 109.025712 144.784396 
L 109.226672 146.584396 
L 109.360646 146.584396 
L 109.494619 144.784396 
L 109.69558 146.584396 
L 110.298461 146.584396 
L 110.432434 145.684396 
L 110.499421 145.684396 
L 110.633395 146.584396 
L 110.700382 146.584396 
L 110.767368 147.484396 
L 110.901342 146.584396 
L 111.169289 146.584396 
L 111.236276 147.484396 
L 111.37025 146.584396 
L 111.437236 146.584396 
L 111.504223 145.684396 
L 111.638197 146.584396 
L 111.705184 146.584396 
L 111.77217 147.484396 
L 111.906144 146.584396 
L 111.973131 146.584396 
L 112.174091 144.784396 
L 112.308065 144.784396 
L 112.442038 145.684396 
L 112.509025 145.684396 
L 112.576012 146.584396 
L 112.709985 145.684396 
L 112.776972 145.684396 
L 112.910946 144.784396 
L 112.977933 144.784396 
L 113.111906 145.684396 
L 113.647801 145.684396 
L 113.781774 144.784396 
L 114.116708 144.784396 
L 114.250682 143.884396 
L 114.317669 143.884396 
L 114.92055 134.884396 
L 115.791378 108.784396 
L 117.131114 58.384396 
L 118.202903 31.384396 
L 118.269889 31.384396 
L 118.738797 25.984396 
L 119.006744 25.984396 
L 119.140718 25.084396 
L 119.810586 25.084396 
L 119.944559 24.184396 
L 120.011546 24.184396 
L 120.14552 25.084396 
L 120.54744 25.084396 
L 120.681414 25.984396 
L 120.748401 25.984396 
L 120.815388 26.884396 
L 120.949361 25.984396 
L 121.016348 25.984396 
L 121.150322 25.084396 
L 121.686216 25.084396 
L 121.82019 24.184396 
L 121.887176 24.184396 
L 122.02115 25.084396 
L 122.088137 25.084396 
L 122.155123 25.984396 
L 122.289097 25.084396 
L 122.356084 25.084396 
L 122.490057 24.184396 
L 122.557044 24.184396 
L 122.691018 25.084396 
L 122.758005 25.084396 
L 122.824991 25.984396 
L 122.958965 25.084396 
L 123.025952 25.084396 
L 123.159925 24.184396 
L 123.226912 24.184396 
L 123.360886 25.084396 
L 123.494859 25.084396 
L 123.561846 24.184396 
L 123.69582 25.084396 
L 123.829793 25.084396 
L 124.030754 23.284396 
L 124.231714 25.084396 
L 124.365688 25.084396 
L 124.499661 24.184396 
L 124.566648 24.184396 
L 124.700622 25.084396 
L 124.834595 25.084396 
L 124.968569 24.184396 
L 125.57145 24.184396 
L 125.705424 25.084396 
L 125.839397 25.084396 
L 125.906384 24.184396 
L 126.040358 25.084396 
L 126.174331 25.084396 
L 126.241318 24.184396 
L 126.375292 25.084396 
L 126.442278 25.084396 
L 126.509265 25.984396 
L 126.643239 25.084396 
L 126.710226 25.084396 
L 126.844199 24.184396 
L 126.911186 24.184396 
L 127.04516 25.084396 
L 127.380093 25.084396 
L 127.514067 25.984396 
L 127.715027 25.984396 
L 127.915988 24.184396 
L 128.049961 25.084396 
L 128.183935 25.084396 
L 128.317909 24.184396 
L 128.384895 24.184396 
L 128.518869 25.084396 
L 128.719829 25.084396 
L 128.853803 24.184396 
L 128.92079 24.184396 
L 129.12175 25.984396 
L 129.188737 25.984396 
L 129.456684 23.284396 
L 129.590658 24.184396 
L 130.059565 24.184396 
L 130.126552 23.284396 
L 130.327512 25.084396 
L 130.461486 25.084396 
L 130.528473 25.984396 
L 130.662446 25.084396 
L 130.729433 25.084396 
L 130.863407 24.184396 
L 131.399301 24.184396 
L 131.533275 25.084396 
L 132.069169 25.084396 
L 132.203143 24.184396 
L 132.270129 24.184396 
L 132.404103 25.084396 
L 132.538077 25.084396 
L 132.739037 23.284396 
L 132.873011 24.184396 
L 133.274931 24.184396 
L 133.341918 25.084396 
L 133.475892 24.184396 
L 133.542879 24.184396 
L 133.676852 23.284396 
L 134.413707 23.284396 
L 134.547681 24.184396 
L 135.083575 24.184396 
L 135.217548 23.284396 
L 135.284535 23.284396 
L 135.418509 24.184396 
L 135.552482 24.184396 
L 135.619469 23.284396 
L 135.753443 24.184396 
L 135.82043 24.184396 
L 135.887416 25.084396 
L 136.02139 24.184396 
L 136.088377 24.184396 
L 136.22235 23.284396 
L 136.289337 23.284396 
L 136.423311 24.184396 
L 136.490298 24.184396 
L 136.557284 25.084396 
L 136.691258 24.184396 
L 136.758245 24.184396 
L 136.892218 23.284396 
L 137.093179 23.284396 
L 137.227152 24.184396 
L 137.294139 24.184396 
L 137.361126 25.084396 
L 137.495099 24.184396 
L 137.562086 24.184396 
L 137.69606 23.284396 
L 137.763047 23.284396 
L 137.89702 24.184396 
L 138.097981 24.184396 
L 138.298941 22.384396 
L 138.499901 24.184396 
L 138.767849 24.184396 
L 138.901822 23.284396 
L 139.102783 23.284396 
L 139.236756 22.384396 
L 139.303743 22.384396 
L 139.437717 23.284396 
L 139.57169 23.284396 
L 139.638677 22.384396 
L 139.772651 23.284396 
L 139.839637 23.284396 
L 139.906624 24.184396 
L 140.040598 23.284396 
L 140.107584 23.284396 
L 140.241558 22.384396 
L 140.308545 22.384396 
L 140.509505 24.184396 
L 140.576492 24.184396 
L 140.710466 23.284396 
L 140.978413 23.284396 
L 141.112386 24.184396 
L 141.179373 24.184396 
L 141.24636 25.084396 
L 141.380334 24.184396 
L 141.44732 24.184396 
L 141.581294 23.284396 
L 142.787056 23.284396 
L 142.92103 24.184396 
L 143.12199 24.184396 
L 143.255964 23.284396 
L 143.322951 23.284396 
L 143.456924 24.184396 
L 144.260766 24.184396 
L 144.327753 23.284396 
L 144.461726 24.184396 
L 144.528713 24.184396 
L 144.5957 25.084396 
L 144.729673 24.184396 
L 144.79666 24.184396 
L 144.930634 23.284396 
L 144.99762 23.284396 
L 145.131594 24.184396 
L 146.136396 24.184396 
L 146.27037 23.284396 
L 147.007224 23.284396 
L 147.141198 24.184396 
L 147.275172 24.184396 
L 147.342158 23.284396 
L 147.476132 24.184396 
L 147.610105 24.184396 
L 147.677092 23.284396 
L 147.811066 24.184396 
L 148.012026 24.184396 
L 148.146 25.084396 
L 148.279973 25.084396 
L 148.413947 24.184396 
L 148.480934 24.184396 
L 148.614907 25.084396 
L 148.815868 25.084396 
L 148.949841 25.984396 
L 149.016828 25.984396 
L 149.217789 27.784396 
L 149.351762 27.784396 
L 149.552723 29.584396 
L 149.686696 29.584396 
L 149.954643 32.284396 
L 150.02163 32.284396 
L 150.088617 33.184396 
L 150.22259 32.284396 
L 150.356564 32.284396 
L 150.557524 35.884396 
L 150.691498 35.884396 
L 151.093419 40.384396 
L 151.294379 40.384396 
L 151.361366 39.484396 
L 151.562326 41.284396 
L 151.6963 41.284396 
L 151.964247 43.984396 
L 152.031234 43.984396 
L 152.165208 44.884396 
L 152.299181 44.884396 
L 152.366168 43.984396 
L 152.500142 44.884396 
L 152.701102 44.884396 
L 152.902062 46.684396 
L 153.036036 46.684396 
L 153.103023 47.584396 
L 153.236996 46.684396 
L 153.303983 46.684396 
L 153.437957 45.784396 
L 153.504943 45.784396 
L 153.638917 46.684396 
L 154.509745 46.684396 
L 154.643719 47.584396 
L 154.710706 47.584396 
L 154.777693 48.484396 
L 154.911666 47.584396 
L 154.978653 47.584396 
L 155.112626 46.684396 
L 155.179613 46.684396 
L 155.313587 47.584396 
L 155.380574 47.584396 
L 155.514547 48.484396 
L 155.648521 48.484396 
L 155.715508 47.584396 
L 155.849481 48.484396 
L 155.983455 48.484396 
L 156.117428 47.584396 
L 156.184415 47.584396 
L 156.318389 48.484396 
L 156.385376 48.484396 
L 156.519349 49.384396 
L 156.653323 49.384396 
L 156.72031 48.484396 
L 156.854283 49.384396 
L 156.988257 49.384396 
L 157.055244 48.484396 
L 157.189217 49.384396 
L 157.256204 49.384396 
L 157.323191 50.284396 
L 157.457164 49.384396 
L 157.524151 49.384396 
L 157.658125 48.484396 
L 157.725111 48.484396 
L 157.859085 49.384396 
L 157.993059 49.384396 
L 158.127032 48.484396 
L 158.528953 48.484396 
L 158.59594 47.584396 
L 158.7969 49.384396 
L 159.064847 49.384396 
L 159.198821 50.284396 
L 159.332795 50.284396 
L 159.399781 49.384396 
L 159.533755 50.284396 
L 159.734715 50.284396 
L 159.868689 51.184396 
L 160.002663 51.184396 
L 160.203623 49.384396 
L 160.337596 50.284396 
L 161.208425 50.284396 
L 161.342398 49.384396 
L 161.543359 49.384396 
L 161.610346 48.484396 
L 161.811306 50.284396 
L 162.012266 50.284396 
L 162.079253 49.384396 
L 162.213227 50.284396 
L 162.280214 50.284396 
L 162.3472 51.184396 
L 162.481174 50.284396 
L 162.548161 50.284396 
L 162.682134 49.384396 
L 162.883095 49.384396 
L 163.017068 50.284396 
L 163.218029 50.284396 
L 163.352002 51.184396 
L 163.552963 51.184396 
L 163.686936 50.284396 
L 164.691738 50.284396 
L 164.825712 49.384396 
L 165.428593 49.384396 
L 165.562566 50.284396 
L 165.8975 50.284396 
L 166.031474 51.184396 
L 166.232434 51.184396 
L 166.433395 49.384396 
L 166.567368 50.284396 
L 167.907104 50.284396 
L 167.974091 49.384396 
L 168.175051 51.184396 
L 168.710946 51.184396 
L 168.777933 50.284396 
L 168.911906 51.184396 
L 168.978893 51.184396 
L 169.04588 52.084396 
L 169.179853 51.184396 
L 169.581774 51.184396 
L 169.782735 49.384396 
L 169.916708 50.284396 
L 170.050682 50.284396 
L 170.184655 49.384396 
L 170.452602 49.384396 
L 170.72055 52.084396 
L 170.854523 51.184396 
L 170.92151 51.184396 
L 171.055484 50.284396 
L 171.12247 50.284396 
L 171.256444 51.184396 
L 171.725352 51.184396 
L 171.859325 50.284396 
L 171.926312 50.284396 
L 172.060286 51.184396 
L 172.261246 51.184396 
L 172.39522 50.284396 
L 172.462206 50.284396 
L 172.59618 51.184396 
L 173.065087 51.184396 
L 173.199061 50.284396 
L 173.801942 50.284396 
L 174.002903 52.084396 
L 174.27085 52.084396 
L 174.47181 50.284396 
L 174.806744 50.284396 
L 174.940718 51.184396 
L 175.074691 51.184396 
L 175.141678 50.284396 
L 175.275652 51.184396 
L 175.94552 51.184396 
L 176.079493 50.284396 
L 176.14648 50.284396 
L 176.280454 51.184396 
L 176.749361 51.184396 
L 176.883335 50.284396 
L 176.950322 50.284396 
L 177.084295 51.184396 
L 177.486216 51.184396 
L 177.553203 52.084396 
L 177.687176 51.184396 
L 177.754163 51.184396 
L 177.888137 50.284396 
L 178.290057 50.284396 
L 178.424031 51.184396 
L 179.093899 51.184396 
L 179.227873 50.284396 
L 179.294859 50.284396 
L 179.428833 51.184396 
L 180.098701 51.184396 
L 180.232675 50.284396 
L 180.500622 50.284396 
L 180.701582 52.084396 
L 180.969529 52.084396 
L 181.103503 51.184396 
L 181.304463 51.184396 
L 181.505424 49.384396 
L 181.639397 49.384396 
L 181.773371 50.284396 
L 181.840358 50.284396 
L 181.974331 51.184396 
L 182.443239 51.184396 
L 182.510226 50.284396 
L 182.644199 51.184396 
L 183.113107 51.184396 
L 183.24708 50.284396 
L 183.515027 50.284396 
L 183.649001 51.184396 
L 183.715988 51.184396 
L 183.782975 52.084396 
L 183.983935 50.284396 
L 184.251882 52.984396 
L 184.318869 52.984396 
L 184.519829 51.184396 
L 184.653803 52.084396 
L 184.787777 52.084396 
L 184.92175 51.184396 
L 184.988737 51.184396 
L 185.122711 52.084396 
L 185.658605 52.084396 
L 185.792578 51.184396 
L 186.663407 51.184396 
L 186.79738 50.284396 
L 186.864367 50.284396 
L 187.065328 52.084396 
L 187.199301 52.084396 
L 187.266288 52.984396 
L 187.400262 52.084396 
L 187.467248 52.084396 
L 187.534235 51.184396 
L 187.668209 52.084396 
L 187.735196 52.084396 
L 187.802182 52.984396 
L 187.936156 52.084396 
L 188.003143 52.084396 
L 188.137116 51.184396 
L 188.338077 51.184396 
L 188.47205 52.084396 
L 188.673011 52.084396 
L 188.806984 51.184396 
L 189.007945 51.184396 
L 189.141918 52.084396 
L 189.208905 52.084396 
L 189.275892 52.984396 
L 189.409865 52.084396 
L 189.476852 52.084396 
L 189.610826 51.184396 
L 190.14672 51.184396 
L 190.213707 50.284396 
L 190.414667 52.084396 
L 190.682614 52.084396 
L 190.883575 50.284396 
L 191.017548 51.184396 
L 191.352482 51.184396 
L 191.486456 52.084396 
L 191.687416 52.084396 
L 191.888377 50.284396 
L 192.02235 51.184396 
L 192.156324 51.184396 
L 192.223311 50.284396 
L 192.357284 51.184396 
L 192.692218 51.184396 
L 192.826192 52.084396 
L 193.362086 52.084396 
L 193.563047 50.284396 
L 193.69702 51.184396 
L 195.37169 51.184396 
L 195.505664 52.084396 
L 195.706624 52.084396 
L 195.840598 51.184396 
L 195.907584 51.184396 
L 196.108545 52.984396 
L 196.309505 52.984396 
L 196.443479 51.184396 
L 196.644439 52.984396 
L 196.711426 52.984396 
L 196.979373 50.284396 
L 197.04636 50.284396 
L 197.314307 52.984396 
L 197.448281 52.084396 
L 197.984175 52.084396 
L 197.984175 52.084396 
" clip-path="url(#p7b0cddff2b)" style="fill: none; stroke: #000000; stroke-linecap: square"/>
   </g>
   <g id="patch_3">
    <path d="M 22.214175 154.684396 
L 22.214175 16.084396 
" style="fill: none; stroke: #000000; stroke-width: 0.5; stroke-linejoin: miter; stroke-linecap: square"/>
   </g>
   <g id="patch_4">
    <path d="M 206.354175 154.684396 
L 206.354175 16.084396 
" style="fill: none; stroke: #000000; stroke-width: 0.5; stroke-linejoin: miter; stroke-linecap: square"/>
   </g>
   <g id="patch_5">
    <path d="M 22.214175 154.684396 
L 206.354175 154.684396 
" style="fill: none; stroke: #000000; stroke-width: 0.5; stroke-linejoin: miter; stroke-linecap: square"/>
   </g>
   <g id="patch_6">
    <path d="M 22.214175 16.084396 
L 206.354175 16.084396 
" style="fill: none; stroke: #000000; stroke-width: 0.5; stroke-linejoin: miter; stroke-linecap: square"/>
   </g>
   <g id="text_14">
    <!-- Waveforms with different loads -->
    <g transform="translate(53.997228 10.084396) scale(0.096 -0.096)">
     <defs>
      <path id="NimbusRomNo9L-Regu-57" d="M 5965 4224 
L 4698 4224 
L 4698 4102 
C 5024 4070 5139 4000 5139 3826 
C 5139 3692 5101 3524 5037 3345 
L 4237 1169 
L 3392 3358 
C 3379 3390 3322 3531 3315 3551 
C 3258 3685 3219 3807 3219 3877 
C 3219 4032 3366 4096 3712 4096 
L 3712 4224 
L 2003 4224 
L 2003 4096 
C 2368 4096 2432 4038 2650 3524 
L 2861 2998 
L 2176 1188 
L 1254 3612 
C 1210 3728 1184 3838 1184 3909 
C 1184 4051 1274 4096 1600 4096 
L 1600 4224 
L 32 4224 
L 32 4102 
C 358 4070 454 3955 691 3351 
L 1926 -96 
L 2022 -96 
L 3008 2619 
L 4032 -96 
L 4128 -96 
C 4672 1579 4736 1759 5434 3647 
C 5555 3981 5626 4038 5965 4102 
L 5965 4224 
z
" transform="scale(0.015625)"/>
      <path id="NimbusRomNo9L-Regu-61" d="M 2829 423 
C 2720 333 2643 301 2547 301 
C 2400 301 2355 390 2355 672 
L 2355 1920 
C 2355 2253 2323 2438 2227 2592 
C 2086 2822 1811 2944 1434 2944 
C 832 2944 358 2630 358 2227 
C 358 2080 486 1952 634 1952 
C 787 1952 922 2080 922 2221 
C 922 2246 915 2278 909 2323 
C 896 2381 890 2432 890 2477 
C 890 2650 1094 2790 1350 2790 
C 1664 2790 1837 2605 1837 2259 
L 1837 1869 
C 851 1472 742 1421 467 1178 
C 326 1050 237 832 237 621 
C 237 218 518 -64 909 -64 
C 1190 -64 1453 70 1843 403 
C 1875 70 1990 -64 2253 -64 
C 2470 -64 2605 13 2829 256 
L 2829 423 
z
M 1837 783 
C 1837 584 1805 526 1670 449 
C 1517 359 1338 301 1203 301 
C 979 301 800 520 800 796 
L 800 822 
C 800 1201 1062 1433 1837 1715 
L 1837 783 
z
" transform="scale(0.015625)"/>
      <path id="NimbusRomNo9L-Regu-76" d="M 3053 2854 
L 2163 2854 
L 2163 2758 
C 2368 2739 2464 2675 2464 2552 
C 2464 2488 2451 2424 2426 2359 
L 1792 695 
L 1139 2340 
C 1101 2431 1082 2520 1082 2578 
C 1082 2694 1152 2739 1376 2758 
L 1376 2854 
L 122 2854 
L 122 2752 
C 365 2752 410 2688 704 2024 
L 1472 175 
C 1485 137 1504 91 1523 40 
C 1562 -76 1600 -128 1638 -128 
C 1677 -128 1722 -44 1818 193 
L 2637 2257 
C 2822 2694 2861 2739 3053 2758 
L 3053 2854 
z
" transform="scale(0.015625)"/>
      <path id="NimbusRomNo9L-Regu-65" d="M 2611 1053 
C 2304 564 2029 378 1619 378 
C 1254 378 979 564 794 930 
C 678 1174 634 1386 621 1779 
L 2592 1779 
C 2541 2193 2477 2377 2317 2581 
C 2125 2811 1830 2944 1498 2944 
C 1178 2944 877 2829 634 2611 
C 333 2349 160 1894 160 1370 
C 160 486 621 -64 1357 -64 
C 1965 -64 2445 315 2714 1008 
L 2611 1053 
z
M 634 1984 
C 704 2479 922 2714 1312 2714 
C 1702 2714 1856 2535 1939 1984 
L 634 1984 
z
" transform="scale(0.015625)"/>
      <path id="NimbusRomNo9L-Regu-66" d="M 1978 2880 
L 1190 2880 
L 1190 3611 
C 1190 3978 1312 4173 1555 4173 
C 1690 4173 1779 4110 1894 3927 
C 1997 3763 2074 3700 2182 3700 
C 2330 3700 2451 3814 2451 3959 
C 2451 4188 2170 4352 1786 4352 
C 1389 4352 1050 4181 883 3891 
C 717 3613 666 3385 659 2880 
L 134 2880 
L 134 2675 
L 659 2675 
L 659 656 
C 659 185 589 109 128 109 
L 128 0 
L 1792 0 
L 1792 109 
C 1267 109 1197 180 1197 661 
L 1197 2675 
L 1978 2675 
L 1978 2880 
z
" transform="scale(0.015625)"/>
      <path id="NimbusRomNo9L-Regu-6f" d="M 1600 2944 
C 768 2944 186 2330 186 1446 
C 186 582 781 -64 1587 -64 
C 2394 -64 3008 614 3008 1498 
C 3008 2336 2419 2944 1600 2944 
z
M 1517 2765 
C 2054 2765 2432 2150 2432 1274 
C 2432 550 2144 115 1664 115 
C 1414 115 1178 269 1043 525 
C 864 858 762 1306 762 1760 
C 762 2368 1062 2765 1517 2765 
z
" transform="scale(0.015625)"/>
      <path id="NimbusRomNo9L-Regu-72" d="M 45 2496 
C 134 2515 192 2522 269 2522 
C 429 2522 486 2419 486 2138 
L 486 538 
C 486 218 442 173 32 96 
L 32 0 
L 1568 0 
L 1568 102 
C 1133 102 1024 199 1024 565 
L 1024 2013 
C 1024 2219 1299 2541 1472 2541 
C 1510 2541 1568 2509 1638 2445 
C 1741 2355 1811 2317 1894 2317 
C 2048 2317 2144 2426 2144 2605 
C 2144 2816 2010 2944 1792 2944 
C 1523 2944 1338 2797 1024 2343 
L 1024 2931 
L 992 2944 
C 653 2803 422 2721 45 2599 
L 45 2496 
z
" transform="scale(0.015625)"/>
      <path id="NimbusRomNo9L-Regu-6d" d="M 122 2547 
C 205 2566 256 2573 326 2573 
C 493 2573 550 2470 550 2162 
L 550 539 
C 550 192 461 96 102 96 
L 102 0 
L 1523 0 
L 1523 96 
C 1184 96 1088 166 1088 418 
L 1088 2234 
C 1088 2246 1139 2310 1184 2355 
C 1344 2502 1619 2611 1843 2611 
C 2125 2611 2266 2385 2266 1932 
L 2266 528 
C 2266 167 2195 96 1830 96 
L 1830 0 
L 3264 0 
L 3264 96 
C 2899 96 2803 205 2803 603 
L 2803 2221 
C 2995 2496 3206 2611 3501 2611 
C 3866 2611 3981 2438 3981 1907 
L 3981 557 
C 3981 192 3930 141 3558 96 
L 3558 0 
L 4960 0 
L 4960 96 
L 4794 115 
C 4602 115 4518 230 4518 480 
L 4518 1802 
C 4518 2559 4269 2944 3776 2944 
C 3405 2944 3078 2778 2733 2407 
C 2618 2771 2400 2944 2054 2944 
C 1773 2944 1594 2854 1062 2451 
L 1062 2931 
L 1018 2944 
C 691 2822 474 2752 122 2656 
L 122 2547 
z
" transform="scale(0.015625)"/>
      <path id="NimbusRomNo9L-Regu-77" d="M 3654 2912 
L 3654 2816 
C 3872 2771 3936 2726 3936 2618 
C 3936 2521 3898 2367 3827 2194 
L 3251 770 
L 2714 2207 
C 2605 2501 2605 2501 2605 2586 
C 2605 2726 2675 2771 2976 2816 
L 2976 2912 
L 1677 2912 
L 1677 2816 
C 1914 2790 1990 2720 2118 2373 
C 2163 2252 2208 2129 2246 2014 
L 1664 738 
L 1030 2412 
C 1005 2476 992 2540 992 2605 
C 992 2739 1069 2790 1286 2816 
L 1286 2912 
L 134 2912 
L 134 2816 
C 282 2803 333 2739 474 2412 
L 1338 219 
C 1414 26 1466 -64 1504 -64 
C 1536 -64 1587 20 1664 186 
L 2381 1725 
L 2963 212 
C 3053 -25 3078 -64 3117 -64 
C 3162 -64 3194 -6 3296 251 
L 4179 2469 
C 4294 2739 4314 2771 4442 2816 
L 4442 2912 
L 3654 2912 
z
" transform="scale(0.015625)"/>
      <path id="NimbusRomNo9L-Regu-69" d="M 1120 2929 
L 128 2579 
L 128 2484 
L 179 2490 
C 256 2502 339 2509 397 2509 
C 550 2509 608 2406 608 2125 
L 608 640 
C 608 179 544 109 102 109 
L 102 0 
L 1619 0 
L 1619 96 
C 1197 128 1146 191 1146 650 
L 1146 2910 
L 1120 2929 
z
M 819 4352 
C 646 4352 499 4205 499 4026 
C 499 3847 640 3699 819 3699 
C 1005 3699 1152 3840 1152 4026 
C 1152 4205 1005 4352 819 4352 
z
" transform="scale(0.015625)"/>
      <path id="NimbusRomNo9L-Regu-74" d="M 1632 2880 
L 986 2880 
L 986 3622 
C 986 3686 979 3706 941 3706 
C 896 3648 858 3590 813 3526 
C 570 3174 294 2867 192 2841 
C 122 2794 83 2748 83 2715 
C 83 2695 90 2682 109 2682 
L 448 2682 
L 448 751 
C 448 212 640 -64 1018 -64 
C 1331 -64 1574 90 1786 423 
L 1702 493 
C 1568 333 1459 269 1318 269 
C 1082 269 986 443 986 847 
L 986 2682 
L 1632 2682 
L 1632 2880 
z
" transform="scale(0.015625)"/>
      <path id="NimbusRomNo9L-Regu-68" d="M 1005 2222 
C 1274 2516 1466 2624 1715 2624 
C 2035 2624 2195 2395 2195 1948 
L 2195 684 
C 2195 250 2131 166 1760 128 
L 1760 32 
L 3117 32 
L 3117 128 
C 2771 192 2733 243 2733 684 
L 2733 1954 
C 2733 2625 2464 2970 1946 2970 
C 1568 2970 1299 2816 1005 2432 
L 1005 4390 
L 973 4409 
C 755 4332 595 4281 237 4179 
L 64 4128 
L 64 4026 
C 90 4032 109 4032 141 4032 
C 416 4032 467 3980 467 3705 
L 467 686 
C 467 237 429 179 58 128 
L 58 32 
L 1440 32 
L 1440 128 
C 1069 166 1005 243 1005 684 
L 1005 2222 
z
" transform="scale(0.015625)"/>
      <path id="NimbusRomNo9L-Regu-64" d="M 2202 -64 
L 3142 269 
L 3142 365 
C 3027 365 3014 365 2995 365 
C 2765 365 2714 435 2714 731 
L 2714 4364 
L 2682 4377 
C 2374 4268 2150 4204 1741 4096 
L 1741 3994 
C 1792 4000 1830 4000 1882 4000 
C 2118 4000 2176 3936 2176 3672 
L 2176 2669 
C 1933 2874 1760 2944 1504 2944 
C 768 2944 173 2221 173 1312 
C 173 493 653 -64 1357 -64 
C 1715 -64 1958 64 2176 365 
L 2176 -45 
L 2202 -64 
z
M 2176 653 
C 2176 608 2131 531 2067 461 
C 1952 333 1792 269 1606 269 
C 1075 269 723 781 723 1568 
C 723 2291 1037 2765 1523 2765 
C 1862 2765 2176 2464 2176 2125 
L 2176 653 
z
" transform="scale(0.015625)"/>
      <path id="NimbusRomNo9L-Regu-6c" d="M 122 4000 
L 160 4000 
C 230 4000 307 4000 358 4000 
C 563 4000 627 3910 627 3610 
L 627 557 
C 627 211 538 128 134 96 
L 134 0 
L 1645 0 
L 1645 109 
C 1242 109 1165 173 1165 528 
L 1165 4371 
L 1139 4384 
C 806 4275 563 4211 122 4103 
L 122 4000 
z
" transform="scale(0.015625)"/>
     </defs>
     <use xlink:href="#NimbusRomNo9L-Regu-57" transform="scale(0.996264)"/>
     <use xlink:href="#NimbusRomNo9L-Regu-61" transform="translate(86.077326 0) scale(0.996264)"/>
     <use xlink:href="#NimbusRomNo9L-Regu-76" transform="translate(128.318884 0) scale(0.996264)"/>
     <use xlink:href="#NimbusRomNo9L-Regu-65" transform="translate(176.638691 0) scale(0.996264)"/>
     <use xlink:href="#NimbusRomNo9L-Regu-66" transform="translate(220.87226 0) scale(0.996264)"/>
     <use xlink:href="#NimbusRomNo9L-Regu-6f" transform="translate(254.04749 0) scale(0.996264)"/>
     <use xlink:href="#NimbusRomNo9L-Regu-72" transform="translate(303.86069 0) scale(0.996264)"/>
     <use xlink:href="#NimbusRomNo9L-Regu-6d" transform="translate(337.03592 0) scale(0.996264)"/>
     <use xlink:href="#NimbusRomNo9L-Regu-73" transform="translate(414.54429 0) scale(0.996264)"/>
     <use xlink:href="#NimbusRomNo9L-Regu-77" transform="translate(478.204597 0) scale(0.996264)"/>
     <use xlink:href="#NimbusRomNo9L-Regu-69" transform="translate(550.134581 0) scale(0.996264)"/>
     <use xlink:href="#NimbusRomNo9L-Regu-74" transform="translate(577.829751 0) scale(0.996264)"/>
     <use xlink:href="#NimbusRomNo9L-Regu-68" transform="translate(605.524921 0) scale(0.996264)"/>
     <use xlink:href="#NimbusRomNo9L-Regu-64" transform="translate(680.244721 0) scale(0.996264)"/>
     <use xlink:href="#NimbusRomNo9L-Regu-69" transform="translate(730.057922 0) scale(0.996264)"/>
     <use xlink:href="#NimbusRomNo9L-Regu-66" transform="translate(757.753091 0) scale(0.996264)"/>
     <use xlink:href="#NimbusRomNo9L-Regu-66" transform="translate(788.437692 0) scale(0.996264)"/>
     <use xlink:href="#NimbusRomNo9L-Regu-65" transform="translate(821.612739 0) scale(0.996264)"/>
     <use xlink:href="#NimbusRomNo9L-Regu-72" transform="translate(865.846308 0) scale(0.996264)"/>
     <use xlink:href="#NimbusRomNo9L-Regu-65" transform="translate(899.021537 0) scale(0.996264)"/>
     <use xlink:href="#NimbusRomNo9L-Regu-6e" transform="translate(943.255106 0) scale(0.996264)"/>
     <use xlink:href="#NimbusRomNo9L-Regu-74" transform="translate(993.068306 0) scale(0.996264)"/>
     <use xlink:href="#NimbusRomNo9L-Regu-6c" transform="translate(1045.670076 0) scale(0.996264)"/>
     <use xlink:href="#NimbusRomNo9L-Regu-6f" transform="translate(1073.365246 0) scale(0.996264)"/>
     <use xlink:href="#NimbusRomNo9L-Regu-61" transform="translate(1123.178446 0) scale(0.996264)"/>
     <use xlink:href="#NimbusRomNo9L-Regu-64" transform="translate(1167.412015 0) scale(0.996264)"/>
     <use xlink:href="#NimbusRomNo9L-Regu-73" transform="translate(1217.225216 0) scale(0.996264)"/>
    </g>
   </g>
   <g id="legend_1">
    <g id="line2d_118">
     <path d="M 161.698725 26.084396 
L 169.698725 26.084396 
L 177.698725 26.084396 
" style="fill: none; stroke: #000000; stroke-linecap: square"/>
    </g>
    <g id="text_15">
     <!-- CH1 -->
     <g transform="translate(184.098725 28.884396) scale(0.08 -0.08)">
      <defs>
       <path id="NimbusRomNo9L-Regu-43" d="M 3968 2906 
L 3910 4352 
L 3776 4352 
C 3738 4218 3635 4141 3507 4141 
C 3450 4141 3354 4160 3258 4199 
C 2944 4301 2624 4352 2323 4352 
C 1798 4352 1267 4154 870 3802 
C 422 3405 179 2810 179 2106 
C 179 1511 371 960 698 596 
C 1082 180 1670 -64 2304 -64 
C 3027 -64 3661 231 4051 749 
L 3936 864 
C 3462 410 3040 218 2509 218 
C 2106 218 1747 346 1472 589 
C 1120 903 922 1479 922 2189 
C 922 3348 1517 4096 2445 4096 
C 2810 4096 3142 3962 3398 3706 
C 3603 3501 3699 3322 3821 2906 
L 3968 2906 
z
" transform="scale(0.015625)"/>
       <path id="NimbusRomNo9L-Regu-48" d="M 1338 2304 
L 1338 3533 
C 1338 3990 1408 4059 1901 4104 
L 1901 4224 
L 122 4224 
L 122 4104 
C 614 4059 685 3989 685 3527 
L 685 749 
C 685 210 621 134 122 134 
L 122 0 
L 1901 0 
L 1901 121 
C 1421 159 1338 242 1338 699 
L 1338 2022 
L 3277 2022 
L 3277 757 
C 3277 211 3213 134 2714 134 
L 2714 0 
L 4493 0 
L 4493 121 
C 4013 159 3930 242 3930 696 
L 3930 3529 
C 3930 3989 4000 4059 4493 4104 
L 4493 4224 
L 2714 4224 
L 2714 4104 
C 3206 4059 3277 3990 3277 3533 
L 3277 2304 
L 1338 2304 
z
" transform="scale(0.015625)"/>
      </defs>
      <use xlink:href="#NimbusRomNo9L-Regu-43" transform="scale(0.996264)"/>
      <use xlink:href="#NimbusRomNo9L-Regu-48" transform="translate(66.450031 0) scale(0.996264)"/>
      <use xlink:href="#NimbusRomNo9L-Regu-31" transform="translate(138.380016 0) scale(0.996264)"/>
     </g>
    </g>
   </g>
  </g>
 </g>
 <defs>
  <clipPath id="p7b0cddff2b">
   <rect x="22.214175" y="16.084396" width="184.14" height="138.6"/>
  </clipPath>
 </defs>
</svg>
