<svg xmlns="http://www.w3.org/2000/svg" xmlns:xlink="http://www.w3.org/1999/xlink" width="279.939" height="240.057" viewBox="0 0 209.954 180.043"><defs><style>*{stroke-linejoin:round;stroke-linecap:butt}</style></defs><g id="figure_1"><path id="patch_1" d="M0 180.043h209.954V0H0z" style="fill:none"/><g id="axes_1"><path id="patch_2" d="M22.214 154.684h184.14v-138.6H22.214z" style="fill:none"/><g id="matplotlib.axis_1"><g id="xtick_1"><g id="line2d_1"><defs><path id="ma41684e924" d="M0 0v-3" style="stroke:#000;stroke-width:.5"/></defs><use xlink:href="#ma41684e924" x="47.331" y="154.684" style="stroke:#000;stroke-width:.5"/></g><g id="line2d_2"><defs><path id="m79a2147e52" d="M0 0v3" style="stroke:#000;stroke-width:.5"/></defs><use xlink:href="#m79a2147e52" x="47.331" y="16.084" style="stroke:#000;stroke-width:.5"/></g><g id="text_1" transform="matrix(.08 0 0 -.08 36.264 163.588)"><defs><path id="CMSY10-0" d="M4218 1472c108 0 224 0 224 128s-116 128-224 128H755c-109 0-224 0-224-128s115-128 224-128z" transform="scale(.01563)"/><path id="NimbusRomNo9L-Regu-31" d="M1862 4339 710 3757v-90c77 32 148 58 173 71 115 45 224 70 288 70 135 0 192-97 192-303V592c0-213-51-360-153-419-96-57-186-77-455-77V0h1767v96c-506 0-608 64-608 374v3857z" transform="scale(.01563)"/><path id="NimbusRomNo9L-Regu-30" d="M1626 4352c-352 0-621-108-858-332-371-359-614-1095-614-1844 0-697 211-1446 512-1804C902 90 1229-64 1600-64c326 0 602 109 832 333 371 352 614 1095 614 1869 0 1312-582 2214-1420 2214m-20-166c538 0 826-723 826-2061 0-1337-282-2022-832-2022S768 788 768 2119c0 1357 288 2067 838 2067" transform="scale(.01563)"/></defs><use xlink:href="#CMSY10-0" transform="scale(.99626)"/><use xlink:href="#NimbusRomNo9L-Regu-31" transform="matrix(.99626 0 0 .99626 77.409 0)"/><use xlink:href="#NimbusRomNo9L-Regu-30" transform="matrix(.99626 0 0 .99626 127.222 0)"/><use xlink:href="#NimbusRomNo9L-Regu-30" transform="matrix(.99626 0 0 .99626 177.035 0)"/><use xlink:href="#NimbusRomNo9L-Regu-30" transform="matrix(.99626 0 0 .99626 226.848 0)"/></g></g><g id="xtick_2"><use xlink:href="#ma41684e924" id="line2d_3" x="80.824" y="154.684" style="stroke:#000;stroke-width:.5"/><use xlink:href="#m79a2147e52" id="line2d_4" x="80.824" y="16.084" style="stroke:#000;stroke-width:.5"/><g id="text_2" transform="matrix(.08 0 0 -.08 71.75 163.588)"><defs><path id="NimbusRomNo9L-Regu-35" d="M1158 3776h1255c102 0 128 13 147 58l243 569-57 45c-96-134-160-166-295-166H1114L416 2759c-6-13-6-19-6-32 0-32 25-51 76-51 205 0 461-45 724-129 736-238 1075-637 1075-1273 0-618-391-1101-890-1101-128 0-237 45-429 187-204 148-352 212-486 212-186 0-275-77-275-238C205 90 506-64 986-64c537 0 998 174 1318 502 294 290 429 656 429 1145 0 463-122 759-442 1080-281 284-646 431-1401 566z" transform="scale(.01563)"/></defs><use xlink:href="#CMSY10-0" transform="scale(.99626)"/><use xlink:href="#NimbusRomNo9L-Regu-35" transform="matrix(.99626 0 0 .99626 77.409 0)"/><use xlink:href="#NimbusRomNo9L-Regu-30" transform="matrix(.99626 0 0 .99626 127.222 0)"/><use xlink:href="#NimbusRomNo9L-Regu-30" transform="matrix(.99626 0 0 .99626 177.035 0)"/></g></g><g id="xtick_3"><use xlink:href="#ma41684e924" id="line2d_5" x="114.318" y="154.684" style="stroke:#000;stroke-width:.5"/><use xlink:href="#m79a2147e52" id="line2d_6" x="114.318" y="16.084" style="stroke:#000;stroke-width:.5"/><use xlink:href="#NimbusRomNo9L-Regu-30" id="text_3" transform="matrix(.0797 0 0 -.0797 112.325 163.588)"/></g><g id="xtick_4"><use xlink:href="#ma41684e924" id="line2d_7" x="147.811" y="154.684" style="stroke:#000;stroke-width:.5"/><use xlink:href="#m79a2147e52" id="line2d_8" x="147.811" y="16.084" style="stroke:#000;stroke-width:.5"/><g id="text_4" transform="matrix(.08 0 0 -.08 141.833 163.588)"><use xlink:href="#NimbusRomNo9L-Regu-35" transform="scale(.99626)"/><use xlink:href="#NimbusRomNo9L-Regu-30" transform="matrix(.99626 0 0 .99626 49.813 0)"/><use xlink:href="#NimbusRomNo9L-Regu-30" transform="matrix(.99626 0 0 .99626 99.626 0)"/></g></g><g id="xtick_5"><use xlink:href="#ma41684e924" id="line2d_9" x="181.304" y="154.684" style="stroke:#000;stroke-width:.5"/><use xlink:href="#m79a2147e52" id="line2d_10" x="181.304" y="16.084" style="stroke:#000;stroke-width:.5"/><g id="text_5" transform="matrix(.08 0 0 -.08 173.334 163.588)"><use xlink:href="#NimbusRomNo9L-Regu-31" transform="scale(.99626)"/><use xlink:href="#NimbusRomNo9L-Regu-30" transform="matrix(.99626 0 0 .99626 49.813 0)"/><use xlink:href="#NimbusRomNo9L-Regu-30" transform="matrix(.99626 0 0 .99626 99.626 0)"/><use xlink:href="#NimbusRomNo9L-Regu-30" transform="matrix(.99626 0 0 .99626 149.44 0)"/></g></g><g id="xtick_6"><g id="line2d_11"><defs><path id="m857f012d62" d="M0 0v-1.5" style="stroke:#000;stroke-width:.5"/></defs><use xlink:href="#m857f012d62" x="27.235" y="154.684" style="stroke:#000;stroke-width:.5"/></g><g id="line2d_12"><defs><path id="mc1e8a915b5" d="M0 0v1.5" style="stroke:#000;stroke-width:.5"/></defs><use xlink:href="#mc1e8a915b5" x="27.235" y="16.084" style="stroke:#000;stroke-width:.5"/></g></g><g id="xtick_7"><use xlink:href="#m857f012d62" id="line2d_13" x="33.934" y="154.684" style="stroke:#000;stroke-width:.5"/><use xlink:href="#mc1e8a915b5" id="line2d_14" x="33.934" y="16.084" style="stroke:#000;stroke-width:.5"/></g><g id="xtick_8"><use xlink:href="#m857f012d62" id="line2d_15" x="40.632" y="154.684" style="stroke:#000;stroke-width:.5"/><use xlink:href="#mc1e8a915b5" id="line2d_16" x="40.632" y="16.084" style="stroke:#000;stroke-width:.5"/></g><g id="xtick_9"><use xlink:href="#m857f012d62" id="line2d_17" x="54.03" y="154.684" style="stroke:#000;stroke-width:.5"/><use xlink:href="#mc1e8a915b5" id="line2d_18" x="54.03" y="16.084" style="stroke:#000;stroke-width:.5"/></g><g id="xtick_10"><use xlink:href="#m857f012d62" id="line2d_19" x="60.728" y="154.684" style="stroke:#000;stroke-width:.5"/><use xlink:href="#mc1e8a915b5" id="line2d_20" x="60.728" y="16.084" style="stroke:#000;stroke-width:.5"/></g><g id="xtick_11"><use xlink:href="#m857f012d62" id="line2d_21" x="67.427" y="154.684" style="stroke:#000;stroke-width:.5"/><use xlink:href="#mc1e8a915b5" id="line2d_22" x="67.427" y="16.084" style="stroke:#000;stroke-width:.5"/></g><g id="xtick_12"><use xlink:href="#m857f012d62" id="line2d_23" x="74.126" y="154.684" style="stroke:#000;stroke-width:.5"/><use xlink:href="#mc1e8a915b5" id="line2d_24" x="74.126" y="16.084" style="stroke:#000;stroke-width:.5"/></g><g id="xtick_13"><use xlink:href="#m857f012d62" id="line2d_25" x="87.523" y="154.684" style="stroke:#000;stroke-width:.5"/><use xlink:href="#mc1e8a915b5" id="line2d_26" x="87.523" y="16.084" style="stroke:#000;stroke-width:.5"/></g><g id="xtick_14"><use xlink:href="#m857f012d62" id="line2d_27" x="94.222" y="154.684" style="stroke:#000;stroke-width:.5"/><use xlink:href="#mc1e8a915b5" id="line2d_28" x="94.222" y="16.084" style="stroke:#000;stroke-width:.5"/></g><g id="xtick_15"><use xlink:href="#m857f012d62" id="line2d_29" x="100.92" y="154.684" style="stroke:#000;stroke-width:.5"/><use xlink:href="#mc1e8a915b5" id="line2d_30" x="100.92" y="16.084" style="stroke:#000;stroke-width:.5"/></g><g id="xtick_16"><use xlink:href="#m857f012d62" id="line2d_31" x="107.619" y="154.684" style="stroke:#000;stroke-width:.5"/><use xlink:href="#mc1e8a915b5" id="line2d_32" x="107.619" y="16.084" style="stroke:#000;stroke-width:.5"/></g><g id="xtick_17"><use xlink:href="#m857f012d62" id="line2d_33" x="121.016" y="154.684" style="stroke:#000;stroke-width:.5"/><use xlink:href="#mc1e8a915b5" id="line2d_34" x="121.016" y="16.084" style="stroke:#000;stroke-width:.5"/></g><g id="xtick_18"><use xlink:href="#m857f012d62" id="line2d_35" x="127.715" y="154.684" style="stroke:#000;stroke-width:.5"/><use xlink:href="#mc1e8a915b5" id="line2d_36" x="127.715" y="16.084" style="stroke:#000;stroke-width:.5"/></g><g id="xtick_19"><use xlink:href="#m857f012d62" id="line2d_37" x="134.414" y="154.684" style="stroke:#000;stroke-width:.5"/><use xlink:href="#mc1e8a915b5" id="line2d_38" x="134.414" y="16.084" style="stroke:#000;stroke-width:.5"/></g><g id="xtick_20"><use xlink:href="#m857f012d62" id="line2d_39" x="141.112" y="154.684" style="stroke:#000;stroke-width:.5"/><use xlink:href="#mc1e8a915b5" id="line2d_40" x="141.112" y="16.084" style="stroke:#000;stroke-width:.5"/></g><g id="xtick_21"><use xlink:href="#m857f012d62" id="line2d_41" x="154.51" y="154.684" style="stroke:#000;stroke-width:.5"/><use xlink:href="#mc1e8a915b5" id="line2d_42" x="154.51" y="16.084" style="stroke:#000;stroke-width:.5"/></g><g id="xtick_22"><use xlink:href="#m857f012d62" id="line2d_43" x="161.208" y="154.684" style="stroke:#000;stroke-width:.5"/><use xlink:href="#mc1e8a915b5" id="line2d_44" x="161.208" y="16.084" style="stroke:#000;stroke-width:.5"/></g><g id="xtick_23"><use xlink:href="#m857f012d62" id="line2d_45" x="167.907" y="154.684" style="stroke:#000;stroke-width:.5"/><use xlink:href="#mc1e8a915b5" id="line2d_46" x="167.907" y="16.084" style="stroke:#000;stroke-width:.5"/></g><g id="xtick_24"><use xlink:href="#m857f012d62" id="line2d_47" x="174.606" y="154.684" style="stroke:#000;stroke-width:.5"/><use xlink:href="#mc1e8a915b5" id="line2d_48" x="174.606" y="16.084" style="stroke:#000;stroke-width:.5"/></g><g id="xtick_25"><use xlink:href="#m857f012d62" id="line2d_49" x="188.003" y="154.684" style="stroke:#000;stroke-width:.5"/><use xlink:href="#mc1e8a915b5" id="line2d_50" x="188.003" y="16.084" style="stroke:#000;stroke-width:.5"/></g><g id="xtick_26"><use xlink:href="#m857f012d62" id="line2d_51" x="194.702" y="154.684" style="stroke:#000;stroke-width:.5"/><use xlink:href="#mc1e8a915b5" id="line2d_52" x="194.702" y="16.084" style="stroke:#000;stroke-width:.5"/></g><g id="xtick_27"><use xlink:href="#m857f012d62" id="line2d_53" x="201.401" y="154.684" style="stroke:#000;stroke-width:.5"/><use xlink:href="#mc1e8a915b5" id="line2d_54" x="201.401" y="16.084" style="stroke:#000;stroke-width:.5"/></g><g id="text_6" transform="matrix(.08 0 0 -.08 110.741 174.717)"><defs><path id="NimbusRomNo9L-Regu-6e" d="M102 2579c39 19 103 26 173 26 179 0 237-96 237-410V608c0-365-70-454-397-480V32h1357v96c-326 26-422 102-422 333v1798c307 288 448 365 659 365 313 0 467-198 467-621V666c0-404-83-512-403-538V32h1331v96c-314 32-390 109-390 422v1466c0 602-282 960-756 960-294 0-492-109-928-518v505l-44 13c-314-115-532-186-884-288z" transform="scale(.01563)"/><path id="NimbusRomNo9L-Regu-73" d="m2016 2010-26 870h-70l-13-13c-57-45-64-51-89-51-39 0-103 13-173 45-141 54-282 83-448 83-506 0-871-328-871-790 0-358 205-615 749-923l371-211c224-128 333-283 333-481 0-283-205-462-531-462-218 0-416 82-538 221-134 157-192 302-275 662H333V-39h83c45 72 70 87 147 87 58 0 147-13 295-50 179-37 352-62 467-62 493 0 902 372 902 821 0 320-153 532-537 763l-692 410c-179 103-275 264-275 437 0 257 199 436 493 436 365 0 557-220 704-793z" transform="scale(.01563)"/></defs><use xlink:href="#NimbusRomNo9L-Regu-6e" transform="scale(.99626)"/><use xlink:href="#NimbusRomNo9L-Regu-73" transform="matrix(.99626 0 0 .99626 49.813 0)"/></g></g><g id="matplotlib.axis_2"><g id="ytick_1"><g id="line2d_55"><defs><path id="mf1aa0c2caf" d="M0 0h3" style="stroke:#000;stroke-width:.5"/></defs><use xlink:href="#mf1aa0c2caf" x="22.214" y="145.454" style="stroke:#000;stroke-width:.5"/></g><g id="line2d_56"><defs><path id="m87a0ffca09" d="M0 0h-3" style="stroke:#000;stroke-width:.5"/></defs><use xlink:href="#m87a0ffca09" x="206.354" y="145.454" style="stroke:#000;stroke-width:.5"/></g><use xlink:href="#NimbusRomNo9L-Regu-30" id="text_7" transform="matrix(.0797 0 0 -.0797 14.73 148.156)"/></g><g id="ytick_2"><use xlink:href="#mf1aa0c2caf" id="line2d_57" x="22.214" y="121.036" style="stroke:#000;stroke-width:.5"/><use xlink:href="#m87a0ffca09" id="line2d_58" x="206.354" y="121.036" style="stroke:#000;stroke-width:.5"/><use xlink:href="#NimbusRomNo9L-Regu-31" id="text_8" transform="matrix(.0797 0 0 -.0797 14.73 123.737)"/></g><g id="ytick_3"><use xlink:href="#mf1aa0c2caf" id="line2d_59" x="22.214" y="96.617" style="stroke:#000;stroke-width:.5"/><use xlink:href="#m87a0ffca09" id="line2d_60" x="206.354" y="96.617" style="stroke:#000;stroke-width:.5"/><g id="text_9" transform="matrix(.08 0 0 -.08 14.73 99.319)"><defs><path id="NimbusRomNo9L-Regu-32" d="m3040 875-83 32c-237-363-320-421-608-421H819l1075 1123c570 593 820 1078 820 1576 0 638-519 1128-1184 1128-352 0-685-140-922-395-205-218-301-422-410-875l135-32c256 625 486 829 928 829 537 0 902-364 902-900 0-497-294-1090-832-1658L192 77V0h2496z" transform="scale(.01563)"/></defs><use xlink:href="#NimbusRomNo9L-Regu-32" transform="scale(.99626)"/></g></g><g id="ytick_4"><use xlink:href="#mf1aa0c2caf" id="line2d_61" x="22.214" y="72.198" style="stroke:#000;stroke-width:.5"/><use xlink:href="#m87a0ffca09" id="line2d_62" x="206.354" y="72.198" style="stroke:#000;stroke-width:.5"/><g id="text_10" transform="matrix(.08 0 0 -.08 14.73 74.9)"><defs><path id="NimbusRomNo9L-Regu-33" d="M979 2138c378 0 525-13 679-70 396-141 646-506 646-948 0-537-365-953-838-953-173 0-301 45-538 198-192 115-301 160-410 160-147 0-243-89-243-224C275 77 550-64 998-64c493 0 999 167 1300 429 300 263 467 634 467 1063 0 326-103 627-288 825-128 141-250 218-531 339 441 301 601 538 601 884 0 518-409 876-998 876-320 0-602-108-832-313-192-173-288-340-429-724l96-25c262 467 550 678 954 678 416 0 704-281 704-684 0-231-96-461-256-621-192-192-372-288-807-442z" transform="scale(.01563)"/></defs><use xlink:href="#NimbusRomNo9L-Regu-33" transform="scale(.99626)"/></g></g><g id="ytick_5"><use xlink:href="#mf1aa0c2caf" id="line2d_63" x="22.214" y="47.78" style="stroke:#000;stroke-width:.5"/><use xlink:href="#m87a0ffca09" id="line2d_64" x="206.354" y="47.78" style="stroke:#000;stroke-width:.5"/><g id="text_11" transform="matrix(.08 0 0 -.08 14.73 50.482)"><defs><path id="NimbusRomNo9L-Regu-34" d="M3021 1497h-653v2855h-282L77 1497v-409h1798V32h493v1056h653zm-1152 0H333l1536 2201z" transform="scale(.01563)"/></defs><use xlink:href="#NimbusRomNo9L-Regu-34" transform="scale(.99626)"/></g></g><g id="ytick_6"><use xlink:href="#mf1aa0c2caf" id="line2d_65" x="22.214" y="23.361" style="stroke:#000;stroke-width:.5"/><use xlink:href="#m87a0ffca09" id="line2d_66" x="206.354" y="23.361" style="stroke:#000;stroke-width:.5"/><use xlink:href="#NimbusRomNo9L-Regu-35" id="text_12" transform="matrix(.0797 0 0 -.0797 14.73 26.063)"/></g><g id="ytick_7"><g id="line2d_67"><defs><path id="mb425c52e3c" d="M0 0h1.5" style="stroke:#000;stroke-width:.5"/></defs><use xlink:href="#mb425c52e3c" x="22.214" y="150.338" style="stroke:#000;stroke-width:.5"/></g><g id="line2d_68"><defs><path id="m853a8c1b71" d="M0 0h-1.5" style="stroke:#000;stroke-width:.5"/></defs><use xlink:href="#m853a8c1b71" x="206.354" y="150.338" style="stroke:#000;stroke-width:.5"/></g></g><g id="ytick_8"><use xlink:href="#mb425c52e3c" id="line2d_69" x="22.214" y="140.57" style="stroke:#000;stroke-width:.5"/><use xlink:href="#m853a8c1b71" id="line2d_70" x="206.354" y="140.57" style="stroke:#000;stroke-width:.5"/></g><g id="ytick_9"><use xlink:href="#mb425c52e3c" id="line2d_71" x="22.214" y="135.687" style="stroke:#000;stroke-width:.5"/><use xlink:href="#m853a8c1b71" id="line2d_72" x="206.354" y="135.687" style="stroke:#000;stroke-width:.5"/></g><g id="ytick_10"><use xlink:href="#mb425c52e3c" id="line2d_73" x="22.214" y="130.803" style="stroke:#000;stroke-width:.5"/><use xlink:href="#m853a8c1b71" id="line2d_74" x="206.354" y="130.803" style="stroke:#000;stroke-width:.5"/></g><g id="ytick_11"><use xlink:href="#mb425c52e3c" id="line2d_75" x="22.214" y="125.919" style="stroke:#000;stroke-width:.5"/><use xlink:href="#m853a8c1b71" id="line2d_76" x="206.354" y="125.919" style="stroke:#000;stroke-width:.5"/></g><g id="ytick_12"><use xlink:href="#mb425c52e3c" id="line2d_77" x="22.214" y="116.152" style="stroke:#000;stroke-width:.5"/><use xlink:href="#m853a8c1b71" id="line2d_78" x="206.354" y="116.152" style="stroke:#000;stroke-width:.5"/></g><g id="ytick_13"><use xlink:href="#mb425c52e3c" id="line2d_79" x="22.214" y="111.268" style="stroke:#000;stroke-width:.5"/><use xlink:href="#m853a8c1b71" id="line2d_80" x="206.354" y="111.268" style="stroke:#000;stroke-width:.5"/></g><g id="ytick_14"><use xlink:href="#mb425c52e3c" id="line2d_81" x="22.214" y="106.384" style="stroke:#000;stroke-width:.5"/><use xlink:href="#m853a8c1b71" id="line2d_82" x="206.354" y="106.384" style="stroke:#000;stroke-width:.5"/></g><g id="ytick_15"><use xlink:href="#mb425c52e3c" id="line2d_83" x="22.214" y="101.501" style="stroke:#000;stroke-width:.5"/><use xlink:href="#m853a8c1b71" id="line2d_84" x="206.354" y="101.501" style="stroke:#000;stroke-width:.5"/></g><g id="ytick_16"><use xlink:href="#mb425c52e3c" id="line2d_85" x="22.214" y="91.733" style="stroke:#000;stroke-width:.5"/><use xlink:href="#m853a8c1b71" id="line2d_86" x="206.354" y="91.733" style="stroke:#000;stroke-width:.5"/></g><g id="ytick_17"><use xlink:href="#mb425c52e3c" id="line2d_87" x="22.214" y="86.85" style="stroke:#000;stroke-width:.5"/><use xlink:href="#m853a8c1b71" id="line2d_88" x="206.354" y="86.85" style="stroke:#000;stroke-width:.5"/></g><g id="ytick_18"><use xlink:href="#mb425c52e3c" id="line2d_89" x="22.214" y="81.966" style="stroke:#000;stroke-width:.5"/><use xlink:href="#m853a8c1b71" id="line2d_90" x="206.354" y="81.966" style="stroke:#000;stroke-width:.5"/></g><g id="ytick_19"><use xlink:href="#mb425c52e3c" id="line2d_91" x="22.214" y="77.082" style="stroke:#000;stroke-width:.5"/><use xlink:href="#m853a8c1b71" id="line2d_92" x="206.354" y="77.082" style="stroke:#000;stroke-width:.5"/></g><g id="ytick_20"><use xlink:href="#mb425c52e3c" id="line2d_93" x="22.214" y="67.315" style="stroke:#000;stroke-width:.5"/><use xlink:href="#m853a8c1b71" id="line2d_94" x="206.354" y="67.315" style="stroke:#000;stroke-width:.5"/></g><g id="ytick_21"><use xlink:href="#mb425c52e3c" id="line2d_95" x="22.214" y="62.431" style="stroke:#000;stroke-width:.5"/><use xlink:href="#m853a8c1b71" id="line2d_96" x="206.354" y="62.431" style="stroke:#000;stroke-width:.5"/></g><g id="ytick_22"><use xlink:href="#mb425c52e3c" id="line2d_97" x="22.214" y="57.547" style="stroke:#000;stroke-width:.5"/><use xlink:href="#m853a8c1b71" id="line2d_98" x="206.354" y="57.547" style="stroke:#000;stroke-width:.5"/></g><g id="ytick_23"><use xlink:href="#mb425c52e3c" id="line2d_99" x="22.214" y="52.663" style="stroke:#000;stroke-width:.5"/><use xlink:href="#m853a8c1b71" id="line2d_100" x="206.354" y="52.663" style="stroke:#000;stroke-width:.5"/></g><g id="ytick_24"><use xlink:href="#mb425c52e3c" id="line2d_101" x="22.214" y="42.896" style="stroke:#000;stroke-width:.5"/><use xlink:href="#m853a8c1b71" id="line2d_102" x="206.354" y="42.896" style="stroke:#000;stroke-width:.5"/></g><g id="ytick_25"><use xlink:href="#mb425c52e3c" id="line2d_103" x="22.214" y="38.012" style="stroke:#000;stroke-width:.5"/><use xlink:href="#m853a8c1b71" id="line2d_104" x="206.354" y="38.012" style="stroke:#000;stroke-width:.5"/></g><g id="ytick_26"><use xlink:href="#mb425c52e3c" id="line2d_105" x="22.214" y="33.129" style="stroke:#000;stroke-width:.5"/><use xlink:href="#m853a8c1b71" id="line2d_106" x="206.354" y="33.129" style="stroke:#000;stroke-width:.5"/></g><g id="ytick_27"><use xlink:href="#mb425c52e3c" id="line2d_107" x="22.214" y="28.245" style="stroke:#000;stroke-width:.5"/><use xlink:href="#m853a8c1b71" id="line2d_108" x="206.354" y="28.245" style="stroke:#000;stroke-width:.5"/></g><g id="ytick_28"><use xlink:href="#mb425c52e3c" id="line2d_109" x="22.214" y="18.477" style="stroke:#000;stroke-width:.5"/><use xlink:href="#m853a8c1b71" id="line2d_110" x="206.354" y="18.477" style="stroke:#000;stroke-width:.5"/></g><g id="text_13" transform="matrix(0 -.08 -.08 0 9.004 88.262)"><defs><path id="NimbusRomNo9L-Regu-56" d="M4461 4231H3149v-135c352 0 467-70 467-250 0-102-45-274-122-466l-940-2347-967 2166c-211 468-262 615-262 711 0 122 89 186 294 186 26 0 96 0 186 13v122H102v-135c314 0 404-89 679-657L2355-64h96l1421 3585c211 505 282 575 589 575z" transform="scale(.01563)"/></defs><use xlink:href="#NimbusRomNo9L-Regu-56" transform="scale(.99626)"/></g></g><path id="line2d_111" d="M30.584 146.43h.268l.134.978h.268l.134.976.134-.976h.268l.134-.977h.603l.134.977H33.8l.134-.977h.401l.201-1.954h.067l.134.977h.402l.067-.977.134.977h.268l.134.977.134-.977h.268l.067-.977.134.977h.536l.134.977h.268l.134.977.134-.977h.268l.134-.977h.268l.134.977h.469l.134-.977h2.612l.134.977h.268l.134.977.134-.977h.268l.134-.977.134.977h.134l.134.977h.469l.134-.977h.134l.134-.977.134.977h1.808l.134-.977h.938l.134.977h.469l.134-.977h.268l.134.977h.469l.134-.977h.268l.134.977h1.473l.134-.977h.268l.134.977h.871l.134.977h.469l.134-.977h.134l.134-.977.134.977h1.54l.134.977h.268l.134.976.134-.976h.268l.134-.977h.134l.134-.977.134.977h.47l.133-.977h.603l.134.977h.469l.134-.977.134.977h.134l.134.977h.469l.134-.977h.2l.134-.977h.268l.134.977h1.14l.133-.977.134.977h.134l.134.977h.469l.134-.977h.268l.134.977h.2l.135.976h.134l.134-.976h.067l.2-1.954h.068l.134.977h.2l.135.977.134-.977h.268l.134-.977h.267l.134.977h.47l.133-.977h.938l.134.977h.469l.134-.977h.938l.134.977h.268l.134.977.134-.977h.268l.134-.977h.268l.134.977h.468l.134-.977h.268l.134.977h.268l.134.977.134-.977h.268l.134-.977h.268l.134.977h.268l.134.977.134-.977h.268l.134-.977h.268l.134.977h2.545l.134.977h.268l.134.976.134-.976h.268l.134-.977h.201l.134-.977h.268l.134.977h.469l.134-.977h.268l.134.977h.469l.134-.977h.535l.134-.977h.268l.201 1.954h.402l.134-.977h.268l.134.977h.47l.066-.977.134.977h1.876l.134.977h.2l.135.976h.134l.134-.976h.067l.2-1.954h.335l.201 1.954h.402l.134-.977h.268l.134.977h.268l.134.976.134-.976h.268l.134-.977h.603l.134.977h.469l.134-.977h.134l.134-.977.2 1.954h.135l.134.976h.134l.134-.976h.067l.2-1.954h1.675l.134.977h1.54l.135.977h.469l.134-.977h.134l.134-.977.134.977h2.813l.067-.977.134.977h2.813l.134-.977h.536l.134-.977h.603l.134.977h.201l.134.977h.469l.067-.977.134.977h.268l.134.977.134-.977h.268l.067-.977.134.977h.536l.134.977h.335l.2-1.954h.335l.134.977h.47l.133-.977h.268l.134.977h.47l.133-.977h.268l.134.977h.469l.067-.977.134.977h.469l.134-.977h.268l.134.977h.2l.135.977h.469l.134-.977h.267l.134.977h.603l.134.976.134-.976h.134l.201-1.954h1.273l.134-.977.134.977h.134l.134.977h.335l.2-1.954h.336l.2 1.954h.403l.067-.977.134.977h.468l.067-.977.134.977h.47l.133-.977h.938l.134.977h.469l.067-.977.134.977h.268l.134.977.134-.977h.268l.134-.977.134.977h.134l.134.977h.469l.134-.977h.134l.133-.977h.067l.134.977h.134l.134.977h.201l.134.976h.134l.134-.976h.067l.201-1.954h.335l.134.977h.268l.134.977.134-.977h.268l.134-.977h.134l.134-.977.2 1.954h.135l.134.977h.134l.134-.977h.067l.2-1.954h.336l.2 1.954h.403l.067-.977.133.977h.871l.134.977h.47l.133-.977h.201l.134-.977h.268l.134.977h.469l.067-.977.134.977h.469l.134-.977h.536l.134-.977h.268l.2 1.954h.402l.067-.977.134.977h.47l.133-.977h.268l.134.977h1.139l.134-.977h.268l.134.977h.469l.134-.977h.536l.067-.977.134.977h.469l.134-.977.133.977h.134l.201 1.954h.134l.134.976h.134l.134-.976h.201l.134-.977h1.876l.134-.977h.268l.134.977h1.808l.134-.977h.268l.134.977h.268l.134.977.134-.977h.268l.067-.977.134.977h1.474l.067-.977.134.977h.469l.134-.977h.536l.067-.977.134.977h.468l.067-.977.134.977h.268l.134.977.134-.977h.268l.067-.977.134.977h.201l.134.977h.134l.134-.977h.067l.201-1.953h.067l.134-.977h.067l.134-.977h.335l.268-2.93h.067l.402-4.884h.067l1.741-26.372.268-4.884.268-4.883.335-6.838.47-7.813.267-4.884.402-6.837.268-4.884 1.608-22.465h.067l.468-5.86h.067l.134-.977h.067l.134-.977h.067l.201-1.954h.067l.268-2.93h.067l.134-.977h.067l.134-.976h.201l.134-.977h.201l.134-.977h.536l.134-.977h.268l.134.977h2.478l.134-.977h.536l.067-.976.134.976h.268l.134.977.134-.977h.268l.134-.976h.87l.068-.977.134.977h.268l.134.976.134-.976h.268l.134-.977h.603l.133.977h.47l.133-.977h.201l.134-.977h.268l.201 1.954h.402l.067-.977.134.977h.469l.067-.977.134.977h.268l.134.976.134-.976h.268l.134-.977h1.206l.134-.977h.267l.134.977h1.541l.134.977h.268l.134.976.134-.976h.268l.134-.977h.2l.135-.977h1.206l.067-.977.134.977h.468l.134-.977h.268l.134.977h.47l.133-.977h.268l.134.977h.268l.134.977.134-.977h.268l.067-.977.134.977h.536l.134.977h.268l.134.977.134-.977h.268l.134-.977h.268l.134.977h.468l.134-.977h.603l.134.977h1.14l.133-.977h.134l.134-.977.134.977h1.474l.067-.977.134.977h.469l.134-.977h.267l.134.977h.47l.066-.977.134.977h.47l.066-.977.134.977h.47l.133-.977.134.977h.134l.134.977h.469l.067-.977.134.977h.268l.134.977.134-.977h.268l.134-.977h.134l.134-.977.134.977h2.88l.134.977h.469l.134-.977h3.617" clip-path="url(#p2c512e2bc0)" style="fill:none;stroke:#000;stroke-linecap:square"/><path id="line2d_112" d="m30.584 145.454.134.977.134-.977h.268l.067-.977.134.977h.268l.134.977.134-.977h.268l.134-.977h.87l.135-.976h.268l.134.976h.87l.134.977h.268l.134.977.134-.977h.268l.067-.977.134.977h.268l.134.977.134-.977h.268l.067-.977.134.977h.469l.134-.977h.268l.134.977h.469l.134-.977h.937l.134.977h.268l.134.977.134-.977h.268l.067-.977.134.977h.201l.134.977h.134l.134-.977h.067l.201-1.953h.067l.134.976h.201l.134.977.134-.977h.268l.067-.976.134.976h.536l.134.977h.469l.134-.977h.268l.134.977h1.473l.067-.977.134.977h.47l.133-.977h.268l.134.977h.469l.067-.977.134.977h.469l.134-.977h.87l.068-.976.134.976h.535l.134.977h.47l.133-.977h.603l.134.977h.268l.134.977.134-.977h.268l.134-.977h.134l.134-.976.134.976h1.206l.134.977h.2l.135.977h.468l.134-.977h.201l.134-.977h1.608l.134.977h.201l.134.977h.134l.134-.977h.067l.2-1.953h.068l.134.976h.402l.067-.976.134.976h.536l.134.977h1.473l.134-.977h1.206l.067-.976.134.976h.536l.134.977h.469l.067-.977.134.977h.469l.134-.977h3.282l.134.977h.469l.067-.977.134.977h1.139l.134-.977h.133l.134-.976h.067l.134.976h.134l.134.977h.47l.133-.977h.268l.134.977h.47l.133-.977h.268l.134.977h.469l.067-.977.134.977h.268l.134.977.134-.977h.268l.067-.977.134.977h.469l.134-.977h.267l.134.977h.201l.134.977h.268l.134.977.134-.977h.268l.134-.977h.268l.134.977h.469l.134-.977h.201l.134-.977h1.206l.067-.976.134.976h.536l.134.977h.468l.134-.977h.268l.134.977h.47l.133-.977h.603l.134.977h.469l.067-.977.134.977h.469l.134-.977h1.273l.134.977h.468l.134-.977h.268l.134.977h1.14l.133-.977.134.977h.134l.134.977h.469l.134-.977h.536l.134-.977h.268l.134.977h.469l.134-.977h.602l.134.977h.47l.133-.977h.603l.134.977h.268l.134.977.134-.977h.268l.134-.977h.268l.134.977h.469l.134-.977h.268l.134.977h.469l.134-.977h.937l.134.977h.47l.066-.977.134.977h.47l.133-.977h.603l.134.977h.268l.134.977.134-.977h.268l.134-.977h.134l.134-.976h.067l.134.976h.134l.134.977h.268l.134.977.134-.977h.267l.134-.977h2.278l.134.977h.469l.067-.977.134.977h.268l.134.977.134-.977h.268l.134-.977h.2l.135-.976h.268l.134.976h1.808l.067-.976.134.976h.469l.134-.976.134.976h.134l.134.977h.603l.134.977.134-.977h.134l.2-1.953h.068l.134.976h.134l.134.977h.468l.134-.977h.871l.067-.976.134.976h.201l.134.977h.134l.134-.977h.067l.201-1.953h.469l.2-1.954h.068l.402-6.837.603-20.511.938-37.117.2-3.907.268-4.883.335-3.907h.134l.134-.977h.268l.201 1.953h.134l.134.977h.268l.134.977h.134l.268 2.93h.067l.134.977h.201l.134.977h.2l.135.976h.536l.134.977h.2l.135.977h.134l.134-.977h.067l.2-1.953h.269l.133-.977h.201l.134-.977h.067l.201-1.953h.268l.134-.977h.201l.134-.977h.201l.134-.977h.402l.201-1.953h.067l.134-.977h.067l.134-.977h.938l.2 1.954h.135l.134.977h.134l.134-.977h.2l.068-.977.134.977h.87l.134.977h.47l.133-.977h1.876l.134-.977h1.206l.134-.977h.268l.133.977h.871l.134.977h.268l.134.977.134-.977h.268l.134-.977h.268l.134.977h.469l.134-.977h1.54l.135-.977h.268l.133.977h.201l.134.977h.268l.134.977.134-.977h.268l.134-.977h.268l.134.977h.268l.134.977.134-.977h.268l.134-.977h2.545l.134-.977h.268l.134.977h.201l.134.977h.201l.134.977h.134l.134-.977h.067l.201-1.954h.067l.134.977h2.747l.134-.977h.267l.134.977h.201l.134.977h.47l.133-.977h1.206l.067-.977.134.977h1.139l.067-.977.134.977h.268l.134.977.134-.977h.268l.134-.977h.267l.134.977h.47l.066-.977.134.977h.47l.066-.977.134.977h.268l.134.977.134-.977h.268l.067-.977.134.977h.268l.134.977.134-.977h.268l.067-.977.134.977h1.474l.066-.977.134.977h.47l.133-.977h.268l.134.977h.47l.133-.977h.938l.134.977h.87l.135.977h.469l.134-.977h.134l.134-.977.134.977h.468l.134-.977.134.977h.134l.134.977h.335l.201-1.954h.067l.134.977h2.747l.134-.977h.268l.134.977h.468l.134-.977h.938l.134.977h1.139l.134-.977h.268l.134.977h3.483l.134-.977h.268l.134.977h1.139l.134-.977h.268l.134.977h.2l.135.977h.469l.134-.977h.937l.134.977h.201l.134.977h.134l.134-.977h.067l.201-1.954h.067l.134.977h1.072l.134-.977h.268l.134.977h.469l.067-.977.134.977h.268l.134.977.134-.977h.268l.134-.977h.602l.134.977h1.474l.067-.977.134.977h.268l.134.977.134-.977h.268l.134-.977h.268l.134.977h1.808l.067-.977.134.977h1.206l.134.977h.268l.134.977.134-.977h.268l.134-.977h1.206l.067-.977.134.977h1.473l.134-.977h1.943l.134.977h1.139l.067-.977.134.977h.469l.134-.977h.268l.133.977h.536l.134.977h.268l.134.977.134-.977h.268l.067-.977" clip-path="url(#p2c512e2bc0)" style="fill:none;stroke-dasharray:3.7,1.6;stroke-dashoffset:0;stroke:red"/><path id="patch_3" d="M22.214 154.684v-138.6" style="fill:none;stroke:#000;stroke-width:.5;stroke-linejoin:miter;stroke-linecap:square"/><path id="patch_4" d="M206.354 154.684v-138.6" style="fill:none;stroke:#000;stroke-width:.5;stroke-linejoin:miter;stroke-linecap:square"/><path id="patch_5" d="M22.214 154.684h184.14" style="fill:none;stroke:#000;stroke-width:.5;stroke-linejoin:miter;stroke-linecap:square"/><path id="patch_6" d="M22.214 16.084h184.14" style="fill:none;stroke:#000;stroke-width:.5;stroke-linejoin:miter;stroke-linecap:square"/><g id="text_14" transform="matrix(.096 0 0 -.096 53.997 10.084)"><defs><path id="NimbusRomNo9L-Regu-57" d="M5965 4224H4698v-122c326-32 441-102 441-276 0-134-38-302-102-481l-800-2176-845 2189c-13 32-70 173-77 193-57 134-96 256-96 326 0 155 147 219 493 219v128H2003v-128c365 0 429-58 647-572l211-526-685-1810-922 2424c-44 116-70 226-70 297 0 142 90 187 416 187v128H32v-122c326-32 422-147 659-751L1926-96h96l986 2715L4032-96h96c544 1675 608 1855 1306 3743 121 334 192 391 531 455z" transform="scale(.01563)"/><path id="NimbusRomNo9L-Regu-61" d="M2829 423c-109-90-186-122-282-122-147 0-192 89-192 371v1248c0 333-32 518-128 672-141 230-416 352-793 352-602 0-1076-314-1076-717 0-147 128-275 276-275 153 0 288 128 288 269 0 25-7 57-13 102-13 58-19 109-19 154 0 173 204 313 460 313 314 0 487-185 487-531v-390c-986-397-1095-448-1370-691-141-128-230-346-230-557 0-403 281-685 672-685 281 0 544 134 934 467 32-333 147-467 410-467 217 0 352 77 576 320zm-992 360c0-199-32-257-167-334-153-90-332-148-467-148-224 0-403 219-403 495v26c0 379 262 611 1037 893z" transform="scale(.01563)"/><path id="NimbusRomNo9L-Regu-76" d="M3053 2854h-890v-96c205-19 301-83 301-206 0-64-13-128-38-193L1792 695l-653 1645c-38 91-57 180-57 238 0 116 70 161 294 180v96H122v-102c243 0 288-64 582-728l768-1849c13-38 32-84 51-135 39-116 77-168 115-168 39 0 84 84 180 321l819 2064c185 437 224 482 416 501z" transform="scale(.01563)"/><path id="NimbusRomNo9L-Regu-65" d="M2611 1053c-307-489-582-675-992-675-365 0-640 186-825 552-116 244-160 456-173 849h1971c-51 414-115 598-275 802-192 230-487 363-819 363-320 0-621-115-864-333-301-262-474-717-474-1241C160 486 621-64 1357-64c608 0 1088 379 1357 1072zM634 1984c70 495 288 730 678 730s544-179 627-730z" transform="scale(.01563)"/><path id="NimbusRomNo9L-Regu-66" d="M1978 2880h-788v731c0 367 122 562 365 562 135 0 224-63 339-246 103-164 180-227 288-227 148 0 269 114 269 259 0 229-281 393-665 393-397 0-736-171-903-461-166-278-217-506-224-1011H134v-205h525V656c0-471-70-547-531-547V0h1664v109c-525 0-595 71-595 552v2014h781z" transform="scale(.01563)"/><path id="NimbusRomNo9L-Regu-6f" d="M1600 2944c-832 0-1414-614-1414-1498C186 582 781-64 1587-64c807 0 1421 678 1421 1562 0 838-589 1446-1408 1446m-83-179c537 0 915-615 915-1491 0-724-288-1159-768-1159-250 0-486 154-621 410-179 333-281 781-281 1235 0 608 300 1005 755 1005" transform="scale(.01563)"/><path id="NimbusRomNo9L-Regu-72" d="M45 2496c89 19 147 26 224 26 160 0 217-103 217-384V538c0-320-44-365-454-442V0h1536v102c-435 0-544 97-544 463v1448c0 206 275 528 448 528 38 0 96-32 166-96 103-90 173-128 256-128 154 0 250 109 250 288 0 211-134 339-352 339-269 0-454-147-768-601v588l-32 13c-339-141-570-223-947-345z" transform="scale(.01563)"/><path id="NimbusRomNo9L-Regu-6d" d="M122 2547c83 19 134 26 204 26 167 0 224-103 224-411V539c0-347-89-443-448-443V0h1421v96c-339 0-435 70-435 322v1816c0 12 51 76 96 121 160 147 435 256 659 256 282 0 423-226 423-679V528c0-361-71-432-436-432V0h1434v96c-365 0-461 109-461 507v1618c192 275 403 390 698 390 365 0 480-173 480-704V557c0-365-51-416-423-461V0h1402v96l-166 19c-192 0-276 115-276 365v1322c0 757-249 1142-742 1142-371 0-698-166-1043-537-115 364-333 537-679 537-281 0-460-90-992-493v480l-44 13c-327-122-544-192-896-288z" transform="scale(.01563)"/><path id="NimbusRomNo9L-Regu-77" d="M3654 2912v-96c218-45 282-90 282-198 0-97-38-251-109-424L3251 770l-537 1437c-109 294-109 294-109 379 0 140 70 185 371 230v96H1677v-96c237-26 313-96 441-443 45-121 90-244 128-359L1664 738l-634 1674c-25 64-38 128-38 193 0 134 77 185 294 211v96H134v-96c148-13 199-77 340-404l864-2193c76-193 128-283 166-283 32 0 83 84 160 250l717 1539 582-1513c90-237 115-276 154-276 45 0 77 58 179 315l883 2218c115 270 135 302 263 347v96z" transform="scale(.01563)"/><path id="NimbusRomNo9L-Regu-69" d="m1120 2929-992-350v-95l51 6c77 12 160 19 218 19 153 0 211-103 211-384V640c0-461-64-531-506-531V0h1517v96c-422 32-473 95-473 554v2260zM819 4352c-173 0-320-147-320-326s141-327 320-327c186 0 333 141 333 327 0 179-147 326-333 326" transform="scale(.01563)"/><path id="NimbusRomNo9L-Regu-74" d="M1632 2880H986v742c0 64-7 84-45 84-45-58-83-116-128-180-243-352-519-659-621-685-70-47-109-93-109-126 0-20 7-33 26-33h339V751c0-539 192-815 570-815 313 0 556 154 768 487l-84 70c-134-160-243-224-384-224-236 0-332 174-332 578v1835h646z" transform="scale(.01563)"/><path id="NimbusRomNo9L-Regu-68" d="M1005 2222c269 294 461 402 710 402 320 0 480-229 480-676V684c0-434-64-518-435-556V32h1357v96c-346 64-384 115-384 556v1270c0 671-269 1016-787 1016-378 0-647-154-941-538v1958l-32 19c-218-77-378-128-736-230l-173-51v-102c26 6 45 6 77 6 275 0 326-52 326-327V686c0-449-38-507-409-558V32h1382v96c-371 38-435 115-435 556z" transform="scale(.01563)"/><path id="NimbusRomNo9L-Regu-64" d="m2202-64 940 333v96h-147c-230 0-281 70-281 366v3633l-32 13c-308-109-532-173-941-281v-102c51 6 89 6 141 6 236 0 294-64 294-328V2669c-243 205-416 275-672 275-736 0-1331-723-1331-1632C173 493 653-64 1357-64c358 0 601 128 819 429V-45zm-26 717c0-45-45-122-109-192-115-128-275-192-461-192-531 0-883 512-883 1299 0 723 314 1197 800 1197 339 0 653-301 653-640z" transform="scale(.01563)"/><path id="NimbusRomNo9L-Regu-6c" d="M122 4000h236c205 0 269-90 269-390V557c0-346-89-429-493-461V0h1511v109c-403 0-480 64-480 419v3843l-26 13c-333-109-576-173-1017-281z" transform="scale(.01563)"/></defs><use xlink:href="#NimbusRomNo9L-Regu-57" transform="scale(.99626)"/><use xlink:href="#NimbusRomNo9L-Regu-61" transform="matrix(.99626 0 0 .99626 86.077 0)"/><use xlink:href="#NimbusRomNo9L-Regu-76" transform="matrix(.99626 0 0 .99626 128.319 0)"/><use xlink:href="#NimbusRomNo9L-Regu-65" transform="matrix(.99626 0 0 .99626 176.639 0)"/><use xlink:href="#NimbusRomNo9L-Regu-66" transform="matrix(.99626 0 0 .99626 220.872 0)"/><use xlink:href="#NimbusRomNo9L-Regu-6f" transform="matrix(.99626 0 0 .99626 254.047 0)"/><use xlink:href="#NimbusRomNo9L-Regu-72" transform="matrix(.99626 0 0 .99626 303.86 0)"/><use xlink:href="#NimbusRomNo9L-Regu-6d" transform="matrix(.99626 0 0 .99626 337.036 0)"/><use xlink:href="#NimbusRomNo9L-Regu-73" transform="matrix(.99626 0 0 .99626 414.544 0)"/><use xlink:href="#NimbusRomNo9L-Regu-77" transform="matrix(.99626 0 0 .99626 478.205 0)"/><use xlink:href="#NimbusRomNo9L-Regu-69" transform="matrix(.99626 0 0 .99626 550.135 0)"/><use xlink:href="#NimbusRomNo9L-Regu-74" transform="matrix(.99626 0 0 .99626 577.83 0)"/><use xlink:href="#NimbusRomNo9L-Regu-68" transform="matrix(.99626 0 0 .99626 605.525 0)"/><use xlink:href="#NimbusRomNo9L-Regu-64" transform="matrix(.99626 0 0 .99626 680.245 0)"/><use xlink:href="#NimbusRomNo9L-Regu-69" transform="matrix(.99626 0 0 .99626 730.058 0)"/><use xlink:href="#NimbusRomNo9L-Regu-66" transform="matrix(.99626 0 0 .99626 757.753 0)"/><use xlink:href="#NimbusRomNo9L-Regu-66" transform="matrix(.99626 0 0 .99626 788.438 0)"/><use xlink:href="#NimbusRomNo9L-Regu-65" transform="matrix(.99626 0 0 .99626 821.613 0)"/><use xlink:href="#NimbusRomNo9L-Regu-72" transform="matrix(.99626 0 0 .99626 865.846 0)"/><use xlink:href="#NimbusRomNo9L-Regu-65" transform="matrix(.99626 0 0 .99626 899.022 0)"/><use xlink:href="#NimbusRomNo9L-Regu-6e" transform="matrix(.99626 0 0 .99626 943.255 0)"/><use xlink:href="#NimbusRomNo9L-Regu-74" transform="matrix(.99626 0 0 .99626 993.068 0)"/><use xlink:href="#NimbusRomNo9L-Regu-6c" transform="matrix(.99626 0 0 .99626 1045.67 0)"/><use xlink:href="#NimbusRomNo9L-Regu-6f" transform="matrix(.99626 0 0 .99626 1073.365 0)"/><use xlink:href="#NimbusRomNo9L-Regu-61" transform="matrix(.99626 0 0 .99626 1123.178 0)"/><use xlink:href="#NimbusRomNo9L-Regu-64" transform="matrix(.99626 0 0 .99626 1167.412 0)"/><use xlink:href="#NimbusRomNo9L-Regu-73" transform="matrix(.99626 0 0 .99626 1217.225 0)"/></g><g id="legend_1"><path id="line2d_113" d="M29.414 26.084h16" style="fill:none;stroke:#000;stroke-linecap:square"/><g id="text_15" transform="matrix(.08 0 0 -.08 51.814 28.884)"><defs><path id="NimbusRomNo9L-Regu-43" d="m3968 2906-58 1446h-134c-38-134-141-211-269-211-57 0-153 19-249 58-314 102-634 153-935 153-525 0-1056-198-1453-550-448-397-691-992-691-1696 0-595 192-1146 519-1510 384-416 972-660 1606-660 723 0 1357 295 1747 813l-115 115c-474-454-896-646-1427-646-403 0-762 128-1037 371-352 314-550 890-550 1600 0 1159 595 1907 1523 1907 365 0 697-134 953-390 205-205 301-384 423-800z" transform="scale(.01563)"/><path id="NimbusRomNo9L-Regu-48" d="M1338 2304v1229c0 457 70 526 563 571v120H122v-120c492-45 563-115 563-577V749c0-539-64-615-563-615V0h1779v121c-480 38-563 121-563 578v1323h1939V757c0-546-64-623-563-623V0h1779v121c-480 38-563 121-563 575v2833c0 460 70 530 563 575v120H2714v-120c492-45 563-114 563-571V2304z" transform="scale(.01563)"/></defs><use xlink:href="#NimbusRomNo9L-Regu-43" transform="scale(.99626)"/><use xlink:href="#NimbusRomNo9L-Regu-48" transform="matrix(.99626 0 0 .99626 66.45 0)"/><use xlink:href="#NimbusRomNo9L-Regu-31" transform="matrix(.99626 0 0 .99626 138.38 0)"/></g><path id="line2d_114" d="M29.414 37.41h16" style="fill:none;stroke-dasharray:3.7,1.6;stroke-dashoffset:0;stroke:red"/><g id="text_16" transform="matrix(.08 0 0 -.08 51.814 40.21)"><use xlink:href="#NimbusRomNo9L-Regu-43" transform="scale(.99626)"/><use xlink:href="#NimbusRomNo9L-Regu-48" transform="matrix(.99626 0 0 .99626 66.45 0)"/><use xlink:href="#NimbusRomNo9L-Regu-32" transform="matrix(.99626 0 0 .99626 138.38 0)"/></g></g></g></g><defs><clipPath id="p2c512e2bc0"><path d="M22.214 16.084h184.14v138.6H22.214z"/></clipPath></defs></svg>