<?xml version="1.0" encoding="utf-8" standalone="no"?>
<!DOCTYPE svg PUBLIC "-//W3C//DTD SVG 1.1//EN"
  "http://www.w3.org/Graphics/SVG/1.1/DTD/svg11.dtd">
<svg xmlns:xlink="http://www.w3.org/1999/xlink" width="213.939231pt" height="180.042634pt" viewBox="0 0 213.939231 180.042634" xmlns="http://www.w3.org/2000/svg" version="1.1">
 <metadata>
  <rdf:RDF xmlns:dc="http://purl.org/dc/elements/1.1/" xmlns:cc="http://creativecommons.org/ns#" xmlns:rdf="http://www.w3.org/1999/02/22-rdf-syntax-ns#">
   <cc:Work>
    <dc:type rdf:resource="http://purl.org/dc/dcmitype/StillImage"/>
    <dc:date>2025-02-28T13:26:14.282520</dc:date>
    <dc:format>image/svg+xml</dc:format>
    <dc:creator>
     <cc:Agent>
      <dc:title>Matplotlib v3.9.2, https://matplotlib.org/</dc:title>
     </cc:Agent>
    </dc:creator>
   </cc:Work>
  </rdf:RDF>
 </metadata>
 <defs>
  <style type="text/css">*{stroke-linejoin: round; stroke-linecap: butt}</style>
 </defs>
 <g id="figure_1">
  <g id="patch_1">
   <path d="M 0 180.042634 
L 213.939231 180.042634 
L 213.939231 0 
L 0 0 
L 0 180.042634 
z
" style="fill: none"/>
  </g>
  <g id="axes_1">
   <g id="patch_2">
    <path d="M 26.199231 154.684396 
L 210.339231 154.684396 
L 210.339231 16.084396 
L 26.199231 16.084396 
L 26.199231 154.684396 
z
" style="fill: none"/>
   </g>
   <g id="matplotlib.axis_1">
    <g id="xtick_1">
     <g id="line2d_1">
      <defs>
       <path id="m7706d54b6f" d="M 0 0 
L 0 -3 
" style="stroke: #000000; stroke-width: 0.5"/>
      </defs>
      <g>
       <use xlink:href="#m7706d54b6f" x="51.31593" y="154.684396" style="stroke: #000000; stroke-width: 0.5"/>
      </g>
     </g>
     <g id="line2d_2">
      <defs>
       <path id="m67bf98d59a" d="M 0 0 
L 0 3 
" style="stroke: #000000; stroke-width: 0.5"/>
      </defs>
      <g>
       <use xlink:href="#m67bf98d59a" x="51.31593" y="16.084396" style="stroke: #000000; stroke-width: 0.5"/>
      </g>
     </g>
     <g id="text_1">
      <!-- $\mathdefault{−2000}$ -->
      <g transform="translate(40.249473 163.588052) scale(0.08 -0.08)">
       <defs>
        <path id="CMSY10-0" d="M 4218 1472 
C 4326 1472 4442 1472 4442 1600 
C 4442 1728 4326 1728 4218 1728 
L 755 1728 
C 646 1728 531 1728 531 1600 
C 531 1472 646 1472 755 1472 
L 4218 1472 
z
" transform="scale(0.015625)"/>
        <path id="NimbusRomNo9L-Regu-32" d="M 3040 875 
L 2957 907 
C 2720 544 2637 486 2349 486 
L 819 486 
L 1894 1609 
C 2464 2202 2714 2687 2714 3185 
C 2714 3823 2195 4313 1530 4313 
C 1178 4313 845 4173 608 3918 
C 403 3700 307 3496 198 3043 
L 333 3011 
C 589 3636 819 3840 1261 3840 
C 1798 3840 2163 3476 2163 2940 
C 2163 2443 1869 1850 1331 1282 
L 192 77 
L 192 0 
L 2688 0 
L 3040 875 
z
" transform="scale(0.015625)"/>
        <path id="NimbusRomNo9L-Regu-30" d="M 1626 4352 
C 1274 4352 1005 4244 768 4020 
C 397 3661 154 2925 154 2176 
C 154 1479 365 730 666 372 
C 902 90 1229 -64 1600 -64 
C 1926 -64 2202 45 2432 269 
C 2803 621 3046 1364 3046 2138 
C 3046 3450 2464 4352 1626 4352 
z
M 1606 4186 
C 2144 4186 2432 3463 2432 2125 
C 2432 788 2150 103 1600 103 
C 1050 103 768 788 768 2119 
C 768 3476 1056 4186 1606 4186 
z
" transform="scale(0.015625)"/>
       </defs>
       <use xlink:href="#CMSY10-0" transform="scale(0.996264)"/>
       <use xlink:href="#NimbusRomNo9L-Regu-32" transform="translate(77.408707 0) scale(0.996264)"/>
       <use xlink:href="#NimbusRomNo9L-Regu-30" transform="translate(127.221908 0) scale(0.996264)"/>
       <use xlink:href="#NimbusRomNo9L-Regu-30" transform="translate(177.035108 0) scale(0.996264)"/>
       <use xlink:href="#NimbusRomNo9L-Regu-30" transform="translate(226.848309 0) scale(0.996264)"/>
      </g>
     </g>
    </g>
    <g id="xtick_2">
     <g id="line2d_3">
      <g>
       <use xlink:href="#m7706d54b6f" x="84.809327" y="154.684396" style="stroke: #000000; stroke-width: 0.5"/>
      </g>
     </g>
     <g id="line2d_4">
      <g>
       <use xlink:href="#m67bf98d59a" x="84.809327" y="16.084396" style="stroke: #000000; stroke-width: 0.5"/>
      </g>
     </g>
     <g id="text_2">
      <!-- $\mathdefault{−1000}$ -->
      <g transform="translate(73.74287 163.588052) scale(0.08 -0.08)">
       <defs>
        <path id="NimbusRomNo9L-Regu-31" d="M 1862 4339 
L 710 3757 
L 710 3667 
C 787 3699 858 3725 883 3738 
C 998 3783 1107 3808 1171 3808 
C 1306 3808 1363 3711 1363 3505 
L 1363 592 
C 1363 379 1312 232 1210 173 
C 1114 116 1024 96 755 96 
L 755 0 
L 2522 0 
L 2522 96 
C 2016 96 1914 160 1914 470 
L 1914 4327 
L 1862 4339 
z
" transform="scale(0.015625)"/>
       </defs>
       <use xlink:href="#CMSY10-0" transform="scale(0.996264)"/>
       <use xlink:href="#NimbusRomNo9L-Regu-31" transform="translate(77.408707 0) scale(0.996264)"/>
       <use xlink:href="#NimbusRomNo9L-Regu-30" transform="translate(127.221908 0) scale(0.996264)"/>
       <use xlink:href="#NimbusRomNo9L-Regu-30" transform="translate(177.035108 0) scale(0.996264)"/>
       <use xlink:href="#NimbusRomNo9L-Regu-30" transform="translate(226.848309 0) scale(0.996264)"/>
      </g>
     </g>
    </g>
    <g id="xtick_3">
     <g id="line2d_5">
      <g>
       <use xlink:href="#m7706d54b6f" x="118.302725" y="154.684396" style="stroke: #000000; stroke-width: 0.5"/>
      </g>
     </g>
     <g id="line2d_6">
      <g>
       <use xlink:href="#m67bf98d59a" x="118.302725" y="16.084396" style="stroke: #000000; stroke-width: 0.5"/>
      </g>
     </g>
     <g id="text_3">
      <!-- $\mathdefault{0}$ -->
      <g transform="translate(116.310197 163.588052) scale(0.08 -0.08)">
       <use xlink:href="#NimbusRomNo9L-Regu-30" transform="scale(0.996264)"/>
      </g>
     </g>
    </g>
    <g id="xtick_4">
     <g id="line2d_7">
      <g>
       <use xlink:href="#m7706d54b6f" x="151.796122" y="154.684396" style="stroke: #000000; stroke-width: 0.5"/>
      </g>
     </g>
     <g id="line2d_8">
      <g>
       <use xlink:href="#m67bf98d59a" x="151.796122" y="16.084396" style="stroke: #000000; stroke-width: 0.5"/>
      </g>
     </g>
     <g id="text_4">
      <!-- $\mathdefault{1000}$ -->
      <g transform="translate(143.82601 163.588052) scale(0.08 -0.08)">
       <use xlink:href="#NimbusRomNo9L-Regu-31" transform="scale(0.996264)"/>
       <use xlink:href="#NimbusRomNo9L-Regu-30" transform="translate(49.8132 0) scale(0.996264)"/>
       <use xlink:href="#NimbusRomNo9L-Regu-30" transform="translate(99.626401 0) scale(0.996264)"/>
       <use xlink:href="#NimbusRomNo9L-Regu-30" transform="translate(149.439601 0) scale(0.996264)"/>
      </g>
     </g>
    </g>
    <g id="xtick_5">
     <g id="line2d_9">
      <g>
       <use xlink:href="#m7706d54b6f" x="185.289519" y="154.684396" style="stroke: #000000; stroke-width: 0.5"/>
      </g>
     </g>
     <g id="line2d_10">
      <g>
       <use xlink:href="#m67bf98d59a" x="185.289519" y="16.084396" style="stroke: #000000; stroke-width: 0.5"/>
      </g>
     </g>
     <g id="text_5">
      <!-- $\mathdefault{2000}$ -->
      <g transform="translate(177.319407 163.588052) scale(0.08 -0.08)">
       <use xlink:href="#NimbusRomNo9L-Regu-32" transform="scale(0.996264)"/>
       <use xlink:href="#NimbusRomNo9L-Regu-30" transform="translate(49.8132 0) scale(0.996264)"/>
       <use xlink:href="#NimbusRomNo9L-Regu-30" transform="translate(99.626401 0) scale(0.996264)"/>
       <use xlink:href="#NimbusRomNo9L-Regu-30" transform="translate(149.439601 0) scale(0.996264)"/>
      </g>
     </g>
    </g>
    <g id="xtick_6">
     <g id="line2d_11">
      <defs>
       <path id="mb545c1ad7c" d="M 0 0 
L 0 -1.5 
" style="stroke: #000000; stroke-width: 0.5"/>
      </defs>
      <g>
       <use xlink:href="#mb545c1ad7c" x="31.219891" y="154.684396" style="stroke: #000000; stroke-width: 0.5"/>
      </g>
     </g>
     <g id="line2d_12">
      <defs>
       <path id="m36b23d190d" d="M 0 0 
L 0 1.5 
" style="stroke: #000000; stroke-width: 0.5"/>
      </defs>
      <g>
       <use xlink:href="#m36b23d190d" x="31.219891" y="16.084396" style="stroke: #000000; stroke-width: 0.5"/>
      </g>
     </g>
    </g>
    <g id="xtick_7">
     <g id="line2d_13">
      <g>
       <use xlink:href="#mb545c1ad7c" x="37.918571" y="154.684396" style="stroke: #000000; stroke-width: 0.5"/>
      </g>
     </g>
     <g id="line2d_14">
      <g>
       <use xlink:href="#m36b23d190d" x="37.918571" y="16.084396" style="stroke: #000000; stroke-width: 0.5"/>
      </g>
     </g>
    </g>
    <g id="xtick_8">
     <g id="line2d_15">
      <g>
       <use xlink:href="#mb545c1ad7c" x="44.61725" y="154.684396" style="stroke: #000000; stroke-width: 0.5"/>
      </g>
     </g>
     <g id="line2d_16">
      <g>
       <use xlink:href="#m36b23d190d" x="44.61725" y="16.084396" style="stroke: #000000; stroke-width: 0.5"/>
      </g>
     </g>
    </g>
    <g id="xtick_9">
     <g id="line2d_17">
      <g>
       <use xlink:href="#mb545c1ad7c" x="58.014609" y="154.684396" style="stroke: #000000; stroke-width: 0.5"/>
      </g>
     </g>
     <g id="line2d_18">
      <g>
       <use xlink:href="#m36b23d190d" x="58.014609" y="16.084396" style="stroke: #000000; stroke-width: 0.5"/>
      </g>
     </g>
    </g>
    <g id="xtick_10">
     <g id="line2d_19">
      <g>
       <use xlink:href="#mb545c1ad7c" x="64.713289" y="154.684396" style="stroke: #000000; stroke-width: 0.5"/>
      </g>
     </g>
     <g id="line2d_20">
      <g>
       <use xlink:href="#m36b23d190d" x="64.713289" y="16.084396" style="stroke: #000000; stroke-width: 0.5"/>
      </g>
     </g>
    </g>
    <g id="xtick_11">
     <g id="line2d_21">
      <g>
       <use xlink:href="#mb545c1ad7c" x="71.411968" y="154.684396" style="stroke: #000000; stroke-width: 0.5"/>
      </g>
     </g>
     <g id="line2d_22">
      <g>
       <use xlink:href="#m36b23d190d" x="71.411968" y="16.084396" style="stroke: #000000; stroke-width: 0.5"/>
      </g>
     </g>
    </g>
    <g id="xtick_12">
     <g id="line2d_23">
      <g>
       <use xlink:href="#mb545c1ad7c" x="78.110648" y="154.684396" style="stroke: #000000; stroke-width: 0.5"/>
      </g>
     </g>
     <g id="line2d_24">
      <g>
       <use xlink:href="#m36b23d190d" x="78.110648" y="16.084396" style="stroke: #000000; stroke-width: 0.5"/>
      </g>
     </g>
    </g>
    <g id="xtick_13">
     <g id="line2d_25">
      <g>
       <use xlink:href="#mb545c1ad7c" x="91.508007" y="154.684396" style="stroke: #000000; stroke-width: 0.5"/>
      </g>
     </g>
     <g id="line2d_26">
      <g>
       <use xlink:href="#m36b23d190d" x="91.508007" y="16.084396" style="stroke: #000000; stroke-width: 0.5"/>
      </g>
     </g>
    </g>
    <g id="xtick_14">
     <g id="line2d_27">
      <g>
       <use xlink:href="#mb545c1ad7c" x="98.206686" y="154.684396" style="stroke: #000000; stroke-width: 0.5"/>
      </g>
     </g>
     <g id="line2d_28">
      <g>
       <use xlink:href="#m36b23d190d" x="98.206686" y="16.084396" style="stroke: #000000; stroke-width: 0.5"/>
      </g>
     </g>
    </g>
    <g id="xtick_15">
     <g id="line2d_29">
      <g>
       <use xlink:href="#mb545c1ad7c" x="104.905366" y="154.684396" style="stroke: #000000; stroke-width: 0.5"/>
      </g>
     </g>
     <g id="line2d_30">
      <g>
       <use xlink:href="#m36b23d190d" x="104.905366" y="16.084396" style="stroke: #000000; stroke-width: 0.5"/>
      </g>
     </g>
    </g>
    <g id="xtick_16">
     <g id="line2d_31">
      <g>
       <use xlink:href="#mb545c1ad7c" x="111.604045" y="154.684396" style="stroke: #000000; stroke-width: 0.5"/>
      </g>
     </g>
     <g id="line2d_32">
      <g>
       <use xlink:href="#m36b23d190d" x="111.604045" y="16.084396" style="stroke: #000000; stroke-width: 0.5"/>
      </g>
     </g>
    </g>
    <g id="xtick_17">
     <g id="line2d_33">
      <g>
       <use xlink:href="#mb545c1ad7c" x="125.001404" y="154.684396" style="stroke: #000000; stroke-width: 0.5"/>
      </g>
     </g>
     <g id="line2d_34">
      <g>
       <use xlink:href="#m36b23d190d" x="125.001404" y="16.084396" style="stroke: #000000; stroke-width: 0.5"/>
      </g>
     </g>
    </g>
    <g id="xtick_18">
     <g id="line2d_35">
      <g>
       <use xlink:href="#mb545c1ad7c" x="131.700083" y="154.684396" style="stroke: #000000; stroke-width: 0.5"/>
      </g>
     </g>
     <g id="line2d_36">
      <g>
       <use xlink:href="#m36b23d190d" x="131.700083" y="16.084396" style="stroke: #000000; stroke-width: 0.5"/>
      </g>
     </g>
    </g>
    <g id="xtick_19">
     <g id="line2d_37">
      <g>
       <use xlink:href="#mb545c1ad7c" x="138.398763" y="154.684396" style="stroke: #000000; stroke-width: 0.5"/>
      </g>
     </g>
     <g id="line2d_38">
      <g>
       <use xlink:href="#m36b23d190d" x="138.398763" y="16.084396" style="stroke: #000000; stroke-width: 0.5"/>
      </g>
     </g>
    </g>
    <g id="xtick_20">
     <g id="line2d_39">
      <g>
       <use xlink:href="#mb545c1ad7c" x="145.097442" y="154.684396" style="stroke: #000000; stroke-width: 0.5"/>
      </g>
     </g>
     <g id="line2d_40">
      <g>
       <use xlink:href="#m36b23d190d" x="145.097442" y="16.084396" style="stroke: #000000; stroke-width: 0.5"/>
      </g>
     </g>
    </g>
    <g id="xtick_21">
     <g id="line2d_41">
      <g>
       <use xlink:href="#mb545c1ad7c" x="158.494801" y="154.684396" style="stroke: #000000; stroke-width: 0.5"/>
      </g>
     </g>
     <g id="line2d_42">
      <g>
       <use xlink:href="#m36b23d190d" x="158.494801" y="16.084396" style="stroke: #000000; stroke-width: 0.5"/>
      </g>
     </g>
    </g>
    <g id="xtick_22">
     <g id="line2d_43">
      <g>
       <use xlink:href="#mb545c1ad7c" x="165.193481" y="154.684396" style="stroke: #000000; stroke-width: 0.5"/>
      </g>
     </g>
     <g id="line2d_44">
      <g>
       <use xlink:href="#m36b23d190d" x="165.193481" y="16.084396" style="stroke: #000000; stroke-width: 0.5"/>
      </g>
     </g>
    </g>
    <g id="xtick_23">
     <g id="line2d_45">
      <g>
       <use xlink:href="#mb545c1ad7c" x="171.89216" y="154.684396" style="stroke: #000000; stroke-width: 0.5"/>
      </g>
     </g>
     <g id="line2d_46">
      <g>
       <use xlink:href="#m36b23d190d" x="171.89216" y="16.084396" style="stroke: #000000; stroke-width: 0.5"/>
      </g>
     </g>
    </g>
    <g id="xtick_24">
     <g id="line2d_47">
      <g>
       <use xlink:href="#mb545c1ad7c" x="178.59084" y="154.684396" style="stroke: #000000; stroke-width: 0.5"/>
      </g>
     </g>
     <g id="line2d_48">
      <g>
       <use xlink:href="#m36b23d190d" x="178.59084" y="16.084396" style="stroke: #000000; stroke-width: 0.5"/>
      </g>
     </g>
    </g>
    <g id="xtick_25">
     <g id="line2d_49">
      <g>
       <use xlink:href="#mb545c1ad7c" x="191.988199" y="154.684396" style="stroke: #000000; stroke-width: 0.5"/>
      </g>
     </g>
     <g id="line2d_50">
      <g>
       <use xlink:href="#m36b23d190d" x="191.988199" y="16.084396" style="stroke: #000000; stroke-width: 0.5"/>
      </g>
     </g>
    </g>
    <g id="xtick_26">
     <g id="line2d_51">
      <g>
       <use xlink:href="#mb545c1ad7c" x="198.686878" y="154.684396" style="stroke: #000000; stroke-width: 0.5"/>
      </g>
     </g>
     <g id="line2d_52">
      <g>
       <use xlink:href="#m36b23d190d" x="198.686878" y="16.084396" style="stroke: #000000; stroke-width: 0.5"/>
      </g>
     </g>
    </g>
    <g id="xtick_27">
     <g id="line2d_53">
      <g>
       <use xlink:href="#mb545c1ad7c" x="205.385558" y="154.684396" style="stroke: #000000; stroke-width: 0.5"/>
      </g>
     </g>
     <g id="line2d_54">
      <g>
       <use xlink:href="#m36b23d190d" x="205.385558" y="16.084396" style="stroke: #000000; stroke-width: 0.5"/>
      </g>
     </g>
    </g>
    <g id="text_6">
     <!-- ns -->
     <g transform="translate(114.726555 174.717171) scale(0.08 -0.08)">
      <defs>
       <path id="NimbusRomNo9L-Regu-6e" d="M 102 2579 
C 141 2598 205 2605 275 2605 
C 454 2605 512 2509 512 2195 
L 512 608 
C 512 243 442 154 115 128 
L 115 32 
L 1472 32 
L 1472 128 
C 1146 154 1050 230 1050 461 
L 1050 2259 
C 1357 2547 1498 2624 1709 2624 
C 2022 2624 2176 2426 2176 2003 
L 2176 666 
C 2176 262 2093 154 1773 128 
L 1773 32 
L 3104 32 
L 3104 128 
C 2790 160 2714 237 2714 550 
L 2714 2016 
C 2714 2618 2432 2976 1958 2976 
C 1664 2976 1466 2867 1030 2458 
L 1030 2963 
L 986 2976 
C 672 2861 454 2790 102 2688 
L 102 2579 
z
" transform="scale(0.015625)"/>
       <path id="NimbusRomNo9L-Regu-73" d="M 2016 2010 
L 1990 2880 
L 1920 2880 
L 1907 2867 
C 1850 2822 1843 2816 1818 2816 
C 1779 2816 1715 2829 1645 2861 
C 1504 2915 1363 2944 1197 2944 
C 691 2944 326 2616 326 2154 
C 326 1796 531 1539 1075 1231 
L 1446 1020 
C 1670 892 1779 737 1779 539 
C 1779 256 1574 77 1248 77 
C 1030 77 832 159 710 298 
C 576 455 518 600 435 960 
L 333 960 
L 333 -39 
L 416 -39 
C 461 33 486 48 563 48 
C 621 48 710 35 858 -2 
C 1037 -39 1210 -64 1325 -64 
C 1818 -64 2227 308 2227 757 
C 2227 1077 2074 1289 1690 1520 
L 998 1930 
C 819 2033 723 2194 723 2367 
C 723 2624 922 2803 1216 2803 
C 1581 2803 1773 2583 1920 2010 
L 2016 2010 
z
" transform="scale(0.015625)"/>
      </defs>
      <use xlink:href="#NimbusRomNo9L-Regu-6e" transform="scale(0.996264)"/>
      <use xlink:href="#NimbusRomNo9L-Regu-73" transform="translate(49.8132 0) scale(0.996264)"/>
     </g>
    </g>
   </g>
   <g id="matplotlib.axis_2">
    <g id="ytick_1">
     <g id="line2d_55">
      <defs>
       <path id="m110083fb7e" d="M 0 0 
L 3 0 
" style="stroke: #000000; stroke-width: 0.5"/>
      </defs>
      <g>
       <use xlink:href="#m110083fb7e" x="26.199231" y="145.542291" style="stroke: #000000; stroke-width: 0.5"/>
      </g>
     </g>
     <g id="line2d_56">
      <defs>
       <path id="m03e2a27b7c" d="M 0 0 
L -3 0 
" style="stroke: #000000; stroke-width: 0.5"/>
      </defs>
      <g>
       <use xlink:href="#m03e2a27b7c" x="210.339231" y="145.542291" style="stroke: #000000; stroke-width: 0.5"/>
      </g>
     </g>
     <g id="text_7">
      <!-- $\mathdefault{0}$ -->
      <g transform="translate(18.714175 148.244119) scale(0.08 -0.08)">
       <use xlink:href="#NimbusRomNo9L-Regu-30" transform="scale(0.996264)"/>
      </g>
     </g>
    </g>
    <g id="ytick_2">
     <g id="line2d_57">
      <g>
       <use xlink:href="#m110083fb7e" x="26.199231" y="121.85808" style="stroke: #000000; stroke-width: 0.5"/>
      </g>
     </g>
     <g id="line2d_58">
      <g>
       <use xlink:href="#m03e2a27b7c" x="210.339231" y="121.85808" style="stroke: #000000; stroke-width: 0.5"/>
      </g>
     </g>
     <g id="text_8">
      <!-- $\mathdefault{2}$ -->
      <g transform="translate(18.714175 124.559908) scale(0.08 -0.08)">
       <use xlink:href="#NimbusRomNo9L-Regu-32" transform="scale(0.996264)"/>
      </g>
     </g>
    </g>
    <g id="ytick_3">
     <g id="line2d_59">
      <g>
       <use xlink:href="#m110083fb7e" x="26.199231" y="98.17387" style="stroke: #000000; stroke-width: 0.5"/>
      </g>
     </g>
     <g id="line2d_60">
      <g>
       <use xlink:href="#m03e2a27b7c" x="210.339231" y="98.17387" style="stroke: #000000; stroke-width: 0.5"/>
      </g>
     </g>
     <g id="text_9">
      <!-- $\mathdefault{4}$ -->
      <g transform="translate(18.714175 100.875698) scale(0.08 -0.08)">
       <defs>
        <path id="NimbusRomNo9L-Regu-34" d="M 3021 1497 
L 2368 1497 
L 2368 4352 
L 2086 4352 
L 77 1497 
L 77 1088 
L 1875 1088 
L 1875 32 
L 2368 32 
L 2368 1088 
L 3021 1088 
L 3021 1497 
z
M 1869 1497 
L 333 1497 
L 1869 3698 
L 1869 1497 
z
" transform="scale(0.015625)"/>
       </defs>
       <use xlink:href="#NimbusRomNo9L-Regu-34" transform="scale(0.996264)"/>
      </g>
     </g>
    </g>
    <g id="ytick_4">
     <g id="line2d_61">
      <g>
       <use xlink:href="#m110083fb7e" x="26.199231" y="74.489659" style="stroke: #000000; stroke-width: 0.5"/>
      </g>
     </g>
     <g id="line2d_62">
      <g>
       <use xlink:href="#m03e2a27b7c" x="210.339231" y="74.489659" style="stroke: #000000; stroke-width: 0.5"/>
      </g>
     </g>
     <g id="text_10">
      <!-- $\mathdefault{6}$ -->
      <g transform="translate(18.714175 77.191487) scale(0.08 -0.08)">
       <defs>
        <path id="NimbusRomNo9L-Regu-36" d="M 2854 4391 
C 2125 4327 1754 4205 1286 3879 
C 595 3386 218 2656 218 1802 
C 218 1248 390 688 666 370 
C 909 89 1254 -64 1651 -64 
C 2445 -64 2995 541 2995 1421 
C 2995 2236 2528 2752 1792 2752 
C 1510 2752 1376 2707 973 2464 
C 1146 3431 1862 4122 2867 4288 
L 2854 4391 
z
M 1549 2458 
C 2099 2458 2419 2000 2419 1204 
C 2419 504 2170 116 1722 116 
C 1158 116 813 714 813 1700 
C 813 2025 864 2203 992 2299 
C 1126 2400 1325 2458 1549 2458 
z
" transform="scale(0.015625)"/>
       </defs>
       <use xlink:href="#NimbusRomNo9L-Regu-36" transform="scale(0.996264)"/>
      </g>
     </g>
    </g>
    <g id="ytick_5">
     <g id="line2d_63">
      <g>
       <use xlink:href="#m110083fb7e" x="26.199231" y="50.805449" style="stroke: #000000; stroke-width: 0.5"/>
      </g>
     </g>
     <g id="line2d_64">
      <g>
       <use xlink:href="#m03e2a27b7c" x="210.339231" y="50.805449" style="stroke: #000000; stroke-width: 0.5"/>
      </g>
     </g>
     <g id="text_11">
      <!-- $\mathdefault{8}$ -->
      <g transform="translate(18.714175 53.507277) scale(0.08 -0.08)">
       <defs>
        <path id="NimbusRomNo9L-Regu-38" d="M 1856 2400 
C 2490 2740 2714 3008 2714 3444 
C 2714 3968 2253 4352 1613 4352 
C 915 4352 397 3924 397 3341 
C 397 2925 518 2740 1190 2151 
C 499 1626 358 1428 358 992 
C 358 372 864 -64 1587 -64 
C 2355 -64 2848 359 2848 1018 
C 2848 1511 2630 1824 1856 2400 
z
M 1741 1741 
C 2208 1408 2362 1178 2362 820 
C 2362 404 2074 116 1658 116 
C 1171 116 845 487 845 1044 
C 845 1453 986 1722 1357 2023 
L 1741 1741 
z
M 1670 2516 
C 1101 2887 870 3181 870 3540 
C 870 3911 1158 4173 1562 4173 
C 1997 4173 2272 3892 2272 3450 
C 2272 3085 2093 2797 1728 2554 
C 1696 2535 1696 2535 1670 2516 
z
" transform="scale(0.015625)"/>
       </defs>
       <use xlink:href="#NimbusRomNo9L-Regu-38" transform="scale(0.996264)"/>
      </g>
     </g>
    </g>
    <g id="ytick_6">
     <g id="line2d_65">
      <g>
       <use xlink:href="#m110083fb7e" x="26.199231" y="27.121238" style="stroke: #000000; stroke-width: 0.5"/>
      </g>
     </g>
     <g id="line2d_66">
      <g>
       <use xlink:href="#m03e2a27b7c" x="210.339231" y="27.121238" style="stroke: #000000; stroke-width: 0.5"/>
      </g>
     </g>
     <g id="text_12">
      <!-- $\mathdefault{10}$ -->
      <g transform="translate(14.729119 29.823066) scale(0.08 -0.08)">
       <use xlink:href="#NimbusRomNo9L-Regu-31" transform="scale(0.996264)"/>
       <use xlink:href="#NimbusRomNo9L-Regu-30" transform="translate(49.8132 0) scale(0.996264)"/>
      </g>
     </g>
    </g>
    <g id="ytick_7">
     <g id="line2d_67">
      <defs>
       <path id="ma0af255cbb" d="M 0 0 
L 1.5 0 
" style="stroke: #000000; stroke-width: 0.5"/>
      </defs>
      <g>
       <use xlink:href="#ma0af255cbb" x="26.199231" y="151.463344" style="stroke: #000000; stroke-width: 0.5"/>
      </g>
     </g>
     <g id="line2d_68">
      <defs>
       <path id="m1cc5776df0" d="M 0 0 
L -1.5 0 
" style="stroke: #000000; stroke-width: 0.5"/>
      </defs>
      <g>
       <use xlink:href="#m1cc5776df0" x="210.339231" y="151.463344" style="stroke: #000000; stroke-width: 0.5"/>
      </g>
     </g>
    </g>
    <g id="ytick_8">
     <g id="line2d_69">
      <g>
       <use xlink:href="#ma0af255cbb" x="26.199231" y="139.621238" style="stroke: #000000; stroke-width: 0.5"/>
      </g>
     </g>
     <g id="line2d_70">
      <g>
       <use xlink:href="#m1cc5776df0" x="210.339231" y="139.621238" style="stroke: #000000; stroke-width: 0.5"/>
      </g>
     </g>
    </g>
    <g id="ytick_9">
     <g id="line2d_71">
      <g>
       <use xlink:href="#ma0af255cbb" x="26.199231" y="133.700186" style="stroke: #000000; stroke-width: 0.5"/>
      </g>
     </g>
     <g id="line2d_72">
      <g>
       <use xlink:href="#m1cc5776df0" x="210.339231" y="133.700186" style="stroke: #000000; stroke-width: 0.5"/>
      </g>
     </g>
    </g>
    <g id="ytick_10">
     <g id="line2d_73">
      <g>
       <use xlink:href="#ma0af255cbb" x="26.199231" y="127.779133" style="stroke: #000000; stroke-width: 0.5"/>
      </g>
     </g>
     <g id="line2d_74">
      <g>
       <use xlink:href="#m1cc5776df0" x="210.339231" y="127.779133" style="stroke: #000000; stroke-width: 0.5"/>
      </g>
     </g>
    </g>
    <g id="ytick_11">
     <g id="line2d_75">
      <g>
       <use xlink:href="#ma0af255cbb" x="26.199231" y="115.937028" style="stroke: #000000; stroke-width: 0.5"/>
      </g>
     </g>
     <g id="line2d_76">
      <g>
       <use xlink:href="#m1cc5776df0" x="210.339231" y="115.937028" style="stroke: #000000; stroke-width: 0.5"/>
      </g>
     </g>
    </g>
    <g id="ytick_12">
     <g id="line2d_77">
      <g>
       <use xlink:href="#ma0af255cbb" x="26.199231" y="110.015975" style="stroke: #000000; stroke-width: 0.5"/>
      </g>
     </g>
     <g id="line2d_78">
      <g>
       <use xlink:href="#m1cc5776df0" x="210.339231" y="110.015975" style="stroke: #000000; stroke-width: 0.5"/>
      </g>
     </g>
    </g>
    <g id="ytick_13">
     <g id="line2d_79">
      <g>
       <use xlink:href="#ma0af255cbb" x="26.199231" y="104.094923" style="stroke: #000000; stroke-width: 0.5"/>
      </g>
     </g>
     <g id="line2d_80">
      <g>
       <use xlink:href="#m1cc5776df0" x="210.339231" y="104.094923" style="stroke: #000000; stroke-width: 0.5"/>
      </g>
     </g>
    </g>
    <g id="ytick_14">
     <g id="line2d_81">
      <g>
       <use xlink:href="#ma0af255cbb" x="26.199231" y="92.252817" style="stroke: #000000; stroke-width: 0.5"/>
      </g>
     </g>
     <g id="line2d_82">
      <g>
       <use xlink:href="#m1cc5776df0" x="210.339231" y="92.252817" style="stroke: #000000; stroke-width: 0.5"/>
      </g>
     </g>
    </g>
    <g id="ytick_15">
     <g id="line2d_83">
      <g>
       <use xlink:href="#ma0af255cbb" x="26.199231" y="86.331765" style="stroke: #000000; stroke-width: 0.5"/>
      </g>
     </g>
     <g id="line2d_84">
      <g>
       <use xlink:href="#m1cc5776df0" x="210.339231" y="86.331765" style="stroke: #000000; stroke-width: 0.5"/>
      </g>
     </g>
    </g>
    <g id="ytick_16">
     <g id="line2d_85">
      <g>
       <use xlink:href="#ma0af255cbb" x="26.199231" y="80.410712" style="stroke: #000000; stroke-width: 0.5"/>
      </g>
     </g>
     <g id="line2d_86">
      <g>
       <use xlink:href="#m1cc5776df0" x="210.339231" y="80.410712" style="stroke: #000000; stroke-width: 0.5"/>
      </g>
     </g>
    </g>
    <g id="ytick_17">
     <g id="line2d_87">
      <g>
       <use xlink:href="#ma0af255cbb" x="26.199231" y="68.568607" style="stroke: #000000; stroke-width: 0.5"/>
      </g>
     </g>
     <g id="line2d_88">
      <g>
       <use xlink:href="#m1cc5776df0" x="210.339231" y="68.568607" style="stroke: #000000; stroke-width: 0.5"/>
      </g>
     </g>
    </g>
    <g id="ytick_18">
     <g id="line2d_89">
      <g>
       <use xlink:href="#ma0af255cbb" x="26.199231" y="62.647554" style="stroke: #000000; stroke-width: 0.5"/>
      </g>
     </g>
     <g id="line2d_90">
      <g>
       <use xlink:href="#m1cc5776df0" x="210.339231" y="62.647554" style="stroke: #000000; stroke-width: 0.5"/>
      </g>
     </g>
    </g>
    <g id="ytick_19">
     <g id="line2d_91">
      <g>
       <use xlink:href="#ma0af255cbb" x="26.199231" y="56.726502" style="stroke: #000000; stroke-width: 0.5"/>
      </g>
     </g>
     <g id="line2d_92">
      <g>
       <use xlink:href="#m1cc5776df0" x="210.339231" y="56.726502" style="stroke: #000000; stroke-width: 0.5"/>
      </g>
     </g>
    </g>
    <g id="ytick_20">
     <g id="line2d_93">
      <g>
       <use xlink:href="#ma0af255cbb" x="26.199231" y="44.884396" style="stroke: #000000; stroke-width: 0.5"/>
      </g>
     </g>
     <g id="line2d_94">
      <g>
       <use xlink:href="#m1cc5776df0" x="210.339231" y="44.884396" style="stroke: #000000; stroke-width: 0.5"/>
      </g>
     </g>
    </g>
    <g id="ytick_21">
     <g id="line2d_95">
      <g>
       <use xlink:href="#ma0af255cbb" x="26.199231" y="38.963344" style="stroke: #000000; stroke-width: 0.5"/>
      </g>
     </g>
     <g id="line2d_96">
      <g>
       <use xlink:href="#m1cc5776df0" x="210.339231" y="38.963344" style="stroke: #000000; stroke-width: 0.5"/>
      </g>
     </g>
    </g>
    <g id="ytick_22">
     <g id="line2d_97">
      <g>
       <use xlink:href="#ma0af255cbb" x="26.199231" y="33.042291" style="stroke: #000000; stroke-width: 0.5"/>
      </g>
     </g>
     <g id="line2d_98">
      <g>
       <use xlink:href="#m1cc5776df0" x="210.339231" y="33.042291" style="stroke: #000000; stroke-width: 0.5"/>
      </g>
     </g>
    </g>
    <g id="ytick_23">
     <g id="line2d_99">
      <g>
       <use xlink:href="#ma0af255cbb" x="26.199231" y="21.200186" style="stroke: #000000; stroke-width: 0.5"/>
      </g>
     </g>
     <g id="line2d_100">
      <g>
       <use xlink:href="#m1cc5776df0" x="210.339231" y="21.200186" style="stroke: #000000; stroke-width: 0.5"/>
      </g>
     </g>
    </g>
    <g id="text_13">
     <!-- V -->
     <g transform="translate(9.003656 88.261592) rotate(-90) scale(0.08 -0.08)">
      <defs>
       <path id="NimbusRomNo9L-Regu-56" d="M 4461 4231 
L 3149 4231 
L 3149 4096 
C 3501 4096 3616 4026 3616 3846 
C 3616 3744 3571 3572 3494 3380 
L 2554 1033 
L 1587 3199 
C 1376 3667 1325 3814 1325 3910 
C 1325 4032 1414 4096 1619 4096 
C 1645 4096 1715 4096 1805 4109 
L 1805 4231 
L 102 4231 
L 102 4096 
C 416 4096 506 4007 781 3439 
L 2355 -64 
L 2451 -64 
L 3872 3521 
C 4083 4026 4154 4096 4461 4096 
L 4461 4231 
z
" transform="scale(0.015625)"/>
      </defs>
      <use xlink:href="#NimbusRomNo9L-Regu-56" transform="scale(0.996264)"/>
     </g>
    </g>
   </g>
   <g id="line2d_101">
    <path d="M 34.569231 146.489659 
L 34.770192 146.489659 
L 34.904165 147.437028 
L 34.971152 147.437028 
L 35.038139 148.384396 
L 35.172112 147.437028 
L 35.239099 147.437028 
L 35.373073 146.489659 
L 35.774993 146.489659 
L 35.908967 145.542291 
L 36.109927 145.542291 
L 36.243901 146.489659 
L 36.444861 146.489659 
L 36.578835 145.542291 
L 36.645822 145.542291 
L 36.779795 146.489659 
L 36.980756 146.489659 
L 37.114729 147.437028 
L 37.181716 147.437028 
L 37.248703 148.384396 
L 37.382677 147.437028 
L 37.717611 147.437028 
L 37.918571 145.542291 
L 37.985558 145.542291 
L 38.119531 146.489659 
L 38.588439 146.489659 
L 38.655426 145.542291 
L 38.789399 146.489659 
L 39.593241 146.489659 
L 39.727214 145.542291 
L 39.794201 145.542291 
L 39.928175 146.489659 
L 40.464069 146.489659 
L 40.598043 145.542291 
L 40.665029 145.542291 
L 40.799003 146.489659 
L 40.86599 146.489659 
L 40.932977 147.437028 
L 41.06695 146.489659 
L 42.54066 146.489659 
L 42.607647 147.437028 
L 42.875594 144.594923 
L 43.076554 146.489659 
L 43.277514 146.489659 
L 43.411488 145.542291 
L 43.478475 145.542291 
L 43.679435 147.437028 
L 44.61725 147.437028 
L 44.818211 145.542291 
L 44.952184 146.489659 
L 45.689039 146.489659 
L 45.823013 147.437028 
L 46.023973 147.437028 
L 46.09096 148.384396 
L 46.358907 145.542291 
L 46.492881 145.542291 
L 46.626854 146.489659 
L 46.827815 146.489659 
L 47.028775 144.594923 
L 47.229735 146.489659 
L 47.497683 146.489659 
L 47.631656 145.542291 
L 47.698643 145.542291 
L 47.832617 146.489659 
L 47.96659 146.489659 
L 48.033577 145.542291 
L 48.16755 146.489659 
L 49.84222 146.489659 
L 49.976194 145.542291 
L 50.512088 145.542291 
L 50.646062 146.489659 
L 51.51689 146.489659 
L 51.650864 145.542291 
L 51.717851 145.542291 
L 51.851824 146.489659 
L 51.985798 146.489659 
L 52.052785 145.542291 
L 52.186758 146.489659 
L 52.320732 146.489659 
L 52.387719 145.542291 
L 52.521692 146.489659 
L 52.655666 146.489659 
L 52.722653 145.542291 
L 52.856626 146.489659 
L 52.9906 146.489659 
L 53.124573 145.542291 
L 53.19156 145.542291 
L 53.325534 146.489659 
L 54.062388 146.489659 
L 54.196362 147.437028 
L 54.330336 147.437028 
L 54.464309 146.489659 
L 54.531296 146.489659 
L 54.66527 145.542291 
L 54.86623 145.542291 
L 55.000204 146.489659 
L 55.402124 146.489659 
L 55.536098 147.437028 
L 55.603085 147.437028 
L 55.670071 148.384396 
L 55.804045 147.437028 
L 55.871032 147.437028 
L 56.005005 146.489659 
L 56.071992 146.489659 
L 56.272953 148.384396 
L 56.339939 148.384396 
L 56.607887 145.542291 
L 56.74186 146.489659 
L 56.875834 146.489659 
L 57.009807 145.542291 
L 57.076794 145.542291 
L 57.210768 146.489659 
L 58.014609 146.489659 
L 58.148583 145.542291 
L 58.349543 145.542291 
L 58.41653 144.594923 
L 58.550504 145.542291 
L 58.61749 145.542291 
L 58.684477 146.489659 
L 58.885438 144.594923 
L 59.153385 147.437028 
L 59.354345 147.437028 
L 59.555306 145.542291 
L 59.756266 147.437028 
L 59.89024 147.437028 
L 60.0912 145.542291 
L 60.225174 146.489659 
L 60.359147 146.489659 
L 60.426134 145.542291 
L 60.560108 146.489659 
L 60.627094 146.489659 
L 60.694081 147.437028 
L 60.828055 146.489659 
L 61.096002 146.489659 
L 61.162989 147.437028 
L 61.296962 146.489659 
L 61.363949 146.489659 
L 61.430936 145.542291 
L 61.631896 147.437028 
L 61.899843 147.437028 
L 62.033817 146.489659 
L 62.703685 146.489659 
L 62.837659 145.542291 
L 62.904645 145.542291 
L 63.038619 146.489659 
L 64.043421 146.489659 
L 64.110408 145.542291 
L 64.311368 147.437028 
L 64.579315 147.437028 
L 64.713289 146.489659 
L 65.11521 146.489659 
L 65.31617 148.384396 
L 65.383157 148.384396 
L 65.651104 145.542291 
L 65.852064 147.437028 
L 65.986038 146.489659 
L 66.053025 146.489659 
L 66.120011 145.542291 
L 66.253985 146.489659 
L 67.727695 146.489659 
L 67.794681 145.542291 
L 67.928655 146.489659 
L 68.062629 146.489659 
L 68.129615 145.542291 
L 68.263589 146.489659 
L 68.397562 146.489659 
L 68.598523 144.594923 
L 68.732496 145.542291 
L 68.933457 145.542291 
L 69.06743 146.489659 
L 69.469351 146.489659 
L 69.536338 147.437028 
L 69.670312 146.489659 
L 69.737298 146.489659 
L 69.804285 145.542291 
L 69.938259 146.489659 
L 70.072232 146.489659 
L 70.206206 145.542291 
L 70.273193 145.542291 
L 70.407166 146.489659 
L 71.411968 146.489659 
L 71.545942 145.542291 
L 71.813889 145.542291 
L 71.947863 146.489659 
L 72.081836 146.489659 
L 72.148823 145.542291 
L 72.282797 146.489659 
L 72.41677 146.489659 
L 72.550744 145.542291 
L 72.617731 145.542291 
L 72.751704 146.489659 
L 72.952665 146.489659 
L 73.153625 144.594923 
L 73.287599 145.542291 
L 73.421572 145.542291 
L 73.488559 144.594923 
L 73.689519 146.489659 
L 73.957466 146.489659 
L 74.09144 145.542291 
L 74.962268 145.542291 
L 75.029255 144.594923 
L 75.230216 146.489659 
L 75.431176 146.489659 
L 75.498163 145.542291 
L 75.632136 146.489659 
L 75.699123 146.489659 
L 75.76611 147.437028 
L 75.900083 146.489659 
L 76.168031 146.489659 
L 76.235017 147.437028 
L 76.368991 146.489659 
L 76.435978 146.489659 
L 76.569951 145.542291 
L 76.636938 145.542291 
L 76.770912 146.489659 
L 77.172833 146.489659 
L 77.239819 147.437028 
L 77.373793 146.489659 
L 77.44078 146.489659 
L 77.507767 145.542291 
L 77.64174 146.489659 
L 77.708727 146.489659 
L 77.775714 147.437028 
L 77.909687 146.489659 
L 77.976674 146.489659 
L 78.043661 145.542291 
L 78.244621 147.437028 
L 78.445582 147.437028 
L 78.579555 146.489659 
L 78.646542 146.489659 
L 78.780516 147.437028 
L 78.981476 147.437028 
L 79.11545 146.489659 
L 79.51737 146.489659 
L 79.584357 147.437028 
L 79.718331 146.489659 
L 79.785318 146.489659 
L 79.919291 145.542291 
L 80.187238 145.542291 
L 80.321212 146.489659 
L 80.455186 146.489659 
L 80.589159 145.542291 
L 80.656146 145.542291 
L 80.79012 146.489659 
L 80.857106 146.489659 
L 80.924093 147.437028 
L 81.058067 146.489659 
L 81.125053 146.489659 
L 81.19204 145.542291 
L 81.326014 146.489659 
L 81.794921 146.489659 
L 81.861908 145.542291 
L 81.995882 146.489659 
L 82.129855 146.489659 
L 82.263829 145.542291 
L 82.330816 145.542291 
L 82.464789 146.489659 
L 82.531776 146.489659 
L 82.598763 147.437028 
L 82.732737 146.489659 
L 82.799723 146.489659 
L 82.933697 145.542291 
L 83.201644 145.542291 
L 83.335618 146.489659 
L 83.804525 146.489659 
L 83.871512 145.542291 
L 84.005486 146.489659 
L 85.680156 146.489659 
L 85.814129 145.542291 
L 85.881116 145.542291 
L 86.015089 146.489659 
L 86.149063 146.489659 
L 86.283037 145.542291 
L 86.350023 145.542291 
L 86.617971 148.384396 
L 86.684957 148.384396 
L 86.885918 146.489659 
L 87.153865 146.489659 
L 87.220852 145.542291 
L 87.354825 146.489659 
L 87.421812 146.489659 
L 87.488799 147.437028 
L 87.622773 146.489659 
L 87.689759 146.489659 
L 87.823733 145.542291 
L 87.89072 145.542291 
L 88.024693 146.489659 
L 88.09168 146.489659 
L 88.158667 147.437028 
L 88.292641 146.489659 
L 88.560588 146.489659 
L 88.627574 147.437028 
L 88.761548 146.489659 
L 88.828535 146.489659 
L 88.895522 145.542291 
L 89.029495 146.489659 
L 89.163469 146.489659 
L 89.230456 145.542291 
L 89.364429 146.489659 
L 89.498403 146.489659 
L 89.56539 145.542291 
L 89.699363 146.489659 
L 89.76635 146.489659 
L 89.833337 147.437028 
L 89.96731 146.489659 
L 90.034297 146.489659 
L 90.168271 145.542291 
L 90.235258 145.542291 
L 90.369231 146.489659 
L 90.436218 146.489659 
L 90.503205 147.437028 
L 90.637178 146.489659 
L 90.704165 146.489659 
L 90.838139 145.542291 
L 91.173073 145.542291 
L 91.240059 144.594923 
L 91.374033 145.542291 
L 91.508007 145.542291 
L 91.574993 144.594923 
L 91.708967 145.542291 
L 91.775954 145.542291 
L 91.842941 146.489659 
L 91.976914 145.542291 
L 92.043901 145.542291 
L 92.110888 144.594923 
L 92.311848 146.489659 
L 92.512809 146.489659 
L 92.579795 145.542291 
L 92.713769 146.489659 
L 92.847743 146.489659 
L 92.914729 145.542291 
L 93.048703 146.489659 
L 93.517611 146.489659 
L 93.651584 145.542291 
L 93.718571 145.542291 
L 93.852544 146.489659 
L 94.388439 146.489659 
L 94.522412 145.542291 
L 94.723373 145.542291 
L 94.857346 146.489659 
L 95.393241 146.489659 
L 95.460228 145.542291 
L 95.661188 147.437028 
L 95.862148 147.437028 
L 95.996122 146.489659 
L 96.532016 146.489659 
L 96.66599 145.542291 
L 98.072713 145.542291 
L 98.206686 146.489659 
L 98.273673 146.489659 
L 98.407647 147.437028 
L 98.474633 147.437028 
L 98.608607 145.542291 
L 98.74258 146.489659 
L 98.876554 146.489659 
L 98.943541 145.542291 
L 99.077514 146.489659 
L 99.211488 146.489659 
L 99.278475 145.542291 
L 99.412448 146.489659 
L 100.082316 146.489659 
L 100.21629 145.542291 
L 100.752184 145.542291 
L 100.886158 144.594923 
L 100.953145 144.594923 
L 101.087118 145.542291 
L 101.756986 145.542291 
L 101.89096 146.489659 
L 101.957947 146.489659 
L 102.024933 147.437028 
L 102.158907 146.489659 
L 102.225894 146.489659 
L 102.359867 145.542291 
L 102.426854 145.542291 
L 102.560828 146.489659 
L 102.761788 146.489659 
L 102.895762 145.542291 
L 102.962749 145.542291 
L 103.096722 146.489659 
L 103.230696 146.489659 
L 103.364669 145.542291 
L 103.431656 145.542291 
L 103.56563 146.489659 
L 104.101524 146.489659 
L 104.235498 145.542291 
L 105.106326 145.542291 
L 105.2403 144.594923 
L 105.307286 144.594923 
L 105.508247 146.489659 
L 106.245102 146.489659 
L 106.379075 145.542291 
L 106.780996 145.542291 
L 106.914969 146.489659 
L 107.785798 146.489659 
L 107.919771 145.542291 
L 108.321692 145.542291 
L 108.455666 146.489659 
L 108.589639 146.489659 
L 108.7906 144.594923 
L 108.924573 145.542291 
L 109.661428 145.542291 
L 109.795402 146.489659 
L 109.862388 146.489659 
L 109.929375 147.437028 
L 110.063349 146.489659 
L 110.130336 146.489659 
L 110.264309 145.542291 
L 110.331296 145.542291 
L 110.46527 146.489659 
L 110.934177 146.489659 
L 111.068151 145.542291 
L 111.135138 145.542291 
L 111.269111 146.489659 
L 111.336098 146.489659 
L 111.403085 147.437028 
L 111.537058 146.489659 
L 111.604045 146.489659 
L 111.738019 145.542291 
L 112.005966 145.542291 
L 112.139939 146.489659 
L 112.206926 146.489659 
L 112.273913 147.437028 
L 112.407887 146.489659 
L 113.010768 146.489659 
L 113.144741 147.437028 
L 113.412689 144.594923 
L 113.479675 144.594923 
L 113.613649 145.542291 
L 113.814609 145.542291 
L 113.948583 146.489659 
L 114.350504 146.489659 
L 114.41749 147.437028 
L 114.551464 146.489659 
L 114.618451 146.489659 
L 114.752424 145.542291 
L 114.819411 145.542291 
L 114.953385 146.489659 
L 115.154345 146.489659 
L 115.288319 145.542291 
L 115.355306 145.542291 
L 115.489279 146.489659 
L 115.556266 146.489659 
L 115.623253 147.437028 
L 115.757226 146.489659 
L 115.824213 146.489659 
L 115.958187 145.542291 
L 116.360108 145.542291 
L 116.494081 146.489659 
L 116.561068 146.489659 
L 116.628055 147.437028 
L 116.762028 146.489659 
L 116.829015 146.489659 
L 116.962989 145.542291 
L 117.297923 145.542291 
L 117.364909 144.594923 
L 117.56587 146.489659 
L 117.833817 146.489659 
L 117.967791 145.542291 
L 118.034777 145.542291 
L 118.101764 146.489659 
L 118.369711 143.647554 
L 118.570672 143.647554 
L 118.771632 141.752817 
L 118.838619 141.752817 
L 119.64246 129.437028 
L 120.044381 120.910712 
L 120.312328 116.17387 
L 120.714249 107.647554 
L 121.11617 101.015975 
L 121.384117 95.331765 
L 121.451104 95.331765 
L 122.053985 87.752817 
L 122.120972 87.752817 
L 122.388919 84.910712 
L 122.522893 84.910712 
L 122.656866 83.963344 
L 122.9918 83.963344 
L 123.125774 83.015975 
L 123.862629 83.015975 
L 123.996602 83.963344 
L 124.063589 83.963344 
L 124.197562 84.910712 
L 124.398523 82.068607 
L 124.532496 83.015975 
L 124.66647 83.015975 
L 124.733457 82.068607 
L 124.86743 83.015975 
L 125.001404 83.015975 
L 125.068391 82.068607 
L 125.202364 83.015975 
L 125.403325 83.015975 
L 125.604285 84.910712 
L 125.671272 84.910712 
L 125.939219 82.068607 
L 126.073193 83.015975 
L 127.345942 83.015975 
L 127.479915 82.068607 
L 127.546902 82.068607 
L 127.747863 83.963344 
L 127.881836 83.963344 
L 128.01581 83.015975 
L 128.350744 83.015975 
L 128.484717 82.068607 
L 128.551704 82.068607 
L 128.685678 83.015975 
L 128.752665 83.015975 
L 128.819651 83.963344 
L 128.953625 83.015975 
L 129.020612 83.015975 
L 129.154585 82.068607 
L 129.221572 82.068607 
L 129.355546 83.015975 
L 130.226374 83.015975 
L 130.360348 82.068607 
L 131.231176 82.068607 
L 131.36515 83.015975 
L 131.432136 83.015975 
L 131.56611 83.963344 
L 131.633097 83.963344 
L 131.700083 84.910712 
L 131.834057 83.963344 
L 131.901044 83.963344 
L 132.102004 82.068607 
L 132.302965 83.963344 
L 132.436938 83.963344 
L 132.503925 84.910712 
L 132.637899 83.963344 
L 132.704885 83.963344 
L 132.771872 83.015975 
L 132.905846 83.963344 
L 133.039819 83.963344 
L 133.173793 83.015975 
L 133.24078 83.015975 
L 133.374753 82.068607 
L 133.44174 82.068607 
L 133.642701 83.963344 
L 133.709687 83.963344 
L 133.843661 83.015975 
L 134.379555 83.015975 
L 134.513529 82.068607 
L 134.580516 82.068607 
L 134.714489 83.015975 
L 134.781476 83.015975 
L 134.91545 83.963344 
L 135.049423 83.963344 
L 135.183397 83.015975 
L 135.920252 83.015975 
L 136.054225 82.068607 
L 136.121212 82.068607 
L 136.255186 83.015975 
L 136.322172 83.015975 
L 136.389159 83.963344 
L 136.523133 83.015975 
L 136.59012 83.015975 
L 136.724093 82.068607 
L 136.79108 82.068607 
L 136.925053 83.015975 
L 136.99204 83.015975 
L 137.059027 83.963344 
L 137.193001 83.015975 
L 137.259987 83.015975 
L 137.393961 82.068607 
L 137.460948 82.068607 
L 137.594921 83.015975 
L 137.728895 83.015975 
L 137.862869 82.068607 
L 138.599723 82.068607 
L 138.733697 83.015975 
L 138.800684 83.015975 
L 138.867671 83.963344 
L 139.001644 83.015975 
L 139.068631 83.015975 
L 139.202605 82.068607 
L 139.269591 82.068607 
L 139.403565 83.015975 
L 140.073433 83.015975 
L 140.207406 82.068607 
L 140.274393 82.068607 
L 140.408367 83.015975 
L 140.609327 83.015975 
L 140.743301 83.963344 
L 140.944261 83.963344 
L 141.145222 82.068607 
L 141.212208 82.068607 
L 141.279195 81.121238 
L 141.413169 82.068607 
L 141.614129 82.068607 
L 141.748103 81.121238 
L 141.815089 81.121238 
L 142.083037 83.963344 
L 142.21701 83.015975 
L 142.283997 83.015975 
L 142.484957 81.121238 
L 142.819891 81.121238 
L 143.087839 83.963344 
L 143.221812 83.015975 
L 144.762508 83.015975 
L 144.829495 82.068607 
L 144.963469 83.015975 
L 145.097442 83.015975 
L 145.231416 82.068607 
L 145.633337 82.068607 
L 145.76731 81.121238 
L 145.834297 81.121238 
L 145.968271 82.068607 
L 146.504165 82.068607 
L 146.638139 83.015975 
L 146.772112 83.015975 
L 146.973073 81.121238 
L 147.24102 83.963344 
L 147.374993 83.015975 
L 147.508967 83.015975 
L 147.642941 83.963344 
L 147.776914 83.963344 
L 147.977875 82.068607 
L 148.111848 83.015975 
L 148.312809 83.015975 
L 148.446782 82.068607 
L 148.513769 82.068607 
L 148.647743 83.015975 
L 149.11665 83.015975 
L 149.183637 82.068607 
L 149.317611 83.015975 
L 149.451584 83.015975 
L 149.585558 82.068607 
L 149.652544 82.068607 
L 149.786518 83.015975 
L 149.987478 83.015975 
L 150.121452 82.068607 
L 150.188439 82.068607 
L 150.322412 83.015975 
L 150.456386 83.015975 
L 150.59036 82.068607 
L 151.461188 82.068607 
L 151.595162 81.121238 
L 151.796122 81.121238 
L 151.863109 80.17387 
L 151.997082 81.121238 
L 152.064069 81.121238 
L 152.131056 82.068607 
L 152.265029 81.121238 
L 152.332016 81.121238 
L 152.532977 79.226502 
L 152.66695 79.226502 
L 152.867911 77.331765 
L 152.934897 77.331765 
L 153.202845 74.489659 
L 153.269831 74.489659 
L 153.805726 65.963344 
L 154.006686 63.121238 
L 154.475594 55.542291 
L 154.676554 52.700186 
L 155.547382 41.331765 
L 155.614369 41.331765 
L 155.882316 38.489659 
L 155.949303 38.489659 
L 156.21725 35.647554 
L 156.351224 35.647554 
L 156.552184 33.752817 
L 156.686158 33.752817 
L 156.820132 32.805449 
L 157.356026 32.805449 
L 157.556986 30.910712 
L 157.69096 31.85808 
L 157.824933 31.85808 
L 157.958907 30.910712 
L 158.360828 30.910712 
L 158.494801 29.963344 
L 158.561788 29.963344 
L 158.628775 30.910712 
L 158.896722 28.068607 
L 159.164669 28.068607 
L 159.298643 27.121238 
L 159.56659 27.121238 
L 159.700564 28.068607 
L 159.834537 28.068607 
L 159.968511 27.121238 
L 160.169471 27.121238 
L 160.236458 26.17387 
L 160.437418 28.068607 
L 160.705366 28.068607 
L 160.906326 26.17387 
L 161.576194 26.17387 
L 161.710168 27.121238 
L 161.844141 27.121238 
L 161.978115 26.17387 
L 162.179075 26.17387 
L 162.313049 25.226502 
L 162.380035 25.226502 
L 162.514009 26.17387 
L 162.580996 26.17387 
L 162.647983 27.121238 
L 162.781956 26.17387 
L 162.848943 26.17387 
L 162.91593 25.226502 
L 163.11689 27.121238 
L 163.183877 27.121238 
L 163.451824 24.279133 
L 163.585798 25.226502 
L 165.260468 25.226502 
L 165.394441 26.17387 
L 165.528415 26.17387 
L 165.662388 25.226502 
L 166.064309 25.226502 
L 166.198283 26.17387 
L 166.399243 26.17387 
L 166.533217 25.226502 
L 166.734177 25.226502 
L 166.868151 24.279133 
L 166.935138 24.279133 
L 167.069111 25.226502 
L 167.738979 25.226502 
L 167.872953 24.279133 
L 167.939939 24.279133 
L 168.073913 25.226502 
L 168.207887 25.226502 
L 168.274873 24.279133 
L 168.542821 27.121238 
L 168.810768 24.279133 
L 169.279675 24.279133 
L 169.413649 25.226502 
L 169.882556 25.226502 
L 170.01653 24.279133 
L 170.284477 24.279133 
L 170.418451 25.226502 
L 171.088319 25.226502 
L 171.289279 23.331765 
L 171.423253 23.331765 
L 171.557226 24.279133 
L 171.758187 24.279133 
L 171.825174 23.331765 
L 172.026134 25.226502 
L 172.227094 25.226502 
L 172.361068 24.279133 
L 172.629015 24.279133 
L 172.762989 25.226502 
L 172.896962 25.226502 
L 173.030936 24.279133 
L 173.097923 24.279133 
L 173.231896 23.331765 
L 173.298883 23.331765 
L 173.432857 24.279133 
L 173.56683 24.279133 
L 173.633817 23.331765 
L 173.834777 25.226502 
L 174.102725 25.226502 
L 174.236698 24.279133 
L 174.437659 24.279133 
L 174.571632 23.331765 
L 174.638619 23.331765 
L 174.839579 25.226502 
L 174.906566 25.226502 
L 175.04054 24.279133 
L 175.107526 24.279133 
L 175.2415 23.331765 
L 175.308487 23.331765 
L 175.44246 24.279133 
L 175.576434 24.279133 
L 175.643421 23.331765 
L 175.777394 24.279133 
L 175.911368 24.279133 
L 176.045342 23.331765 
L 176.112328 23.331765 
L 176.246302 24.279133 
L 176.313289 24.279133 
L 176.380276 25.226502 
L 176.514249 24.279133 
L 176.581236 24.279133 
L 176.648223 23.331765 
L 176.782196 24.279133 
L 177.786998 24.279133 
L 177.920972 23.331765 
L 177.987959 23.331765 
L 178.121932 24.279133 
L 179.461668 24.279133 
L 179.595642 25.226502 
L 179.662629 25.226502 
L 179.729615 26.17387 
L 179.863589 25.226502 
L 179.930576 25.226502 
L 180.064549 24.279133 
L 180.66743 24.279133 
L 180.734417 25.226502 
L 180.868391 24.279133 
L 180.935378 24.279133 
L 181.069351 23.331765 
L 181.337298 23.331765 
L 181.471272 24.279133 
L 181.94018 24.279133 
L 182.007166 23.331765 
L 182.14114 24.279133 
L 182.275114 24.279133 
L 182.3421 23.331765 
L 182.476074 24.279133 
L 183.279915 24.279133 
L 183.346902 23.331765 
L 183.480876 24.279133 
L 183.614849 24.279133 
L 183.681836 23.331765 
L 183.81581 24.279133 
L 183.882797 24.279133 
L 183.949783 25.226502 
L 184.083757 24.279133 
L 184.485678 24.279133 
L 184.686638 22.384396 
L 184.954585 25.226502 
L 185.021572 25.226502 
L 185.155546 26.17387 
L 185.423493 23.331765 
L 185.49048 23.331765 
L 185.624453 24.279133 
L 185.825414 24.279133 
L 185.8924 23.331765 
L 186.093361 25.226502 
L 186.294321 25.226502 
L 186.361308 24.279133 
L 186.495282 25.226502 
L 186.562268 25.226502 
L 186.629255 26.17387 
L 186.763229 25.226502 
L 186.830216 25.226502 
L 186.964189 24.279133 
L 187.16515 24.279133 
L 187.36611 26.17387 
L 187.500083 26.17387 
L 187.634057 25.226502 
L 187.701044 25.226502 
L 187.835017 26.17387 
L 188.035978 26.17387 
L 188.169951 27.121238 
L 188.236938 27.121238 
L 188.303925 28.068607 
L 188.437899 27.121238 
L 188.504885 27.121238 
L 188.638859 26.17387 
L 188.705846 26.17387 
L 188.906806 28.068607 
L 189.174753 28.068607 
L 189.308727 27.121238 
L 189.375714 27.121238 
L 189.509687 28.068607 
L 189.643661 28.068607 
L 189.710648 27.121238 
L 189.844621 28.068607 
L 190.179555 28.068607 
L 190.313529 29.015975 
L 190.514489 29.015975 
L 190.71545 26.17387 
L 190.849423 27.121238 
L 191.050384 27.121238 
L 191.184357 28.068607 
L 191.251344 28.068607 
L 191.318331 29.015975 
L 191.452304 28.068607 
L 191.519291 28.068607 
L 191.653265 27.121238 
L 191.720252 27.121238 
L 191.854225 28.068607 
L 191.988199 28.068607 
L 192.122172 27.121238 
L 192.524093 27.121238 
L 192.658067 26.17387 
L 192.859027 26.17387 
L 192.993001 27.121238 
L 193.059987 27.121238 
L 193.126974 28.068607 
L 193.260948 27.121238 
L 193.327935 27.121238 
L 193.394921 26.17387 
L 193.528895 27.121238 
L 193.595882 27.121238 
L 193.662869 28.068607 
L 193.796842 27.121238 
L 193.863829 27.121238 
L 193.997803 26.17387 
L 194.198763 26.17387 
L 194.332737 25.226502 
L 194.399723 25.226502 
L 194.533697 26.17387 
L 194.600684 26.17387 
L 194.667671 27.121238 
L 194.801644 26.17387 
L 194.868631 26.17387 
L 194.935618 25.226502 
L 195.136578 27.121238 
L 195.337538 27.121238 
L 195.471512 26.17387 
L 195.538499 26.17387 
L 195.672472 25.226502 
L 196.208367 25.226502 
L 196.34234 26.17387 
L 197.213169 26.17387 
L 197.347142 25.226502 
L 197.749063 25.226502 
L 197.883037 26.17387 
L 198.01701 26.17387 
L 198.150984 25.226502 
L 198.217971 25.226502 
L 198.351944 26.17387 
L 198.552905 26.17387 
L 198.686878 25.226502 
L 200.227574 25.226502 
L 200.361548 26.17387 
L 200.428535 26.17387 
L 200.495522 27.121238 
L 200.629495 26.17387 
L 200.696482 26.17387 
L 200.830456 25.226502 
L 200.897442 25.226502 
L 201.031416 24.279133 
L 201.098403 24.279133 
L 201.232376 25.226502 
L 201.433337 25.226502 
L 201.56731 26.17387 
L 201.634297 26.17387 
L 201.701284 27.121238 
L 201.835258 26.17387 
L 201.902244 26.17387 
L 201.969231 25.226502 
L 201.969231 25.226502 
" clip-path="url(#pf9d7385037)" style="fill: none; stroke: #000000; stroke-linecap: square"/>
   </g>
   <g id="patch_3">
    <path d="M 26.199231 154.684396 
L 26.199231 16.084396 
" style="fill: none; stroke: #000000; stroke-width: 0.5; stroke-linejoin: miter; stroke-linecap: square"/>
   </g>
   <g id="patch_4">
    <path d="M 210.339231 154.684396 
L 210.339231 16.084396 
" style="fill: none; stroke: #000000; stroke-width: 0.5; stroke-linejoin: miter; stroke-linecap: square"/>
   </g>
   <g id="patch_5">
    <path d="M 26.199231 154.684396 
L 210.339231 154.684396 
" style="fill: none; stroke: #000000; stroke-width: 0.5; stroke-linejoin: miter; stroke-linecap: square"/>
   </g>
   <g id="patch_6">
    <path d="M 26.199231 16.084396 
L 210.339231 16.084396 
" style="fill: none; stroke: #000000; stroke-width: 0.5; stroke-linejoin: miter; stroke-linecap: square"/>
   </g>
   <g id="text_14">
    <!-- Waveforms with different loads -->
    <g transform="translate(57.982284 10.084396) scale(0.096 -0.096)">
     <defs>
      <path id="NimbusRomNo9L-Regu-57" d="M 5965 4224 
L 4698 4224 
L 4698 4102 
C 5024 4070 5139 4000 5139 3826 
C 5139 3692 5101 3524 5037 3345 
L 4237 1169 
L 3392 3358 
C 3379 3390 3322 3531 3315 3551 
C 3258 3685 3219 3807 3219 3877 
C 3219 4032 3366 4096 3712 4096 
L 3712 4224 
L 2003 4224 
L 2003 4096 
C 2368 4096 2432 4038 2650 3524 
L 2861 2998 
L 2176 1188 
L 1254 3612 
C 1210 3728 1184 3838 1184 3909 
C 1184 4051 1274 4096 1600 4096 
L 1600 4224 
L 32 4224 
L 32 4102 
C 358 4070 454 3955 691 3351 
L 1926 -96 
L 2022 -96 
L 3008 2619 
L 4032 -96 
L 4128 -96 
C 4672 1579 4736 1759 5434 3647 
C 5555 3981 5626 4038 5965 4102 
L 5965 4224 
z
" transform="scale(0.015625)"/>
      <path id="NimbusRomNo9L-Regu-61" d="M 2829 423 
C 2720 333 2643 301 2547 301 
C 2400 301 2355 390 2355 672 
L 2355 1920 
C 2355 2253 2323 2438 2227 2592 
C 2086 2822 1811 2944 1434 2944 
C 832 2944 358 2630 358 2227 
C 358 2080 486 1952 634 1952 
C 787 1952 922 2080 922 2221 
C 922 2246 915 2278 909 2323 
C 896 2381 890 2432 890 2477 
C 890 2650 1094 2790 1350 2790 
C 1664 2790 1837 2605 1837 2259 
L 1837 1869 
C 851 1472 742 1421 467 1178 
C 326 1050 237 832 237 621 
C 237 218 518 -64 909 -64 
C 1190 -64 1453 70 1843 403 
C 1875 70 1990 -64 2253 -64 
C 2470 -64 2605 13 2829 256 
L 2829 423 
z
M 1837 783 
C 1837 584 1805 526 1670 449 
C 1517 359 1338 301 1203 301 
C 979 301 800 520 800 796 
L 800 822 
C 800 1201 1062 1433 1837 1715 
L 1837 783 
z
" transform="scale(0.015625)"/>
      <path id="NimbusRomNo9L-Regu-76" d="M 3053 2854 
L 2163 2854 
L 2163 2758 
C 2368 2739 2464 2675 2464 2552 
C 2464 2488 2451 2424 2426 2359 
L 1792 695 
L 1139 2340 
C 1101 2431 1082 2520 1082 2578 
C 1082 2694 1152 2739 1376 2758 
L 1376 2854 
L 122 2854 
L 122 2752 
C 365 2752 410 2688 704 2024 
L 1472 175 
C 1485 137 1504 91 1523 40 
C 1562 -76 1600 -128 1638 -128 
C 1677 -128 1722 -44 1818 193 
L 2637 2257 
C 2822 2694 2861 2739 3053 2758 
L 3053 2854 
z
" transform="scale(0.015625)"/>
      <path id="NimbusRomNo9L-Regu-65" d="M 2611 1053 
C 2304 564 2029 378 1619 378 
C 1254 378 979 564 794 930 
C 678 1174 634 1386 621 1779 
L 2592 1779 
C 2541 2193 2477 2377 2317 2581 
C 2125 2811 1830 2944 1498 2944 
C 1178 2944 877 2829 634 2611 
C 333 2349 160 1894 160 1370 
C 160 486 621 -64 1357 -64 
C 1965 -64 2445 315 2714 1008 
L 2611 1053 
z
M 634 1984 
C 704 2479 922 2714 1312 2714 
C 1702 2714 1856 2535 1939 1984 
L 634 1984 
z
" transform="scale(0.015625)"/>
      <path id="NimbusRomNo9L-Regu-66" d="M 1978 2880 
L 1190 2880 
L 1190 3611 
C 1190 3978 1312 4173 1555 4173 
C 1690 4173 1779 4110 1894 3927 
C 1997 3763 2074 3700 2182 3700 
C 2330 3700 2451 3814 2451 3959 
C 2451 4188 2170 4352 1786 4352 
C 1389 4352 1050 4181 883 3891 
C 717 3613 666 3385 659 2880 
L 134 2880 
L 134 2675 
L 659 2675 
L 659 656 
C 659 185 589 109 128 109 
L 128 0 
L 1792 0 
L 1792 109 
C 1267 109 1197 180 1197 661 
L 1197 2675 
L 1978 2675 
L 1978 2880 
z
" transform="scale(0.015625)"/>
      <path id="NimbusRomNo9L-Regu-6f" d="M 1600 2944 
C 768 2944 186 2330 186 1446 
C 186 582 781 -64 1587 -64 
C 2394 -64 3008 614 3008 1498 
C 3008 2336 2419 2944 1600 2944 
z
M 1517 2765 
C 2054 2765 2432 2150 2432 1274 
C 2432 550 2144 115 1664 115 
C 1414 115 1178 269 1043 525 
C 864 858 762 1306 762 1760 
C 762 2368 1062 2765 1517 2765 
z
" transform="scale(0.015625)"/>
      <path id="NimbusRomNo9L-Regu-72" d="M 45 2496 
C 134 2515 192 2522 269 2522 
C 429 2522 486 2419 486 2138 
L 486 538 
C 486 218 442 173 32 96 
L 32 0 
L 1568 0 
L 1568 102 
C 1133 102 1024 199 1024 565 
L 1024 2013 
C 1024 2219 1299 2541 1472 2541 
C 1510 2541 1568 2509 1638 2445 
C 1741 2355 1811 2317 1894 2317 
C 2048 2317 2144 2426 2144 2605 
C 2144 2816 2010 2944 1792 2944 
C 1523 2944 1338 2797 1024 2343 
L 1024 2931 
L 992 2944 
C 653 2803 422 2721 45 2599 
L 45 2496 
z
" transform="scale(0.015625)"/>
      <path id="NimbusRomNo9L-Regu-6d" d="M 122 2547 
C 205 2566 256 2573 326 2573 
C 493 2573 550 2470 550 2162 
L 550 539 
C 550 192 461 96 102 96 
L 102 0 
L 1523 0 
L 1523 96 
C 1184 96 1088 166 1088 418 
L 1088 2234 
C 1088 2246 1139 2310 1184 2355 
C 1344 2502 1619 2611 1843 2611 
C 2125 2611 2266 2385 2266 1932 
L 2266 528 
C 2266 167 2195 96 1830 96 
L 1830 0 
L 3264 0 
L 3264 96 
C 2899 96 2803 205 2803 603 
L 2803 2221 
C 2995 2496 3206 2611 3501 2611 
C 3866 2611 3981 2438 3981 1907 
L 3981 557 
C 3981 192 3930 141 3558 96 
L 3558 0 
L 4960 0 
L 4960 96 
L 4794 115 
C 4602 115 4518 230 4518 480 
L 4518 1802 
C 4518 2559 4269 2944 3776 2944 
C 3405 2944 3078 2778 2733 2407 
C 2618 2771 2400 2944 2054 2944 
C 1773 2944 1594 2854 1062 2451 
L 1062 2931 
L 1018 2944 
C 691 2822 474 2752 122 2656 
L 122 2547 
z
" transform="scale(0.015625)"/>
      <path id="NimbusRomNo9L-Regu-77" d="M 3654 2912 
L 3654 2816 
C 3872 2771 3936 2726 3936 2618 
C 3936 2521 3898 2367 3827 2194 
L 3251 770 
L 2714 2207 
C 2605 2501 2605 2501 2605 2586 
C 2605 2726 2675 2771 2976 2816 
L 2976 2912 
L 1677 2912 
L 1677 2816 
C 1914 2790 1990 2720 2118 2373 
C 2163 2252 2208 2129 2246 2014 
L 1664 738 
L 1030 2412 
C 1005 2476 992 2540 992 2605 
C 992 2739 1069 2790 1286 2816 
L 1286 2912 
L 134 2912 
L 134 2816 
C 282 2803 333 2739 474 2412 
L 1338 219 
C 1414 26 1466 -64 1504 -64 
C 1536 -64 1587 20 1664 186 
L 2381 1725 
L 2963 212 
C 3053 -25 3078 -64 3117 -64 
C 3162 -64 3194 -6 3296 251 
L 4179 2469 
C 4294 2739 4314 2771 4442 2816 
L 4442 2912 
L 3654 2912 
z
" transform="scale(0.015625)"/>
      <path id="NimbusRomNo9L-Regu-69" d="M 1120 2929 
L 128 2579 
L 128 2484 
L 179 2490 
C 256 2502 339 2509 397 2509 
C 550 2509 608 2406 608 2125 
L 608 640 
C 608 179 544 109 102 109 
L 102 0 
L 1619 0 
L 1619 96 
C 1197 128 1146 191 1146 650 
L 1146 2910 
L 1120 2929 
z
M 819 4352 
C 646 4352 499 4205 499 4026 
C 499 3847 640 3699 819 3699 
C 1005 3699 1152 3840 1152 4026 
C 1152 4205 1005 4352 819 4352 
z
" transform="scale(0.015625)"/>
      <path id="NimbusRomNo9L-Regu-74" d="M 1632 2880 
L 986 2880 
L 986 3622 
C 986 3686 979 3706 941 3706 
C 896 3648 858 3590 813 3526 
C 570 3174 294 2867 192 2841 
C 122 2794 83 2748 83 2715 
C 83 2695 90 2682 109 2682 
L 448 2682 
L 448 751 
C 448 212 640 -64 1018 -64 
C 1331 -64 1574 90 1786 423 
L 1702 493 
C 1568 333 1459 269 1318 269 
C 1082 269 986 443 986 847 
L 986 2682 
L 1632 2682 
L 1632 2880 
z
" transform="scale(0.015625)"/>
      <path id="NimbusRomNo9L-Regu-68" d="M 1005 2222 
C 1274 2516 1466 2624 1715 2624 
C 2035 2624 2195 2395 2195 1948 
L 2195 684 
C 2195 250 2131 166 1760 128 
L 1760 32 
L 3117 32 
L 3117 128 
C 2771 192 2733 243 2733 684 
L 2733 1954 
C 2733 2625 2464 2970 1946 2970 
C 1568 2970 1299 2816 1005 2432 
L 1005 4390 
L 973 4409 
C 755 4332 595 4281 237 4179 
L 64 4128 
L 64 4026 
C 90 4032 109 4032 141 4032 
C 416 4032 467 3980 467 3705 
L 467 686 
C 467 237 429 179 58 128 
L 58 32 
L 1440 32 
L 1440 128 
C 1069 166 1005 243 1005 684 
L 1005 2222 
z
" transform="scale(0.015625)"/>
      <path id="NimbusRomNo9L-Regu-64" d="M 2202 -64 
L 3142 269 
L 3142 365 
C 3027 365 3014 365 2995 365 
C 2765 365 2714 435 2714 731 
L 2714 4364 
L 2682 4377 
C 2374 4268 2150 4204 1741 4096 
L 1741 3994 
C 1792 4000 1830 4000 1882 4000 
C 2118 4000 2176 3936 2176 3672 
L 2176 2669 
C 1933 2874 1760 2944 1504 2944 
C 768 2944 173 2221 173 1312 
C 173 493 653 -64 1357 -64 
C 1715 -64 1958 64 2176 365 
L 2176 -45 
L 2202 -64 
z
M 2176 653 
C 2176 608 2131 531 2067 461 
C 1952 333 1792 269 1606 269 
C 1075 269 723 781 723 1568 
C 723 2291 1037 2765 1523 2765 
C 1862 2765 2176 2464 2176 2125 
L 2176 653 
z
" transform="scale(0.015625)"/>
      <path id="NimbusRomNo9L-Regu-6c" d="M 122 4000 
L 160 4000 
C 230 4000 307 4000 358 4000 
C 563 4000 627 3910 627 3610 
L 627 557 
C 627 211 538 128 134 96 
L 134 0 
L 1645 0 
L 1645 109 
C 1242 109 1165 173 1165 528 
L 1165 4371 
L 1139 4384 
C 806 4275 563 4211 122 4103 
L 122 4000 
z
" transform="scale(0.015625)"/>
     </defs>
     <use xlink:href="#NimbusRomNo9L-Regu-57" transform="scale(0.996264)"/>
     <use xlink:href="#NimbusRomNo9L-Regu-61" transform="translate(86.077326 0) scale(0.996264)"/>
     <use xlink:href="#NimbusRomNo9L-Regu-76" transform="translate(128.318884 0) scale(0.996264)"/>
     <use xlink:href="#NimbusRomNo9L-Regu-65" transform="translate(176.638691 0) scale(0.996264)"/>
     <use xlink:href="#NimbusRomNo9L-Regu-66" transform="translate(220.87226 0) scale(0.996264)"/>
     <use xlink:href="#NimbusRomNo9L-Regu-6f" transform="translate(254.04749 0) scale(0.996264)"/>
     <use xlink:href="#NimbusRomNo9L-Regu-72" transform="translate(303.86069 0) scale(0.996264)"/>
     <use xlink:href="#NimbusRomNo9L-Regu-6d" transform="translate(337.03592 0) scale(0.996264)"/>
     <use xlink:href="#NimbusRomNo9L-Regu-73" transform="translate(414.54429 0) scale(0.996264)"/>
     <use xlink:href="#NimbusRomNo9L-Regu-77" transform="translate(478.204597 0) scale(0.996264)"/>
     <use xlink:href="#NimbusRomNo9L-Regu-69" transform="translate(550.134581 0) scale(0.996264)"/>
     <use xlink:href="#NimbusRomNo9L-Regu-74" transform="translate(577.829751 0) scale(0.996264)"/>
     <use xlink:href="#NimbusRomNo9L-Regu-68" transform="translate(605.524921 0) scale(0.996264)"/>
     <use xlink:href="#NimbusRomNo9L-Regu-64" transform="translate(680.244721 0) scale(0.996264)"/>
     <use xlink:href="#NimbusRomNo9L-Regu-69" transform="translate(730.057922 0) scale(0.996264)"/>
     <use xlink:href="#NimbusRomNo9L-Regu-66" transform="translate(757.753091 0) scale(0.996264)"/>
     <use xlink:href="#NimbusRomNo9L-Regu-66" transform="translate(788.437692 0) scale(0.996264)"/>
     <use xlink:href="#NimbusRomNo9L-Regu-65" transform="translate(821.612739 0) scale(0.996264)"/>
     <use xlink:href="#NimbusRomNo9L-Regu-72" transform="translate(865.846308 0) scale(0.996264)"/>
     <use xlink:href="#NimbusRomNo9L-Regu-65" transform="translate(899.021537 0) scale(0.996264)"/>
     <use xlink:href="#NimbusRomNo9L-Regu-6e" transform="translate(943.255106 0) scale(0.996264)"/>
     <use xlink:href="#NimbusRomNo9L-Regu-74" transform="translate(993.068306 0) scale(0.996264)"/>
     <use xlink:href="#NimbusRomNo9L-Regu-6c" transform="translate(1045.670076 0) scale(0.996264)"/>
     <use xlink:href="#NimbusRomNo9L-Regu-6f" transform="translate(1073.365246 0) scale(0.996264)"/>
     <use xlink:href="#NimbusRomNo9L-Regu-61" transform="translate(1123.178446 0) scale(0.996264)"/>
     <use xlink:href="#NimbusRomNo9L-Regu-64" transform="translate(1167.412015 0) scale(0.996264)"/>
     <use xlink:href="#NimbusRomNo9L-Regu-73" transform="translate(1217.225216 0) scale(0.996264)"/>
    </g>
   </g>
   <g id="legend_1">
    <g id="line2d_102">
     <path d="M 33.399231 26.084396 
L 41.399231 26.084396 
L 49.399231 26.084396 
" style="fill: none; stroke: #000000; stroke-linecap: square"/>
    </g>
    <g id="text_15">
     <!-- CH1 -->
     <g transform="translate(55.799231 28.884396) scale(0.08 -0.08)">
      <defs>
       <path id="NimbusRomNo9L-Regu-43" d="M 3968 2906 
L 3910 4352 
L 3776 4352 
C 3738 4218 3635 4141 3507 4141 
C 3450 4141 3354 4160 3258 4199 
C 2944 4301 2624 4352 2323 4352 
C 1798 4352 1267 4154 870 3802 
C 422 3405 179 2810 179 2106 
C 179 1511 371 960 698 596 
C 1082 180 1670 -64 2304 -64 
C 3027 -64 3661 231 4051 749 
L 3936 864 
C 3462 410 3040 218 2509 218 
C 2106 218 1747 346 1472 589 
C 1120 903 922 1479 922 2189 
C 922 3348 1517 4096 2445 4096 
C 2810 4096 3142 3962 3398 3706 
C 3603 3501 3699 3322 3821 2906 
L 3968 2906 
z
" transform="scale(0.015625)"/>
       <path id="NimbusRomNo9L-Regu-48" d="M 1338 2304 
L 1338 3533 
C 1338 3990 1408 4059 1901 4104 
L 1901 4224 
L 122 4224 
L 122 4104 
C 614 4059 685 3989 685 3527 
L 685 749 
C 685 210 621 134 122 134 
L 122 0 
L 1901 0 
L 1901 121 
C 1421 159 1338 242 1338 699 
L 1338 2022 
L 3277 2022 
L 3277 757 
C 3277 211 3213 134 2714 134 
L 2714 0 
L 4493 0 
L 4493 121 
C 4013 159 3930 242 3930 696 
L 3930 3529 
C 3930 3989 4000 4059 4493 4104 
L 4493 4224 
L 2714 4224 
L 2714 4104 
C 3206 4059 3277 3990 3277 3533 
L 3277 2304 
L 1338 2304 
z
" transform="scale(0.015625)"/>
      </defs>
      <use xlink:href="#NimbusRomNo9L-Regu-43" transform="scale(0.996264)"/>
      <use xlink:href="#NimbusRomNo9L-Regu-48" transform="translate(66.450031 0) scale(0.996264)"/>
      <use xlink:href="#NimbusRomNo9L-Regu-31" transform="translate(138.380016 0) scale(0.996264)"/>
     </g>
    </g>
   </g>
  </g>
 </g>
 <defs>
  <clipPath id="pf9d7385037">
   <rect x="26.199231" y="16.084396" width="184.14" height="138.6"/>
  </clipPath>
 </defs>
</svg>
