<?xml version="1.0" encoding="utf-8" standalone="no"?>
<!DOCTYPE svg PUBLIC "-//W3C//DTD SVG 1.1//EN"
  "http://www.w3.org/Graphics/SVG/1.1/DTD/svg11.dtd">
<svg xmlns:xlink="http://www.w3.org/1999/xlink" width="209.954175pt" height="180.042634pt" viewBox="0 0 209.954175 180.042634" xmlns="http://www.w3.org/2000/svg" version="1.1">
 <metadata>
  <rdf:RDF xmlns:dc="http://purl.org/dc/elements/1.1/" xmlns:cc="http://creativecommons.org/ns#" xmlns:rdf="http://www.w3.org/1999/02/22-rdf-syntax-ns#">
   <cc:Work>
    <dc:type rdf:resource="http://purl.org/dc/dcmitype/StillImage"/>
    <dc:date>2025-02-28T13:26:15.094740</dc:date>
    <dc:format>image/svg+xml</dc:format>
    <dc:creator>
     <cc:Agent>
      <dc:title>Matplotlib v3.9.2, https://matplotlib.org/</dc:title>
     </cc:Agent>
    </dc:creator>
   </cc:Work>
  </rdf:RDF>
 </metadata>
 <defs>
  <style type="text/css">*{stroke-linejoin: round; stroke-linecap: butt}</style>
 </defs>
 <g id="figure_1">
  <g id="patch_1">
   <path d="M 0 180.042634 
L 209.954175 180.042634 
L 209.954175 0 
L 0 0 
L 0 180.042634 
z
" style="fill: none"/>
  </g>
  <g id="axes_1">
   <g id="patch_2">
    <path d="M 22.214175 154.684396 
L 206.354175 154.684396 
L 206.354175 16.084396 
L 22.214175 16.084396 
L 22.214175 154.684396 
z
" style="fill: none"/>
   </g>
   <g id="matplotlib.axis_1">
    <g id="xtick_1">
     <g id="line2d_1">
      <defs>
       <path id="m354fd029fa" d="M 0 0 
L 0 -3 
" style="stroke: #000000; stroke-width: 0.5"/>
      </defs>
      <g>
       <use xlink:href="#m354fd029fa" x="47.330874" y="154.684396" style="stroke: #000000; stroke-width: 0.5"/>
      </g>
     </g>
     <g id="line2d_2">
      <defs>
       <path id="m7b9ccb29d1" d="M 0 0 
L 0 3 
" style="stroke: #000000; stroke-width: 0.5"/>
      </defs>
      <g>
       <use xlink:href="#m7b9ccb29d1" x="47.330874" y="16.084396" style="stroke: #000000; stroke-width: 0.5"/>
      </g>
     </g>
     <g id="text_1">
      <!-- $\mathdefault{−2000}$ -->
      <g transform="translate(36.264417 163.588052) scale(0.08 -0.08)">
       <defs>
        <path id="CMSY10-0" d="M 4218 1472 
C 4326 1472 4442 1472 4442 1600 
C 4442 1728 4326 1728 4218 1728 
L 755 1728 
C 646 1728 531 1728 531 1600 
C 531 1472 646 1472 755 1472 
L 4218 1472 
z
" transform="scale(0.015625)"/>
        <path id="NimbusRomNo9L-Regu-32" d="M 3040 875 
L 2957 907 
C 2720 544 2637 486 2349 486 
L 819 486 
L 1894 1609 
C 2464 2202 2714 2687 2714 3185 
C 2714 3823 2195 4313 1530 4313 
C 1178 4313 845 4173 608 3918 
C 403 3700 307 3496 198 3043 
L 333 3011 
C 589 3636 819 3840 1261 3840 
C 1798 3840 2163 3476 2163 2940 
C 2163 2443 1869 1850 1331 1282 
L 192 77 
L 192 0 
L 2688 0 
L 3040 875 
z
" transform="scale(0.015625)"/>
        <path id="NimbusRomNo9L-Regu-30" d="M 1626 4352 
C 1274 4352 1005 4244 768 4020 
C 397 3661 154 2925 154 2176 
C 154 1479 365 730 666 372 
C 902 90 1229 -64 1600 -64 
C 1926 -64 2202 45 2432 269 
C 2803 621 3046 1364 3046 2138 
C 3046 3450 2464 4352 1626 4352 
z
M 1606 4186 
C 2144 4186 2432 3463 2432 2125 
C 2432 788 2150 103 1600 103 
C 1050 103 768 788 768 2119 
C 768 3476 1056 4186 1606 4186 
z
" transform="scale(0.015625)"/>
       </defs>
       <use xlink:href="#CMSY10-0" transform="scale(0.996264)"/>
       <use xlink:href="#NimbusRomNo9L-Regu-32" transform="translate(77.408707 0) scale(0.996264)"/>
       <use xlink:href="#NimbusRomNo9L-Regu-30" transform="translate(127.221908 0) scale(0.996264)"/>
       <use xlink:href="#NimbusRomNo9L-Regu-30" transform="translate(177.035108 0) scale(0.996264)"/>
       <use xlink:href="#NimbusRomNo9L-Regu-30" transform="translate(226.848309 0) scale(0.996264)"/>
      </g>
     </g>
    </g>
    <g id="xtick_2">
     <g id="line2d_3">
      <g>
       <use xlink:href="#m354fd029fa" x="80.824271" y="154.684396" style="stroke: #000000; stroke-width: 0.5"/>
      </g>
     </g>
     <g id="line2d_4">
      <g>
       <use xlink:href="#m7b9ccb29d1" x="80.824271" y="16.084396" style="stroke: #000000; stroke-width: 0.5"/>
      </g>
     </g>
     <g id="text_2">
      <!-- $\mathdefault{−1000}$ -->
      <g transform="translate(69.757814 163.588052) scale(0.08 -0.08)">
       <defs>
        <path id="NimbusRomNo9L-Regu-31" d="M 1862 4339 
L 710 3757 
L 710 3667 
C 787 3699 858 3725 883 3738 
C 998 3783 1107 3808 1171 3808 
C 1306 3808 1363 3711 1363 3505 
L 1363 592 
C 1363 379 1312 232 1210 173 
C 1114 116 1024 96 755 96 
L 755 0 
L 2522 0 
L 2522 96 
C 2016 96 1914 160 1914 470 
L 1914 4327 
L 1862 4339 
z
" transform="scale(0.015625)"/>
       </defs>
       <use xlink:href="#CMSY10-0" transform="scale(0.996264)"/>
       <use xlink:href="#NimbusRomNo9L-Regu-31" transform="translate(77.408707 0) scale(0.996264)"/>
       <use xlink:href="#NimbusRomNo9L-Regu-30" transform="translate(127.221908 0) scale(0.996264)"/>
       <use xlink:href="#NimbusRomNo9L-Regu-30" transform="translate(177.035108 0) scale(0.996264)"/>
       <use xlink:href="#NimbusRomNo9L-Regu-30" transform="translate(226.848309 0) scale(0.996264)"/>
      </g>
     </g>
    </g>
    <g id="xtick_3">
     <g id="line2d_5">
      <g>
       <use xlink:href="#m354fd029fa" x="114.317669" y="154.684396" style="stroke: #000000; stroke-width: 0.5"/>
      </g>
     </g>
     <g id="line2d_6">
      <g>
       <use xlink:href="#m7b9ccb29d1" x="114.317669" y="16.084396" style="stroke: #000000; stroke-width: 0.5"/>
      </g>
     </g>
     <g id="text_3">
      <!-- $\mathdefault{0}$ -->
      <g transform="translate(112.32514 163.588052) scale(0.08 -0.08)">
       <use xlink:href="#NimbusRomNo9L-Regu-30" transform="scale(0.996264)"/>
      </g>
     </g>
    </g>
    <g id="xtick_4">
     <g id="line2d_7">
      <g>
       <use xlink:href="#m354fd029fa" x="147.811066" y="154.684396" style="stroke: #000000; stroke-width: 0.5"/>
      </g>
     </g>
     <g id="line2d_8">
      <g>
       <use xlink:href="#m7b9ccb29d1" x="147.811066" y="16.084396" style="stroke: #000000; stroke-width: 0.5"/>
      </g>
     </g>
     <g id="text_4">
      <!-- $\mathdefault{1000}$ -->
      <g transform="translate(139.840954 163.588052) scale(0.08 -0.08)">
       <use xlink:href="#NimbusRomNo9L-Regu-31" transform="scale(0.996264)"/>
       <use xlink:href="#NimbusRomNo9L-Regu-30" transform="translate(49.8132 0) scale(0.996264)"/>
       <use xlink:href="#NimbusRomNo9L-Regu-30" transform="translate(99.626401 0) scale(0.996264)"/>
       <use xlink:href="#NimbusRomNo9L-Regu-30" transform="translate(149.439601 0) scale(0.996264)"/>
      </g>
     </g>
    </g>
    <g id="xtick_5">
     <g id="line2d_9">
      <g>
       <use xlink:href="#m354fd029fa" x="181.304463" y="154.684396" style="stroke: #000000; stroke-width: 0.5"/>
      </g>
     </g>
     <g id="line2d_10">
      <g>
       <use xlink:href="#m7b9ccb29d1" x="181.304463" y="16.084396" style="stroke: #000000; stroke-width: 0.5"/>
      </g>
     </g>
     <g id="text_5">
      <!-- $\mathdefault{2000}$ -->
      <g transform="translate(173.334351 163.588052) scale(0.08 -0.08)">
       <use xlink:href="#NimbusRomNo9L-Regu-32" transform="scale(0.996264)"/>
       <use xlink:href="#NimbusRomNo9L-Regu-30" transform="translate(49.8132 0) scale(0.996264)"/>
       <use xlink:href="#NimbusRomNo9L-Regu-30" transform="translate(99.626401 0) scale(0.996264)"/>
       <use xlink:href="#NimbusRomNo9L-Regu-30" transform="translate(149.439601 0) scale(0.996264)"/>
      </g>
     </g>
    </g>
    <g id="xtick_6">
     <g id="line2d_11">
      <defs>
       <path id="m27d032c283" d="M 0 0 
L 0 -1.5 
" style="stroke: #000000; stroke-width: 0.5"/>
      </defs>
      <g>
       <use xlink:href="#m27d032c283" x="27.234835" y="154.684396" style="stroke: #000000; stroke-width: 0.5"/>
      </g>
     </g>
     <g id="line2d_12">
      <defs>
       <path id="mfd1fe43ef7" d="M 0 0 
L 0 1.5 
" style="stroke: #000000; stroke-width: 0.5"/>
      </defs>
      <g>
       <use xlink:href="#mfd1fe43ef7" x="27.234835" y="16.084396" style="stroke: #000000; stroke-width: 0.5"/>
      </g>
     </g>
    </g>
    <g id="xtick_7">
     <g id="line2d_13">
      <g>
       <use xlink:href="#m27d032c283" x="33.933515" y="154.684396" style="stroke: #000000; stroke-width: 0.5"/>
      </g>
     </g>
     <g id="line2d_14">
      <g>
       <use xlink:href="#mfd1fe43ef7" x="33.933515" y="16.084396" style="stroke: #000000; stroke-width: 0.5"/>
      </g>
     </g>
    </g>
    <g id="xtick_8">
     <g id="line2d_15">
      <g>
       <use xlink:href="#m27d032c283" x="40.632194" y="154.684396" style="stroke: #000000; stroke-width: 0.5"/>
      </g>
     </g>
     <g id="line2d_16">
      <g>
       <use xlink:href="#mfd1fe43ef7" x="40.632194" y="16.084396" style="stroke: #000000; stroke-width: 0.5"/>
      </g>
     </g>
    </g>
    <g id="xtick_9">
     <g id="line2d_17">
      <g>
       <use xlink:href="#m27d032c283" x="54.029553" y="154.684396" style="stroke: #000000; stroke-width: 0.5"/>
      </g>
     </g>
     <g id="line2d_18">
      <g>
       <use xlink:href="#mfd1fe43ef7" x="54.029553" y="16.084396" style="stroke: #000000; stroke-width: 0.5"/>
      </g>
     </g>
    </g>
    <g id="xtick_10">
     <g id="line2d_19">
      <g>
       <use xlink:href="#m27d032c283" x="60.728233" y="154.684396" style="stroke: #000000; stroke-width: 0.5"/>
      </g>
     </g>
     <g id="line2d_20">
      <g>
       <use xlink:href="#mfd1fe43ef7" x="60.728233" y="16.084396" style="stroke: #000000; stroke-width: 0.5"/>
      </g>
     </g>
    </g>
    <g id="xtick_11">
     <g id="line2d_21">
      <g>
       <use xlink:href="#m27d032c283" x="67.426912" y="154.684396" style="stroke: #000000; stroke-width: 0.5"/>
      </g>
     </g>
     <g id="line2d_22">
      <g>
       <use xlink:href="#mfd1fe43ef7" x="67.426912" y="16.084396" style="stroke: #000000; stroke-width: 0.5"/>
      </g>
     </g>
    </g>
    <g id="xtick_12">
     <g id="line2d_23">
      <g>
       <use xlink:href="#m27d032c283" x="74.125592" y="154.684396" style="stroke: #000000; stroke-width: 0.5"/>
      </g>
     </g>
     <g id="line2d_24">
      <g>
       <use xlink:href="#mfd1fe43ef7" x="74.125592" y="16.084396" style="stroke: #000000; stroke-width: 0.5"/>
      </g>
     </g>
    </g>
    <g id="xtick_13">
     <g id="line2d_25">
      <g>
       <use xlink:href="#m27d032c283" x="87.522951" y="154.684396" style="stroke: #000000; stroke-width: 0.5"/>
      </g>
     </g>
     <g id="line2d_26">
      <g>
       <use xlink:href="#mfd1fe43ef7" x="87.522951" y="16.084396" style="stroke: #000000; stroke-width: 0.5"/>
      </g>
     </g>
    </g>
    <g id="xtick_14">
     <g id="line2d_27">
      <g>
       <use xlink:href="#m27d032c283" x="94.22163" y="154.684396" style="stroke: #000000; stroke-width: 0.5"/>
      </g>
     </g>
     <g id="line2d_28">
      <g>
       <use xlink:href="#mfd1fe43ef7" x="94.22163" y="16.084396" style="stroke: #000000; stroke-width: 0.5"/>
      </g>
     </g>
    </g>
    <g id="xtick_15">
     <g id="line2d_29">
      <g>
       <use xlink:href="#m27d032c283" x="100.92031" y="154.684396" style="stroke: #000000; stroke-width: 0.5"/>
      </g>
     </g>
     <g id="line2d_30">
      <g>
       <use xlink:href="#mfd1fe43ef7" x="100.92031" y="16.084396" style="stroke: #000000; stroke-width: 0.5"/>
      </g>
     </g>
    </g>
    <g id="xtick_16">
     <g id="line2d_31">
      <g>
       <use xlink:href="#m27d032c283" x="107.618989" y="154.684396" style="stroke: #000000; stroke-width: 0.5"/>
      </g>
     </g>
     <g id="line2d_32">
      <g>
       <use xlink:href="#mfd1fe43ef7" x="107.618989" y="16.084396" style="stroke: #000000; stroke-width: 0.5"/>
      </g>
     </g>
    </g>
    <g id="xtick_17">
     <g id="line2d_33">
      <g>
       <use xlink:href="#m27d032c283" x="121.016348" y="154.684396" style="stroke: #000000; stroke-width: 0.5"/>
      </g>
     </g>
     <g id="line2d_34">
      <g>
       <use xlink:href="#mfd1fe43ef7" x="121.016348" y="16.084396" style="stroke: #000000; stroke-width: 0.5"/>
      </g>
     </g>
    </g>
    <g id="xtick_18">
     <g id="line2d_35">
      <g>
       <use xlink:href="#m27d032c283" x="127.715027" y="154.684396" style="stroke: #000000; stroke-width: 0.5"/>
      </g>
     </g>
     <g id="line2d_36">
      <g>
       <use xlink:href="#mfd1fe43ef7" x="127.715027" y="16.084396" style="stroke: #000000; stroke-width: 0.5"/>
      </g>
     </g>
    </g>
    <g id="xtick_19">
     <g id="line2d_37">
      <g>
       <use xlink:href="#m27d032c283" x="134.413707" y="154.684396" style="stroke: #000000; stroke-width: 0.5"/>
      </g>
     </g>
     <g id="line2d_38">
      <g>
       <use xlink:href="#mfd1fe43ef7" x="134.413707" y="16.084396" style="stroke: #000000; stroke-width: 0.5"/>
      </g>
     </g>
    </g>
    <g id="xtick_20">
     <g id="line2d_39">
      <g>
       <use xlink:href="#m27d032c283" x="141.112386" y="154.684396" style="stroke: #000000; stroke-width: 0.5"/>
      </g>
     </g>
     <g id="line2d_40">
      <g>
       <use xlink:href="#mfd1fe43ef7" x="141.112386" y="16.084396" style="stroke: #000000; stroke-width: 0.5"/>
      </g>
     </g>
    </g>
    <g id="xtick_21">
     <g id="line2d_41">
      <g>
       <use xlink:href="#m27d032c283" x="154.509745" y="154.684396" style="stroke: #000000; stroke-width: 0.5"/>
      </g>
     </g>
     <g id="line2d_42">
      <g>
       <use xlink:href="#mfd1fe43ef7" x="154.509745" y="16.084396" style="stroke: #000000; stroke-width: 0.5"/>
      </g>
     </g>
    </g>
    <g id="xtick_22">
     <g id="line2d_43">
      <g>
       <use xlink:href="#m27d032c283" x="161.208425" y="154.684396" style="stroke: #000000; stroke-width: 0.5"/>
      </g>
     </g>
     <g id="line2d_44">
      <g>
       <use xlink:href="#mfd1fe43ef7" x="161.208425" y="16.084396" style="stroke: #000000; stroke-width: 0.5"/>
      </g>
     </g>
    </g>
    <g id="xtick_23">
     <g id="line2d_45">
      <g>
       <use xlink:href="#m27d032c283" x="167.907104" y="154.684396" style="stroke: #000000; stroke-width: 0.5"/>
      </g>
     </g>
     <g id="line2d_46">
      <g>
       <use xlink:href="#mfd1fe43ef7" x="167.907104" y="16.084396" style="stroke: #000000; stroke-width: 0.5"/>
      </g>
     </g>
    </g>
    <g id="xtick_24">
     <g id="line2d_47">
      <g>
       <use xlink:href="#m27d032c283" x="174.605784" y="154.684396" style="stroke: #000000; stroke-width: 0.5"/>
      </g>
     </g>
     <g id="line2d_48">
      <g>
       <use xlink:href="#mfd1fe43ef7" x="174.605784" y="16.084396" style="stroke: #000000; stroke-width: 0.5"/>
      </g>
     </g>
    </g>
    <g id="xtick_25">
     <g id="line2d_49">
      <g>
       <use xlink:href="#m27d032c283" x="188.003143" y="154.684396" style="stroke: #000000; stroke-width: 0.5"/>
      </g>
     </g>
     <g id="line2d_50">
      <g>
       <use xlink:href="#mfd1fe43ef7" x="188.003143" y="16.084396" style="stroke: #000000; stroke-width: 0.5"/>
      </g>
     </g>
    </g>
    <g id="xtick_26">
     <g id="line2d_51">
      <g>
       <use xlink:href="#m27d032c283" x="194.701822" y="154.684396" style="stroke: #000000; stroke-width: 0.5"/>
      </g>
     </g>
     <g id="line2d_52">
      <g>
       <use xlink:href="#mfd1fe43ef7" x="194.701822" y="16.084396" style="stroke: #000000; stroke-width: 0.5"/>
      </g>
     </g>
    </g>
    <g id="xtick_27">
     <g id="line2d_53">
      <g>
       <use xlink:href="#m27d032c283" x="201.400502" y="154.684396" style="stroke: #000000; stroke-width: 0.5"/>
      </g>
     </g>
     <g id="line2d_54">
      <g>
       <use xlink:href="#mfd1fe43ef7" x="201.400502" y="16.084396" style="stroke: #000000; stroke-width: 0.5"/>
      </g>
     </g>
    </g>
    <g id="text_6">
     <!-- ns -->
     <g transform="translate(110.741499 174.717171) scale(0.08 -0.08)">
      <defs>
       <path id="NimbusRomNo9L-Regu-6e" d="M 102 2579 
C 141 2598 205 2605 275 2605 
C 454 2605 512 2509 512 2195 
L 512 608 
C 512 243 442 154 115 128 
L 115 32 
L 1472 32 
L 1472 128 
C 1146 154 1050 230 1050 461 
L 1050 2259 
C 1357 2547 1498 2624 1709 2624 
C 2022 2624 2176 2426 2176 2003 
L 2176 666 
C 2176 262 2093 154 1773 128 
L 1773 32 
L 3104 32 
L 3104 128 
C 2790 160 2714 237 2714 550 
L 2714 2016 
C 2714 2618 2432 2976 1958 2976 
C 1664 2976 1466 2867 1030 2458 
L 1030 2963 
L 986 2976 
C 672 2861 454 2790 102 2688 
L 102 2579 
z
" transform="scale(0.015625)"/>
       <path id="NimbusRomNo9L-Regu-73" d="M 2016 2010 
L 1990 2880 
L 1920 2880 
L 1907 2867 
C 1850 2822 1843 2816 1818 2816 
C 1779 2816 1715 2829 1645 2861 
C 1504 2915 1363 2944 1197 2944 
C 691 2944 326 2616 326 2154 
C 326 1796 531 1539 1075 1231 
L 1446 1020 
C 1670 892 1779 737 1779 539 
C 1779 256 1574 77 1248 77 
C 1030 77 832 159 710 298 
C 576 455 518 600 435 960 
L 333 960 
L 333 -39 
L 416 -39 
C 461 33 486 48 563 48 
C 621 48 710 35 858 -2 
C 1037 -39 1210 -64 1325 -64 
C 1818 -64 2227 308 2227 757 
C 2227 1077 2074 1289 1690 1520 
L 998 1930 
C 819 2033 723 2194 723 2367 
C 723 2624 922 2803 1216 2803 
C 1581 2803 1773 2583 1920 2010 
L 2016 2010 
z
" transform="scale(0.015625)"/>
      </defs>
      <use xlink:href="#NimbusRomNo9L-Regu-6e" transform="scale(0.996264)"/>
      <use xlink:href="#NimbusRomNo9L-Regu-73" transform="translate(49.8132 0) scale(0.996264)"/>
     </g>
    </g>
   </g>
   <g id="matplotlib.axis_2">
    <g id="ytick_1">
     <g id="line2d_55">
      <defs>
       <path id="mea8cc27db2" d="M 0 0 
L 3 0 
" style="stroke: #000000; stroke-width: 0.5"/>
      </defs>
      <g>
       <use xlink:href="#mea8cc27db2" x="22.214175" y="143.060453" style="stroke: #000000; stroke-width: 0.5"/>
      </g>
     </g>
     <g id="line2d_56">
      <defs>
       <path id="m31b9f30c12" d="M 0 0 
L -3 0 
" style="stroke: #000000; stroke-width: 0.5"/>
      </defs>
      <g>
       <use xlink:href="#m31b9f30c12" x="206.354175" y="143.060453" style="stroke: #000000; stroke-width: 0.5"/>
      </g>
     </g>
     <g id="text_7">
      <!-- $\mathdefault{0}$ -->
      <g transform="translate(14.729119 145.762281) scale(0.08 -0.08)">
       <use xlink:href="#NimbusRomNo9L-Regu-30" transform="scale(0.996264)"/>
      </g>
     </g>
    </g>
    <g id="ytick_2">
     <g id="line2d_57">
      <g>
       <use xlink:href="#mea8cc27db2" x="22.214175" y="120.877354" style="stroke: #000000; stroke-width: 0.5"/>
      </g>
     </g>
     <g id="line2d_58">
      <g>
       <use xlink:href="#m31b9f30c12" x="206.354175" y="120.877354" style="stroke: #000000; stroke-width: 0.5"/>
      </g>
     </g>
     <g id="text_8">
      <!-- $\mathdefault{1}$ -->
      <g transform="translate(14.729119 123.579182) scale(0.08 -0.08)">
       <use xlink:href="#NimbusRomNo9L-Regu-31" transform="scale(0.996264)"/>
      </g>
     </g>
    </g>
    <g id="ytick_3">
     <g id="line2d_59">
      <g>
       <use xlink:href="#mea8cc27db2" x="22.214175" y="98.694255" style="stroke: #000000; stroke-width: 0.5"/>
      </g>
     </g>
     <g id="line2d_60">
      <g>
       <use xlink:href="#m31b9f30c12" x="206.354175" y="98.694255" style="stroke: #000000; stroke-width: 0.5"/>
      </g>
     </g>
     <g id="text_9">
      <!-- $\mathdefault{2}$ -->
      <g transform="translate(14.729119 101.396083) scale(0.08 -0.08)">
       <use xlink:href="#NimbusRomNo9L-Regu-32" transform="scale(0.996264)"/>
      </g>
     </g>
    </g>
    <g id="ytick_4">
     <g id="line2d_61">
      <g>
       <use xlink:href="#mea8cc27db2" x="22.214175" y="76.511157" style="stroke: #000000; stroke-width: 0.5"/>
      </g>
     </g>
     <g id="line2d_62">
      <g>
       <use xlink:href="#m31b9f30c12" x="206.354175" y="76.511157" style="stroke: #000000; stroke-width: 0.5"/>
      </g>
     </g>
     <g id="text_10">
      <!-- $\mathdefault{3}$ -->
      <g transform="translate(14.729119 79.212985) scale(0.08 -0.08)">
       <defs>
        <path id="NimbusRomNo9L-Regu-33" d="M 979 2138 
C 1357 2138 1504 2125 1658 2068 
C 2054 1927 2304 1562 2304 1120 
C 2304 583 1939 167 1466 167 
C 1293 167 1165 212 928 365 
C 736 480 627 525 518 525 
C 371 525 275 436 275 301 
C 275 77 550 -64 998 -64 
C 1491 -64 1997 103 2298 365 
C 2598 628 2765 999 2765 1428 
C 2765 1754 2662 2055 2477 2253 
C 2349 2394 2227 2471 1946 2592 
C 2387 2893 2547 3130 2547 3476 
C 2547 3994 2138 4352 1549 4352 
C 1229 4352 947 4244 717 4039 
C 525 3866 429 3699 288 3315 
L 384 3290 
C 646 3757 934 3968 1338 3968 
C 1754 3968 2042 3687 2042 3284 
C 2042 3053 1946 2823 1786 2663 
C 1594 2471 1414 2375 979 2221 
L 979 2138 
z
" transform="scale(0.015625)"/>
       </defs>
       <use xlink:href="#NimbusRomNo9L-Regu-33" transform="scale(0.996264)"/>
      </g>
     </g>
    </g>
    <g id="ytick_5">
     <g id="line2d_63">
      <g>
       <use xlink:href="#mea8cc27db2" x="22.214175" y="54.328058" style="stroke: #000000; stroke-width: 0.5"/>
      </g>
     </g>
     <g id="line2d_64">
      <g>
       <use xlink:href="#m31b9f30c12" x="206.354175" y="54.328058" style="stroke: #000000; stroke-width: 0.5"/>
      </g>
     </g>
     <g id="text_11">
      <!-- $\mathdefault{4}$ -->
      <g transform="translate(14.729119 57.029886) scale(0.08 -0.08)">
       <defs>
        <path id="NimbusRomNo9L-Regu-34" d="M 3021 1497 
L 2368 1497 
L 2368 4352 
L 2086 4352 
L 77 1497 
L 77 1088 
L 1875 1088 
L 1875 32 
L 2368 32 
L 2368 1088 
L 3021 1088 
L 3021 1497 
z
M 1869 1497 
L 333 1497 
L 1869 3698 
L 1869 1497 
z
" transform="scale(0.015625)"/>
       </defs>
       <use xlink:href="#NimbusRomNo9L-Regu-34" transform="scale(0.996264)"/>
      </g>
     </g>
    </g>
    <g id="ytick_6">
     <g id="line2d_65">
      <g>
       <use xlink:href="#mea8cc27db2" x="22.214175" y="32.14496" style="stroke: #000000; stroke-width: 0.5"/>
      </g>
     </g>
     <g id="line2d_66">
      <g>
       <use xlink:href="#m31b9f30c12" x="206.354175" y="32.14496" style="stroke: #000000; stroke-width: 0.5"/>
      </g>
     </g>
     <g id="text_12">
      <!-- $\mathdefault{5}$ -->
      <g transform="translate(14.729119 34.846788) scale(0.08 -0.08)">
       <defs>
        <path id="NimbusRomNo9L-Regu-35" d="M 1158 3776 
L 2413 3776 
C 2515 3776 2541 3789 2560 3834 
L 2803 4403 
L 2746 4448 
C 2650 4314 2586 4282 2451 4282 
L 1114 4282 
L 416 2759 
C 410 2746 410 2740 410 2727 
C 410 2695 435 2676 486 2676 
C 691 2676 947 2631 1210 2547 
C 1946 2309 2285 1910 2285 1274 
C 2285 656 1894 173 1395 173 
C 1267 173 1158 218 966 360 
C 762 508 614 572 480 572 
C 294 572 205 495 205 334 
C 205 90 506 -64 986 -64 
C 1523 -64 1984 110 2304 438 
C 2598 728 2733 1094 2733 1583 
C 2733 2046 2611 2342 2291 2663 
C 2010 2947 1645 3094 890 3229 
L 1158 3776 
z
" transform="scale(0.015625)"/>
       </defs>
       <use xlink:href="#NimbusRomNo9L-Regu-35" transform="scale(0.996264)"/>
      </g>
     </g>
    </g>
    <g id="ytick_7">
     <g id="line2d_67">
      <defs>
       <path id="mbca67557b5" d="M 0 0 
L 1.5 0 
" style="stroke: #000000; stroke-width: 0.5"/>
      </defs>
      <g>
       <use xlink:href="#mbca67557b5" x="22.214175" y="151.933692" style="stroke: #000000; stroke-width: 0.5"/>
      </g>
     </g>
     <g id="line2d_68">
      <defs>
       <path id="m3af9a1f9ea" d="M 0 0 
L -1.5 0 
" style="stroke: #000000; stroke-width: 0.5"/>
      </defs>
      <g>
       <use xlink:href="#m3af9a1f9ea" x="206.354175" y="151.933692" style="stroke: #000000; stroke-width: 0.5"/>
      </g>
     </g>
    </g>
    <g id="ytick_8">
     <g id="line2d_69">
      <g>
       <use xlink:href="#mbca67557b5" x="22.214175" y="147.497072" style="stroke: #000000; stroke-width: 0.5"/>
      </g>
     </g>
     <g id="line2d_70">
      <g>
       <use xlink:href="#m3af9a1f9ea" x="206.354175" y="147.497072" style="stroke: #000000; stroke-width: 0.5"/>
      </g>
     </g>
    </g>
    <g id="ytick_9">
     <g id="line2d_71">
      <g>
       <use xlink:href="#mbca67557b5" x="22.214175" y="138.623833" style="stroke: #000000; stroke-width: 0.5"/>
      </g>
     </g>
     <g id="line2d_72">
      <g>
       <use xlink:href="#m3af9a1f9ea" x="206.354175" y="138.623833" style="stroke: #000000; stroke-width: 0.5"/>
      </g>
     </g>
    </g>
    <g id="ytick_10">
     <g id="line2d_73">
      <g>
       <use xlink:href="#mbca67557b5" x="22.214175" y="134.187213" style="stroke: #000000; stroke-width: 0.5"/>
      </g>
     </g>
     <g id="line2d_74">
      <g>
       <use xlink:href="#m3af9a1f9ea" x="206.354175" y="134.187213" style="stroke: #000000; stroke-width: 0.5"/>
      </g>
     </g>
    </g>
    <g id="ytick_11">
     <g id="line2d_75">
      <g>
       <use xlink:href="#mbca67557b5" x="22.214175" y="129.750593" style="stroke: #000000; stroke-width: 0.5"/>
      </g>
     </g>
     <g id="line2d_76">
      <g>
       <use xlink:href="#m3af9a1f9ea" x="206.354175" y="129.750593" style="stroke: #000000; stroke-width: 0.5"/>
      </g>
     </g>
    </g>
    <g id="ytick_12">
     <g id="line2d_77">
      <g>
       <use xlink:href="#mbca67557b5" x="22.214175" y="125.313974" style="stroke: #000000; stroke-width: 0.5"/>
      </g>
     </g>
     <g id="line2d_78">
      <g>
       <use xlink:href="#m3af9a1f9ea" x="206.354175" y="125.313974" style="stroke: #000000; stroke-width: 0.5"/>
      </g>
     </g>
    </g>
    <g id="ytick_13">
     <g id="line2d_79">
      <g>
       <use xlink:href="#mbca67557b5" x="22.214175" y="116.440734" style="stroke: #000000; stroke-width: 0.5"/>
      </g>
     </g>
     <g id="line2d_80">
      <g>
       <use xlink:href="#m3af9a1f9ea" x="206.354175" y="116.440734" style="stroke: #000000; stroke-width: 0.5"/>
      </g>
     </g>
    </g>
    <g id="ytick_14">
     <g id="line2d_81">
      <g>
       <use xlink:href="#mbca67557b5" x="22.214175" y="112.004115" style="stroke: #000000; stroke-width: 0.5"/>
      </g>
     </g>
     <g id="line2d_82">
      <g>
       <use xlink:href="#m3af9a1f9ea" x="206.354175" y="112.004115" style="stroke: #000000; stroke-width: 0.5"/>
      </g>
     </g>
    </g>
    <g id="ytick_15">
     <g id="line2d_83">
      <g>
       <use xlink:href="#mbca67557b5" x="22.214175" y="107.567495" style="stroke: #000000; stroke-width: 0.5"/>
      </g>
     </g>
     <g id="line2d_84">
      <g>
       <use xlink:href="#m3af9a1f9ea" x="206.354175" y="107.567495" style="stroke: #000000; stroke-width: 0.5"/>
      </g>
     </g>
    </g>
    <g id="ytick_16">
     <g id="line2d_85">
      <g>
       <use xlink:href="#mbca67557b5" x="22.214175" y="103.130875" style="stroke: #000000; stroke-width: 0.5"/>
      </g>
     </g>
     <g id="line2d_86">
      <g>
       <use xlink:href="#m3af9a1f9ea" x="206.354175" y="103.130875" style="stroke: #000000; stroke-width: 0.5"/>
      </g>
     </g>
    </g>
    <g id="ytick_17">
     <g id="line2d_87">
      <g>
       <use xlink:href="#mbca67557b5" x="22.214175" y="94.257636" style="stroke: #000000; stroke-width: 0.5"/>
      </g>
     </g>
     <g id="line2d_88">
      <g>
       <use xlink:href="#m3af9a1f9ea" x="206.354175" y="94.257636" style="stroke: #000000; stroke-width: 0.5"/>
      </g>
     </g>
    </g>
    <g id="ytick_18">
     <g id="line2d_89">
      <g>
       <use xlink:href="#mbca67557b5" x="22.214175" y="89.821016" style="stroke: #000000; stroke-width: 0.5"/>
      </g>
     </g>
     <g id="line2d_90">
      <g>
       <use xlink:href="#m3af9a1f9ea" x="206.354175" y="89.821016" style="stroke: #000000; stroke-width: 0.5"/>
      </g>
     </g>
    </g>
    <g id="ytick_19">
     <g id="line2d_91">
      <g>
       <use xlink:href="#mbca67557b5" x="22.214175" y="85.384396" style="stroke: #000000; stroke-width: 0.5"/>
      </g>
     </g>
     <g id="line2d_92">
      <g>
       <use xlink:href="#m3af9a1f9ea" x="206.354175" y="85.384396" style="stroke: #000000; stroke-width: 0.5"/>
      </g>
     </g>
    </g>
    <g id="ytick_20">
     <g id="line2d_93">
      <g>
       <use xlink:href="#mbca67557b5" x="22.214175" y="80.947777" style="stroke: #000000; stroke-width: 0.5"/>
      </g>
     </g>
     <g id="line2d_94">
      <g>
       <use xlink:href="#m3af9a1f9ea" x="206.354175" y="80.947777" style="stroke: #000000; stroke-width: 0.5"/>
      </g>
     </g>
    </g>
    <g id="ytick_21">
     <g id="line2d_95">
      <g>
       <use xlink:href="#mbca67557b5" x="22.214175" y="72.074537" style="stroke: #000000; stroke-width: 0.5"/>
      </g>
     </g>
     <g id="line2d_96">
      <g>
       <use xlink:href="#m3af9a1f9ea" x="206.354175" y="72.074537" style="stroke: #000000; stroke-width: 0.5"/>
      </g>
     </g>
    </g>
    <g id="ytick_22">
     <g id="line2d_97">
      <g>
       <use xlink:href="#mbca67557b5" x="22.214175" y="67.637917" style="stroke: #000000; stroke-width: 0.5"/>
      </g>
     </g>
     <g id="line2d_98">
      <g>
       <use xlink:href="#m3af9a1f9ea" x="206.354175" y="67.637917" style="stroke: #000000; stroke-width: 0.5"/>
      </g>
     </g>
    </g>
    <g id="ytick_23">
     <g id="line2d_99">
      <g>
       <use xlink:href="#mbca67557b5" x="22.214175" y="63.201298" style="stroke: #000000; stroke-width: 0.5"/>
      </g>
     </g>
     <g id="line2d_100">
      <g>
       <use xlink:href="#m3af9a1f9ea" x="206.354175" y="63.201298" style="stroke: #000000; stroke-width: 0.5"/>
      </g>
     </g>
    </g>
    <g id="ytick_24">
     <g id="line2d_101">
      <g>
       <use xlink:href="#mbca67557b5" x="22.214175" y="58.764678" style="stroke: #000000; stroke-width: 0.5"/>
      </g>
     </g>
     <g id="line2d_102">
      <g>
       <use xlink:href="#m3af9a1f9ea" x="206.354175" y="58.764678" style="stroke: #000000; stroke-width: 0.5"/>
      </g>
     </g>
    </g>
    <g id="ytick_25">
     <g id="line2d_103">
      <g>
       <use xlink:href="#mbca67557b5" x="22.214175" y="49.891439" style="stroke: #000000; stroke-width: 0.5"/>
      </g>
     </g>
     <g id="line2d_104">
      <g>
       <use xlink:href="#m3af9a1f9ea" x="206.354175" y="49.891439" style="stroke: #000000; stroke-width: 0.5"/>
      </g>
     </g>
    </g>
    <g id="ytick_26">
     <g id="line2d_105">
      <g>
       <use xlink:href="#mbca67557b5" x="22.214175" y="45.454819" style="stroke: #000000; stroke-width: 0.5"/>
      </g>
     </g>
     <g id="line2d_106">
      <g>
       <use xlink:href="#m3af9a1f9ea" x="206.354175" y="45.454819" style="stroke: #000000; stroke-width: 0.5"/>
      </g>
     </g>
    </g>
    <g id="ytick_27">
     <g id="line2d_107">
      <g>
       <use xlink:href="#mbca67557b5" x="22.214175" y="41.018199" style="stroke: #000000; stroke-width: 0.5"/>
      </g>
     </g>
     <g id="line2d_108">
      <g>
       <use xlink:href="#m3af9a1f9ea" x="206.354175" y="41.018199" style="stroke: #000000; stroke-width: 0.5"/>
      </g>
     </g>
    </g>
    <g id="ytick_28">
     <g id="line2d_109">
      <g>
       <use xlink:href="#mbca67557b5" x="22.214175" y="36.581579" style="stroke: #000000; stroke-width: 0.5"/>
      </g>
     </g>
     <g id="line2d_110">
      <g>
       <use xlink:href="#m3af9a1f9ea" x="206.354175" y="36.581579" style="stroke: #000000; stroke-width: 0.5"/>
      </g>
     </g>
    </g>
    <g id="ytick_29">
     <g id="line2d_111">
      <g>
       <use xlink:href="#mbca67557b5" x="22.214175" y="27.70834" style="stroke: #000000; stroke-width: 0.5"/>
      </g>
     </g>
     <g id="line2d_112">
      <g>
       <use xlink:href="#m3af9a1f9ea" x="206.354175" y="27.70834" style="stroke: #000000; stroke-width: 0.5"/>
      </g>
     </g>
    </g>
    <g id="ytick_30">
     <g id="line2d_113">
      <g>
       <use xlink:href="#mbca67557b5" x="22.214175" y="23.27172" style="stroke: #000000; stroke-width: 0.5"/>
      </g>
     </g>
     <g id="line2d_114">
      <g>
       <use xlink:href="#m3af9a1f9ea" x="206.354175" y="23.27172" style="stroke: #000000; stroke-width: 0.5"/>
      </g>
     </g>
    </g>
    <g id="ytick_31">
     <g id="line2d_115">
      <g>
       <use xlink:href="#mbca67557b5" x="22.214175" y="18.835101" style="stroke: #000000; stroke-width: 0.5"/>
      </g>
     </g>
     <g id="line2d_116">
      <g>
       <use xlink:href="#m3af9a1f9ea" x="206.354175" y="18.835101" style="stroke: #000000; stroke-width: 0.5"/>
      </g>
     </g>
    </g>
    <g id="text_13">
     <!-- V -->
     <g transform="translate(9.003656 88.261592) rotate(-90) scale(0.08 -0.08)">
      <defs>
       <path id="NimbusRomNo9L-Regu-56" d="M 4461 4231 
L 3149 4231 
L 3149 4096 
C 3501 4096 3616 4026 3616 3846 
C 3616 3744 3571 3572 3494 3380 
L 2554 1033 
L 1587 3199 
C 1376 3667 1325 3814 1325 3910 
C 1325 4032 1414 4096 1619 4096 
C 1645 4096 1715 4096 1805 4109 
L 1805 4231 
L 102 4231 
L 102 4096 
C 416 4096 506 4007 781 3439 
L 2355 -64 
L 2451 -64 
L 3872 3521 
C 4083 4026 4154 4096 4461 4096 
L 4461 4231 
z
" transform="scale(0.015625)"/>
      </defs>
      <use xlink:href="#NimbusRomNo9L-Regu-56" transform="scale(0.996264)"/>
     </g>
    </g>
   </g>
   <g id="line2d_117">
    <path d="M 30.584175 143.060453 
L 30.785135 146.609748 
L 30.919109 146.609748 
L 30.986096 148.384396 
L 31.120069 146.609748 
L 31.187056 146.609748 
L 31.32103 144.835101 
L 31.856924 144.835101 
L 31.990898 146.609748 
L 32.057885 146.609748 
L 32.124871 148.384396 
L 32.258845 146.609748 
L 32.325832 146.609748 
L 32.392819 144.835101 
L 32.526792 146.609748 
L 32.660766 146.609748 
L 32.794739 144.835101 
L 33.129673 144.835101 
L 33.19666 143.060453 
L 33.39762 146.609748 
L 33.531594 146.609748 
L 33.732554 143.060453 
L 33.866528 144.835101 
L 35.206264 144.835101 
L 35.340238 143.060453 
L 35.742158 143.060453 
L 35.876132 144.835101 
L 36.211066 144.835101 
L 36.345039 146.609748 
L 36.412026 146.609748 
L 36.479013 148.384396 
L 36.612987 146.609748 
L 36.679973 146.609748 
L 36.813947 144.835101 
L 37.349841 144.835101 
L 37.416828 143.060453 
L 37.550802 144.835101 
L 37.684775 144.835101 
L 37.751762 143.060453 
L 37.885736 144.835101 
L 38.019709 144.835101 
L 38.086696 143.060453 
L 38.287657 146.609748 
L 38.354643 146.609748 
L 38.62259 141.285805 
L 38.756564 143.060453 
L 38.890538 143.060453 
L 39.024511 144.835101 
L 39.091498 144.835101 
L 39.225472 146.609748 
L 39.292458 146.609748 
L 39.426432 143.060453 
L 39.560406 144.835101 
L 39.694379 144.835101 
L 39.828353 143.060453 
L 39.89534 143.060453 
L 40.029313 144.835101 
L 40.0963 144.835101 
L 40.230274 146.609748 
L 40.364247 146.609748 
L 40.498221 144.835101 
L 40.699181 144.835101 
L 40.766168 143.060453 
L 40.900142 144.835101 
L 41.034115 144.835101 
L 41.101102 143.060453 
L 41.302062 146.609748 
L 41.570009 146.609748 
L 41.703983 144.835101 
L 41.904943 144.835101 
L 42.038917 146.609748 
L 42.239877 146.609748 
L 42.440838 143.060453 
L 42.574811 144.835101 
L 43.378653 144.835101 
L 43.512626 143.060453 
L 43.579613 143.060453 
L 43.713587 144.835101 
L 43.780574 144.835101 
L 43.84756 146.609748 
L 43.981534 144.835101 
L 44.048521 144.835101 
L 44.115508 143.060453 
L 44.249481 144.835101 
L 44.383455 144.835101 
L 44.517428 143.060453 
L 44.584415 143.060453 
L 44.718389 144.835101 
L 45.12031 144.835101 
L 45.32127 148.384396 
L 45.388257 148.384396 
L 45.656204 143.060453 
L 45.790178 144.835101 
L 45.924151 144.835101 
L 46.058125 146.609748 
L 46.594019 146.609748 
L 46.727993 144.835101 
L 47.062927 144.835101 
L 47.129913 143.060453 
L 47.263887 144.835101 
L 47.732795 144.835101 
L 47.799781 143.060453 
L 47.933755 144.835101 
L 48.067729 144.835101 
L 48.134715 143.060453 
L 48.268689 144.835101 
L 48.469649 144.835101 
L 48.603623 146.609748 
L 49.07253 146.609748 
L 49.206504 144.835101 
L 49.742398 144.835101 
L 49.809385 143.060453 
L 49.943359 144.835101 
L 50.077332 144.835101 
L 50.278293 141.285805 
L 50.479253 144.835101 
L 50.613227 144.835101 
L 50.7472 146.609748 
L 50.948161 146.609748 
L 51.149121 143.060453 
L 51.350081 146.609748 
L 51.417068 146.609748 
L 51.551042 144.835101 
L 51.618029 144.835101 
L 51.752002 146.609748 
L 51.885976 146.609748 
L 52.086936 143.060453 
L 52.287897 143.060453 
L 52.42187 144.835101 
L 52.957765 144.835101 
L 53.091738 143.060453 
L 53.158725 143.060453 
L 53.359685 146.609748 
L 53.426672 146.609748 
L 53.560646 144.835101 
L 53.627632 144.835101 
L 53.761606 146.609748 
L 53.962566 146.609748 
L 54.163527 143.060453 
L 54.364487 146.609748 
L 54.632434 146.609748 
L 54.833395 143.060453 
L 55.101342 143.060453 
L 55.235316 141.285805 
L 55.302302 141.285805 
L 55.436276 143.060453 
L 55.503263 143.060453 
L 55.637236 144.835101 
L 55.704223 144.835101 
L 55.77121 146.609748 
L 55.905184 144.835101 
L 55.97217 144.835101 
L 56.106144 143.060453 
L 56.173131 143.060453 
L 56.307104 144.835101 
L 56.441078 144.835101 
L 56.508065 143.060453 
L 56.709025 146.609748 
L 56.976972 146.609748 
L 57.177933 143.060453 
L 57.311906 144.835101 
L 57.981774 144.835101 
L 58.115748 146.609748 
L 58.316708 146.609748 
L 58.450682 144.835101 
L 58.517669 144.835101 
L 58.651642 146.609748 
L 58.718629 146.609748 
L 58.785616 148.384396 
L 58.919589 146.609748 
L 58.986576 146.609748 
L 59.12055 144.835101 
L 59.187536 144.835101 
L 59.32151 146.609748 
L 59.455484 146.609748 
L 59.589457 144.835101 
L 59.790418 144.835101 
L 59.924391 143.060453 
L 59.991378 143.060453 
L 60.125352 144.835101 
L 60.192338 144.835101 
L 60.259325 146.609748 
L 60.393299 144.835101 
L 60.460286 144.835101 
L 60.594259 143.060453 
L 60.661246 143.060453 
L 60.79522 144.835101 
L 60.99618 144.835101 
L 61.063167 143.060453 
L 61.264127 146.609748 
L 61.465087 146.609748 
L 61.599061 144.835101 
L 62.000982 144.835101 
L 62.134955 143.060453 
L 62.201942 143.060453 
L 62.402903 146.609748 
L 62.469889 146.609748 
L 62.536876 144.835101 
L 62.67085 146.609748 
L 63.139757 146.609748 
L 63.273731 144.835101 
L 63.474691 144.835101 
L 63.608665 143.060453 
L 63.876612 143.060453 
L 64.010586 144.835101 
L 64.34552 144.835101 
L 64.479493 146.609748 
L 64.680454 146.609748 
L 64.814427 144.835101 
L 65.350322 144.835101 
L 65.484295 143.060453 
L 65.551282 143.060453 
L 65.685256 144.835101 
L 66.154163 144.835101 
L 66.288137 143.060453 
L 66.355123 143.060453 
L 66.489097 144.835101 
L 66.690057 144.835101 
L 66.824031 143.060453 
L 66.891018 143.060453 
L 67.024991 144.835101 
L 68.029793 144.835101 
L 68.163767 143.060453 
L 68.230754 143.060453 
L 68.364727 144.835101 
L 68.498701 144.835101 
L 68.565688 143.060453 
L 68.699661 144.835101 
L 68.900622 144.835101 
L 69.034595 146.609748 
L 69.101582 146.609748 
L 69.168569 148.384396 
L 69.302542 146.609748 
L 69.369529 146.609748 
L 69.57049 143.060453 
L 69.77145 146.609748 
L 70.039397 146.609748 
L 70.173371 144.835101 
L 70.508305 144.835101 
L 70.709265 141.285805 
L 70.977212 146.609748 
L 71.044199 146.609748 
L 71.24516 143.060453 
L 72.049001 143.060453 
L 72.182975 141.285805 
L 72.249961 141.285805 
L 72.450922 144.835101 
L 72.517909 144.835101 
L 72.651882 143.060453 
L 73.053803 143.060453 
L 73.187777 144.835101 
L 73.254763 144.835101 
L 73.388737 146.609748 
L 73.522711 146.609748 
L 73.656684 144.835101 
L 73.723671 144.835101 
L 73.857645 146.609748 
L 74.058605 146.609748 
L 74.259565 143.060453 
L 74.527512 148.384396 
L 74.661486 146.609748 
L 75.398341 146.609748 
L 75.532314 144.835101 
L 75.733275 144.835101 
L 75.867248 146.609748 
L 76.068209 146.609748 
L 76.202182 144.835101 
L 76.403143 144.835101 
L 76.537116 143.060453 
L 76.604103 143.060453 
L 76.738077 144.835101 
L 76.87205 144.835101 
L 76.939037 143.060453 
L 77.073011 144.835101 
L 77.206984 144.835101 
L 77.273971 143.060453 
L 77.407945 144.835101 
L 77.541918 144.835101 
L 77.675892 143.060453 
L 77.742879 143.060453 
L 77.876852 144.835101 
L 77.943839 144.835101 
L 78.077813 146.609748 
L 78.144799 146.609748 
L 78.278773 143.060453 
L 78.412747 144.835101 
L 78.881654 144.835101 
L 78.948641 143.060453 
L 79.149601 146.609748 
L 79.417548 146.609748 
L 79.551522 144.835101 
L 80.891258 144.835101 
L 80.958245 143.060453 
L 81.092218 144.835101 
L 81.561126 144.835101 
L 81.695099 143.060453 
L 81.762086 143.060453 
L 81.89606 144.835101 
L 82.09702 144.835101 
L 82.230994 146.609748 
L 82.431954 146.609748 
L 82.632915 141.285805 
L 82.766888 143.060453 
L 83.101822 143.060453 
L 83.235796 144.835101 
L 83.77169 144.835101 
L 83.905664 143.060453 
L 83.972651 143.060453 
L 84.106624 144.835101 
L 84.240598 144.835101 
L 84.307584 143.060453 
L 84.508545 146.609748 
L 84.776492 146.609748 
L 84.910466 144.835101 
L 85.2454 144.835101 
L 85.379373 143.060453 
L 85.44636 143.060453 
L 85.580334 144.835101 
L 86.652122 144.835101 
L 86.853083 148.384396 
L 86.920069 148.384396 
L 87.188017 143.060453 
L 87.455964 143.060453 
L 87.589937 144.835101 
L 87.656924 144.835101 
L 87.723911 146.609748 
L 87.857885 144.835101 
L 87.924871 144.835101 
L 88.058845 143.060453 
L 88.259805 143.060453 
L 88.326792 141.285805 
L 88.594739 146.609748 
L 88.728713 144.835101 
L 89.130634 144.835101 
L 89.264607 143.060453 
L 89.331594 143.060453 
L 89.465568 144.835101 
L 89.532554 144.835101 
L 89.666528 141.285805 
L 89.867488 144.835101 
L 90.336396 144.835101 
L 90.403383 146.609748 
L 90.537356 144.835101 
L 90.604343 144.835101 
L 90.67133 143.060453 
L 90.805304 144.835101 
L 90.939277 144.835101 
L 91.073251 143.060453 
L 91.140238 143.060453 
L 91.274211 144.835101 
L 91.341198 144.835101 
L 91.475172 146.609748 
L 91.542158 146.609748 
L 91.743119 143.060453 
L 91.810105 143.060453 
L 91.944079 144.835101 
L 92.479973 144.835101 
L 92.613947 146.609748 
L 92.680934 146.609748 
L 92.747921 148.384396 
L 92.881894 146.609748 
L 92.948881 146.609748 
L 93.149841 143.060453 
L 93.283815 144.835101 
L 93.819709 144.835101 
L 93.953683 143.060453 
L 94.02067 143.060453 
L 94.154643 144.835101 
L 94.288617 144.835101 
L 94.355604 143.060453 
L 94.556564 146.609748 
L 95.025472 146.609748 
L 95.159445 148.384396 
L 95.427392 143.060453 
L 95.494379 143.060453 
L 95.628353 144.835101 
L 95.829313 144.835101 
L 95.963287 143.060453 
L 96.030274 143.060453 
L 96.164247 144.835101 
L 96.298221 144.835101 
L 96.365208 143.060453 
L 96.499181 144.835101 
L 96.968089 144.835101 
L 97.035075 143.060453 
L 97.169049 144.835101 
L 97.236036 144.835101 
L 97.303023 146.609748 
L 97.436996 144.835101 
L 97.503983 144.835101 
L 97.637957 143.060453 
L 98.173851 143.060453 
L 98.307825 144.835101 
L 99.848521 144.835101 
L 99.982494 143.060453 
L 100.049481 143.060453 
L 100.183455 144.835101 
L 100.317428 144.835101 
L 100.384415 143.060453 
L 100.585376 146.609748 
L 100.786336 146.609748 
L 100.92031 143.060453 
L 101.12127 146.609748 
L 101.255244 144.835101 
L 101.32223 144.835101 
L 101.389217 143.060453 
L 101.523191 144.835101 
L 101.992098 144.835101 
L 102.126072 143.060453 
L 102.193059 143.060453 
L 102.327032 144.835101 
L 103.197861 144.835101 
L 103.331834 146.609748 
L 103.532795 146.609748 
L 103.666768 144.835101 
L 104.202663 144.835101 
L 104.336636 143.060453 
L 104.87253 143.060453 
L 105.006504 141.285805 
L 105.207464 141.285805 
L 105.341438 143.060453 
L 105.408425 143.060453 
L 105.542398 144.835101 
L 105.676372 144.835101 
L 105.743359 143.060453 
L 105.877332 144.835101 
L 106.011306 144.835101 
L 106.14528 143.060453 
L 106.212266 143.060453 
L 106.34624 144.835101 
L 107.217068 144.835101 
L 107.351042 143.060453 
L 107.418029 143.060453 
L 107.618989 146.609748 
L 107.685976 146.609748 
L 107.886936 143.060453 
L 108.02091 144.835101 
L 108.22187 144.835101 
L 108.355844 143.060453 
L 108.422831 143.060453 
L 108.556804 144.835101 
L 108.690778 144.835101 
L 108.757765 143.060453 
L 108.891738 144.835101 
L 109.025712 144.835101 
L 109.092699 143.060453 
L 109.293659 146.609748 
L 109.494619 146.609748 
L 109.628593 143.060453 
L 109.829553 146.609748 
L 109.963527 144.835101 
L 110.030514 144.835101 
L 110.164487 143.060453 
L 110.432434 143.060453 
L 110.566408 144.835101 
L 110.700382 144.835101 
L 110.834355 143.060453 
L 110.901342 143.060453 
L 111.035316 144.835101 
L 111.236276 144.835101 
L 111.37025 143.060453 
L 111.437236 143.060453 
L 111.57121 144.835101 
L 113.24588 144.835101 
L 113.379853 143.060453 
L 113.781774 143.060453 
L 113.915748 144.835101 
L 114.049721 144.835101 
L 114.183695 143.060453 
L 114.250682 143.060453 
L 114.451642 139.511157 
L 114.585616 139.511157 
L 114.786576 135.961861 
L 114.92055 135.961861 
L 115.389457 121.764678 
L 115.791378 105.792847 
L 115.858365 105.792847 
L 116.059325 98.694255 
L 116.461246 82.722424 
L 116.662206 75.623833 
L 116.863167 70.299889 
L 117.064127 63.201298 
L 117.332074 54.328058 
L 118.202903 33.032284 
L 118.269889 33.032284 
L 118.47085 29.482988 
L 118.67181 29.482988 
L 118.872771 25.933692 
L 119.073731 25.933692 
L 119.140718 24.159044 
L 119.341678 27.70834 
L 120.279493 27.70834 
L 120.413467 25.933692 
L 120.480454 25.933692 
L 120.614427 27.70834 
L 120.748401 27.70834 
L 120.882374 25.933692 
L 120.949361 25.933692 
L 121.083335 27.70834 
L 121.284295 27.70834 
L 121.485256 24.159044 
L 121.619229 25.933692 
L 121.954163 25.933692 
L 122.088137 27.70834 
L 122.289097 27.70834 
L 122.423071 25.933692 
L 122.490057 25.933692 
L 122.624031 27.70834 
L 122.691018 27.70834 
L 122.758005 29.482988 
L 122.891978 27.70834 
L 122.958965 27.70834 
L 123.092939 25.933692 
L 123.628833 25.933692 
L 123.762807 27.70834 
L 123.829793 27.70834 
L 123.89678 29.482988 
L 124.030754 27.70834 
L 124.097741 27.70834 
L 124.231714 25.933692 
L 124.499661 25.933692 
L 124.633635 27.70834 
L 124.767608 27.70834 
L 124.834595 25.933692 
L 124.968569 27.70834 
L 125.035556 27.70834 
L 125.102542 29.482988 
L 125.236516 27.70834 
L 125.303503 27.70834 
L 125.504463 24.159044 
L 125.839397 24.159044 
L 125.973371 25.933692 
L 126.107344 25.933692 
L 126.174331 24.159044 
L 126.375292 27.70834 
L 126.643239 27.70834 
L 126.777212 25.933692 
L 127.313107 25.933692 
L 127.44708 24.159044 
L 127.648041 24.159044 
L 127.782014 25.933692 
L 127.982975 25.933692 
L 128.116948 27.70834 
L 128.317909 27.70834 
L 128.518869 24.159044 
L 128.652843 25.933692 
L 129.992578 25.933692 
L 130.126552 24.159044 
L 130.193539 24.159044 
L 130.327512 25.933692 
L 130.461486 25.933692 
L 130.59546 24.159044 
L 130.662446 24.159044 
L 130.79642 25.933692 
L 131.533275 25.933692 
L 131.600262 27.70834 
L 131.734235 25.933692 
L 131.801222 25.933692 
L 131.868209 24.159044 
L 132.002182 25.933692 
L 132.136156 25.933692 
L 132.270129 24.159044 
L 132.67205 24.159044 
L 132.806024 25.933692 
L 133.006984 25.933692 
L 133.207945 22.384396 
L 133.408905 25.933692 
L 133.542879 25.933692 
L 133.676852 27.70834 
L 133.743839 27.70834 
L 133.810826 29.482988 
L 133.944799 27.70834 
L 134.011786 27.70834 
L 134.14576 25.933692 
L 134.34672 25.933692 
L 134.480694 24.159044 
L 134.547681 24.159044 
L 134.681654 25.933692 
L 134.748641 25.933692 
L 134.815628 27.70834 
L 134.949601 25.933692 
L 135.217548 25.933692 
L 135.284535 27.70834 
L 135.418509 25.933692 
L 135.485496 25.933692 
L 135.619469 24.159044 
L 135.686456 24.159044 
L 135.82043 25.933692 
L 135.887416 25.933692 
L 135.954403 27.70834 
L 136.088377 25.933692 
L 136.155364 25.933692 
L 136.22235 24.159044 
L 136.356324 25.933692 
L 136.825232 25.933692 
L 136.959205 24.159044 
L 137.227152 24.159044 
L 137.361126 25.933692 
L 137.830033 25.933692 
L 137.964007 24.159044 
L 138.901822 24.159044 
L 139.035796 25.933692 
L 139.102783 25.933692 
L 139.169769 27.70834 
L 139.303743 25.933692 
L 139.37073 25.933692 
L 139.504703 24.159044 
L 140.375532 24.159044 
L 140.509505 25.933692 
L 141.715268 25.933692 
L 141.849241 24.159044 
L 142.385135 24.159044 
L 142.519109 25.933692 
L 142.586096 25.933692 
L 142.720069 27.70834 
L 142.787056 27.70834 
L 142.988017 24.159044 
L 143.055003 24.159044 
L 143.188977 25.933692 
L 143.590898 25.933692 
L 143.657885 27.70834 
L 143.791858 25.933692 
L 143.858845 25.933692 
L 143.992819 24.159044 
L 144.059805 24.159044 
L 144.193779 25.933692 
L 144.260766 25.933692 
L 144.327753 27.70834 
L 144.461726 25.933692 
L 144.528713 25.933692 
L 144.662687 24.159044 
L 144.930634 24.159044 
L 145.064607 25.933692 
L 145.131594 25.933692 
L 145.198581 27.70834 
L 145.332554 25.933692 
L 145.600502 25.933692 
L 145.667488 27.70834 
L 145.801462 25.933692 
L 145.868449 25.933692 
L 146.002422 24.159044 
L 146.069409 24.159044 
L 146.203383 25.933692 
L 146.27037 25.933692 
L 146.404343 27.70834 
L 146.538317 27.70834 
L 146.605304 25.933692 
L 146.739277 27.70834 
L 146.873251 27.70834 
L 147.007224 25.933692 
L 147.208185 25.933692 
L 147.275172 24.159044 
L 147.409145 25.933692 
L 147.476132 25.933692 
L 147.543119 27.70834 
L 147.677092 25.933692 
L 147.744079 25.933692 
L 147.878053 24.159044 
L 148.413947 24.159044 
L 148.547921 25.933692 
L 148.614907 25.933692 
L 148.681894 27.70834 
L 148.815868 25.933692 
L 148.882855 25.933692 
L 149.016828 24.159044 
L 149.284775 24.159044 
L 149.418749 25.933692 
L 149.552723 25.933692 
L 149.686696 24.159044 
L 149.753683 24.159044 
L 150.02163 29.482988 
L 150.088617 29.482988 
L 150.289577 25.933692 
L 150.423551 25.933692 
L 150.557524 27.70834 
L 150.758485 27.70834 
L 150.892458 25.933692 
L 150.959445 25.933692 
L 151.093419 27.70834 
L 151.562326 27.70834 
L 151.6963 25.933692 
L 151.763287 25.933692 
L 151.89726 27.70834 
L 152.299181 27.70834 
L 152.433155 29.482988 
L 152.567128 29.482988 
L 152.701102 27.70834 
L 152.768089 27.70834 
L 152.902062 29.482988 
L 153.437957 29.482988 
L 153.57193 27.70834 
L 153.638917 27.70834 
L 153.772891 29.482988 
L 153.906864 29.482988 
L 154.040838 27.70834 
L 154.107825 27.70834 
L 154.375772 33.032284 
L 154.442759 33.032284 
L 154.643719 27.70834 
L 154.777693 29.482988 
L 156.251402 29.482988 
L 156.318389 27.70834 
L 156.452362 29.482988 
L 156.519349 29.482988 
L 156.586336 31.257636 
L 156.787296 27.70834 
L 157.055244 33.032284 
L 157.12223 33.032284 
L 157.323191 29.482988 
L 157.658125 29.482988 
L 157.792098 31.257636 
L 157.926072 31.257636 
L 158.060045 29.482988 
L 158.997861 29.482988 
L 159.131834 31.257636 
L 159.198821 31.257636 
L 159.265808 33.032284 
L 159.399781 31.257636 
L 159.667729 31.257636 
L 159.734715 33.032284 
L 159.868689 31.257636 
L 159.935676 31.257636 
L 160.069649 29.482988 
L 160.47157 29.482988 
L 160.67253 25.933692 
L 160.873491 29.482988 
L 161.007464 29.482988 
L 161.141438 31.257636 
L 161.275412 31.257636 
L 161.409385 29.482988 
L 161.677332 29.482988 
L 161.811306 31.257636 
L 163.82091 31.257636 
L 163.954883 29.482988 
L 165.026672 29.482988 
L 165.227632 33.032284 
L 165.294619 33.032284 
L 165.562566 27.70834 
L 165.830514 27.70834 
L 165.964487 29.482988 
L 166.031474 29.482988 
L 166.165448 31.257636 
L 166.299421 31.257636 
L 166.366408 29.482988 
L 166.500382 31.257636 
L 166.634355 31.257636 
L 166.768329 29.482988 
L 166.835316 29.482988 
L 166.969289 31.257636 
L 167.505184 31.257636 
L 167.639157 29.482988 
L 168.175051 29.482988 
L 168.309025 31.257636 
L 168.376012 31.257636 
L 168.442999 33.032284 
L 168.576972 31.257636 
L 168.643959 31.257636 
L 168.777933 29.482988 
L 168.844919 29.482988 
L 168.978893 31.257636 
L 169.04588 31.257636 
L 169.112867 33.032284 
L 169.24684 31.257636 
L 169.313827 31.257636 
L 169.380814 29.482988 
L 169.514787 31.257636 
L 169.648761 31.257636 
L 169.715748 29.482988 
L 169.849721 31.257636 
L 169.983695 31.257636 
L 170.117669 29.482988 
L 170.385616 29.482988 
L 170.519589 31.257636 
L 170.988497 31.257636 
L 171.189457 27.70834 
L 171.323431 29.482988 
L 171.524391 29.482988 
L 171.658365 27.70834 
L 171.725352 27.70834 
L 171.926312 31.257636 
L 172.864127 31.257636 
L 172.998101 29.482988 
L 173.400021 29.482988 
L 173.533995 31.257636 
L 173.600982 31.257636 
L 173.667969 33.032284 
L 173.801942 31.257636 
L 173.868929 31.257636 
L 173.935916 29.482988 
L 174.136876 33.032284 
L 174.337837 33.032284 
L 174.47181 31.257636 
L 174.672771 31.257636 
L 174.806744 29.482988 
L 174.873731 29.482988 
L 175.007705 31.257636 
L 175.074691 31.257636 
L 175.141678 33.032284 
L 175.275652 31.257636 
L 175.342639 31.257636 
L 175.476612 29.482988 
L 175.543599 29.482988 
L 175.744559 33.032284 
L 175.878533 33.032284 
L 176.079493 29.482988 
L 176.213467 29.482988 
L 176.34744 31.257636 
L 176.548401 31.257636 
L 176.749361 27.70834 
L 176.883335 29.482988 
L 176.950322 29.482988 
L 177.017308 31.257636 
L 177.218269 27.70834 
L 177.486216 33.032284 
L 177.62019 31.257636 
L 178.223071 31.257636 
L 178.290057 29.482988 
L 178.491018 33.032284 
L 178.691978 33.032284 
L 178.892939 29.482988 
L 179.026912 31.257636 
L 179.227873 31.257636 
L 179.294859 29.482988 
L 179.49582 33.032284 
L 179.629793 33.032284 
L 179.763767 29.482988 
L 179.897741 31.257636 
L 180.366648 31.257636 
L 180.500622 29.482988 
L 180.567608 29.482988 
L 180.701582 31.257636 
L 181.237476 31.257636 
L 181.37145 29.482988 
L 181.438437 29.482988 
L 181.57241 31.257636 
L 181.706384 31.257636 
L 181.840358 29.482988 
L 182.108305 29.482988 
L 182.242278 31.257636 
L 182.376252 31.257636 
L 182.510226 29.482988 
L 182.912146 29.482988 
L 183.180093 34.806931 
L 183.24708 34.806931 
L 183.448041 31.257636 
L 183.916948 31.257636 
L 184.050922 29.482988 
L 184.586816 29.482988 
L 184.72079 31.257636 
L 184.787777 31.257636 
L 184.92175 33.032284 
L 184.988737 33.032284 
L 185.189697 29.482988 
L 185.256684 29.482988 
L 185.390658 31.257636 
L 185.591618 31.257636 
L 185.725592 29.482988 
L 185.926552 29.482988 
L 186.060526 31.257636 
L 186.730394 31.257636 
L 186.79738 29.482988 
L 186.931354 31.257636 
L 187.065328 31.257636 
L 187.132314 29.482988 
L 187.333275 33.032284 
L 187.534235 33.032284 
L 187.735196 29.482988 
L 188.27109 29.482988 
L 188.405063 31.257636 
L 188.606024 31.257636 
L 188.739997 29.482988 
L 188.806984 29.482988 
L 188.940958 31.257636 
L 189.074931 31.257636 
L 189.141918 29.482988 
L 189.275892 31.257636 
L 189.409865 31.257636 
L 189.476852 29.482988 
L 189.610826 31.257636 
L 193.094139 31.257636 
L 193.161126 29.482988 
L 193.295099 31.257636 
L 193.362086 31.257636 
L 193.429073 33.032284 
L 193.563047 31.257636 
L 193.630033 31.257636 
L 193.764007 29.482988 
L 193.964967 29.482988 
L 194.098941 31.257636 
L 195.505664 31.257636 
L 195.572651 33.032284 
L 195.706624 31.257636 
L 195.773611 31.257636 
L 195.840598 29.482988 
L 195.974571 31.257636 
L 196.644439 31.257636 
L 196.778413 33.032284 
L 197.180334 33.032284 
L 197.24732 34.806931 
L 197.381294 33.032284 
L 197.448281 33.032284 
L 197.649241 29.482988 
L 197.783215 31.257636 
L 197.984175 31.257636 
L 197.984175 31.257636 
" clip-path="url(#p0f51938817)" style="fill: none; stroke: #000000; stroke-linecap: square"/>
   </g>
   <g id="patch_3">
    <path d="M 22.214175 154.684396 
L 22.214175 16.084396 
" style="fill: none; stroke: #000000; stroke-width: 0.5; stroke-linejoin: miter; stroke-linecap: square"/>
   </g>
   <g id="patch_4">
    <path d="M 206.354175 154.684396 
L 206.354175 16.084396 
" style="fill: none; stroke: #000000; stroke-width: 0.5; stroke-linejoin: miter; stroke-linecap: square"/>
   </g>
   <g id="patch_5">
    <path d="M 22.214175 154.684396 
L 206.354175 154.684396 
" style="fill: none; stroke: #000000; stroke-width: 0.5; stroke-linejoin: miter; stroke-linecap: square"/>
   </g>
   <g id="patch_6">
    <path d="M 22.214175 16.084396 
L 206.354175 16.084396 
" style="fill: none; stroke: #000000; stroke-width: 0.5; stroke-linejoin: miter; stroke-linecap: square"/>
   </g>
   <g id="text_14">
    <!-- Waveforms with different loads -->
    <g transform="translate(53.997228 10.084396) scale(0.096 -0.096)">
     <defs>
      <path id="NimbusRomNo9L-Regu-57" d="M 5965 4224 
L 4698 4224 
L 4698 4102 
C 5024 4070 5139 4000 5139 3826 
C 5139 3692 5101 3524 5037 3345 
L 4237 1169 
L 3392 3358 
C 3379 3390 3322 3531 3315 3551 
C 3258 3685 3219 3807 3219 3877 
C 3219 4032 3366 4096 3712 4096 
L 3712 4224 
L 2003 4224 
L 2003 4096 
C 2368 4096 2432 4038 2650 3524 
L 2861 2998 
L 2176 1188 
L 1254 3612 
C 1210 3728 1184 3838 1184 3909 
C 1184 4051 1274 4096 1600 4096 
L 1600 4224 
L 32 4224 
L 32 4102 
C 358 4070 454 3955 691 3351 
L 1926 -96 
L 2022 -96 
L 3008 2619 
L 4032 -96 
L 4128 -96 
C 4672 1579 4736 1759 5434 3647 
C 5555 3981 5626 4038 5965 4102 
L 5965 4224 
z
" transform="scale(0.015625)"/>
      <path id="NimbusRomNo9L-Regu-61" d="M 2829 423 
C 2720 333 2643 301 2547 301 
C 2400 301 2355 390 2355 672 
L 2355 1920 
C 2355 2253 2323 2438 2227 2592 
C 2086 2822 1811 2944 1434 2944 
C 832 2944 358 2630 358 2227 
C 358 2080 486 1952 634 1952 
C 787 1952 922 2080 922 2221 
C 922 2246 915 2278 909 2323 
C 896 2381 890 2432 890 2477 
C 890 2650 1094 2790 1350 2790 
C 1664 2790 1837 2605 1837 2259 
L 1837 1869 
C 851 1472 742 1421 467 1178 
C 326 1050 237 832 237 621 
C 237 218 518 -64 909 -64 
C 1190 -64 1453 70 1843 403 
C 1875 70 1990 -64 2253 -64 
C 2470 -64 2605 13 2829 256 
L 2829 423 
z
M 1837 783 
C 1837 584 1805 526 1670 449 
C 1517 359 1338 301 1203 301 
C 979 301 800 520 800 796 
L 800 822 
C 800 1201 1062 1433 1837 1715 
L 1837 783 
z
" transform="scale(0.015625)"/>
      <path id="NimbusRomNo9L-Regu-76" d="M 3053 2854 
L 2163 2854 
L 2163 2758 
C 2368 2739 2464 2675 2464 2552 
C 2464 2488 2451 2424 2426 2359 
L 1792 695 
L 1139 2340 
C 1101 2431 1082 2520 1082 2578 
C 1082 2694 1152 2739 1376 2758 
L 1376 2854 
L 122 2854 
L 122 2752 
C 365 2752 410 2688 704 2024 
L 1472 175 
C 1485 137 1504 91 1523 40 
C 1562 -76 1600 -128 1638 -128 
C 1677 -128 1722 -44 1818 193 
L 2637 2257 
C 2822 2694 2861 2739 3053 2758 
L 3053 2854 
z
" transform="scale(0.015625)"/>
      <path id="NimbusRomNo9L-Regu-65" d="M 2611 1053 
C 2304 564 2029 378 1619 378 
C 1254 378 979 564 794 930 
C 678 1174 634 1386 621 1779 
L 2592 1779 
C 2541 2193 2477 2377 2317 2581 
C 2125 2811 1830 2944 1498 2944 
C 1178 2944 877 2829 634 2611 
C 333 2349 160 1894 160 1370 
C 160 486 621 -64 1357 -64 
C 1965 -64 2445 315 2714 1008 
L 2611 1053 
z
M 634 1984 
C 704 2479 922 2714 1312 2714 
C 1702 2714 1856 2535 1939 1984 
L 634 1984 
z
" transform="scale(0.015625)"/>
      <path id="NimbusRomNo9L-Regu-66" d="M 1978 2880 
L 1190 2880 
L 1190 3611 
C 1190 3978 1312 4173 1555 4173 
C 1690 4173 1779 4110 1894 3927 
C 1997 3763 2074 3700 2182 3700 
C 2330 3700 2451 3814 2451 3959 
C 2451 4188 2170 4352 1786 4352 
C 1389 4352 1050 4181 883 3891 
C 717 3613 666 3385 659 2880 
L 134 2880 
L 134 2675 
L 659 2675 
L 659 656 
C 659 185 589 109 128 109 
L 128 0 
L 1792 0 
L 1792 109 
C 1267 109 1197 180 1197 661 
L 1197 2675 
L 1978 2675 
L 1978 2880 
z
" transform="scale(0.015625)"/>
      <path id="NimbusRomNo9L-Regu-6f" d="M 1600 2944 
C 768 2944 186 2330 186 1446 
C 186 582 781 -64 1587 -64 
C 2394 -64 3008 614 3008 1498 
C 3008 2336 2419 2944 1600 2944 
z
M 1517 2765 
C 2054 2765 2432 2150 2432 1274 
C 2432 550 2144 115 1664 115 
C 1414 115 1178 269 1043 525 
C 864 858 762 1306 762 1760 
C 762 2368 1062 2765 1517 2765 
z
" transform="scale(0.015625)"/>
      <path id="NimbusRomNo9L-Regu-72" d="M 45 2496 
C 134 2515 192 2522 269 2522 
C 429 2522 486 2419 486 2138 
L 486 538 
C 486 218 442 173 32 96 
L 32 0 
L 1568 0 
L 1568 102 
C 1133 102 1024 199 1024 565 
L 1024 2013 
C 1024 2219 1299 2541 1472 2541 
C 1510 2541 1568 2509 1638 2445 
C 1741 2355 1811 2317 1894 2317 
C 2048 2317 2144 2426 2144 2605 
C 2144 2816 2010 2944 1792 2944 
C 1523 2944 1338 2797 1024 2343 
L 1024 2931 
L 992 2944 
C 653 2803 422 2721 45 2599 
L 45 2496 
z
" transform="scale(0.015625)"/>
      <path id="NimbusRomNo9L-Regu-6d" d="M 122 2547 
C 205 2566 256 2573 326 2573 
C 493 2573 550 2470 550 2162 
L 550 539 
C 550 192 461 96 102 96 
L 102 0 
L 1523 0 
L 1523 96 
C 1184 96 1088 166 1088 418 
L 1088 2234 
C 1088 2246 1139 2310 1184 2355 
C 1344 2502 1619 2611 1843 2611 
C 2125 2611 2266 2385 2266 1932 
L 2266 528 
C 2266 167 2195 96 1830 96 
L 1830 0 
L 3264 0 
L 3264 96 
C 2899 96 2803 205 2803 603 
L 2803 2221 
C 2995 2496 3206 2611 3501 2611 
C 3866 2611 3981 2438 3981 1907 
L 3981 557 
C 3981 192 3930 141 3558 96 
L 3558 0 
L 4960 0 
L 4960 96 
L 4794 115 
C 4602 115 4518 230 4518 480 
L 4518 1802 
C 4518 2559 4269 2944 3776 2944 
C 3405 2944 3078 2778 2733 2407 
C 2618 2771 2400 2944 2054 2944 
C 1773 2944 1594 2854 1062 2451 
L 1062 2931 
L 1018 2944 
C 691 2822 474 2752 122 2656 
L 122 2547 
z
" transform="scale(0.015625)"/>
      <path id="NimbusRomNo9L-Regu-77" d="M 3654 2912 
L 3654 2816 
C 3872 2771 3936 2726 3936 2618 
C 3936 2521 3898 2367 3827 2194 
L 3251 770 
L 2714 2207 
C 2605 2501 2605 2501 2605 2586 
C 2605 2726 2675 2771 2976 2816 
L 2976 2912 
L 1677 2912 
L 1677 2816 
C 1914 2790 1990 2720 2118 2373 
C 2163 2252 2208 2129 2246 2014 
L 1664 738 
L 1030 2412 
C 1005 2476 992 2540 992 2605 
C 992 2739 1069 2790 1286 2816 
L 1286 2912 
L 134 2912 
L 134 2816 
C 282 2803 333 2739 474 2412 
L 1338 219 
C 1414 26 1466 -64 1504 -64 
C 1536 -64 1587 20 1664 186 
L 2381 1725 
L 2963 212 
C 3053 -25 3078 -64 3117 -64 
C 3162 -64 3194 -6 3296 251 
L 4179 2469 
C 4294 2739 4314 2771 4442 2816 
L 4442 2912 
L 3654 2912 
z
" transform="scale(0.015625)"/>
      <path id="NimbusRomNo9L-Regu-69" d="M 1120 2929 
L 128 2579 
L 128 2484 
L 179 2490 
C 256 2502 339 2509 397 2509 
C 550 2509 608 2406 608 2125 
L 608 640 
C 608 179 544 109 102 109 
L 102 0 
L 1619 0 
L 1619 96 
C 1197 128 1146 191 1146 650 
L 1146 2910 
L 1120 2929 
z
M 819 4352 
C 646 4352 499 4205 499 4026 
C 499 3847 640 3699 819 3699 
C 1005 3699 1152 3840 1152 4026 
C 1152 4205 1005 4352 819 4352 
z
" transform="scale(0.015625)"/>
      <path id="NimbusRomNo9L-Regu-74" d="M 1632 2880 
L 986 2880 
L 986 3622 
C 986 3686 979 3706 941 3706 
C 896 3648 858 3590 813 3526 
C 570 3174 294 2867 192 2841 
C 122 2794 83 2748 83 2715 
C 83 2695 90 2682 109 2682 
L 448 2682 
L 448 751 
C 448 212 640 -64 1018 -64 
C 1331 -64 1574 90 1786 423 
L 1702 493 
C 1568 333 1459 269 1318 269 
C 1082 269 986 443 986 847 
L 986 2682 
L 1632 2682 
L 1632 2880 
z
" transform="scale(0.015625)"/>
      <path id="NimbusRomNo9L-Regu-68" d="M 1005 2222 
C 1274 2516 1466 2624 1715 2624 
C 2035 2624 2195 2395 2195 1948 
L 2195 684 
C 2195 250 2131 166 1760 128 
L 1760 32 
L 3117 32 
L 3117 128 
C 2771 192 2733 243 2733 684 
L 2733 1954 
C 2733 2625 2464 2970 1946 2970 
C 1568 2970 1299 2816 1005 2432 
L 1005 4390 
L 973 4409 
C 755 4332 595 4281 237 4179 
L 64 4128 
L 64 4026 
C 90 4032 109 4032 141 4032 
C 416 4032 467 3980 467 3705 
L 467 686 
C 467 237 429 179 58 128 
L 58 32 
L 1440 32 
L 1440 128 
C 1069 166 1005 243 1005 684 
L 1005 2222 
z
" transform="scale(0.015625)"/>
      <path id="NimbusRomNo9L-Regu-64" d="M 2202 -64 
L 3142 269 
L 3142 365 
C 3027 365 3014 365 2995 365 
C 2765 365 2714 435 2714 731 
L 2714 4364 
L 2682 4377 
C 2374 4268 2150 4204 1741 4096 
L 1741 3994 
C 1792 4000 1830 4000 1882 4000 
C 2118 4000 2176 3936 2176 3672 
L 2176 2669 
C 1933 2874 1760 2944 1504 2944 
C 768 2944 173 2221 173 1312 
C 173 493 653 -64 1357 -64 
C 1715 -64 1958 64 2176 365 
L 2176 -45 
L 2202 -64 
z
M 2176 653 
C 2176 608 2131 531 2067 461 
C 1952 333 1792 269 1606 269 
C 1075 269 723 781 723 1568 
C 723 2291 1037 2765 1523 2765 
C 1862 2765 2176 2464 2176 2125 
L 2176 653 
z
" transform="scale(0.015625)"/>
      <path id="NimbusRomNo9L-Regu-6c" d="M 122 4000 
L 160 4000 
C 230 4000 307 4000 358 4000 
C 563 4000 627 3910 627 3610 
L 627 557 
C 627 211 538 128 134 96 
L 134 0 
L 1645 0 
L 1645 109 
C 1242 109 1165 173 1165 528 
L 1165 4371 
L 1139 4384 
C 806 4275 563 4211 122 4103 
L 122 4000 
z
" transform="scale(0.015625)"/>
     </defs>
     <use xlink:href="#NimbusRomNo9L-Regu-57" transform="scale(0.996264)"/>
     <use xlink:href="#NimbusRomNo9L-Regu-61" transform="translate(86.077326 0) scale(0.996264)"/>
     <use xlink:href="#NimbusRomNo9L-Regu-76" transform="translate(128.318884 0) scale(0.996264)"/>
     <use xlink:href="#NimbusRomNo9L-Regu-65" transform="translate(176.638691 0) scale(0.996264)"/>
     <use xlink:href="#NimbusRomNo9L-Regu-66" transform="translate(220.87226 0) scale(0.996264)"/>
     <use xlink:href="#NimbusRomNo9L-Regu-6f" transform="translate(254.04749 0) scale(0.996264)"/>
     <use xlink:href="#NimbusRomNo9L-Regu-72" transform="translate(303.86069 0) scale(0.996264)"/>
     <use xlink:href="#NimbusRomNo9L-Regu-6d" transform="translate(337.03592 0) scale(0.996264)"/>
     <use xlink:href="#NimbusRomNo9L-Regu-73" transform="translate(414.54429 0) scale(0.996264)"/>
     <use xlink:href="#NimbusRomNo9L-Regu-77" transform="translate(478.204597 0) scale(0.996264)"/>
     <use xlink:href="#NimbusRomNo9L-Regu-69" transform="translate(550.134581 0) scale(0.996264)"/>
     <use xlink:href="#NimbusRomNo9L-Regu-74" transform="translate(577.829751 0) scale(0.996264)"/>
     <use xlink:href="#NimbusRomNo9L-Regu-68" transform="translate(605.524921 0) scale(0.996264)"/>
     <use xlink:href="#NimbusRomNo9L-Regu-64" transform="translate(680.244721 0) scale(0.996264)"/>
     <use xlink:href="#NimbusRomNo9L-Regu-69" transform="translate(730.057922 0) scale(0.996264)"/>
     <use xlink:href="#NimbusRomNo9L-Regu-66" transform="translate(757.753091 0) scale(0.996264)"/>
     <use xlink:href="#NimbusRomNo9L-Regu-66" transform="translate(788.437692 0) scale(0.996264)"/>
     <use xlink:href="#NimbusRomNo9L-Regu-65" transform="translate(821.612739 0) scale(0.996264)"/>
     <use xlink:href="#NimbusRomNo9L-Regu-72" transform="translate(865.846308 0) scale(0.996264)"/>
     <use xlink:href="#NimbusRomNo9L-Regu-65" transform="translate(899.021537 0) scale(0.996264)"/>
     <use xlink:href="#NimbusRomNo9L-Regu-6e" transform="translate(943.255106 0) scale(0.996264)"/>
     <use xlink:href="#NimbusRomNo9L-Regu-74" transform="translate(993.068306 0) scale(0.996264)"/>
     <use xlink:href="#NimbusRomNo9L-Regu-6c" transform="translate(1045.670076 0) scale(0.996264)"/>
     <use xlink:href="#NimbusRomNo9L-Regu-6f" transform="translate(1073.365246 0) scale(0.996264)"/>
     <use xlink:href="#NimbusRomNo9L-Regu-61" transform="translate(1123.178446 0) scale(0.996264)"/>
     <use xlink:href="#NimbusRomNo9L-Regu-64" transform="translate(1167.412015 0) scale(0.996264)"/>
     <use xlink:href="#NimbusRomNo9L-Regu-73" transform="translate(1217.225216 0) scale(0.996264)"/>
    </g>
   </g>
   <g id="legend_1">
    <g id="line2d_118">
     <path d="M 29.414175 26.084396 
L 37.414175 26.084396 
L 45.414175 26.084396 
" style="fill: none; stroke: #000000; stroke-linecap: square"/>
    </g>
    <g id="text_15">
     <!-- CH1 -->
     <g transform="translate(51.814175 28.884396) scale(0.08 -0.08)">
      <defs>
       <path id="NimbusRomNo9L-Regu-43" d="M 3968 2906 
L 3910 4352 
L 3776 4352 
C 3738 4218 3635 4141 3507 4141 
C 3450 4141 3354 4160 3258 4199 
C 2944 4301 2624 4352 2323 4352 
C 1798 4352 1267 4154 870 3802 
C 422 3405 179 2810 179 2106 
C 179 1511 371 960 698 596 
C 1082 180 1670 -64 2304 -64 
C 3027 -64 3661 231 4051 749 
L 3936 864 
C 3462 410 3040 218 2509 218 
C 2106 218 1747 346 1472 589 
C 1120 903 922 1479 922 2189 
C 922 3348 1517 4096 2445 4096 
C 2810 4096 3142 3962 3398 3706 
C 3603 3501 3699 3322 3821 2906 
L 3968 2906 
z
" transform="scale(0.015625)"/>
       <path id="NimbusRomNo9L-Regu-48" d="M 1338 2304 
L 1338 3533 
C 1338 3990 1408 4059 1901 4104 
L 1901 4224 
L 122 4224 
L 122 4104 
C 614 4059 685 3989 685 3527 
L 685 749 
C 685 210 621 134 122 134 
L 122 0 
L 1901 0 
L 1901 121 
C 1421 159 1338 242 1338 699 
L 1338 2022 
L 3277 2022 
L 3277 757 
C 3277 211 3213 134 2714 134 
L 2714 0 
L 4493 0 
L 4493 121 
C 4013 159 3930 242 3930 696 
L 3930 3529 
C 3930 3989 4000 4059 4493 4104 
L 4493 4224 
L 2714 4224 
L 2714 4104 
C 3206 4059 3277 3990 3277 3533 
L 3277 2304 
L 1338 2304 
z
" transform="scale(0.015625)"/>
      </defs>
      <use xlink:href="#NimbusRomNo9L-Regu-43" transform="scale(0.996264)"/>
      <use xlink:href="#NimbusRomNo9L-Regu-48" transform="translate(66.450031 0) scale(0.996264)"/>
      <use xlink:href="#NimbusRomNo9L-Regu-31" transform="translate(138.380016 0) scale(0.996264)"/>
     </g>
    </g>
   </g>
  </g>
 </g>
 <defs>
  <clipPath id="p0f51938817">
   <rect x="22.214175" y="16.084396" width="184.14" height="138.6"/>
  </clipPath>
 </defs>
</svg>
