<svg xmlns="http://www.w3.org/2000/svg" xmlns:xlink="http://www.w3.org/1999/xlink" width="303.36" height="226.56" viewBox="0 0 227.52 169.92"><defs><style>*{stroke-linejoin:round;stroke-linecap:butt}</style></defs><g id="figure_1"><path id="patch_1" d="M0 169.92h227.52V0H0z" style="fill:none"/><g id="axes_1"><path id="patch_2" d="M27.04 143.72h196.88V16.085H27.04z" style="fill:none"/><g id="matplotlib.axis_1"><g id="xtick_1"><g id="line2d_1"><defs><path id="m5933bb9874" d="M0 0v-3" style="stroke:#000;stroke-width:.5"/></defs><use xlink:href="#m5933bb9874" x="53.895" y="143.721" style="stroke:#000;stroke-width:.5"/></g><g id="line2d_2"><defs><path id="m4d27c6f216" d="M0 0v3" style="stroke:#000;stroke-width:.5"/></defs><use xlink:href="#m4d27c6f216" x="53.895" y="16.084" style="stroke:#000;stroke-width:.5"/></g><g id="text_1" transform="matrix(.08 0 0 -.08 44.82 152.624)"><defs><path id="CMSY10-0" d="M4218 1472c108 0 224 0 224 128s-116 128-224 128H755c-109 0-224 0-224-128s115-128 224-128z" transform="scale(.01563)"/><path id="NimbusRomNo9L-Regu-32" d="m3040 875-83 32c-237-363-320-421-608-421H819l1075 1123c570 593 820 1078 820 1576 0 638-519 1128-1184 1128-352 0-685-140-922-395-205-218-301-422-410-875l135-32c256 625 486 829 928 829 537 0 902-364 902-900 0-497-294-1090-832-1658L192 77V0h2496z" transform="scale(.01563)"/><path id="NimbusRomNo9L-Regu-30" d="M1626 4352c-352 0-621-108-858-332-371-359-614-1095-614-1844 0-697 211-1446 512-1804C902 90 1229-64 1600-64c326 0 602 109 832 333 371 352 614 1095 614 1869 0 1312-582 2214-1420 2214m-20-166c538 0 826-723 826-2061 0-1337-282-2022-832-2022S768 788 768 2119c0 1357 288 2067 838 2067" transform="scale(.01563)"/></defs><use xlink:href="#CMSY10-0" transform="scale(.99626)"/><use xlink:href="#NimbusRomNo9L-Regu-32" transform="matrix(.99626 0 0 .99626 77.409 0)"/><use xlink:href="#NimbusRomNo9L-Regu-30" transform="matrix(.99626 0 0 .99626 127.222 0)"/><use xlink:href="#NimbusRomNo9L-Regu-30" transform="matrix(.99626 0 0 .99626 177.035 0)"/></g></g><g id="xtick_2"><use xlink:href="#m5933bb9874" id="line2d_3" x="89.705" y="143.721" style="stroke:#000;stroke-width:.5"/><use xlink:href="#m4d27c6f216" id="line2d_4" x="89.705" y="16.084" style="stroke:#000;stroke-width:.5"/><g id="text_2" transform="matrix(.08 0 0 -.08 80.631 152.624)"><defs><path id="NimbusRomNo9L-Regu-31" d="M1862 4339 710 3757v-90c77 32 148 58 173 71 115 45 224 70 288 70 135 0 192-97 192-303V592c0-213-51-360-153-419-96-57-186-77-455-77V0h1767v96c-506 0-608 64-608 374v3857z" transform="scale(.01563)"/></defs><use xlink:href="#CMSY10-0" transform="scale(.99626)"/><use xlink:href="#NimbusRomNo9L-Regu-31" transform="matrix(.99626 0 0 .99626 77.409 0)"/><use xlink:href="#NimbusRomNo9L-Regu-30" transform="matrix(.99626 0 0 .99626 127.222 0)"/><use xlink:href="#NimbusRomNo9L-Regu-30" transform="matrix(.99626 0 0 .99626 177.035 0)"/></g></g><g id="xtick_3"><use xlink:href="#m5933bb9874" id="line2d_5" x="125.516" y="143.721" style="stroke:#000;stroke-width:.5"/><use xlink:href="#m4d27c6f216" id="line2d_6" x="125.516" y="16.084" style="stroke:#000;stroke-width:.5"/><use xlink:href="#NimbusRomNo9L-Regu-30" id="text_3" transform="matrix(.0797 0 0 -.0797 123.523 152.624)"/></g><g id="xtick_4"><use xlink:href="#m5933bb9874" id="line2d_7" x="161.327" y="143.721" style="stroke:#000;stroke-width:.5"/><use xlink:href="#m4d27c6f216" id="line2d_8" x="161.327" y="16.084" style="stroke:#000;stroke-width:.5"/><g id="text_4" transform="matrix(.08 0 0 -.08 155.349 152.624)"><use xlink:href="#NimbusRomNo9L-Regu-31" transform="scale(.99626)"/><use xlink:href="#NimbusRomNo9L-Regu-30" transform="matrix(.99626 0 0 .99626 49.813 0)"/><use xlink:href="#NimbusRomNo9L-Regu-30" transform="matrix(.99626 0 0 .99626 99.626 0)"/></g></g><g id="xtick_5"><use xlink:href="#m5933bb9874" id="line2d_9" x="197.137" y="143.721" style="stroke:#000;stroke-width:.5"/><use xlink:href="#m4d27c6f216" id="line2d_10" x="197.137" y="16.084" style="stroke:#000;stroke-width:.5"/><g id="text_5" transform="matrix(.08 0 0 -.08 191.16 152.624)"><use xlink:href="#NimbusRomNo9L-Regu-32" transform="scale(.99626)"/><use xlink:href="#NimbusRomNo9L-Regu-30" transform="matrix(.99626 0 0 .99626 49.813 0)"/><use xlink:href="#NimbusRomNo9L-Regu-30" transform="matrix(.99626 0 0 .99626 99.626 0)"/></g></g><g id="xtick_6"><g id="line2d_11"><defs><path id="mb456deea45" d="M0 0v-1.5" style="stroke:#000;stroke-width:.5"/></defs><use xlink:href="#mb456deea45" x="32.408" y="143.721" style="stroke:#000;stroke-width:.5"/></g><g id="line2d_12"><defs><path id="m510a304784" d="M0 0v1.5" style="stroke:#000;stroke-width:.5"/></defs><use xlink:href="#m510a304784" x="32.408" y="16.084" style="stroke:#000;stroke-width:.5"/></g></g><g id="xtick_7"><use xlink:href="#mb456deea45" id="line2d_13" x="39.57" y="143.721" style="stroke:#000;stroke-width:.5"/><use xlink:href="#m510a304784" id="line2d_14" x="39.57" y="16.084" style="stroke:#000;stroke-width:.5"/></g><g id="xtick_8"><use xlink:href="#mb456deea45" id="line2d_15" x="46.732" y="143.721" style="stroke:#000;stroke-width:.5"/><use xlink:href="#m510a304784" id="line2d_16" x="46.732" y="16.084" style="stroke:#000;stroke-width:.5"/></g><g id="xtick_9"><use xlink:href="#mb456deea45" id="line2d_17" x="61.057" y="143.721" style="stroke:#000;stroke-width:.5"/><use xlink:href="#m510a304784" id="line2d_18" x="61.057" y="16.084" style="stroke:#000;stroke-width:.5"/></g><g id="xtick_10"><use xlink:href="#mb456deea45" id="line2d_19" x="68.219" y="143.721" style="stroke:#000;stroke-width:.5"/><use xlink:href="#m510a304784" id="line2d_20" x="68.219" y="16.084" style="stroke:#000;stroke-width:.5"/></g><g id="xtick_11"><use xlink:href="#mb456deea45" id="line2d_21" x="75.381" y="143.721" style="stroke:#000;stroke-width:.5"/><use xlink:href="#m510a304784" id="line2d_22" x="75.381" y="16.084" style="stroke:#000;stroke-width:.5"/></g><g id="xtick_12"><use xlink:href="#mb456deea45" id="line2d_23" x="82.543" y="143.721" style="stroke:#000;stroke-width:.5"/><use xlink:href="#m510a304784" id="line2d_24" x="82.543" y="16.084" style="stroke:#000;stroke-width:.5"/></g><g id="xtick_13"><use xlink:href="#mb456deea45" id="line2d_25" x="96.867" y="143.721" style="stroke:#000;stroke-width:.5"/><use xlink:href="#m510a304784" id="line2d_26" x="96.867" y="16.084" style="stroke:#000;stroke-width:.5"/></g><g id="xtick_14"><use xlink:href="#mb456deea45" id="line2d_27" x="104.03" y="143.721" style="stroke:#000;stroke-width:.5"/><use xlink:href="#m510a304784" id="line2d_28" x="104.03" y="16.084" style="stroke:#000;stroke-width:.5"/></g><g id="xtick_15"><use xlink:href="#mb456deea45" id="line2d_29" x="111.192" y="143.721" style="stroke:#000;stroke-width:.5"/><use xlink:href="#m510a304784" id="line2d_30" x="111.192" y="16.084" style="stroke:#000;stroke-width:.5"/></g><g id="xtick_16"><use xlink:href="#mb456deea45" id="line2d_31" x="118.354" y="143.721" style="stroke:#000;stroke-width:.5"/><use xlink:href="#m510a304784" id="line2d_32" x="118.354" y="16.084" style="stroke:#000;stroke-width:.5"/></g><g id="xtick_17"><use xlink:href="#mb456deea45" id="line2d_33" x="132.678" y="143.721" style="stroke:#000;stroke-width:.5"/><use xlink:href="#m510a304784" id="line2d_34" x="132.678" y="16.084" style="stroke:#000;stroke-width:.5"/></g><g id="xtick_18"><use xlink:href="#mb456deea45" id="line2d_35" x="139.84" y="143.721" style="stroke:#000;stroke-width:.5"/><use xlink:href="#m510a304784" id="line2d_36" x="139.84" y="16.084" style="stroke:#000;stroke-width:.5"/></g><g id="xtick_19"><use xlink:href="#mb456deea45" id="line2d_37" x="147.002" y="143.721" style="stroke:#000;stroke-width:.5"/><use xlink:href="#m510a304784" id="line2d_38" x="147.002" y="16.084" style="stroke:#000;stroke-width:.5"/></g><g id="xtick_20"><use xlink:href="#mb456deea45" id="line2d_39" x="154.164" y="143.721" style="stroke:#000;stroke-width:.5"/><use xlink:href="#m510a304784" id="line2d_40" x="154.164" y="16.084" style="stroke:#000;stroke-width:.5"/></g><g id="xtick_21"><use xlink:href="#mb456deea45" id="line2d_41" x="168.489" y="143.721" style="stroke:#000;stroke-width:.5"/><use xlink:href="#m510a304784" id="line2d_42" x="168.489" y="16.084" style="stroke:#000;stroke-width:.5"/></g><g id="xtick_22"><use xlink:href="#mb456deea45" id="line2d_43" x="175.651" y="143.721" style="stroke:#000;stroke-width:.5"/><use xlink:href="#m510a304784" id="line2d_44" x="175.651" y="16.084" style="stroke:#000;stroke-width:.5"/></g><g id="xtick_23"><use xlink:href="#mb456deea45" id="line2d_45" x="182.813" y="143.721" style="stroke:#000;stroke-width:.5"/><use xlink:href="#m510a304784" id="line2d_46" x="182.813" y="16.084" style="stroke:#000;stroke-width:.5"/></g><g id="xtick_24"><use xlink:href="#mb456deea45" id="line2d_47" x="189.975" y="143.721" style="stroke:#000;stroke-width:.5"/><use xlink:href="#m510a304784" id="line2d_48" x="189.975" y="16.084" style="stroke:#000;stroke-width:.5"/></g><g id="xtick_25"><use xlink:href="#mb456deea45" id="line2d_49" x="204.299" y="143.721" style="stroke:#000;stroke-width:.5"/><use xlink:href="#m510a304784" id="line2d_50" x="204.299" y="16.084" style="stroke:#000;stroke-width:.5"/></g><g id="xtick_26"><use xlink:href="#mb456deea45" id="line2d_51" x="211.461" y="143.721" style="stroke:#000;stroke-width:.5"/><use xlink:href="#m510a304784" id="line2d_52" x="211.461" y="16.084" style="stroke:#000;stroke-width:.5"/></g><g id="xtick_27"><use xlink:href="#mb456deea45" id="line2d_53" x="218.624" y="143.721" style="stroke:#000;stroke-width:.5"/><use xlink:href="#m510a304784" id="line2d_54" x="218.624" y="16.084" style="stroke:#000;stroke-width:.5"/></g><g id="text_6" transform="matrix(.08 0 0 -.08 117.462 164.327)"><defs><path id="NimbusRomNo9L-ReguItal-74" d="M1894 2752h-512l180 658c6 13 6 26 6 32 0 45-19 64-51 64-39 0-58-6-96-58-250-325-647-645-851-702-160-51-205-89-205-160 0-6 0-19 6-38h474L384 783c-13-58-19-77-38-134-58-193-109-418-109-470C237 39 371-64 544-64c294 0 506 179 909 775l-83 45c-314-404-416-507-519-507-57 0-96 51-96 128 0 7 0 13 7 32l563 2139h537z" transform="scale(.01563)"/><path id="CMR10-5b" d="M1632-1600v257h-621v5887h621v257H755v-6401z" transform="scale(.01563)"/><path id="NimbusRomNo9L-ReguItal-6e" d="m2944 739-134-167c-186-237-301-340-391-340-51 0-102 51-102 102 0 46 0 46 89 404l365 1322c32 134 58 275 58 365 0 231-173 391-423 391-409 0-812-384-1472-1410l429 1397-19 12c-346-70-480-95-1037-197v-108c327 0 410-38 410-167 0-39-7-77-13-109L90-12h480c300 1014 358 1156 640 1592 384 589 710 911 947 911 96 0 153-71 153-187 0-76-38-288-89-487L1939 758c-83-327-102-417-102-481 0-244 89-346 301-346 288 0 454 135 896 725z" transform="scale(.01563)"/><path id="NimbusRomNo9L-ReguItal-73" d="M230 945 102-83h103C256 29 294 64 358 64c71 0 186-30 314-69 141-55 250-78 352-78 538 0 922 346 922 832 0 243-135 525-436 896-243 300-345 499-345 672 0 211 134 346 358 346 333 0 525-240 589-743h102l128 896h-89c-51-96-103-123-192-123-45 0-109 15-231 51-160 58-256 72-358 72-467 0-774-274-774-702 0-204 134-479 403-824 249-326 358-549 358-734 0-288-192-492-473-492-352 0-551 266-653 881z" transform="scale(.01563)"/><path id="CMR10-5d" d="M1018 4801H141v-257h621v-5887H141v-257h877z" transform="scale(.01563)"/></defs><use xlink:href="#NimbusRomNo9L-ReguItal-74" transform="scale(.99626)"/><use xlink:href="#CMR10-5b" transform="matrix(.99626 0 0 .99626 56.608 0)"/><use xlink:href="#NimbusRomNo9L-ReguItal-6e" transform="matrix(.99626 0 0 .99626 84.204 0)"/><use xlink:href="#NimbusRomNo9L-ReguItal-73" transform="matrix(.99626 0 0 .99626 134.017 0)"/><use xlink:href="#CMR10-5d" transform="matrix(.99626 0 0 .99626 172.77 0)"/></g></g><g id="matplotlib.axis_2"><g id="ytick_1"><g id="line2d_55"><defs><path id="m01a8a77a51" d="M0 0h3" style="stroke:#000;stroke-width:.5"/></defs><use xlink:href="#m01a8a77a51" x="27.04" y="136.578" style="stroke:#000;stroke-width:.5"/></g><g id="line2d_56"><defs><path id="m4c83cb086c" d="M0 0h-3" style="stroke:#000;stroke-width:.5"/></defs><use xlink:href="#m4c83cb086c" x="223.92" y="136.578" style="stroke:#000;stroke-width:.5"/></g><use xlink:href="#NimbusRomNo9L-Regu-30" id="text_7" transform="matrix(.0797 0 0 -.0797 19.555 139.28)"/></g><g id="ytick_2"><use xlink:href="#m01a8a77a51" id="line2d_57" x="27.04" y="114.224" style="stroke:#000;stroke-width:.5"/><use xlink:href="#m4c83cb086c" id="line2d_58" x="223.92" y="114.224" style="stroke:#000;stroke-width:.5"/><use xlink:href="#NimbusRomNo9L-Regu-32" id="text_8" transform="matrix(.0797 0 0 -.0797 19.555 116.926)"/></g><g id="ytick_3"><use xlink:href="#m01a8a77a51" id="line2d_59" x="27.04" y="91.87" style="stroke:#000;stroke-width:.5"/><use xlink:href="#m4c83cb086c" id="line2d_60" x="223.92" y="91.87" style="stroke:#000;stroke-width:.5"/><g id="text_9" transform="matrix(.08 0 0 -.08 19.555 94.571)"><defs><path id="NimbusRomNo9L-Regu-34" d="M3021 1497h-653v2855h-282L77 1497v-409h1798V32h493v1056h653zm-1152 0H333l1536 2201z" transform="scale(.01563)"/></defs><use xlink:href="#NimbusRomNo9L-Regu-34" transform="scale(.99626)"/></g></g><g id="ytick_4"><use xlink:href="#m01a8a77a51" id="line2d_61" x="27.04" y="69.515" style="stroke:#000;stroke-width:.5"/><use xlink:href="#m4c83cb086c" id="line2d_62" x="223.92" y="69.515" style="stroke:#000;stroke-width:.5"/><g id="text_10" transform="matrix(.08 0 0 -.08 19.555 72.217)"><defs><path id="NimbusRomNo9L-Regu-36" d="M2854 4391c-729-64-1100-186-1568-512C595 3386 218 2656 218 1802c0-554 172-1114 448-1432C909 89 1254-64 1651-64c794 0 1344 605 1344 1485 0 815-467 1331-1203 1331-282 0-416-45-819-288 173 967 889 1658 1894 1824zM1549 2458c550 0 870-458 870-1254 0-700-249-1088-697-1088-564 0-909 598-909 1584 0 325 51 503 179 599 134 101 333 159 557 159" transform="scale(.01563)"/></defs><use xlink:href="#NimbusRomNo9L-Regu-36" transform="scale(.99626)"/></g></g><g id="ytick_5"><use xlink:href="#m01a8a77a51" id="line2d_63" x="27.04" y="47.161" style="stroke:#000;stroke-width:.5"/><use xlink:href="#m4c83cb086c" id="line2d_64" x="223.92" y="47.161" style="stroke:#000;stroke-width:.5"/><g id="text_11" transform="matrix(.08 0 0 -.08 19.555 49.863)"><defs><path id="NimbusRomNo9L-Regu-38" d="M1856 2400c634 340 858 608 858 1044 0 524-461 908-1101 908-698 0-1216-428-1216-1011 0-416 121-601 793-1190-691-525-832-723-832-1159C358 372 864-64 1587-64c768 0 1261 423 1261 1082 0 493-218 806-992 1382m-115-659c467-333 621-563 621-921 0-416-288-704-704-704-487 0-813 371-813 928 0 409 141 678 512 979zm-71 775c-569 371-800 665-800 1024 0 371 288 633 692 633 435 0 710-281 710-723 0-365-179-653-544-896-32-19-32-19-58-38" transform="scale(.01563)"/></defs><use xlink:href="#NimbusRomNo9L-Regu-38" transform="scale(.99626)"/></g></g><g id="ytick_6"><use xlink:href="#m01a8a77a51" id="line2d_65" x="27.04" y="24.807" style="stroke:#000;stroke-width:.5"/><use xlink:href="#m4c83cb086c" id="line2d_66" x="223.92" y="24.807" style="stroke:#000;stroke-width:.5"/><g id="text_12" transform="matrix(.08 0 0 -.08 15.57 27.509)"><use xlink:href="#NimbusRomNo9L-Regu-31" transform="scale(.99626)"/><use xlink:href="#NimbusRomNo9L-Regu-30" transform="matrix(.99626 0 0 .99626 49.813 0)"/></g></g><g id="ytick_7"><g id="line2d_67"><defs><path id="m33cb6ce74d" d="M0 0h1.5" style="stroke:#000;stroke-width:.5"/></defs><use xlink:href="#m33cb6ce74d" x="27.04" y="142.166" style="stroke:#000;stroke-width:.5"/></g><g id="line2d_68"><defs><path id="mf2ef6c1484" d="M0 0h-1.5" style="stroke:#000;stroke-width:.5"/></defs><use xlink:href="#mf2ef6c1484" x="223.92" y="142.166" style="stroke:#000;stroke-width:.5"/></g></g><g id="ytick_8"><use xlink:href="#m33cb6ce74d" id="line2d_69" x="27.04" y="130.989" style="stroke:#000;stroke-width:.5"/><use xlink:href="#mf2ef6c1484" id="line2d_70" x="223.92" y="130.989" style="stroke:#000;stroke-width:.5"/></g><g id="ytick_9"><use xlink:href="#m33cb6ce74d" id="line2d_71" x="27.04" y="125.401" style="stroke:#000;stroke-width:.5"/><use xlink:href="#mf2ef6c1484" id="line2d_72" x="223.92" y="125.401" style="stroke:#000;stroke-width:.5"/></g><g id="ytick_10"><use xlink:href="#m33cb6ce74d" id="line2d_73" x="27.04" y="119.812" style="stroke:#000;stroke-width:.5"/><use xlink:href="#mf2ef6c1484" id="line2d_74" x="223.92" y="119.812" style="stroke:#000;stroke-width:.5"/></g><g id="ytick_11"><use xlink:href="#m33cb6ce74d" id="line2d_75" x="27.04" y="108.635" style="stroke:#000;stroke-width:.5"/><use xlink:href="#mf2ef6c1484" id="line2d_76" x="223.92" y="108.635" style="stroke:#000;stroke-width:.5"/></g><g id="ytick_12"><use xlink:href="#m33cb6ce74d" id="line2d_77" x="27.04" y="103.047" style="stroke:#000;stroke-width:.5"/><use xlink:href="#mf2ef6c1484" id="line2d_78" x="223.92" y="103.047" style="stroke:#000;stroke-width:.5"/></g><g id="ytick_13"><use xlink:href="#m33cb6ce74d" id="line2d_79" x="27.04" y="97.458" style="stroke:#000;stroke-width:.5"/><use xlink:href="#mf2ef6c1484" id="line2d_80" x="223.92" y="97.458" style="stroke:#000;stroke-width:.5"/></g><g id="ytick_14"><use xlink:href="#m33cb6ce74d" id="line2d_81" x="27.04" y="86.281" style="stroke:#000;stroke-width:.5"/><use xlink:href="#mf2ef6c1484" id="line2d_82" x="223.92" y="86.281" style="stroke:#000;stroke-width:.5"/></g><g id="ytick_15"><use xlink:href="#m33cb6ce74d" id="line2d_83" x="27.04" y="80.692" style="stroke:#000;stroke-width:.5"/><use xlink:href="#mf2ef6c1484" id="line2d_84" x="223.92" y="80.692" style="stroke:#000;stroke-width:.5"/></g><g id="ytick_16"><use xlink:href="#m33cb6ce74d" id="line2d_85" x="27.04" y="75.104" style="stroke:#000;stroke-width:.5"/><use xlink:href="#mf2ef6c1484" id="line2d_86" x="223.92" y="75.104" style="stroke:#000;stroke-width:.5"/></g><g id="ytick_17"><use xlink:href="#m33cb6ce74d" id="line2d_87" x="27.04" y="63.927" style="stroke:#000;stroke-width:.5"/><use xlink:href="#mf2ef6c1484" id="line2d_88" x="223.92" y="63.927" style="stroke:#000;stroke-width:.5"/></g><g id="ytick_18"><use xlink:href="#m33cb6ce74d" id="line2d_89" x="27.04" y="58.338" style="stroke:#000;stroke-width:.5"/><use xlink:href="#mf2ef6c1484" id="line2d_90" x="223.92" y="58.338" style="stroke:#000;stroke-width:.5"/></g><g id="ytick_19"><use xlink:href="#m33cb6ce74d" id="line2d_91" x="27.04" y="52.75" style="stroke:#000;stroke-width:.5"/><use xlink:href="#mf2ef6c1484" id="line2d_92" x="223.92" y="52.75" style="stroke:#000;stroke-width:.5"/></g><g id="ytick_20"><use xlink:href="#m33cb6ce74d" id="line2d_93" x="27.04" y="41.573" style="stroke:#000;stroke-width:.5"/><use xlink:href="#mf2ef6c1484" id="line2d_94" x="223.92" y="41.573" style="stroke:#000;stroke-width:.5"/></g><g id="ytick_21"><use xlink:href="#m33cb6ce74d" id="line2d_95" x="27.04" y="35.984" style="stroke:#000;stroke-width:.5"/><use xlink:href="#mf2ef6c1484" id="line2d_96" x="223.92" y="35.984" style="stroke:#000;stroke-width:.5"/></g><g id="ytick_22"><use xlink:href="#m33cb6ce74d" id="line2d_97" x="27.04" y="30.396" style="stroke:#000;stroke-width:.5"/><use xlink:href="#mf2ef6c1484" id="line2d_98" x="223.92" y="30.396" style="stroke:#000;stroke-width:.5"/></g><g id="ytick_23"><use xlink:href="#m33cb6ce74d" id="line2d_99" x="27.04" y="19.218" style="stroke:#000;stroke-width:.5"/><use xlink:href="#mf2ef6c1484" id="line2d_100" x="223.92" y="19.218" style="stroke:#000;stroke-width:.5"/></g><g id="text_13" transform="matrix(0 -.08 -.08 0 9.578 97.843)"><defs><path id="NimbusRomNo9L-Regu-56" d="M4461 4231H3149v-135c352 0 467-70 467-250 0-102-45-274-122-466l-940-2347-967 2166c-211 468-262 615-262 711 0 122 89 186 294 186 26 0 96 0 186 13v122H102v-135c314 0 404-89 679-657L2355-64h96l1421 3585c211 505 282 575 589 575z" transform="scale(.01563)"/><path id="NimbusRomNo9L-Regu-6f" d="M1600 2944c-832 0-1414-614-1414-1498C186 582 781-64 1587-64c807 0 1421 678 1421 1562 0 838-589 1446-1408 1446m-83-179c537 0 915-615 915-1491 0-724-288-1159-768-1159-250 0-486 154-621 410-179 333-281 781-281 1235 0 608 300 1005 755 1005" transform="scale(.01563)"/><path id="NimbusRomNo9L-Regu-6c" d="M122 4000h236c205 0 269-90 269-390V557c0-346-89-429-493-461V0h1511v109c-403 0-480 64-480 419v3843l-26 13c-333-109-576-173-1017-281z" transform="scale(.01563)"/><path id="NimbusRomNo9L-Regu-74" d="M1632 2880H986v742c0 64-7 84-45 84-45-58-83-116-128-180-243-352-519-659-621-685-70-47-109-93-109-126 0-20 7-33 26-33h339V751c0-539 192-815 570-815 313 0 556 154 768 487l-84 70c-134-160-243-224-384-224-236 0-332 174-332 578v1835h646z" transform="scale(.01563)"/><path id="NimbusRomNo9L-Regu-61" d="M2829 423c-109-90-186-122-282-122-147 0-192 89-192 371v1248c0 333-32 518-128 672-141 230-416 352-793 352-602 0-1076-314-1076-717 0-147 128-275 276-275 153 0 288 128 288 269 0 25-7 57-13 102-13 58-19 109-19 154 0 173 204 313 460 313 314 0 487-185 487-531v-390c-986-397-1095-448-1370-691-141-128-230-346-230-557 0-403 281-685 672-685 281 0 544 134 934 467 32-333 147-467 410-467 217 0 352 77 576 320zm-992 360c0-199-32-257-167-334-153-90-332-148-467-148-224 0-403 219-403 495v26c0 379 262 611 1037 893z" transform="scale(.01563)"/><path id="NimbusRomNo9L-Regu-67" d="M3008 2496v250h-493c-128 0-224 17-352 56l-141 45c-172 56-345 84-512 84-595 0-1068-464-1068-1050 0-405 172-651 595-863-122-112-237-219-275-250-212-180-295-305-295-430 0-132 77-207 339-332-454-335-627-549-627-787 0-343 499-627 1107-627 480 0 980 170 1312 446 244 203 352 414 352 663 0 407-300 683-774 683h-826c-339 0-499 59-499 164 0 130 211 360 384 412 58-7 103-13 122-13 121-13 205-19 243-19 237 0 493 98 691 275 211 184 307 414 307 742 0 190-32 341-121 551zM941-13c211-45 723-83 1037-83 582 0 793-84 793-318 0-377-486-629-1209-629-564 0-935 188-935 473 0 150 45 234 314 557m32 2158c0 381 179 607 473 607 199 0 365-110 468-303 115-226 192-522 192-774 0-361-186-587-480-587-384 0-653 419-653 1038z" transform="scale(.01563)"/><path id="NimbusRomNo9L-Regu-65" d="M2611 1053c-307-489-582-675-992-675-365 0-640 186-825 552-116 244-160 456-173 849h1971c-51 414-115 598-275 802-192 230-487 363-819 363-320 0-621-115-864-333-301-262-474-717-474-1241C160 486 621-64 1357-64c608 0 1088 379 1357 1072zM634 1984c70 495 288 730 678 730s544-179 627-730z" transform="scale(.01563)"/><path id="NimbusRomNo9L-ReguItal-56" d="M4403 4140H3213v-102c288-32 403-96 403-218 0-121-122-397-333-762L1965 776l-423 2840c-6 32-6 57-6 95 0 219 90 282 493 327v102H486v-102c359-45 372-64 506-865l544-3333h122l2387 3942c109 173 211 250 358 250z" transform="scale(.01563)"/></defs><use xlink:href="#NimbusRomNo9L-Regu-56" transform="scale(.99626)"/><use xlink:href="#NimbusRomNo9L-Regu-6f" transform="matrix(.99626 0 0 .99626 59.079 0)"/><use xlink:href="#NimbusRomNo9L-Regu-6c" transform="matrix(.99626 0 0 .99626 108.892 0)"/><use xlink:href="#NimbusRomNo9L-Regu-74" transform="matrix(.99626 0 0 .99626 136.587 0)"/><use xlink:href="#NimbusRomNo9L-Regu-61" transform="matrix(.99626 0 0 .99626 164.282 0)"/><use xlink:href="#NimbusRomNo9L-Regu-67" transform="matrix(.99626 0 0 .99626 208.516 0)"/><use xlink:href="#NimbusRomNo9L-Regu-65" transform="matrix(.99626 0 0 .99626 258.33 0)"/><use xlink:href="#CMR10-5b" transform="matrix(.99626 0 0 .99626 324.702 0)"/><use xlink:href="#NimbusRomNo9L-ReguItal-56" transform="matrix(.99626 0 0 .99626 347.316 0)"/><use xlink:href="#CMR10-5d" transform="matrix(.99626 0 0 .99626 420.84 0)"/></g></g><path id="line2d_101" d="m35.99 137.71.429-.089.43-.06.43-.089.5-.09.932.269 1.217-.09.788-.208 2.722.09.215.089.86-.269 1.647.567 1.432-.09.286-.119.359-.09.43-.059.286-.09.788-.238.358.03.215.06.286.119 1.146-.09.501-.089 1.72.09.357.03 1.576.089.43.06.43-.09 1.074.328.43.09.572.118.43-.06.287-.089.286-.149.287-.09.788-.536.358.09.358.03.286.089 1.433.477.43-.09.357.03 1.863-.09.644-.148.86.238.215.06.358.179h.286l.645-.09.43-.06.43-.059.357-.179h.215l.358-.03.43-.06.358-.178.358-.03 1.504.09.645.149.358-.09.501-.09 1.146-.089.358-.178h.287l.358.03 1.074-.329.287.09 1.289.417.358.09.788.208 1.003.09.716.208.286-.03.358.03 1.504-.506 1.433.06.215.089.215-.09.5-.09 1.577.09.644.15.788-.09.286-.03.717.209.286-.03.358.03.573.09h.215l.788-.21 1.647-.089 1.648-.566.859.09 1.36.476.502-.12.358.03.502.06.286.12 1.218-.09 1.432-.477 1.79.626 2.15-.805 1.288.418.359.089.358.06.86-.239.357-.06.287-.148.358.03 1.217.089 1.003.328.645-.18.43.06 1.145-.357.287.149.644.06.287.119.358.089.286.149.287-.09.215-.089.215.09.358.03.501.089.143.06.788-.239.287.03h.286l.573-.09.358-.06.502.299.86-.239.357.03.788-.208.716-.06.358-.566.43-1.073.358-1.67.358-2.712.645-7.213.788-11.892 1.36-20.864.645-6.855.501-3.339.43-1.758.358-.596.86-.596.358-.03.215.06.358.178.43-.268 1.36-.06.215-.089 2.22-.09.359-.03.5-.089.789-.208.286.09.287.148.501.09.931.685.86-.238h.286l1.003-.298.358.06.644-.15.359.09.214-.03.788-.209.717-.09.644-.178.358.03.358-.03.717.179.43.09.715.178.287-.09.788-.208h.286l.716-.477 2.15.775 2.22-.805.787.567.287.089.43.06.358.06.214.089.86-.269.215-.03h.501l1.432-.715.86-.804.358-.805.43-1.58.501-3.04.501-4.71.932-11.236 1.074-12.638.788-6.557.573-3.01.501-1.729.645-1.311.644-1.252.573-1.133.931-1.37.931-.657 1.075-.566.43-.238.716-.09.573-.357 1.36-.448.215.09.716.09.43.059.645-.09.788-.208.214-.06.215-.09.358.18.43-.09.43-.06.931-.089.358-.179.573.12.43-.239.43-.06.286.03.931-.268.645.09.358.03.644-.15 1.218-.06.358-.178 1.432.09h.502l.286.03.287-.03.358.03.788.088.43.239 1.217-.09 1.074-.327 1.862.09.43.059.287-.06.286-.12.645.15.93.09.287.208.287.209.43-.12.358.328.286.239 1.218 1.132.286.328.287.239.43.387.716.477 1.575-.09.358-.268.358-.179.86-.268h.215l.573-.357.286-.12.287.03.286-.149.43-.06.716-.476.43.089.286-.03h.287l.716-.208.501.089.502-.09.788-.208.501-.09.358-.03 1.432.09.287.15.573-.09.286-.15.287.03h0" clip-path="url(#p43e9846e0c)" style="fill:none;stroke:#000;stroke-linecap:square"/><path id="patch_3" d="M27.04 143.72V16.085" style="fill:none;stroke:#000;stroke-width:.5;stroke-linejoin:miter;stroke-linecap:square"/><path id="patch_4" d="M223.92 143.72V16.085" style="fill:none;stroke:#000;stroke-width:.5;stroke-linejoin:miter;stroke-linecap:square"/><path id="patch_5" d="M27.04 143.72h196.88" style="fill:none;stroke:#000;stroke-width:.5;stroke-linejoin:miter;stroke-linecap:square"/><path id="patch_6" d="M27.04 16.084h196.88" style="fill:none;stroke:#000;stroke-width:.5;stroke-linejoin:miter;stroke-linecap:square"/><g id="text_14" transform="matrix(.096 0 0 -.096 86.296 10.084)"><defs><path id="NimbusRomNo9L-Regu-4d" d="M4314 3667V751c0-534-77-617-583-617V0h1792v134c-467 0-557 89-557 547v2855c0 457 84 541 557 579v122H4250L2835 1004 1357 4237H90v-141c524 0 608-77 608-546V943c0-661-90-784-621-822V0h1504v134c-493 0-602 148-602 797v2589L2586 0h89z" transform="scale(.01563)"/><path id="NimbusRomNo9L-Regu-78" d="M1779 0h1287v96c-199 0-327 102-525 384l-819 1255 531 767c121 173 313 276 518 276v102H1760v-102c192 0 256-38 256-129 0-78-77-219-237-420-32-38-109-154-192-283l-89 128c-180 268-295 486-295 569 0 90 83 135 275 135v102H154v-102h57c192 0 295-83 493-382l602-917L576 422C384 160 320 115 109 96V0h928v96c-179 0-256 32-256 115 0 39 45 135 128 263l505 787 583-896c25-39 38-77 38-115 0-127-45-154-256-154z" transform="scale(.01563)"/><path id="NimbusRomNo9L-Regu-69" d="m1120 2929-992-350v-95l51 6c77 12 160 19 218 19 153 0 211-103 211-384V640c0-461-64-531-506-531V0h1517v96c-422 32-473 95-473 554v2260zM819 4352c-173 0-320-147-320-326s141-327 320-327c186 0 333 141 333 327 0 179-147 326-333 326" transform="scale(.01563)"/><path id="NimbusRomNo9L-Regu-6d" d="M122 2547c83 19 134 26 204 26 167 0 224-103 224-411V539c0-347-89-443-448-443V0h1421v96c-339 0-435 70-435 322v1816c0 12 51 76 96 121 160 147 435 256 659 256 282 0 423-226 423-679V528c0-361-71-432-436-432V0h1434v96c-365 0-461 109-461 507v1618c192 275 403 390 698 390 365 0 480-173 480-704V557c0-365-51-416-423-461V0h1402v96l-166 19c-192 0-276 115-276 365v1322c0 757-249 1142-742 1142-371 0-698-166-1043-537-115 364-333 537-679 537-281 0-460-90-992-493v480l-44 13c-327-122-544-192-896-288z" transform="scale(.01563)"/><path id="NimbusRomNo9L-Regu-75" d="M3066 320h-32c-295 0-365 70-365 365v2195H1658v-122c396 0 473-64 473-383V875c0-178-32-268-121-338-173-140-372-217-564-217-249 0-454 217-454 485v2075H58v-102c307 0 396-96 396-391V770c0-507 308-834 775-834 237 0 486 102 659 275l275 275V-45l26-13c320 128 550 199 877 288z" transform="scale(.01563)"/><path id="NimbusRomNo9L-Regu-72" d="M45 2496c89 19 147 26 224 26 160 0 217-103 217-384V538c0-320-44-365-454-442V0h1536v102c-435 0-544 97-544 463v1448c0 206 275 528 448 528 38 0 96-32 166-96 103-90 173-128 256-128 154 0 250 109 250 288 0 211-134 339-352 339-269 0-454-147-768-601v588l-32 13c-339-141-570-223-947-345z" transform="scale(.01563)"/><path id="NimbusRomNo9L-Regu-3" d="M205 2675h441V637c0-293-38-456-128-515-64-45-128-58-313-58V-38h1433v96c-364 39-454 117-454 416v2201h1203V507c0-319-96-423-429-449v-96h1376v96c-345 26-409 90-409 424v3857l-32 13c-51-6-122-32-199-70-121-58-211-90-268-90-32 0-96 19-192 51-180 71-365 109-519 109-301 0-595-151-774-398-192-271-256-518-282-1074H205zm2182 205H1184v328c0 656 134 971 416 971 141 0 218-50 333-221 121-176 205-232 352-232 45 0 70 12 102 44z" transform="scale(.01563)"/><path id="NimbusRomNo9L-Regu-63" d="M2547 998c-307-448-537-601-902-601-583 0-992 512-992 1248 0 659 352 1113 870 1113 231 0 314-70 378-307l38-141c51-179 167-294 301-294 166 0 307 122 307 269 0 358-448 659-985 659-314 0-640-128-903-358-320-282-499-717-499-1223C160 531 666-64 1376-64c288 0 544 102 774 301 173 153 295 326 487 704z" transform="scale(.01563)"/><path id="NimbusRomNo9L-Regu-6e" d="M102 2579c39 19 103 26 173 26 179 0 237-96 237-410V608c0-365-70-454-397-480V32h1357v96c-326 26-422 102-422 333v1798c307 288 448 365 659 365 313 0 467-198 467-621V666c0-404-83-512-403-538V32h1331v96c-314 32-390 109-390 422v1466c0 602-282 960-756 960-294 0-492-109-928-518v505l-44 13c-314-115-532-186-884-288z" transform="scale(.01563)"/></defs><use xlink:href="#NimbusRomNo9L-Regu-4d" transform="scale(.99626)"/><use xlink:href="#NimbusRomNo9L-Regu-61" transform="matrix(.99626 0 0 .99626 88.567 0)"/><use xlink:href="#NimbusRomNo9L-Regu-78" transform="matrix(.99626 0 0 .99626 132.8 0)"/><use xlink:href="#NimbusRomNo9L-Regu-69" transform="matrix(.99626 0 0 .99626 182.614 0)"/><use xlink:href="#NimbusRomNo9L-Regu-6d" transform="matrix(.99626 0 0 .99626 210.309 0)"/><use xlink:href="#NimbusRomNo9L-Regu-75" transform="matrix(.99626 0 0 .99626 287.817 0)"/><use xlink:href="#NimbusRomNo9L-Regu-6d" transform="matrix(.99626 0 0 .99626 337.63 0)"/><use xlink:href="#NimbusRomNo9L-Regu-72" transform="matrix(.99626 0 0 .99626 440.045 0)"/><use xlink:href="#NimbusRomNo9L-Regu-65" transform="matrix(.99626 0 0 .99626 473.22 0)"/><use xlink:href="#NimbusRomNo9L-Regu-3" transform="matrix(.99626 0 0 .99626 517.454 0)"/><use xlink:href="#NimbusRomNo9L-Regu-65" transform="matrix(.99626 0 0 .99626 572.846 0)"/><use xlink:href="#NimbusRomNo9L-Regu-63" transform="matrix(.99626 0 0 .99626 617.08 0)"/><use xlink:href="#NimbusRomNo9L-Regu-74" transform="matrix(.99626 0 0 .99626 661.313 0)"/><use xlink:href="#NimbusRomNo9L-Regu-69" transform="matrix(.99626 0 0 .99626 689.008 0)"/><use xlink:href="#NimbusRomNo9L-Regu-6f" transform="matrix(.99626 0 0 .99626 716.703 0)"/><use xlink:href="#NimbusRomNo9L-Regu-6e" transform="matrix(.99626 0 0 .99626 766.517 0)"/></g></g></g><defs><clipPath id="p43e9846e0c"><path d="M27.04 16.084h196.88V143.72H27.04z"/></clipPath></defs></svg>