<svg xmlns="http://www.w3.org/2000/svg" xmlns:xlink="http://www.w3.org/1999/xlink" width="562.56" height="280.32" viewBox="0 0 421.92 210.24"><defs><style>*{stroke-linejoin:round;stroke-linecap:butt}</style></defs><g id="figure_1"><path id="patch_1" d="M0 210.24h421.92V0H0z" style="fill:none"/><g id="axes_1"><path id="patch_2" d="M23.055 184.04H206.64V37.6H23.055z" style="fill:none"/><g id="matplotlib.axis_1"><g id="xtick_1"><g id="line2d_1"><defs><path id="mc732b2980d" d="M0 0v-3" style="stroke:#000;stroke-width:.5"/></defs><use xlink:href="#mc732b2980d" x="48.096" y="184.041" style="stroke:#000;stroke-width:.5"/></g><g id="line2d_2"><defs><path id="m1ab1a119ee" d="M0 0v3" style="stroke:#000;stroke-width:.5"/></defs><use xlink:href="#m1ab1a119ee" x="48.096" y="37.599" style="stroke:#000;stroke-width:.5"/></g><g id="text_1" transform="matrix(.08 0 0 -.08 39.022 192.944)"><defs><path id="CMSY10-0" d="M4218 1472c108 0 224 0 224 128s-116 128-224 128H755c-109 0-224 0-224-128s115-128 224-128z" transform="scale(.01563)"/><path id="NimbusRomNo9L-Regu-31" d="M1862 4339 710 3757v-90c77 32 148 58 173 71 115 45 224 70 288 70 135 0 192-97 192-303V592c0-213-51-360-153-419-96-57-186-77-455-77V0h1767v96c-506 0-608 64-608 374v3857z" transform="scale(.01563)"/><path id="NimbusRomNo9L-Regu-30" d="M1626 4352c-352 0-621-108-858-332-371-359-614-1095-614-1844 0-697 211-1446 512-1804C902 90 1229-64 1600-64c326 0 602 109 832 333 371 352 614 1095 614 1869 0 1312-582 2214-1420 2214m-20-166c538 0 826-723 826-2061 0-1337-282-2022-832-2022S768 788 768 2119c0 1357 288 2067 838 2067" transform="scale(.01563)"/></defs><use xlink:href="#CMSY10-0" transform="scale(.99626)"/><use xlink:href="#NimbusRomNo9L-Regu-31" transform="matrix(.99626 0 0 .99626 77.409 0)"/><use xlink:href="#NimbusRomNo9L-Regu-30" transform="matrix(.99626 0 0 .99626 127.222 0)"/><use xlink:href="#NimbusRomNo9L-Regu-30" transform="matrix(.99626 0 0 .99626 177.035 0)"/></g></g><g id="xtick_2"><use xlink:href="#mc732b2980d" id="line2d_3" x="81.489" y="184.041" style="stroke:#000;stroke-width:.5"/><use xlink:href="#m1ab1a119ee" id="line2d_4" x="81.489" y="37.599" style="stroke:#000;stroke-width:.5"/><g id="text_2" transform="matrix(.08 0 0 -.08 74.407 192.944)"><defs><path id="NimbusRomNo9L-Regu-35" d="M1158 3776h1255c102 0 128 13 147 58l243 569-57 45c-96-134-160-166-295-166H1114L416 2759c-6-13-6-19-6-32 0-32 25-51 76-51 205 0 461-45 724-129 736-238 1075-637 1075-1273 0-618-391-1101-890-1101-128 0-237 45-429 187-204 148-352 212-486 212-186 0-275-77-275-238C205 90 506-64 986-64c537 0 998 174 1318 502 294 290 429 656 429 1145 0 463-122 759-442 1080-281 284-646 431-1401 566z" transform="scale(.01563)"/></defs><use xlink:href="#CMSY10-0" transform="scale(.99626)"/><use xlink:href="#NimbusRomNo9L-Regu-35" transform="matrix(.99626 0 0 .99626 77.409 0)"/><use xlink:href="#NimbusRomNo9L-Regu-30" transform="matrix(.99626 0 0 .99626 127.222 0)"/></g></g><g id="xtick_3"><use xlink:href="#mc732b2980d" id="line2d_5" x="114.881" y="184.041" style="stroke:#000;stroke-width:.5"/><use xlink:href="#m1ab1a119ee" id="line2d_6" x="114.881" y="37.599" style="stroke:#000;stroke-width:.5"/><use xlink:href="#NimbusRomNo9L-Regu-30" id="text_3" transform="matrix(.0797 0 0 -.0797 112.888 192.944)"/></g><g id="xtick_4"><use xlink:href="#mc732b2980d" id="line2d_7" x="148.273" y="184.041" style="stroke:#000;stroke-width:.5"/><use xlink:href="#m1ab1a119ee" id="line2d_8" x="148.273" y="37.599" style="stroke:#000;stroke-width:.5"/><g id="text_4" transform="matrix(.08 0 0 -.08 144.288 192.944)"><use xlink:href="#NimbusRomNo9L-Regu-35" transform="scale(.99626)"/><use xlink:href="#NimbusRomNo9L-Regu-30" transform="matrix(.99626 0 0 .99626 49.813 0)"/></g></g><g id="xtick_5"><use xlink:href="#mc732b2980d" id="line2d_9" x="181.666" y="184.041" style="stroke:#000;stroke-width:.5"/><use xlink:href="#m1ab1a119ee" id="line2d_10" x="181.666" y="37.599" style="stroke:#000;stroke-width:.5"/><g id="text_5" transform="matrix(.08 0 0 -.08 175.688 192.944)"><use xlink:href="#NimbusRomNo9L-Regu-31" transform="scale(.99626)"/><use xlink:href="#NimbusRomNo9L-Regu-30" transform="matrix(.99626 0 0 .99626 49.813 0)"/><use xlink:href="#NimbusRomNo9L-Regu-30" transform="matrix(.99626 0 0 .99626 99.626 0)"/></g></g><g id="xtick_6"><g id="line2d_11"><defs><path id="me70ea22dcb" d="M0 0v-1.5" style="stroke:#000;stroke-width:.5"/></defs><use xlink:href="#me70ea22dcb" x="28.061" y="184.041" style="stroke:#000;stroke-width:.5"/></g><g id="line2d_12"><defs><path id="m185779f160" d="M0 0v1.5" style="stroke:#000;stroke-width:.5"/></defs><use xlink:href="#m185779f160" x="28.061" y="37.599" style="stroke:#000;stroke-width:.5"/></g></g><g id="xtick_7"><use xlink:href="#me70ea22dcb" id="line2d_13" x="34.739" y="184.041" style="stroke:#000;stroke-width:.5"/><use xlink:href="#m185779f160" id="line2d_14" x="34.739" y="37.599" style="stroke:#000;stroke-width:.5"/></g><g id="xtick_8"><use xlink:href="#me70ea22dcb" id="line2d_15" x="41.418" y="184.041" style="stroke:#000;stroke-width:.5"/><use xlink:href="#m185779f160" id="line2d_16" x="41.418" y="37.599" style="stroke:#000;stroke-width:.5"/></g><g id="xtick_9"><use xlink:href="#me70ea22dcb" id="line2d_17" x="54.775" y="184.041" style="stroke:#000;stroke-width:.5"/><use xlink:href="#m185779f160" id="line2d_18" x="54.775" y="37.599" style="stroke:#000;stroke-width:.5"/></g><g id="xtick_10"><use xlink:href="#me70ea22dcb" id="line2d_19" x="61.453" y="184.041" style="stroke:#000;stroke-width:.5"/><use xlink:href="#m185779f160" id="line2d_20" x="61.453" y="37.599" style="stroke:#000;stroke-width:.5"/></g><g id="xtick_11"><use xlink:href="#me70ea22dcb" id="line2d_21" x="68.132" y="184.041" style="stroke:#000;stroke-width:.5"/><use xlink:href="#m185779f160" id="line2d_22" x="68.132" y="37.599" style="stroke:#000;stroke-width:.5"/></g><g id="xtick_12"><use xlink:href="#me70ea22dcb" id="line2d_23" x="74.81" y="184.041" style="stroke:#000;stroke-width:.5"/><use xlink:href="#m185779f160" id="line2d_24" x="74.81" y="37.599" style="stroke:#000;stroke-width:.5"/></g><g id="xtick_13"><use xlink:href="#me70ea22dcb" id="line2d_25" x="88.167" y="184.041" style="stroke:#000;stroke-width:.5"/><use xlink:href="#m185779f160" id="line2d_26" x="88.167" y="37.599" style="stroke:#000;stroke-width:.5"/></g><g id="xtick_14"><use xlink:href="#me70ea22dcb" id="line2d_27" x="94.846" y="184.041" style="stroke:#000;stroke-width:.5"/><use xlink:href="#m185779f160" id="line2d_28" x="94.846" y="37.599" style="stroke:#000;stroke-width:.5"/></g><g id="xtick_15"><use xlink:href="#me70ea22dcb" id="line2d_29" x="101.524" y="184.041" style="stroke:#000;stroke-width:.5"/><use xlink:href="#m185779f160" id="line2d_30" x="101.524" y="37.599" style="stroke:#000;stroke-width:.5"/></g><g id="xtick_16"><use xlink:href="#me70ea22dcb" id="line2d_31" x="108.202" y="184.041" style="stroke:#000;stroke-width:.5"/><use xlink:href="#m185779f160" id="line2d_32" x="108.202" y="37.599" style="stroke:#000;stroke-width:.5"/></g><g id="xtick_17"><use xlink:href="#me70ea22dcb" id="line2d_33" x="121.559" y="184.041" style="stroke:#000;stroke-width:.5"/><use xlink:href="#m185779f160" id="line2d_34" x="121.559" y="37.599" style="stroke:#000;stroke-width:.5"/></g><g id="xtick_18"><use xlink:href="#me70ea22dcb" id="line2d_35" x="128.238" y="184.041" style="stroke:#000;stroke-width:.5"/><use xlink:href="#m185779f160" id="line2d_36" x="128.238" y="37.599" style="stroke:#000;stroke-width:.5"/></g><g id="xtick_19"><use xlink:href="#me70ea22dcb" id="line2d_37" x="134.916" y="184.041" style="stroke:#000;stroke-width:.5"/><use xlink:href="#m185779f160" id="line2d_38" x="134.916" y="37.599" style="stroke:#000;stroke-width:.5"/></g><g id="xtick_20"><use xlink:href="#me70ea22dcb" id="line2d_39" x="141.595" y="184.041" style="stroke:#000;stroke-width:.5"/><use xlink:href="#m185779f160" id="line2d_40" x="141.595" y="37.599" style="stroke:#000;stroke-width:.5"/></g><g id="xtick_21"><use xlink:href="#me70ea22dcb" id="line2d_41" x="154.952" y="184.041" style="stroke:#000;stroke-width:.5"/><use xlink:href="#m185779f160" id="line2d_42" x="154.952" y="37.599" style="stroke:#000;stroke-width:.5"/></g><g id="xtick_22"><use xlink:href="#me70ea22dcb" id="line2d_43" x="161.63" y="184.041" style="stroke:#000;stroke-width:.5"/><use xlink:href="#m185779f160" id="line2d_44" x="161.63" y="37.599" style="stroke:#000;stroke-width:.5"/></g><g id="xtick_23"><use xlink:href="#me70ea22dcb" id="line2d_45" x="168.309" y="184.041" style="stroke:#000;stroke-width:.5"/><use xlink:href="#m185779f160" id="line2d_46" x="168.309" y="37.599" style="stroke:#000;stroke-width:.5"/></g><g id="xtick_24"><use xlink:href="#me70ea22dcb" id="line2d_47" x="174.987" y="184.041" style="stroke:#000;stroke-width:.5"/><use xlink:href="#m185779f160" id="line2d_48" x="174.987" y="37.599" style="stroke:#000;stroke-width:.5"/></g><g id="xtick_25"><use xlink:href="#me70ea22dcb" id="line2d_49" x="188.344" y="184.041" style="stroke:#000;stroke-width:.5"/><use xlink:href="#m185779f160" id="line2d_50" x="188.344" y="37.599" style="stroke:#000;stroke-width:.5"/></g><g id="xtick_26"><use xlink:href="#me70ea22dcb" id="line2d_51" x="195.023" y="184.041" style="stroke:#000;stroke-width:.5"/><use xlink:href="#m185779f160" id="line2d_52" x="195.023" y="37.599" style="stroke:#000;stroke-width:.5"/></g><g id="xtick_27"><use xlink:href="#me70ea22dcb" id="line2d_53" x="201.701" y="184.041" style="stroke:#000;stroke-width:.5"/><use xlink:href="#m185779f160" id="line2d_54" x="201.701" y="37.599" style="stroke:#000;stroke-width:.5"/></g><g id="text_6" transform="matrix(.08 0 0 -.08 106.83 204.647)"><defs><path id="NimbusRomNo9L-ReguItal-74" d="M1894 2752h-512l180 658c6 13 6 26 6 32 0 45-19 64-51 64-39 0-58-6-96-58-250-325-647-645-851-702-160-51-205-89-205-160 0-6 0-19 6-38h474L384 783c-13-58-19-77-38-134-58-193-109-418-109-470C237 39 371-64 544-64c294 0 506 179 909 775l-83 45c-314-404-416-507-519-507-57 0-96 51-96 128 0 7 0 13 7 32l563 2139h537z" transform="scale(.01563)"/><path id="CMR10-5b" d="M1632-1600v257h-621v5887h621v257H755v-6401z" transform="scale(.01563)"/><path id="NimbusRomNo9L-ReguItal-6e" d="m2944 739-134-167c-186-237-301-340-391-340-51 0-102 51-102 102 0 46 0 46 89 404l365 1322c32 134 58 275 58 365 0 231-173 391-423 391-409 0-812-384-1472-1410l429 1397-19 12c-346-70-480-95-1037-197v-108c327 0 410-38 410-167 0-39-7-77-13-109L90-12h480c300 1014 358 1156 640 1592 384 589 710 911 947 911 96 0 153-71 153-187 0-76-38-288-89-487L1939 758c-83-327-102-417-102-481 0-244 89-346 301-346 288 0 454 135 896 725z" transform="scale(.01563)"/><path id="NimbusRomNo9L-ReguItal-73" d="M230 945 102-83h103C256 29 294 64 358 64c71 0 186-30 314-69 141-55 250-78 352-78 538 0 922 346 922 832 0 243-135 525-436 896-243 300-345 499-345 672 0 211 134 346 358 346 333 0 525-240 589-743h102l128 896h-89c-51-96-103-123-192-123-45 0-109 15-231 51-160 58-256 72-358 72-467 0-774-274-774-702 0-204 134-479 403-824 249-326 358-549 358-734 0-288-192-492-473-492-352 0-551 266-653 881z" transform="scale(.01563)"/><path id="CMR10-5d" d="M1018 4801H141v-257h621v-5887H141v-257h877z" transform="scale(.01563)"/></defs><use xlink:href="#NimbusRomNo9L-ReguItal-74" transform="scale(.99626)"/><use xlink:href="#CMR10-5b" transform="matrix(.99626 0 0 .99626 56.608 0)"/><use xlink:href="#NimbusRomNo9L-ReguItal-6e" transform="matrix(.99626 0 0 .99626 84.204 0)"/><use xlink:href="#NimbusRomNo9L-ReguItal-73" transform="matrix(.99626 0 0 .99626 134.017 0)"/><use xlink:href="#CMR10-5d" transform="matrix(.99626 0 0 .99626 172.77 0)"/></g></g><g id="matplotlib.axis_2"><g id="ytick_1"><g id="line2d_55"><defs><path id="m63ee4e25cd" d="M0 0h3" style="stroke:#000;stroke-width:.5"/></defs><use xlink:href="#m63ee4e25cd" x="23.055" y="175.432" style="stroke:#000;stroke-width:.5"/></g><g id="line2d_56"><defs><path id="m16ea685b06" d="M0 0h-3" style="stroke:#000;stroke-width:.5"/></defs><use xlink:href="#m16ea685b06" x="206.64" y="175.432" style="stroke:#000;stroke-width:.5"/></g><use xlink:href="#NimbusRomNo9L-Regu-30" id="text_7" transform="matrix(.0797 0 0 -.0797 15.57 178.134)"/></g><g id="ytick_2"><use xlink:href="#m63ee4e25cd" id="line2d_57" x="23.055" y="149.28" style="stroke:#000;stroke-width:.5"/><use xlink:href="#m16ea685b06" id="line2d_58" x="206.64" y="149.28" style="stroke:#000;stroke-width:.5"/><use xlink:href="#NimbusRomNo9L-Regu-31" id="text_8" transform="matrix(.0797 0 0 -.0797 15.57 151.982)"/></g><g id="ytick_3"><use xlink:href="#m63ee4e25cd" id="line2d_59" x="23.055" y="123.129" style="stroke:#000;stroke-width:.5"/><use xlink:href="#m16ea685b06" id="line2d_60" x="206.64" y="123.129" style="stroke:#000;stroke-width:.5"/><g id="text_9" transform="matrix(.08 0 0 -.08 15.57 125.83)"><defs><path id="NimbusRomNo9L-Regu-32" d="m3040 875-83 32c-237-363-320-421-608-421H819l1075 1123c570 593 820 1078 820 1576 0 638-519 1128-1184 1128-352 0-685-140-922-395-205-218-301-422-410-875l135-32c256 625 486 829 928 829 537 0 902-364 902-900 0-497-294-1090-832-1658L192 77V0h2496z" transform="scale(.01563)"/></defs><use xlink:href="#NimbusRomNo9L-Regu-32" transform="scale(.99626)"/></g></g><g id="ytick_4"><use xlink:href="#m63ee4e25cd" id="line2d_61" x="23.055" y="96.977" style="stroke:#000;stroke-width:.5"/><use xlink:href="#m16ea685b06" id="line2d_62" x="206.64" y="96.977" style="stroke:#000;stroke-width:.5"/><g id="text_10" transform="matrix(.08 0 0 -.08 15.57 99.679)"><defs><path id="NimbusRomNo9L-Regu-33" d="M979 2138c378 0 525-13 679-70 396-141 646-506 646-948 0-537-365-953-838-953-173 0-301 45-538 198-192 115-301 160-410 160-147 0-243-89-243-224C275 77 550-64 998-64c493 0 999 167 1300 429 300 263 467 634 467 1063 0 326-103 627-288 825-128 141-250 218-531 339 441 301 601 538 601 884 0 518-409 876-998 876-320 0-602-108-832-313-192-173-288-340-429-724l96-25c262 467 550 678 954 678 416 0 704-281 704-684 0-231-96-461-256-621-192-192-372-288-807-442z" transform="scale(.01563)"/></defs><use xlink:href="#NimbusRomNo9L-Regu-33" transform="scale(.99626)"/></g></g><g id="ytick_5"><use xlink:href="#m63ee4e25cd" id="line2d_63" x="23.055" y="70.826" style="stroke:#000;stroke-width:.5"/><use xlink:href="#m16ea685b06" id="line2d_64" x="206.64" y="70.826" style="stroke:#000;stroke-width:.5"/><g id="text_11" transform="matrix(.08 0 0 -.08 15.57 73.528)"><defs><path id="NimbusRomNo9L-Regu-34" d="M3021 1497h-653v2855h-282L77 1497v-409h1798V32h493v1056h653zm-1152 0H333l1536 2201z" transform="scale(.01563)"/></defs><use xlink:href="#NimbusRomNo9L-Regu-34" transform="scale(.99626)"/></g></g><g id="ytick_6"><use xlink:href="#m63ee4e25cd" id="line2d_65" x="23.055" y="44.674" style="stroke:#000;stroke-width:.5"/><use xlink:href="#m16ea685b06" id="line2d_66" x="206.64" y="44.674" style="stroke:#000;stroke-width:.5"/><use xlink:href="#NimbusRomNo9L-Regu-35" id="text_12" transform="matrix(.0797 0 0 -.0797 15.57 47.376)"/></g><g id="ytick_7"><g id="line2d_67"><defs><path id="m4c54920fd3" d="M0 0h1.5" style="stroke:#000;stroke-width:.5"/></defs><use xlink:href="#m4c54920fd3" x="23.055" y="180.662" style="stroke:#000;stroke-width:.5"/></g><g id="line2d_68"><defs><path id="m80f39389d4" d="M0 0h-1.5" style="stroke:#000;stroke-width:.5"/></defs><use xlink:href="#m80f39389d4" x="206.64" y="180.662" style="stroke:#000;stroke-width:.5"/></g></g><g id="ytick_8"><use xlink:href="#m4c54920fd3" id="line2d_69" x="23.055" y="170.201" style="stroke:#000;stroke-width:.5"/><use xlink:href="#m80f39389d4" id="line2d_70" x="206.64" y="170.201" style="stroke:#000;stroke-width:.5"/></g><g id="ytick_9"><use xlink:href="#m4c54920fd3" id="line2d_71" x="23.055" y="164.971" style="stroke:#000;stroke-width:.5"/><use xlink:href="#m80f39389d4" id="line2d_72" x="206.64" y="164.971" style="stroke:#000;stroke-width:.5"/></g><g id="ytick_10"><use xlink:href="#m4c54920fd3" id="line2d_73" x="23.055" y="159.741" style="stroke:#000;stroke-width:.5"/><use xlink:href="#m80f39389d4" id="line2d_74" x="206.64" y="159.741" style="stroke:#000;stroke-width:.5"/></g><g id="ytick_11"><use xlink:href="#m4c54920fd3" id="line2d_75" x="23.055" y="154.51" style="stroke:#000;stroke-width:.5"/><use xlink:href="#m80f39389d4" id="line2d_76" x="206.64" y="154.51" style="stroke:#000;stroke-width:.5"/></g><g id="ytick_12"><use xlink:href="#m4c54920fd3" id="line2d_77" x="23.055" y="144.05" style="stroke:#000;stroke-width:.5"/><use xlink:href="#m80f39389d4" id="line2d_78" x="206.64" y="144.05" style="stroke:#000;stroke-width:.5"/></g><g id="ytick_13"><use xlink:href="#m4c54920fd3" id="line2d_79" x="23.055" y="138.82" style="stroke:#000;stroke-width:.5"/><use xlink:href="#m80f39389d4" id="line2d_80" x="206.64" y="138.82" style="stroke:#000;stroke-width:.5"/></g><g id="ytick_14"><use xlink:href="#m4c54920fd3" id="line2d_81" x="23.055" y="133.589" style="stroke:#000;stroke-width:.5"/><use xlink:href="#m80f39389d4" id="line2d_82" x="206.64" y="133.589" style="stroke:#000;stroke-width:.5"/></g><g id="ytick_15"><use xlink:href="#m4c54920fd3" id="line2d_83" x="23.055" y="128.359" style="stroke:#000;stroke-width:.5"/><use xlink:href="#m80f39389d4" id="line2d_84" x="206.64" y="128.359" style="stroke:#000;stroke-width:.5"/></g><g id="ytick_16"><use xlink:href="#m4c54920fd3" id="line2d_85" x="23.055" y="117.898" style="stroke:#000;stroke-width:.5"/><use xlink:href="#m80f39389d4" id="line2d_86" x="206.64" y="117.898" style="stroke:#000;stroke-width:.5"/></g><g id="ytick_17"><use xlink:href="#m4c54920fd3" id="line2d_87" x="23.055" y="112.668" style="stroke:#000;stroke-width:.5"/><use xlink:href="#m80f39389d4" id="line2d_88" x="206.64" y="112.668" style="stroke:#000;stroke-width:.5"/></g><g id="ytick_18"><use xlink:href="#m4c54920fd3" id="line2d_89" x="23.055" y="107.438" style="stroke:#000;stroke-width:.5"/><use xlink:href="#m80f39389d4" id="line2d_90" x="206.64" y="107.438" style="stroke:#000;stroke-width:.5"/></g><g id="ytick_19"><use xlink:href="#m4c54920fd3" id="line2d_91" x="23.055" y="102.207" style="stroke:#000;stroke-width:.5"/><use xlink:href="#m80f39389d4" id="line2d_92" x="206.64" y="102.207" style="stroke:#000;stroke-width:.5"/></g><g id="ytick_20"><use xlink:href="#m4c54920fd3" id="line2d_93" x="23.055" y="91.747" style="stroke:#000;stroke-width:.5"/><use xlink:href="#m80f39389d4" id="line2d_94" x="206.64" y="91.747" style="stroke:#000;stroke-width:.5"/></g><g id="ytick_21"><use xlink:href="#m4c54920fd3" id="line2d_95" x="23.055" y="86.517" style="stroke:#000;stroke-width:.5"/><use xlink:href="#m80f39389d4" id="line2d_96" x="206.64" y="86.517" style="stroke:#000;stroke-width:.5"/></g><g id="ytick_22"><use xlink:href="#m4c54920fd3" id="line2d_97" x="23.055" y="81.286" style="stroke:#000;stroke-width:.5"/><use xlink:href="#m80f39389d4" id="line2d_98" x="206.64" y="81.286" style="stroke:#000;stroke-width:.5"/></g><g id="ytick_23"><use xlink:href="#m4c54920fd3" id="line2d_99" x="23.055" y="76.056" style="stroke:#000;stroke-width:.5"/><use xlink:href="#m80f39389d4" id="line2d_100" x="206.64" y="76.056" style="stroke:#000;stroke-width:.5"/></g><g id="ytick_24"><use xlink:href="#m4c54920fd3" id="line2d_101" x="23.055" y="65.595" style="stroke:#000;stroke-width:.5"/><use xlink:href="#m80f39389d4" id="line2d_102" x="206.64" y="65.595" style="stroke:#000;stroke-width:.5"/></g><g id="ytick_25"><use xlink:href="#m4c54920fd3" id="line2d_103" x="23.055" y="60.365" style="stroke:#000;stroke-width:.5"/><use xlink:href="#m80f39389d4" id="line2d_104" x="206.64" y="60.365" style="stroke:#000;stroke-width:.5"/></g><g id="ytick_26"><use xlink:href="#m4c54920fd3" id="line2d_105" x="23.055" y="55.135" style="stroke:#000;stroke-width:.5"/><use xlink:href="#m80f39389d4" id="line2d_106" x="206.64" y="55.135" style="stroke:#000;stroke-width:.5"/></g><g id="ytick_27"><use xlink:href="#m4c54920fd3" id="line2d_107" x="23.055" y="49.904" style="stroke:#000;stroke-width:.5"/><use xlink:href="#m80f39389d4" id="line2d_108" x="206.64" y="49.904" style="stroke:#000;stroke-width:.5"/></g><g id="ytick_28"><use xlink:href="#m4c54920fd3" id="line2d_109" x="23.055" y="39.444" style="stroke:#000;stroke-width:.5"/><use xlink:href="#m80f39389d4" id="line2d_110" x="206.64" y="39.444" style="stroke:#000;stroke-width:.5"/></g><g id="text_13" transform="matrix(0 -.08 -.08 0 9.578 128.76)"><defs><path id="NimbusRomNo9L-Regu-56" d="M4461 4231H3149v-135c352 0 467-70 467-250 0-102-45-274-122-466l-940-2347-967 2166c-211 468-262 615-262 711 0 122 89 186 294 186 26 0 96 0 186 13v122H102v-135c314 0 404-89 679-657L2355-64h96l1421 3585c211 505 282 575 589 575z" transform="scale(.01563)"/><path id="NimbusRomNo9L-Regu-6f" d="M1600 2944c-832 0-1414-614-1414-1498C186 582 781-64 1587-64c807 0 1421 678 1421 1562 0 838-589 1446-1408 1446m-83-179c537 0 915-615 915-1491 0-724-288-1159-768-1159-250 0-486 154-621 410-179 333-281 781-281 1235 0 608 300 1005 755 1005" transform="scale(.01563)"/><path id="NimbusRomNo9L-Regu-6c" d="M122 4000h236c205 0 269-90 269-390V557c0-346-89-429-493-461V0h1511v109c-403 0-480 64-480 419v3843l-26 13c-333-109-576-173-1017-281z" transform="scale(.01563)"/><path id="NimbusRomNo9L-Regu-74" d="M1632 2880H986v742c0 64-7 84-45 84-45-58-83-116-128-180-243-352-519-659-621-685-70-47-109-93-109-126 0-20 7-33 26-33h339V751c0-539 192-815 570-815 313 0 556 154 768 487l-84 70c-134-160-243-224-384-224-236 0-332 174-332 578v1835h646z" transform="scale(.01563)"/><path id="NimbusRomNo9L-Regu-61" d="M2829 423c-109-90-186-122-282-122-147 0-192 89-192 371v1248c0 333-32 518-128 672-141 230-416 352-793 352-602 0-1076-314-1076-717 0-147 128-275 276-275 153 0 288 128 288 269 0 25-7 57-13 102-13 58-19 109-19 154 0 173 204 313 460 313 314 0 487-185 487-531v-390c-986-397-1095-448-1370-691-141-128-230-346-230-557 0-403 281-685 672-685 281 0 544 134 934 467 32-333 147-467 410-467 217 0 352 77 576 320zm-992 360c0-199-32-257-167-334-153-90-332-148-467-148-224 0-403 219-403 495v26c0 379 262 611 1037 893z" transform="scale(.01563)"/><path id="NimbusRomNo9L-Regu-67" d="M3008 2496v250h-493c-128 0-224 17-352 56l-141 45c-172 56-345 84-512 84-595 0-1068-464-1068-1050 0-405 172-651 595-863-122-112-237-219-275-250-212-180-295-305-295-430 0-132 77-207 339-332-454-335-627-549-627-787 0-343 499-627 1107-627 480 0 980 170 1312 446 244 203 352 414 352 663 0 407-300 683-774 683h-826c-339 0-499 59-499 164 0 130 211 360 384 412 58-7 103-13 122-13 121-13 205-19 243-19 237 0 493 98 691 275 211 184 307 414 307 742 0 190-32 341-121 551zM941-13c211-45 723-83 1037-83 582 0 793-84 793-318 0-377-486-629-1209-629-564 0-935 188-935 473 0 150 45 234 314 557m32 2158c0 381 179 607 473 607 199 0 365-110 468-303 115-226 192-522 192-774 0-361-186-587-480-587-384 0-653 419-653 1038z" transform="scale(.01563)"/><path id="NimbusRomNo9L-Regu-65" d="M2611 1053c-307-489-582-675-992-675-365 0-640 186-825 552-116 244-160 456-173 849h1971c-51 414-115 598-275 802-192 230-487 363-819 363-320 0-621-115-864-333-301-262-474-717-474-1241C160 486 621-64 1357-64c608 0 1088 379 1357 1072zM634 1984c70 495 288 730 678 730s544-179 627-730z" transform="scale(.01563)"/><path id="NimbusRomNo9L-ReguItal-56" d="M4403 4140H3213v-102c288-32 403-96 403-218 0-121-122-397-333-762L1965 776l-423 2840c-6 32-6 57-6 95 0 219 90 282 493 327v102H486v-102c359-45 372-64 506-865l544-3333h122l2387 3942c109 173 211 250 358 250z" transform="scale(.01563)"/></defs><use xlink:href="#NimbusRomNo9L-Regu-56" transform="scale(.99626)"/><use xlink:href="#NimbusRomNo9L-Regu-6f" transform="matrix(.99626 0 0 .99626 59.079 0)"/><use xlink:href="#NimbusRomNo9L-Regu-6c" transform="matrix(.99626 0 0 .99626 108.892 0)"/><use xlink:href="#NimbusRomNo9L-Regu-74" transform="matrix(.99626 0 0 .99626 136.587 0)"/><use xlink:href="#NimbusRomNo9L-Regu-61" transform="matrix(.99626 0 0 .99626 164.282 0)"/><use xlink:href="#NimbusRomNo9L-Regu-67" transform="matrix(.99626 0 0 .99626 208.516 0)"/><use xlink:href="#NimbusRomNo9L-Regu-65" transform="matrix(.99626 0 0 .99626 258.33 0)"/><use xlink:href="#CMR10-5b" transform="matrix(.99626 0 0 .99626 324.702 0)"/><use xlink:href="#NimbusRomNo9L-ReguItal-56" transform="matrix(.99626 0 0 .99626 347.316 0)"/><use xlink:href="#CMR10-5d" transform="matrix(.99626 0 0 .99626 420.84 0)"/></g></g><path id="line2d_111" d="m31.4 176.931.4.105.735.104.334.07 1.336-.105.2-.209 1.403-1.325.534-.174.267.035.267.104 1.002.419.267.104.601.21 1.202-.523.268-.105.6-.21.735.105 1.336.802.534.454.4-.105.268-.035.935-.105.468-.139.467-.105.935-.383.601-.105.267-.035.735.28 1.002.104.4.105 2.004.104.868.349 1.135-.105.535-.174.4.314.334.209.334.07.868-.105 1.002-.907.868.105.268.244.4.28h.2l.468-.14.802-.105.6-.21.268.245.4.279.602.104.333.28.334.243.2-.104.602-.21.4-.104.735-.662.468-.105.868-.349.4.105.268-.105.334-.07.734.105.468.14.868.104.534.175.601-.21.334.105.4.105.468-.14.2.07.335.209.334-.07.334-.209.4.105.4.104 1.07.105.267.035.667.104 1.07.454.6-.21.334-.104.2-.175.334-.383.401-.105.735-.104.267-.244.267-.175 1.269.105.534.383.334.21.601.104.4.105.602.104.4.314.268.175.334-.105.334-.105.6.21.668-.28.334.28.334.244.267-.105.401-.104.468.139.2-.07.468-.348.2.104.4.314.268-.105.801-.697.267-.07.802-.767 1.603.942.4.279 1.47-.105.734-.279 4.475-.105.534-.383.801-.698.268-.034.267.104.668.454.4.453.334.209.334.07.334.104.468.14.6-.244.268.035.267-.105.868-.349 1.202.105.334.07.267-.105.267-.035 1.136.488.334.105.267.244.534.453.267-.07.601-.488.334-.279 1.069-1.046.334.105.534-.21 1.135.489.2-.035.335.28.267.173.267-.104.801-.314.935.07.401.279 1.269.558.334-.105.267-.07.4.314.335.244.2-.07.467-.383.334.104.268.07.4-.314.468-.592.2.104.334.244.2-.07.668-.557.735.313.467-.139.267.244.468.593.267.035.4-.105.335-.07.6-.104 1.003-.419.267-.104.467-.349.935.105.334.07.267.104.468.349 1.002-.105h.2l.467.14.268-.105 1.068-.453.2-.105.401-.14.267.245.535.662.333.21.935.418.334-.28.334-.208.668-.244 1.603.104.267.035.468-.14 1.536.105.467.14 1.136-.105 2.07-.976.801.104.267.035.334-.279.334-.662.735-2.197.4-2.545.602-5.196.668-8.09.868-13.598 1.67-31.591 1.469-26.291.935-13.808.801-9.066.801-6.625.601-3.382.668-2.615.401-.593.468-.349.267-.035.668.105.4.104.601-.104 1.737-1.011.334-.21 2.337-1.115.601-.105.601-.488.267.104.468.14.734.105.2.174.335.383.2.035 1.536-.871.267-.28.401-.104 1.269.105.668.558.4.104.334-.104.735-.489 1.202-1.115.468-.14.6-.104.335-.07.534.104.467.14.601.104.668.558.668.105.668.244.868-.384.601.21 1.202-.105 1.47-.662.334.07.267-.105.4-.105 1.67.105h.2l.468.104 1.803.837 1.87-.872.334.07 1.002.105.6.209 1.403-.105.601-.209h2.538" clip-path="url(#p41754448cc)" style="fill:none;stroke:#000;stroke-linecap:square"/><path id="line2d_112" d="m31.4 175.467.334.07.4-.105.936-.593.667-.558.401-.105.4.105.468.349.535.418 1.068.453.4-.104.468-.14.535-.104 1.001-.454.668.245.535.104.333.28.268.173.267-.104 1.469-.872.2-.104.2.07.335.243.667.07.334.21.601.208.668.105.334.07.267-.105.401-.104 1.269-.105.334-.07.4-.104 1.002-.419.268.105.333.07.668.104.802.349.668-.244.6-.105.735-.314.267.244.401.489.534.174.735-.105.334-.279.534-.453.334.105.4.314 1.203-.105.801-.314 1.536.697 1.737-.836 1.402.627.735-.104 1.202-.523 1.47.104 1.803.872 1.001-.418.468-.105.4-.105.268.105.534.174.868.105.468.14.534.104.334.07.267-.105.334-.07.534.105 1.803.872.268-.21.467-.557.334-.21.334-.279.735-.627.267.104.6.21.401.104.668.244.334-.104.334-.07.267.105.334.07 1.403-.105.6-.21 1.07.105 1.001.418.601.105.468.349.868-.105.267-.035.467-.104.268-.244.4-.28.334-.07.267.106.268.034.667-.244.869.384.467-.14.668.244.601-.209.868-.104.534-.175.468.14.668.104.267.035 1.803-.104.334-.07.267.105.468.139.334-.105.467-.14.935-.104.4-.279.335-.07.4.105 1.67.767.2-.104.535-.419.267-.104 1.068-.454.535.175 1.202.104 1.068.454.334.104.468.14.267-.105.935-.383.735-.105.868-1.046.334-.942.267-1.673.334-4.045.467-9.066.534-15.76 1.336-42.68.4-6.695.335-2.754.267-.942.134-.14.133.106.267.767.535 2.336.734 2.964.668 2.057.267.279.4-.105.402-.523.4-1.08.401-1.57.868-3.173 1.403-4.707.334-.593.333-.21.401.106.267.244 1.136 1.08 1.936-.104 1.87-1.081.468-.349.935.105.467.349.401.313.468.105.534.174 1.202-.523.267-.104.267-.244.267-.175.468.105 1.603.941.267.14.334-.07.4-.279.334-.07.401-.104 1.069-.453.534-.105.4-.105.335.105.334.279.267.174.801.105.267.035.334-.105.334-.279.267-.174 1.47-.105.267-.035.334.105.6.21.668.104.401.104.267-.104.668-.244 1.803-.105.268-.035 1.67.105.333.07 3.54-.105.467-.14.601-.104.868-.384.535.175.534.104.801.698 1.67-.105.334-.105.334.07 1.135-.104.267-.07.334.07.868-.105.401-.105.601-.104.935-.384.468.14.6.104.335.07.4.105.334.07 1.27.104.4.105 1.603-.105.4-.105 1.27-.104.267-.035 1.068.453.668.105 1.002.418.467-.14.935-.104.2-.21.401-.452 3.94.104.602.21.467-.105.4-.105 1.67.105.268.035 1.402.104 1.135.488.869-.104 1.135-.488.801-.105 1.87-.907 2.004.977.534-.175.668.105 1.536.697h.267" clip-path="url(#p41754448cc)" style="fill:none;stroke-dasharray:3.7,1.6;stroke-dashoffset:0;stroke:red"/><g id="LineCollection_1"><path d="M152.48 177.384V48.191M114.68 177.384V48.191" clip-path="url(#p41754448cc)" style="fill:none;stroke-dasharray:1,1.65;stroke-dashoffset:0;stroke:#000"/></g><path id="patch_3" d="M23.055 184.04V37.6" style="fill:none;stroke:#000;stroke-width:.5;stroke-linejoin:miter;stroke-linecap:square"/><path id="patch_4" d="M206.64 184.04V37.6" style="fill:none;stroke:#000;stroke-width:.5;stroke-linejoin:miter;stroke-linecap:square"/><path id="patch_5" d="M23.055 184.04H206.64" style="fill:none;stroke:#000;stroke-width:.5;stroke-linejoin:miter;stroke-linecap:square"/><path id="patch_6" d="M23.055 37.6H206.64" style="fill:none;stroke:#000;stroke-width:.5;stroke-linejoin:miter;stroke-linecap:square"/><g id="text_14" transform="matrix(.08 0 0 -.08 115.123 44.256)"><defs><path id="StandardSymL-74" d="M230 1985c71 191 154 350 250 471 90 108 173 140 346 140h467c-96-700-135-1177-135-1572 0-680 237-1088 634-1088 256 0 512 185 614 446 77 184 103 362 116 661h-160c-52-362-141-490-340-490-281 0-499 268-499 611 0 102 13 299 32 522 7 64 19 255 32 458 19 242 19 306 39 452h1049v604H1222c-332 0-531-82-736-305-204-223-313-464-422-910z" transform="scale(.01563)"/><path id="CMR10-3d" d="M4397 2048c96 0 217 0 217 129 0 128-121 128-211 128H570c-90 0-212 0-212-128 0-129 122-129 218-129zm6-1216c90 0 211 0 211 129 0 128-121 128-217 128H576c-96 0-218 0-218-128 0-129 122-129 212-129z" transform="scale(.01563)"/><path id="NimbusRomNo9L-Regu-36" d="M2854 4391c-729-64-1100-186-1568-512C595 3386 218 2656 218 1802c0-554 172-1114 448-1432C909 89 1254-64 1651-64c794 0 1344 605 1344 1485 0 815-467 1331-1203 1331-282 0-416-45-819-288 173 967 889 1658 1894 1824zM1549 2458c550 0 870-458 870-1254 0-700-249-1088-697-1088-564 0-909 598-909 1584 0 325 51 503 179 599 134 101 333 159 557 159" transform="scale(.01563)"/><path id="CMMI10-3a" d="M1229 338c0 184-154 337-339 337-186 0-340-153-340-337C550 153 704 0 890 0c185 0 339 153 339 338" transform="scale(.01563)"/></defs><use xlink:href="#StandardSymL-74" transform="scale(.99626)"/><use xlink:href="#CMR10-3d" transform="matrix(.99626 0 0 .99626 74.143 0)"/><use xlink:href="#NimbusRomNo9L-Regu-35" transform="matrix(.99626 0 0 .99626 173.69 0)"/><use xlink:href="#NimbusRomNo9L-Regu-36" transform="matrix(.99626 0 0 .99626 223.504 0)"/><use xlink:href="#CMMI10-3a" transform="matrix(.99626 0 0 .99626 273.317 0)"/><use xlink:href="#NimbusRomNo9L-Regu-36" transform="matrix(.99626 0 0 .99626 300.912 0)"/><use xlink:href="#NimbusRomNo9L-ReguItal-6e" transform="matrix(.99626 0 0 .99626 372.865 0)"/><use xlink:href="#NimbusRomNo9L-ReguItal-73" transform="matrix(.99626 0 0 .99626 422.678 0)"/></g><g id="text_15" transform="matrix(.096 0 0 -.096 31.597 31.6)"><defs><path id="NimbusRomNo9L-Regu-44" d="M666 679c0-462-77-545-564-545V0h1818c742 0 1414 210 1811 568 416 376 653 944 653 1563 0 575-192 1072-544 1423-435 440-1133 670-2010 670H102v-122c506-45 564-102 564-577zm652 3059c0 198 71 249 333 249 551 0 967-102 1274-319 499-345 761-893 761-1581 0-753-262-1289-780-1589-327-184-698-261-1255-261-256 0-333 57-333 261z" transform="scale(.01563)"/><path id="NimbusRomNo9L-Regu-79" d="M3040 2880h-864v-96c205 0 307-58 307-161 0-26-6-64-25-109L1837 742l-736 1635c-39 91-64 175-64 245 0 117 96 162 371 162v96H90v-90c166-25 275-96 326-205l730-1580 19-52 96-192c179-321 281-552 281-649 0-96-147-501-256-694-89-167-230-289-320-289-38 0-96 13-160 45-121 45-230 71-339 71-147 0-275-128-275-282 0-211 205-371 474-371 428 0 736 359 1081 1284l986 2619c83 206 153 270 307 289z" transform="scale(.01563)"/><path id="NimbusRomNo9L-Regu-62" d="m979 4364-32 13c-269-96-441-147-742-230l-186-51v-102c39 6 64 6 109 6 256 0 314-58 314-327V347c0-200 544-411 1056-411 844 0 1497 704 1497 1619 0 787-486 1389-1126 1389-391 0-762-230-890-544zm0-2303c0 249 301 480 634 480 499 0 819-499 819-1280 0-711-307-1120-832-1120-333 0-621 147-621 307z" transform="scale(.01563)"/><path id="NimbusRomNo9L-Regu-77" d="M3654 2912v-96c218-45 282-90 282-198 0-97-38-251-109-424L3251 770l-537 1437c-109 294-109 294-109 379 0 140 70 185 371 230v96H1677v-96c237-26 313-96 441-443 45-121 90-244 128-359L1664 738l-634 1674c-25 64-38 128-38 193 0 134 77 185 294 211v96H134v-96c148-13 199-77 340-404l864-2193c76-193 128-283 166-283 32 0 83 84 160 250l717 1539 582-1513c90-237 115-276 154-276 45 0 77 58 179 315l883 2218c115 270 135 302 263 347v96z" transform="scale(.01563)"/><path id="NimbusRomNo9L-Regu-6e" d="M102 2579c39 19 103 26 173 26 179 0 237-96 237-410V608c0-365-70-454-397-480V32h1357v96c-326 26-422 102-422 333v1798c307 288 448 365 659 365 313 0 467-198 467-621V666c0-404-83-512-403-538V32h1331v96c-314 32-390 109-390 422v1466c0 602-282 960-756 960-294 0-492-109-928-518v505l-44 13c-314-115-532-186-884-288z" transform="scale(.01563)"/><path id="NimbusRomNo9L-Regu-72" d="M45 2496c89 19 147 26 224 26 160 0 217-103 217-384V538c0-320-44-365-454-442V0h1536v102c-435 0-544 97-544 463v1448c0 206 275 528 448 528 38 0 96-32 166-96 103-90 173-128 256-128 154 0 250 109 250 288 0 211-134 339-352 339-269 0-454-147-768-601v588l-32 13c-339-141-570-223-947-345z" transform="scale(.01563)"/><path id="NimbusRomNo9L-Regu-66" d="M1978 2880h-788v731c0 367 122 562 365 562 135 0 224-63 339-246 103-164 180-227 288-227 148 0 269 114 269 259 0 229-281 393-665 393-397 0-736-171-903-461-166-278-217-506-224-1011H134v-205h525V656c0-471-70-547-531-547V0h1664v109c-525 0-595 71-595 552v2014h781z" transform="scale(.01563)"/><path id="NimbusRomNo9L-Regu-63" d="M2547 998c-307-448-537-601-902-601-583 0-992 512-992 1248 0 659 352 1113 870 1113 231 0 314-70 378-307l38-141c51-179 167-294 301-294 166 0 307 122 307 269 0 358-448 659-985 659-314 0-640-128-903-358-320-282-499-717-499-1223C160 531 666-64 1376-64c288 0 544 102 774 301 173 153 295 326 487 704z" transform="scale(.01563)"/><path id="NimbusRomNo9L-Regu-64" d="m2202-64 940 333v96h-147c-230 0-281 70-281 366v3633l-32 13c-308-109-532-173-941-281v-102c51 6 89 6 141 6 236 0 294-64 294-328V2669c-243 205-416 275-672 275-736 0-1331-723-1331-1632C173 493 653-64 1357-64c358 0 601 128 819 429V-45zm-26 717c0-45-45-122-109-192-115-128-275-192-461-192-531 0-883 512-883 1299 0 723 314 1197 800 1197 339 0 653-301 653-640z" transform="scale(.01563)"/><path id="NimbusRomNo9L-Regu-6d" d="M122 2547c83 19 134 26 204 26 167 0 224-103 224-411V539c0-347-89-443-448-443V0h1421v96c-339 0-435 70-435 322v1816c0 12 51 76 96 121 160 147 435 256 659 256 282 0 423-226 423-679V528c0-361-71-432-436-432V0h1434v96c-365 0-461 109-461 507v1618c192 275 403 390 698 390 365 0 480-173 480-704V557c0-365-51-416-423-461V0h1402v96l-166 19c-192 0-276 115-276 365v1322c0 757-249 1142-742 1142-371 0-698-166-1043-537-115 364-333 537-679 537-281 0-460-90-992-493v480l-44 13c-327-122-544-192-896-288z" transform="scale(.01563)"/></defs><use xlink:href="#NimbusRomNo9L-Regu-44" transform="scale(.99626)"/><use xlink:href="#NimbusRomNo9L-Regu-65" transform="matrix(.99626 0 0 .99626 71.93 0)"/><use xlink:href="#NimbusRomNo9L-Regu-6c" transform="matrix(.99626 0 0 .99626 116.164 0)"/><use xlink:href="#NimbusRomNo9L-Regu-61" transform="matrix(.99626 0 0 .99626 143.859 0)"/><use xlink:href="#NimbusRomNo9L-Regu-79" transform="matrix(.99626 0 0 .99626 188.092 0)"/><use xlink:href="#NimbusRomNo9L-Regu-62" transform="matrix(.99626 0 0 .99626 262.812 0)"/><use xlink:href="#NimbusRomNo9L-Regu-65" transform="matrix(.99626 0 0 .99626 312.625 0)"/><use xlink:href="#NimbusRomNo9L-Regu-74" transform="matrix(.99626 0 0 .99626 356.859 0)"/><use xlink:href="#NimbusRomNo9L-Regu-77" transform="matrix(.99626 0 0 .99626 384.554 0)"/><use xlink:href="#NimbusRomNo9L-Regu-65" transform="matrix(.99626 0 0 .99626 456.484 0)"/><use xlink:href="#NimbusRomNo9L-Regu-65" transform="matrix(.99626 0 0 .99626 500.718 0)"/><use xlink:href="#NimbusRomNo9L-Regu-6e" transform="matrix(.99626 0 0 .99626 544.951 0)"/><use xlink:href="#NimbusRomNo9L-Regu-61" transform="matrix(.99626 0 0 .99626 619.671 0)"/><use xlink:href="#NimbusRomNo9L-Regu-72" transform="matrix(.99626 0 0 .99626 688.811 0)"/><use xlink:href="#NimbusRomNo9L-Regu-65" transform="matrix(.99626 0 0 .99626 721.986 0)"/><use xlink:href="#NimbusRomNo9L-Regu-66" transform="matrix(.99626 0 0 .99626 766.22 0)"/><use xlink:href="#NimbusRomNo9L-Regu-65" transform="matrix(.99626 0 0 .99626 799.395 0)"/><use xlink:href="#NimbusRomNo9L-Regu-72" transform="matrix(.99626 0 0 .99626 843.629 0)"/><use xlink:href="#NimbusRomNo9L-Regu-65" transform="matrix(.99626 0 0 .99626 876.804 0)"/><use xlink:href="#NimbusRomNo9L-Regu-6e" transform="matrix(.99626 0 0 .99626 921.038 0)"/><use xlink:href="#NimbusRomNo9L-Regu-63" transform="matrix(.99626 0 0 .99626 970.85 0)"/><use xlink:href="#NimbusRomNo9L-Regu-65" transform="matrix(.99626 0 0 .99626 1015.084 0)"/><use xlink:href="#NimbusRomNo9L-Regu-61" transform="matrix(.99626 0 0 .99626 1084.224 0)"/><use xlink:href="#NimbusRomNo9L-Regu-6e" transform="matrix(.99626 0 0 .99626 1128.458 0)"/><use xlink:href="#NimbusRomNo9L-Regu-64" transform="matrix(.99626 0 0 .99626 1178.271 0)"/><use xlink:href="#NimbusRomNo9L-Regu-61" transform="matrix(.99626 0 0 .99626 1252.991 0)"/><use xlink:href="#NimbusRomNo9L-Regu-31" transform="matrix(.99626 0 0 .99626 1322.131 0)"/><use xlink:href="#NimbusRomNo9L-Regu-30" transform="matrix(.99626 0 0 .99626 1371.944 0)"/><use xlink:href="#NimbusRomNo9L-Regu-6d" transform="matrix(.99626 0 0 .99626 1421.758 0)"/><use xlink:href="#NimbusRomNo9L-Regu-63" transform="matrix(.99626 0 0 .99626 1524.173 0)"/><use xlink:href="#NimbusRomNo9L-Regu-61" transform="matrix(.99626 0 0 .99626 1568.406 0)"/><use xlink:href="#NimbusRomNo9L-Regu-62" transform="matrix(.99626 0 0 .99626 1612.64 0)"/><use xlink:href="#NimbusRomNo9L-Regu-6c" transform="matrix(.99626 0 0 .99626 1662.453 0)"/><use xlink:href="#NimbusRomNo9L-Regu-65" transform="matrix(.99626 0 0 .99626 1690.148 0)"/></g><g id="legend_1"><path id="line2d_113" d="M30.255 47.6h16" style="fill:none;stroke:#000;stroke-linecap:square"/><g id="text_16" transform="matrix(.08 0 0 -.08 52.655 50.4)"><defs><path id="NimbusRomNo9L-Regu-52" d="M4218 121c-244 19-372 84-557 303L2342 2061c429 82 621 158 832 327 205 165 327 430 327 725 0 272-83 505-250 688-243 258-774 423-1376 423H109v-122c480-51 544-121 544-574V765c0-529-64-606-544-644V0h1773v134c-493 0-576 85-576 558v1292h358L3187 0h1031zM1306 3762c0 175 70 225 326 225 800 0 1171-271 1171-864 0-316-134-581-365-700-294-165-518-202-1132-202z" transform="scale(.01563)"/><path id="NimbusRomNo9L-Regu-2b" d="M1594 1830H192v-422h1402V0h422v1408h1402v422H2016v1402h-422z" transform="scale(.01563)"/></defs><use xlink:href="#NimbusRomNo9L-Regu-52" transform="scale(.99626)"/><use xlink:href="#NimbusRomNo9L-Regu-65" transform="matrix(.99626 0 0 .99626 66.45 0)"/><use xlink:href="#NimbusRomNo9L-Regu-66" transform="matrix(.99626 0 0 .99626 110.684 0)"/><use xlink:href="#NimbusRomNo9L-Regu-65" transform="matrix(.99626 0 0 .99626 143.859 0)"/><use xlink:href="#NimbusRomNo9L-Regu-72" transform="matrix(.99626 0 0 .99626 188.092 0)"/><use xlink:href="#NimbusRomNo9L-Regu-65" transform="matrix(.99626 0 0 .99626 221.268 0)"/><use xlink:href="#NimbusRomNo9L-Regu-6e" transform="matrix(.99626 0 0 .99626 265.501 0)"/><use xlink:href="#NimbusRomNo9L-Regu-63" transform="matrix(.99626 0 0 .99626 315.314 0)"/><use xlink:href="#NimbusRomNo9L-Regu-65" transform="matrix(.99626 0 0 .99626 359.548 0)"/><use xlink:href="#NimbusRomNo9L-Regu-31" transform="matrix(.99626 0 0 .99626 403.782 0)"/><use xlink:href="#NimbusRomNo9L-Regu-2b" transform="matrix(.99626 0 0 .99626 478.501 0)"/><use xlink:href="#NimbusRomNo9L-Regu-31" transform="matrix(.99626 0 0 .99626 559.596 0)"/><use xlink:href="#NimbusRomNo9L-Regu-30" transform="matrix(.99626 0 0 .99626 609.41 0)"/><use xlink:href="#NimbusRomNo9L-Regu-6d" transform="matrix(.99626 0 0 .99626 659.223 0)"/></g><path id="line2d_114" d="M30.255 58.925h16" style="fill:none;stroke-dasharray:3.7,1.6;stroke-dashoffset:0;stroke:red"/><g id="text_17" transform="matrix(.08 0 0 -.08 52.655 61.725)"><use xlink:href="#NimbusRomNo9L-Regu-52" transform="scale(.99626)"/><use xlink:href="#NimbusRomNo9L-Regu-65" transform="matrix(.99626 0 0 .99626 66.45 0)"/><use xlink:href="#NimbusRomNo9L-Regu-66" transform="matrix(.99626 0 0 .99626 110.684 0)"/><use xlink:href="#NimbusRomNo9L-Regu-65" transform="matrix(.99626 0 0 .99626 143.859 0)"/><use xlink:href="#NimbusRomNo9L-Regu-72" transform="matrix(.99626 0 0 .99626 188.092 0)"/><use xlink:href="#NimbusRomNo9L-Regu-65" transform="matrix(.99626 0 0 .99626 221.268 0)"/><use xlink:href="#NimbusRomNo9L-Regu-6e" transform="matrix(.99626 0 0 .99626 265.501 0)"/><use xlink:href="#NimbusRomNo9L-Regu-63" transform="matrix(.99626 0 0 .99626 315.314 0)"/><use xlink:href="#NimbusRomNo9L-Regu-65" transform="matrix(.99626 0 0 .99626 359.548 0)"/><use xlink:href="#NimbusRomNo9L-Regu-32" transform="matrix(.99626 0 0 .99626 403.782 0)"/></g></g></g><g id="axes_2"><path id="patch_7" d="M234.735 184.04H418.32V37.6H234.735z" style="fill:none"/><g id="matplotlib.axis_3"><g id="xtick_28"><use xlink:href="#mc732b2980d" id="line2d_115" x="259.776" y="184.041" style="stroke:#000;stroke-width:.5"/><use xlink:href="#m1ab1a119ee" id="line2d_116" x="259.776" y="37.599" style="stroke:#000;stroke-width:.5"/><g id="text_18" transform="matrix(.08 0 0 -.08 250.702 192.944)"><use xlink:href="#CMSY10-0" transform="scale(.99626)"/><use xlink:href="#NimbusRomNo9L-Regu-31" transform="matrix(.99626 0 0 .99626 77.409 0)"/><use xlink:href="#NimbusRomNo9L-Regu-30" transform="matrix(.99626 0 0 .99626 127.222 0)"/><use xlink:href="#NimbusRomNo9L-Regu-30" transform="matrix(.99626 0 0 .99626 177.035 0)"/></g></g><g id="xtick_29"><use xlink:href="#mc732b2980d" id="line2d_117" x="293.169" y="184.041" style="stroke:#000;stroke-width:.5"/><use xlink:href="#m1ab1a119ee" id="line2d_118" x="293.169" y="37.599" style="stroke:#000;stroke-width:.5"/><g id="text_19" transform="matrix(.08 0 0 -.08 286.087 192.944)"><use xlink:href="#CMSY10-0" transform="scale(.99626)"/><use xlink:href="#NimbusRomNo9L-Regu-35" transform="matrix(.99626 0 0 .99626 77.409 0)"/><use xlink:href="#NimbusRomNo9L-Regu-30" transform="matrix(.99626 0 0 .99626 127.222 0)"/></g></g><g id="xtick_30"><use xlink:href="#mc732b2980d" id="line2d_119" x="326.561" y="184.041" style="stroke:#000;stroke-width:.5"/><use xlink:href="#m1ab1a119ee" id="line2d_120" x="326.561" y="37.599" style="stroke:#000;stroke-width:.5"/><use xlink:href="#NimbusRomNo9L-Regu-30" id="text_20" transform="matrix(.0797 0 0 -.0797 324.568 192.944)"/></g><g id="xtick_31"><use xlink:href="#mc732b2980d" id="line2d_121" x="359.953" y="184.041" style="stroke:#000;stroke-width:.5"/><use xlink:href="#m1ab1a119ee" id="line2d_122" x="359.953" y="37.599" style="stroke:#000;stroke-width:.5"/><g id="text_21" transform="matrix(.08 0 0 -.08 355.968 192.944)"><use xlink:href="#NimbusRomNo9L-Regu-35" transform="scale(.99626)"/><use xlink:href="#NimbusRomNo9L-Regu-30" transform="matrix(.99626 0 0 .99626 49.813 0)"/></g></g><g id="xtick_32"><use xlink:href="#mc732b2980d" id="line2d_123" x="393.346" y="184.041" style="stroke:#000;stroke-width:.5"/><use xlink:href="#m1ab1a119ee" id="line2d_124" x="393.346" y="37.599" style="stroke:#000;stroke-width:.5"/><g id="text_22" transform="matrix(.08 0 0 -.08 387.368 192.944)"><use xlink:href="#NimbusRomNo9L-Regu-31" transform="scale(.99626)"/><use xlink:href="#NimbusRomNo9L-Regu-30" transform="matrix(.99626 0 0 .99626 49.813 0)"/><use xlink:href="#NimbusRomNo9L-Regu-30" transform="matrix(.99626 0 0 .99626 99.626 0)"/></g></g><g id="xtick_33"><use xlink:href="#me70ea22dcb" id="line2d_125" x="239.741" y="184.041" style="stroke:#000;stroke-width:.5"/><use xlink:href="#m185779f160" id="line2d_126" x="239.741" y="37.599" style="stroke:#000;stroke-width:.5"/></g><g id="xtick_34"><use xlink:href="#me70ea22dcb" id="line2d_127" x="246.419" y="184.041" style="stroke:#000;stroke-width:.5"/><use xlink:href="#m185779f160" id="line2d_128" x="246.419" y="37.599" style="stroke:#000;stroke-width:.5"/></g><g id="xtick_35"><use xlink:href="#me70ea22dcb" id="line2d_129" x="253.098" y="184.041" style="stroke:#000;stroke-width:.5"/><use xlink:href="#m185779f160" id="line2d_130" x="253.098" y="37.599" style="stroke:#000;stroke-width:.5"/></g><g id="xtick_36"><use xlink:href="#me70ea22dcb" id="line2d_131" x="266.455" y="184.041" style="stroke:#000;stroke-width:.5"/><use xlink:href="#m185779f160" id="line2d_132" x="266.455" y="37.599" style="stroke:#000;stroke-width:.5"/></g><g id="xtick_37"><use xlink:href="#me70ea22dcb" id="line2d_133" x="273.133" y="184.041" style="stroke:#000;stroke-width:.5"/><use xlink:href="#m185779f160" id="line2d_134" x="273.133" y="37.599" style="stroke:#000;stroke-width:.5"/></g><g id="xtick_38"><use xlink:href="#me70ea22dcb" id="line2d_135" x="279.812" y="184.041" style="stroke:#000;stroke-width:.5"/><use xlink:href="#m185779f160" id="line2d_136" x="279.812" y="37.599" style="stroke:#000;stroke-width:.5"/></g><g id="xtick_39"><use xlink:href="#me70ea22dcb" id="line2d_137" x="286.49" y="184.041" style="stroke:#000;stroke-width:.5"/><use xlink:href="#m185779f160" id="line2d_138" x="286.49" y="37.599" style="stroke:#000;stroke-width:.5"/></g><g id="xtick_40"><use xlink:href="#me70ea22dcb" id="line2d_139" x="299.847" y="184.041" style="stroke:#000;stroke-width:.5"/><use xlink:href="#m185779f160" id="line2d_140" x="299.847" y="37.599" style="stroke:#000;stroke-width:.5"/></g><g id="xtick_41"><use xlink:href="#me70ea22dcb" id="line2d_141" x="306.526" y="184.041" style="stroke:#000;stroke-width:.5"/><use xlink:href="#m185779f160" id="line2d_142" x="306.526" y="37.599" style="stroke:#000;stroke-width:.5"/></g><g id="xtick_42"><use xlink:href="#me70ea22dcb" id="line2d_143" x="313.204" y="184.041" style="stroke:#000;stroke-width:.5"/><use xlink:href="#m185779f160" id="line2d_144" x="313.204" y="37.599" style="stroke:#000;stroke-width:.5"/></g><g id="xtick_43"><use xlink:href="#me70ea22dcb" id="line2d_145" x="319.882" y="184.041" style="stroke:#000;stroke-width:.5"/><use xlink:href="#m185779f160" id="line2d_146" x="319.882" y="37.599" style="stroke:#000;stroke-width:.5"/></g><g id="xtick_44"><use xlink:href="#me70ea22dcb" id="line2d_147" x="333.239" y="184.041" style="stroke:#000;stroke-width:.5"/><use xlink:href="#m185779f160" id="line2d_148" x="333.239" y="37.599" style="stroke:#000;stroke-width:.5"/></g><g id="xtick_45"><use xlink:href="#me70ea22dcb" id="line2d_149" x="339.918" y="184.041" style="stroke:#000;stroke-width:.5"/><use xlink:href="#m185779f160" id="line2d_150" x="339.918" y="37.599" style="stroke:#000;stroke-width:.5"/></g><g id="xtick_46"><use xlink:href="#me70ea22dcb" id="line2d_151" x="346.596" y="184.041" style="stroke:#000;stroke-width:.5"/><use xlink:href="#m185779f160" id="line2d_152" x="346.596" y="37.599" style="stroke:#000;stroke-width:.5"/></g><g id="xtick_47"><use xlink:href="#me70ea22dcb" id="line2d_153" x="353.275" y="184.041" style="stroke:#000;stroke-width:.5"/><use xlink:href="#m185779f160" id="line2d_154" x="353.275" y="37.599" style="stroke:#000;stroke-width:.5"/></g><g id="xtick_48"><use xlink:href="#me70ea22dcb" id="line2d_155" x="366.632" y="184.041" style="stroke:#000;stroke-width:.5"/><use xlink:href="#m185779f160" id="line2d_156" x="366.632" y="37.599" style="stroke:#000;stroke-width:.5"/></g><g id="xtick_49"><use xlink:href="#me70ea22dcb" id="line2d_157" x="373.31" y="184.041" style="stroke:#000;stroke-width:.5"/><use xlink:href="#m185779f160" id="line2d_158" x="373.31" y="37.599" style="stroke:#000;stroke-width:.5"/></g><g id="xtick_50"><use xlink:href="#me70ea22dcb" id="line2d_159" x="379.989" y="184.041" style="stroke:#000;stroke-width:.5"/><use xlink:href="#m185779f160" id="line2d_160" x="379.989" y="37.599" style="stroke:#000;stroke-width:.5"/></g><g id="xtick_51"><use xlink:href="#me70ea22dcb" id="line2d_161" x="386.667" y="184.041" style="stroke:#000;stroke-width:.5"/><use xlink:href="#m185779f160" id="line2d_162" x="386.667" y="37.599" style="stroke:#000;stroke-width:.5"/></g><g id="xtick_52"><use xlink:href="#me70ea22dcb" id="line2d_163" x="400.024" y="184.041" style="stroke:#000;stroke-width:.5"/><use xlink:href="#m185779f160" id="line2d_164" x="400.024" y="37.599" style="stroke:#000;stroke-width:.5"/></g><g id="xtick_53"><use xlink:href="#me70ea22dcb" id="line2d_165" x="406.703" y="184.041" style="stroke:#000;stroke-width:.5"/><use xlink:href="#m185779f160" id="line2d_166" x="406.703" y="37.599" style="stroke:#000;stroke-width:.5"/></g><g id="xtick_54"><use xlink:href="#me70ea22dcb" id="line2d_167" x="413.381" y="184.041" style="stroke:#000;stroke-width:.5"/><use xlink:href="#m185779f160" id="line2d_168" x="413.381" y="37.599" style="stroke:#000;stroke-width:.5"/></g><g id="text_23" transform="matrix(.08 0 0 -.08 318.51 204.647)"><use xlink:href="#NimbusRomNo9L-ReguItal-74" transform="scale(.99626)"/><use xlink:href="#CMR10-5b" transform="matrix(.99626 0 0 .99626 56.608 0)"/><use xlink:href="#NimbusRomNo9L-ReguItal-6e" transform="matrix(.99626 0 0 .99626 84.204 0)"/><use xlink:href="#NimbusRomNo9L-ReguItal-73" transform="matrix(.99626 0 0 .99626 134.017 0)"/><use xlink:href="#CMR10-5d" transform="matrix(.99626 0 0 .99626 172.77 0)"/></g></g><g id="matplotlib.axis_4"><g id="ytick_29"><use xlink:href="#m63ee4e25cd" id="line2d_169" x="234.735" y="175.136" style="stroke:#000;stroke-width:.5"/><use xlink:href="#m16ea685b06" id="line2d_170" x="418.32" y="175.136" style="stroke:#000;stroke-width:.5"/><use xlink:href="#NimbusRomNo9L-Regu-30" id="text_24" transform="matrix(.0797 0 0 -.0797 227.25 177.838)"/></g><g id="ytick_30"><use xlink:href="#m63ee4e25cd" id="line2d_171" x="234.735" y="149.587" style="stroke:#000;stroke-width:.5"/><use xlink:href="#m16ea685b06" id="line2d_172" x="418.32" y="149.587" style="stroke:#000;stroke-width:.5"/><use xlink:href="#NimbusRomNo9L-Regu-31" id="text_25" transform="matrix(.0797 0 0 -.0797 227.25 152.289)"/></g><g id="ytick_31"><use xlink:href="#m63ee4e25cd" id="line2d_173" x="234.735" y="124.038" style="stroke:#000;stroke-width:.5"/><use xlink:href="#m16ea685b06" id="line2d_174" x="418.32" y="124.038" style="stroke:#000;stroke-width:.5"/><use xlink:href="#NimbusRomNo9L-Regu-32" id="text_26" transform="matrix(.0797 0 0 -.0797 227.25 126.74)"/></g><g id="ytick_32"><use xlink:href="#m63ee4e25cd" id="line2d_175" x="234.735" y="98.488" style="stroke:#000;stroke-width:.5"/><use xlink:href="#m16ea685b06" id="line2d_176" x="418.32" y="98.488" style="stroke:#000;stroke-width:.5"/><use xlink:href="#NimbusRomNo9L-Regu-33" id="text_27" transform="matrix(.0797 0 0 -.0797 227.25 101.19)"/></g><g id="ytick_33"><use xlink:href="#m63ee4e25cd" id="line2d_177" x="234.735" y="72.939" style="stroke:#000;stroke-width:.5"/><use xlink:href="#m16ea685b06" id="line2d_178" x="418.32" y="72.939" style="stroke:#000;stroke-width:.5"/><use xlink:href="#NimbusRomNo9L-Regu-34" id="text_28" transform="matrix(.0797 0 0 -.0797 227.25 75.64)"/></g><g id="ytick_34"><use xlink:href="#m63ee4e25cd" id="line2d_179" x="234.735" y="47.39" style="stroke:#000;stroke-width:.5"/><use xlink:href="#m16ea685b06" id="line2d_180" x="418.32" y="47.39" style="stroke:#000;stroke-width:.5"/><use xlink:href="#NimbusRomNo9L-Regu-35" id="text_29" transform="matrix(.0797 0 0 -.0797 227.25 50.092)"/></g><g id="ytick_35"><use xlink:href="#m4c54920fd3" id="line2d_181" x="234.735" y="180.246" style="stroke:#000;stroke-width:.5"/><use xlink:href="#m80f39389d4" id="line2d_182" x="418.32" y="180.246" style="stroke:#000;stroke-width:.5"/></g><g id="ytick_36"><use xlink:href="#m4c54920fd3" id="line2d_183" x="234.735" y="170.026" style="stroke:#000;stroke-width:.5"/><use xlink:href="#m80f39389d4" id="line2d_184" x="418.32" y="170.026" style="stroke:#000;stroke-width:.5"/></g><g id="ytick_37"><use xlink:href="#m4c54920fd3" id="line2d_185" x="234.735" y="164.916" style="stroke:#000;stroke-width:.5"/><use xlink:href="#m80f39389d4" id="line2d_186" x="418.32" y="164.916" style="stroke:#000;stroke-width:.5"/></g><g id="ytick_38"><use xlink:href="#m4c54920fd3" id="line2d_187" x="234.735" y="159.806" style="stroke:#000;stroke-width:.5"/><use xlink:href="#m80f39389d4" id="line2d_188" x="418.32" y="159.806" style="stroke:#000;stroke-width:.5"/></g><g id="ytick_39"><use xlink:href="#m4c54920fd3" id="line2d_189" x="234.735" y="154.697" style="stroke:#000;stroke-width:.5"/><use xlink:href="#m80f39389d4" id="line2d_190" x="418.32" y="154.697" style="stroke:#000;stroke-width:.5"/></g><g id="ytick_40"><use xlink:href="#m4c54920fd3" id="line2d_191" x="234.735" y="144.477" style="stroke:#000;stroke-width:.5"/><use xlink:href="#m80f39389d4" id="line2d_192" x="418.32" y="144.477" style="stroke:#000;stroke-width:.5"/></g><g id="ytick_41"><use xlink:href="#m4c54920fd3" id="line2d_193" x="234.735" y="139.367" style="stroke:#000;stroke-width:.5"/><use xlink:href="#m80f39389d4" id="line2d_194" x="418.32" y="139.367" style="stroke:#000;stroke-width:.5"/></g><g id="ytick_42"><use xlink:href="#m4c54920fd3" id="line2d_195" x="234.735" y="134.257" style="stroke:#000;stroke-width:.5"/><use xlink:href="#m80f39389d4" id="line2d_196" x="418.32" y="134.257" style="stroke:#000;stroke-width:.5"/></g><g id="ytick_43"><use xlink:href="#m4c54920fd3" id="line2d_197" x="234.735" y="129.147" style="stroke:#000;stroke-width:.5"/><use xlink:href="#m80f39389d4" id="line2d_198" x="418.32" y="129.147" style="stroke:#000;stroke-width:.5"/></g><g id="ytick_44"><use xlink:href="#m4c54920fd3" id="line2d_199" x="234.735" y="118.928" style="stroke:#000;stroke-width:.5"/><use xlink:href="#m80f39389d4" id="line2d_200" x="418.32" y="118.928" style="stroke:#000;stroke-width:.5"/></g><g id="ytick_45"><use xlink:href="#m4c54920fd3" id="line2d_201" x="234.735" y="113.818" style="stroke:#000;stroke-width:.5"/><use xlink:href="#m80f39389d4" id="line2d_202" x="418.32" y="113.818" style="stroke:#000;stroke-width:.5"/></g><g id="ytick_46"><use xlink:href="#m4c54920fd3" id="line2d_203" x="234.735" y="108.708" style="stroke:#000;stroke-width:.5"/><use xlink:href="#m80f39389d4" id="line2d_204" x="418.32" y="108.708" style="stroke:#000;stroke-width:.5"/></g><g id="ytick_47"><use xlink:href="#m4c54920fd3" id="line2d_205" x="234.735" y="103.598" style="stroke:#000;stroke-width:.5"/><use xlink:href="#m80f39389d4" id="line2d_206" x="418.32" y="103.598" style="stroke:#000;stroke-width:.5"/></g><g id="ytick_48"><use xlink:href="#m4c54920fd3" id="line2d_207" x="234.735" y="93.378" style="stroke:#000;stroke-width:.5"/><use xlink:href="#m80f39389d4" id="line2d_208" x="418.32" y="93.378" style="stroke:#000;stroke-width:.5"/></g><g id="ytick_49"><use xlink:href="#m4c54920fd3" id="line2d_209" x="234.735" y="88.269" style="stroke:#000;stroke-width:.5"/><use xlink:href="#m80f39389d4" id="line2d_210" x="418.32" y="88.269" style="stroke:#000;stroke-width:.5"/></g><g id="ytick_50"><use xlink:href="#m4c54920fd3" id="line2d_211" x="234.735" y="83.159" style="stroke:#000;stroke-width:.5"/><use xlink:href="#m80f39389d4" id="line2d_212" x="418.32" y="83.159" style="stroke:#000;stroke-width:.5"/></g><g id="ytick_51"><use xlink:href="#m4c54920fd3" id="line2d_213" x="234.735" y="78.049" style="stroke:#000;stroke-width:.5"/><use xlink:href="#m80f39389d4" id="line2d_214" x="418.32" y="78.049" style="stroke:#000;stroke-width:.5"/></g><g id="ytick_52"><use xlink:href="#m4c54920fd3" id="line2d_215" x="234.735" y="67.829" style="stroke:#000;stroke-width:.5"/><use xlink:href="#m80f39389d4" id="line2d_216" x="418.32" y="67.829" style="stroke:#000;stroke-width:.5"/></g><g id="ytick_53"><use xlink:href="#m4c54920fd3" id="line2d_217" x="234.735" y="62.719" style="stroke:#000;stroke-width:.5"/><use xlink:href="#m80f39389d4" id="line2d_218" x="418.32" y="62.719" style="stroke:#000;stroke-width:.5"/></g><g id="ytick_54"><use xlink:href="#m4c54920fd3" id="line2d_219" x="234.735" y="57.61" style="stroke:#000;stroke-width:.5"/><use xlink:href="#m80f39389d4" id="line2d_220" x="418.32" y="57.61" style="stroke:#000;stroke-width:.5"/></g><g id="ytick_55"><use xlink:href="#m4c54920fd3" id="line2d_221" x="234.735" y="52.5" style="stroke:#000;stroke-width:.5"/><use xlink:href="#m80f39389d4" id="line2d_222" x="418.32" y="52.5" style="stroke:#000;stroke-width:.5"/></g><g id="ytick_56"><use xlink:href="#m4c54920fd3" id="line2d_223" x="234.735" y="42.28" style="stroke:#000;stroke-width:.5"/><use xlink:href="#m80f39389d4" id="line2d_224" x="418.32" y="42.28" style="stroke:#000;stroke-width:.5"/></g><g id="text_30" transform="matrix(0 -.08 -.08 0 221.258 128.76)"><use xlink:href="#NimbusRomNo9L-Regu-56" transform="scale(.99626)"/><use xlink:href="#NimbusRomNo9L-Regu-6f" transform="matrix(.99626 0 0 .99626 59.079 0)"/><use xlink:href="#NimbusRomNo9L-Regu-6c" transform="matrix(.99626 0 0 .99626 108.892 0)"/><use xlink:href="#NimbusRomNo9L-Regu-74" transform="matrix(.99626 0 0 .99626 136.587 0)"/><use xlink:href="#NimbusRomNo9L-Regu-61" transform="matrix(.99626 0 0 .99626 164.282 0)"/><use xlink:href="#NimbusRomNo9L-Regu-67" transform="matrix(.99626 0 0 .99626 208.516 0)"/><use xlink:href="#NimbusRomNo9L-Regu-65" transform="matrix(.99626 0 0 .99626 258.33 0)"/><use xlink:href="#CMR10-5b" transform="matrix(.99626 0 0 .99626 324.702 0)"/><use xlink:href="#NimbusRomNo9L-ReguItal-56" transform="matrix(.99626 0 0 .99626 347.316 0)"/><use xlink:href="#CMR10-5d" transform="matrix(.99626 0 0 .99626 420.84 0)"/></g></g><path id="line2d_225" d="m243.08 176.703 1.135-.102 1.136-.477.267.102.668.239 1.001.102.468.136.868.102.668.239.467-.103 1.002-.408.468-.102.801-.307.334.102.4.102.535.103.534.408.468.17 1.002-.613.4-.272.267.102.735.273.267.102.267.238.401.273.334-.102.267-.034.334.102.267.034.668-.273.267.034.668-.068.267-.17.601-.102.868-.784 1.27.102.467.137 1.135.102.267.034.601.102.668.239.4.102.936.374.534-.204.468.136 1.068.068.334.205.267-.102.334-.068 1.069-.069.4-.272.468-.102.668-.545.334-.068.4.306.334.205.401.306.4.273.602.204.801-.102 1.47-.647.4.102.401.136.334-.068.935-.102.334-.273.2-.102.2.068.401.273.802.306.734-.102.267-.238.668-.545.334-.069.4.103.669.442.334.375.734.477.267.136.268-.102.333-.068.668-.102.401-.307.334-.204.2.068.334.204.401-.102.334-.068.334-.102.868-.34.334.101.467.137.334.102.401.102.334-.102.2-.17.334-.375.401-.102.334-.103.735-.272.2.068.334.204.4-.102.268-.034.734.273 2.471.102.601.409.401.272.935-.102.601-.204.802.102.267.238.467.34.4-.101.602-.205.267-.102.267-.375.334-.51.267-.035 1.403.103.334.204.935.102 1.269.545.734-.102 1.336-.58 3.94.103.468.34.267.171.868-.102 1.069-.477 1.736.817.334-.272.334-.204.4-.103.468-.102.534-.17.601.51.401-.101.468-.137.734-.102.668-.545.334-.272.534-.988.468-1.159.4-1.771.535-3.543.534-5.11.601-8.346.868-14.955 1.27-25.992 1.469-28.41 1.335-21.325.668-8.142.601-5.144.468-2.725.4-1.26.334-.58.2-.102.602-.102.4-.102.802-.103.334-.272.267-.17.334.102.334.068.668-.102.4-.103 1.67.103.334.068 4.742-.102.333-.205 1.47-.681.334.272.801.682.868.34 1.002.068.4.273.335-.102.267-.034.467-.102 1.136-.511.467.136.668-.102.4-.103 2.071-.102 1.47-.647 1.201.51 1.937.103.601.205.401-.103 1.069-.443 1.87-.102.6-.204 2.204 1.022.268-.034 1.269-.102.267-.034.935-.103.4-.102.601.205 1.136.102.4.102.468.102.534.17 2.004.103 1.068.443.268-.103 3.072-1.465.4.103 1.069.443.6.102.402.272.467.137 1.135-.103.735-.647 1.603.102.467.137.535.102.4.102.601-.204 1.336.102.4.102.602-.204.534-.103.535-.408.467-.137.334-.102.334-.068.267.102 1.87.852.467-.102.401-.103 1.47.103 1.001.408 1.403-.068.534-.409.935.103.467.34.535.41.534.204.334-.273.668-.545.467-.34.601-.478.267.103.468.136.601.102 1.069.443h.734" clip-path="url(#p232d93d4ef)" style="fill:none;stroke:#000;stroke-linecap:square"/><path id="line2d_226" d="m243.08 174.42 1.202-.102.534-.17.735.273.4.102 1.002.409.268-.103.334-.068.4-.102 1.27-.545.4.102 1.269.545.6-.102.936-.375.534.103.4.272 1.203.102.334.068.334-.102.334-.068.734-.102.935-.375.668.239.4.102.335.272.267.17.267-.102.534-.408.601-.103.334-.272.267-.17.334.102 2.07.954.869-.341.467-.102.601-.205 1.537.103 1.135.477.668.102.267.034.467-.136.668-.103.668-.238.2.102.468.34.267-.101.334-.069.668-.102.4-.306.468-.341 2.004.954 1.736-.784.4.102.335.069.4.102 1.002.409.601.102.267.136.401-.102.334-.273.4-.272.602-.102.467-.341.601.102.267.068.668-.238 3.473-.102.601-.205.601.102.868.545.401.307 1.002-.102.534-.409.267.102.401.137.601-.205.2.102.535.41.267-.103.467-.17.535.17.334-.102.734-.307.267.239.267.238.334-.102.401-.102.735-.068.534-.41.534.205.535-.204.667.238 1.203.102.267.034.868.103.334.272.334.239.2-.103.468-.34.2.068.267.17.534-.068.334-.238.267.102.268.034.333-.102.268-.034.734.102.4.102.736-.102 1.202-.511 5.009.102.734.273.868-.103 1.002-.408 2.27.102.335.204.534.102.267.034.468.103.334.068.267-.102.334-.069 1.135-.068.334-.204.267.102.267.034.267-.204.2-.409.268-1.022.334-2.453.334-4.292.4-8.482.601-18.225 1.203-37.439.467-7.869.334-2.589.267-.579.2.205.268.715.668 2.793.667 2.93.401.75.735.647.133-.068.2-.307.668-1.601.401-1.295 1.803-6.915.334-.647.535-.409.4-.102.267.102.401.307 1.202 1.09.868-.068.735-.648.334.103h.2l.268-.239.333-.204.401-.103.334-.102.334-.272.267-.17.468-.103.868-.34.935.102.801.681.334.068 1.002-.102.334-.068.2.068.4.273.335.068.668-.103.4-.306.802-.681.801.102.334.068.4.102.335.068 1.269.102.4.103 1.27-.103.667-.272.4.306.335.205.267.034.735.102.334.102.333-.272.668-.545.267-.034 2.07.102.335.068.2-.068.534-.409.935-.102.668-.239.334.069.334.102.601.204.4.102 1.003.41.667.101.268.034 1.936-.102 1.336-.783.334-.239.801.102 1.336.58.668-.103 1.002-.442.334.068 1.736.102.534.17.668.102.601.205.468-.136.267.102.334.068.868.102.4.102.468-.136.267.102.401.102.467-.102.401-.102.868.375.601-.205.268.102.4.103.334-.103.4-.136.602.205 3.34-.103.333-.068.334.102.601.205.601-.205.468-.102 1.001-.408.268.102 1.135.477.534-.17 1.737.101.334.069 1.87-.103.801-.306.668-.102.267-.068.267.238.468.545h.2l.801.102.267.068.401-.306.267-.17.267.102.468.34.334.205 1.269-.103.4-.306.268-.17 1.736-.103.334-.068 1.736.102.268.034h.4" clip-path="url(#p232d93d4ef)" style="fill:none;stroke-dasharray:3.7,1.6;stroke-dashoffset:0;stroke:red"/><g id="LineCollection_2"><path d="M330.1 177.384V48.182M326.36 177.384V48.182" clip-path="url(#p232d93d4ef)" style="fill:none;stroke-dasharray:1,1.65;stroke-dashoffset:0;stroke:#000"/></g><path id="patch_8" d="M234.735 184.04V37.6" style="fill:none;stroke:#000;stroke-width:.5;stroke-linejoin:miter;stroke-linecap:square"/><path id="patch_9" d="M418.32 184.04V37.6" style="fill:none;stroke:#000;stroke-width:.5;stroke-linejoin:miter;stroke-linecap:square"/><path id="patch_10" d="M234.735 184.04H418.32" style="fill:none;stroke:#000;stroke-width:.5;stroke-linejoin:miter;stroke-linecap:square"/><path id="patch_11" d="M234.735 37.6H418.32" style="fill:none;stroke:#000;stroke-width:.5;stroke-linejoin:miter;stroke-linecap:square"/><g id="text_31" transform="matrix(.08 0 0 -.08 311.766 44.256)"><use xlink:href="#StandardSymL-74" transform="scale(.99626)"/><use xlink:href="#CMR10-3d" transform="matrix(.99626 0 0 .99626 74.143 0)"/><use xlink:href="#NimbusRomNo9L-Regu-35" transform="matrix(.99626 0 0 .99626 173.69 0)"/><use xlink:href="#CMMI10-3a" transform="matrix(.99626 0 0 .99626 223.504 0)"/><use xlink:href="#NimbusRomNo9L-Regu-36" transform="matrix(.99626 0 0 .99626 251.1 0)"/><use xlink:href="#NimbusRomNo9L-ReguItal-6e" transform="matrix(.99626 0 0 .99626 323.052 0)"/><use xlink:href="#NimbusRomNo9L-ReguItal-73" transform="matrix(.99626 0 0 .99626 372.865 0)"/></g><g id="text_32" transform="matrix(.096 0 0 -.096 261.78 31.6)"><defs><path id="NimbusRomNo9L-Regu-68" d="M1005 2222c269 294 461 402 710 402 320 0 480-229 480-676V684c0-434-64-518-435-556V32h1357v96c-346 64-384 115-384 556v1270c0 671-269 1016-787 1016-378 0-647-154-941-538v1958l-32 19c-218-77-378-128-736-230l-173-51v-102c26 6 45 6 77 6 275 0 326-52 326-327V686c0-449-38-507-409-558V32h1382v96c-371 38-435 115-435 556z" transform="scale(.01563)"/><path id="NimbusRomNo9L-Regu-73" d="m2016 2010-26 870h-70l-13-13c-57-45-64-51-89-51-39 0-103 13-173 45-141 54-282 83-448 83-506 0-871-328-871-790 0-358 205-615 749-923l371-211c224-128 333-283 333-481 0-283-205-462-531-462-218 0-416 82-538 221-134 157-192 302-275 662H333V-39h83c45 72 70 87 147 87 58 0 147-13 295-50 179-37 352-62 467-62 493 0 902 372 902 821 0 320-153 532-537 763l-692 410c-179 103-275 264-275 437 0 257 199 436 493 436 365 0 557-220 704-793z" transform="scale(.01563)"/></defs><use xlink:href="#NimbusRomNo9L-Regu-44" transform="scale(.99626)"/><use xlink:href="#NimbusRomNo9L-Regu-65" transform="matrix(.99626 0 0 .99626 71.93 0)"/><use xlink:href="#NimbusRomNo9L-Regu-6c" transform="matrix(.99626 0 0 .99626 116.164 0)"/><use xlink:href="#NimbusRomNo9L-Regu-61" transform="matrix(.99626 0 0 .99626 143.859 0)"/><use xlink:href="#NimbusRomNo9L-Regu-79" transform="matrix(.99626 0 0 .99626 188.092 0)"/><use xlink:href="#NimbusRomNo9L-Regu-62" transform="matrix(.99626 0 0 .99626 262.812 0)"/><use xlink:href="#NimbusRomNo9L-Regu-65" transform="matrix(.99626 0 0 .99626 312.625 0)"/><use xlink:href="#NimbusRomNo9L-Regu-74" transform="matrix(.99626 0 0 .99626 356.859 0)"/><use xlink:href="#NimbusRomNo9L-Regu-77" transform="matrix(.99626 0 0 .99626 384.554 0)"/><use xlink:href="#NimbusRomNo9L-Regu-65" transform="matrix(.99626 0 0 .99626 456.484 0)"/><use xlink:href="#NimbusRomNo9L-Regu-65" transform="matrix(.99626 0 0 .99626 500.718 0)"/><use xlink:href="#NimbusRomNo9L-Regu-6e" transform="matrix(.99626 0 0 .99626 544.951 0)"/><use xlink:href="#NimbusRomNo9L-Regu-74" transform="matrix(.99626 0 0 .99626 619.671 0)"/><use xlink:href="#NimbusRomNo9L-Regu-68" transform="matrix(.99626 0 0 .99626 647.366 0)"/><use xlink:href="#NimbusRomNo9L-Regu-65" transform="matrix(.99626 0 0 .99626 697.18 0)"/><use xlink:href="#NimbusRomNo9L-Regu-74" transform="matrix(.99626 0 0 .99626 766.32 0)"/><use xlink:href="#NimbusRomNo9L-Regu-77" transform="matrix(.99626 0 0 .99626 794.015 0)"/><use xlink:href="#NimbusRomNo9L-Regu-6f" transform="matrix(.99626 0 0 .99626 864.949 0)"/><use xlink:href="#NimbusRomNo9L-Regu-72" transform="matrix(.99626 0 0 .99626 939.668 0)"/><use xlink:href="#NimbusRomNo9L-Regu-65" transform="matrix(.99626 0 0 .99626 972.844 0)"/><use xlink:href="#NimbusRomNo9L-Regu-66" transform="matrix(.99626 0 0 .99626 1017.077 0)"/><use xlink:href="#NimbusRomNo9L-Regu-65" transform="matrix(.99626 0 0 .99626 1050.252 0)"/><use xlink:href="#NimbusRomNo9L-Regu-72" transform="matrix(.99626 0 0 .99626 1094.486 0)"/><use xlink:href="#NimbusRomNo9L-Regu-65" transform="matrix(.99626 0 0 .99626 1127.661 0)"/><use xlink:href="#NimbusRomNo9L-Regu-6e" transform="matrix(.99626 0 0 .99626 1171.895 0)"/><use xlink:href="#NimbusRomNo9L-Regu-63" transform="matrix(.99626 0 0 .99626 1221.708 0)"/><use xlink:href="#NimbusRomNo9L-Regu-65" transform="matrix(.99626 0 0 .99626 1265.942 0)"/><use xlink:href="#NimbusRomNo9L-Regu-73" transform="matrix(.99626 0 0 .99626 1310.175 0)"/></g><g id="legend_2"><path id="line2d_227" d="M241.935 47.6h16" style="fill:none;stroke:#000;stroke-linecap:square"/><g id="text_33" transform="matrix(.08 0 0 -.08 264.335 50.4)"><use xlink:href="#NimbusRomNo9L-Regu-52" transform="scale(.99626)"/><use xlink:href="#NimbusRomNo9L-Regu-65" transform="matrix(.99626 0 0 .99626 66.45 0)"/><use xlink:href="#NimbusRomNo9L-Regu-66" transform="matrix(.99626 0 0 .99626 110.684 0)"/><use xlink:href="#NimbusRomNo9L-Regu-65" transform="matrix(.99626 0 0 .99626 143.859 0)"/><use xlink:href="#NimbusRomNo9L-Regu-72" transform="matrix(.99626 0 0 .99626 188.092 0)"/><use xlink:href="#NimbusRomNo9L-Regu-65" transform="matrix(.99626 0 0 .99626 221.268 0)"/><use xlink:href="#NimbusRomNo9L-Regu-6e" transform="matrix(.99626 0 0 .99626 265.501 0)"/><use xlink:href="#NimbusRomNo9L-Regu-63" transform="matrix(.99626 0 0 .99626 315.314 0)"/><use xlink:href="#NimbusRomNo9L-Regu-65" transform="matrix(.99626 0 0 .99626 359.548 0)"/><use xlink:href="#NimbusRomNo9L-Regu-31" transform="matrix(.99626 0 0 .99626 403.782 0)"/></g><path id="line2d_228" d="M241.935 58.925h16" style="fill:none;stroke-dasharray:3.7,1.6;stroke-dashoffset:0;stroke:red"/><g id="text_34" transform="matrix(.08 0 0 -.08 264.335 61.725)"><use xlink:href="#NimbusRomNo9L-Regu-52" transform="scale(.99626)"/><use xlink:href="#NimbusRomNo9L-Regu-65" transform="matrix(.99626 0 0 .99626 66.45 0)"/><use xlink:href="#NimbusRomNo9L-Regu-66" transform="matrix(.99626 0 0 .99626 110.684 0)"/><use xlink:href="#NimbusRomNo9L-Regu-65" transform="matrix(.99626 0 0 .99626 143.859 0)"/><use xlink:href="#NimbusRomNo9L-Regu-72" transform="matrix(.99626 0 0 .99626 188.092 0)"/><use xlink:href="#NimbusRomNo9L-Regu-65" transform="matrix(.99626 0 0 .99626 221.268 0)"/><use xlink:href="#NimbusRomNo9L-Regu-6e" transform="matrix(.99626 0 0 .99626 265.501 0)"/><use xlink:href="#NimbusRomNo9L-Regu-63" transform="matrix(.99626 0 0 .99626 315.314 0)"/><use xlink:href="#NimbusRomNo9L-Regu-65" transform="matrix(.99626 0 0 .99626 359.548 0)"/><use xlink:href="#NimbusRomNo9L-Regu-32" transform="matrix(.99626 0 0 .99626 403.782 0)"/></g></g></g><g id="text_35" transform="matrix(.096 0 0 -.096 149.147 10.084)"><defs><path id="NimbusRomNo9L-Regu-75" d="M3066 320h-32c-295 0-365 70-365 365v2195H1658v-122c396 0 473-64 473-383V875c0-178-32-268-121-338-173-140-372-217-564-217-249 0-454 217-454 485v2075H58v-102c307 0 396-96 396-391V770c0-507 308-834 775-834 237 0 486 102 659 275l275 275V-45l26-13c320 128 550 199 877 288z" transform="scale(.01563)"/><path id="NimbusRomNo9L-Regu-78" d="M1779 0h1287v96c-199 0-327 102-525 384l-819 1255 531 767c121 173 313 276 518 276v102H1760v-102c192 0 256-38 256-129 0-78-77-219-237-420-32-38-109-154-192-283l-89 128c-180 268-295 486-295 569 0 90 83 135 275 135v102H154v-102h57c192 0 295-83 493-382l602-917L576 422C384 160 320 115 109 96V0h928v96c-179 0-256 32-256 115 0 39 45 135 128 263l505 787 583-896c25-39 38-77 38-115 0-127-45-154-256-154z" transform="scale(.01563)"/></defs><use xlink:href="#NimbusRomNo9L-Regu-44" transform="scale(.99626)"/><use xlink:href="#NimbusRomNo9L-Regu-65" transform="matrix(.99626 0 0 .99626 71.93 0)"/><use xlink:href="#NimbusRomNo9L-Regu-6c" transform="matrix(.99626 0 0 .99626 116.164 0)"/><use xlink:href="#NimbusRomNo9L-Regu-61" transform="matrix(.99626 0 0 .99626 143.859 0)"/><use xlink:href="#NimbusRomNo9L-Regu-79" transform="matrix(.99626 0 0 .99626 188.092 0)"/><use xlink:href="#NimbusRomNo9L-Regu-64" transform="matrix(.99626 0 0 .99626 262.812 0)"/><use xlink:href="#NimbusRomNo9L-Regu-75" transform="matrix(.99626 0 0 .99626 312.625 0)"/><use xlink:href="#NimbusRomNo9L-Regu-65" transform="matrix(.99626 0 0 .99626 362.438 0)"/><use xlink:href="#NimbusRomNo9L-Regu-74" transform="matrix(.99626 0 0 .99626 431.579 0)"/><use xlink:href="#NimbusRomNo9L-Regu-6f" transform="matrix(.99626 0 0 .99626 459.274 0)"/><use xlink:href="#NimbusRomNo9L-Regu-61" transform="matrix(.99626 0 0 .99626 533.994 0)"/><use xlink:href="#NimbusRomNo9L-Regu-6e" transform="matrix(.99626 0 0 .99626 578.227 0)"/><use xlink:href="#NimbusRomNo9L-Regu-65" transform="matrix(.99626 0 0 .99626 652.947 0)"/><use xlink:href="#NimbusRomNo9L-Regu-78" transform="matrix(.99626 0 0 .99626 695.687 0)"/><use xlink:href="#NimbusRomNo9L-Regu-74" transform="matrix(.99626 0 0 .99626 745.5 0)"/><use xlink:href="#NimbusRomNo9L-Regu-72" transform="matrix(.99626 0 0 .99626 773.196 0)"/><use xlink:href="#NimbusRomNo9L-Regu-61" transform="matrix(.99626 0 0 .99626 806.37 0)"/><use xlink:href="#NimbusRomNo9L-Regu-31" transform="matrix(.99626 0 0 .99626 875.51 0)"/><use xlink:href="#NimbusRomNo9L-Regu-30" transform="matrix(.99626 0 0 .99626 925.324 0)"/><use xlink:href="#NimbusRomNo9L-Regu-6d" transform="matrix(.99626 0 0 .99626 975.137 0)"/><use xlink:href="#NimbusRomNo9L-Regu-63" transform="matrix(.99626 0 0 .99626 1077.552 0)"/><use xlink:href="#NimbusRomNo9L-Regu-61" transform="matrix(.99626 0 0 .99626 1121.786 0)"/><use xlink:href="#NimbusRomNo9L-Regu-62" transform="matrix(.99626 0 0 .99626 1166.02 0)"/><use xlink:href="#NimbusRomNo9L-Regu-6c" transform="matrix(.99626 0 0 .99626 1215.833 0)"/><use xlink:href="#NimbusRomNo9L-Regu-65" transform="matrix(.99626 0 0 .99626 1243.528 0)"/></g></g><defs><clipPath id="p41754448cc"><path d="M23.055 37.599H206.64V184.04H23.055z"/></clipPath><clipPath id="p232d93d4ef"><path d="M234.735 37.599H418.32V184.04H234.735z"/></clipPath></defs></svg>