<svg xmlns="http://www.w3.org/2000/svg" xmlns:xlink="http://www.w3.org/1999/xlink" width="303.36" height="226.56" viewBox="0 0 227.52 169.92"><defs><style>*{stroke-linejoin:round;stroke-linecap:butt}</style></defs><g id="figure_1"><path id="patch_1" d="M0 169.92h227.52V0H0z" style="fill:none"/><g id="axes_1"><path id="patch_2" d="M23.055 143.72H223.92V16.085H23.055z" style="fill:none"/><g id="matplotlib.axis_1"><g id="xtick_1"><g id="line2d_1"><defs><path id="m7e71759894" d="M0 0v-3" style="stroke:#000;stroke-width:.5"/></defs><use xlink:href="#m7e71759894" x="50.453" y="143.721" style="stroke:#000;stroke-width:.5"/></g><g id="line2d_2"><defs><path id="mb47785da8f" d="M0 0v3" style="stroke:#000;stroke-width:.5"/></defs><use xlink:href="#mb47785da8f" x="50.453" y="16.084" style="stroke:#000;stroke-width:.5"/></g><g id="text_1" transform="matrix(.08 0 0 -.08 41.38 152.624)"><defs><path id="CMSY10-0" d="M4218 1472c108 0 224 0 224 128s-116 128-224 128H755c-109 0-224 0-224-128s115-128 224-128z" transform="scale(.01563)"/><path id="NimbusRomNo9L-Regu-32" d="m3040 875-83 32c-237-363-320-421-608-421H819l1075 1123c570 593 820 1078 820 1576 0 638-519 1128-1184 1128-352 0-685-140-922-395-205-218-301-422-410-875l135-32c256 625 486 829 928 829 537 0 902-364 902-900 0-497-294-1090-832-1658L192 77V0h2496z" transform="scale(.01563)"/><path id="NimbusRomNo9L-Regu-30" d="M1626 4352c-352 0-621-108-858-332-371-359-614-1095-614-1844 0-697 211-1446 512-1804C902 90 1229-64 1600-64c326 0 602 109 832 333 371 352 614 1095 614 1869 0 1312-582 2214-1420 2214m-20-166c538 0 826-723 826-2061 0-1337-282-2022-832-2022S768 788 768 2119c0 1357 288 2067 838 2067" transform="scale(.01563)"/></defs><use xlink:href="#CMSY10-0" transform="scale(.99626)"/><use xlink:href="#NimbusRomNo9L-Regu-32" transform="matrix(.99626 0 0 .99626 77.409 0)"/><use xlink:href="#NimbusRomNo9L-Regu-30" transform="matrix(.99626 0 0 .99626 127.222 0)"/><use xlink:href="#NimbusRomNo9L-Regu-30" transform="matrix(.99626 0 0 .99626 177.035 0)"/></g></g><g id="xtick_2"><use xlink:href="#m7e71759894" id="line2d_3" x="86.989" y="143.721" style="stroke:#000;stroke-width:.5"/><use xlink:href="#mb47785da8f" id="line2d_4" x="86.989" y="16.084" style="stroke:#000;stroke-width:.5"/><g id="text_2" transform="matrix(.08 0 0 -.08 77.915 152.624)"><defs><path id="NimbusRomNo9L-Regu-31" d="M1862 4339 710 3757v-90c77 32 148 58 173 71 115 45 224 70 288 70 135 0 192-97 192-303V592c0-213-51-360-153-419-96-57-186-77-455-77V0h1767v96c-506 0-608 64-608 374v3857z" transform="scale(.01563)"/></defs><use xlink:href="#CMSY10-0" transform="scale(.99626)"/><use xlink:href="#NimbusRomNo9L-Regu-31" transform="matrix(.99626 0 0 .99626 77.409 0)"/><use xlink:href="#NimbusRomNo9L-Regu-30" transform="matrix(.99626 0 0 .99626 127.222 0)"/><use xlink:href="#NimbusRomNo9L-Regu-30" transform="matrix(.99626 0 0 .99626 177.035 0)"/></g></g><g id="xtick_3"><use xlink:href="#m7e71759894" id="line2d_5" x="123.524" y="143.721" style="stroke:#000;stroke-width:.5"/><use xlink:href="#mb47785da8f" id="line2d_6" x="123.524" y="16.084" style="stroke:#000;stroke-width:.5"/><use xlink:href="#NimbusRomNo9L-Regu-30" id="text_3" transform="matrix(.0797 0 0 -.0797 121.532 152.624)"/></g><g id="xtick_4"><use xlink:href="#m7e71759894" id="line2d_7" x="160.06" y="143.721" style="stroke:#000;stroke-width:.5"/><use xlink:href="#mb47785da8f" id="line2d_8" x="160.06" y="16.084" style="stroke:#000;stroke-width:.5"/><g id="text_4" transform="matrix(.08 0 0 -.08 154.082 152.624)"><use xlink:href="#NimbusRomNo9L-Regu-31" transform="scale(.99626)"/><use xlink:href="#NimbusRomNo9L-Regu-30" transform="matrix(.99626 0 0 .99626 49.813 0)"/><use xlink:href="#NimbusRomNo9L-Regu-30" transform="matrix(.99626 0 0 .99626 99.626 0)"/></g></g><g id="xtick_5"><use xlink:href="#m7e71759894" id="line2d_9" x="196.595" y="143.721" style="stroke:#000;stroke-width:.5"/><use xlink:href="#mb47785da8f" id="line2d_10" x="196.595" y="16.084" style="stroke:#000;stroke-width:.5"/><g id="text_5" transform="matrix(.08 0 0 -.08 190.618 152.624)"><use xlink:href="#NimbusRomNo9L-Regu-32" transform="scale(.99626)"/><use xlink:href="#NimbusRomNo9L-Regu-30" transform="matrix(.99626 0 0 .99626 49.813 0)"/><use xlink:href="#NimbusRomNo9L-Regu-30" transform="matrix(.99626 0 0 .99626 99.626 0)"/></g></g><g id="xtick_6"><g id="line2d_11"><defs><path id="m7176e24583" d="M0 0v-1.5" style="stroke:#000;stroke-width:.5"/></defs><use xlink:href="#m7176e24583" x="28.532" y="143.721" style="stroke:#000;stroke-width:.5"/></g><g id="line2d_12"><defs><path id="m7bc31bf38c" d="M0 0v1.5" style="stroke:#000;stroke-width:.5"/></defs><use xlink:href="#m7bc31bf38c" x="28.532" y="16.084" style="stroke:#000;stroke-width:.5"/></g></g><g id="xtick_7"><use xlink:href="#m7176e24583" id="line2d_13" x="35.839" y="143.721" style="stroke:#000;stroke-width:.5"/><use xlink:href="#m7bc31bf38c" id="line2d_14" x="35.839" y="16.084" style="stroke:#000;stroke-width:.5"/></g><g id="xtick_8"><use xlink:href="#m7176e24583" id="line2d_15" x="43.146" y="143.721" style="stroke:#000;stroke-width:.5"/><use xlink:href="#m7bc31bf38c" id="line2d_16" x="43.146" y="16.084" style="stroke:#000;stroke-width:.5"/></g><g id="xtick_9"><use xlink:href="#m7176e24583" id="line2d_17" x="57.76" y="143.721" style="stroke:#000;stroke-width:.5"/><use xlink:href="#m7bc31bf38c" id="line2d_18" x="57.76" y="16.084" style="stroke:#000;stroke-width:.5"/></g><g id="xtick_10"><use xlink:href="#m7176e24583" id="line2d_19" x="65.067" y="143.721" style="stroke:#000;stroke-width:.5"/><use xlink:href="#m7bc31bf38c" id="line2d_20" x="65.067" y="16.084" style="stroke:#000;stroke-width:.5"/></g><g id="xtick_11"><use xlink:href="#m7176e24583" id="line2d_21" x="72.374" y="143.721" style="stroke:#000;stroke-width:.5"/><use xlink:href="#m7bc31bf38c" id="line2d_22" x="72.374" y="16.084" style="stroke:#000;stroke-width:.5"/></g><g id="xtick_12"><use xlink:href="#m7176e24583" id="line2d_23" x="79.682" y="143.721" style="stroke:#000;stroke-width:.5"/><use xlink:href="#m7bc31bf38c" id="line2d_24" x="79.682" y="16.084" style="stroke:#000;stroke-width:.5"/></g><g id="xtick_13"><use xlink:href="#m7176e24583" id="line2d_25" x="94.296" y="143.721" style="stroke:#000;stroke-width:.5"/><use xlink:href="#m7bc31bf38c" id="line2d_26" x="94.296" y="16.084" style="stroke:#000;stroke-width:.5"/></g><g id="xtick_14"><use xlink:href="#m7176e24583" id="line2d_27" x="101.603" y="143.721" style="stroke:#000;stroke-width:.5"/><use xlink:href="#m7bc31bf38c" id="line2d_28" x="101.603" y="16.084" style="stroke:#000;stroke-width:.5"/></g><g id="xtick_15"><use xlink:href="#m7176e24583" id="line2d_29" x="108.91" y="143.721" style="stroke:#000;stroke-width:.5"/><use xlink:href="#m7bc31bf38c" id="line2d_30" x="108.91" y="16.084" style="stroke:#000;stroke-width:.5"/></g><g id="xtick_16"><use xlink:href="#m7176e24583" id="line2d_31" x="116.217" y="143.721" style="stroke:#000;stroke-width:.5"/><use xlink:href="#m7bc31bf38c" id="line2d_32" x="116.217" y="16.084" style="stroke:#000;stroke-width:.5"/></g><g id="xtick_17"><use xlink:href="#m7176e24583" id="line2d_33" x="130.831" y="143.721" style="stroke:#000;stroke-width:.5"/><use xlink:href="#m7bc31bf38c" id="line2d_34" x="130.831" y="16.084" style="stroke:#000;stroke-width:.5"/></g><g id="xtick_18"><use xlink:href="#m7176e24583" id="line2d_35" x="138.138" y="143.721" style="stroke:#000;stroke-width:.5"/><use xlink:href="#m7bc31bf38c" id="line2d_36" x="138.138" y="16.084" style="stroke:#000;stroke-width:.5"/></g><g id="xtick_19"><use xlink:href="#m7176e24583" id="line2d_37" x="145.445" y="143.721" style="stroke:#000;stroke-width:.5"/><use xlink:href="#m7bc31bf38c" id="line2d_38" x="145.445" y="16.084" style="stroke:#000;stroke-width:.5"/></g><g id="xtick_20"><use xlink:href="#m7176e24583" id="line2d_39" x="152.753" y="143.721" style="stroke:#000;stroke-width:.5"/><use xlink:href="#m7bc31bf38c" id="line2d_40" x="152.753" y="16.084" style="stroke:#000;stroke-width:.5"/></g><g id="xtick_21"><use xlink:href="#m7176e24583" id="line2d_41" x="167.367" y="143.721" style="stroke:#000;stroke-width:.5"/><use xlink:href="#m7bc31bf38c" id="line2d_42" x="167.367" y="16.084" style="stroke:#000;stroke-width:.5"/></g><g id="xtick_22"><use xlink:href="#m7176e24583" id="line2d_43" x="174.674" y="143.721" style="stroke:#000;stroke-width:.5"/><use xlink:href="#m7bc31bf38c" id="line2d_44" x="174.674" y="16.084" style="stroke:#000;stroke-width:.5"/></g><g id="xtick_23"><use xlink:href="#m7176e24583" id="line2d_45" x="181.981" y="143.721" style="stroke:#000;stroke-width:.5"/><use xlink:href="#m7bc31bf38c" id="line2d_46" x="181.981" y="16.084" style="stroke:#000;stroke-width:.5"/></g><g id="xtick_24"><use xlink:href="#m7176e24583" id="line2d_47" x="189.288" y="143.721" style="stroke:#000;stroke-width:.5"/><use xlink:href="#m7bc31bf38c" id="line2d_48" x="189.288" y="16.084" style="stroke:#000;stroke-width:.5"/></g><g id="xtick_25"><use xlink:href="#m7176e24583" id="line2d_49" x="203.902" y="143.721" style="stroke:#000;stroke-width:.5"/><use xlink:href="#m7bc31bf38c" id="line2d_50" x="203.902" y="16.084" style="stroke:#000;stroke-width:.5"/></g><g id="xtick_26"><use xlink:href="#m7176e24583" id="line2d_51" x="211.209" y="143.721" style="stroke:#000;stroke-width:.5"/><use xlink:href="#m7bc31bf38c" id="line2d_52" x="211.209" y="16.084" style="stroke:#000;stroke-width:.5"/></g><g id="xtick_27"><use xlink:href="#m7176e24583" id="line2d_53" x="218.516" y="143.721" style="stroke:#000;stroke-width:.5"/><use xlink:href="#m7bc31bf38c" id="line2d_54" x="218.516" y="16.084" style="stroke:#000;stroke-width:.5"/></g><g id="text_6" transform="matrix(.08 0 0 -.08 115.47 164.327)"><defs><path id="NimbusRomNo9L-ReguItal-74" d="M1894 2752h-512l180 658c6 13 6 26 6 32 0 45-19 64-51 64-39 0-58-6-96-58-250-325-647-645-851-702-160-51-205-89-205-160 0-6 0-19 6-38h474L384 783c-13-58-19-77-38-134-58-193-109-418-109-470C237 39 371-64 544-64c294 0 506 179 909 775l-83 45c-314-404-416-507-519-507-57 0-96 51-96 128 0 7 0 13 7 32l563 2139h537z" transform="scale(.01563)"/><path id="CMR10-5b" d="M1632-1600v257h-621v5887h621v257H755v-6401z" transform="scale(.01563)"/><path id="NimbusRomNo9L-ReguItal-6e" d="m2944 739-134-167c-186-237-301-340-391-340-51 0-102 51-102 102 0 46 0 46 89 404l365 1322c32 134 58 275 58 365 0 231-173 391-423 391-409 0-812-384-1472-1410l429 1397-19 12c-346-70-480-95-1037-197v-108c327 0 410-38 410-167 0-39-7-77-13-109L90-12h480c300 1014 358 1156 640 1592 384 589 710 911 947 911 96 0 153-71 153-187 0-76-38-288-89-487L1939 758c-83-327-102-417-102-481 0-244 89-346 301-346 288 0 454 135 896 725z" transform="scale(.01563)"/><path id="NimbusRomNo9L-ReguItal-73" d="M230 945 102-83h103C256 29 294 64 358 64c71 0 186-30 314-69 141-55 250-78 352-78 538 0 922 346 922 832 0 243-135 525-436 896-243 300-345 499-345 672 0 211 134 346 358 346 333 0 525-240 589-743h102l128 896h-89c-51-96-103-123-192-123-45 0-109 15-231 51-160 58-256 72-358 72-467 0-774-274-774-702 0-204 134-479 403-824 249-326 358-549 358-734 0-288-192-492-473-492-352 0-551 266-653 881z" transform="scale(.01563)"/><path id="CMR10-5d" d="M1018 4801H141v-257h621v-5887H141v-257h877z" transform="scale(.01563)"/></defs><use xlink:href="#NimbusRomNo9L-ReguItal-74" transform="scale(.99626)"/><use xlink:href="#CMR10-5b" transform="matrix(.99626 0 0 .99626 56.608 0)"/><use xlink:href="#NimbusRomNo9L-ReguItal-6e" transform="matrix(.99626 0 0 .99626 84.204 0)"/><use xlink:href="#NimbusRomNo9L-ReguItal-73" transform="matrix(.99626 0 0 .99626 134.017 0)"/><use xlink:href="#CMR10-5d" transform="matrix(.99626 0 0 .99626 172.77 0)"/></g></g><g id="matplotlib.axis_2"><g id="ytick_1"><g id="line2d_55"><defs><path id="m2fc3adfd47" d="M0 0h3" style="stroke:#000;stroke-width:.5"/></defs><use xlink:href="#m2fc3adfd47" x="23.055" y="134.693" style="stroke:#000;stroke-width:.5"/></g><g id="line2d_56"><defs><path id="mb4bd685472" d="M0 0h-3" style="stroke:#000;stroke-width:.5"/></defs><use xlink:href="#mb4bd685472" x="223.92" y="134.693" style="stroke:#000;stroke-width:.5"/></g><use xlink:href="#NimbusRomNo9L-Regu-30" id="text_7" transform="matrix(.0797 0 0 -.0797 15.57 137.394)"/></g><g id="ytick_2"><use xlink:href="#m2fc3adfd47" id="line2d_57" x="23.055" y="99.429" style="stroke:#000;stroke-width:.5"/><use xlink:href="#mb4bd685472" id="line2d_58" x="223.92" y="99.429" style="stroke:#000;stroke-width:.5"/><use xlink:href="#NimbusRomNo9L-Regu-32" id="text_8" transform="matrix(.0797 0 0 -.0797 15.57 102.131)"/></g><g id="ytick_3"><use xlink:href="#m2fc3adfd47" id="line2d_59" x="23.055" y="64.166" style="stroke:#000;stroke-width:.5"/><use xlink:href="#mb4bd685472" id="line2d_60" x="223.92" y="64.166" style="stroke:#000;stroke-width:.5"/><g id="text_9" transform="matrix(.08 0 0 -.08 15.57 66.868)"><defs><path id="NimbusRomNo9L-Regu-34" d="M3021 1497h-653v2855h-282L77 1497v-409h1798V32h493v1056h653zm-1152 0H333l1536 2201z" transform="scale(.01563)"/></defs><use xlink:href="#NimbusRomNo9L-Regu-34" transform="scale(.99626)"/></g></g><g id="ytick_4"><use xlink:href="#m2fc3adfd47" id="line2d_61" x="23.055" y="28.903" style="stroke:#000;stroke-width:.5"/><use xlink:href="#mb4bd685472" id="line2d_62" x="223.92" y="28.903" style="stroke:#000;stroke-width:.5"/><g id="text_10" transform="matrix(.08 0 0 -.08 15.57 31.605)"><defs><path id="NimbusRomNo9L-Regu-36" d="M2854 4391c-729-64-1100-186-1568-512C595 3386 218 2656 218 1802c0-554 172-1114 448-1432C909 89 1254-64 1651-64c794 0 1344 605 1344 1485 0 815-467 1331-1203 1331-282 0-416-45-819-288 173 967 889 1658 1894 1824zM1549 2458c550 0 870-458 870-1254 0-700-249-1088-697-1088-564 0-909 598-909 1584 0 325 51 503 179 599 134 101 333 159 557 159" transform="scale(.01563)"/></defs><use xlink:href="#NimbusRomNo9L-Regu-36" transform="scale(.99626)"/></g></g><g id="ytick_5"><g id="line2d_63"><defs><path id="mf8d28d2078" d="M0 0h1.5" style="stroke:#000;stroke-width:.5"/></defs><use xlink:href="#mf8d28d2078" x="23.055" y="143.508" style="stroke:#000;stroke-width:.5"/></g><g id="line2d_64"><defs><path id="m391ac4e44a" d="M0 0h-1.5" style="stroke:#000;stroke-width:.5"/></defs><use xlink:href="#m391ac4e44a" x="223.92" y="143.508" style="stroke:#000;stroke-width:.5"/></g></g><g id="ytick_6"><use xlink:href="#mf8d28d2078" id="line2d_65" x="23.055" y="125.877" style="stroke:#000;stroke-width:.5"/><use xlink:href="#m391ac4e44a" id="line2d_66" x="223.92" y="125.877" style="stroke:#000;stroke-width:.5"/></g><g id="ytick_7"><use xlink:href="#mf8d28d2078" id="line2d_67" x="23.055" y="117.061" style="stroke:#000;stroke-width:.5"/><use xlink:href="#m391ac4e44a" id="line2d_68" x="223.92" y="117.061" style="stroke:#000;stroke-width:.5"/></g><g id="ytick_8"><use xlink:href="#mf8d28d2078" id="line2d_69" x="23.055" y="108.245" style="stroke:#000;stroke-width:.5"/><use xlink:href="#m391ac4e44a" id="line2d_70" x="223.92" y="108.245" style="stroke:#000;stroke-width:.5"/></g><g id="ytick_9"><use xlink:href="#mf8d28d2078" id="line2d_71" x="23.055" y="90.614" style="stroke:#000;stroke-width:.5"/><use xlink:href="#m391ac4e44a" id="line2d_72" x="223.92" y="90.614" style="stroke:#000;stroke-width:.5"/></g><g id="ytick_10"><use xlink:href="#mf8d28d2078" id="line2d_73" x="23.055" y="81.798" style="stroke:#000;stroke-width:.5"/><use xlink:href="#m391ac4e44a" id="line2d_74" x="223.92" y="81.798" style="stroke:#000;stroke-width:.5"/></g><g id="ytick_11"><use xlink:href="#mf8d28d2078" id="line2d_75" x="23.055" y="72.982" style="stroke:#000;stroke-width:.5"/><use xlink:href="#m391ac4e44a" id="line2d_76" x="223.92" y="72.982" style="stroke:#000;stroke-width:.5"/></g><g id="ytick_12"><use xlink:href="#mf8d28d2078" id="line2d_77" x="23.055" y="55.351" style="stroke:#000;stroke-width:.5"/><use xlink:href="#m391ac4e44a" id="line2d_78" x="223.92" y="55.351" style="stroke:#000;stroke-width:.5"/></g><g id="ytick_13"><use xlink:href="#mf8d28d2078" id="line2d_79" x="23.055" y="46.535" style="stroke:#000;stroke-width:.5"/><use xlink:href="#m391ac4e44a" id="line2d_80" x="223.92" y="46.535" style="stroke:#000;stroke-width:.5"/></g><g id="ytick_14"><use xlink:href="#mf8d28d2078" id="line2d_81" x="23.055" y="37.719" style="stroke:#000;stroke-width:.5"/><use xlink:href="#m391ac4e44a" id="line2d_82" x="223.92" y="37.719" style="stroke:#000;stroke-width:.5"/></g><g id="ytick_15"><use xlink:href="#mf8d28d2078" id="line2d_83" x="23.055" y="20.088" style="stroke:#000;stroke-width:.5"/><use xlink:href="#m391ac4e44a" id="line2d_84" x="223.92" y="20.088" style="stroke:#000;stroke-width:.5"/></g><g id="text_11" transform="matrix(0 -.08 -.08 0 9.578 97.843)"><defs><path id="NimbusRomNo9L-Regu-56" d="M4461 4231H3149v-135c352 0 467-70 467-250 0-102-45-274-122-466l-940-2347-967 2166c-211 468-262 615-262 711 0 122 89 186 294 186 26 0 96 0 186 13v122H102v-135c314 0 404-89 679-657L2355-64h96l1421 3585c211 505 282 575 589 575z" transform="scale(.01563)"/><path id="NimbusRomNo9L-Regu-6f" d="M1600 2944c-832 0-1414-614-1414-1498C186 582 781-64 1587-64c807 0 1421 678 1421 1562 0 838-589 1446-1408 1446m-83-179c537 0 915-615 915-1491 0-724-288-1159-768-1159-250 0-486 154-621 410-179 333-281 781-281 1235 0 608 300 1005 755 1005" transform="scale(.01563)"/><path id="NimbusRomNo9L-Regu-6c" d="M122 4000h236c205 0 269-90 269-390V557c0-346-89-429-493-461V0h1511v109c-403 0-480 64-480 419v3843l-26 13c-333-109-576-173-1017-281z" transform="scale(.01563)"/><path id="NimbusRomNo9L-Regu-74" d="M1632 2880H986v742c0 64-7 84-45 84-45-58-83-116-128-180-243-352-519-659-621-685-70-47-109-93-109-126 0-20 7-33 26-33h339V751c0-539 192-815 570-815 313 0 556 154 768 487l-84 70c-134-160-243-224-384-224-236 0-332 174-332 578v1835h646z" transform="scale(.01563)"/><path id="NimbusRomNo9L-Regu-61" d="M2829 423c-109-90-186-122-282-122-147 0-192 89-192 371v1248c0 333-32 518-128 672-141 230-416 352-793 352-602 0-1076-314-1076-717 0-147 128-275 276-275 153 0 288 128 288 269 0 25-7 57-13 102-13 58-19 109-19 154 0 173 204 313 460 313 314 0 487-185 487-531v-390c-986-397-1095-448-1370-691-141-128-230-346-230-557 0-403 281-685 672-685 281 0 544 134 934 467 32-333 147-467 410-467 217 0 352 77 576 320zm-992 360c0-199-32-257-167-334-153-90-332-148-467-148-224 0-403 219-403 495v26c0 379 262 611 1037 893z" transform="scale(.01563)"/><path id="NimbusRomNo9L-Regu-67" d="M3008 2496v250h-493c-128 0-224 17-352 56l-141 45c-172 56-345 84-512 84-595 0-1068-464-1068-1050 0-405 172-651 595-863-122-112-237-219-275-250-212-180-295-305-295-430 0-132 77-207 339-332-454-335-627-549-627-787 0-343 499-627 1107-627 480 0 980 170 1312 446 244 203 352 414 352 663 0 407-300 683-774 683h-826c-339 0-499 59-499 164 0 130 211 360 384 412 58-7 103-13 122-13 121-13 205-19 243-19 237 0 493 98 691 275 211 184 307 414 307 742 0 190-32 341-121 551zM941-13c211-45 723-83 1037-83 582 0 793-84 793-318 0-377-486-629-1209-629-564 0-935 188-935 473 0 150 45 234 314 557m32 2158c0 381 179 607 473 607 199 0 365-110 468-303 115-226 192-522 192-774 0-361-186-587-480-587-384 0-653 419-653 1038z" transform="scale(.01563)"/><path id="NimbusRomNo9L-Regu-65" d="M2611 1053c-307-489-582-675-992-675-365 0-640 186-825 552-116 244-160 456-173 849h1971c-51 414-115 598-275 802-192 230-487 363-819 363-320 0-621-115-864-333-301-262-474-717-474-1241C160 486 621-64 1357-64c608 0 1088 379 1357 1072zM634 1984c70 495 288 730 678 730s544-179 627-730z" transform="scale(.01563)"/><path id="NimbusRomNo9L-ReguItal-56" d="M4403 4140H3213v-102c288-32 403-96 403-218 0-121-122-397-333-762L1965 776l-423 2840c-6 32-6 57-6 95 0 219 90 282 493 327v102H486v-102c359-45 372-64 506-865l544-3333h122l2387 3942c109 173 211 250 358 250z" transform="scale(.01563)"/></defs><use xlink:href="#NimbusRomNo9L-Regu-56" transform="scale(.99626)"/><use xlink:href="#NimbusRomNo9L-Regu-6f" transform="matrix(.99626 0 0 .99626 59.079 0)"/><use xlink:href="#NimbusRomNo9L-Regu-6c" transform="matrix(.99626 0 0 .99626 108.892 0)"/><use xlink:href="#NimbusRomNo9L-Regu-74" transform="matrix(.99626 0 0 .99626 136.587 0)"/><use xlink:href="#NimbusRomNo9L-Regu-61" transform="matrix(.99626 0 0 .99626 164.282 0)"/><use xlink:href="#NimbusRomNo9L-Regu-67" transform="matrix(.99626 0 0 .99626 208.516 0)"/><use xlink:href="#NimbusRomNo9L-Regu-65" transform="matrix(.99626 0 0 .99626 258.33 0)"/><use xlink:href="#CMR10-5b" transform="matrix(.99626 0 0 .99626 324.702 0)"/><use xlink:href="#NimbusRomNo9L-ReguItal-56" transform="matrix(.99626 0 0 .99626 347.316 0)"/><use xlink:href="#CMR10-5d" transform="matrix(.99626 0 0 .99626 420.84 0)"/></g></g><path id="line2d_85" d="m32.185 135.715 1.096.917.658.212.73-.247.585-.106.293-.176.219-.07.438-.283.293-.035.292-.106h.146l.804.282 1.315.07.292.177 1.17-.459 1.826.036.366.388.95.105.365.071.511-.141.877-.07.293-.142.292-.105.511-.177.804.282.292.07.439.318.804.106.292.035.511-.106.366-.246.438.105 1.535-.105.511-.141.22.07.292.141.511-.106.292-.07.293.035.438-.14.292.034.22.07.146.071.292-.035 2.046-.07.365-.247.293.106h.219l.292-.177.22-.07.219-.141.511.14.292-.14.293.105.365.283.438.282h.22l.219.211.292.141 1.68-.106.731-.246.366-.106.73-.282 1.389.564.804-.282.292.106.511.14 1.243-.493 1.169-.106.365-.07 1.535.07.438.282.73.247.658-.07.147-.07.511.14.585-.388.438-.458 1.17-.494.365.282.219-.035.657.423.658.811 1.315.53.293-.071.365-.212.365-.106.658-.493.365-.106h.22l.365-.106.438-.106.146.07.366.212.877.106.365.07.438-.105.877-.106.366-.106.438.106.365-.212.439-.105 1.461.105.22.036.438-.106.658.212.876.105.585.247.438-.282.804-.106h.22l.292.036.584-.106.293-.247.219-.212.584.177.585.105.292.036.292-.036.293.036.219-.036 1.242.53.292-.071.293.035 1.315.106.585.247.438-.318 1.9-.105.292-.247.292-.318 1.096.106.293.035 1.461.106.366.212 4.018-.106 1.316-.529.219-.07.365-.212.804.106.73.458.366.212 1.973.106.292.035.366-.247.219.035.292-.07.292.07.366-.07 2.923-.07.365-.46.438-1.022.293-1.234.365-2.574.512-5.396.584-9.027.877-18.442 1.754-38.296.584-8.005.512-4.62.438-2.397.366-1.058.365-.564.73-.247.293.035 1.315-.106.439-.105.511.105.292.036.731.07.22.106.218-.106.439-.317.95-.106.292-.035.365-.07.658-.494h.146l.95.352.292-.106.366-.07 1.388-.106.366-.106.292.036 1.023-.106.438-.141.293.07.365-.07.438.105.293.177 1.242.106.438.105.22-.035.51.141 1.024-.388.804-.07.292-.177.438-.105.293-.177 1.315-.105.511-.177 1.316.564.657-.211.293.106.365.246 2.411.106h.22l.292-.035.22.106.949.106.292.14.293-.035.292.106.22.106.218-.106.804-.282.22.106.218-.106.512-.353.438-.105.366.246.292.071.73.564 1.243.705.292.318.439.07.438.282 1.096.635.22.247.292.106.365.07 1.023.106.365.07.804.106.365.071.366.106.292.035 1.096.106.658.247.292-.036.512-.07.438-.282.365.106.293.035 1.607.106.366.246.292.283.292.07.366-.07.438-.106.658-.247.292.07.292-.246.366-.247 1.022.106.804.282.585-.212.511.388.293-.07.365.07 1.534.106.293.07 1.242-.493.73.105.293.036.585-.177.657.388.292.318 1.023-.106.22-.035.511.352.439-.106.292-.105.584-.424.22.106.292.036.292-.036.292.07.293-.07.511.141.439.106.365.212.438.105 1.097-.105.803-.282.293-.106.876-.318.22.212.219.176 1.023-.105.292-.036.658.212.292.106.22.035.584-.423.73.106.731.282.804-.318.438.141.366-.07 1.242-.106h.22l.876.317.658.106.292.035 2.046-.105.292-.036 2.558.106 1.242.494h1.827" clip-path="url(#p11831ceabe)" style="fill:none;stroke:#000;stroke-linecap:square"/><path id="line2d_86" d="m32.185 137.92.439-.107.584-.035 2.558-.106 2.484-.493.585.052.438-.017 2.339.458 1.388-.106.292-.07h.366l.876-.106 1.608-.106.438-.017h.439l1.827.07.292.106 3.507-.74.731-.106h.438l3.873.106.658.211.219.07.292.106.366.106.365.088 2.265-.105 2.12-.406 2.63-.07.219-.089.292.036.731-.089.512-.158 2.63.088.292.053.658-.053 1.17.176 1.46.088.439.141.585-.035.292-.017.73-.07 1.097-.107.219-.035h.365l.366-.106.803.106 2.412-.476.95.106.365.07 1.607.3 1.462-.458.292-.124.585-.088.365-.106h.439l.95.106 1.607.282 2.12-.106.438-.105 1.315.105.438.141.585-.035 1.096-.106.292-.053.804.089 1.607-.106 1.608-.3.877.106.365.017.439.106.803.088.95-.105h.366l.657.053.95-.124.804.106.585.035.803.106.512.141h.438l1.973-.106.731-.07.22.035h.365l.438.106h.438l2.12-.106.584-.176 1.315-.212 1.389.106.803.106h.439l.95-.106.95-.335.292-.406.292-.705.293-1.252.438-2.909.438-4.567.585-8.727.73-14.864 2.047-44.413.657-8.605.512-4.072.511-2.222.366-.688.438-.37.292-.035.877.123.877-.317 1.461-.458.366-.142.657.106.439.018.511-.035.585.035 1.973-.088.658-.23.438-.105 1.9-.353 4.384-.088.292-.053.658.106h.292l.512-.176.584.035.512-.035.584.035 1.681-.3 1.608-.106.219.018.511.14.95.124 1.608-.105 1.242-.194 1.68.105.877.318.366.37.438.811.293 1.005.438 2.327.511 4.285.512 6.083.804 12.518 2.192 36.41.658 6.611.584 3.844.804 3.244.73 1.975 1.827 4.143.658.758.658.512.73.264.658.353 2.777.775.511.142 1.68.3 1.974.105 3.946.864h.365l.73.07.585-.105h.292l.366.07.657.106 1.827.353.512-.018 1.315-.106.585-.035 1.096-.088.365-.106 1.096.159h.438l.293-.018.292.018.658.07 1.9-.352 1.315 1.058.584.863 1.754 2.751.877 1.11.877.512.511.141.731.088.73-.282 1.243-.705 2.192-1.481 1.388-.23 3.508-.105.365-.088h.292l.658-.212 1.023-.159.365-.017.366-.035" clip-path="url(#p11831ceabe)" style="fill:none;stroke-dasharray:3.7,1.6;stroke-dashoffset:0;stroke:red"/><path id="line2d_87" d="M32.185 136.297h.439l.804.106.584.07.366-.088.584-.106.365-.07 1.023-.106.731-.07.73.07 3.947-.106h.438l.512.018.95.106.584.035.804-.106.73-.07.804-.106.658-.053 1.096.106.658.053.584.105 1.68.3.585.088.293.036h.73l.731-.089.366-.017 1.096-.159.365-.018.365-.088 2.12.106.51.035h.44l1.168.106.366.018.657-.212 1.389.23.511-.106.804-.089.73-.105 1.097-.159 2.265.106 1.242.194 1.316-.106.657-.265.366-.088.365.07.73.107 1.827.335 1.096-.159.439-.106 1.607-.282 1.681.106 1.68.3 1.535-.106.73-.247h.366l.366-.07 1.388.105 1.461.247 7.307-.106 1.462-.247 2.046.106 1.023.141 1.973-.106.584-.193 2.485.105.511.036.95-.124 1.754.106 1.096.159 1.242.105.95.124 1.754-.088.584-.194.804-.106.22-.018h.438l2.119.088.438.124.658-.07h.438l1.096-.089.731-.282.292-.018.731-.088h.292l.439-.105.804-.071.365-.388.438-.952.366-1.64.365-2.697.512-5.678.584-9.503.73-15.622 1.755-38.983.657-9.292.512-4.549.511-2.715.366-1.023.438-.528.585-.318 1.169-.388.292-.123.804-.106.73-.07 1.9-.089.512-.14.292.035.585-.106.657-.07.512.017 4.238-.106 1.023-.141.365-.088.804-.282.292.017.804.089 1.242.105.804.106.365-.017.293.035.438-.124h.439l.73-.07.512.088.438.106h.366l.365.088h.438l.293-.018 1.315-.229h.438l.293-.123 2.119-.106.438-.018.365.088 2.485-.105.365-.16.292-.175.877-1.182.731-1.851.804-2.874 1.68-6.083.731-1.798.585-.917.73-.882.877-.511 1.973-.846.439-.018.292-.018.658-.211 1.096.106.584.053 1.535-.265.95.106.803.088.585.106.511.017 1.462-.246 2.411.105.585.036.511-.106.585-.176.365.017.512.141.292-.017.365-.106.293-.018.657-.053 2.265.106.658.053 2.85-.106.438-.017.585.035.365-.018.366.088.657.106 1.389.23h.438l4.384.105 1.096.176.439-.105h.438l.585-.053.438.035.292-.053 1.754.088.512.159 1.461-.106.804-.088h.365l.585-.053h.438l.512-.159 2.265-.105.292.035.366.07.292-.052 1.754.105 1.315.212" clip-path="url(#p11831ceabe)" style="fill:none;stroke-dasharray:1,1.65;stroke-dashoffset:0;stroke:#00f"/><path id="line2d_88" d="m32.185 136.844.512.017 1.754-.106h.438l.365-.105.95-.124.512-.088.438-.123.439.105 2.192.089.292.052.658-.07.803.106 1.827-.353.512.018.584-.036 1.17.106.292-.017.657-.053 4.896.106.22-.036.438-.106 1.534-.264 1.096.088.293.035 2.338.476.584-.176.658-.053 1.17-.106.657-.246.584.053.439-.142h.365l.585-.035 1.315.23.365.017.804.123.292-.052.366.017.511-.14 1.389-.107.292-.07.365.017.439-.105h.438l2.12.105.95.124 1.168-.176.658.052 1.17.089.657.246.657-.052 1.608-.089.438-.211 1.681.106.292.123 3.435-.088.511-.141.512-.053.292.053.438-.018.95.124.512.105.877.106 1.388-.088.658-.212.803-.088 1.9.106.658.053.438.088.366.088.657-.053 1.17-.105.584-.036 1.17.106.364.07.731.106.439.124.511-.106 2.923-.6 1.461.106 2.12.406.73.106.512.017 1.461-.246.438.105h.293l.292-.053.877.106 1.827-.106.73-.07.731-.07.365-.16.731-.07 2.12.106h.438l1.315.088.365.088 2.338-.67.293-.211.438-.67.292-.847.366-1.85.438-3.527.512-6.524.657-11.672 1.096-25.6 1.023-22.481.731-11.16.585-5.484.438-2.469.366-1.075.584-.653.512-.14.511-.018 1.315-.088.439-.106.804-.088.876-.106.585-.035 1.608.105 1.388.23 1.242-.106 1.754-.318.511.018 2.192-.106 2.193-.423 3.58-.07.292-.124.731-.106.365-.07 2.63.106.366.07.293.018.584.035.585.088.365.088.585.106.73.07.512-.105 1.023-.141.877.106.584.088.512.476.438.67.512 1.058.511 1.357.585 2.134 2.265 8.833.585 1.358.95 1.393.584.423.73.405 1.097.635.73.423.439.212.292.053.804.106 1.9.564.95.352.511-.017.804-.106.512-.018 1.46.247.586-.106.438-.017.511.017 2.046.106 1.096.159.366.106.804.088 3.288.106.365.07.439-.123 2.41.105.805.106.73-.088.658.053.804-.106.584.035h.439l.511.018 3.8-.106.512-.035.292.176.292.159 1.973.37.585-.088.292-.07.804.088 1.607.106.366.088 1.388-.23 1.096-.105.73-.07 3.873.07.293.106 1.827.335 1.315-.018" clip-path="url(#p11831ceabe)" style="fill:none;stroke-dasharray:6.4,1.6,1,1.6;stroke-dashoffset:0;stroke:green"/><path id="patch_3" d="M23.055 143.72V16.085" style="fill:none;stroke:#000;stroke-width:.5;stroke-linejoin:miter;stroke-linecap:square"/><path id="patch_4" d="M223.92 143.72V16.085" style="fill:none;stroke:#000;stroke-width:.5;stroke-linejoin:miter;stroke-linecap:square"/><path id="patch_5" d="M23.055 143.72H223.92" style="fill:none;stroke:#000;stroke-width:.5;stroke-linejoin:miter;stroke-linecap:square"/><path id="patch_6" d="M23.055 16.084H223.92" style="fill:none;stroke:#000;stroke-width:.5;stroke-linejoin:miter;stroke-linecap:square"/><g id="text_12" transform="matrix(.096 0 0 -.096 70.35 10.084)"><defs><path id="NimbusRomNo9L-Regu-52" d="M4218 121c-244 19-372 84-557 303L2342 2061c429 82 621 158 832 327 205 165 327 430 327 725 0 272-83 505-250 688-243 258-774 423-1376 423H109v-122c480-51 544-121 544-574V765c0-529-64-606-544-644V0h1773v134c-493 0-576 85-576 558v1292h358L3187 0h1031zM1306 3762c0 175 70 225 326 225 800 0 1171-271 1171-864 0-316-134-581-365-700-294-165-518-202-1132-202z" transform="scale(.01563)"/><path id="NimbusRomNo9L-Regu-3" d="M205 2675h441V637c0-293-38-456-128-515-64-45-128-58-313-58V-38h1433v96c-364 39-454 117-454 416v2201h1203V507c0-319-96-423-429-449v-96h1376v96c-345 26-409 90-409 424v3857l-32 13c-51-6-122-32-199-70-121-58-211-90-268-90-32 0-96 19-192 51-180 71-365 109-519 109-301 0-595-151-774-398-192-271-256-518-282-1074H205zm2182 205H1184v328c0 656 134 971 416 971 141 0 218-50 333-221 121-176 205-232 352-232 45 0 70 12 102 44z" transform="scale(.01563)"/><path id="NimbusRomNo9L-Regu-63" d="M2547 998c-307-448-537-601-902-601-583 0-992 512-992 1248 0 659 352 1113 870 1113 231 0 314-70 378-307l38-141c51-179 167-294 301-294 166 0 307 122 307 269 0 358-448 659-985 659-314 0-640-128-903-358-320-282-499-717-499-1223C160 531 666-64 1376-64c288 0 544 102 774 301 173 153 295 326 487 704z" transform="scale(.01563)"/><path id="NimbusRomNo9L-Regu-69" d="m1120 2929-992-350v-95l51 6c77 12 160 19 218 19 153 0 211-103 211-384V640c0-461-64-531-506-531V0h1517v96c-422 32-473 95-473 554v2260zM819 4352c-173 0-320-147-320-326s141-327 320-327c186 0 333 141 333 327 0 179-147 326-333 326" transform="scale(.01563)"/><path id="NimbusRomNo9L-Regu-6e" d="M102 2579c39 19 103 26 173 26 179 0 237-96 237-410V608c0-365-70-454-397-480V32h1357v96c-326 26-422 102-422 333v1798c307 288 448 365 659 365 313 0 467-198 467-621V666c0-404-83-512-403-538V32h1331v96c-314 32-390 109-390 422v1466c0 602-282 960-756 960-294 0-492-109-928-518v505l-44 13c-314-115-532-186-884-288z" transform="scale(.01563)"/><path id="NimbusRomNo9L-Regu-64" d="m2202-64 940 333v96h-147c-230 0-281 70-281 366v3633l-32 13c-308-109-532-173-941-281v-102c51 6 89 6 141 6 236 0 294-64 294-328V2669c-243 205-416 275-672 275-736 0-1331-723-1331-1632C173 493 653-64 1357-64c358 0 601 128 819 429V-45zm-26 717c0-45-45-122-109-192-115-128-275-192-461-192-531 0-883 512-883 1299 0 723 314 1197 800 1197 339 0 653-301 653-640z" transform="scale(.01563)"/><path id="NimbusRomNo9L-Regu-66" d="M1978 2880h-788v731c0 367 122 562 365 562 135 0 224-63 339-246 103-164 180-227 288-227 148 0 269 114 269 259 0 229-281 393-665 393-397 0-736-171-903-461-166-278-217-506-224-1011H134v-205h525V656c0-471-70-547-531-547V0h1664v109c-525 0-595 71-595 552v2014h781z" transform="scale(.01563)"/><path id="NimbusRomNo9L-Regu-72" d="M45 2496c89 19 147 26 224 26 160 0 217-103 217-384V538c0-320-44-365-454-442V0h1536v102c-435 0-544 97-544 463v1448c0 206 275 528 448 528 38 0 96-32 166-96 103-90 173-128 256-128 154 0 250 109 250 288 0 211-134 339-352 339-269 0-454-147-768-601v588l-32 13c-339-141-570-223-947-345z" transform="scale(.01563)"/><path id="NimbusRomNo9L-Regu-73" d="m2016 2010-26 870h-70l-13-13c-57-45-64-51-89-51-39 0-103 13-173 45-141 54-282 83-448 83-506 0-871-328-871-790 0-358 205-615 749-923l371-211c224-128 333-283 333-481 0-283-205-462-531-462-218 0-416 82-538 221-134 157-192 302-275 662H333V-39h83c45 72 70 87 147 87 58 0 147-13 295-50 179-37 352-62 467-62 493 0 902 372 902 821 0 320-153 532-537 763l-692 410c-179 103-275 264-275 437 0 257 199 436 493 436 365 0 557-220 704-793z" transform="scale(.01563)"/></defs><use xlink:href="#NimbusRomNo9L-Regu-52" transform="scale(.99626)"/><use xlink:href="#NimbusRomNo9L-Regu-65" transform="matrix(.99626 0 0 .99626 66.45 0)"/><use xlink:href="#NimbusRomNo9L-Regu-3" transform="matrix(.99626 0 0 .99626 110.684 0)"/><use xlink:href="#NimbusRomNo9L-Regu-65" transform="matrix(.99626 0 0 .99626 166.075 0)"/><use xlink:href="#NimbusRomNo9L-Regu-63" transform="matrix(.99626 0 0 .99626 210.309 0)"/><use xlink:href="#NimbusRomNo9L-Regu-74" transform="matrix(.99626 0 0 .99626 254.542 0)"/><use xlink:href="#NimbusRomNo9L-Regu-69" transform="matrix(.99626 0 0 .99626 282.238 0)"/><use xlink:href="#NimbusRomNo9L-Regu-6f" transform="matrix(.99626 0 0 .99626 309.933 0)"/><use xlink:href="#NimbusRomNo9L-Regu-6e" transform="matrix(.99626 0 0 .99626 359.746 0)"/><use xlink:href="#NimbusRomNo9L-Regu-61" transform="matrix(.99626 0 0 .99626 434.466 0)"/><use xlink:href="#NimbusRomNo9L-Regu-74" transform="matrix(.99626 0 0 .99626 478.7 0)"/><use xlink:href="#NimbusRomNo9L-Regu-64" transform="matrix(.99626 0 0 .99626 531.301 0)"/><use xlink:href="#NimbusRomNo9L-Regu-69" transform="matrix(.99626 0 0 .99626 581.114 0)"/><use xlink:href="#NimbusRomNo9L-Regu-66" transform="matrix(.99626 0 0 .99626 608.81 0)"/><use xlink:href="#NimbusRomNo9L-Regu-66" transform="matrix(.99626 0 0 .99626 639.494 0)"/><use xlink:href="#NimbusRomNo9L-Regu-65" transform="matrix(.99626 0 0 .99626 672.67 0)"/><use xlink:href="#NimbusRomNo9L-Regu-72" transform="matrix(.99626 0 0 .99626 716.903 0)"/><use xlink:href="#NimbusRomNo9L-Regu-65" transform="matrix(.99626 0 0 .99626 750.078 0)"/><use xlink:href="#NimbusRomNo9L-Regu-6e" transform="matrix(.99626 0 0 .99626 794.311 0)"/><use xlink:href="#NimbusRomNo9L-Regu-74" transform="matrix(.99626 0 0 .99626 844.125 0)"/><use xlink:href="#NimbusRomNo9L-Regu-6c" transform="matrix(.99626 0 0 .99626 896.726 0)"/><use xlink:href="#NimbusRomNo9L-Regu-6f" transform="matrix(.99626 0 0 .99626 924.422 0)"/><use xlink:href="#NimbusRomNo9L-Regu-61" transform="matrix(.99626 0 0 .99626 974.235 0)"/><use xlink:href="#NimbusRomNo9L-Regu-64" transform="matrix(.99626 0 0 .99626 1018.468 0)"/><use xlink:href="#NimbusRomNo9L-Regu-73" transform="matrix(.99626 0 0 .99626 1068.282 0)"/></g><g id="legend_1"><path id="line2d_89" d="M30.255 26.084h16" style="fill:none;stroke:#000;stroke-linecap:square"/><g id="text_13" transform="matrix(.08 0 0 -.08 52.655 28.884)"><defs><path id="NimbusRomNo9L-Regu-4d" d="M4314 3667V751c0-534-77-617-583-617V0h1792v134c-467 0-557 89-557 547v2855c0 457 84 541 557 579v122H4250L2835 1004 1357 4237H90v-141c524 0 608-77 608-546V943c0-661-90-784-621-822V0h1504v134c-493 0-602 148-602 797v2589L2586 0h89z" transform="scale(.01563)"/><path id="NimbusRomNo9L-Regu-68" d="M1005 2222c269 294 461 402 710 402 320 0 480-229 480-676V684c0-434-64-518-435-556V32h1357v96c-346 64-384 115-384 556v1270c0 671-269 1016-787 1016-378 0-647-154-941-538v1958l-32 19c-218-77-378-128-736-230l-173-51v-102c26 6 45 6 77 6 275 0 326-52 326-327V686c0-449-38-507-409-558V32h1382v96c-371 38-435 115-435 556z" transform="scale(.01563)"/><path id="NimbusRomNo9L-Regu-47" d="M4538 2304H2906v-128c275 0 352-19 428-71 96-58 135-207 135-484V574c0-207-391-382-851-382-1044 0-1684 730-1684 1920 0 602 180 1184 461 1498 282 314 679 486 1114 486 358 0 672-121 921-352 192-179 295-352 455-742h147l-51 1350h-141c-38-121-154-211-288-211-64 0-166 19-282 64-288 96-582 147-870 147-1280 0-2195-940-2195-2246 0-627 173-1107 531-1485C1165 180 1779-64 2483-64c551 0 1351 224 1607 449v1309c0 379 76 463 448 495z" transform="scale(.01563)"/></defs><use xlink:href="#NimbusRomNo9L-Regu-4d" transform="scale(.99626)"/><use xlink:href="#NimbusRomNo9L-Regu-61" transform="matrix(.99626 0 0 .99626 88.567 0)"/><use xlink:href="#NimbusRomNo9L-Regu-74" transform="matrix(.99626 0 0 .99626 132.8 0)"/><use xlink:href="#NimbusRomNo9L-Regu-63" transform="matrix(.99626 0 0 .99626 160.496 0)"/><use xlink:href="#NimbusRomNo9L-Regu-68" transform="matrix(.99626 0 0 .99626 204.73 0)"/><use xlink:href="#NimbusRomNo9L-Regu-65" transform="matrix(.99626 0 0 .99626 254.542 0)"/><use xlink:href="#NimbusRomNo9L-Regu-64" transform="matrix(.99626 0 0 .99626 298.776 0)"/><use xlink:href="#NimbusRomNo9L-Regu-47" transform="matrix(.99626 0 0 .99626 348.59 0)"/><use xlink:href="#NimbusRomNo9L-Regu-72" transform="matrix(.99626 0 0 .99626 420.52 0)"/><use xlink:href="#NimbusRomNo9L-Regu-65" transform="matrix(.99626 0 0 .99626 453.694 0)"/><use xlink:href="#NimbusRomNo9L-Regu-65" transform="matrix(.99626 0 0 .99626 497.928 0)"/><use xlink:href="#NimbusRomNo9L-Regu-6e" transform="matrix(.99626 0 0 .99626 542.162 0)"/></g><path id="line2d_90" d="M30.255 37.41h16" style="fill:none;stroke-dasharray:3.7,1.6;stroke-dashoffset:0;stroke:red"/><g id="text_14" transform="matrix(.08 0 0 -.08 52.655 40.21)"><defs><path id="NimbusRomNo9L-Regu-53" d="M2861 4352h-135c-25-147-96-217-204-217-64 0-173 25-282 77-237 89-474 140-678 140-276 0-557-108-768-294-224-199-340-468-340-802 0-513 282-871 999-1250 461-243 793-507 953-750 58-83 90-218 90-372 0-430-320-724-787-724-570 0-973 353-1293 1136H269L461-64h141c6 121 83 211 179 211 70 0 179-25 301-68 243-93 499-143 755-143 736 0 1305 506 1305 1165 0 525-352 941-1196 1395-672 372-941 653-941 999 0 352 269 595 665 595 288 0 557-122 781-352 199-205 288-371 391-749h160z" transform="scale(.01563)"/></defs><use xlink:href="#NimbusRomNo9L-Regu-53" transform="scale(.99626)"/><use xlink:href="#NimbusRomNo9L-Regu-68" transform="matrix(.99626 0 0 .99626 55.392 0)"/><use xlink:href="#NimbusRomNo9L-Regu-6f" transform="matrix(.99626 0 0 .99626 105.205 0)"/><use xlink:href="#NimbusRomNo9L-Regu-72" transform="matrix(.99626 0 0 .99626 155.018 0)"/><use xlink:href="#NimbusRomNo9L-Regu-74" transform="matrix(.99626 0 0 .99626 188.193 0)"/><use xlink:href="#NimbusRomNo9L-Regu-65" transform="matrix(.99626 0 0 .99626 215.888 0)"/><use xlink:href="#NimbusRomNo9L-Regu-64" transform="matrix(.99626 0 0 .99626 260.122 0)"/><use xlink:href="#NimbusRomNo9L-Regu-47" transform="matrix(.99626 0 0 .99626 309.935 0)"/><use xlink:href="#NimbusRomNo9L-Regu-72" transform="matrix(.99626 0 0 .99626 381.865 0)"/><use xlink:href="#NimbusRomNo9L-Regu-65" transform="matrix(.99626 0 0 .99626 415.04 0)"/><use xlink:href="#NimbusRomNo9L-Regu-65" transform="matrix(.99626 0 0 .99626 459.274 0)"/><use xlink:href="#NimbusRomNo9L-Regu-6e" transform="matrix(.99626 0 0 .99626 503.508 0)"/></g><path id="line2d_91" d="M30.255 48.735h16" style="fill:none;stroke-dasharray:1,1.65;stroke-dashoffset:0;stroke:#00f"/><g id="text_15" transform="matrix(.08 0 0 -.08 52.655 51.535)"><defs><path id="NimbusRomNo9L-Regu-42" d="M109 4237v-141c537 0 614-70 614-548V689c0-477-83-561-614-561V0h2137c500 0 954 136 1191 356 230 208 358 499 358 809 0 286-115 545-313 732-192 175-365 253-781 356 333 82 467 145 621 278 160 140 256 372 256 632 0 708-570 1074-1677 1074zm1267-2125c621 0 915-32 1146-130 364-155 537-414 537-823 0-350-134-604-390-753-205-116-467-168-890-168-313 0-403 58-403 266zm0 256v1444c0 132 45 189 141 189h281c736 0 1127-302 1127-864 0-491-339-769-941-769z" transform="scale(.01563)"/><path id="NimbusRomNo9L-Regu-6b" d="M45 3987c83 7 141 13 205 13 211 0 275-83 275-390V525c0-333-19-352-480-429V0h1497v102h-128c-256 0-352 91-352 317v1187l896-1191 20-26c12-19 25-38 44-58 52-64 71-102 71-133 0-58-58-96-135-96h-121V0h1395v102c-282 0-480 123-749 451l-979 1252 186 173c454 422 851 716 1036 768 96 25 186 38 295 38h51v96H1766v-96c250 0 320-26 320-115 0-51-57-141-147-218l-877-781v2688l-25 13c-243-77-429-128-800-230l-192-51z" transform="scale(.01563)"/></defs><use xlink:href="#NimbusRomNo9L-Regu-42" transform="scale(.99626)"/><use xlink:href="#NimbusRomNo9L-Regu-6c" transform="matrix(.99626 0 0 .99626 66.45 0)"/><use xlink:href="#NimbusRomNo9L-Regu-61" transform="matrix(.99626 0 0 .99626 94.145 0)"/><use xlink:href="#NimbusRomNo9L-Regu-63" transform="matrix(.99626 0 0 .99626 138.379 0)"/><use xlink:href="#NimbusRomNo9L-Regu-6b" transform="matrix(.99626 0 0 .99626 182.612 0)"/></g><path id="line2d_92" d="M30.255 60.06h16" style="fill:none;stroke-dasharray:6.4,1.6,1,1.6;stroke-dashoffset:0;stroke:green"/><g id="text_16" transform="matrix(.08 0 0 -.08 52.655 62.86)"><defs><path id="NimbusRomNo9L-Regu-79" d="M3040 2880h-864v-96c205 0 307-58 307-161 0-26-6-64-25-109L1837 742l-736 1635c-39 91-64 175-64 245 0 117 96 162 371 162v96H90v-90c166-25 275-96 326-205l730-1580 19-52 96-192c179-321 281-552 281-649 0-96-147-501-256-694-89-167-230-289-320-289-38 0-96 13-160 45-121 45-230 71-339 71-147 0-275-128-275-282 0-211 205-371 474-371 428 0 736 359 1081 1284l986 2619c83 206 153 270 307 289z" transform="scale(.01563)"/></defs><use xlink:href="#NimbusRomNo9L-Regu-47" transform="scale(.99626)"/><use xlink:href="#NimbusRomNo9L-Regu-72" transform="matrix(.99626 0 0 .99626 71.93 0)"/><use xlink:href="#NimbusRomNo9L-Regu-65" transform="matrix(.99626 0 0 .99626 105.105 0)"/><use xlink:href="#NimbusRomNo9L-Regu-79" transform="matrix(.99626 0 0 .99626 147.845 0)"/></g></g></g></g><defs><clipPath id="p11831ceabe"><path d="M23.055 16.084H223.92V143.72H23.055z"/></clipPath></defs></svg>