<?xml version="1.0" encoding="utf-8" standalone="no"?>
<!DOCTYPE svg PUBLIC "-//W3C//DTD SVG 1.1//EN"
  "http://www.w3.org/Graphics/SVG/1.1/DTD/svg11.dtd">
<svg xmlns:xlink="http://www.w3.org/1999/xlink" width="565.92pt" height="421.92pt" viewBox="0 0 565.92 421.92" xmlns="http://www.w3.org/2000/svg" version="1.1">
 <metadata>
  <rdf:RDF xmlns:dc="http://purl.org/dc/elements/1.1/" xmlns:cc="http://creativecommons.org/ns#" xmlns:rdf="http://www.w3.org/1999/02/22-rdf-syntax-ns#">
   <cc:Work>
    <dc:type rdf:resource="http://purl.org/dc/dcmitype/StillImage"/>
    <dc:date>2025-03-21T21:07:56.294844</dc:date>
    <dc:format>image/svg+xml</dc:format>
    <dc:creator>
     <cc:Agent>
      <dc:title>Matplotlib v3.9.2, https://matplotlib.org/</dc:title>
     </cc:Agent>
    </dc:creator>
   </cc:Work>
  </rdf:RDF>
 </metadata>
 <defs>
  <style type="text/css">*{stroke-linejoin: round; stroke-linecap: butt}</style>
 </defs>
 <g id="figure_1">
  <g id="patch_1">
   <path d="M 0 421.92 
L 565.92 421.92 
L 565.92 0 
L 0 0 
L 0 421.92 
z
" style="fill: none"/>
  </g>
  <g id="axes_1">
   <g id="patch_2">
    <path d="M 31.726417 396.561762 
L 562.32 396.561762 
L 562.32 16.084396 
L 31.726417 16.084396 
L 31.726417 396.561762 
z
" style="fill: none"/>
   </g>
   <g id="matplotlib.axis_1">
    <g id="xtick_1">
     <g id="line2d_1">
      <path d="M 55.844307 396.561762 
L 55.844307 16.084396 
" clip-path="url(#p86c3521425)" style="fill: none; stroke: #b0b0b0; stroke-width: 0.5; stroke-linecap: square"/>
     </g>
     <g id="line2d_2">
      <defs>
       <path id="m51aa3c97f1" d="M 0 0 
L 0 -3 
" style="stroke: #000000; stroke-width: 0.5"/>
      </defs>
      <g>
       <use xlink:href="#m51aa3c97f1" x="55.844307" y="396.561762" style="stroke: #000000; stroke-width: 0.5"/>
      </g>
     </g>
     <g id="line2d_3">
      <defs>
       <path id="m417177b84e" d="M 0 0 
L 0 3 
" style="stroke: #000000; stroke-width: 0.5"/>
      </defs>
      <g>
       <use xlink:href="#m417177b84e" x="55.844307" y="16.084396" style="stroke: #000000; stroke-width: 0.5"/>
      </g>
     </g>
     <g id="text_1">
      <!-- $\mathdefault{8.0}$ -->
      <g transform="translate(50.755434 405.465418) scale(0.08 -0.08)">
       <defs>
        <path id="NimbusRomNo9L-Regu-38" d="M 1856 2400 
C 2490 2740 2714 3008 2714 3444 
C 2714 3968 2253 4352 1613 4352 
C 915 4352 397 3924 397 3341 
C 397 2925 518 2740 1190 2151 
C 499 1626 358 1428 358 992 
C 358 372 864 -64 1587 -64 
C 2355 -64 2848 359 2848 1018 
C 2848 1511 2630 1824 1856 2400 
z
M 1741 1741 
C 2208 1408 2362 1178 2362 820 
C 2362 404 2074 116 1658 116 
C 1171 116 845 487 845 1044 
C 845 1453 986 1722 1357 2023 
L 1741 1741 
z
M 1670 2516 
C 1101 2887 870 3181 870 3540 
C 870 3911 1158 4173 1562 4173 
C 1997 4173 2272 3892 2272 3450 
C 2272 3085 2093 2797 1728 2554 
C 1696 2535 1696 2535 1670 2516 
z
" transform="scale(0.015625)"/>
        <path id="CMMI10-3a" d="M 1229 338 
C 1229 522 1075 675 890 675 
C 704 675 550 522 550 338 
C 550 153 704 0 890 0 
C 1075 0 1229 153 1229 338 
z
" transform="scale(0.015625)"/>
        <path id="NimbusRomNo9L-Regu-30" d="M 1626 4352 
C 1274 4352 1005 4244 768 4020 
C 397 3661 154 2925 154 2176 
C 154 1479 365 730 666 372 
C 902 90 1229 -64 1600 -64 
C 1926 -64 2202 45 2432 269 
C 2803 621 3046 1364 3046 2138 
C 3046 3450 2464 4352 1626 4352 
z
M 1606 4186 
C 2144 4186 2432 3463 2432 2125 
C 2432 788 2150 103 1600 103 
C 1050 103 768 788 768 2119 
C 768 3476 1056 4186 1606 4186 
z
" transform="scale(0.015625)"/>
       </defs>
       <use xlink:href="#NimbusRomNo9L-Regu-38" transform="scale(0.996264)"/>
       <use xlink:href="#CMMI10-3a" transform="translate(49.8132 0) scale(0.996264)"/>
       <use xlink:href="#NimbusRomNo9L-Regu-30" transform="translate(77.408707 0) scale(0.996264)"/>
      </g>
     </g>
    </g>
    <g id="xtick_2">
     <g id="line2d_4">
      <path d="M 116.139032 396.561762 
L 116.139032 16.084396 
" clip-path="url(#p86c3521425)" style="fill: none; stroke: #b0b0b0; stroke-width: 0.5; stroke-linecap: square"/>
     </g>
     <g id="line2d_5">
      <g>
       <use xlink:href="#m51aa3c97f1" x="116.139032" y="396.561762" style="stroke: #000000; stroke-width: 0.5"/>
      </g>
     </g>
     <g id="line2d_6">
      <g>
       <use xlink:href="#m417177b84e" x="116.139032" y="16.084396" style="stroke: #000000; stroke-width: 0.5"/>
      </g>
     </g>
     <g id="text_2">
      <!-- $\mathdefault{8.5}$ -->
      <g transform="translate(111.05016 405.465418) scale(0.08 -0.08)">
       <defs>
        <path id="NimbusRomNo9L-Regu-35" d="M 1158 3776 
L 2413 3776 
C 2515 3776 2541 3789 2560 3834 
L 2803 4403 
L 2746 4448 
C 2650 4314 2586 4282 2451 4282 
L 1114 4282 
L 416 2759 
C 410 2746 410 2740 410 2727 
C 410 2695 435 2676 486 2676 
C 691 2676 947 2631 1210 2547 
C 1946 2309 2285 1910 2285 1274 
C 2285 656 1894 173 1395 173 
C 1267 173 1158 218 966 360 
C 762 508 614 572 480 572 
C 294 572 205 495 205 334 
C 205 90 506 -64 986 -64 
C 1523 -64 1984 110 2304 438 
C 2598 728 2733 1094 2733 1583 
C 2733 2046 2611 2342 2291 2663 
C 2010 2947 1645 3094 890 3229 
L 1158 3776 
z
" transform="scale(0.015625)"/>
       </defs>
       <use xlink:href="#NimbusRomNo9L-Regu-38" transform="scale(0.996264)"/>
       <use xlink:href="#CMMI10-3a" transform="translate(49.8132 0) scale(0.996264)"/>
       <use xlink:href="#NimbusRomNo9L-Regu-35" transform="translate(77.408707 0) scale(0.996264)"/>
      </g>
     </g>
    </g>
    <g id="xtick_3">
     <g id="line2d_7">
      <path d="M 176.433758 396.561762 
L 176.433758 16.084396 
" clip-path="url(#p86c3521425)" style="fill: none; stroke: #b0b0b0; stroke-width: 0.5; stroke-linecap: square"/>
     </g>
     <g id="line2d_8">
      <g>
       <use xlink:href="#m51aa3c97f1" x="176.433758" y="396.561762" style="stroke: #000000; stroke-width: 0.5"/>
      </g>
     </g>
     <g id="line2d_9">
      <g>
       <use xlink:href="#m417177b84e" x="176.433758" y="16.084396" style="stroke: #000000; stroke-width: 0.5"/>
      </g>
     </g>
     <g id="text_3">
      <!-- $\mathdefault{9.0}$ -->
      <g transform="translate(171.344885 405.465418) scale(0.08 -0.08)">
       <defs>
        <path id="NimbusRomNo9L-Regu-39" d="M 378 -123 
C 1094 -40 1446 82 1882 396 
C 2547 882 2938 1676 2938 2539 
C 2938 3593 2349 4339 1523 4339 
C 762 4339 192 3694 192 2832 
C 192 2053 653 1536 1344 1536 
C 1696 1536 1965 1638 2304 1900 
C 2042 856 1331 172 358 5 
L 378 -123 
z
M 2317 2290 
C 2317 2162 2291 2104 2221 2047 
C 2042 1894 1805 1811 1574 1811 
C 1088 1811 781 2290 781 3050 
C 781 3413 883 3796 1018 3963 
C 1126 4090 1286 4160 1472 4160 
C 2029 4160 2317 3611 2317 2539 
L 2317 2290 
z
" transform="scale(0.015625)"/>
       </defs>
       <use xlink:href="#NimbusRomNo9L-Regu-39" transform="scale(0.996264)"/>
       <use xlink:href="#CMMI10-3a" transform="translate(49.8132 0) scale(0.996264)"/>
       <use xlink:href="#NimbusRomNo9L-Regu-30" transform="translate(77.408707 0) scale(0.996264)"/>
      </g>
     </g>
    </g>
    <g id="xtick_4">
     <g id="line2d_10">
      <path d="M 236.728483 396.561762 
L 236.728483 16.084396 
" clip-path="url(#p86c3521425)" style="fill: none; stroke: #b0b0b0; stroke-width: 0.5; stroke-linecap: square"/>
     </g>
     <g id="line2d_11">
      <g>
       <use xlink:href="#m51aa3c97f1" x="236.728483" y="396.561762" style="stroke: #000000; stroke-width: 0.5"/>
      </g>
     </g>
     <g id="line2d_12">
      <g>
       <use xlink:href="#m417177b84e" x="236.728483" y="16.084396" style="stroke: #000000; stroke-width: 0.5"/>
      </g>
     </g>
     <g id="text_4">
      <!-- $\mathdefault{9.5}$ -->
      <g transform="translate(231.63961 405.465418) scale(0.08 -0.08)">
       <use xlink:href="#NimbusRomNo9L-Regu-39" transform="scale(0.996264)"/>
       <use xlink:href="#CMMI10-3a" transform="translate(49.8132 0) scale(0.996264)"/>
       <use xlink:href="#NimbusRomNo9L-Regu-35" transform="translate(77.408707 0) scale(0.996264)"/>
      </g>
     </g>
    </g>
    <g id="xtick_5">
     <g id="line2d_13">
      <path d="M 297.023208 396.561762 
L 297.023208 16.084396 
" clip-path="url(#p86c3521425)" style="fill: none; stroke: #b0b0b0; stroke-width: 0.5; stroke-linecap: square"/>
     </g>
     <g id="line2d_14">
      <g>
       <use xlink:href="#m51aa3c97f1" x="297.023208" y="396.561762" style="stroke: #000000; stroke-width: 0.5"/>
      </g>
     </g>
     <g id="line2d_15">
      <g>
       <use xlink:href="#m417177b84e" x="297.023208" y="16.084396" style="stroke: #000000; stroke-width: 0.5"/>
      </g>
     </g>
     <g id="text_5">
      <!-- $\mathdefault{10.0}$ -->
      <g transform="translate(289.941808 405.465418) scale(0.08 -0.08)">
       <defs>
        <path id="NimbusRomNo9L-Regu-31" d="M 1862 4339 
L 710 3757 
L 710 3667 
C 787 3699 858 3725 883 3738 
C 998 3783 1107 3808 1171 3808 
C 1306 3808 1363 3711 1363 3505 
L 1363 592 
C 1363 379 1312 232 1210 173 
C 1114 116 1024 96 755 96 
L 755 0 
L 2522 0 
L 2522 96 
C 2016 96 1914 160 1914 470 
L 1914 4327 
L 1862 4339 
z
" transform="scale(0.015625)"/>
       </defs>
       <use xlink:href="#NimbusRomNo9L-Regu-31" transform="scale(0.996264)"/>
       <use xlink:href="#NimbusRomNo9L-Regu-30" transform="translate(49.8132 0) scale(0.996264)"/>
       <use xlink:href="#CMMI10-3a" transform="translate(99.626401 0) scale(0.996264)"/>
       <use xlink:href="#NimbusRomNo9L-Regu-30" transform="translate(127.221908 0) scale(0.996264)"/>
      </g>
     </g>
    </g>
    <g id="xtick_6">
     <g id="line2d_16">
      <path d="M 357.317934 396.561762 
L 357.317934 16.084396 
" clip-path="url(#p86c3521425)" style="fill: none; stroke: #b0b0b0; stroke-width: 0.5; stroke-linecap: square"/>
     </g>
     <g id="line2d_17">
      <g>
       <use xlink:href="#m51aa3c97f1" x="357.317934" y="396.561762" style="stroke: #000000; stroke-width: 0.5"/>
      </g>
     </g>
     <g id="line2d_18">
      <g>
       <use xlink:href="#m417177b84e" x="357.317934" y="16.084396" style="stroke: #000000; stroke-width: 0.5"/>
      </g>
     </g>
     <g id="text_6">
      <!-- $\mathdefault{10.5}$ -->
      <g transform="translate(350.236533 405.465418) scale(0.08 -0.08)">
       <use xlink:href="#NimbusRomNo9L-Regu-31" transform="scale(0.996264)"/>
       <use xlink:href="#NimbusRomNo9L-Regu-30" transform="translate(49.8132 0) scale(0.996264)"/>
       <use xlink:href="#CMMI10-3a" transform="translate(99.626401 0) scale(0.996264)"/>
       <use xlink:href="#NimbusRomNo9L-Regu-35" transform="translate(127.221908 0) scale(0.996264)"/>
      </g>
     </g>
    </g>
    <g id="xtick_7">
     <g id="line2d_19">
      <path d="M 417.612659 396.561762 
L 417.612659 16.084396 
" clip-path="url(#p86c3521425)" style="fill: none; stroke: #b0b0b0; stroke-width: 0.5; stroke-linecap: square"/>
     </g>
     <g id="line2d_20">
      <g>
       <use xlink:href="#m51aa3c97f1" x="417.612659" y="396.561762" style="stroke: #000000; stroke-width: 0.5"/>
      </g>
     </g>
     <g id="line2d_21">
      <g>
       <use xlink:href="#m417177b84e" x="417.612659" y="16.084396" style="stroke: #000000; stroke-width: 0.5"/>
      </g>
     </g>
     <g id="text_7">
      <!-- $\mathdefault{11.0}$ -->
      <g transform="translate(410.531258 405.465418) scale(0.08 -0.08)">
       <use xlink:href="#NimbusRomNo9L-Regu-31" transform="scale(0.996264)"/>
       <use xlink:href="#NimbusRomNo9L-Regu-31" transform="translate(49.8132 0) scale(0.996264)"/>
       <use xlink:href="#CMMI10-3a" transform="translate(99.626401 0) scale(0.996264)"/>
       <use xlink:href="#NimbusRomNo9L-Regu-30" transform="translate(127.221908 0) scale(0.996264)"/>
      </g>
     </g>
    </g>
    <g id="xtick_8">
     <g id="line2d_22">
      <path d="M 477.907384 396.561762 
L 477.907384 16.084396 
" clip-path="url(#p86c3521425)" style="fill: none; stroke: #b0b0b0; stroke-width: 0.5; stroke-linecap: square"/>
     </g>
     <g id="line2d_23">
      <g>
       <use xlink:href="#m51aa3c97f1" x="477.907384" y="396.561762" style="stroke: #000000; stroke-width: 0.5"/>
      </g>
     </g>
     <g id="line2d_24">
      <g>
       <use xlink:href="#m417177b84e" x="477.907384" y="16.084396" style="stroke: #000000; stroke-width: 0.5"/>
      </g>
     </g>
     <g id="text_8">
      <!-- $\mathdefault{11.5}$ -->
      <g transform="translate(470.825984 405.465418) scale(0.08 -0.08)">
       <use xlink:href="#NimbusRomNo9L-Regu-31" transform="scale(0.996264)"/>
       <use xlink:href="#NimbusRomNo9L-Regu-31" transform="translate(49.8132 0) scale(0.996264)"/>
       <use xlink:href="#CMMI10-3a" transform="translate(99.626401 0) scale(0.996264)"/>
       <use xlink:href="#NimbusRomNo9L-Regu-35" transform="translate(127.221908 0) scale(0.996264)"/>
      </g>
     </g>
    </g>
    <g id="xtick_9">
     <g id="line2d_25">
      <path d="M 538.20211 396.561762 
L 538.20211 16.084396 
" clip-path="url(#p86c3521425)" style="fill: none; stroke: #b0b0b0; stroke-width: 0.5; stroke-linecap: square"/>
     </g>
     <g id="line2d_26">
      <g>
       <use xlink:href="#m51aa3c97f1" x="538.20211" y="396.561762" style="stroke: #000000; stroke-width: 0.5"/>
      </g>
     </g>
     <g id="line2d_27">
      <g>
       <use xlink:href="#m417177b84e" x="538.20211" y="16.084396" style="stroke: #000000; stroke-width: 0.5"/>
      </g>
     </g>
     <g id="text_9">
      <!-- $\mathdefault{12.0}$ -->
      <g transform="translate(531.120709 405.465418) scale(0.08 -0.08)">
       <defs>
        <path id="NimbusRomNo9L-Regu-32" d="M 3040 875 
L 2957 907 
C 2720 544 2637 486 2349 486 
L 819 486 
L 1894 1609 
C 2464 2202 2714 2687 2714 3185 
C 2714 3823 2195 4313 1530 4313 
C 1178 4313 845 4173 608 3918 
C 403 3700 307 3496 198 3043 
L 333 3011 
C 589 3636 819 3840 1261 3840 
C 1798 3840 2163 3476 2163 2940 
C 2163 2443 1869 1850 1331 1282 
L 192 77 
L 192 0 
L 2688 0 
L 3040 875 
z
" transform="scale(0.015625)"/>
       </defs>
       <use xlink:href="#NimbusRomNo9L-Regu-31" transform="scale(0.996264)"/>
       <use xlink:href="#NimbusRomNo9L-Regu-32" transform="translate(49.8132 0) scale(0.996264)"/>
       <use xlink:href="#CMMI10-3a" transform="translate(99.626401 0) scale(0.996264)"/>
       <use xlink:href="#NimbusRomNo9L-Regu-30" transform="translate(127.221908 0) scale(0.996264)"/>
      </g>
     </g>
    </g>
    <g id="xtick_10">
     <g id="line2d_28">
      <defs>
       <path id="m3bed63e6f7" d="M 0 0 
L 0 -1.5 
" style="stroke: #000000; stroke-width: 0.5"/>
      </defs>
      <g>
       <use xlink:href="#m3bed63e6f7" x="31.726417" y="396.561762" style="stroke: #000000; stroke-width: 0.5"/>
      </g>
     </g>
     <g id="line2d_29">
      <defs>
       <path id="m0e9827412e" d="M 0 0 
L 0 1.5 
" style="stroke: #000000; stroke-width: 0.5"/>
      </defs>
      <g>
       <use xlink:href="#m0e9827412e" x="31.726417" y="16.084396" style="stroke: #000000; stroke-width: 0.5"/>
      </g>
     </g>
    </g>
    <g id="xtick_11">
     <g id="line2d_30">
      <g>
       <use xlink:href="#m3bed63e6f7" x="43.785362" y="396.561762" style="stroke: #000000; stroke-width: 0.5"/>
      </g>
     </g>
     <g id="line2d_31">
      <g>
       <use xlink:href="#m0e9827412e" x="43.785362" y="16.084396" style="stroke: #000000; stroke-width: 0.5"/>
      </g>
     </g>
    </g>
    <g id="xtick_12">
     <g id="line2d_32">
      <g>
       <use xlink:href="#m3bed63e6f7" x="67.903252" y="396.561762" style="stroke: #000000; stroke-width: 0.5"/>
      </g>
     </g>
     <g id="line2d_33">
      <g>
       <use xlink:href="#m0e9827412e" x="67.903252" y="16.084396" style="stroke: #000000; stroke-width: 0.5"/>
      </g>
     </g>
    </g>
    <g id="xtick_13">
     <g id="line2d_34">
      <g>
       <use xlink:href="#m3bed63e6f7" x="79.962197" y="396.561762" style="stroke: #000000; stroke-width: 0.5"/>
      </g>
     </g>
     <g id="line2d_35">
      <g>
       <use xlink:href="#m0e9827412e" x="79.962197" y="16.084396" style="stroke: #000000; stroke-width: 0.5"/>
      </g>
     </g>
    </g>
    <g id="xtick_14">
     <g id="line2d_36">
      <g>
       <use xlink:href="#m3bed63e6f7" x="92.021142" y="396.561762" style="stroke: #000000; stroke-width: 0.5"/>
      </g>
     </g>
     <g id="line2d_37">
      <g>
       <use xlink:href="#m0e9827412e" x="92.021142" y="16.084396" style="stroke: #000000; stroke-width: 0.5"/>
      </g>
     </g>
    </g>
    <g id="xtick_15">
     <g id="line2d_38">
      <g>
       <use xlink:href="#m3bed63e6f7" x="104.080087" y="396.561762" style="stroke: #000000; stroke-width: 0.5"/>
      </g>
     </g>
     <g id="line2d_39">
      <g>
       <use xlink:href="#m0e9827412e" x="104.080087" y="16.084396" style="stroke: #000000; stroke-width: 0.5"/>
      </g>
     </g>
    </g>
    <g id="xtick_16">
     <g id="line2d_40">
      <g>
       <use xlink:href="#m3bed63e6f7" x="128.197977" y="396.561762" style="stroke: #000000; stroke-width: 0.5"/>
      </g>
     </g>
     <g id="line2d_41">
      <g>
       <use xlink:href="#m0e9827412e" x="128.197977" y="16.084396" style="stroke: #000000; stroke-width: 0.5"/>
      </g>
     </g>
    </g>
    <g id="xtick_17">
     <g id="line2d_42">
      <g>
       <use xlink:href="#m3bed63e6f7" x="140.256922" y="396.561762" style="stroke: #000000; stroke-width: 0.5"/>
      </g>
     </g>
     <g id="line2d_43">
      <g>
       <use xlink:href="#m0e9827412e" x="140.256922" y="16.084396" style="stroke: #000000; stroke-width: 0.5"/>
      </g>
     </g>
    </g>
    <g id="xtick_18">
     <g id="line2d_44">
      <g>
       <use xlink:href="#m3bed63e6f7" x="152.315868" y="396.561762" style="stroke: #000000; stroke-width: 0.5"/>
      </g>
     </g>
     <g id="line2d_45">
      <g>
       <use xlink:href="#m0e9827412e" x="152.315868" y="16.084396" style="stroke: #000000; stroke-width: 0.5"/>
      </g>
     </g>
    </g>
    <g id="xtick_19">
     <g id="line2d_46">
      <g>
       <use xlink:href="#m3bed63e6f7" x="164.374813" y="396.561762" style="stroke: #000000; stroke-width: 0.5"/>
      </g>
     </g>
     <g id="line2d_47">
      <g>
       <use xlink:href="#m0e9827412e" x="164.374813" y="16.084396" style="stroke: #000000; stroke-width: 0.5"/>
      </g>
     </g>
    </g>
    <g id="xtick_20">
     <g id="line2d_48">
      <g>
       <use xlink:href="#m3bed63e6f7" x="188.492703" y="396.561762" style="stroke: #000000; stroke-width: 0.5"/>
      </g>
     </g>
     <g id="line2d_49">
      <g>
       <use xlink:href="#m0e9827412e" x="188.492703" y="16.084396" style="stroke: #000000; stroke-width: 0.5"/>
      </g>
     </g>
    </g>
    <g id="xtick_21">
     <g id="line2d_50">
      <g>
       <use xlink:href="#m3bed63e6f7" x="200.551648" y="396.561762" style="stroke: #000000; stroke-width: 0.5"/>
      </g>
     </g>
     <g id="line2d_51">
      <g>
       <use xlink:href="#m0e9827412e" x="200.551648" y="16.084396" style="stroke: #000000; stroke-width: 0.5"/>
      </g>
     </g>
    </g>
    <g id="xtick_22">
     <g id="line2d_52">
      <g>
       <use xlink:href="#m3bed63e6f7" x="212.610593" y="396.561762" style="stroke: #000000; stroke-width: 0.5"/>
      </g>
     </g>
     <g id="line2d_53">
      <g>
       <use xlink:href="#m0e9827412e" x="212.610593" y="16.084396" style="stroke: #000000; stroke-width: 0.5"/>
      </g>
     </g>
    </g>
    <g id="xtick_23">
     <g id="line2d_54">
      <g>
       <use xlink:href="#m3bed63e6f7" x="224.669538" y="396.561762" style="stroke: #000000; stroke-width: 0.5"/>
      </g>
     </g>
     <g id="line2d_55">
      <g>
       <use xlink:href="#m0e9827412e" x="224.669538" y="16.084396" style="stroke: #000000; stroke-width: 0.5"/>
      </g>
     </g>
    </g>
    <g id="xtick_24">
     <g id="line2d_56">
      <g>
       <use xlink:href="#m3bed63e6f7" x="248.787428" y="396.561762" style="stroke: #000000; stroke-width: 0.5"/>
      </g>
     </g>
     <g id="line2d_57">
      <g>
       <use xlink:href="#m0e9827412e" x="248.787428" y="16.084396" style="stroke: #000000; stroke-width: 0.5"/>
      </g>
     </g>
    </g>
    <g id="xtick_25">
     <g id="line2d_58">
      <g>
       <use xlink:href="#m3bed63e6f7" x="260.846373" y="396.561762" style="stroke: #000000; stroke-width: 0.5"/>
      </g>
     </g>
     <g id="line2d_59">
      <g>
       <use xlink:href="#m0e9827412e" x="260.846373" y="16.084396" style="stroke: #000000; stroke-width: 0.5"/>
      </g>
     </g>
    </g>
    <g id="xtick_26">
     <g id="line2d_60">
      <g>
       <use xlink:href="#m3bed63e6f7" x="272.905318" y="396.561762" style="stroke: #000000; stroke-width: 0.5"/>
      </g>
     </g>
     <g id="line2d_61">
      <g>
       <use xlink:href="#m0e9827412e" x="272.905318" y="16.084396" style="stroke: #000000; stroke-width: 0.5"/>
      </g>
     </g>
    </g>
    <g id="xtick_27">
     <g id="line2d_62">
      <g>
       <use xlink:href="#m3bed63e6f7" x="284.964263" y="396.561762" style="stroke: #000000; stroke-width: 0.5"/>
      </g>
     </g>
     <g id="line2d_63">
      <g>
       <use xlink:href="#m0e9827412e" x="284.964263" y="16.084396" style="stroke: #000000; stroke-width: 0.5"/>
      </g>
     </g>
    </g>
    <g id="xtick_28">
     <g id="line2d_64">
      <g>
       <use xlink:href="#m3bed63e6f7" x="309.082153" y="396.561762" style="stroke: #000000; stroke-width: 0.5"/>
      </g>
     </g>
     <g id="line2d_65">
      <g>
       <use xlink:href="#m0e9827412e" x="309.082153" y="16.084396" style="stroke: #000000; stroke-width: 0.5"/>
      </g>
     </g>
    </g>
    <g id="xtick_29">
     <g id="line2d_66">
      <g>
       <use xlink:href="#m3bed63e6f7" x="321.141099" y="396.561762" style="stroke: #000000; stroke-width: 0.5"/>
      </g>
     </g>
     <g id="line2d_67">
      <g>
       <use xlink:href="#m0e9827412e" x="321.141099" y="16.084396" style="stroke: #000000; stroke-width: 0.5"/>
      </g>
     </g>
    </g>
    <g id="xtick_30">
     <g id="line2d_68">
      <g>
       <use xlink:href="#m3bed63e6f7" x="333.200044" y="396.561762" style="stroke: #000000; stroke-width: 0.5"/>
      </g>
     </g>
     <g id="line2d_69">
      <g>
       <use xlink:href="#m0e9827412e" x="333.200044" y="16.084396" style="stroke: #000000; stroke-width: 0.5"/>
      </g>
     </g>
    </g>
    <g id="xtick_31">
     <g id="line2d_70">
      <g>
       <use xlink:href="#m3bed63e6f7" x="345.258989" y="396.561762" style="stroke: #000000; stroke-width: 0.5"/>
      </g>
     </g>
     <g id="line2d_71">
      <g>
       <use xlink:href="#m0e9827412e" x="345.258989" y="16.084396" style="stroke: #000000; stroke-width: 0.5"/>
      </g>
     </g>
    </g>
    <g id="xtick_32">
     <g id="line2d_72">
      <g>
       <use xlink:href="#m3bed63e6f7" x="369.376879" y="396.561762" style="stroke: #000000; stroke-width: 0.5"/>
      </g>
     </g>
     <g id="line2d_73">
      <g>
       <use xlink:href="#m0e9827412e" x="369.376879" y="16.084396" style="stroke: #000000; stroke-width: 0.5"/>
      </g>
     </g>
    </g>
    <g id="xtick_33">
     <g id="line2d_74">
      <g>
       <use xlink:href="#m3bed63e6f7" x="381.435824" y="396.561762" style="stroke: #000000; stroke-width: 0.5"/>
      </g>
     </g>
     <g id="line2d_75">
      <g>
       <use xlink:href="#m0e9827412e" x="381.435824" y="16.084396" style="stroke: #000000; stroke-width: 0.5"/>
      </g>
     </g>
    </g>
    <g id="xtick_34">
     <g id="line2d_76">
      <g>
       <use xlink:href="#m3bed63e6f7" x="393.494769" y="396.561762" style="stroke: #000000; stroke-width: 0.5"/>
      </g>
     </g>
     <g id="line2d_77">
      <g>
       <use xlink:href="#m0e9827412e" x="393.494769" y="16.084396" style="stroke: #000000; stroke-width: 0.5"/>
      </g>
     </g>
    </g>
    <g id="xtick_35">
     <g id="line2d_78">
      <g>
       <use xlink:href="#m3bed63e6f7" x="405.553714" y="396.561762" style="stroke: #000000; stroke-width: 0.5"/>
      </g>
     </g>
     <g id="line2d_79">
      <g>
       <use xlink:href="#m0e9827412e" x="405.553714" y="16.084396" style="stroke: #000000; stroke-width: 0.5"/>
      </g>
     </g>
    </g>
    <g id="xtick_36">
     <g id="line2d_80">
      <g>
       <use xlink:href="#m3bed63e6f7" x="429.671604" y="396.561762" style="stroke: #000000; stroke-width: 0.5"/>
      </g>
     </g>
     <g id="line2d_81">
      <g>
       <use xlink:href="#m0e9827412e" x="429.671604" y="16.084396" style="stroke: #000000; stroke-width: 0.5"/>
      </g>
     </g>
    </g>
    <g id="xtick_37">
     <g id="line2d_82">
      <g>
       <use xlink:href="#m3bed63e6f7" x="441.730549" y="396.561762" style="stroke: #000000; stroke-width: 0.5"/>
      </g>
     </g>
     <g id="line2d_83">
      <g>
       <use xlink:href="#m0e9827412e" x="441.730549" y="16.084396" style="stroke: #000000; stroke-width: 0.5"/>
      </g>
     </g>
    </g>
    <g id="xtick_38">
     <g id="line2d_84">
      <g>
       <use xlink:href="#m3bed63e6f7" x="453.789494" y="396.561762" style="stroke: #000000; stroke-width: 0.5"/>
      </g>
     </g>
     <g id="line2d_85">
      <g>
       <use xlink:href="#m0e9827412e" x="453.789494" y="16.084396" style="stroke: #000000; stroke-width: 0.5"/>
      </g>
     </g>
    </g>
    <g id="xtick_39">
     <g id="line2d_86">
      <g>
       <use xlink:href="#m3bed63e6f7" x="465.848439" y="396.561762" style="stroke: #000000; stroke-width: 0.5"/>
      </g>
     </g>
     <g id="line2d_87">
      <g>
       <use xlink:href="#m0e9827412e" x="465.848439" y="16.084396" style="stroke: #000000; stroke-width: 0.5"/>
      </g>
     </g>
    </g>
    <g id="xtick_40">
     <g id="line2d_88">
      <g>
       <use xlink:href="#m3bed63e6f7" x="489.96633" y="396.561762" style="stroke: #000000; stroke-width: 0.5"/>
      </g>
     </g>
     <g id="line2d_89">
      <g>
       <use xlink:href="#m0e9827412e" x="489.96633" y="16.084396" style="stroke: #000000; stroke-width: 0.5"/>
      </g>
     </g>
    </g>
    <g id="xtick_41">
     <g id="line2d_90">
      <g>
       <use xlink:href="#m3bed63e6f7" x="502.025275" y="396.561762" style="stroke: #000000; stroke-width: 0.5"/>
      </g>
     </g>
     <g id="line2d_91">
      <g>
       <use xlink:href="#m0e9827412e" x="502.025275" y="16.084396" style="stroke: #000000; stroke-width: 0.5"/>
      </g>
     </g>
    </g>
    <g id="xtick_42">
     <g id="line2d_92">
      <g>
       <use xlink:href="#m3bed63e6f7" x="514.08422" y="396.561762" style="stroke: #000000; stroke-width: 0.5"/>
      </g>
     </g>
     <g id="line2d_93">
      <g>
       <use xlink:href="#m0e9827412e" x="514.08422" y="16.084396" style="stroke: #000000; stroke-width: 0.5"/>
      </g>
     </g>
    </g>
    <g id="xtick_43">
     <g id="line2d_94">
      <g>
       <use xlink:href="#m3bed63e6f7" x="526.143165" y="396.561762" style="stroke: #000000; stroke-width: 0.5"/>
      </g>
     </g>
     <g id="line2d_95">
      <g>
       <use xlink:href="#m0e9827412e" x="526.143165" y="16.084396" style="stroke: #000000; stroke-width: 0.5"/>
      </g>
     </g>
    </g>
    <g id="xtick_44">
     <g id="line2d_96">
      <g>
       <use xlink:href="#m3bed63e6f7" x="550.261055" y="396.561762" style="stroke: #000000; stroke-width: 0.5"/>
      </g>
     </g>
     <g id="line2d_97">
      <g>
       <use xlink:href="#m0e9827412e" x="550.261055" y="16.084396" style="stroke: #000000; stroke-width: 0.5"/>
      </g>
     </g>
    </g>
    <g id="xtick_45">
     <g id="line2d_98">
      <g>
       <use xlink:href="#m3bed63e6f7" x="562.32" y="396.561762" style="stroke: #000000; stroke-width: 0.5"/>
      </g>
     </g>
     <g id="line2d_99">
      <g>
       <use xlink:href="#m0e9827412e" x="562.32" y="16.084396" style="stroke: #000000; stroke-width: 0.5"/>
      </g>
     </g>
    </g>
    <g id="text_10">
     <!-- Frequency (GHz) -->
     <g transform="translate(269.088109 416.594537) scale(0.08 -0.08)">
      <defs>
       <path id="NimbusRomNo9L-Regu-46" d="M 3066 1472 
L 3066 2957 
L 2918 2957 
C 2842 2461 2726 2368 2214 2368 
L 1286 2368 
L 1286 3766 
C 1286 3943 1318 3981 1491 3981 
L 2362 3981 
C 3085 3981 3226 3886 3334 3314 
L 3494 3314 
L 3475 4224 
L 77 4224 
L 77 4102 
C 550 4064 634 3974 634 3525 
L 634 749 
C 634 217 563 134 77 134 
L 77 0 
L 1869 0 
L 1869 134 
C 1376 134 1286 225 1286 692 
L 1286 2106 
L 2214 2106 
C 2733 2106 2842 2007 2918 1472 
L 3066 1472 
z
" transform="scale(0.015625)"/>
       <path id="NimbusRomNo9L-Regu-72" d="M 45 2496 
C 134 2515 192 2522 269 2522 
C 429 2522 486 2419 486 2138 
L 486 538 
C 486 218 442 173 32 96 
L 32 0 
L 1568 0 
L 1568 102 
C 1133 102 1024 199 1024 565 
L 1024 2013 
C 1024 2219 1299 2541 1472 2541 
C 1510 2541 1568 2509 1638 2445 
C 1741 2355 1811 2317 1894 2317 
C 2048 2317 2144 2426 2144 2605 
C 2144 2816 2010 2944 1792 2944 
C 1523 2944 1338 2797 1024 2343 
L 1024 2931 
L 992 2944 
C 653 2803 422 2721 45 2599 
L 45 2496 
z
" transform="scale(0.015625)"/>
       <path id="NimbusRomNo9L-Regu-65" d="M 2611 1053 
C 2304 564 2029 378 1619 378 
C 1254 378 979 564 794 930 
C 678 1174 634 1386 621 1779 
L 2592 1779 
C 2541 2193 2477 2377 2317 2581 
C 2125 2811 1830 2944 1498 2944 
C 1178 2944 877 2829 634 2611 
C 333 2349 160 1894 160 1370 
C 160 486 621 -64 1357 -64 
C 1965 -64 2445 315 2714 1008 
L 2611 1053 
z
M 634 1984 
C 704 2479 922 2714 1312 2714 
C 1702 2714 1856 2535 1939 1984 
L 634 1984 
z
" transform="scale(0.015625)"/>
       <path id="NimbusRomNo9L-Regu-71" d="M 2304 2701 
C 2010 2874 1818 2931 1568 2931 
C 768 2931 154 2218 154 1300 
C 154 498 576 -70 1178 -70 
C 1549 -70 1901 96 2182 403 
L 2182 -824 
C 2182 -1188 2067 -1286 1613 -1286 
L 1613 -1408 
L 3123 -1408 
L 3123 -1318 
C 2771 -1241 2720 -1190 2720 -921 
L 2720 2906 
L 2650 2906 
L 2304 2701 
z
M 2182 804 
C 2182 651 2157 569 2093 518 
C 1952 397 1741 320 1542 320 
C 1344 320 1171 384 1043 511 
C 838 696 704 1110 704 1530 
C 704 2282 1043 2752 1587 2752 
C 1984 2752 2182 2542 2182 2115 
L 2182 804 
z
" transform="scale(0.015625)"/>
       <path id="NimbusRomNo9L-Regu-75" d="M 3066 320 
L 3034 320 
C 2739 320 2669 390 2669 685 
L 2669 2880 
L 1658 2880 
L 1658 2758 
C 2054 2758 2131 2694 2131 2375 
L 2131 875 
C 2131 697 2099 607 2010 537 
C 1837 397 1638 320 1446 320 
C 1197 320 992 537 992 805 
L 992 2880 
L 58 2880 
L 58 2778 
C 365 2778 454 2682 454 2387 
L 454 770 
C 454 263 762 -64 1229 -64 
C 1466 -64 1715 38 1888 211 
L 2163 486 
L 2163 -45 
L 2189 -58 
C 2509 70 2739 141 3066 230 
L 3066 320 
z
" transform="scale(0.015625)"/>
       <path id="NimbusRomNo9L-Regu-6e" d="M 102 2579 
C 141 2598 205 2605 275 2605 
C 454 2605 512 2509 512 2195 
L 512 608 
C 512 243 442 154 115 128 
L 115 32 
L 1472 32 
L 1472 128 
C 1146 154 1050 230 1050 461 
L 1050 2259 
C 1357 2547 1498 2624 1709 2624 
C 2022 2624 2176 2426 2176 2003 
L 2176 666 
C 2176 262 2093 154 1773 128 
L 1773 32 
L 3104 32 
L 3104 128 
C 2790 160 2714 237 2714 550 
L 2714 2016 
C 2714 2618 2432 2976 1958 2976 
C 1664 2976 1466 2867 1030 2458 
L 1030 2963 
L 986 2976 
C 672 2861 454 2790 102 2688 
L 102 2579 
z
" transform="scale(0.015625)"/>
       <path id="NimbusRomNo9L-Regu-63" d="M 2547 998 
C 2240 550 2010 397 1645 397 
C 1062 397 653 909 653 1645 
C 653 2304 1005 2758 1523 2758 
C 1754 2758 1837 2688 1901 2451 
L 1939 2310 
C 1990 2131 2106 2016 2240 2016 
C 2406 2016 2547 2138 2547 2285 
C 2547 2643 2099 2944 1562 2944 
C 1248 2944 922 2816 659 2586 
C 339 2304 160 1869 160 1363 
C 160 531 666 -64 1376 -64 
C 1664 -64 1920 38 2150 237 
C 2323 390 2445 563 2637 941 
L 2547 998 
z
" transform="scale(0.015625)"/>
       <path id="NimbusRomNo9L-Regu-79" d="M 3040 2880 
L 2176 2880 
L 2176 2784 
C 2381 2784 2483 2726 2483 2623 
C 2483 2597 2477 2559 2458 2514 
L 1837 742 
L 1101 2377 
C 1062 2468 1037 2552 1037 2622 
C 1037 2739 1133 2784 1408 2784 
L 1408 2880 
L 90 2880 
L 90 2790 
C 256 2765 365 2694 416 2585 
L 1146 1005 
L 1165 953 
L 1261 761 
C 1440 440 1542 209 1542 112 
C 1542 16 1395 -389 1286 -582 
C 1197 -749 1056 -871 966 -871 
C 928 -871 870 -858 806 -826 
C 685 -781 576 -755 467 -755 
C 320 -755 192 -883 192 -1037 
C 192 -1248 397 -1408 666 -1408 
C 1094 -1408 1402 -1049 1747 -124 
L 2733 2495 
C 2816 2701 2886 2765 3040 2784 
L 3040 2880 
z
" transform="scale(0.015625)"/>
       <path id="NimbusRomNo9L-Regu-28" d="M 1888 4326 
C 1414 4019 1222 3853 986 3558 
C 531 3002 307 2362 307 1613 
C 307 800 544 173 1107 -480 
C 1370 -787 1536 -928 1869 -1133 
L 1946 -1030 
C 1434 -627 1254 -403 1082 77 
C 928 506 858 992 858 1632 
C 858 2304 941 2829 1114 3226 
C 1293 3622 1485 3853 1946 4224 
L 1888 4326 
z
" transform="scale(0.015625)"/>
       <path id="NimbusRomNo9L-Regu-47" d="M 4538 2304 
L 2906 2304 
L 2906 2176 
C 3181 2176 3258 2157 3334 2105 
C 3430 2047 3469 1898 3469 1621 
L 3469 574 
C 3469 367 3078 192 2618 192 
C 1574 192 934 922 934 2112 
C 934 2714 1114 3296 1395 3610 
C 1677 3924 2074 4096 2509 4096 
C 2867 4096 3181 3975 3430 3744 
C 3622 3565 3725 3392 3885 3002 
L 4032 3002 
L 3981 4352 
L 3840 4352 
C 3802 4231 3686 4141 3552 4141 
C 3488 4141 3386 4160 3270 4205 
C 2982 4301 2688 4352 2400 4352 
C 1120 4352 205 3412 205 2106 
C 205 1479 378 999 736 621 
C 1165 180 1779 -64 2483 -64 
C 3034 -64 3834 160 4090 385 
L 4090 1694 
C 4090 2073 4166 2157 4538 2189 
L 4538 2304 
z
" transform="scale(0.015625)"/>
       <path id="NimbusRomNo9L-Regu-48" d="M 1338 2304 
L 1338 3533 
C 1338 3990 1408 4059 1901 4104 
L 1901 4224 
L 122 4224 
L 122 4104 
C 614 4059 685 3989 685 3527 
L 685 749 
C 685 210 621 134 122 134 
L 122 0 
L 1901 0 
L 1901 121 
C 1421 159 1338 242 1338 699 
L 1338 2022 
L 3277 2022 
L 3277 757 
C 3277 211 3213 134 2714 134 
L 2714 0 
L 4493 0 
L 4493 121 
C 4013 159 3930 242 3930 696 
L 3930 3529 
C 3930 3989 4000 4059 4493 4104 
L 4493 4224 
L 2714 4224 
L 2714 4104 
C 3206 4059 3277 3990 3277 3533 
L 3277 2304 
L 1338 2304 
z
" transform="scale(0.015625)"/>
       <path id="NimbusRomNo9L-Regu-7a" d="M 2675 864 
L 2560 890 
C 2496 570 2458 467 2374 358 
C 2285 250 2067 192 1741 192 
L 858 192 
L 2579 2784 
L 2579 2880 
L 358 2880 
L 339 2125 
L 454 2125 
C 512 2592 608 2688 992 2688 
L 1875 2688 
L 173 96 
L 173 0 
L 2586 0 
L 2675 864 
z
" transform="scale(0.015625)"/>
       <path id="NimbusRomNo9L-Regu-29" d="M 243 -1133 
C 717 -826 909 -659 1146 -365 
C 1600 192 1824 832 1824 1581 
C 1824 2400 1587 3021 1024 3674 
C 762 3981 595 4122 262 4326 
L 186 4224 
C 698 3821 870 3597 1050 3117 
C 1203 2688 1274 2202 1274 1562 
C 1274 896 1190 365 1018 -26 
C 838 -429 646 -659 186 -1030 
L 243 -1133 
z
" transform="scale(0.015625)"/>
      </defs>
      <use xlink:href="#NimbusRomNo9L-Regu-46" transform="scale(0.996264)"/>
      <use xlink:href="#NimbusRomNo9L-Regu-72" transform="translate(55.391677 0) scale(0.996264)"/>
      <use xlink:href="#NimbusRomNo9L-Regu-65" transform="translate(88.566907 0) scale(0.996264)"/>
      <use xlink:href="#NimbusRomNo9L-Regu-71" transform="translate(132.800475 0) scale(0.996264)"/>
      <use xlink:href="#NimbusRomNo9L-Regu-75" transform="translate(182.613676 0) scale(0.996264)"/>
      <use xlink:href="#NimbusRomNo9L-Regu-65" transform="translate(232.426876 0) scale(0.996264)"/>
      <use xlink:href="#NimbusRomNo9L-Regu-6e" transform="translate(276.660445 0) scale(0.996264)"/>
      <use xlink:href="#NimbusRomNo9L-Regu-63" transform="translate(326.473646 0) scale(0.996264)"/>
      <use xlink:href="#NimbusRomNo9L-Regu-79" transform="translate(369.213822 0) scale(0.996264)"/>
      <use xlink:href="#NimbusRomNo9L-Regu-28" transform="translate(443.933622 0) scale(0.996264)"/>
      <use xlink:href="#NimbusRomNo9L-Regu-47" transform="translate(477.108852 0) scale(0.996264)"/>
      <use xlink:href="#NimbusRomNo9L-Regu-48" transform="translate(549.038837 0) scale(0.996264)"/>
      <use xlink:href="#NimbusRomNo9L-Regu-7a" transform="translate(620.968822 0) scale(0.996264)"/>
      <use xlink:href="#NimbusRomNo9L-Regu-29" transform="translate(665.20239 0) scale(0.996264)"/>
     </g>
    </g>
   </g>
   <g id="matplotlib.axis_2">
    <g id="ytick_1">
     <g id="line2d_100">
      <path d="M 31.726417 378.946172 
L 562.32 378.946172 
" clip-path="url(#p86c3521425)" style="fill: none; stroke: #b0b0b0; stroke-width: 0.5; stroke-linecap: square"/>
     </g>
     <g id="line2d_101">
      <defs>
       <path id="m414dfe9340" d="M 0 0 
L 3 0 
" style="stroke: #000000; stroke-width: 0.5"/>
      </defs>
      <g>
       <use xlink:href="#m414dfe9340" x="31.726417" y="378.946172" style="stroke: #000000; stroke-width: 0.5"/>
      </g>
     </g>
     <g id="line2d_102">
      <defs>
       <path id="mc26bb4d16f" d="M 0 0 
L -3 0 
" style="stroke: #000000; stroke-width: 0.5"/>
      </defs>
      <g>
       <use xlink:href="#mc26bb4d16f" x="562.32" y="378.946172" style="stroke: #000000; stroke-width: 0.5"/>
      </g>
     </g>
     <g id="text_11">
      <!-- $\mathdefault{300}$ -->
      <g transform="translate(16.271249 381.648) scale(0.08 -0.08)">
       <defs>
        <path id="NimbusRomNo9L-Regu-33" d="M 979 2138 
C 1357 2138 1504 2125 1658 2068 
C 2054 1927 2304 1562 2304 1120 
C 2304 583 1939 167 1466 167 
C 1293 167 1165 212 928 365 
C 736 480 627 525 518 525 
C 371 525 275 436 275 301 
C 275 77 550 -64 998 -64 
C 1491 -64 1997 103 2298 365 
C 2598 628 2765 999 2765 1428 
C 2765 1754 2662 2055 2477 2253 
C 2349 2394 2227 2471 1946 2592 
C 2387 2893 2547 3130 2547 3476 
C 2547 3994 2138 4352 1549 4352 
C 1229 4352 947 4244 717 4039 
C 525 3866 429 3699 288 3315 
L 384 3290 
C 646 3757 934 3968 1338 3968 
C 1754 3968 2042 3687 2042 3284 
C 2042 3053 1946 2823 1786 2663 
C 1594 2471 1414 2375 979 2221 
L 979 2138 
z
" transform="scale(0.015625)"/>
       </defs>
       <use xlink:href="#NimbusRomNo9L-Regu-33" transform="scale(0.996264)"/>
       <use xlink:href="#NimbusRomNo9L-Regu-30" transform="translate(49.8132 0) scale(0.996264)"/>
       <use xlink:href="#NimbusRomNo9L-Regu-30" transform="translate(99.626401 0) scale(0.996264)"/>
      </g>
     </g>
    </g>
    <g id="ytick_2">
     <g id="line2d_103">
      <path d="M 31.726417 301.572924 
L 562.32 301.572924 
" clip-path="url(#p86c3521425)" style="fill: none; stroke: #b0b0b0; stroke-width: 0.5; stroke-linecap: square"/>
     </g>
     <g id="line2d_104">
      <g>
       <use xlink:href="#m414dfe9340" x="31.726417" y="301.572924" style="stroke: #000000; stroke-width: 0.5"/>
      </g>
     </g>
     <g id="line2d_105">
      <g>
       <use xlink:href="#mc26bb4d16f" x="562.32" y="301.572924" style="stroke: #000000; stroke-width: 0.5"/>
      </g>
     </g>
     <g id="text_12">
      <!-- $\mathdefault{350}$ -->
      <g transform="translate(16.271249 304.274752) scale(0.08 -0.08)">
       <use xlink:href="#NimbusRomNo9L-Regu-33" transform="scale(0.996264)"/>
       <use xlink:href="#NimbusRomNo9L-Regu-35" transform="translate(49.8132 0) scale(0.996264)"/>
       <use xlink:href="#NimbusRomNo9L-Regu-30" transform="translate(99.626401 0) scale(0.996264)"/>
      </g>
     </g>
    </g>
    <g id="ytick_3">
     <g id="line2d_106">
      <path d="M 31.726417 224.199675 
L 562.32 224.199675 
" clip-path="url(#p86c3521425)" style="fill: none; stroke: #b0b0b0; stroke-width: 0.5; stroke-linecap: square"/>
     </g>
     <g id="line2d_107">
      <g>
       <use xlink:href="#m414dfe9340" x="31.726417" y="224.199675" style="stroke: #000000; stroke-width: 0.5"/>
      </g>
     </g>
     <g id="line2d_108">
      <g>
       <use xlink:href="#mc26bb4d16f" x="562.32" y="224.199675" style="stroke: #000000; stroke-width: 0.5"/>
      </g>
     </g>
     <g id="text_13">
      <!-- $\mathdefault{400}$ -->
      <g transform="translate(16.271249 226.901503) scale(0.08 -0.08)">
       <defs>
        <path id="NimbusRomNo9L-Regu-34" d="M 3021 1497 
L 2368 1497 
L 2368 4352 
L 2086 4352 
L 77 1497 
L 77 1088 
L 1875 1088 
L 1875 32 
L 2368 32 
L 2368 1088 
L 3021 1088 
L 3021 1497 
z
M 1869 1497 
L 333 1497 
L 1869 3698 
L 1869 1497 
z
" transform="scale(0.015625)"/>
       </defs>
       <use xlink:href="#NimbusRomNo9L-Regu-34" transform="scale(0.996264)"/>
       <use xlink:href="#NimbusRomNo9L-Regu-30" transform="translate(49.8132 0) scale(0.996264)"/>
       <use xlink:href="#NimbusRomNo9L-Regu-30" transform="translate(99.626401 0) scale(0.996264)"/>
      </g>
     </g>
    </g>
    <g id="ytick_4">
     <g id="line2d_109">
      <path d="M 31.726417 146.826427 
L 562.32 146.826427 
" clip-path="url(#p86c3521425)" style="fill: none; stroke: #b0b0b0; stroke-width: 0.5; stroke-linecap: square"/>
     </g>
     <g id="line2d_110">
      <g>
       <use xlink:href="#m414dfe9340" x="31.726417" y="146.826427" style="stroke: #000000; stroke-width: 0.5"/>
      </g>
     </g>
     <g id="line2d_111">
      <g>
       <use xlink:href="#mc26bb4d16f" x="562.32" y="146.826427" style="stroke: #000000; stroke-width: 0.5"/>
      </g>
     </g>
     <g id="text_14">
      <!-- $\mathdefault{450}$ -->
      <g transform="translate(16.271249 149.528255) scale(0.08 -0.08)">
       <use xlink:href="#NimbusRomNo9L-Regu-34" transform="scale(0.996264)"/>
       <use xlink:href="#NimbusRomNo9L-Regu-35" transform="translate(49.8132 0) scale(0.996264)"/>
       <use xlink:href="#NimbusRomNo9L-Regu-30" transform="translate(99.626401 0) scale(0.996264)"/>
      </g>
     </g>
    </g>
    <g id="ytick_5">
     <g id="line2d_112">
      <path d="M 31.726417 69.453178 
L 562.32 69.453178 
" clip-path="url(#p86c3521425)" style="fill: none; stroke: #b0b0b0; stroke-width: 0.5; stroke-linecap: square"/>
     </g>
     <g id="line2d_113">
      <g>
       <use xlink:href="#m414dfe9340" x="31.726417" y="69.453178" style="stroke: #000000; stroke-width: 0.5"/>
      </g>
     </g>
     <g id="line2d_114">
      <g>
       <use xlink:href="#mc26bb4d16f" x="562.32" y="69.453178" style="stroke: #000000; stroke-width: 0.5"/>
      </g>
     </g>
     <g id="text_15">
      <!-- $\mathdefault{500}$ -->
      <g transform="translate(16.271249 72.155006) scale(0.08 -0.08)">
       <use xlink:href="#NimbusRomNo9L-Regu-35" transform="scale(0.996264)"/>
       <use xlink:href="#NimbusRomNo9L-Regu-30" transform="translate(49.8132 0) scale(0.996264)"/>
       <use xlink:href="#NimbusRomNo9L-Regu-30" transform="translate(99.626401 0) scale(0.996264)"/>
      </g>
     </g>
    </g>
    <g id="ytick_6">
     <g id="line2d_115">
      <defs>
       <path id="m9504ada813" d="M 0 0 
L 1.5 0 
" style="stroke: #000000; stroke-width: 0.5"/>
      </defs>
      <g>
       <use xlink:href="#m9504ada813" x="31.726417" y="394.420822" style="stroke: #000000; stroke-width: 0.5"/>
      </g>
     </g>
     <g id="line2d_116">
      <defs>
       <path id="mdb1385626d" d="M 0 0 
L -1.5 0 
" style="stroke: #000000; stroke-width: 0.5"/>
      </defs>
      <g>
       <use xlink:href="#mdb1385626d" x="562.32" y="394.420822" style="stroke: #000000; stroke-width: 0.5"/>
      </g>
     </g>
    </g>
    <g id="ytick_7">
     <g id="line2d_117">
      <g>
       <use xlink:href="#m9504ada813" x="31.726417" y="363.471522" style="stroke: #000000; stroke-width: 0.5"/>
      </g>
     </g>
     <g id="line2d_118">
      <g>
       <use xlink:href="#mdb1385626d" x="562.32" y="363.471522" style="stroke: #000000; stroke-width: 0.5"/>
      </g>
     </g>
    </g>
    <g id="ytick_8">
     <g id="line2d_119">
      <g>
       <use xlink:href="#m9504ada813" x="31.726417" y="347.996873" style="stroke: #000000; stroke-width: 0.5"/>
      </g>
     </g>
     <g id="line2d_120">
      <g>
       <use xlink:href="#mdb1385626d" x="562.32" y="347.996873" style="stroke: #000000; stroke-width: 0.5"/>
      </g>
     </g>
    </g>
    <g id="ytick_9">
     <g id="line2d_121">
      <g>
       <use xlink:href="#m9504ada813" x="31.726417" y="332.522223" style="stroke: #000000; stroke-width: 0.5"/>
      </g>
     </g>
     <g id="line2d_122">
      <g>
       <use xlink:href="#mdb1385626d" x="562.32" y="332.522223" style="stroke: #000000; stroke-width: 0.5"/>
      </g>
     </g>
    </g>
    <g id="ytick_10">
     <g id="line2d_123">
      <g>
       <use xlink:href="#m9504ada813" x="31.726417" y="317.047573" style="stroke: #000000; stroke-width: 0.5"/>
      </g>
     </g>
     <g id="line2d_124">
      <g>
       <use xlink:href="#mdb1385626d" x="562.32" y="317.047573" style="stroke: #000000; stroke-width: 0.5"/>
      </g>
     </g>
    </g>
    <g id="ytick_11">
     <g id="line2d_125">
      <g>
       <use xlink:href="#m9504ada813" x="31.726417" y="286.098274" style="stroke: #000000; stroke-width: 0.5"/>
      </g>
     </g>
     <g id="line2d_126">
      <g>
       <use xlink:href="#mdb1385626d" x="562.32" y="286.098274" style="stroke: #000000; stroke-width: 0.5"/>
      </g>
     </g>
    </g>
    <g id="ytick_12">
     <g id="line2d_127">
      <g>
       <use xlink:href="#m9504ada813" x="31.726417" y="270.623624" style="stroke: #000000; stroke-width: 0.5"/>
      </g>
     </g>
     <g id="line2d_128">
      <g>
       <use xlink:href="#mdb1385626d" x="562.32" y="270.623624" style="stroke: #000000; stroke-width: 0.5"/>
      </g>
     </g>
    </g>
    <g id="ytick_13">
     <g id="line2d_129">
      <g>
       <use xlink:href="#m9504ada813" x="31.726417" y="255.148975" style="stroke: #000000; stroke-width: 0.5"/>
      </g>
     </g>
     <g id="line2d_130">
      <g>
       <use xlink:href="#mdb1385626d" x="562.32" y="255.148975" style="stroke: #000000; stroke-width: 0.5"/>
      </g>
     </g>
    </g>
    <g id="ytick_14">
     <g id="line2d_131">
      <g>
       <use xlink:href="#m9504ada813" x="31.726417" y="239.674325" style="stroke: #000000; stroke-width: 0.5"/>
      </g>
     </g>
     <g id="line2d_132">
      <g>
       <use xlink:href="#mdb1385626d" x="562.32" y="239.674325" style="stroke: #000000; stroke-width: 0.5"/>
      </g>
     </g>
    </g>
    <g id="ytick_15">
     <g id="line2d_133">
      <g>
       <use xlink:href="#m9504ada813" x="31.726417" y="208.725025" style="stroke: #000000; stroke-width: 0.5"/>
      </g>
     </g>
     <g id="line2d_134">
      <g>
       <use xlink:href="#mdb1385626d" x="562.32" y="208.725025" style="stroke: #000000; stroke-width: 0.5"/>
      </g>
     </g>
    </g>
    <g id="ytick_16">
     <g id="line2d_135">
      <g>
       <use xlink:href="#m9504ada813" x="31.726417" y="193.250376" style="stroke: #000000; stroke-width: 0.5"/>
      </g>
     </g>
     <g id="line2d_136">
      <g>
       <use xlink:href="#mdb1385626d" x="562.32" y="193.250376" style="stroke: #000000; stroke-width: 0.5"/>
      </g>
     </g>
    </g>
    <g id="ytick_17">
     <g id="line2d_137">
      <g>
       <use xlink:href="#m9504ada813" x="31.726417" y="177.775726" style="stroke: #000000; stroke-width: 0.5"/>
      </g>
     </g>
     <g id="line2d_138">
      <g>
       <use xlink:href="#mdb1385626d" x="562.32" y="177.775726" style="stroke: #000000; stroke-width: 0.5"/>
      </g>
     </g>
    </g>
    <g id="ytick_18">
     <g id="line2d_139">
      <g>
       <use xlink:href="#m9504ada813" x="31.726417" y="162.301076" style="stroke: #000000; stroke-width: 0.5"/>
      </g>
     </g>
     <g id="line2d_140">
      <g>
       <use xlink:href="#mdb1385626d" x="562.32" y="162.301076" style="stroke: #000000; stroke-width: 0.5"/>
      </g>
     </g>
    </g>
    <g id="ytick_19">
     <g id="line2d_141">
      <g>
       <use xlink:href="#m9504ada813" x="31.726417" y="131.351777" style="stroke: #000000; stroke-width: 0.5"/>
      </g>
     </g>
     <g id="line2d_142">
      <g>
       <use xlink:href="#mdb1385626d" x="562.32" y="131.351777" style="stroke: #000000; stroke-width: 0.5"/>
      </g>
     </g>
    </g>
    <g id="ytick_20">
     <g id="line2d_143">
      <g>
       <use xlink:href="#m9504ada813" x="31.726417" y="115.877127" style="stroke: #000000; stroke-width: 0.5"/>
      </g>
     </g>
     <g id="line2d_144">
      <g>
       <use xlink:href="#mdb1385626d" x="562.32" y="115.877127" style="stroke: #000000; stroke-width: 0.5"/>
      </g>
     </g>
    </g>
    <g id="ytick_21">
     <g id="line2d_145">
      <g>
       <use xlink:href="#m9504ada813" x="31.726417" y="100.402478" style="stroke: #000000; stroke-width: 0.5"/>
      </g>
     </g>
     <g id="line2d_146">
      <g>
       <use xlink:href="#mdb1385626d" x="562.32" y="100.402478" style="stroke: #000000; stroke-width: 0.5"/>
      </g>
     </g>
    </g>
    <g id="ytick_22">
     <g id="line2d_147">
      <g>
       <use xlink:href="#m9504ada813" x="31.726417" y="84.927828" style="stroke: #000000; stroke-width: 0.5"/>
      </g>
     </g>
     <g id="line2d_148">
      <g>
       <use xlink:href="#mdb1385626d" x="562.32" y="84.927828" style="stroke: #000000; stroke-width: 0.5"/>
      </g>
     </g>
    </g>
    <g id="ytick_23">
     <g id="line2d_149">
      <g>
       <use xlink:href="#m9504ada813" x="31.726417" y="53.978528" style="stroke: #000000; stroke-width: 0.5"/>
      </g>
     </g>
     <g id="line2d_150">
      <g>
       <use xlink:href="#mdb1385626d" x="562.32" y="53.978528" style="stroke: #000000; stroke-width: 0.5"/>
      </g>
     </g>
    </g>
    <g id="ytick_24">
     <g id="line2d_151">
      <g>
       <use xlink:href="#m9504ada813" x="31.726417" y="38.503879" style="stroke: #000000; stroke-width: 0.5"/>
      </g>
     </g>
     <g id="line2d_152">
      <g>
       <use xlink:href="#mdb1385626d" x="562.32" y="38.503879" style="stroke: #000000; stroke-width: 0.5"/>
      </g>
     </g>
    </g>
    <g id="ytick_25">
     <g id="line2d_153">
      <g>
       <use xlink:href="#m9504ada813" x="31.726417" y="23.029229" style="stroke: #000000; stroke-width: 0.5"/>
      </g>
     </g>
     <g id="line2d_154">
      <g>
       <use xlink:href="#mdb1385626d" x="562.32" y="23.029229" style="stroke: #000000; stroke-width: 0.5"/>
      </g>
     </g>
    </g>
    <g id="text_16">
     <!-- velocity ($10^6$ m/s) -->
     <g transform="translate(10.545786 235.23639) rotate(-90) scale(0.08 -0.08)">
      <defs>
       <path id="NimbusRomNo9L-Regu-76" d="M 3053 2854 
L 2163 2854 
L 2163 2758 
C 2368 2739 2464 2675 2464 2552 
C 2464 2488 2451 2424 2426 2359 
L 1792 695 
L 1139 2340 
C 1101 2431 1082 2520 1082 2578 
C 1082 2694 1152 2739 1376 2758 
L 1376 2854 
L 122 2854 
L 122 2752 
C 365 2752 410 2688 704 2024 
L 1472 175 
C 1485 137 1504 91 1523 40 
C 1562 -76 1600 -128 1638 -128 
C 1677 -128 1722 -44 1818 193 
L 2637 2257 
C 2822 2694 2861 2739 3053 2758 
L 3053 2854 
z
" transform="scale(0.015625)"/>
       <path id="NimbusRomNo9L-Regu-6c" d="M 122 4000 
L 160 4000 
C 230 4000 307 4000 358 4000 
C 563 4000 627 3910 627 3610 
L 627 557 
C 627 211 538 128 134 96 
L 134 0 
L 1645 0 
L 1645 109 
C 1242 109 1165 173 1165 528 
L 1165 4371 
L 1139 4384 
C 806 4275 563 4211 122 4103 
L 122 4000 
z
" transform="scale(0.015625)"/>
       <path id="NimbusRomNo9L-Regu-6f" d="M 1600 2944 
C 768 2944 186 2330 186 1446 
C 186 582 781 -64 1587 -64 
C 2394 -64 3008 614 3008 1498 
C 3008 2336 2419 2944 1600 2944 
z
M 1517 2765 
C 2054 2765 2432 2150 2432 1274 
C 2432 550 2144 115 1664 115 
C 1414 115 1178 269 1043 525 
C 864 858 762 1306 762 1760 
C 762 2368 1062 2765 1517 2765 
z
" transform="scale(0.015625)"/>
       <path id="NimbusRomNo9L-Regu-69" d="M 1120 2929 
L 128 2579 
L 128 2484 
L 179 2490 
C 256 2502 339 2509 397 2509 
C 550 2509 608 2406 608 2125 
L 608 640 
C 608 179 544 109 102 109 
L 102 0 
L 1619 0 
L 1619 96 
C 1197 128 1146 191 1146 650 
L 1146 2910 
L 1120 2929 
z
M 819 4352 
C 646 4352 499 4205 499 4026 
C 499 3847 640 3699 819 3699 
C 1005 3699 1152 3840 1152 4026 
C 1152 4205 1005 4352 819 4352 
z
" transform="scale(0.015625)"/>
       <path id="NimbusRomNo9L-Regu-74" d="M 1632 2880 
L 986 2880 
L 986 3622 
C 986 3686 979 3706 941 3706 
C 896 3648 858 3590 813 3526 
C 570 3174 294 2867 192 2841 
C 122 2794 83 2748 83 2715 
C 83 2695 90 2682 109 2682 
L 448 2682 
L 448 751 
C 448 212 640 -64 1018 -64 
C 1331 -64 1574 90 1786 423 
L 1702 493 
C 1568 333 1459 269 1318 269 
C 1082 269 986 443 986 847 
L 986 2682 
L 1632 2682 
L 1632 2880 
z
" transform="scale(0.015625)"/>
       <path id="NimbusRomNo9L-Regu-36" d="M 2854 4391 
C 2125 4327 1754 4205 1286 3879 
C 595 3386 218 2656 218 1802 
C 218 1248 390 688 666 370 
C 909 89 1254 -64 1651 -64 
C 2445 -64 2995 541 2995 1421 
C 2995 2236 2528 2752 1792 2752 
C 1510 2752 1376 2707 973 2464 
C 1146 3431 1862 4122 2867 4288 
L 2854 4391 
z
M 1549 2458 
C 2099 2458 2419 2000 2419 1204 
C 2419 504 2170 116 1722 116 
C 1158 116 813 714 813 1700 
C 813 2025 864 2203 992 2299 
C 1126 2400 1325 2458 1549 2458 
z
" transform="scale(0.015625)"/>
       <path id="NimbusRomNo9L-Regu-6d" d="M 122 2547 
C 205 2566 256 2573 326 2573 
C 493 2573 550 2470 550 2162 
L 550 539 
C 550 192 461 96 102 96 
L 102 0 
L 1523 0 
L 1523 96 
C 1184 96 1088 166 1088 418 
L 1088 2234 
C 1088 2246 1139 2310 1184 2355 
C 1344 2502 1619 2611 1843 2611 
C 2125 2611 2266 2385 2266 1932 
L 2266 528 
C 2266 167 2195 96 1830 96 
L 1830 0 
L 3264 0 
L 3264 96 
C 2899 96 2803 205 2803 603 
L 2803 2221 
C 2995 2496 3206 2611 3501 2611 
C 3866 2611 3981 2438 3981 1907 
L 3981 557 
C 3981 192 3930 141 3558 96 
L 3558 0 
L 4960 0 
L 4960 96 
L 4794 115 
C 4602 115 4518 230 4518 480 
L 4518 1802 
C 4518 2559 4269 2944 3776 2944 
C 3405 2944 3078 2778 2733 2407 
C 2618 2771 2400 2944 2054 2944 
C 1773 2944 1594 2854 1062 2451 
L 1062 2931 
L 1018 2944 
C 691 2822 474 2752 122 2656 
L 122 2547 
z
" transform="scale(0.015625)"/>
       <path id="NimbusRomNo9L-Regu-2f" d="M 1837 4352 
L 1408 4352 
L -58 -64 
L 378 -64 
L 1837 4352 
z
" transform="scale(0.015625)"/>
       <path id="NimbusRomNo9L-Regu-73" d="M 2016 2010 
L 1990 2880 
L 1920 2880 
L 1907 2867 
C 1850 2822 1843 2816 1818 2816 
C 1779 2816 1715 2829 1645 2861 
C 1504 2915 1363 2944 1197 2944 
C 691 2944 326 2616 326 2154 
C 326 1796 531 1539 1075 1231 
L 1446 1020 
C 1670 892 1779 737 1779 539 
C 1779 256 1574 77 1248 77 
C 1030 77 832 159 710 298 
C 576 455 518 600 435 960 
L 333 960 
L 333 -39 
L 416 -39 
C 461 33 486 48 563 48 
C 621 48 710 35 858 -2 
C 1037 -39 1210 -64 1325 -64 
C 1818 -64 2227 308 2227 757 
C 2227 1077 2074 1289 1690 1520 
L 998 1930 
C 819 2033 723 2194 723 2367 
C 723 2624 922 2803 1216 2803 
C 1581 2803 1773 2583 1920 2010 
L 2016 2010 
z
" transform="scale(0.015625)"/>
      </defs>
      <use xlink:href="#NimbusRomNo9L-Regu-76" transform="scale(0.996264)"/>
      <use xlink:href="#NimbusRomNo9L-Regu-65" transform="translate(48.319808 0) scale(0.996264)"/>
      <use xlink:href="#NimbusRomNo9L-Regu-6c" transform="translate(92.553376 0) scale(0.996264)"/>
      <use xlink:href="#NimbusRomNo9L-Regu-6f" transform="translate(120.248546 0) scale(0.996264)"/>
      <use xlink:href="#NimbusRomNo9L-Regu-63" transform="translate(170.061747 0) scale(0.996264)"/>
      <use xlink:href="#NimbusRomNo9L-Regu-69" transform="translate(214.295315 0) scale(0.996264)"/>
      <use xlink:href="#NimbusRomNo9L-Regu-74" transform="translate(241.990485 0) scale(0.996264)"/>
      <use xlink:href="#NimbusRomNo9L-Regu-79" transform="translate(269.685655 0) scale(0.996264)"/>
      <use xlink:href="#NimbusRomNo9L-Regu-28" transform="translate(344.405455 0) scale(0.996264)"/>
      <use xlink:href="#NimbusRomNo9L-Regu-31" transform="translate(377.580685 0) scale(0.996264)"/>
      <use xlink:href="#NimbusRomNo9L-Regu-30" transform="translate(427.393885 0) scale(0.996264)"/>
      <use xlink:href="#NimbusRomNo9L-Regu-36" transform="translate(477.207086 36.163231) scale(0.737241)"/>
      <use xlink:href="#NimbusRomNo9L-Regu-6d" transform="translate(539.47386 0) scale(0.996264)"/>
      <use xlink:href="#NimbusRomNo9L-Regu-2f" transform="translate(616.98223 0) scale(0.996264)"/>
      <use xlink:href="#NimbusRomNo9L-Regu-73" transform="translate(644.6774 0) scale(0.996264)"/>
      <use xlink:href="#NimbusRomNo9L-Regu-29" transform="translate(683.431106 0) scale(0.996264)"/>
     </g>
    </g>
   </g>
   <g id="line2d_155">
    <path d="M 55.844307 33.378822 
L 61.155554 42.281576 
L 66.466801 50.758877 
L 71.778048 58.841499 
L 77.572136 67.24136 
L 83.366224 75.237087 
L 89.160311 82.857974 
L 94.954399 90.130477 
L 101.231327 97.64361 
L 107.508256 104.803504 
L 113.785184 111.635049 
L 120.544953 118.650702 
L 127.304722 125.337149 
L 134.064491 131.717436 
L 141.307101 138.237408 
L 148.549711 144.45316 
L 155.79232 150.38577 
L 163.51777 156.423327 
L 171.243221 162.181548 
L 179.451512 168.014926 
L 187.659803 173.575278 
L 196.350934 179.186011 
L 205.042066 184.531982 
L 214.216038 189.907953 
L 223.39001 195.028883 
L 233.046823 200.163235 
L 243.186477 205.291689 
L 253.32613 210.170359 
L 263.948624 215.032694 
L 275.053959 219.863629 
L 286.159294 224.455228 
L 297.747469 229.009819 
L 309.818485 233.515879 
L 322.372342 237.963249 
L 335.40904 242.343062 
L 348.928578 246.647668 
L 362.930956 250.87056 
L 377.416176 255.006282 
L 392.384236 259.050352 
L 407.835136 262.999176 
L 424.251718 266.963332 
L 441.151141 270.814808 
L 459.016244 274.653985 
L 477.364189 278.368669 
L 496.677815 282.049752 
L 516.957122 285.683281 
L 537.719269 289.178464 
L 538.20211 289.257199 
L 538.20211 289.257199 
" clip-path="url(#p86c3521425)" style="fill: none; stroke: #ff0000; stroke-linecap: square"/>
   </g>
   <g id="line2d_156">
    <path d="M 55.844307 379.267336 
L 538.20211 379.267336 
L 538.20211 379.267336 
" clip-path="url(#p86c3521425)" style="fill: none; stroke-dasharray: 3.7,1.6; stroke-dashoffset: 0; stroke: #0000ff"/>
   </g>
   <g id="patch_3">
    <path d="M 31.726417 396.561762 
L 31.726417 16.084396 
" style="fill: none; stroke: #000000; stroke-width: 0.5; stroke-linejoin: miter; stroke-linecap: square"/>
   </g>
   <g id="patch_4">
    <path d="M 562.32 396.561762 
L 562.32 16.084396 
" style="fill: none; stroke: #000000; stroke-width: 0.5; stroke-linejoin: miter; stroke-linecap: square"/>
   </g>
   <g id="patch_5">
    <path d="M 31.726417 396.561762 
L 562.32 396.561762 
" style="fill: none; stroke: #000000; stroke-width: 0.5; stroke-linejoin: miter; stroke-linecap: square"/>
   </g>
   <g id="patch_6">
    <path d="M 31.726417 16.084396 
L 562.32 16.084396 
" style="fill: none; stroke: #000000; stroke-width: 0.5; stroke-linejoin: miter; stroke-linecap: square"/>
   </g>
   <g id="text_17">
    <!-- Velocity at different frequencies -->
    <g transform="translate(235.660477 10.084396) scale(0.096 -0.096)">
     <defs>
      <path id="NimbusRomNo9L-Regu-56" d="M 4461 4231 
L 3149 4231 
L 3149 4096 
C 3501 4096 3616 4026 3616 3846 
C 3616 3744 3571 3572 3494 3380 
L 2554 1033 
L 1587 3199 
C 1376 3667 1325 3814 1325 3910 
C 1325 4032 1414 4096 1619 4096 
C 1645 4096 1715 4096 1805 4109 
L 1805 4231 
L 102 4231 
L 102 4096 
C 416 4096 506 4007 781 3439 
L 2355 -64 
L 2451 -64 
L 3872 3521 
C 4083 4026 4154 4096 4461 4096 
L 4461 4231 
z
" transform="scale(0.015625)"/>
      <path id="NimbusRomNo9L-Regu-61" d="M 2829 423 
C 2720 333 2643 301 2547 301 
C 2400 301 2355 390 2355 672 
L 2355 1920 
C 2355 2253 2323 2438 2227 2592 
C 2086 2822 1811 2944 1434 2944 
C 832 2944 358 2630 358 2227 
C 358 2080 486 1952 634 1952 
C 787 1952 922 2080 922 2221 
C 922 2246 915 2278 909 2323 
C 896 2381 890 2432 890 2477 
C 890 2650 1094 2790 1350 2790 
C 1664 2790 1837 2605 1837 2259 
L 1837 1869 
C 851 1472 742 1421 467 1178 
C 326 1050 237 832 237 621 
C 237 218 518 -64 909 -64 
C 1190 -64 1453 70 1843 403 
C 1875 70 1990 -64 2253 -64 
C 2470 -64 2605 13 2829 256 
L 2829 423 
z
M 1837 783 
C 1837 584 1805 526 1670 449 
C 1517 359 1338 301 1203 301 
C 979 301 800 520 800 796 
L 800 822 
C 800 1201 1062 1433 1837 1715 
L 1837 783 
z
" transform="scale(0.015625)"/>
      <path id="NimbusRomNo9L-Regu-64" d="M 2202 -64 
L 3142 269 
L 3142 365 
C 3027 365 3014 365 2995 365 
C 2765 365 2714 435 2714 731 
L 2714 4364 
L 2682 4377 
C 2374 4268 2150 4204 1741 4096 
L 1741 3994 
C 1792 4000 1830 4000 1882 4000 
C 2118 4000 2176 3936 2176 3672 
L 2176 2669 
C 1933 2874 1760 2944 1504 2944 
C 768 2944 173 2221 173 1312 
C 173 493 653 -64 1357 -64 
C 1715 -64 1958 64 2176 365 
L 2176 -45 
L 2202 -64 
z
M 2176 653 
C 2176 608 2131 531 2067 461 
C 1952 333 1792 269 1606 269 
C 1075 269 723 781 723 1568 
C 723 2291 1037 2765 1523 2765 
C 1862 2765 2176 2464 2176 2125 
L 2176 653 
z
" transform="scale(0.015625)"/>
      <path id="NimbusRomNo9L-Regu-66" d="M 1978 2880 
L 1190 2880 
L 1190 3611 
C 1190 3978 1312 4173 1555 4173 
C 1690 4173 1779 4110 1894 3927 
C 1997 3763 2074 3700 2182 3700 
C 2330 3700 2451 3814 2451 3959 
C 2451 4188 2170 4352 1786 4352 
C 1389 4352 1050 4181 883 3891 
C 717 3613 666 3385 659 2880 
L 134 2880 
L 134 2675 
L 659 2675 
L 659 656 
C 659 185 589 109 128 109 
L 128 0 
L 1792 0 
L 1792 109 
C 1267 109 1197 180 1197 661 
L 1197 2675 
L 1978 2675 
L 1978 2880 
z
" transform="scale(0.015625)"/>
     </defs>
     <use xlink:href="#NimbusRomNo9L-Regu-56" transform="scale(0.996264)"/>
     <use xlink:href="#NimbusRomNo9L-Regu-65" transform="translate(60.871539 0) scale(0.996264)"/>
     <use xlink:href="#NimbusRomNo9L-Regu-6c" transform="translate(105.105108 0) scale(0.996264)"/>
     <use xlink:href="#NimbusRomNo9L-Regu-6f" transform="translate(132.800278 0) scale(0.996264)"/>
     <use xlink:href="#NimbusRomNo9L-Regu-63" transform="translate(182.613478 0) scale(0.996264)"/>
     <use xlink:href="#NimbusRomNo9L-Regu-69" transform="translate(226.847047 0) scale(0.996264)"/>
     <use xlink:href="#NimbusRomNo9L-Regu-74" transform="translate(254.542217 0) scale(0.996264)"/>
     <use xlink:href="#NimbusRomNo9L-Regu-79" transform="translate(282.237386 0) scale(0.996264)"/>
     <use xlink:href="#NimbusRomNo9L-Regu-61" transform="translate(356.957187 0) scale(0.996264)"/>
     <use xlink:href="#NimbusRomNo9L-Regu-74" transform="translate(401.190756 0) scale(0.996264)"/>
     <use xlink:href="#NimbusRomNo9L-Regu-64" transform="translate(453.792525 0) scale(0.996264)"/>
     <use xlink:href="#NimbusRomNo9L-Regu-69" transform="translate(503.605726 0) scale(0.996264)"/>
     <use xlink:href="#NimbusRomNo9L-Regu-66" transform="translate(531.300896 0) scale(0.996264)"/>
     <use xlink:href="#NimbusRomNo9L-Regu-66" transform="translate(561.985496 0) scale(0.996264)"/>
     <use xlink:href="#NimbusRomNo9L-Regu-65" transform="translate(595.160543 0) scale(0.996264)"/>
     <use xlink:href="#NimbusRomNo9L-Regu-72" transform="translate(639.394112 0) scale(0.996264)"/>
     <use xlink:href="#NimbusRomNo9L-Regu-65" transform="translate(672.569341 0) scale(0.996264)"/>
     <use xlink:href="#NimbusRomNo9L-Regu-6e" transform="translate(716.80291 0) scale(0.996264)"/>
     <use xlink:href="#NimbusRomNo9L-Regu-74" transform="translate(766.616111 0) scale(0.996264)"/>
     <use xlink:href="#NimbusRomNo9L-Regu-66" transform="translate(819.21788 0) scale(0.996264)"/>
     <use xlink:href="#NimbusRomNo9L-Regu-72" transform="translate(852.39311 0) scale(0.996264)"/>
     <use xlink:href="#NimbusRomNo9L-Regu-65" transform="translate(885.56834 0) scale(0.996264)"/>
     <use xlink:href="#NimbusRomNo9L-Regu-71" transform="translate(929.801909 0) scale(0.996264)"/>
     <use xlink:href="#NimbusRomNo9L-Regu-75" transform="translate(979.615109 0) scale(0.996264)"/>
     <use xlink:href="#NimbusRomNo9L-Regu-65" transform="translate(1029.42831 0) scale(0.996264)"/>
     <use xlink:href="#NimbusRomNo9L-Regu-6e" transform="translate(1073.661878 0) scale(0.996264)"/>
     <use xlink:href="#NimbusRomNo9L-Regu-63" transform="translate(1123.475079 0) scale(0.996264)"/>
     <use xlink:href="#NimbusRomNo9L-Regu-69" transform="translate(1167.708648 0) scale(0.996264)"/>
     <use xlink:href="#NimbusRomNo9L-Regu-65" transform="translate(1195.403817 0) scale(0.996264)"/>
     <use xlink:href="#NimbusRomNo9L-Regu-73" transform="translate(1239.637386 0) scale(0.996264)"/>
    </g>
   </g>
   <g id="legend_1">
    <g id="line2d_157">
     <path d="M 514.479549 26.46198 
L 522.479549 26.46198 
L 530.479549 26.46198 
" style="fill: none; stroke: #ff0000; stroke-linecap: square"/>
    </g>
    <g id="text_18">
     <!-- $v_p(f)$ -->
     <g transform="translate(536.879549 29.26198) scale(0.08 -0.08)">
      <defs>
       <path id="NimbusRomNo9L-ReguItal-76" d="M 134 2573 
C 205 2579 256 2579 326 2579 
C 576 2579 640 2471 730 1880 
C 794 1437 870 469 870 97 
C 870 -83 883 -128 928 -128 
C 1088 -128 1683 552 2336 1463 
C 2560 1783 2726 2200 2726 2438 
C 2726 2643 2560 2816 2368 2816 
C 2227 2816 2131 2733 2131 2598 
C 2131 2496 2170 2418 2285 2316 
C 2368 2239 2400 2188 2400 2124 
C 2400 1828 1978 1116 1523 641 
L 1325 436 
C 1280 1341 1242 1675 1158 2149 
C 1030 2804 1030 2816 973 2816 
C 941 2816 896 2810 845 2791 
C 730 2759 378 2694 134 2656 
L 134 2573 
z
" transform="scale(0.015625)"/>
       <path id="NimbusRomNo9L-ReguItal-70" d="M 358 2580 
L 506 2580 
C 506 2580 518 2580 525 2586 
C 608 2625 774 2503 774 2409 
C 774 2351 544 1450 320 612 
C 147 -22 -6 -625 -51 -809 
C -122 -1101 -205 -1178 -480 -1178 
L -480 -1280 
L 832 -1280 
L 832 -1178 
C 531 -1178 422 -1122 422 -990 
C 422 -902 531 -413 659 51 
C 819 -32 934 -57 1082 -57 
C 2016 -57 3002 1011 3002 2022 
C 3002 2517 2720 2816 2266 2816 
C 1850 2816 1542 2613 1171 2097 
L 1357 2733 
L 1376 2791 
C 1376 2791 1370 2797 1363 2810 
L 1350 2816 
C 1350 2823 1344 2823 1344 2823 
L 1331 2816 
L 346 2676 
L 358 2580 
z
M 2029 2542 
C 2304 2542 2426 2376 2426 2006 
C 2426 1584 2240 1035 1965 639 
C 1696 262 1389 64 1056 64 
C 877 64 749 159 749 297 
C 749 512 979 1338 1165 1805 
C 1338 2233 1709 2542 2029 2542 
z
" transform="scale(0.015625)"/>
       <path id="CMR10-28" d="M 2118 -1536 
C 2118 -1517 2118 -1504 2010 -1395 
C 1210 -584 1005 632 1005 1616 
C 1005 2735 1248 3855 2035 4658 
C 2118 4735 2118 4748 2118 4767 
C 2118 4812 2093 4832 2054 4832 
C 1990 4832 1414 4395 1037 3577 
C 710 2870 634 2156 634 1616 
C 634 1114 704 336 1056 -391 
C 1440 -1182 1990 -1600 2054 -1600 
C 2093 -1600 2118 -1581 2118 -1536 
z
" transform="scale(0.015625)"/>
       <path id="NimbusRomNo9L-ReguItal-66" d="M 224 2560 
L 800 2560 
L 237 -114 
C 96 -796 -115 -1146 -384 -1146 
C -461 -1146 -512 -1101 -512 -1044 
C -512 -1025 -506 -1005 -486 -974 
C -461 -936 -454 -912 -454 -873 
C -454 -739 -570 -631 -704 -631 
C -838 -631 -941 -746 -941 -891 
C -941 -1109 -717 -1280 -435 -1280 
C 134 -1280 582 -650 845 522 
L 1306 2560 
L 2003 2560 
L 2042 2764 
L 1350 2764 
C 1536 3770 1773 4224 2131 4224 
C 2214 4224 2272 4193 2272 4148 
C 2272 4129 2266 4116 2246 4083 
C 2221 4025 2208 3994 2208 3949 
C 2208 3796 2304 3693 2445 3693 
C 2592 3693 2714 3808 2714 3949 
C 2714 4186 2477 4365 2163 4365 
C 1850 4365 1600 4224 1370 3923 
C 1178 3673 1050 3379 858 2764 
L 269 2764 
L 224 2560 
z
" transform="scale(0.015625)"/>
       <path id="CMR10-29" d="M 1850 1616 
C 1850 2118 1779 2896 1427 3622 
C 1043 4414 493 4832 429 4832 
C 390 4832 365 4806 365 4767 
C 365 4748 365 4735 486 4620 
C 1114 3983 1478 2960 1478 1616 
C 1478 516 1242 -617 448 -1427 
C 365 -1504 365 -1517 365 -1536 
C 365 -1575 390 -1600 429 -1600 
C 493 -1600 1069 -1163 1446 -346 
C 1773 362 1850 1075 1850 1616 
z
" transform="scale(0.015625)"/>
      </defs>
      <use xlink:href="#NimbusRomNo9L-ReguItal-76" transform="scale(0.996264)"/>
      <use xlink:href="#NimbusRomNo9L-ReguItal-70" transform="translate(49.762852 -14.943915) scale(0.737241)"/>
      <use xlink:href="#CMR10-28" transform="translate(87.123026 0) scale(0.996264)"/>
      <use xlink:href="#NimbusRomNo9L-ReguItal-66" transform="translate(140.720786 0) scale(0.996264)"/>
      <use xlink:href="#CMR10-29" transform="translate(182.961021 0) scale(0.996264)"/>
     </g>
    </g>
    <g id="line2d_158">
     <path d="M 514.479549 38.411127 
L 522.479549 38.411127 
L 530.479549 38.411127 
" style="fill: none; stroke-dasharray: 3.7,1.6; stroke-dashoffset: 0; stroke: #0000ff"/>
    </g>
    <g id="text_19">
     <!-- c -->
     <g transform="translate(536.879549 41.211127) scale(0.08 -0.08)">
      <use xlink:href="#NimbusRomNo9L-Regu-63" transform="scale(0.996264)"/>
     </g>
    </g>
   </g>
  </g>
 </g>
 <defs>
  <clipPath id="p86c3521425">
   <rect x="31.726417" y="16.084396" width="530.593583" height="380.477366"/>
  </clipPath>
 </defs>
</svg>
