<?xml version="1.0" encoding="utf-8" standalone="no"?>
<!DOCTYPE svg PUBLIC "-//W3C//DTD SVG 1.1//EN"
  "http://www.w3.org/Graphics/SVG/1.1/DTD/svg11.dtd">
<svg xmlns:xlink="http://www.w3.org/1999/xlink" width="177.958154pt" height="188.484059pt" viewBox="0 0 177.958154 188.484059" xmlns="http://www.w3.org/2000/svg" version="1.1">
 <metadata>
  <rdf:RDF xmlns:dc="http://purl.org/dc/elements/1.1/" xmlns:cc="http://creativecommons.org/ns#" xmlns:rdf="http://www.w3.org/1999/02/22-rdf-syntax-ns#">
   <cc:Work>
    <dc:type rdf:resource="http://purl.org/dc/dcmitype/StillImage"/>
    <dc:date>2025-03-29T11:26:56.023934</dc:date>
    <dc:format>image/svg+xml</dc:format>
    <dc:creator>
     <cc:Agent>
      <dc:title>Matplotlib v3.9.2, https://matplotlib.org/</dc:title>
     </cc:Agent>
    </dc:creator>
   </cc:Work>
  </rdf:RDF>
 </metadata>
 <defs>
  <style type="text/css">*{stroke-linejoin: round; stroke-linecap: butt}</style>
 </defs>
 <g id="figure_1">
  <g id="patch_1">
   <path d="M -0 188.484059 
L 177.958154 188.484059 
L 177.958154 0 
L -0 0 
L -0 188.484059 
z
" style="fill: none"/>
  </g>
  <g id="axes_1">
   <g id="patch_2">
    <path d="M 160.271605 101.519499 
C 160.271605 92.419107 158.479026 83.407204 154.996457 74.999538 
C 151.513887 66.591871 146.409054 58.951949 139.974105 52.516999 
C 133.539156 46.08205 125.899233 40.977217 117.491567 37.494648 
C 109.0839 34.012078 100.071998 32.219499 90.971605 32.219499 
C 81.871212 32.219499 72.85931 34.012078 64.451643 37.494648 
C 56.043977 40.977217 48.404054 46.08205 41.969105 52.516999 
C 35.534156 58.951949 30.429323 66.591871 26.946753 74.999538 
C 23.464184 83.407204 21.671605 92.419107 21.671605 101.519499 
C 21.671605 110.619892 23.464184 119.631795 26.946753 128.039461 
C 30.429323 136.447128 35.534156 144.08705 41.969105 150.521999 
C 48.404054 156.956949 56.043977 162.061782 64.451643 165.544351 
C 72.85931 169.02692 81.871212 170.819499 90.971605 170.819499 
C 100.071998 170.819499 109.0839 169.02692 117.491567 165.544351 
C 125.899233 162.061782 133.539156 156.956949 139.974105 150.521999 
C 146.409054 144.08705 151.513887 136.447128 154.996457 128.039461 
C 158.479026 119.631795 160.271605 110.619892 160.271605 101.519499 
M 90.971605 101.519499 
C 90.971605 101.519499 90.971605 101.519499 90.971605 101.519499 
C 90.971605 101.519499 90.971605 101.519499 90.971605 101.519499 
C 90.971605 101.519499 90.971605 101.519499 90.971605 101.519499 
C 90.971605 101.519499 90.971605 101.519499 90.971605 101.519499 
C 90.971605 101.519499 90.971605 101.519499 90.971605 101.519499 
C 90.971605 101.519499 90.971605 101.519499 90.971605 101.519499 
C 90.971605 101.519499 90.971605 101.519499 90.971605 101.519499 
C 90.971605 101.519499 90.971605 101.519499 90.971605 101.519499 
C 90.971605 101.519499 90.971605 101.519499 90.971605 101.519499 
C 90.971605 101.519499 90.971605 101.519499 90.971605 101.519499 
C 90.971605 101.519499 90.971605 101.519499 90.971605 101.519499 
C 90.971605 101.519499 90.971605 101.519499 90.971605 101.519499 
C 90.971605 101.519499 90.971605 101.519499 90.971605 101.519499 
C 90.971605 101.519499 90.971605 101.519499 90.971605 101.519499 
C 90.971605 101.519499 90.971605 101.519499 90.971605 101.519499 
C 90.971605 101.519499 90.971605 101.519499 90.971605 101.519499 
L 90.971605 101.519499 
z
" style="fill: none"/>
   </g>
   <g id="matplotlib.axis_1">
    <g id="xtick_1">
     <g id="line2d_1">
      <path d="M 90.971605 101.519499 
L 160.271605 101.519499 
" clip-path="url(#pde4bf1e46a)" style="fill: none; stroke: #b0b0b0; stroke-width: 0.5; stroke-linecap: square"/>
     </g>
     <g id="text_1">
      <!-- 0° -->
      <g transform="translate(167.185056 103.358596) scale(0.08 -0.08)">
       <defs>
        <path id="NimbusRomNo9L-Regu-30" d="M 1626 4352 
C 1274 4352 1005 4244 768 4020 
C 397 3661 154 2925 154 2176 
C 154 1479 365 730 666 372 
C 902 90 1229 -64 1600 -64 
C 1926 -64 2202 45 2432 269 
C 2803 621 3046 1364 3046 2138 
C 3046 3450 2464 4352 1626 4352 
z
M 1606 4186 
C 2144 4186 2432 3463 2432 2125 
C 2432 788 2150 103 1600 103 
C 1050 103 768 788 768 2119 
C 768 3476 1056 4186 1606 4186 
z
" transform="scale(0.015625)"/>
        <path id="NimbusRomNo9L-Regu-b0" d="M 1280 4313 
C 768 4313 365 3913 365 3404 
C 365 2903 768 2496 1267 2496 
C 1786 2496 2195 2890 2195 3399 
C 2195 3913 1792 4313 1280 4313 
z
M 1280 4096 
C 1638 4096 1946 3779 1946 3405 
C 1946 3024 1645 2714 1274 2714 
C 915 2714 614 3031 614 3405 
C 614 3779 915 4096 1280 4096 
z
" transform="scale(0.015625)"/>
       </defs>
       <use xlink:href="#NimbusRomNo9L-Regu-30" transform="scale(0.996264)"/>
       <use xlink:href="#NimbusRomNo9L-Regu-b0" transform="translate(49.8132 0) scale(0.996264)"/>
      </g>
     </g>
    </g>
    <g id="xtick_2">
     <g id="line2d_2">
      <path d="M 90.971605 101.519499 
L 139.974105 52.516999 
" clip-path="url(#pde4bf1e46a)" style="fill: none; stroke: #b0b0b0; stroke-width: 0.5; stroke-linecap: square"/>
     </g>
     <g id="text_2">
      <!-- 45° -->
      <g transform="translate(141.819649 46.931475) scale(0.08 -0.08)">
       <defs>
        <path id="NimbusRomNo9L-Regu-34" d="M 3021 1497 
L 2368 1497 
L 2368 4352 
L 2086 4352 
L 77 1497 
L 77 1088 
L 1875 1088 
L 1875 32 
L 2368 32 
L 2368 1088 
L 3021 1088 
L 3021 1497 
z
M 1869 1497 
L 333 1497 
L 1869 3698 
L 1869 1497 
z
" transform="scale(0.015625)"/>
        <path id="NimbusRomNo9L-Regu-35" d="M 1158 3776 
L 2413 3776 
C 2515 3776 2541 3789 2560 3834 
L 2803 4403 
L 2746 4448 
C 2650 4314 2586 4282 2451 4282 
L 1114 4282 
L 416 2759 
C 410 2746 410 2740 410 2727 
C 410 2695 435 2676 486 2676 
C 691 2676 947 2631 1210 2547 
C 1946 2309 2285 1910 2285 1274 
C 2285 656 1894 173 1395 173 
C 1267 173 1158 218 966 360 
C 762 508 614 572 480 572 
C 294 572 205 495 205 334 
C 205 90 506 -64 986 -64 
C 1523 -64 1984 110 2304 438 
C 2598 728 2733 1094 2733 1583 
C 2733 2046 2611 2342 2291 2663 
C 2010 2947 1645 3094 890 3229 
L 1158 3776 
z
" transform="scale(0.015625)"/>
       </defs>
       <use xlink:href="#NimbusRomNo9L-Regu-34" transform="scale(0.996264)"/>
       <use xlink:href="#NimbusRomNo9L-Regu-35" transform="translate(49.8132 0) scale(0.996264)"/>
       <use xlink:href="#NimbusRomNo9L-Regu-b0" transform="translate(99.626401 0) scale(0.996264)"/>
      </g>
     </g>
    </g>
    <g id="xtick_3">
     <g id="line2d_3">
      <path d="M 90.971605 101.519499 
L 90.971605 32.219499 
" clip-path="url(#pde4bf1e46a)" style="fill: none; stroke: #b0b0b0; stroke-width: 0.5; stroke-linecap: square"/>
     </g>
     <g id="text_3">
      <!-- 90° -->
      <g transform="translate(85.392528 23.558596) scale(0.08 -0.08)">
       <defs>
        <path id="NimbusRomNo9L-Regu-39" d="M 378 -123 
C 1094 -40 1446 82 1882 396 
C 2547 882 2938 1676 2938 2539 
C 2938 3593 2349 4339 1523 4339 
C 762 4339 192 3694 192 2832 
C 192 2053 653 1536 1344 1536 
C 1696 1536 1965 1638 2304 1900 
C 2042 856 1331 172 358 5 
L 378 -123 
z
M 2317 2290 
C 2317 2162 2291 2104 2221 2047 
C 2042 1894 1805 1811 1574 1811 
C 1088 1811 781 2290 781 3050 
C 781 3413 883 3796 1018 3963 
C 1126 4090 1286 4160 1472 4160 
C 2029 4160 2317 3611 2317 2539 
L 2317 2290 
z
" transform="scale(0.015625)"/>
       </defs>
       <use xlink:href="#NimbusRomNo9L-Regu-39" transform="scale(0.996264)"/>
       <use xlink:href="#NimbusRomNo9L-Regu-30" transform="translate(49.8132 0) scale(0.996264)"/>
       <use xlink:href="#NimbusRomNo9L-Regu-b0" transform="translate(99.626401 0) scale(0.996264)"/>
      </g>
     </g>
    </g>
    <g id="xtick_4">
     <g id="line2d_4">
      <path d="M 90.971605 101.519499 
L 41.969105 52.516999 
" clip-path="url(#pde4bf1e46a)" style="fill: none; stroke: #b0b0b0; stroke-width: 0.5; stroke-linecap: square"/>
     </g>
     <g id="text_4">
      <!-- 135° -->
      <g transform="translate(26.972879 46.931475) scale(0.08 -0.08)">
       <defs>
        <path id="NimbusRomNo9L-Regu-31" d="M 1862 4339 
L 710 3757 
L 710 3667 
C 787 3699 858 3725 883 3738 
C 998 3783 1107 3808 1171 3808 
C 1306 3808 1363 3711 1363 3505 
L 1363 592 
C 1363 379 1312 232 1210 173 
C 1114 116 1024 96 755 96 
L 755 0 
L 2522 0 
L 2522 96 
C 2016 96 1914 160 1914 470 
L 1914 4327 
L 1862 4339 
z
" transform="scale(0.015625)"/>
        <path id="NimbusRomNo9L-Regu-33" d="M 979 2138 
C 1357 2138 1504 2125 1658 2068 
C 2054 1927 2304 1562 2304 1120 
C 2304 583 1939 167 1466 167 
C 1293 167 1165 212 928 365 
C 736 480 627 525 518 525 
C 371 525 275 436 275 301 
C 275 77 550 -64 998 -64 
C 1491 -64 1997 103 2298 365 
C 2598 628 2765 999 2765 1428 
C 2765 1754 2662 2055 2477 2253 
C 2349 2394 2227 2471 1946 2592 
C 2387 2893 2547 3130 2547 3476 
C 2547 3994 2138 4352 1549 4352 
C 1229 4352 947 4244 717 4039 
C 525 3866 429 3699 288 3315 
L 384 3290 
C 646 3757 934 3968 1338 3968 
C 1754 3968 2042 3687 2042 3284 
C 2042 3053 1946 2823 1786 2663 
C 1594 2471 1414 2375 979 2221 
L 979 2138 
z
" transform="scale(0.015625)"/>
       </defs>
       <use xlink:href="#NimbusRomNo9L-Regu-31" transform="scale(0.996264)"/>
       <use xlink:href="#NimbusRomNo9L-Regu-33" transform="translate(49.8132 0) scale(0.996264)"/>
       <use xlink:href="#NimbusRomNo9L-Regu-35" transform="translate(99.626401 0) scale(0.996264)"/>
       <use xlink:href="#NimbusRomNo9L-Regu-b0" transform="translate(149.439601 0) scale(0.996264)"/>
      </g>
     </g>
    </g>
    <g id="xtick_5">
     <g id="line2d_5">
      <path d="M 90.971605 101.519499 
L 21.671605 101.519499 
" clip-path="url(#pde4bf1e46a)" style="fill: none; stroke: #b0b0b0; stroke-width: 0.5; stroke-linecap: square"/>
     </g>
     <g id="text_5">
      <!-- 180° -->
      <g transform="translate(3.6 103.358596) scale(0.08 -0.08)">
       <defs>
        <path id="NimbusRomNo9L-Regu-38" d="M 1856 2400 
C 2490 2740 2714 3008 2714 3444 
C 2714 3968 2253 4352 1613 4352 
C 915 4352 397 3924 397 3341 
C 397 2925 518 2740 1190 2151 
C 499 1626 358 1428 358 992 
C 358 372 864 -64 1587 -64 
C 2355 -64 2848 359 2848 1018 
C 2848 1511 2630 1824 1856 2400 
z
M 1741 1741 
C 2208 1408 2362 1178 2362 820 
C 2362 404 2074 116 1658 116 
C 1171 116 845 487 845 1044 
C 845 1453 986 1722 1357 2023 
L 1741 1741 
z
M 1670 2516 
C 1101 2887 870 3181 870 3540 
C 870 3911 1158 4173 1562 4173 
C 1997 4173 2272 3892 2272 3450 
C 2272 3085 2093 2797 1728 2554 
C 1696 2535 1696 2535 1670 2516 
z
" transform="scale(0.015625)"/>
       </defs>
       <use xlink:href="#NimbusRomNo9L-Regu-31" transform="scale(0.996264)"/>
       <use xlink:href="#NimbusRomNo9L-Regu-38" transform="translate(49.8132 0) scale(0.996264)"/>
       <use xlink:href="#NimbusRomNo9L-Regu-30" transform="translate(99.626401 0) scale(0.996264)"/>
       <use xlink:href="#NimbusRomNo9L-Regu-b0" transform="translate(149.439601 0) scale(0.996264)"/>
      </g>
     </g>
    </g>
    <g id="xtick_6">
     <g id="line2d_6">
      <path d="M 90.971605 101.519499 
L 41.969105 150.521999 
" clip-path="url(#pde4bf1e46a)" style="fill: none; stroke: #b0b0b0; stroke-width: 0.5; stroke-linecap: square"/>
     </g>
     <g id="text_6">
      <!-- 225° -->
      <g transform="translate(26.972879 159.785717) scale(0.08 -0.08)">
       <defs>
        <path id="NimbusRomNo9L-Regu-32" d="M 3040 875 
L 2957 907 
C 2720 544 2637 486 2349 486 
L 819 486 
L 1894 1609 
C 2464 2202 2714 2687 2714 3185 
C 2714 3823 2195 4313 1530 4313 
C 1178 4313 845 4173 608 3918 
C 403 3700 307 3496 198 3043 
L 333 3011 
C 589 3636 819 3840 1261 3840 
C 1798 3840 2163 3476 2163 2940 
C 2163 2443 1869 1850 1331 1282 
L 192 77 
L 192 0 
L 2688 0 
L 3040 875 
z
" transform="scale(0.015625)"/>
       </defs>
       <use xlink:href="#NimbusRomNo9L-Regu-32" transform="scale(0.996264)"/>
       <use xlink:href="#NimbusRomNo9L-Regu-32" transform="translate(49.8132 0) scale(0.996264)"/>
       <use xlink:href="#NimbusRomNo9L-Regu-35" transform="translate(99.626401 0) scale(0.996264)"/>
       <use xlink:href="#NimbusRomNo9L-Regu-b0" transform="translate(149.439601 0) scale(0.996264)"/>
      </g>
     </g>
    </g>
    <g id="xtick_7">
     <g id="line2d_7">
      <path d="M 90.971605 101.519499 
L 90.971605 170.819499 
" clip-path="url(#pde4bf1e46a)" style="fill: none; stroke: #b0b0b0; stroke-width: 0.5; stroke-linecap: square"/>
     </g>
     <g id="text_7">
      <!-- 270° -->
      <g transform="translate(83.4 183.158596) scale(0.08 -0.08)">
       <defs>
        <path id="NimbusRomNo9L-Regu-37" d="M 2874 4250 
L 506 4250 
L 128 3310 
L 237 3258 
C 512 3693 627 3776 979 3776 
L 2368 3776 
L 1101 -32 
L 1517 -32 
L 2874 4148 
L 2874 4250 
z
" transform="scale(0.015625)"/>
       </defs>
       <use xlink:href="#NimbusRomNo9L-Regu-32" transform="scale(0.996264)"/>
       <use xlink:href="#NimbusRomNo9L-Regu-37" transform="translate(49.8132 0) scale(0.996264)"/>
       <use xlink:href="#NimbusRomNo9L-Regu-30" transform="translate(99.626401 0) scale(0.996264)"/>
       <use xlink:href="#NimbusRomNo9L-Regu-b0" transform="translate(149.439601 0) scale(0.996264)"/>
      </g>
     </g>
    </g>
    <g id="xtick_8">
     <g id="line2d_8">
      <path d="M 90.971605 101.519499 
L 139.974105 150.521999 
" clip-path="url(#pde4bf1e46a)" style="fill: none; stroke: #b0b0b0; stroke-width: 0.5; stroke-linecap: square"/>
     </g>
     <g id="text_8">
      <!-- 315° -->
      <g transform="translate(139.827121 159.785717) scale(0.08 -0.08)">
       <use xlink:href="#NimbusRomNo9L-Regu-33" transform="scale(0.996264)"/>
       <use xlink:href="#NimbusRomNo9L-Regu-31" transform="translate(49.8132 0) scale(0.996264)"/>
       <use xlink:href="#NimbusRomNo9L-Regu-35" transform="translate(99.626401 0) scale(0.996264)"/>
       <use xlink:href="#NimbusRomNo9L-Regu-b0" transform="translate(149.439601 0) scale(0.996264)"/>
      </g>
     </g>
    </g>
   </g>
   <g id="matplotlib.axis_2">
    <g id="ytick_1">
     <g id="line2d_9">
      <path d="M 104.49943 101.519499 
C 104.49943 99.743042 104.149507 97.983858 103.469686 96.342625 
C 102.789865 94.701392 101.793367 93.210028 100.537222 91.953882 
C 99.281077 90.697737 97.789713 89.701239 96.14848 89.021418 
C 94.507247 88.341597 92.748063 87.991674 90.971605 87.991674 
C 89.195147 87.991674 87.435963 88.341597 85.79473 89.021418 
C 84.153497 89.701239 82.662133 90.697737 81.405988 91.953882 
C 80.149843 93.210028 79.153345 94.701392 78.473524 96.342625 
C 77.793703 97.983858 77.44378 99.743042 77.44378 101.519499 
C 77.44378 103.295957 77.793703 105.055141 78.473524 106.696374 
C 79.153345 108.337607 80.149843 109.828971 81.405988 111.085116 
C 82.662133 112.341262 84.153497 113.337759 85.79473 114.01758 
C 87.435963 114.697401 89.195147 115.047325 90.971605 115.047325 
C 92.748063 115.047325 94.507247 114.697401 96.14848 114.01758 
C 97.789713 113.337759 99.281077 112.341262 100.537222 111.085116 
C 101.793367 109.828971 102.789865 108.337607 103.469686 106.696374 
C 104.149507 105.055141 104.49943 103.295957 104.49943 101.519499 
" clip-path="url(#pde4bf1e46a)" style="fill: none; stroke: #b0b0b0; stroke-width: 0.5; stroke-linecap: square"/>
     </g>
     <g id="text_9">
      <!-- $\mathdefault{0.2}$ -->
      <g transform="translate(103.469686 104.970911) scale(0.08 -0.08)">
       <defs>
        <path id="CMMI10-3a" d="M 1229 338 
C 1229 522 1075 675 890 675 
C 704 675 550 522 550 338 
C 550 153 704 0 890 0 
C 1075 0 1229 153 1229 338 
z
" transform="scale(0.015625)"/>
       </defs>
       <use xlink:href="#NimbusRomNo9L-Regu-30" transform="scale(0.996264)"/>
       <use xlink:href="#CMMI10-3a" transform="translate(49.8132 0) scale(0.996264)"/>
       <use xlink:href="#NimbusRomNo9L-Regu-32" transform="translate(77.408707 0) scale(0.996264)"/>
      </g>
     </g>
    </g>
    <g id="ytick_2">
     <g id="line2d_10">
      <path d="M 118.027256 101.519499 
C 118.027256 97.966584 117.327409 94.448216 115.967767 91.16575 
C 114.608125 87.883284 112.61513 84.900556 110.102839 82.388265 
C 107.590548 79.875975 104.60782 77.882979 101.325354 76.523337 
C 98.042888 75.163695 94.52452 74.463849 90.971605 74.463849 
C 87.418689 74.463849 83.900322 75.163695 80.617856 76.523337 
C 77.33539 77.882979 74.352661 79.875975 71.840371 82.388265 
C 69.32808 84.900556 67.335085 87.883284 65.975443 91.16575 
C 64.615801 94.448216 63.915954 97.966584 63.915954 101.519499 
C 63.915954 105.072415 64.615801 108.590783 65.975443 111.873249 
C 67.335085 115.155715 69.32808 118.138443 71.840371 120.650734 
C 74.352661 123.163024 77.33539 125.156019 80.617856 126.515661 
C 83.900322 127.875303 87.418689 128.57515 90.971605 128.57515 
C 94.52452 128.57515 98.042888 127.875303 101.325354 126.515661 
C 104.60782 125.156019 107.590548 123.163024 110.102839 120.650734 
C 112.61513 118.138443 114.608125 115.155715 115.967767 111.873249 
C 117.327409 108.590783 118.027256 105.072415 118.027256 101.519499 
" clip-path="url(#pde4bf1e46a)" style="fill: none; stroke: #b0b0b0; stroke-width: 0.5; stroke-linecap: square"/>
     </g>
     <g id="text_10">
      <!-- $\mathdefault{0.4}$ -->
      <g transform="translate(115.967767 110.147786) scale(0.08 -0.08)">
       <use xlink:href="#NimbusRomNo9L-Regu-30" transform="scale(0.996264)"/>
       <use xlink:href="#CMMI10-3a" transform="translate(49.8132 0) scale(0.996264)"/>
       <use xlink:href="#NimbusRomNo9L-Regu-34" transform="translate(77.408707 0) scale(0.996264)"/>
      </g>
     </g>
    </g>
    <g id="ytick_3">
     <g id="line2d_11">
      <path d="M 131.555081 101.519499 
C 131.555081 96.190126 130.505311 90.912574 128.465848 85.988875 
C 126.426385 81.065177 123.436892 76.591084 119.668456 72.822648 
C 115.90002 69.054212 111.425928 66.064719 106.502229 64.025256 
C 101.57853 61.985794 96.300978 60.936023 90.971605 60.936023 
C 85.642232 60.936023 80.36468 61.985794 75.440981 64.025256 
C 70.517282 66.064719 66.04319 69.054212 62.274754 72.822648 
C 58.506318 76.591084 55.516825 81.065177 53.477362 85.988875 
C 51.437899 90.912574 50.388129 96.190126 50.388129 101.519499 
C 50.388129 106.848873 51.437899 112.126424 53.477362 117.050123 
C 55.516825 121.973822 58.506318 126.447915 62.274754 130.216351 
C 66.04319 133.984787 70.517282 136.97428 75.440981 139.013742 
C 80.36468 141.053205 85.642232 142.102976 90.971605 142.102976 
C 96.300978 142.102976 101.57853 141.053205 106.502229 139.013742 
C 111.425928 136.97428 115.90002 133.984787 119.668456 130.216351 
C 123.436892 126.447915 126.426385 121.973822 128.465848 117.050123 
C 130.505311 112.126424 131.555081 106.848873 131.555081 101.519499 
" clip-path="url(#pde4bf1e46a)" style="fill: none; stroke: #b0b0b0; stroke-width: 0.5; stroke-linecap: square"/>
     </g>
     <g id="text_11">
      <!-- $\mathdefault{0.6}$ -->
      <g transform="translate(128.465848 115.32466) scale(0.08 -0.08)">
       <defs>
        <path id="NimbusRomNo9L-Regu-36" d="M 2854 4391 
C 2125 4327 1754 4205 1286 3879 
C 595 3386 218 2656 218 1802 
C 218 1248 390 688 666 370 
C 909 89 1254 -64 1651 -64 
C 2445 -64 2995 541 2995 1421 
C 2995 2236 2528 2752 1792 2752 
C 1510 2752 1376 2707 973 2464 
C 1146 3431 1862 4122 2867 4288 
L 2854 4391 
z
M 1549 2458 
C 2099 2458 2419 2000 2419 1204 
C 2419 504 2170 116 1722 116 
C 1158 116 813 714 813 1700 
C 813 2025 864 2203 992 2299 
C 1126 2400 1325 2458 1549 2458 
z
" transform="scale(0.015625)"/>
       </defs>
       <use xlink:href="#NimbusRomNo9L-Regu-30" transform="scale(0.996264)"/>
       <use xlink:href="#CMMI10-3a" transform="translate(49.8132 0) scale(0.996264)"/>
       <use xlink:href="#NimbusRomNo9L-Regu-36" transform="translate(77.408707 0) scale(0.996264)"/>
      </g>
     </g>
    </g>
    <g id="ytick_4">
     <g id="line2d_12">
      <path d="M 145.082907 101.519499 
C 145.082907 94.413668 143.683213 87.376933 140.963929 80.812001 
C 138.244645 74.247069 134.258655 68.281612 129.234073 63.257031 
C 124.209492 58.23245 118.244035 54.246459 111.679104 51.527175 
C 105.114172 48.807892 98.077436 47.408198 90.971605 47.408198 
C 83.865774 47.408198 76.829038 48.807892 70.264106 51.527175 
C 63.699175 54.246459 57.733718 58.23245 52.709137 63.257031 
C 47.684555 68.281612 43.698565 74.247069 40.979281 80.812001 
C 38.259997 87.376933 36.860303 94.413668 36.860303 101.519499 
C 36.860303 108.62533 38.259997 115.662066 40.979281 122.226998 
C 43.698565 128.79193 47.684555 134.757386 52.709137 139.781968 
C 57.733718 144.806549 63.699175 148.79254 70.264106 151.511823 
C 76.829038 154.231107 83.865774 155.630801 90.971605 155.630801 
C 98.077436 155.630801 105.114172 154.231107 111.679104 151.511823 
C 118.244035 148.79254 124.209492 144.806549 129.234073 139.781968 
C 134.258655 134.757386 138.244645 128.79193 140.963929 122.226998 
C 143.683213 115.662066 145.082907 108.62533 145.082907 101.519499 
" clip-path="url(#pde4bf1e46a)" style="fill: none; stroke: #b0b0b0; stroke-width: 0.5; stroke-linecap: square"/>
     </g>
     <g id="text_12">
      <!-- $\mathdefault{0.8}$ -->
      <g transform="translate(140.963929 120.501535) scale(0.08 -0.08)">
       <use xlink:href="#NimbusRomNo9L-Regu-30" transform="scale(0.996264)"/>
       <use xlink:href="#CMMI10-3a" transform="translate(49.8132 0) scale(0.996264)"/>
       <use xlink:href="#NimbusRomNo9L-Regu-38" transform="translate(77.408707 0) scale(0.996264)"/>
      </g>
     </g>
    </g>
    <g id="ytick_5">
     <g id="line2d_13">
      <path d="M 158.610732 101.519499 
C 158.610732 92.637211 156.861115 83.841291 153.46201 75.635126 
C 150.062905 67.428961 145.080417 59.972141 138.79969 53.691414 
C 132.518964 47.410687 125.062143 42.428199 116.855978 39.029094 
C 108.649813 35.62999 99.853894 33.880372 90.971605 33.880372 
C 82.089316 33.880372 73.293396 35.62999 65.087232 39.029094 
C 56.881067 42.428199 49.424246 47.410687 43.14352 53.691414 
C 36.862793 59.972141 31.880305 67.428961 28.4812 75.635126 
C 25.082095 83.841291 23.332478 92.637211 23.332478 101.519499 
C 23.332478 110.401788 25.082095 119.197708 28.4812 127.403873 
C 31.880305 135.610037 36.862793 143.066858 43.14352 149.347585 
C 49.424246 155.628311 56.881067 160.6108 65.087232 164.009904 
C 73.293396 167.409009 82.089316 169.158626 90.971605 169.158626 
C 99.853894 169.158626 108.649813 167.409009 116.855978 164.009904 
C 125.062143 160.6108 132.518964 155.628311 138.79969 149.347585 
C 145.080417 143.066858 150.062905 135.610037 153.46201 127.403873 
C 156.861115 119.197708 158.610732 110.401788 158.610732 101.519499 
" clip-path="url(#pde4bf1e46a)" style="fill: none; stroke: #b0b0b0; stroke-width: 0.5; stroke-linecap: square"/>
     </g>
     <g id="text_13">
      <!-- $\mathdefault{1.0}$ -->
      <g transform="translate(153.46201 125.67841) scale(0.08 -0.08)">
       <use xlink:href="#NimbusRomNo9L-Regu-31" transform="scale(0.996264)"/>
       <use xlink:href="#CMMI10-3a" transform="translate(49.8132 0) scale(0.996264)"/>
       <use xlink:href="#NimbusRomNo9L-Regu-30" transform="translate(77.408707 0) scale(0.996264)"/>
      </g>
     </g>
    </g>
   </g>
   <g id="line2d_14">
    <path d="M 156.340679 101.519499 
L 156.960136 98.061187 
L 157.265945 94.551683 
L 157.252804 91.021589 
L 156.918851 87.50198 
L 156.265678 84.024005 
L 155.298303 80.618488 
L 154.025102 77.31553 
L 152.457698 74.144127 
L 150.610819 71.131802 
L 148.50211 68.304247 
L 146.15192 65.684984 
L 143.58304 63.295054 
L 140.820426 61.15272 
L 137.890874 59.2732 
L 134.82268 57.668425 
L 131.645263 56.346825 
L 128.388772 55.313146 
L 125.083657 54.568288 
L 121.760226 54.10918 
L 118.448175 53.928684 
L 115.17609 54.015523 
L 111.970928 54.354247 
L 108.857468 54.925234 
L 105.857723 55.704738 
L 102.990334 56.664994 
L 100.269912 57.774404 
L 96.887671 59.4245 
L 93.792019 61.185704 
L 89.655193 63.822404 
L 85.426452 66.508781 
L 83.164901 67.704949 
L 80.907684 68.601896 
L 79.163891 69.078073 
L 76.707078 69.480848 
L 74.043584 69.682523 
L 62.790679 70.22141 
L 59.098453 70.739954 
L 56.243809 71.331087 
L 53.346283 72.123376 
L 50.435502 73.135814 
L 47.54239 74.381914 
L 44.698507 75.869902 
L 41.935462 77.602975 
L 39.284399 79.579582 
L 36.77553 81.793741 
L 34.437714 84.235354 
L 32.298084 86.890548 
L 30.381705 89.742016 
L 28.711271 92.76938 
L 27.306838 95.949554 
L 26.185594 99.257122 
L 25.361664 102.664725 
L 24.845956 106.143455 
L 24.646043 109.663254 
L 24.766085 113.193319 
L 25.206792 116.702503 
L 25.965424 120.159722 
L 27.035835 123.534351 
L 28.408552 126.796614 
L 30.070899 129.917965 
L 32.007153 132.871454 
L 34.198743 135.632076 
L 36.624475 138.177101 
L 39.260803 140.486383 
L 42.082123 142.542646 
L 45.061096 144.331742 
L 48.169011 145.842883 
L 51.376159 147.068849 
L 54.652244 148.006161 
L 57.966812 148.655229 
L 61.289705 149.020469 
L 64.591541 149.110395 
L 67.844217 148.937672 
L 71.021441 148.519141 
L 74.099288 147.875809 
L 77.0568 147.032775 
L 79.876606 146.019109 
L 82.545584 144.867621 
L 85.856231 143.180881 
L 89.594265 140.961354 
L 97.653751 135.896159 
L 99.901778 134.847361 
L 101.60972 134.26025 
L 103.377178 133.837122 
L 105.880711 133.49218 
L 109.321608 133.302638 
L 117.3715 132.981669 
L 120.979212 132.593286 
L 124.741676 131.926208 
L 127.628115 131.203356 
L 130.537865 130.26607 
L 133.440354 129.099028 
L 136.304168 127.692267 
L 139.097652 126.040945 
L 141.789454 124.145064 
L 144.349003 122.009163 
L 146.746945 119.642006 
L 148.95553 117.056245 
L 150.94897 114.268082 
L 152.70375 111.296911 
L 154.198905 108.164956 
L 155.41627 104.896901 
L 156.340679 101.519499 
L 156.340679 101.519499 
" clip-path="url(#pde4bf1e46a)" style="fill: none; stroke: #000000; stroke-linecap: square"/>
   </g>
   <g id="patch_3">
    <path d="M 160.271605 101.519499 
C 160.271605 92.419107 158.479026 83.407204 154.996457 74.999538 
C 151.513887 66.591871 146.409054 58.951949 139.974105 52.516999 
C 133.539156 46.08205 125.899233 40.977217 117.491567 37.494648 
C 109.0839 34.012078 100.071998 32.219499 90.971605 32.219499 
C 81.871212 32.219499 72.85931 34.012078 64.451643 37.494648 
C 56.043977 40.977217 48.404054 46.08205 41.969105 52.516999 
C 35.534156 58.951949 30.429323 66.591871 26.946753 74.999538 
C 23.464184 83.407204 21.671605 92.419107 21.671605 101.519499 
C 21.671605 110.619892 23.464184 119.631795 26.946753 128.039461 
C 30.429323 136.447128 35.534156 144.08705 41.969105 150.521999 
C 48.404054 156.956949 56.043977 162.061782 64.451643 165.544351 
C 72.85931 169.02692 81.871212 170.819499 90.971605 170.819499 
C 100.071998 170.819499 109.0839 169.02692 117.491567 165.544351 
C 125.899233 162.061782 133.539156 156.956949 139.974105 150.521999 
C 146.409054 144.08705 151.513887 136.447128 154.996457 128.039461 
C 158.479026 119.631795 160.271605 110.619892 160.271605 101.519499 
" style="fill: none; stroke: #000000; stroke-width: 0.5; stroke-linejoin: miter; stroke-linecap: square"/>
   </g>
   <g id="text_14">
    <!-- Polarization Pattern Brewster_circular -->
    <g transform="translate(18.524243 10.084396) scale(0.096 -0.096)">
     <defs>
      <path id="NimbusRomNo9L-Regu-50" d="M 1293 1875 
C 1459 1856 1568 1856 1734 1856 
C 2234 1856 2579 1919 2854 2072 
C 3238 2274 3469 2660 3469 3078 
C 3469 3344 3379 3584 3206 3768 
C 2950 4047 2394 4224 1792 4224 
L 102 4224 
L 102 4102 
C 576 4051 640 3987 640 3528 
L 640 766 
C 640 230 589 166 102 122 
L 102 0 
L 1894 0 
L 1894 128 
C 1389 128 1293 218 1293 693 
L 1293 1875 
z
M 1293 3772 
C 1293 3943 1338 3987 1510 3987 
C 2374 3987 2771 3690 2771 3040 
C 2771 2428 2394 2112 1658 2112 
C 1530 2112 1440 2119 1293 2131 
L 1293 3772 
z
" transform="scale(0.015625)"/>
      <path id="NimbusRomNo9L-Regu-6f" d="M 1600 2944 
C 768 2944 186 2330 186 1446 
C 186 582 781 -64 1587 -64 
C 2394 -64 3008 614 3008 1498 
C 3008 2336 2419 2944 1600 2944 
z
M 1517 2765 
C 2054 2765 2432 2150 2432 1274 
C 2432 550 2144 115 1664 115 
C 1414 115 1178 269 1043 525 
C 864 858 762 1306 762 1760 
C 762 2368 1062 2765 1517 2765 
z
" transform="scale(0.015625)"/>
      <path id="NimbusRomNo9L-Regu-6c" d="M 122 4000 
L 160 4000 
C 230 4000 307 4000 358 4000 
C 563 4000 627 3910 627 3610 
L 627 557 
C 627 211 538 128 134 96 
L 134 0 
L 1645 0 
L 1645 109 
C 1242 109 1165 173 1165 528 
L 1165 4371 
L 1139 4384 
C 806 4275 563 4211 122 4103 
L 122 4000 
z
" transform="scale(0.015625)"/>
      <path id="NimbusRomNo9L-Regu-61" d="M 2829 423 
C 2720 333 2643 301 2547 301 
C 2400 301 2355 390 2355 672 
L 2355 1920 
C 2355 2253 2323 2438 2227 2592 
C 2086 2822 1811 2944 1434 2944 
C 832 2944 358 2630 358 2227 
C 358 2080 486 1952 634 1952 
C 787 1952 922 2080 922 2221 
C 922 2246 915 2278 909 2323 
C 896 2381 890 2432 890 2477 
C 890 2650 1094 2790 1350 2790 
C 1664 2790 1837 2605 1837 2259 
L 1837 1869 
C 851 1472 742 1421 467 1178 
C 326 1050 237 832 237 621 
C 237 218 518 -64 909 -64 
C 1190 -64 1453 70 1843 403 
C 1875 70 1990 -64 2253 -64 
C 2470 -64 2605 13 2829 256 
L 2829 423 
z
M 1837 783 
C 1837 584 1805 526 1670 449 
C 1517 359 1338 301 1203 301 
C 979 301 800 520 800 796 
L 800 822 
C 800 1201 1062 1433 1837 1715 
L 1837 783 
z
" transform="scale(0.015625)"/>
      <path id="NimbusRomNo9L-Regu-72" d="M 45 2496 
C 134 2515 192 2522 269 2522 
C 429 2522 486 2419 486 2138 
L 486 538 
C 486 218 442 173 32 96 
L 32 0 
L 1568 0 
L 1568 102 
C 1133 102 1024 199 1024 565 
L 1024 2013 
C 1024 2219 1299 2541 1472 2541 
C 1510 2541 1568 2509 1638 2445 
C 1741 2355 1811 2317 1894 2317 
C 2048 2317 2144 2426 2144 2605 
C 2144 2816 2010 2944 1792 2944 
C 1523 2944 1338 2797 1024 2343 
L 1024 2931 
L 992 2944 
C 653 2803 422 2721 45 2599 
L 45 2496 
z
" transform="scale(0.015625)"/>
      <path id="NimbusRomNo9L-Regu-69" d="M 1120 2929 
L 128 2579 
L 128 2484 
L 179 2490 
C 256 2502 339 2509 397 2509 
C 550 2509 608 2406 608 2125 
L 608 640 
C 608 179 544 109 102 109 
L 102 0 
L 1619 0 
L 1619 96 
C 1197 128 1146 191 1146 650 
L 1146 2910 
L 1120 2929 
z
M 819 4352 
C 646 4352 499 4205 499 4026 
C 499 3847 640 3699 819 3699 
C 1005 3699 1152 3840 1152 4026 
C 1152 4205 1005 4352 819 4352 
z
" transform="scale(0.015625)"/>
      <path id="NimbusRomNo9L-Regu-7a" d="M 2675 864 
L 2560 890 
C 2496 570 2458 467 2374 358 
C 2285 250 2067 192 1741 192 
L 858 192 
L 2579 2784 
L 2579 2880 
L 358 2880 
L 339 2125 
L 454 2125 
C 512 2592 608 2688 992 2688 
L 1875 2688 
L 173 96 
L 173 0 
L 2586 0 
L 2675 864 
z
" transform="scale(0.015625)"/>
      <path id="NimbusRomNo9L-Regu-74" d="M 1632 2880 
L 986 2880 
L 986 3622 
C 986 3686 979 3706 941 3706 
C 896 3648 858 3590 813 3526 
C 570 3174 294 2867 192 2841 
C 122 2794 83 2748 83 2715 
C 83 2695 90 2682 109 2682 
L 448 2682 
L 448 751 
C 448 212 640 -64 1018 -64 
C 1331 -64 1574 90 1786 423 
L 1702 493 
C 1568 333 1459 269 1318 269 
C 1082 269 986 443 986 847 
L 986 2682 
L 1632 2682 
L 1632 2880 
z
" transform="scale(0.015625)"/>
      <path id="NimbusRomNo9L-Regu-6e" d="M 102 2579 
C 141 2598 205 2605 275 2605 
C 454 2605 512 2509 512 2195 
L 512 608 
C 512 243 442 154 115 128 
L 115 32 
L 1472 32 
L 1472 128 
C 1146 154 1050 230 1050 461 
L 1050 2259 
C 1357 2547 1498 2624 1709 2624 
C 2022 2624 2176 2426 2176 2003 
L 2176 666 
C 2176 262 2093 154 1773 128 
L 1773 32 
L 3104 32 
L 3104 128 
C 2790 160 2714 237 2714 550 
L 2714 2016 
C 2714 2618 2432 2976 1958 2976 
C 1664 2976 1466 2867 1030 2458 
L 1030 2963 
L 986 2976 
C 672 2861 454 2790 102 2688 
L 102 2579 
z
" transform="scale(0.015625)"/>
      <path id="NimbusRomNo9L-Regu-65" d="M 2611 1053 
C 2304 564 2029 378 1619 378 
C 1254 378 979 564 794 930 
C 678 1174 634 1386 621 1779 
L 2592 1779 
C 2541 2193 2477 2377 2317 2581 
C 2125 2811 1830 2944 1498 2944 
C 1178 2944 877 2829 634 2611 
C 333 2349 160 1894 160 1370 
C 160 486 621 -64 1357 -64 
C 1965 -64 2445 315 2714 1008 
L 2611 1053 
z
M 634 1984 
C 704 2479 922 2714 1312 2714 
C 1702 2714 1856 2535 1939 1984 
L 634 1984 
z
" transform="scale(0.015625)"/>
      <path id="NimbusRomNo9L-Regu-42" d="M 109 4237 
L 109 4096 
C 646 4096 723 4026 723 3548 
L 723 689 
C 723 212 640 128 109 128 
L 109 0 
L 2246 0 
C 2746 0 3200 136 3437 356 
C 3667 564 3795 855 3795 1165 
C 3795 1451 3680 1710 3482 1897 
C 3290 2072 3117 2150 2701 2253 
C 3034 2335 3168 2398 3322 2531 
C 3482 2671 3578 2903 3578 3163 
C 3578 3871 3008 4237 1901 4237 
L 109 4237 
z
M 1376 2112 
C 1997 2112 2291 2080 2522 1982 
C 2886 1827 3059 1568 3059 1159 
C 3059 809 2925 555 2669 406 
C 2464 290 2202 238 1779 238 
C 1466 238 1376 296 1376 504 
L 1376 2112 
z
M 1376 2368 
L 1376 3812 
C 1376 3944 1421 4001 1517 4001 
L 1798 4001 
C 2534 4001 2925 3699 2925 3137 
C 2925 2646 2586 2368 1984 2368 
L 1376 2368 
z
" transform="scale(0.015625)"/>
      <path id="NimbusRomNo9L-Regu-77" d="M 3654 2912 
L 3654 2816 
C 3872 2771 3936 2726 3936 2618 
C 3936 2521 3898 2367 3827 2194 
L 3251 770 
L 2714 2207 
C 2605 2501 2605 2501 2605 2586 
C 2605 2726 2675 2771 2976 2816 
L 2976 2912 
L 1677 2912 
L 1677 2816 
C 1914 2790 1990 2720 2118 2373 
C 2163 2252 2208 2129 2246 2014 
L 1664 738 
L 1030 2412 
C 1005 2476 992 2540 992 2605 
C 992 2739 1069 2790 1286 2816 
L 1286 2912 
L 134 2912 
L 134 2816 
C 282 2803 333 2739 474 2412 
L 1338 219 
C 1414 26 1466 -64 1504 -64 
C 1536 -64 1587 20 1664 186 
L 2381 1725 
L 2963 212 
C 3053 -25 3078 -64 3117 -64 
C 3162 -64 3194 -6 3296 251 
L 4179 2469 
C 4294 2739 4314 2771 4442 2816 
L 4442 2912 
L 3654 2912 
z
" transform="scale(0.015625)"/>
      <path id="NimbusRomNo9L-Regu-73" d="M 2016 2010 
L 1990 2880 
L 1920 2880 
L 1907 2867 
C 1850 2822 1843 2816 1818 2816 
C 1779 2816 1715 2829 1645 2861 
C 1504 2915 1363 2944 1197 2944 
C 691 2944 326 2616 326 2154 
C 326 1796 531 1539 1075 1231 
L 1446 1020 
C 1670 892 1779 737 1779 539 
C 1779 256 1574 77 1248 77 
C 1030 77 832 159 710 298 
C 576 455 518 600 435 960 
L 333 960 
L 333 -39 
L 416 -39 
C 461 33 486 48 563 48 
C 621 48 710 35 858 -2 
C 1037 -39 1210 -64 1325 -64 
C 1818 -64 2227 308 2227 757 
C 2227 1077 2074 1289 1690 1520 
L 998 1930 
C 819 2033 723 2194 723 2367 
C 723 2624 922 2803 1216 2803 
C 1581 2803 1773 2583 1920 2010 
L 2016 2010 
z
" transform="scale(0.015625)"/>
      <path id="NimbusRomNo9L-Regu-63" d="M 2547 998 
C 2240 550 2010 397 1645 397 
C 1062 397 653 909 653 1645 
C 653 2304 1005 2758 1523 2758 
C 1754 2758 1837 2688 1901 2451 
L 1939 2310 
C 1990 2131 2106 2016 2240 2016 
C 2406 2016 2547 2138 2547 2285 
C 2547 2643 2099 2944 1562 2944 
C 1248 2944 922 2816 659 2586 
C 339 2304 160 1869 160 1363 
C 160 531 666 -64 1376 -64 
C 1664 -64 1920 38 2150 237 
C 2323 390 2445 563 2637 941 
L 2547 998 
z
" transform="scale(0.015625)"/>
      <path id="NimbusRomNo9L-Regu-75" d="M 3066 320 
L 3034 320 
C 2739 320 2669 390 2669 685 
L 2669 2880 
L 1658 2880 
L 1658 2758 
C 2054 2758 2131 2694 2131 2375 
L 2131 875 
C 2131 697 2099 607 2010 537 
C 1837 397 1638 320 1446 320 
C 1197 320 992 537 992 805 
L 992 2880 
L 58 2880 
L 58 2778 
C 365 2778 454 2682 454 2387 
L 454 770 
C 454 263 762 -64 1229 -64 
C 1466 -64 1715 38 1888 211 
L 2163 486 
L 2163 -45 
L 2189 -58 
C 2509 70 2739 141 3066 230 
L 3066 320 
z
" transform="scale(0.015625)"/>
     </defs>
     <use xlink:href="#NimbusRomNo9L-Regu-50" transform="scale(0.996264)"/>
     <use xlink:href="#NimbusRomNo9L-Regu-6f" transform="translate(55.391677 0) scale(0.996264)"/>
     <use xlink:href="#NimbusRomNo9L-Regu-6c" transform="translate(105.204877 0) scale(0.996264)"/>
     <use xlink:href="#NimbusRomNo9L-Regu-61" transform="translate(132.900047 0) scale(0.996264)"/>
     <use xlink:href="#NimbusRomNo9L-Regu-72" transform="translate(177.133616 0) scale(0.996264)"/>
     <use xlink:href="#NimbusRomNo9L-Regu-69" transform="translate(210.308845 0) scale(0.996264)"/>
     <use xlink:href="#NimbusRomNo9L-Regu-7a" transform="translate(238.004015 0) scale(0.996264)"/>
     <use xlink:href="#NimbusRomNo9L-Regu-61" transform="translate(282.237584 0) scale(0.996264)"/>
     <use xlink:href="#NimbusRomNo9L-Regu-74" transform="translate(326.471152 0) scale(0.996264)"/>
     <use xlink:href="#NimbusRomNo9L-Regu-69" transform="translate(354.166322 0) scale(0.996264)"/>
     <use xlink:href="#NimbusRomNo9L-Regu-6f" transform="translate(381.861492 0) scale(0.996264)"/>
     <use xlink:href="#NimbusRomNo9L-Regu-6e" transform="translate(431.674692 0) scale(0.996264)"/>
     <use xlink:href="#NimbusRomNo9L-Regu-50" transform="translate(506.394493 0) scale(0.996264)"/>
     <use xlink:href="#NimbusRomNo9L-Regu-61" transform="translate(560.292777 0) scale(0.996264)"/>
     <use xlink:href="#NimbusRomNo9L-Regu-74" transform="translate(604.526346 0) scale(0.996264)"/>
     <use xlink:href="#NimbusRomNo9L-Regu-74" transform="translate(632.221516 0) scale(0.996264)"/>
     <use xlink:href="#NimbusRomNo9L-Regu-65" transform="translate(659.916685 0) scale(0.996264)"/>
     <use xlink:href="#NimbusRomNo9L-Regu-72" transform="translate(704.150254 0) scale(0.996264)"/>
     <use xlink:href="#NimbusRomNo9L-Regu-6e" transform="translate(737.325484 0) scale(0.996264)"/>
     <use xlink:href="#NimbusRomNo9L-Regu-42" transform="translate(812.045284 0) scale(0.996264)"/>
     <use xlink:href="#NimbusRomNo9L-Regu-72" transform="translate(878.495315 0) scale(0.996264)"/>
     <use xlink:href="#NimbusRomNo9L-Regu-65" transform="translate(911.670545 0) scale(0.996264)"/>
     <use xlink:href="#NimbusRomNo9L-Regu-77" transform="translate(953.413484 0) scale(0.996264)"/>
     <use xlink:href="#NimbusRomNo9L-Regu-73" transform="translate(1025.343469 0) scale(0.996264)"/>
     <use xlink:href="#NimbusRomNo9L-Regu-74" transform="translate(1064.097175 0) scale(0.996264)"/>
     <use xlink:href="#NimbusRomNo9L-Regu-65" transform="translate(1091.792345 0) scale(0.996264)"/>
     <use xlink:href="#NimbusRomNo9L-Regu-72" transform="translate(1136.025914 0) scale(0.996264)"/>
     <use xlink:href="#NimbusRomNo9L-Regu-63" transform="translate(1205.066708 0) scale(0.996264)"/>
     <use xlink:href="#NimbusRomNo9L-Regu-69" transform="translate(1249.300277 0) scale(0.996264)"/>
     <use xlink:href="#NimbusRomNo9L-Regu-72" transform="translate(1276.995447 0) scale(0.996264)"/>
     <use xlink:href="#NimbusRomNo9L-Regu-63" transform="translate(1310.170676 0) scale(0.996264)"/>
     <use xlink:href="#NimbusRomNo9L-Regu-75" transform="translate(1354.404245 0) scale(0.996264)"/>
     <use xlink:href="#NimbusRomNo9L-Regu-6c" transform="translate(1404.217446 0) scale(0.996264)"/>
     <use xlink:href="#NimbusRomNo9L-Regu-61" transform="translate(1431.912615 0) scale(0.996264)"/>
     <use xlink:href="#NimbusRomNo9L-Regu-72" transform="translate(1476.146184 0) scale(0.996264)"/>
     <path d="M 1175.178484 0 
L 1205.066708 0 
L 1205.066708 0.3985 
L 1175.178484 0.3985 
L 1175.178484 0 
z
"/>
    </g>
   </g>
   <g id="legend_1">
    <g id="text_15">
     <!-- H -->
     <g transform="translate(37.824795 43.023155) scale(0.08 -0.08)">
      <defs>
       <path id="NimbusRomNo9L-Regu-48" d="M 1338 2304 
L 1338 3533 
C 1338 3990 1408 4059 1901 4104 
L 1901 4224 
L 122 4224 
L 122 4104 
C 614 4059 685 3989 685 3527 
L 685 749 
C 685 210 621 134 122 134 
L 122 0 
L 1901 0 
L 1901 121 
C 1421 159 1338 242 1338 699 
L 1338 2022 
L 3277 2022 
L 3277 757 
C 3277 211 3213 134 2714 134 
L 2714 0 
L 4493 0 
L 4493 121 
C 4013 159 3930 242 3930 696 
L 3930 3529 
C 3930 3989 4000 4059 4493 4104 
L 4493 4224 
L 2714 4224 
L 2714 4104 
C 3206 4059 3277 3990 3277 3533 
L 3277 2304 
L 1338 2304 
z
" transform="scale(0.015625)"/>
      </defs>
      <use xlink:href="#NimbusRomNo9L-Regu-48" transform="scale(0.996264)"/>
     </g>
    </g>
    <g id="line2d_15">
     <path d="M 27.071605 49.848618 
L 33.071605 49.848618 
L 39.071605 49.848618 
" style="fill: none; stroke: #000000; stroke-linecap: square"/>
    </g>
    <g id="text_16">
     <!-- 0.76 -->
     <g transform="translate(43.871605 51.948618) scale(0.06 -0.06)">
      <defs>
       <path id="NimbusRomNo9L-Regu-2e" d="M 800 646 
C 608 646 448 480 448 281 
C 448 96 608 -64 794 -64 
C 992 -64 1158 96 1158 281 
C 1158 480 992 646 800 646 
z
" transform="scale(0.015625)"/>
      </defs>
      <use xlink:href="#NimbusRomNo9L-Regu-30" transform="scale(0.996264)"/>
      <use xlink:href="#NimbusRomNo9L-Regu-2e" transform="translate(49.8132 0) scale(0.996264)"/>
      <use xlink:href="#NimbusRomNo9L-Regu-37" transform="translate(74.719801 0) scale(0.996264)"/>
      <use xlink:href="#NimbusRomNo9L-Regu-36" transform="translate(124.533001 0) scale(0.996264)"/>
     </g>
    </g>
   </g>
  </g>
 </g>
 <defs>
  <clipPath id="pde4bf1e46a">
   <path d="M 160.271605 101.519499 
C 160.271605 92.419107 158.479026 83.407204 154.996457 74.999538 
C 151.513887 66.591871 146.409054 58.951949 139.974105 52.516999 
C 133.539156 46.08205 125.899233 40.977217 117.491567 37.494648 
C 109.0839 34.012078 100.071998 32.219499 90.971605 32.219499 
C 81.871212 32.219499 72.85931 34.012078 64.451643 37.494648 
C 56.043977 40.977217 48.404054 46.08205 41.969105 52.516999 
C 35.534156 58.951949 30.429323 66.591871 26.946753 74.999538 
C 23.464184 83.407204 21.671605 92.419107 21.671605 101.519499 
C 21.671605 110.619892 23.464184 119.631795 26.946753 128.039461 
C 30.429323 136.447128 35.534156 144.08705 41.969105 150.521999 
C 48.404054 156.956949 56.043977 162.061782 64.451643 165.544351 
C 72.85931 169.02692 81.871212 170.819499 90.971605 170.819499 
C 100.071998 170.819499 109.0839 169.02692 117.491567 165.544351 
C 125.899233 162.061782 133.539156 156.956949 139.974105 150.521999 
C 146.409054 144.08705 151.513887 136.447128 154.996457 128.039461 
C 158.479026 119.631795 160.271605 110.619892 160.271605 101.519499 
M 90.971605 101.519499 
C 90.971605 101.519499 90.971605 101.519499 90.971605 101.519499 
C 90.971605 101.519499 90.971605 101.519499 90.971605 101.519499 
C 90.971605 101.519499 90.971605 101.519499 90.971605 101.519499 
C 90.971605 101.519499 90.971605 101.519499 90.971605 101.519499 
C 90.971605 101.519499 90.971605 101.519499 90.971605 101.519499 
C 90.971605 101.519499 90.971605 101.519499 90.971605 101.519499 
C 90.971605 101.519499 90.971605 101.519499 90.971605 101.519499 
C 90.971605 101.519499 90.971605 101.519499 90.971605 101.519499 
C 90.971605 101.519499 90.971605 101.519499 90.971605 101.519499 
C 90.971605 101.519499 90.971605 101.519499 90.971605 101.519499 
C 90.971605 101.519499 90.971605 101.519499 90.971605 101.519499 
C 90.971605 101.519499 90.971605 101.519499 90.971605 101.519499 
C 90.971605 101.519499 90.971605 101.519499 90.971605 101.519499 
C 90.971605 101.519499 90.971605 101.519499 90.971605 101.519499 
C 90.971605 101.519499 90.971605 101.519499 90.971605 101.519499 
C 90.971605 101.519499 90.971605 101.519499 90.971605 101.519499 
z
"/>
  </clipPath>
 </defs>
</svg>
