<?xml version="1.0" encoding="utf-8" standalone="no"?>
<!DOCTYPE svg PUBLIC "-//W3C//DTD SVG 1.1//EN"
  "http://www.w3.org/Graphics/SVG/1.1/DTD/svg11.dtd">
<svg xmlns:xlink="http://www.w3.org/1999/xlink" width="192.961661pt" height="188.484059pt" viewBox="0 0 192.961661 188.484059" xmlns="http://www.w3.org/2000/svg" version="1.1">
 <metadata>
  <rdf:RDF xmlns:dc="http://purl.org/dc/elements/1.1/" xmlns:cc="http://creativecommons.org/ns#" xmlns:rdf="http://www.w3.org/1999/02/22-rdf-syntax-ns#">
   <cc:Work>
    <dc:type rdf:resource="http://purl.org/dc/dcmitype/StillImage"/>
    <dc:date>2025-03-29T11:26:54.687787</dc:date>
    <dc:format>image/svg+xml</dc:format>
    <dc:creator>
     <cc:Agent>
      <dc:title>Matplotlib v3.9.2, https://matplotlib.org/</dc:title>
     </cc:Agent>
    </dc:creator>
   </cc:Work>
  </rdf:RDF>
 </metadata>
 <defs>
  <style type="text/css">*{stroke-linejoin: round; stroke-linecap: butt}</style>
 </defs>
 <g id="figure_1">
  <g id="patch_1">
   <path d="M 0 188.484059 
L 192.961661 188.484059 
L 192.961661 0 
L 0 0 
L 0 188.484059 
z
" style="fill: none"/>
  </g>
  <g id="axes_1">
   <g id="patch_2">
    <path d="M 165.78083 101.519499 
C 165.78083 92.419107 163.988252 83.407204 160.505682 74.999538 
C 157.023113 66.591871 151.91828 58.951949 145.48333 52.516999 
C 139.048381 46.08205 131.408459 40.977217 123.000792 37.494648 
C 114.593126 34.012078 105.581223 32.219499 96.48083 32.219499 
C 87.380438 32.219499 78.368535 34.012078 69.960869 37.494648 
C 61.553202 40.977217 53.91328 46.08205 47.478331 52.516999 
C 41.043381 58.951949 35.938548 66.591871 32.455979 74.999538 
C 28.973409 83.407204 27.18083 92.419107 27.18083 101.519499 
C 27.18083 110.619892 28.973409 119.631795 32.455979 128.039461 
C 35.938548 136.447128 41.043381 144.08705 47.478331 150.521999 
C 53.91328 156.956949 61.553202 162.061782 69.960869 165.544351 
C 78.368535 169.02692 87.380438 170.819499 96.48083 170.819499 
C 105.581223 170.819499 114.593126 169.02692 123.000792 165.544351 
C 131.408459 162.061782 139.048381 156.956949 145.48333 150.521999 
C 151.91828 144.08705 157.023113 136.447128 160.505682 128.039461 
C 163.988252 119.631795 165.78083 110.619892 165.78083 101.519499 
M 96.48083 101.519499 
C 96.48083 101.519499 96.48083 101.519499 96.48083 101.519499 
C 96.48083 101.519499 96.48083 101.519499 96.48083 101.519499 
C 96.48083 101.519499 96.48083 101.519499 96.48083 101.519499 
C 96.48083 101.519499 96.48083 101.519499 96.48083 101.519499 
C 96.48083 101.519499 96.48083 101.519499 96.48083 101.519499 
C 96.48083 101.519499 96.48083 101.519499 96.48083 101.519499 
C 96.48083 101.519499 96.48083 101.519499 96.48083 101.519499 
C 96.48083 101.519499 96.48083 101.519499 96.48083 101.519499 
C 96.48083 101.519499 96.48083 101.519499 96.48083 101.519499 
C 96.48083 101.519499 96.48083 101.519499 96.48083 101.519499 
C 96.48083 101.519499 96.48083 101.519499 96.48083 101.519499 
C 96.48083 101.519499 96.48083 101.519499 96.48083 101.519499 
C 96.48083 101.519499 96.48083 101.519499 96.48083 101.519499 
C 96.48083 101.519499 96.48083 101.519499 96.48083 101.519499 
C 96.48083 101.519499 96.48083 101.519499 96.48083 101.519499 
C 96.48083 101.519499 96.48083 101.519499 96.48083 101.519499 
L 96.48083 101.519499 
z
" style="fill: none"/>
   </g>
   <g id="matplotlib.axis_1">
    <g id="xtick_1">
     <g id="line2d_1">
      <path d="M 96.48083 101.519499 
L 165.78083 101.519499 
" clip-path="url(#p00e921b95d)" style="fill: none; stroke: #b0b0b0; stroke-width: 0.5; stroke-linecap: square"/>
     </g>
     <g id="text_1">
      <!-- 0° -->
      <g transform="translate(172.694282 103.358596) scale(0.08 -0.08)">
       <defs>
        <path id="NimbusRomNo9L-Regu-30" d="M 1626 4352 
C 1274 4352 1005 4244 768 4020 
C 397 3661 154 2925 154 2176 
C 154 1479 365 730 666 372 
C 902 90 1229 -64 1600 -64 
C 1926 -64 2202 45 2432 269 
C 2803 621 3046 1364 3046 2138 
C 3046 3450 2464 4352 1626 4352 
z
M 1606 4186 
C 2144 4186 2432 3463 2432 2125 
C 2432 788 2150 103 1600 103 
C 1050 103 768 788 768 2119 
C 768 3476 1056 4186 1606 4186 
z
" transform="scale(0.015625)"/>
        <path id="NimbusRomNo9L-Regu-b0" d="M 1280 4313 
C 768 4313 365 3913 365 3404 
C 365 2903 768 2496 1267 2496 
C 1786 2496 2195 2890 2195 3399 
C 2195 3913 1792 4313 1280 4313 
z
M 1280 4096 
C 1638 4096 1946 3779 1946 3405 
C 1946 3024 1645 2714 1274 2714 
C 915 2714 614 3031 614 3405 
C 614 3779 915 4096 1280 4096 
z
" transform="scale(0.015625)"/>
       </defs>
       <use xlink:href="#NimbusRomNo9L-Regu-30" transform="scale(0.996264)"/>
       <use xlink:href="#NimbusRomNo9L-Regu-b0" transform="translate(49.8132 0) scale(0.996264)"/>
      </g>
     </g>
    </g>
    <g id="xtick_2">
     <g id="line2d_2">
      <path d="M 96.48083 101.519499 
L 145.48333 52.516999 
" clip-path="url(#p00e921b95d)" style="fill: none; stroke: #b0b0b0; stroke-width: 0.5; stroke-linecap: square"/>
     </g>
     <g id="text_2">
      <!-- 45° -->
      <g transform="translate(147.328875 46.931475) scale(0.08 -0.08)">
       <defs>
        <path id="NimbusRomNo9L-Regu-34" d="M 3021 1497 
L 2368 1497 
L 2368 4352 
L 2086 4352 
L 77 1497 
L 77 1088 
L 1875 1088 
L 1875 32 
L 2368 32 
L 2368 1088 
L 3021 1088 
L 3021 1497 
z
M 1869 1497 
L 333 1497 
L 1869 3698 
L 1869 1497 
z
" transform="scale(0.015625)"/>
        <path id="NimbusRomNo9L-Regu-35" d="M 1158 3776 
L 2413 3776 
C 2515 3776 2541 3789 2560 3834 
L 2803 4403 
L 2746 4448 
C 2650 4314 2586 4282 2451 4282 
L 1114 4282 
L 416 2759 
C 410 2746 410 2740 410 2727 
C 410 2695 435 2676 486 2676 
C 691 2676 947 2631 1210 2547 
C 1946 2309 2285 1910 2285 1274 
C 2285 656 1894 173 1395 173 
C 1267 173 1158 218 966 360 
C 762 508 614 572 480 572 
C 294 572 205 495 205 334 
C 205 90 506 -64 986 -64 
C 1523 -64 1984 110 2304 438 
C 2598 728 2733 1094 2733 1583 
C 2733 2046 2611 2342 2291 2663 
C 2010 2947 1645 3094 890 3229 
L 1158 3776 
z
" transform="scale(0.015625)"/>
       </defs>
       <use xlink:href="#NimbusRomNo9L-Regu-34" transform="scale(0.996264)"/>
       <use xlink:href="#NimbusRomNo9L-Regu-35" transform="translate(49.8132 0) scale(0.996264)"/>
       <use xlink:href="#NimbusRomNo9L-Regu-b0" transform="translate(99.626401 0) scale(0.996264)"/>
      </g>
     </g>
    </g>
    <g id="xtick_3">
     <g id="line2d_3">
      <path d="M 96.48083 101.519499 
L 96.48083 32.219499 
" clip-path="url(#p00e921b95d)" style="fill: none; stroke: #b0b0b0; stroke-width: 0.5; stroke-linecap: square"/>
     </g>
     <g id="text_3">
      <!-- 90° -->
      <g transform="translate(90.901754 23.558596) scale(0.08 -0.08)">
       <defs>
        <path id="NimbusRomNo9L-Regu-39" d="M 378 -123 
C 1094 -40 1446 82 1882 396 
C 2547 882 2938 1676 2938 2539 
C 2938 3593 2349 4339 1523 4339 
C 762 4339 192 3694 192 2832 
C 192 2053 653 1536 1344 1536 
C 1696 1536 1965 1638 2304 1900 
C 2042 856 1331 172 358 5 
L 378 -123 
z
M 2317 2290 
C 2317 2162 2291 2104 2221 2047 
C 2042 1894 1805 1811 1574 1811 
C 1088 1811 781 2290 781 3050 
C 781 3413 883 3796 1018 3963 
C 1126 4090 1286 4160 1472 4160 
C 2029 4160 2317 3611 2317 2539 
L 2317 2290 
z
" transform="scale(0.015625)"/>
       </defs>
       <use xlink:href="#NimbusRomNo9L-Regu-39" transform="scale(0.996264)"/>
       <use xlink:href="#NimbusRomNo9L-Regu-30" transform="translate(49.8132 0) scale(0.996264)"/>
       <use xlink:href="#NimbusRomNo9L-Regu-b0" transform="translate(99.626401 0) scale(0.996264)"/>
      </g>
     </g>
    </g>
    <g id="xtick_4">
     <g id="line2d_4">
      <path d="M 96.48083 101.519499 
L 47.478331 52.516999 
" clip-path="url(#p00e921b95d)" style="fill: none; stroke: #b0b0b0; stroke-width: 0.5; stroke-linecap: square"/>
     </g>
     <g id="text_4">
      <!-- 135° -->
      <g transform="translate(32.482104 46.931475) scale(0.08 -0.08)">
       <defs>
        <path id="NimbusRomNo9L-Regu-31" d="M 1862 4339 
L 710 3757 
L 710 3667 
C 787 3699 858 3725 883 3738 
C 998 3783 1107 3808 1171 3808 
C 1306 3808 1363 3711 1363 3505 
L 1363 592 
C 1363 379 1312 232 1210 173 
C 1114 116 1024 96 755 96 
L 755 0 
L 2522 0 
L 2522 96 
C 2016 96 1914 160 1914 470 
L 1914 4327 
L 1862 4339 
z
" transform="scale(0.015625)"/>
        <path id="NimbusRomNo9L-Regu-33" d="M 979 2138 
C 1357 2138 1504 2125 1658 2068 
C 2054 1927 2304 1562 2304 1120 
C 2304 583 1939 167 1466 167 
C 1293 167 1165 212 928 365 
C 736 480 627 525 518 525 
C 371 525 275 436 275 301 
C 275 77 550 -64 998 -64 
C 1491 -64 1997 103 2298 365 
C 2598 628 2765 999 2765 1428 
C 2765 1754 2662 2055 2477 2253 
C 2349 2394 2227 2471 1946 2592 
C 2387 2893 2547 3130 2547 3476 
C 2547 3994 2138 4352 1549 4352 
C 1229 4352 947 4244 717 4039 
C 525 3866 429 3699 288 3315 
L 384 3290 
C 646 3757 934 3968 1338 3968 
C 1754 3968 2042 3687 2042 3284 
C 2042 3053 1946 2823 1786 2663 
C 1594 2471 1414 2375 979 2221 
L 979 2138 
z
" transform="scale(0.015625)"/>
       </defs>
       <use xlink:href="#NimbusRomNo9L-Regu-31" transform="scale(0.996264)"/>
       <use xlink:href="#NimbusRomNo9L-Regu-33" transform="translate(49.8132 0) scale(0.996264)"/>
       <use xlink:href="#NimbusRomNo9L-Regu-35" transform="translate(99.626401 0) scale(0.996264)"/>
       <use xlink:href="#NimbusRomNo9L-Regu-b0" transform="translate(149.439601 0) scale(0.996264)"/>
      </g>
     </g>
    </g>
    <g id="xtick_5">
     <g id="line2d_5">
      <path d="M 96.48083 101.519499 
L 27.18083 101.519499 
" clip-path="url(#p00e921b95d)" style="fill: none; stroke: #b0b0b0; stroke-width: 0.5; stroke-linecap: square"/>
     </g>
     <g id="text_5">
      <!-- 180° -->
      <g transform="translate(9.109226 103.358596) scale(0.08 -0.08)">
       <defs>
        <path id="NimbusRomNo9L-Regu-38" d="M 1856 2400 
C 2490 2740 2714 3008 2714 3444 
C 2714 3968 2253 4352 1613 4352 
C 915 4352 397 3924 397 3341 
C 397 2925 518 2740 1190 2151 
C 499 1626 358 1428 358 992 
C 358 372 864 -64 1587 -64 
C 2355 -64 2848 359 2848 1018 
C 2848 1511 2630 1824 1856 2400 
z
M 1741 1741 
C 2208 1408 2362 1178 2362 820 
C 2362 404 2074 116 1658 116 
C 1171 116 845 487 845 1044 
C 845 1453 986 1722 1357 2023 
L 1741 1741 
z
M 1670 2516 
C 1101 2887 870 3181 870 3540 
C 870 3911 1158 4173 1562 4173 
C 1997 4173 2272 3892 2272 3450 
C 2272 3085 2093 2797 1728 2554 
C 1696 2535 1696 2535 1670 2516 
z
" transform="scale(0.015625)"/>
       </defs>
       <use xlink:href="#NimbusRomNo9L-Regu-31" transform="scale(0.996264)"/>
       <use xlink:href="#NimbusRomNo9L-Regu-38" transform="translate(49.8132 0) scale(0.996264)"/>
       <use xlink:href="#NimbusRomNo9L-Regu-30" transform="translate(99.626401 0) scale(0.996264)"/>
       <use xlink:href="#NimbusRomNo9L-Regu-b0" transform="translate(149.439601 0) scale(0.996264)"/>
      </g>
     </g>
    </g>
    <g id="xtick_6">
     <g id="line2d_6">
      <path d="M 96.48083 101.519499 
L 47.478331 150.521999 
" clip-path="url(#p00e921b95d)" style="fill: none; stroke: #b0b0b0; stroke-width: 0.5; stroke-linecap: square"/>
     </g>
     <g id="text_6">
      <!-- 225° -->
      <g transform="translate(32.482104 159.785717) scale(0.08 -0.08)">
       <defs>
        <path id="NimbusRomNo9L-Regu-32" d="M 3040 875 
L 2957 907 
C 2720 544 2637 486 2349 486 
L 819 486 
L 1894 1609 
C 2464 2202 2714 2687 2714 3185 
C 2714 3823 2195 4313 1530 4313 
C 1178 4313 845 4173 608 3918 
C 403 3700 307 3496 198 3043 
L 333 3011 
C 589 3636 819 3840 1261 3840 
C 1798 3840 2163 3476 2163 2940 
C 2163 2443 1869 1850 1331 1282 
L 192 77 
L 192 0 
L 2688 0 
L 3040 875 
z
" transform="scale(0.015625)"/>
       </defs>
       <use xlink:href="#NimbusRomNo9L-Regu-32" transform="scale(0.996264)"/>
       <use xlink:href="#NimbusRomNo9L-Regu-32" transform="translate(49.8132 0) scale(0.996264)"/>
       <use xlink:href="#NimbusRomNo9L-Regu-35" transform="translate(99.626401 0) scale(0.996264)"/>
       <use xlink:href="#NimbusRomNo9L-Regu-b0" transform="translate(149.439601 0) scale(0.996264)"/>
      </g>
     </g>
    </g>
    <g id="xtick_7">
     <g id="line2d_7">
      <path d="M 96.48083 101.519499 
L 96.48083 170.819499 
" clip-path="url(#p00e921b95d)" style="fill: none; stroke: #b0b0b0; stroke-width: 0.5; stroke-linecap: square"/>
     </g>
     <g id="text_7">
      <!-- 270° -->
      <g transform="translate(88.909226 183.158596) scale(0.08 -0.08)">
       <defs>
        <path id="NimbusRomNo9L-Regu-37" d="M 2874 4250 
L 506 4250 
L 128 3310 
L 237 3258 
C 512 3693 627 3776 979 3776 
L 2368 3776 
L 1101 -32 
L 1517 -32 
L 2874 4148 
L 2874 4250 
z
" transform="scale(0.015625)"/>
       </defs>
       <use xlink:href="#NimbusRomNo9L-Regu-32" transform="scale(0.996264)"/>
       <use xlink:href="#NimbusRomNo9L-Regu-37" transform="translate(49.8132 0) scale(0.996264)"/>
       <use xlink:href="#NimbusRomNo9L-Regu-30" transform="translate(99.626401 0) scale(0.996264)"/>
       <use xlink:href="#NimbusRomNo9L-Regu-b0" transform="translate(149.439601 0) scale(0.996264)"/>
      </g>
     </g>
    </g>
    <g id="xtick_8">
     <g id="line2d_8">
      <path d="M 96.48083 101.519499 
L 145.48333 150.521999 
" clip-path="url(#p00e921b95d)" style="fill: none; stroke: #b0b0b0; stroke-width: 0.5; stroke-linecap: square"/>
     </g>
     <g id="text_8">
      <!-- 315° -->
      <g transform="translate(145.336347 159.785717) scale(0.08 -0.08)">
       <use xlink:href="#NimbusRomNo9L-Regu-33" transform="scale(0.996264)"/>
       <use xlink:href="#NimbusRomNo9L-Regu-31" transform="translate(49.8132 0) scale(0.996264)"/>
       <use xlink:href="#NimbusRomNo9L-Regu-35" transform="translate(99.626401 0) scale(0.996264)"/>
       <use xlink:href="#NimbusRomNo9L-Regu-b0" transform="translate(149.439601 0) scale(0.996264)"/>
      </g>
     </g>
    </g>
   </g>
   <g id="matplotlib.axis_2">
    <g id="ytick_1">
     <g id="line2d_9">
      <path d="M 109.748586 101.519499 
C 109.748586 99.777194 109.405389 98.05183 108.738638 96.442149 
C 108.071886 94.832469 107.094546 93.369776 105.86255 92.13778 
C 104.630554 90.905784 103.167861 89.928443 101.558181 89.261692 
C 99.9485 88.59494 98.223136 88.251744 96.48083 88.251744 
C 94.738525 88.251744 93.013161 88.59494 91.40348 89.261692 
C 89.7938 89.928443 88.331107 90.905784 87.099111 92.13778 
C 85.867115 93.369776 84.889775 94.832469 84.223023 96.442149 
C 83.556272 98.05183 83.213075 99.777194 83.213075 101.519499 
C 83.213075 103.261805 83.556272 104.987169 84.223023 106.596849 
C 84.889775 108.20653 85.867115 109.669223 87.099111 110.901219 
C 88.331107 112.133215 89.7938 113.110555 91.40348 113.777307 
C 93.013161 114.444058 94.738525 114.787255 96.48083 114.787255 
C 98.223136 114.787255 99.9485 114.444058 101.558181 113.777307 
C 103.167861 113.110555 104.630554 112.133215 105.86255 110.901219 
C 107.094546 109.669223 108.071886 108.20653 108.738638 106.596849 
C 109.405389 104.987169 109.748586 103.261805 109.748586 101.519499 
" clip-path="url(#p00e921b95d)" style="fill: none; stroke: #b0b0b0; stroke-width: 0.5; stroke-linecap: square"/>
     </g>
     <g id="text_9">
      <!-- $\mathdefault{0.2}$ -->
      <g transform="translate(108.738638 104.871386) scale(0.08 -0.08)">
       <defs>
        <path id="CMMI10-3a" d="M 1229 338 
C 1229 522 1075 675 890 675 
C 704 675 550 522 550 338 
C 550 153 704 0 890 0 
C 1075 0 1229 153 1229 338 
z
" transform="scale(0.015625)"/>
       </defs>
       <use xlink:href="#NimbusRomNo9L-Regu-30" transform="scale(0.996264)"/>
       <use xlink:href="#CMMI10-3a" transform="translate(49.8132 0) scale(0.996264)"/>
       <use xlink:href="#NimbusRomNo9L-Regu-32" transform="translate(77.408707 0) scale(0.996264)"/>
      </g>
     </g>
    </g>
    <g id="ytick_2">
     <g id="line2d_10">
      <path d="M 123.016341 101.519499 
C 123.016341 98.034888 122.329948 94.58416 120.996445 91.364799 
C 119.662942 88.145438 117.708262 85.220052 115.24427 82.75606 
C 112.780277 80.292068 109.854892 78.337388 106.635531 77.003885 
C 103.41617 75.670382 99.965442 74.983989 96.48083 74.983989 
C 92.996219 74.983989 89.545491 75.670382 86.32613 77.003885 
C 83.106769 78.337388 80.181384 80.292068 77.717391 82.75606 
C 75.253399 85.220052 73.298719 88.145438 71.965216 91.364799 
C 70.631713 94.58416 69.94532 98.034888 69.94532 101.519499 
C 69.94532 105.004111 70.631713 108.454838 71.965216 111.6742 
C 73.298719 114.893561 75.253399 117.818946 77.717391 120.282939 
C 80.181384 122.746931 83.106769 124.701611 86.32613 126.035114 
C 89.545491 127.368617 92.996219 128.05501 96.48083 128.05501 
C 99.965442 128.05501 103.41617 127.368617 106.635531 126.035114 
C 109.854892 124.701611 112.780277 122.746931 115.24427 120.282939 
C 117.708262 117.818946 119.662942 114.893561 120.996445 111.6742 
C 122.329948 108.454838 123.016341 105.004111 123.016341 101.519499 
" clip-path="url(#p00e921b95d)" style="fill: none; stroke: #b0b0b0; stroke-width: 0.5; stroke-linecap: square"/>
     </g>
     <g id="text_10">
      <!-- $\mathdefault{0.4}$ -->
      <g transform="translate(120.996445 109.948736) scale(0.08 -0.08)">
       <use xlink:href="#NimbusRomNo9L-Regu-30" transform="scale(0.996264)"/>
       <use xlink:href="#CMMI10-3a" transform="translate(49.8132 0) scale(0.996264)"/>
       <use xlink:href="#NimbusRomNo9L-Regu-34" transform="translate(77.408707 0) scale(0.996264)"/>
      </g>
     </g>
    </g>
    <g id="ytick_3">
     <g id="line2d_11">
      <path d="M 136.284096 101.519499 
C 136.284096 96.292582 135.254507 91.116491 133.254253 86.287449 
C 131.253998 81.458408 128.321978 77.070329 124.625989 73.374341 
C 120.930001 69.678352 116.541922 66.746332 111.712881 64.746077 
C 106.883839 62.745823 101.707747 61.716234 96.48083 61.716234 
C 91.253914 61.716234 86.077822 62.745823 81.24878 64.746077 
C 76.419739 66.746332 72.03166 69.678352 68.335672 73.374341 
C 64.639683 77.070329 61.707663 81.458408 59.707408 86.287449 
C 57.707154 91.116491 56.677565 96.292582 56.677565 101.519499 
C 56.677565 106.746416 57.707154 111.922508 59.707408 116.75155 
C 61.707663 121.580591 64.639683 125.96867 68.335672 129.664658 
C 72.03166 133.360647 76.419739 136.292667 81.24878 138.292922 
C 86.077822 140.293176 91.253914 141.322765 96.48083 141.322765 
C 101.707747 141.322765 106.883839 140.293176 111.712881 138.292922 
C 116.541922 136.292667 120.930001 133.360647 124.625989 129.664658 
C 128.321978 125.96867 131.253998 121.580591 133.254253 116.75155 
C 135.254507 111.922508 136.284096 106.746416 136.284096 101.519499 
" clip-path="url(#p00e921b95d)" style="fill: none; stroke: #b0b0b0; stroke-width: 0.5; stroke-linecap: square"/>
     </g>
     <g id="text_11">
      <!-- $\mathdefault{0.6}$ -->
      <g transform="translate(133.254253 115.026087) scale(0.08 -0.08)">
       <defs>
        <path id="NimbusRomNo9L-Regu-36" d="M 2854 4391 
C 2125 4327 1754 4205 1286 3879 
C 595 3386 218 2656 218 1802 
C 218 1248 390 688 666 370 
C 909 89 1254 -64 1651 -64 
C 2445 -64 2995 541 2995 1421 
C 2995 2236 2528 2752 1792 2752 
C 1510 2752 1376 2707 973 2464 
C 1146 3431 1862 4122 2867 4288 
L 2854 4391 
z
M 1549 2458 
C 2099 2458 2419 2000 2419 1204 
C 2419 504 2170 116 1722 116 
C 1158 116 813 714 813 1700 
C 813 2025 864 2203 992 2299 
C 1126 2400 1325 2458 1549 2458 
z
" transform="scale(0.015625)"/>
       </defs>
       <use xlink:href="#NimbusRomNo9L-Regu-30" transform="scale(0.996264)"/>
       <use xlink:href="#CMMI10-3a" transform="translate(49.8132 0) scale(0.996264)"/>
       <use xlink:href="#NimbusRomNo9L-Regu-36" transform="translate(77.408707 0) scale(0.996264)"/>
      </g>
     </g>
    </g>
    <g id="ytick_4">
     <g id="line2d_12">
      <path d="M 149.551851 101.519499 
C 149.551851 94.550277 148.179066 87.648821 145.51206 81.210099 
C 142.845054 74.771377 138.935694 68.920605 134.007709 63.992621 
C 129.079724 59.064636 123.228953 55.155276 116.790231 52.48827 
C 110.351509 49.821264 103.450053 48.448479 96.48083 48.448479 
C 89.511608 48.448479 82.610152 49.821264 76.17143 52.48827 
C 69.732708 55.155276 63.881937 59.064636 58.953952 63.992621 
C 54.025967 68.920605 50.116607 74.771377 47.449601 81.210099 
C 44.782595 87.648821 43.40981 94.550277 43.40981 101.519499 
C 43.40981 108.488722 44.782595 115.390178 47.449601 121.8289 
C 50.116607 128.267622 54.025967 134.118393 58.953952 139.046378 
C 63.881937 143.974362 69.732708 147.883723 76.17143 150.550729 
C 82.610152 153.217735 89.511608 154.59052 96.48083 154.59052 
C 103.450053 154.59052 110.351509 153.217735 116.790231 150.550729 
C 123.228953 147.883723 129.079724 143.974362 134.007709 139.046378 
C 138.935694 134.118393 142.845054 128.267622 145.51206 121.8289 
C 148.179066 115.390178 149.551851 108.488722 149.551851 101.519499 
" clip-path="url(#p00e921b95d)" style="fill: none; stroke: #b0b0b0; stroke-width: 0.5; stroke-linecap: square"/>
     </g>
     <g id="text_12">
      <!-- $\mathdefault{0.8}$ -->
      <g transform="translate(145.51206 120.103437) scale(0.08 -0.08)">
       <use xlink:href="#NimbusRomNo9L-Regu-30" transform="scale(0.996264)"/>
       <use xlink:href="#CMMI10-3a" transform="translate(49.8132 0) scale(0.996264)"/>
       <use xlink:href="#NimbusRomNo9L-Regu-38" transform="translate(77.408707 0) scale(0.996264)"/>
      </g>
     </g>
    </g>
    <g id="ytick_5">
     <g id="line2d_13">
      <path d="M 162.819606 101.519499 
C 162.819606 92.807971 161.103625 84.181152 157.769868 76.132749 
C 154.43611 68.084346 149.549409 60.770882 143.389429 54.610901 
C 137.229448 48.450921 129.915983 43.56422 121.867581 40.230462 
C 113.819178 36.896705 105.192359 35.180724 96.48083 35.180724 
C 87.769302 35.180724 79.142483 36.896705 71.09408 40.230462 
C 63.045678 43.56422 55.732213 48.450921 49.572232 54.610901 
C 43.412252 60.770882 38.525551 68.084346 35.191793 76.132749 
C 31.858036 84.181152 30.142055 92.807971 30.142055 101.519499 
C 30.142055 110.231028 31.858036 118.857847 35.191793 126.90625 
C 38.525551 134.954652 43.412252 142.268117 49.572232 148.428098 
C 55.732213 154.588078 63.045678 159.474779 71.09408 162.808536 
C 79.142483 166.142294 87.769302 167.858275 96.48083 167.858275 
C 105.192359 167.858275 113.819178 166.142294 121.867581 162.808536 
C 129.915983 159.474779 137.229448 154.588078 143.389429 148.428098 
C 149.549409 142.268117 154.43611 134.954652 157.769868 126.90625 
C 161.103625 118.857847 162.819606 110.231028 162.819606 101.519499 
" clip-path="url(#p00e921b95d)" style="fill: none; stroke: #b0b0b0; stroke-width: 0.5; stroke-linecap: square"/>
     </g>
     <g id="text_13">
      <!-- $\mathdefault{1.0}$ -->
      <g transform="translate(157.769868 125.180787) scale(0.08 -0.08)">
       <use xlink:href="#NimbusRomNo9L-Regu-31" transform="scale(0.996264)"/>
       <use xlink:href="#CMMI10-3a" transform="translate(49.8132 0) scale(0.996264)"/>
       <use xlink:href="#NimbusRomNo9L-Regu-30" transform="translate(77.408707 0) scale(0.996264)"/>
      </g>
     </g>
    </g>
   </g>
   <g id="line2d_14">
    <path d="M 104.630307 101.519499 
L 103.58537 101.147166 
L 103.579737 101.023095 
L 104.096765 100.719032 
L 109.15046 98.594485 
L 111.814468 97.12265 
L 114.456326 95.33004 
L 116.980373 93.237147 
L 119.323727 90.867682 
L 120.762473 89.147385 
L 122.089435 87.324418 
L 123.295255 85.407767 
L 124.37186 83.406853 
L 125.312295 81.331491 
L 126.110624 79.191848 
L 126.761871 76.998396 
L 127.261973 74.76186 
L 127.607758 72.49317 
L 127.796923 70.203407 
L 127.828023 67.903751 
L 127.700456 65.605428 
L 127.414454 63.319655 
L 126.97107 61.057585 
L 126.372163 58.830253 
L 125.620382 56.648525 
L 124.719151 54.523042 
L 123.672643 52.46417 
L 122.48576 50.481952 
L 121.164101 48.586054 
L 119.713941 46.785722 
L 118.142188 45.089735 
L 116.456355 43.506363 
L 114.66452 42.04333 
L 112.775285 40.707769 
L 110.79773 39.506194 
L 108.741375 38.444466 
L 106.616126 37.527764 
L 104.432228 36.76056 
L 102.200218 36.146599 
L 99.930867 35.688877 
L 97.635132 35.38963 
L 95.324098 35.250323 
L 93.008927 35.271639 
L 90.700803 35.45348 
L 88.410873 35.794968 
L 86.150196 36.294443 
L 83.92969 36.949479 
L 81.760072 37.75689 
L 79.651813 38.71275 
L 77.615079 39.812407 
L 75.659688 41.050512 
L 73.795057 42.421039 
L 72.030155 43.917318 
L 70.373462 45.532068 
L 68.832925 47.25743 
L 67.415916 49.085006 
L 66.129199 51.005903 
L 64.978894 53.010771 
L 63.970443 55.089854 
L 63.108586 57.233035 
L 62.397333 59.429886 
L 61.839943 61.669717 
L 61.438902 63.941632 
L 61.195912 66.234581 
L 61.111873 68.537413 
L 61.186873 70.83893 
L 61.420184 73.127948 
L 61.810251 75.393344 
L 62.354689 77.624118 
L 63.050277 79.809444 
L 63.892952 81.938727 
L 64.877802 84.001655 
L 65.999046 85.988255 
L 67.250012 87.888945 
L 68.623086 89.694588 
L 70.109645 91.39655 
L 71.699932 92.986752 
L 73.382855 94.45774 
L 76.05246 96.426135 
L 78.847968 98.092018 
L 81.695609 99.441572 
L 84.480146 100.469576 
L 87.709809 101.366401 
L 89.189019 101.774135 
L 89.381924 102.015903 
L 88.864895 102.319966 
L 83.811201 104.444514 
L 81.147193 105.916349 
L 78.505335 107.708959 
L 75.981288 109.801852 
L 73.637934 112.171317 
L 72.199188 113.891614 
L 70.872226 115.71458 
L 69.666405 117.631231 
L 68.589801 119.632146 
L 67.649366 121.707508 
L 66.851037 123.84715 
L 66.19979 126.040603 
L 65.699688 128.277139 
L 65.353903 130.545829 
L 65.164738 132.835592 
L 65.133638 135.135248 
L 65.261205 137.43357 
L 65.547207 139.719343 
L 65.990591 141.981414 
L 66.589498 144.208746 
L 67.341279 146.390474 
L 68.24251 148.515957 
L 69.289018 150.574828 
L 70.475901 152.557046 
L 71.79756 154.452945 
L 73.24772 156.253277 
L 74.819473 157.949264 
L 76.505306 159.532635 
L 78.297141 160.995669 
L 80.186376 162.33123 
L 82.163931 163.532805 
L 84.220286 164.594533 
L 86.345535 165.511235 
L 88.529433 166.278438 
L 90.761443 166.8924 
L 93.030794 167.350122 
L 95.326529 167.649369 
L 97.637563 167.788676 
L 99.952734 167.76736 
L 102.260858 167.585518 
L 104.550788 167.244031 
L 106.811465 166.744556 
L 109.031971 166.08952 
L 111.201589 165.282108 
L 113.309848 164.326249 
L 115.346582 163.226591 
L 117.301973 161.988487 
L 119.166604 160.61796 
L 120.931506 159.121681 
L 122.588199 157.506931 
L 124.128736 155.781569 
L 125.545745 153.953993 
L 126.832462 152.033096 
L 127.982767 150.028228 
L 128.991218 147.949144 
L 129.853075 145.805963 
L 130.564328 143.609113 
L 131.121718 141.369282 
L 131.522759 139.097367 
L 131.765749 136.804418 
L 131.849788 134.501586 
L 131.774788 132.200069 
L 131.541477 129.911051 
L 131.15141 127.645655 
L 130.606972 125.414881 
L 129.911384 123.229555 
L 129.068709 121.100272 
L 128.083859 119.037344 
L 126.962615 117.050744 
L 125.711649 115.150054 
L 124.338575 113.34441 
L 122.852016 111.642449 
L 121.261729 110.052247 
L 119.578806 108.581259 
L 116.909201 106.612864 
L 114.113693 104.946981 
L 111.266052 103.597427 
L 108.481515 102.569423 
L 105.251852 101.672598 
L 104.630307 101.519499 
L 104.630307 101.519499 
" clip-path="url(#p00e921b95d)" style="fill: none; stroke: #000000; stroke-linecap: square"/>
   </g>
   <g id="line2d_15">
    <path d="M 115.894369 101.519499 
L 118.408745 100.370306 
L 120.987144 98.943782 
L 123.541228 97.233554 
L 126.002495 95.244476 
L 128.316085 92.989269 
L 130.436937 90.486492 
L 132.327496 87.759254 
L 133.956372 84.834313 
L 134.88386 82.78909 
L 135.676907 80.678576 
L 136.329969 78.512589 
L 136.838409 76.301285 
L 137.198481 74.055097 
L 137.407311 71.784671 
L 137.46289 69.500805 
L 137.36406 67.214396 
L 137.110504 64.936377 
L 136.702732 62.67766 
L 136.142071 60.449082 
L 135.430645 58.261348 
L 134.571358 56.124977 
L 133.567876 54.050246 
L 132.4246 52.047144 
L 131.146643 50.125319 
L 129.739796 48.294028 
L 128.210503 46.562094 
L 126.565821 44.937861 
L 124.813386 43.429152 
L 122.961371 42.043233 
L 121.018446 40.786771 
L 118.993733 39.665809 
L 116.89676 38.68573 
L 114.737412 37.851232 
L 112.525884 37.166307 
L 110.272623 36.634217 
L 107.988285 36.257482 
L 105.683674 36.037866 
L 103.369692 35.976364 
L 101.057281 36.073203 
L 98.757373 36.327839 
L 96.48083 36.738955 
L 94.238392 37.304473 
L 92.040622 38.021559 
L 89.897852 38.88664 
L 87.820131 39.895419 
L 85.817173 41.042894 
L 83.898308 42.323385 
L 82.07243 43.730561 
L 80.347952 45.257466 
L 78.73276 46.896556 
L 77.23417 48.639733 
L 75.858882 50.478387 
L 74.612947 52.403429 
L 73.50172 54.405341 
L 72.529829 56.474218 
L 71.701138 58.599813 
L 71.018709 60.771588 
L 70.484771 62.978756 
L 70.10068 65.210338 
L 69.866885 67.455203 
L 69.782882 69.702124 
L 69.934165 73.051686 
L 70.40924 76.342457 
L 71.192518 79.536704 
L 72.26151 82.597292 
L 73.585379 85.487931 
L 75.122561 88.173372 
L 76.816842 90.619573 
L 78.590938 92.794016 
L 80.887441 95.219361 
L 83.355003 97.755729 
L 83.658702 98.322584 
L 83.611925 98.784129 
L 83.200449 99.17781 
L 81.954552 99.735897 
L 76.242806 101.872755 
L 73.695705 103.112791 
L 71.116734 104.633819 
L 68.586753 106.437978 
L 66.169161 108.5175 
L 63.915217 110.857539 
L 61.867282 113.4379 
L 60.060741 116.234171 
L 58.525122 119.218537 
L 57.664104 121.297609 
L 56.940414 123.43711 
L 56.359139 125.627044 
L 55.92447 127.857108 
L 55.639714 130.116757 
L 55.507312 132.39526 
L 55.528845 134.681763 
L 55.705051 136.965344 
L 56.03583 139.235073 
L 56.520262 141.480068 
L 57.156621 143.689551 
L 57.942389 145.852905 
L 58.874278 147.959724 
L 59.948252 149.999869 
L 61.159551 151.963515 
L 62.502718 153.841204 
L 63.971633 155.623891 
L 65.559539 157.302985 
L 67.259087 158.8704 
L 69.062366 160.318586 
L 70.960949 161.640572 
L 72.945935 162.829999 
L 75.007992 163.88115 
L 77.137408 164.788982 
L 79.324138 165.549147 
L 81.557853 166.158017 
L 83.827995 166.612696 
L 86.123827 166.911045 
L 88.43449 167.051681 
L 90.749055 167.033992 
L 93.056578 166.858138 
L 95.346154 166.52505 
L 97.606978 166.036426 
L 99.828389 165.394723 
L 101.999934 164.603147 
L 104.111416 163.665635 
L 106.152947 162.58684 
L 108.114999 161.372106 
L 109.988453 160.027441 
L 111.764651 158.559494 
L 113.435437 156.975518 
L 114.993205 155.283339 
L 116.430942 153.491316 
L 117.742267 151.608304 
L 118.921473 149.643612 
L 119.963563 147.606957 
L 120.864288 145.508421 
L 121.620179 143.358402 
L 122.228588 141.167569 
L 122.687716 138.946811 
L 122.996657 136.707189 
L 123.155431 134.459888 
L 123.114491 131.099176 
L 122.745925 127.784594 
L 122.063247 124.554011 
L 121.086517 121.444792 
L 119.843581 118.493531 
L 118.372084 115.735846 
L 116.722789 113.2062 
L 114.965046 110.937677 
L 112.625045 108.372312 
L 109.606658 105.28327 
L 109.302959 104.716415 
L 109.349736 104.25487 
L 109.761211 103.861189 
L 111.007109 103.303102 
L 115.894369 101.519499 
L 115.894369 101.519499 
" clip-path="url(#p00e921b95d)" style="fill: none; stroke-dasharray: 3.7,1.6; stroke-dashoffset: 0; stroke: #ff0000"/>
   </g>
   <g id="line2d_16">
    <path d="M 140.992184 101.519499 
L 143.120424 99.075222 
L 145.041444 96.415573 
L 146.726003 93.561446 
L 148.148587 90.537179 
L 149.287463 87.370005 
L 150.124741 84.089536 
L 150.646434 80.727272 
L 150.842497 77.316126 
L 150.789135 75.03157 
L 150.587439 72.750505 
L 150.237364 70.48315 
L 149.739636 68.239704 
L 149.095739 66.030296 
L 148.307908 63.864924 
L 147.379109 61.753406 
L 146.313021 59.705327 
L 145.114014 57.729984 
L 143.787124 55.836343 
L 142.338022 54.032988 
L 140.772987 52.328076 
L 139.098871 50.729296 
L 137.323059 49.243831 
L 135.453434 47.878313 
L 133.498332 46.638796 
L 131.466503 45.530719 
L 129.367059 44.558881 
L 127.209429 43.727411 
L 125.003311 43.039748 
L 122.758619 42.498619 
L 120.485431 42.106029 
L 118.193933 41.86324 
L 115.89437 41.770768 
L 113.596986 41.828373 
L 111.311967 42.035061 
L 109.049389 42.389079 
L 105.71921 43.19067 
L 102.494173 44.306363 
L 99.405112 45.720891 
L 96.48083 47.415407 
L 93.747667 49.367635 
L 91.229037 51.552022 
L 88.944966 53.939923 
L 86.911595 56.499786 
L 85.140643 59.197343 
L 83.638802 61.995799 
L 82.407031 64.855999 
L 81.439716 67.736603 
L 80.723626 70.594244 
L 80.236651 73.383756 
L 79.885881 76.916475 
L 79.763831 80.875724 
L 79.657936 84.696605 
L 79.422103 86.159753 
L 79.137557 86.966765 
L 78.725562 87.647563 
L 78.169992 88.215897 
L 77.461215 88.690607 
L 76.106484 89.277357 
L 73.788648 89.957255 
L 68.633801 91.384009 
L 65.295035 92.577117 
L 62.708232 93.722481 
L 60.109937 95.10633 
L 57.549422 96.739323 
L 55.072045 98.623915 
L 52.719355 100.75564 
L 50.529176 103.124167 
L 48.535651 105.714159 
L 46.769252 108.506006 
L 45.25674 111.476454 
L 44.021116 114.599175 
L 43.081558 117.845295 
L 42.453358 121.183891 
L 42.14788 124.582469 
L 42.172526 128.007429 
L 42.374222 130.288493 
L 42.724297 132.555849 
L 43.222025 134.799294 
L 43.865922 137.008703 
L 44.653753 139.174075 
L 45.582552 141.285593 
L 46.64864 143.333672 
L 47.847647 145.309015 
L 49.174537 147.202656 
L 50.623639 149.006011 
L 52.188674 150.710923 
L 53.86279 152.309702 
L 55.638602 153.795168 
L 57.508227 155.160686 
L 59.463329 156.400203 
L 61.495158 157.508279 
L 63.594602 158.480117 
L 65.752232 159.311588 
L 67.95835 159.999251 
L 70.203042 160.540379 
L 72.47623 160.93297 
L 74.767728 161.175759 
L 77.067291 161.268231 
L 79.364675 161.210626 
L 81.649694 161.003938 
L 83.912272 160.64992 
L 87.242451 159.848329 
L 90.467488 158.732635 
L 93.556549 157.318108 
L 96.48083 155.623591 
L 99.213994 153.671364 
L 101.732624 151.486976 
L 104.016695 149.099076 
L 106.050066 146.539213 
L 107.821018 143.841656 
L 109.322859 141.0432 
L 110.55463 138.182999 
L 111.521945 135.302396 
L 112.238035 132.444755 
L 112.72501 129.655243 
L 113.07578 126.122524 
L 113.19783 122.163274 
L 113.303725 118.342394 
L 113.539557 116.879246 
L 113.824104 116.072234 
L 114.236099 115.391436 
L 114.791669 114.823102 
L 115.500446 114.348392 
L 116.855177 113.761642 
L 119.173013 113.081744 
L 124.32786 111.654989 
L 127.666626 110.461882 
L 130.253429 109.316518 
L 132.851724 107.932669 
L 135.412239 106.299675 
L 137.889616 104.415084 
L 140.242306 102.283359 
L 140.992184 101.519499 
L 140.992184 101.519499 
" clip-path="url(#p00e921b95d)" style="fill: none; stroke-dasharray: 1,1.65; stroke-dashoffset: 0; stroke: #0000ff"/>
   </g>
   <g id="patch_3">
    <path d="M 165.78083 101.519499 
C 165.78083 92.419107 163.988252 83.407204 160.505682 74.999538 
C 157.023113 66.591871 151.91828 58.951949 145.48333 52.516999 
C 139.048381 46.08205 131.408459 40.977217 123.000792 37.494648 
C 114.593126 34.012078 105.581223 32.219499 96.48083 32.219499 
C 87.380438 32.219499 78.368535 34.012078 69.960869 37.494648 
C 61.553202 40.977217 53.91328 46.08205 47.478331 52.516999 
C 41.043381 58.951949 35.938548 66.591871 32.455979 74.999538 
C 28.973409 83.407204 27.18083 92.419107 27.18083 101.519499 
C 27.18083 110.619892 28.973409 119.631795 32.455979 128.039461 
C 35.938548 136.447128 41.043381 144.08705 47.478331 150.521999 
C 53.91328 156.956949 61.553202 162.061782 69.960869 165.544351 
C 78.368535 169.02692 87.380438 170.819499 96.48083 170.819499 
C 105.581223 170.819499 114.593126 169.02692 123.000792 165.544351 
C 131.408459 162.061782 139.048381 156.956949 145.48333 150.521999 
C 151.91828 144.08705 157.023113 136.447128 160.505682 128.039461 
C 163.988252 119.631795 165.78083 110.619892 165.78083 101.519499 
" style="fill: none; stroke: #000000; stroke-width: 0.5; stroke-linejoin: miter; stroke-linecap: square"/>
   </g>
   <g id="text_14">
    <!-- Polarization Pattern dielectric_reflection_circular -->
    <g transform="translate(3.6 10.084396) scale(0.096 -0.096)">
     <defs>
      <path id="NimbusRomNo9L-Regu-50" d="M 1293 1875 
C 1459 1856 1568 1856 1734 1856 
C 2234 1856 2579 1919 2854 2072 
C 3238 2274 3469 2660 3469 3078 
C 3469 3344 3379 3584 3206 3768 
C 2950 4047 2394 4224 1792 4224 
L 102 4224 
L 102 4102 
C 576 4051 640 3987 640 3528 
L 640 766 
C 640 230 589 166 102 122 
L 102 0 
L 1894 0 
L 1894 128 
C 1389 128 1293 218 1293 693 
L 1293 1875 
z
M 1293 3772 
C 1293 3943 1338 3987 1510 3987 
C 2374 3987 2771 3690 2771 3040 
C 2771 2428 2394 2112 1658 2112 
C 1530 2112 1440 2119 1293 2131 
L 1293 3772 
z
" transform="scale(0.015625)"/>
      <path id="NimbusRomNo9L-Regu-6f" d="M 1600 2944 
C 768 2944 186 2330 186 1446 
C 186 582 781 -64 1587 -64 
C 2394 -64 3008 614 3008 1498 
C 3008 2336 2419 2944 1600 2944 
z
M 1517 2765 
C 2054 2765 2432 2150 2432 1274 
C 2432 550 2144 115 1664 115 
C 1414 115 1178 269 1043 525 
C 864 858 762 1306 762 1760 
C 762 2368 1062 2765 1517 2765 
z
" transform="scale(0.015625)"/>
      <path id="NimbusRomNo9L-Regu-6c" d="M 122 4000 
L 160 4000 
C 230 4000 307 4000 358 4000 
C 563 4000 627 3910 627 3610 
L 627 557 
C 627 211 538 128 134 96 
L 134 0 
L 1645 0 
L 1645 109 
C 1242 109 1165 173 1165 528 
L 1165 4371 
L 1139 4384 
C 806 4275 563 4211 122 4103 
L 122 4000 
z
" transform="scale(0.015625)"/>
      <path id="NimbusRomNo9L-Regu-61" d="M 2829 423 
C 2720 333 2643 301 2547 301 
C 2400 301 2355 390 2355 672 
L 2355 1920 
C 2355 2253 2323 2438 2227 2592 
C 2086 2822 1811 2944 1434 2944 
C 832 2944 358 2630 358 2227 
C 358 2080 486 1952 634 1952 
C 787 1952 922 2080 922 2221 
C 922 2246 915 2278 909 2323 
C 896 2381 890 2432 890 2477 
C 890 2650 1094 2790 1350 2790 
C 1664 2790 1837 2605 1837 2259 
L 1837 1869 
C 851 1472 742 1421 467 1178 
C 326 1050 237 832 237 621 
C 237 218 518 -64 909 -64 
C 1190 -64 1453 70 1843 403 
C 1875 70 1990 -64 2253 -64 
C 2470 -64 2605 13 2829 256 
L 2829 423 
z
M 1837 783 
C 1837 584 1805 526 1670 449 
C 1517 359 1338 301 1203 301 
C 979 301 800 520 800 796 
L 800 822 
C 800 1201 1062 1433 1837 1715 
L 1837 783 
z
" transform="scale(0.015625)"/>
      <path id="NimbusRomNo9L-Regu-72" d="M 45 2496 
C 134 2515 192 2522 269 2522 
C 429 2522 486 2419 486 2138 
L 486 538 
C 486 218 442 173 32 96 
L 32 0 
L 1568 0 
L 1568 102 
C 1133 102 1024 199 1024 565 
L 1024 2013 
C 1024 2219 1299 2541 1472 2541 
C 1510 2541 1568 2509 1638 2445 
C 1741 2355 1811 2317 1894 2317 
C 2048 2317 2144 2426 2144 2605 
C 2144 2816 2010 2944 1792 2944 
C 1523 2944 1338 2797 1024 2343 
L 1024 2931 
L 992 2944 
C 653 2803 422 2721 45 2599 
L 45 2496 
z
" transform="scale(0.015625)"/>
      <path id="NimbusRomNo9L-Regu-69" d="M 1120 2929 
L 128 2579 
L 128 2484 
L 179 2490 
C 256 2502 339 2509 397 2509 
C 550 2509 608 2406 608 2125 
L 608 640 
C 608 179 544 109 102 109 
L 102 0 
L 1619 0 
L 1619 96 
C 1197 128 1146 191 1146 650 
L 1146 2910 
L 1120 2929 
z
M 819 4352 
C 646 4352 499 4205 499 4026 
C 499 3847 640 3699 819 3699 
C 1005 3699 1152 3840 1152 4026 
C 1152 4205 1005 4352 819 4352 
z
" transform="scale(0.015625)"/>
      <path id="NimbusRomNo9L-Regu-7a" d="M 2675 864 
L 2560 890 
C 2496 570 2458 467 2374 358 
C 2285 250 2067 192 1741 192 
L 858 192 
L 2579 2784 
L 2579 2880 
L 358 2880 
L 339 2125 
L 454 2125 
C 512 2592 608 2688 992 2688 
L 1875 2688 
L 173 96 
L 173 0 
L 2586 0 
L 2675 864 
z
" transform="scale(0.015625)"/>
      <path id="NimbusRomNo9L-Regu-74" d="M 1632 2880 
L 986 2880 
L 986 3622 
C 986 3686 979 3706 941 3706 
C 896 3648 858 3590 813 3526 
C 570 3174 294 2867 192 2841 
C 122 2794 83 2748 83 2715 
C 83 2695 90 2682 109 2682 
L 448 2682 
L 448 751 
C 448 212 640 -64 1018 -64 
C 1331 -64 1574 90 1786 423 
L 1702 493 
C 1568 333 1459 269 1318 269 
C 1082 269 986 443 986 847 
L 986 2682 
L 1632 2682 
L 1632 2880 
z
" transform="scale(0.015625)"/>
      <path id="NimbusRomNo9L-Regu-6e" d="M 102 2579 
C 141 2598 205 2605 275 2605 
C 454 2605 512 2509 512 2195 
L 512 608 
C 512 243 442 154 115 128 
L 115 32 
L 1472 32 
L 1472 128 
C 1146 154 1050 230 1050 461 
L 1050 2259 
C 1357 2547 1498 2624 1709 2624 
C 2022 2624 2176 2426 2176 2003 
L 2176 666 
C 2176 262 2093 154 1773 128 
L 1773 32 
L 3104 32 
L 3104 128 
C 2790 160 2714 237 2714 550 
L 2714 2016 
C 2714 2618 2432 2976 1958 2976 
C 1664 2976 1466 2867 1030 2458 
L 1030 2963 
L 986 2976 
C 672 2861 454 2790 102 2688 
L 102 2579 
z
" transform="scale(0.015625)"/>
      <path id="NimbusRomNo9L-Regu-65" d="M 2611 1053 
C 2304 564 2029 378 1619 378 
C 1254 378 979 564 794 930 
C 678 1174 634 1386 621 1779 
L 2592 1779 
C 2541 2193 2477 2377 2317 2581 
C 2125 2811 1830 2944 1498 2944 
C 1178 2944 877 2829 634 2611 
C 333 2349 160 1894 160 1370 
C 160 486 621 -64 1357 -64 
C 1965 -64 2445 315 2714 1008 
L 2611 1053 
z
M 634 1984 
C 704 2479 922 2714 1312 2714 
C 1702 2714 1856 2535 1939 1984 
L 634 1984 
z
" transform="scale(0.015625)"/>
      <path id="NimbusRomNo9L-Regu-64" d="M 2202 -64 
L 3142 269 
L 3142 365 
C 3027 365 3014 365 2995 365 
C 2765 365 2714 435 2714 731 
L 2714 4364 
L 2682 4377 
C 2374 4268 2150 4204 1741 4096 
L 1741 3994 
C 1792 4000 1830 4000 1882 4000 
C 2118 4000 2176 3936 2176 3672 
L 2176 2669 
C 1933 2874 1760 2944 1504 2944 
C 768 2944 173 2221 173 1312 
C 173 493 653 -64 1357 -64 
C 1715 -64 1958 64 2176 365 
L 2176 -45 
L 2202 -64 
z
M 2176 653 
C 2176 608 2131 531 2067 461 
C 1952 333 1792 269 1606 269 
C 1075 269 723 781 723 1568 
C 723 2291 1037 2765 1523 2765 
C 1862 2765 2176 2464 2176 2125 
L 2176 653 
z
" transform="scale(0.015625)"/>
      <path id="NimbusRomNo9L-Regu-63" d="M 2547 998 
C 2240 550 2010 397 1645 397 
C 1062 397 653 909 653 1645 
C 653 2304 1005 2758 1523 2758 
C 1754 2758 1837 2688 1901 2451 
L 1939 2310 
C 1990 2131 2106 2016 2240 2016 
C 2406 2016 2547 2138 2547 2285 
C 2547 2643 2099 2944 1562 2944 
C 1248 2944 922 2816 659 2586 
C 339 2304 160 1869 160 1363 
C 160 531 666 -64 1376 -64 
C 1664 -64 1920 38 2150 237 
C 2323 390 2445 563 2637 941 
L 2547 998 
z
" transform="scale(0.015625)"/>
      <path id="NimbusRomNo9L-Regu-3" d="M 205 2675 
L 646 2675 
L 646 637 
C 646 344 608 181 518 122 
C 454 77 390 64 205 64 
L 205 -38 
L 1638 -38 
L 1638 58 
C 1274 97 1184 175 1184 474 
L 1184 2675 
L 2387 2675 
L 2387 507 
C 2387 188 2291 84 1958 58 
L 1958 -38 
L 3334 -38 
L 3334 58 
C 2989 84 2925 148 2925 482 
L 2925 4339 
L 2893 4352 
C 2842 4346 2771 4320 2694 4282 
C 2573 4224 2483 4192 2426 4192 
C 2394 4192 2330 4211 2234 4243 
C 2054 4314 1869 4352 1715 4352 
C 1414 4352 1120 4201 941 3954 
C 749 3683 685 3436 659 2880 
L 205 2880 
L 205 2675 
z
M 2387 2880 
L 1184 2880 
L 1184 3208 
C 1184 3864 1318 4179 1600 4179 
C 1741 4179 1818 4129 1933 3958 
C 2054 3782 2138 3726 2285 3726 
C 2330 3726 2355 3738 2387 3770 
L 2387 2880 
z
" transform="scale(0.015625)"/>
      <path id="NimbusRomNo9L-Regu-75" d="M 3066 320 
L 3034 320 
C 2739 320 2669 390 2669 685 
L 2669 2880 
L 1658 2880 
L 1658 2758 
C 2054 2758 2131 2694 2131 2375 
L 2131 875 
C 2131 697 2099 607 2010 537 
C 1837 397 1638 320 1446 320 
C 1197 320 992 537 992 805 
L 992 2880 
L 58 2880 
L 58 2778 
C 365 2778 454 2682 454 2387 
L 454 770 
C 454 263 762 -64 1229 -64 
C 1466 -64 1715 38 1888 211 
L 2163 486 
L 2163 -45 
L 2189 -58 
C 2509 70 2739 141 3066 230 
L 3066 320 
z
" transform="scale(0.015625)"/>
     </defs>
     <use xlink:href="#NimbusRomNo9L-Regu-50" transform="scale(0.996264)"/>
     <use xlink:href="#NimbusRomNo9L-Regu-6f" transform="translate(55.391677 0) scale(0.996264)"/>
     <use xlink:href="#NimbusRomNo9L-Regu-6c" transform="translate(105.204877 0) scale(0.996264)"/>
     <use xlink:href="#NimbusRomNo9L-Regu-61" transform="translate(132.900047 0) scale(0.996264)"/>
     <use xlink:href="#NimbusRomNo9L-Regu-72" transform="translate(177.133616 0) scale(0.996264)"/>
     <use xlink:href="#NimbusRomNo9L-Regu-69" transform="translate(210.308845 0) scale(0.996264)"/>
     <use xlink:href="#NimbusRomNo9L-Regu-7a" transform="translate(238.004015 0) scale(0.996264)"/>
     <use xlink:href="#NimbusRomNo9L-Regu-61" transform="translate(282.237584 0) scale(0.996264)"/>
     <use xlink:href="#NimbusRomNo9L-Regu-74" transform="translate(326.471152 0) scale(0.996264)"/>
     <use xlink:href="#NimbusRomNo9L-Regu-69" transform="translate(354.166322 0) scale(0.996264)"/>
     <use xlink:href="#NimbusRomNo9L-Regu-6f" transform="translate(381.861492 0) scale(0.996264)"/>
     <use xlink:href="#NimbusRomNo9L-Regu-6e" transform="translate(431.674692 0) scale(0.996264)"/>
     <use xlink:href="#NimbusRomNo9L-Regu-50" transform="translate(506.394493 0) scale(0.996264)"/>
     <use xlink:href="#NimbusRomNo9L-Regu-61" transform="translate(560.292777 0) scale(0.996264)"/>
     <use xlink:href="#NimbusRomNo9L-Regu-74" transform="translate(604.526346 0) scale(0.996264)"/>
     <use xlink:href="#NimbusRomNo9L-Regu-74" transform="translate(632.221516 0) scale(0.996264)"/>
     <use xlink:href="#NimbusRomNo9L-Regu-65" transform="translate(659.916685 0) scale(0.996264)"/>
     <use xlink:href="#NimbusRomNo9L-Regu-72" transform="translate(704.150254 0) scale(0.996264)"/>
     <use xlink:href="#NimbusRomNo9L-Regu-6e" transform="translate(737.325484 0) scale(0.996264)"/>
     <use xlink:href="#NimbusRomNo9L-Regu-64" transform="translate(812.045284 0) scale(0.996264)"/>
     <use xlink:href="#NimbusRomNo9L-Regu-69" transform="translate(861.858485 0) scale(0.996264)"/>
     <use xlink:href="#NimbusRomNo9L-Regu-65" transform="translate(889.553654 0) scale(0.996264)"/>
     <use xlink:href="#NimbusRomNo9L-Regu-6c" transform="translate(933.787223 0) scale(0.996264)"/>
     <use xlink:href="#NimbusRomNo9L-Regu-65" transform="translate(961.482393 0) scale(0.996264)"/>
     <use xlink:href="#NimbusRomNo9L-Regu-63" transform="translate(1005.715961 0) scale(0.996264)"/>
     <use xlink:href="#NimbusRomNo9L-Regu-74" transform="translate(1049.94953 0) scale(0.996264)"/>
     <use xlink:href="#NimbusRomNo9L-Regu-72" transform="translate(1077.6447 0) scale(0.996264)"/>
     <use xlink:href="#NimbusRomNo9L-Regu-69" transform="translate(1110.819929 0) scale(0.996264)"/>
     <use xlink:href="#NimbusRomNo9L-Regu-63" transform="translate(1138.515099 0) scale(0.996264)"/>
     <use xlink:href="#NimbusRomNo9L-Regu-72" transform="translate(1218.614233 0) scale(0.996264)"/>
     <use xlink:href="#NimbusRomNo9L-Regu-65" transform="translate(1251.789463 0) scale(0.996264)"/>
     <use xlink:href="#NimbusRomNo9L-Regu-3" transform="translate(1296.023031 0) scale(0.996264)"/>
     <use xlink:href="#NimbusRomNo9L-Regu-65" transform="translate(1351.414708 0) scale(0.996264)"/>
     <use xlink:href="#NimbusRomNo9L-Regu-63" transform="translate(1395.648277 0) scale(0.996264)"/>
     <use xlink:href="#NimbusRomNo9L-Regu-74" transform="translate(1439.881846 0) scale(0.996264)"/>
     <use xlink:href="#NimbusRomNo9L-Regu-69" transform="translate(1467.577015 0) scale(0.996264)"/>
     <use xlink:href="#NimbusRomNo9L-Regu-6f" transform="translate(1495.272185 0) scale(0.996264)"/>
     <use xlink:href="#NimbusRomNo9L-Regu-6e" transform="translate(1545.085385 0) scale(0.996264)"/>
     <use xlink:href="#NimbusRomNo9L-Regu-63" transform="translate(1630.764151 0) scale(0.996264)"/>
     <use xlink:href="#NimbusRomNo9L-Regu-69" transform="translate(1674.99772 0) scale(0.996264)"/>
     <use xlink:href="#NimbusRomNo9L-Regu-72" transform="translate(1702.692889 0) scale(0.996264)"/>
     <use xlink:href="#NimbusRomNo9L-Regu-63" transform="translate(1735.868119 0) scale(0.996264)"/>
     <use xlink:href="#NimbusRomNo9L-Regu-75" transform="translate(1780.101688 0) scale(0.996264)"/>
     <use xlink:href="#NimbusRomNo9L-Regu-6c" transform="translate(1829.914888 0) scale(0.996264)"/>
     <use xlink:href="#NimbusRomNo9L-Regu-61" transform="translate(1857.610058 0) scale(0.996264)"/>
     <use xlink:href="#NimbusRomNo9L-Regu-72" transform="translate(1901.843627 0) scale(0.996264)"/>
     <path d="M 1188.726009 0 
L 1218.614233 0 
L 1218.614233 0.3985 
L 1188.726009 0.3985 
L 1188.726009 0 
z
"/>
     <path d="M 1600.875927 0 
L 1630.764151 0 
L 1630.764151 0.3985 
L 1600.875927 0.3985 
L 1600.875927 0 
z
"/>
    </g>
   </g>
   <g id="legend_1">
    <g id="text_15">
     <!-- H -->
     <g transform="translate(43.334021 43.023155) scale(0.08 -0.08)">
      <defs>
       <path id="NimbusRomNo9L-Regu-48" d="M 1338 2304 
L 1338 3533 
C 1338 3990 1408 4059 1901 4104 
L 1901 4224 
L 122 4224 
L 122 4104 
C 614 4059 685 3989 685 3527 
L 685 749 
C 685 210 621 134 122 134 
L 122 0 
L 1901 0 
L 1901 121 
C 1421 159 1338 242 1338 699 
L 1338 2022 
L 3277 2022 
L 3277 757 
C 3277 211 3213 134 2714 134 
L 2714 0 
L 4493 0 
L 4493 121 
C 4013 159 3930 242 3930 696 
L 3930 3529 
C 3930 3989 4000 4059 4493 4104 
L 4493 4224 
L 2714 4224 
L 2714 4104 
C 3206 4059 3277 3990 3277 3533 
L 3277 2304 
L 1338 2304 
z
" transform="scale(0.015625)"/>
      </defs>
      <use xlink:href="#NimbusRomNo9L-Regu-48" transform="scale(0.996264)"/>
     </g>
    </g>
    <g id="line2d_17">
     <path d="M 32.58083 49.848618 
L 38.58083 49.848618 
L 44.58083 49.848618 
" style="fill: none; stroke: #000000; stroke-linecap: square"/>
    </g>
    <g id="text_16">
     <!-- 0.24 -->
     <g transform="translate(49.38083 51.948618) scale(0.06 -0.06)">
      <defs>
       <path id="NimbusRomNo9L-Regu-2e" d="M 800 646 
C 608 646 448 480 448 281 
C 448 96 608 -64 794 -64 
C 992 -64 1158 96 1158 281 
C 1158 480 992 646 800 646 
z
" transform="scale(0.015625)"/>
      </defs>
      <use xlink:href="#NimbusRomNo9L-Regu-30" transform="scale(0.996264)"/>
      <use xlink:href="#NimbusRomNo9L-Regu-2e" transform="translate(49.8132 0) scale(0.996264)"/>
      <use xlink:href="#NimbusRomNo9L-Regu-32" transform="translate(74.719801 0) scale(0.996264)"/>
      <use xlink:href="#NimbusRomNo9L-Regu-34" transform="translate(124.533001 0) scale(0.996264)"/>
     </g>
    </g>
    <g id="line2d_18">
     <path d="M 32.58083 58.342716 
L 38.58083 58.342716 
L 44.58083 58.342716 
" style="fill: none; stroke-dasharray: 3.7,1.6; stroke-dashoffset: 0; stroke: #ff0000"/>
    </g>
    <g id="text_17">
     <!-- 0.42 -->
     <g transform="translate(49.38083 60.442716) scale(0.06 -0.06)">
      <use xlink:href="#NimbusRomNo9L-Regu-30" transform="scale(0.996264)"/>
      <use xlink:href="#NimbusRomNo9L-Regu-2e" transform="translate(49.8132 0) scale(0.996264)"/>
      <use xlink:href="#NimbusRomNo9L-Regu-34" transform="translate(74.719801 0) scale(0.996264)"/>
      <use xlink:href="#NimbusRomNo9L-Regu-32" transform="translate(124.533001 0) scale(0.996264)"/>
     </g>
    </g>
    <g id="line2d_19">
     <path d="M 32.58083 66.836813 
L 38.58083 66.836813 
L 44.58083 66.836813 
" style="fill: none; stroke-dasharray: 1,1.65; stroke-dashoffset: 0; stroke: #0000ff"/>
    </g>
    <g id="text_18">
     <!-- 0.59 -->
     <g transform="translate(49.38083 68.936813) scale(0.06 -0.06)">
      <use xlink:href="#NimbusRomNo9L-Regu-30" transform="scale(0.996264)"/>
      <use xlink:href="#NimbusRomNo9L-Regu-2e" transform="translate(49.8132 0) scale(0.996264)"/>
      <use xlink:href="#NimbusRomNo9L-Regu-35" transform="translate(74.719801 0) scale(0.996264)"/>
      <use xlink:href="#NimbusRomNo9L-Regu-39" transform="translate(124.533001 0) scale(0.996264)"/>
     </g>
    </g>
   </g>
  </g>
 </g>
 <defs>
  <clipPath id="p00e921b95d">
   <path d="M 165.78083 101.519499 
C 165.78083 92.419107 163.988252 83.407204 160.505682 74.999538 
C 157.023113 66.591871 151.91828 58.951949 145.48333 52.516999 
C 139.048381 46.08205 131.408459 40.977217 123.000792 37.494648 
C 114.593126 34.012078 105.581223 32.219499 96.48083 32.219499 
C 87.380438 32.219499 78.368535 34.012078 69.960869 37.494648 
C 61.553202 40.977217 53.91328 46.08205 47.478331 52.516999 
C 41.043381 58.951949 35.938548 66.591871 32.455979 74.999538 
C 28.973409 83.407204 27.18083 92.419107 27.18083 101.519499 
C 27.18083 110.619892 28.973409 119.631795 32.455979 128.039461 
C 35.938548 136.447128 41.043381 144.08705 47.478331 150.521999 
C 53.91328 156.956949 61.553202 162.061782 69.960869 165.544351 
C 78.368535 169.02692 87.380438 170.819499 96.48083 170.819499 
C 105.581223 170.819499 114.593126 169.02692 123.000792 165.544351 
C 131.408459 162.061782 139.048381 156.956949 145.48333 150.521999 
C 151.91828 144.08705 157.023113 136.447128 160.505682 128.039461 
C 163.988252 119.631795 165.78083 110.619892 165.78083 101.519499 
M 96.48083 101.519499 
C 96.48083 101.519499 96.48083 101.519499 96.48083 101.519499 
C 96.48083 101.519499 96.48083 101.519499 96.48083 101.519499 
C 96.48083 101.519499 96.48083 101.519499 96.48083 101.519499 
C 96.48083 101.519499 96.48083 101.519499 96.48083 101.519499 
C 96.48083 101.519499 96.48083 101.519499 96.48083 101.519499 
C 96.48083 101.519499 96.48083 101.519499 96.48083 101.519499 
C 96.48083 101.519499 96.48083 101.519499 96.48083 101.519499 
C 96.48083 101.519499 96.48083 101.519499 96.48083 101.519499 
C 96.48083 101.519499 96.48083 101.519499 96.48083 101.519499 
C 96.48083 101.519499 96.48083 101.519499 96.48083 101.519499 
C 96.48083 101.519499 96.48083 101.519499 96.48083 101.519499 
C 96.48083 101.519499 96.48083 101.519499 96.48083 101.519499 
C 96.48083 101.519499 96.48083 101.519499 96.48083 101.519499 
C 96.48083 101.519499 96.48083 101.519499 96.48083 101.519499 
C 96.48083 101.519499 96.48083 101.519499 96.48083 101.519499 
C 96.48083 101.519499 96.48083 101.519499 96.48083 101.519499 
z
"/>
  </clipPath>
 </defs>
</svg>
