<?xml version="1.0" encoding="utf-8" standalone="no"?>
<!DOCTYPE svg PUBLIC "-//W3C//DTD SVG 1.1//EN"
  "http://www.w3.org/Graphics/SVG/1.1/DTD/svg11.dtd">
<svg xmlns:xlink="http://www.w3.org/1999/xlink" width="177.958154pt" height="188.484059pt" viewBox="0 0 177.958154 188.484059" xmlns="http://www.w3.org/2000/svg" version="1.1">
 <metadata>
  <rdf:RDF xmlns:dc="http://purl.org/dc/elements/1.1/" xmlns:cc="http://creativecommons.org/ns#" xmlns:rdf="http://www.w3.org/1999/02/22-rdf-syntax-ns#">
   <cc:Work>
    <dc:type rdf:resource="http://purl.org/dc/dcmitype/StillImage"/>
    <dc:date>2025-03-29T11:26:55.435322</dc:date>
    <dc:format>image/svg+xml</dc:format>
    <dc:creator>
     <cc:Agent>
      <dc:title>Matplotlib v3.9.2, https://matplotlib.org/</dc:title>
     </cc:Agent>
    </dc:creator>
   </cc:Work>
  </rdf:RDF>
 </metadata>
 <defs>
  <style type="text/css">*{stroke-linejoin: round; stroke-linecap: butt}</style>
 </defs>
 <g id="figure_1">
  <g id="patch_1">
   <path d="M -0 188.484059 
L 177.958154 188.484059 
L 177.958154 0 
L -0 0 
L -0 188.484059 
z
" style="fill: none"/>
  </g>
  <g id="axes_1">
   <g id="patch_2">
    <path d="M 160.271605 101.519499 
C 160.271605 92.419107 158.479026 83.407204 154.996457 74.999538 
C 151.513887 66.591871 146.409054 58.951949 139.974105 52.516999 
C 133.539156 46.08205 125.899233 40.977217 117.491567 37.494648 
C 109.0839 34.012078 100.071998 32.219499 90.971605 32.219499 
C 81.871212 32.219499 72.85931 34.012078 64.451643 37.494648 
C 56.043977 40.977217 48.404054 46.08205 41.969105 52.516999 
C 35.534156 58.951949 30.429323 66.591871 26.946753 74.999538 
C 23.464184 83.407204 21.671605 92.419107 21.671605 101.519499 
C 21.671605 110.619892 23.464184 119.631795 26.946753 128.039461 
C 30.429323 136.447128 35.534156 144.08705 41.969105 150.521999 
C 48.404054 156.956949 56.043977 162.061782 64.451643 165.544351 
C 72.85931 169.02692 81.871212 170.819499 90.971605 170.819499 
C 100.071998 170.819499 109.0839 169.02692 117.491567 165.544351 
C 125.899233 162.061782 133.539156 156.956949 139.974105 150.521999 
C 146.409054 144.08705 151.513887 136.447128 154.996457 128.039461 
C 158.479026 119.631795 160.271605 110.619892 160.271605 101.519499 
M 90.971605 101.519499 
C 90.971605 101.519499 90.971605 101.519499 90.971605 101.519499 
C 90.971605 101.519499 90.971605 101.519499 90.971605 101.519499 
C 90.971605 101.519499 90.971605 101.519499 90.971605 101.519499 
C 90.971605 101.519499 90.971605 101.519499 90.971605 101.519499 
C 90.971605 101.519499 90.971605 101.519499 90.971605 101.519499 
C 90.971605 101.519499 90.971605 101.519499 90.971605 101.519499 
C 90.971605 101.519499 90.971605 101.519499 90.971605 101.519499 
C 90.971605 101.519499 90.971605 101.519499 90.971605 101.519499 
C 90.971605 101.519499 90.971605 101.519499 90.971605 101.519499 
C 90.971605 101.519499 90.971605 101.519499 90.971605 101.519499 
C 90.971605 101.519499 90.971605 101.519499 90.971605 101.519499 
C 90.971605 101.519499 90.971605 101.519499 90.971605 101.519499 
C 90.971605 101.519499 90.971605 101.519499 90.971605 101.519499 
C 90.971605 101.519499 90.971605 101.519499 90.971605 101.519499 
C 90.971605 101.519499 90.971605 101.519499 90.971605 101.519499 
C 90.971605 101.519499 90.971605 101.519499 90.971605 101.519499 
L 90.971605 101.519499 
z
" style="fill: none"/>
   </g>
   <g id="matplotlib.axis_1">
    <g id="xtick_1">
     <g id="line2d_1">
      <path d="M 90.971605 101.519499 
L 160.271605 101.519499 
" clip-path="url(#p30ea1f1e95)" style="fill: none; stroke: #b0b0b0; stroke-width: 0.5; stroke-linecap: square"/>
     </g>
     <g id="text_1">
      <!-- 0° -->
      <g transform="translate(167.185056 103.358596) scale(0.08 -0.08)">
       <defs>
        <path id="NimbusRomNo9L-Regu-30" d="M 1626 4352 
C 1274 4352 1005 4244 768 4020 
C 397 3661 154 2925 154 2176 
C 154 1479 365 730 666 372 
C 902 90 1229 -64 1600 -64 
C 1926 -64 2202 45 2432 269 
C 2803 621 3046 1364 3046 2138 
C 3046 3450 2464 4352 1626 4352 
z
M 1606 4186 
C 2144 4186 2432 3463 2432 2125 
C 2432 788 2150 103 1600 103 
C 1050 103 768 788 768 2119 
C 768 3476 1056 4186 1606 4186 
z
" transform="scale(0.015625)"/>
        <path id="NimbusRomNo9L-Regu-b0" d="M 1280 4313 
C 768 4313 365 3913 365 3404 
C 365 2903 768 2496 1267 2496 
C 1786 2496 2195 2890 2195 3399 
C 2195 3913 1792 4313 1280 4313 
z
M 1280 4096 
C 1638 4096 1946 3779 1946 3405 
C 1946 3024 1645 2714 1274 2714 
C 915 2714 614 3031 614 3405 
C 614 3779 915 4096 1280 4096 
z
" transform="scale(0.015625)"/>
       </defs>
       <use xlink:href="#NimbusRomNo9L-Regu-30" transform="scale(0.996264)"/>
       <use xlink:href="#NimbusRomNo9L-Regu-b0" transform="translate(49.8132 0) scale(0.996264)"/>
      </g>
     </g>
    </g>
    <g id="xtick_2">
     <g id="line2d_2">
      <path d="M 90.971605 101.519499 
L 139.974105 52.516999 
" clip-path="url(#p30ea1f1e95)" style="fill: none; stroke: #b0b0b0; stroke-width: 0.5; stroke-linecap: square"/>
     </g>
     <g id="text_2">
      <!-- 45° -->
      <g transform="translate(141.819649 46.931475) scale(0.08 -0.08)">
       <defs>
        <path id="NimbusRomNo9L-Regu-34" d="M 3021 1497 
L 2368 1497 
L 2368 4352 
L 2086 4352 
L 77 1497 
L 77 1088 
L 1875 1088 
L 1875 32 
L 2368 32 
L 2368 1088 
L 3021 1088 
L 3021 1497 
z
M 1869 1497 
L 333 1497 
L 1869 3698 
L 1869 1497 
z
" transform="scale(0.015625)"/>
        <path id="NimbusRomNo9L-Regu-35" d="M 1158 3776 
L 2413 3776 
C 2515 3776 2541 3789 2560 3834 
L 2803 4403 
L 2746 4448 
C 2650 4314 2586 4282 2451 4282 
L 1114 4282 
L 416 2759 
C 410 2746 410 2740 410 2727 
C 410 2695 435 2676 486 2676 
C 691 2676 947 2631 1210 2547 
C 1946 2309 2285 1910 2285 1274 
C 2285 656 1894 173 1395 173 
C 1267 173 1158 218 966 360 
C 762 508 614 572 480 572 
C 294 572 205 495 205 334 
C 205 90 506 -64 986 -64 
C 1523 -64 1984 110 2304 438 
C 2598 728 2733 1094 2733 1583 
C 2733 2046 2611 2342 2291 2663 
C 2010 2947 1645 3094 890 3229 
L 1158 3776 
z
" transform="scale(0.015625)"/>
       </defs>
       <use xlink:href="#NimbusRomNo9L-Regu-34" transform="scale(0.996264)"/>
       <use xlink:href="#NimbusRomNo9L-Regu-35" transform="translate(49.8132 0) scale(0.996264)"/>
       <use xlink:href="#NimbusRomNo9L-Regu-b0" transform="translate(99.626401 0) scale(0.996264)"/>
      </g>
     </g>
    </g>
    <g id="xtick_3">
     <g id="line2d_3">
      <path d="M 90.971605 101.519499 
L 90.971605 32.219499 
" clip-path="url(#p30ea1f1e95)" style="fill: none; stroke: #b0b0b0; stroke-width: 0.5; stroke-linecap: square"/>
     </g>
     <g id="text_3">
      <!-- 90° -->
      <g transform="translate(85.392528 23.558596) scale(0.08 -0.08)">
       <defs>
        <path id="NimbusRomNo9L-Regu-39" d="M 378 -123 
C 1094 -40 1446 82 1882 396 
C 2547 882 2938 1676 2938 2539 
C 2938 3593 2349 4339 1523 4339 
C 762 4339 192 3694 192 2832 
C 192 2053 653 1536 1344 1536 
C 1696 1536 1965 1638 2304 1900 
C 2042 856 1331 172 358 5 
L 378 -123 
z
M 2317 2290 
C 2317 2162 2291 2104 2221 2047 
C 2042 1894 1805 1811 1574 1811 
C 1088 1811 781 2290 781 3050 
C 781 3413 883 3796 1018 3963 
C 1126 4090 1286 4160 1472 4160 
C 2029 4160 2317 3611 2317 2539 
L 2317 2290 
z
" transform="scale(0.015625)"/>
       </defs>
       <use xlink:href="#NimbusRomNo9L-Regu-39" transform="scale(0.996264)"/>
       <use xlink:href="#NimbusRomNo9L-Regu-30" transform="translate(49.8132 0) scale(0.996264)"/>
       <use xlink:href="#NimbusRomNo9L-Regu-b0" transform="translate(99.626401 0) scale(0.996264)"/>
      </g>
     </g>
    </g>
    <g id="xtick_4">
     <g id="line2d_4">
      <path d="M 90.971605 101.519499 
L 41.969105 52.516999 
" clip-path="url(#p30ea1f1e95)" style="fill: none; stroke: #b0b0b0; stroke-width: 0.5; stroke-linecap: square"/>
     </g>
     <g id="text_4">
      <!-- 135° -->
      <g transform="translate(26.972879 46.931475) scale(0.08 -0.08)">
       <defs>
        <path id="NimbusRomNo9L-Regu-31" d="M 1862 4339 
L 710 3757 
L 710 3667 
C 787 3699 858 3725 883 3738 
C 998 3783 1107 3808 1171 3808 
C 1306 3808 1363 3711 1363 3505 
L 1363 592 
C 1363 379 1312 232 1210 173 
C 1114 116 1024 96 755 96 
L 755 0 
L 2522 0 
L 2522 96 
C 2016 96 1914 160 1914 470 
L 1914 4327 
L 1862 4339 
z
" transform="scale(0.015625)"/>
        <path id="NimbusRomNo9L-Regu-33" d="M 979 2138 
C 1357 2138 1504 2125 1658 2068 
C 2054 1927 2304 1562 2304 1120 
C 2304 583 1939 167 1466 167 
C 1293 167 1165 212 928 365 
C 736 480 627 525 518 525 
C 371 525 275 436 275 301 
C 275 77 550 -64 998 -64 
C 1491 -64 1997 103 2298 365 
C 2598 628 2765 999 2765 1428 
C 2765 1754 2662 2055 2477 2253 
C 2349 2394 2227 2471 1946 2592 
C 2387 2893 2547 3130 2547 3476 
C 2547 3994 2138 4352 1549 4352 
C 1229 4352 947 4244 717 4039 
C 525 3866 429 3699 288 3315 
L 384 3290 
C 646 3757 934 3968 1338 3968 
C 1754 3968 2042 3687 2042 3284 
C 2042 3053 1946 2823 1786 2663 
C 1594 2471 1414 2375 979 2221 
L 979 2138 
z
" transform="scale(0.015625)"/>
       </defs>
       <use xlink:href="#NimbusRomNo9L-Regu-31" transform="scale(0.996264)"/>
       <use xlink:href="#NimbusRomNo9L-Regu-33" transform="translate(49.8132 0) scale(0.996264)"/>
       <use xlink:href="#NimbusRomNo9L-Regu-35" transform="translate(99.626401 0) scale(0.996264)"/>
       <use xlink:href="#NimbusRomNo9L-Regu-b0" transform="translate(149.439601 0) scale(0.996264)"/>
      </g>
     </g>
    </g>
    <g id="xtick_5">
     <g id="line2d_5">
      <path d="M 90.971605 101.519499 
L 21.671605 101.519499 
" clip-path="url(#p30ea1f1e95)" style="fill: none; stroke: #b0b0b0; stroke-width: 0.5; stroke-linecap: square"/>
     </g>
     <g id="text_5">
      <!-- 180° -->
      <g transform="translate(3.6 103.358596) scale(0.08 -0.08)">
       <defs>
        <path id="NimbusRomNo9L-Regu-38" d="M 1856 2400 
C 2490 2740 2714 3008 2714 3444 
C 2714 3968 2253 4352 1613 4352 
C 915 4352 397 3924 397 3341 
C 397 2925 518 2740 1190 2151 
C 499 1626 358 1428 358 992 
C 358 372 864 -64 1587 -64 
C 2355 -64 2848 359 2848 1018 
C 2848 1511 2630 1824 1856 2400 
z
M 1741 1741 
C 2208 1408 2362 1178 2362 820 
C 2362 404 2074 116 1658 116 
C 1171 116 845 487 845 1044 
C 845 1453 986 1722 1357 2023 
L 1741 1741 
z
M 1670 2516 
C 1101 2887 870 3181 870 3540 
C 870 3911 1158 4173 1562 4173 
C 1997 4173 2272 3892 2272 3450 
C 2272 3085 2093 2797 1728 2554 
C 1696 2535 1696 2535 1670 2516 
z
" transform="scale(0.015625)"/>
       </defs>
       <use xlink:href="#NimbusRomNo9L-Regu-31" transform="scale(0.996264)"/>
       <use xlink:href="#NimbusRomNo9L-Regu-38" transform="translate(49.8132 0) scale(0.996264)"/>
       <use xlink:href="#NimbusRomNo9L-Regu-30" transform="translate(99.626401 0) scale(0.996264)"/>
       <use xlink:href="#NimbusRomNo9L-Regu-b0" transform="translate(149.439601 0) scale(0.996264)"/>
      </g>
     </g>
    </g>
    <g id="xtick_6">
     <g id="line2d_6">
      <path d="M 90.971605 101.519499 
L 41.969105 150.521999 
" clip-path="url(#p30ea1f1e95)" style="fill: none; stroke: #b0b0b0; stroke-width: 0.5; stroke-linecap: square"/>
     </g>
     <g id="text_6">
      <!-- 225° -->
      <g transform="translate(26.972879 159.785717) scale(0.08 -0.08)">
       <defs>
        <path id="NimbusRomNo9L-Regu-32" d="M 3040 875 
L 2957 907 
C 2720 544 2637 486 2349 486 
L 819 486 
L 1894 1609 
C 2464 2202 2714 2687 2714 3185 
C 2714 3823 2195 4313 1530 4313 
C 1178 4313 845 4173 608 3918 
C 403 3700 307 3496 198 3043 
L 333 3011 
C 589 3636 819 3840 1261 3840 
C 1798 3840 2163 3476 2163 2940 
C 2163 2443 1869 1850 1331 1282 
L 192 77 
L 192 0 
L 2688 0 
L 3040 875 
z
" transform="scale(0.015625)"/>
       </defs>
       <use xlink:href="#NimbusRomNo9L-Regu-32" transform="scale(0.996264)"/>
       <use xlink:href="#NimbusRomNo9L-Regu-32" transform="translate(49.8132 0) scale(0.996264)"/>
       <use xlink:href="#NimbusRomNo9L-Regu-35" transform="translate(99.626401 0) scale(0.996264)"/>
       <use xlink:href="#NimbusRomNo9L-Regu-b0" transform="translate(149.439601 0) scale(0.996264)"/>
      </g>
     </g>
    </g>
    <g id="xtick_7">
     <g id="line2d_7">
      <path d="M 90.971605 101.519499 
L 90.971605 170.819499 
" clip-path="url(#p30ea1f1e95)" style="fill: none; stroke: #b0b0b0; stroke-width: 0.5; stroke-linecap: square"/>
     </g>
     <g id="text_7">
      <!-- 270° -->
      <g transform="translate(83.4 183.158596) scale(0.08 -0.08)">
       <defs>
        <path id="NimbusRomNo9L-Regu-37" d="M 2874 4250 
L 506 4250 
L 128 3310 
L 237 3258 
C 512 3693 627 3776 979 3776 
L 2368 3776 
L 1101 -32 
L 1517 -32 
L 2874 4148 
L 2874 4250 
z
" transform="scale(0.015625)"/>
       </defs>
       <use xlink:href="#NimbusRomNo9L-Regu-32" transform="scale(0.996264)"/>
       <use xlink:href="#NimbusRomNo9L-Regu-37" transform="translate(49.8132 0) scale(0.996264)"/>
       <use xlink:href="#NimbusRomNo9L-Regu-30" transform="translate(99.626401 0) scale(0.996264)"/>
       <use xlink:href="#NimbusRomNo9L-Regu-b0" transform="translate(149.439601 0) scale(0.996264)"/>
      </g>
     </g>
    </g>
    <g id="xtick_8">
     <g id="line2d_8">
      <path d="M 90.971605 101.519499 
L 139.974105 150.521999 
" clip-path="url(#p30ea1f1e95)" style="fill: none; stroke: #b0b0b0; stroke-width: 0.5; stroke-linecap: square"/>
     </g>
     <g id="text_8">
      <!-- 315° -->
      <g transform="translate(139.827121 159.785717) scale(0.08 -0.08)">
       <use xlink:href="#NimbusRomNo9L-Regu-33" transform="scale(0.996264)"/>
       <use xlink:href="#NimbusRomNo9L-Regu-31" transform="translate(49.8132 0) scale(0.996264)"/>
       <use xlink:href="#NimbusRomNo9L-Regu-35" transform="translate(99.626401 0) scale(0.996264)"/>
       <use xlink:href="#NimbusRomNo9L-Regu-b0" transform="translate(149.439601 0) scale(0.996264)"/>
      </g>
     </g>
    </g>
   </g>
   <g id="matplotlib.axis_2">
    <g id="ytick_1">
     <g id="line2d_9">
      <path d="M 104.109046 101.519499 
C 104.109046 99.794306 103.76922 98.085889 103.109018 96.492018 
C 102.448815 94.898148 101.481074 93.449822 100.261178 92.229926 
C 99.041283 91.01003 97.592956 90.04229 95.999086 89.382087 
C 94.405215 88.721884 92.696798 88.382059 90.971605 88.382059 
C 89.246412 88.382059 87.537994 88.721884 85.944124 89.382087 
C 84.350254 90.04229 82.901927 91.01003 81.682032 92.229926 
C 80.462136 93.449822 79.494395 94.898148 78.834192 96.492018 
C 78.17399 98.085889 77.834164 99.794306 77.834164 101.519499 
C 77.834164 103.244692 78.17399 104.95311 78.834192 106.54698 
C 79.494395 108.140851 80.462136 109.589177 81.682032 110.809073 
C 82.901927 112.028968 84.350254 112.996709 85.944124 113.656912 
C 87.537994 114.317115 89.246412 114.65694 90.971605 114.65694 
C 92.696798 114.65694 94.405215 114.317115 95.999086 113.656912 
C 97.592956 112.996709 99.041283 112.028968 100.261178 110.809073 
C 101.481074 109.589177 102.448815 108.140851 103.109018 106.54698 
C 103.76922 104.95311 104.109046 103.244692 104.109046 101.519499 
" clip-path="url(#p30ea1f1e95)" style="fill: none; stroke: #b0b0b0; stroke-width: 0.5; stroke-linecap: square"/>
     </g>
     <g id="text_9">
      <!-- $\mathdefault{0.2}$ -->
      <g transform="translate(103.109018 104.821517) scale(0.08 -0.08)">
       <defs>
        <path id="CMMI10-3a" d="M 1229 338 
C 1229 522 1075 675 890 675 
C 704 675 550 522 550 338 
C 550 153 704 0 890 0 
C 1075 0 1229 153 1229 338 
z
" transform="scale(0.015625)"/>
       </defs>
       <use xlink:href="#NimbusRomNo9L-Regu-30" transform="scale(0.996264)"/>
       <use xlink:href="#CMMI10-3a" transform="translate(49.8132 0) scale(0.996264)"/>
       <use xlink:href="#NimbusRomNo9L-Regu-32" transform="translate(77.408707 0) scale(0.996264)"/>
      </g>
     </g>
    </g>
    <g id="ytick_2">
     <g id="line2d_10">
      <path d="M 117.246486 101.519499 
C 117.246486 98.069114 116.566836 94.652278 115.24643 91.464538 
C 113.926025 88.276797 111.990543 85.380144 109.550752 82.940352 
C 107.110961 80.500561 104.214308 78.56508 101.026567 77.244674 
C 97.838826 75.924269 94.421991 75.244618 90.971605 75.244618 
C 87.521219 75.244618 84.104384 75.924269 80.916643 77.244674 
C 77.728902 78.56508 74.832249 80.500561 72.392458 82.940352 
C 69.952667 85.380144 68.017185 88.276797 66.69678 91.464538 
C 65.376374 94.652278 64.696723 98.069114 64.696723 101.519499 
C 64.696723 104.969885 65.376374 108.38672 66.69678 111.574461 
C 68.017185 114.762202 69.952667 117.658855 72.392458 120.098646 
C 74.832249 122.538437 77.728902 124.473919 80.916643 125.794325 
C 84.104384 127.11473 87.521219 127.794381 90.971605 127.794381 
C 94.421991 127.794381 97.838826 127.11473 101.026567 125.794325 
C 104.214308 124.473919 107.110961 122.538437 109.550752 120.098646 
C 111.990543 117.658855 113.926025 114.762202 115.24643 111.574461 
C 116.566836 108.38672 117.246486 104.969885 117.246486 101.519499 
" clip-path="url(#p30ea1f1e95)" style="fill: none; stroke: #b0b0b0; stroke-width: 0.5; stroke-linecap: square"/>
     </g>
     <g id="text_10">
      <!-- $\mathdefault{0.4}$ -->
      <g transform="translate(115.24643 109.848998) scale(0.08 -0.08)">
       <use xlink:href="#NimbusRomNo9L-Regu-30" transform="scale(0.996264)"/>
       <use xlink:href="#CMMI10-3a" transform="translate(49.8132 0) scale(0.996264)"/>
       <use xlink:href="#NimbusRomNo9L-Regu-34" transform="translate(77.408707 0) scale(0.996264)"/>
      </g>
     </g>
    </g>
    <g id="ytick_3">
     <g id="line2d_11">
      <path d="M 130.383927 101.519499 
C 130.383927 96.343921 129.364451 91.218668 127.383843 86.437057 
C 125.403235 81.655445 122.500012 77.310466 118.840325 73.650779 
C 115.180638 69.991092 110.835659 67.08787 106.054048 65.107262 
C 101.272436 63.126653 96.147184 62.107177 90.971605 62.107177 
C 85.796026 62.107177 80.670773 63.126653 75.889162 65.107262 
C 71.107551 67.08787 66.762571 69.991092 63.102885 73.650779 
C 59.443198 77.310466 56.539975 81.655445 54.559367 86.437057 
C 52.578759 91.218668 51.559283 96.343921 51.559283 101.519499 
C 51.559283 106.695078 52.578759 111.820331 54.559367 116.601942 
C 56.539975 121.383553 59.443198 125.728533 63.102885 129.38822 
C 66.762571 133.047907 71.107551 135.951129 75.889162 137.931737 
C 80.670773 139.912346 85.796026 140.931822 90.971605 140.931822 
C 96.147184 140.931822 101.272436 139.912346 106.054048 137.931737 
C 110.835659 135.951129 115.180638 133.047907 118.840325 129.38822 
C 122.500012 125.728533 125.403235 121.383553 127.383843 116.601942 
C 129.364451 111.820331 130.383927 106.695078 130.383927 101.519499 
" clip-path="url(#p30ea1f1e95)" style="fill: none; stroke: #b0b0b0; stroke-width: 0.5; stroke-linecap: square"/>
     </g>
     <g id="text_11">
      <!-- $\mathdefault{0.6}$ -->
      <g transform="translate(127.383843 114.876479) scale(0.08 -0.08)">
       <defs>
        <path id="NimbusRomNo9L-Regu-36" d="M 2854 4391 
C 2125 4327 1754 4205 1286 3879 
C 595 3386 218 2656 218 1802 
C 218 1248 390 688 666 370 
C 909 89 1254 -64 1651 -64 
C 2445 -64 2995 541 2995 1421 
C 2995 2236 2528 2752 1792 2752 
C 1510 2752 1376 2707 973 2464 
C 1146 3431 1862 4122 2867 4288 
L 2854 4391 
z
M 1549 2458 
C 2099 2458 2419 2000 2419 1204 
C 2419 504 2170 116 1722 116 
C 1158 116 813 714 813 1700 
C 813 2025 864 2203 992 2299 
C 1126 2400 1325 2458 1549 2458 
z
" transform="scale(0.015625)"/>
       </defs>
       <use xlink:href="#NimbusRomNo9L-Regu-30" transform="scale(0.996264)"/>
       <use xlink:href="#CMMI10-3a" transform="translate(49.8132 0) scale(0.996264)"/>
       <use xlink:href="#NimbusRomNo9L-Regu-36" transform="translate(77.408707 0) scale(0.996264)"/>
      </g>
     </g>
    </g>
    <g id="ytick_4">
     <g id="line2d_12">
      <path d="M 143.521368 101.519499 
C 143.521368 94.618728 142.162066 87.785057 139.521255 81.409576 
C 136.880444 75.034094 133.009481 69.240788 128.129899 64.361206 
C 123.250316 59.481623 117.45701 55.61066 111.081529 52.969849 
C 104.706047 50.329038 97.872377 48.969736 90.971605 48.969736 
C 84.070833 48.969736 77.237163 50.329038 70.861681 52.969849 
C 64.4862 55.61066 58.692894 59.481623 53.813311 64.361206 
C 48.933729 69.240788 45.062765 75.034094 42.421954 81.409576 
C 39.781143 87.785057 38.421842 94.618728 38.421842 101.519499 
C 38.421842 108.420271 39.781143 115.253941 42.421954 121.629423 
C 45.062765 128.004905 48.933729 133.798211 53.813311 138.677793 
C 58.692894 143.557376 64.4862 147.428339 70.861681 150.06915 
C 77.237163 152.709961 84.070833 154.069262 90.971605 154.069262 
C 97.872377 154.069262 104.706047 152.709961 111.081529 150.06915 
C 117.45701 147.428339 123.250316 143.557376 128.129899 138.677793 
C 133.009481 133.798211 136.880444 128.004905 139.521255 121.629423 
C 142.162066 115.253941 143.521368 108.420271 143.521368 101.519499 
" clip-path="url(#p30ea1f1e95)" style="fill: none; stroke: #b0b0b0; stroke-width: 0.5; stroke-linecap: square"/>
     </g>
     <g id="text_12">
      <!-- $\mathdefault{0.8}$ -->
      <g transform="translate(139.521255 119.90396) scale(0.08 -0.08)">
       <use xlink:href="#NimbusRomNo9L-Regu-30" transform="scale(0.996264)"/>
       <use xlink:href="#CMMI10-3a" transform="translate(49.8132 0) scale(0.996264)"/>
       <use xlink:href="#NimbusRomNo9L-Regu-38" transform="translate(77.408707 0) scale(0.996264)"/>
      </g>
     </g>
    </g>
    <g id="ytick_5">
     <g id="line2d_13">
      <path d="M 156.658809 101.519499 
C 156.658809 92.893535 154.959682 84.351447 151.658668 76.382095 
C 148.357654 68.412743 143.51895 61.17111 137.419472 55.071632 
C 131.319994 48.972154 124.078362 44.13345 116.10901 40.832436 
C 108.139657 37.531423 99.59757 35.832296 90.971605 35.832296 
C 82.34564 35.832296 73.803552 37.531423 65.8342 40.832436 
C 57.864848 44.13345 50.623216 48.972154 44.523738 55.071632 
C 38.42426 61.17111 33.585556 68.412743 30.284542 76.382095 
C 26.983528 84.351447 25.284401 92.893535 25.284401 101.519499 
C 25.284401 110.145464 26.983528 118.687552 30.284542 126.656904 
C 33.585556 134.626256 38.42426 141.867889 44.523738 147.967367 
C 50.623216 154.066845 57.864848 158.905549 65.8342 162.206563 
C 73.803552 165.507576 82.34564 167.206703 90.971605 167.206703 
C 99.59757 167.206703 108.139657 165.507576 116.10901 162.206563 
C 124.078362 158.905549 131.319994 154.066845 137.419472 147.967367 
C 143.51895 141.867889 148.357654 134.626256 151.658668 126.656904 
C 154.959682 118.687552 156.658809 110.145464 156.658809 101.519499 
" clip-path="url(#p30ea1f1e95)" style="fill: none; stroke: #b0b0b0; stroke-width: 0.5; stroke-linecap: square"/>
     </g>
     <g id="text_13">
      <!-- $\mathdefault{1.0}$ -->
      <g transform="translate(151.658668 124.931441) scale(0.08 -0.08)">
       <use xlink:href="#NimbusRomNo9L-Regu-31" transform="scale(0.996264)"/>
       <use xlink:href="#CMMI10-3a" transform="translate(49.8132 0) scale(0.996264)"/>
       <use xlink:href="#NimbusRomNo9L-Regu-30" transform="translate(77.408707 0) scale(0.996264)"/>
      </g>
     </g>
    </g>
   </g>
   <g id="line2d_14">
    <path d="M 156.658809 101.519499 
L 156.568787 98.081697 
L 156.298967 94.653317 
L 155.85009 91.243757 
L 155.223386 87.862362 
L 154.420572 84.5184 
L 153.443848 81.221037 
L 152.295893 77.979311 
L 150.979852 74.802107 
L 149.499332 71.698133 
L 147.858392 68.675897 
L 146.061529 65.743684 
L 144.113669 62.90953 
L 142.02015 60.181203 
L 139.786711 57.566181 
L 137.419472 55.071632 
L 134.924923 52.704394 
L 132.309902 50.470954 
L 129.581575 48.377435 
L 126.74742 46.429575 
L 123.815207 44.632712 
L 120.792971 42.991772 
L 117.688998 41.511253 
L 114.511793 40.195212 
L 111.270067 39.047256 
L 107.972704 38.070533 
L 104.628743 37.267719 
L 101.247348 36.641014 
L 97.837787 36.192137 
L 94.409408 35.922318 
L 90.971605 35.832296 
L 87.533802 35.922318 
L 84.105422 36.192137 
L 80.695862 36.641014 
L 77.314467 37.267719 
L 73.970506 38.070533 
L 70.673143 39.047256 
L 67.431416 40.195212 
L 64.254212 41.511253 
L 61.150238 42.991772 
L 58.128003 44.632712 
L 55.19579 46.429575 
L 52.361635 48.377435 
L 49.633308 50.470954 
L 47.018286 52.704394 
L 44.523738 55.071632 
L 42.156499 57.566181 
L 39.92306 60.181203 
L 37.829541 62.90953 
L 35.88168 65.743684 
L 34.084818 68.675897 
L 32.443878 71.698133 
L 30.963358 74.802107 
L 29.647317 77.979311 
L 28.499362 81.221037 
L 27.522638 84.5184 
L 26.719824 87.862362 
L 26.09312 91.243757 
L 25.644243 94.653317 
L 25.374423 98.081697 
L 25.284401 101.519499 
L 25.374423 104.957302 
L 25.644243 108.385682 
L 26.09312 111.795242 
L 26.719824 115.176637 
L 27.522638 118.520599 
L 28.499362 121.817962 
L 29.647317 125.059688 
L 30.963358 128.236892 
L 32.443878 131.340866 
L 34.084818 134.363101 
L 35.88168 137.295315 
L 37.829541 140.129469 
L 39.92306 142.857796 
L 42.156499 145.472818 
L 44.523738 147.967367 
L 47.018286 150.334605 
L 49.633308 152.568045 
L 52.361635 154.661564 
L 55.19579 156.609424 
L 58.128003 158.406287 
L 61.150238 160.047227 
L 64.254212 161.527746 
L 67.431416 162.843787 
L 70.673143 163.991743 
L 73.970506 164.968466 
L 77.314467 165.77128 
L 80.695862 166.397985 
L 84.105422 166.846862 
L 87.533802 167.116681 
L 90.971605 167.206703 
L 94.409408 167.116681 
L 97.837787 166.846862 
L 101.247348 166.397985 
L 104.628743 165.77128 
L 107.972704 164.968466 
L 111.270067 163.991743 
L 114.511793 162.843787 
L 117.688998 161.527746 
L 120.792971 160.047227 
L 123.815207 158.406287 
L 126.74742 156.609424 
L 129.581575 154.661564 
L 132.309902 152.568045 
L 134.924923 150.334605 
L 137.419472 147.967367 
L 139.786711 145.472818 
L 142.02015 142.857796 
L 144.113669 140.129469 
L 146.061529 137.295315 
L 147.858392 134.363101 
L 149.499332 131.340866 
L 150.979852 128.236892 
L 152.295893 125.059688 
L 153.443848 121.817962 
L 154.420572 118.520599 
L 155.223386 115.176637 
L 155.85009 111.795242 
L 156.298967 108.385682 
L 156.568787 104.957302 
L 156.658809 101.519499 
L 156.658809 101.519499 
" clip-path="url(#p30ea1f1e95)" style="fill: none; stroke: #000000; stroke-linecap: square"/>
   </g>
   <g id="line2d_15">
    <path d="M 156.658809 101.519499 
L 156.568787 98.081697 
L 156.298967 94.653317 
L 155.85009 91.243757 
L 155.223386 87.862362 
L 154.420572 84.5184 
L 153.443848 81.221037 
L 152.295893 77.979311 
L 150.979852 74.802107 
L 149.499332 71.698133 
L 147.858392 68.675897 
L 146.061529 65.743684 
L 144.113669 62.90953 
L 142.02015 60.181203 
L 139.786711 57.566181 
L 137.419472 55.071632 
L 134.924923 52.704394 
L 132.309902 50.470954 
L 129.581575 48.377435 
L 126.74742 46.429575 
L 123.815207 44.632712 
L 120.792971 42.991772 
L 117.688998 41.511253 
L 114.511793 40.195212 
L 111.270067 39.047256 
L 107.972704 38.070533 
L 104.628743 37.267719 
L 101.247348 36.641014 
L 97.837787 36.192137 
L 94.409408 35.922318 
L 90.971605 35.832296 
L 87.533802 35.922318 
L 84.105422 36.192137 
L 80.695862 36.641014 
L 77.314467 37.267719 
L 73.970506 38.070533 
L 70.673143 39.047256 
L 67.431416 40.195212 
L 64.254212 41.511253 
L 61.150238 42.991772 
L 58.128003 44.632712 
L 55.19579 46.429575 
L 52.361635 48.377435 
L 49.633308 50.470954 
L 47.018286 52.704394 
L 44.523738 55.071632 
L 42.156499 57.566181 
L 39.92306 60.181203 
L 37.829541 62.90953 
L 35.88168 65.743684 
L 34.084818 68.675897 
L 32.443878 71.698133 
L 30.963358 74.802107 
L 29.647317 77.979311 
L 28.499362 81.221037 
L 27.522638 84.5184 
L 26.719824 87.862362 
L 26.09312 91.243757 
L 25.644243 94.653317 
L 25.374423 98.081697 
L 25.284401 101.519499 
L 25.374423 104.957302 
L 25.644243 108.385682 
L 26.09312 111.795242 
L 26.719824 115.176637 
L 27.522638 118.520599 
L 28.499362 121.817962 
L 29.647317 125.059688 
L 30.963358 128.236892 
L 32.443878 131.340866 
L 34.084818 134.363101 
L 35.88168 137.295315 
L 37.829541 140.129469 
L 39.92306 142.857796 
L 42.156499 145.472818 
L 44.523738 147.967367 
L 47.018286 150.334605 
L 49.633308 152.568045 
L 52.361635 154.661564 
L 55.19579 156.609424 
L 58.128003 158.406287 
L 61.150238 160.047227 
L 64.254212 161.527746 
L 67.431416 162.843787 
L 70.673143 163.991743 
L 73.970506 164.968466 
L 77.314467 165.77128 
L 80.695862 166.397985 
L 84.105422 166.846862 
L 87.533802 167.116681 
L 90.971605 167.206703 
L 94.409408 167.116681 
L 97.837787 166.846862 
L 101.247348 166.397985 
L 104.628743 165.77128 
L 107.972704 164.968466 
L 111.270067 163.991743 
L 114.511793 162.843787 
L 117.688998 161.527746 
L 120.792971 160.047227 
L 123.815207 158.406287 
L 126.74742 156.609424 
L 129.581575 154.661564 
L 132.309902 152.568045 
L 134.924923 150.334605 
L 137.419472 147.967367 
L 139.786711 145.472818 
L 142.02015 142.857796 
L 144.113669 140.129469 
L 146.061529 137.295315 
L 147.858392 134.363101 
L 149.499332 131.340866 
L 150.979852 128.236892 
L 152.295893 125.059688 
L 153.443848 121.817962 
L 154.420572 118.520599 
L 155.223386 115.176637 
L 155.85009 111.795242 
L 156.298967 108.385682 
L 156.568787 104.957302 
L 156.658809 101.519499 
L 156.658809 101.519499 
" clip-path="url(#p30ea1f1e95)" style="fill: none; stroke-dasharray: 3.7,1.6; stroke-dashoffset: 0; stroke: #ff0000"/>
   </g>
   <g id="line2d_16">
    <path d="M 156.658809 101.519499 
L 156.568787 98.081697 
L 156.298967 94.653317 
L 155.85009 91.243757 
L 155.223386 87.862362 
L 154.420572 84.5184 
L 153.443848 81.221037 
L 152.295893 77.979311 
L 150.979852 74.802107 
L 149.499332 71.698133 
L 147.858392 68.675897 
L 146.061529 65.743684 
L 144.113669 62.90953 
L 142.02015 60.181203 
L 139.786711 57.566181 
L 137.419472 55.071632 
L 134.924923 52.704394 
L 132.309902 50.470954 
L 129.581575 48.377435 
L 126.74742 46.429575 
L 123.815207 44.632712 
L 120.792971 42.991772 
L 117.688998 41.511253 
L 114.511793 40.195212 
L 111.270067 39.047256 
L 107.972704 38.070533 
L 104.628743 37.267719 
L 101.247348 36.641014 
L 97.837787 36.192137 
L 94.409408 35.922318 
L 90.971605 35.832296 
L 87.533802 35.922318 
L 84.105422 36.192137 
L 80.695862 36.641014 
L 77.314467 37.267719 
L 73.970506 38.070533 
L 70.673143 39.047256 
L 67.431416 40.195212 
L 64.254212 41.511253 
L 61.150238 42.991772 
L 58.128003 44.632712 
L 55.19579 46.429575 
L 52.361635 48.377435 
L 49.633308 50.470954 
L 47.018286 52.704394 
L 44.523738 55.071632 
L 42.156499 57.566181 
L 39.92306 60.181203 
L 37.829541 62.90953 
L 35.88168 65.743684 
L 34.084818 68.675897 
L 32.443878 71.698133 
L 30.963358 74.802107 
L 29.647317 77.979311 
L 28.499362 81.221037 
L 27.522638 84.5184 
L 26.719824 87.862362 
L 26.09312 91.243757 
L 25.644243 94.653317 
L 25.374423 98.081697 
L 25.284401 101.519499 
L 25.374423 104.957302 
L 25.644243 108.385682 
L 26.09312 111.795242 
L 26.719824 115.176637 
L 27.522638 118.520599 
L 28.499362 121.817962 
L 29.647317 125.059688 
L 30.963358 128.236892 
L 32.443878 131.340866 
L 34.084818 134.363101 
L 35.88168 137.295315 
L 37.829541 140.129469 
L 39.92306 142.857796 
L 42.156499 145.472818 
L 44.523738 147.967367 
L 47.018286 150.334605 
L 49.633308 152.568045 
L 52.361635 154.661564 
L 55.19579 156.609424 
L 58.128003 158.406287 
L 61.150238 160.047227 
L 64.254212 161.527746 
L 67.431416 162.843787 
L 70.673143 163.991743 
L 73.970506 164.968466 
L 77.314467 165.77128 
L 80.695862 166.397985 
L 84.105422 166.846862 
L 87.533802 167.116681 
L 90.971605 167.206703 
L 94.409408 167.116681 
L 97.837787 166.846862 
L 101.247348 166.397985 
L 104.628743 165.77128 
L 107.972704 164.968466 
L 111.270067 163.991743 
L 114.511793 162.843787 
L 117.688998 161.527746 
L 120.792971 160.047227 
L 123.815207 158.406287 
L 126.74742 156.609424 
L 129.581575 154.661564 
L 132.309902 152.568045 
L 134.924923 150.334605 
L 137.419472 147.967367 
L 139.786711 145.472818 
L 142.02015 142.857796 
L 144.113669 140.129469 
L 146.061529 137.295315 
L 147.858392 134.363101 
L 149.499332 131.340866 
L 150.979852 128.236892 
L 152.295893 125.059688 
L 153.443848 121.817962 
L 154.420572 118.520599 
L 155.223386 115.176637 
L 155.85009 111.795242 
L 156.298967 108.385682 
L 156.568787 104.957302 
L 156.658809 101.519499 
L 156.658809 101.519499 
" clip-path="url(#p30ea1f1e95)" style="fill: none; stroke-dasharray: 1,1.65; stroke-dashoffset: 0; stroke: #0000ff"/>
   </g>
   <g id="patch_3">
    <path d="M 160.271605 101.519499 
C 160.271605 92.419107 158.479026 83.407204 154.996457 74.999538 
C 151.513887 66.591871 146.409054 58.951949 139.974105 52.516999 
C 133.539156 46.08205 125.899233 40.977217 117.491567 37.494648 
C 109.0839 34.012078 100.071998 32.219499 90.971605 32.219499 
C 81.871212 32.219499 72.85931 34.012078 64.451643 37.494648 
C 56.043977 40.977217 48.404054 46.08205 41.969105 52.516999 
C 35.534156 58.951949 30.429323 66.591871 26.946753 74.999538 
C 23.464184 83.407204 21.671605 92.419107 21.671605 101.519499 
C 21.671605 110.619892 23.464184 119.631795 26.946753 128.039461 
C 30.429323 136.447128 35.534156 144.08705 41.969105 150.521999 
C 48.404054 156.956949 56.043977 162.061782 64.451643 165.544351 
C 72.85931 169.02692 81.871212 170.819499 90.971605 170.819499 
C 100.071998 170.819499 109.0839 169.02692 117.491567 165.544351 
C 125.899233 162.061782 133.539156 156.956949 139.974105 150.521999 
C 146.409054 144.08705 151.513887 136.447128 154.996457 128.039461 
C 158.479026 119.631795 160.271605 110.619892 160.271605 101.519499 
" style="fill: none; stroke: #000000; stroke-width: 0.5; stroke-linejoin: miter; stroke-linecap: square"/>
   </g>
   <g id="text_14">
    <!-- Polarization Pattern free_space_circular -->
    <g transform="translate(15.894083 10.084396) scale(0.096 -0.096)">
     <defs>
      <path id="NimbusRomNo9L-Regu-50" d="M 1293 1875 
C 1459 1856 1568 1856 1734 1856 
C 2234 1856 2579 1919 2854 2072 
C 3238 2274 3469 2660 3469 3078 
C 3469 3344 3379 3584 3206 3768 
C 2950 4047 2394 4224 1792 4224 
L 102 4224 
L 102 4102 
C 576 4051 640 3987 640 3528 
L 640 766 
C 640 230 589 166 102 122 
L 102 0 
L 1894 0 
L 1894 128 
C 1389 128 1293 218 1293 693 
L 1293 1875 
z
M 1293 3772 
C 1293 3943 1338 3987 1510 3987 
C 2374 3987 2771 3690 2771 3040 
C 2771 2428 2394 2112 1658 2112 
C 1530 2112 1440 2119 1293 2131 
L 1293 3772 
z
" transform="scale(0.015625)"/>
      <path id="NimbusRomNo9L-Regu-6f" d="M 1600 2944 
C 768 2944 186 2330 186 1446 
C 186 582 781 -64 1587 -64 
C 2394 -64 3008 614 3008 1498 
C 3008 2336 2419 2944 1600 2944 
z
M 1517 2765 
C 2054 2765 2432 2150 2432 1274 
C 2432 550 2144 115 1664 115 
C 1414 115 1178 269 1043 525 
C 864 858 762 1306 762 1760 
C 762 2368 1062 2765 1517 2765 
z
" transform="scale(0.015625)"/>
      <path id="NimbusRomNo9L-Regu-6c" d="M 122 4000 
L 160 4000 
C 230 4000 307 4000 358 4000 
C 563 4000 627 3910 627 3610 
L 627 557 
C 627 211 538 128 134 96 
L 134 0 
L 1645 0 
L 1645 109 
C 1242 109 1165 173 1165 528 
L 1165 4371 
L 1139 4384 
C 806 4275 563 4211 122 4103 
L 122 4000 
z
" transform="scale(0.015625)"/>
      <path id="NimbusRomNo9L-Regu-61" d="M 2829 423 
C 2720 333 2643 301 2547 301 
C 2400 301 2355 390 2355 672 
L 2355 1920 
C 2355 2253 2323 2438 2227 2592 
C 2086 2822 1811 2944 1434 2944 
C 832 2944 358 2630 358 2227 
C 358 2080 486 1952 634 1952 
C 787 1952 922 2080 922 2221 
C 922 2246 915 2278 909 2323 
C 896 2381 890 2432 890 2477 
C 890 2650 1094 2790 1350 2790 
C 1664 2790 1837 2605 1837 2259 
L 1837 1869 
C 851 1472 742 1421 467 1178 
C 326 1050 237 832 237 621 
C 237 218 518 -64 909 -64 
C 1190 -64 1453 70 1843 403 
C 1875 70 1990 -64 2253 -64 
C 2470 -64 2605 13 2829 256 
L 2829 423 
z
M 1837 783 
C 1837 584 1805 526 1670 449 
C 1517 359 1338 301 1203 301 
C 979 301 800 520 800 796 
L 800 822 
C 800 1201 1062 1433 1837 1715 
L 1837 783 
z
" transform="scale(0.015625)"/>
      <path id="NimbusRomNo9L-Regu-72" d="M 45 2496 
C 134 2515 192 2522 269 2522 
C 429 2522 486 2419 486 2138 
L 486 538 
C 486 218 442 173 32 96 
L 32 0 
L 1568 0 
L 1568 102 
C 1133 102 1024 199 1024 565 
L 1024 2013 
C 1024 2219 1299 2541 1472 2541 
C 1510 2541 1568 2509 1638 2445 
C 1741 2355 1811 2317 1894 2317 
C 2048 2317 2144 2426 2144 2605 
C 2144 2816 2010 2944 1792 2944 
C 1523 2944 1338 2797 1024 2343 
L 1024 2931 
L 992 2944 
C 653 2803 422 2721 45 2599 
L 45 2496 
z
" transform="scale(0.015625)"/>
      <path id="NimbusRomNo9L-Regu-69" d="M 1120 2929 
L 128 2579 
L 128 2484 
L 179 2490 
C 256 2502 339 2509 397 2509 
C 550 2509 608 2406 608 2125 
L 608 640 
C 608 179 544 109 102 109 
L 102 0 
L 1619 0 
L 1619 96 
C 1197 128 1146 191 1146 650 
L 1146 2910 
L 1120 2929 
z
M 819 4352 
C 646 4352 499 4205 499 4026 
C 499 3847 640 3699 819 3699 
C 1005 3699 1152 3840 1152 4026 
C 1152 4205 1005 4352 819 4352 
z
" transform="scale(0.015625)"/>
      <path id="NimbusRomNo9L-Regu-7a" d="M 2675 864 
L 2560 890 
C 2496 570 2458 467 2374 358 
C 2285 250 2067 192 1741 192 
L 858 192 
L 2579 2784 
L 2579 2880 
L 358 2880 
L 339 2125 
L 454 2125 
C 512 2592 608 2688 992 2688 
L 1875 2688 
L 173 96 
L 173 0 
L 2586 0 
L 2675 864 
z
" transform="scale(0.015625)"/>
      <path id="NimbusRomNo9L-Regu-74" d="M 1632 2880 
L 986 2880 
L 986 3622 
C 986 3686 979 3706 941 3706 
C 896 3648 858 3590 813 3526 
C 570 3174 294 2867 192 2841 
C 122 2794 83 2748 83 2715 
C 83 2695 90 2682 109 2682 
L 448 2682 
L 448 751 
C 448 212 640 -64 1018 -64 
C 1331 -64 1574 90 1786 423 
L 1702 493 
C 1568 333 1459 269 1318 269 
C 1082 269 986 443 986 847 
L 986 2682 
L 1632 2682 
L 1632 2880 
z
" transform="scale(0.015625)"/>
      <path id="NimbusRomNo9L-Regu-6e" d="M 102 2579 
C 141 2598 205 2605 275 2605 
C 454 2605 512 2509 512 2195 
L 512 608 
C 512 243 442 154 115 128 
L 115 32 
L 1472 32 
L 1472 128 
C 1146 154 1050 230 1050 461 
L 1050 2259 
C 1357 2547 1498 2624 1709 2624 
C 2022 2624 2176 2426 2176 2003 
L 2176 666 
C 2176 262 2093 154 1773 128 
L 1773 32 
L 3104 32 
L 3104 128 
C 2790 160 2714 237 2714 550 
L 2714 2016 
C 2714 2618 2432 2976 1958 2976 
C 1664 2976 1466 2867 1030 2458 
L 1030 2963 
L 986 2976 
C 672 2861 454 2790 102 2688 
L 102 2579 
z
" transform="scale(0.015625)"/>
      <path id="NimbusRomNo9L-Regu-65" d="M 2611 1053 
C 2304 564 2029 378 1619 378 
C 1254 378 979 564 794 930 
C 678 1174 634 1386 621 1779 
L 2592 1779 
C 2541 2193 2477 2377 2317 2581 
C 2125 2811 1830 2944 1498 2944 
C 1178 2944 877 2829 634 2611 
C 333 2349 160 1894 160 1370 
C 160 486 621 -64 1357 -64 
C 1965 -64 2445 315 2714 1008 
L 2611 1053 
z
M 634 1984 
C 704 2479 922 2714 1312 2714 
C 1702 2714 1856 2535 1939 1984 
L 634 1984 
z
" transform="scale(0.015625)"/>
      <path id="NimbusRomNo9L-Regu-66" d="M 1978 2880 
L 1190 2880 
L 1190 3611 
C 1190 3978 1312 4173 1555 4173 
C 1690 4173 1779 4110 1894 3927 
C 1997 3763 2074 3700 2182 3700 
C 2330 3700 2451 3814 2451 3959 
C 2451 4188 2170 4352 1786 4352 
C 1389 4352 1050 4181 883 3891 
C 717 3613 666 3385 659 2880 
L 134 2880 
L 134 2675 
L 659 2675 
L 659 656 
C 659 185 589 109 128 109 
L 128 0 
L 1792 0 
L 1792 109 
C 1267 109 1197 180 1197 661 
L 1197 2675 
L 1978 2675 
L 1978 2880 
z
" transform="scale(0.015625)"/>
      <path id="NimbusRomNo9L-Regu-73" d="M 2016 2010 
L 1990 2880 
L 1920 2880 
L 1907 2867 
C 1850 2822 1843 2816 1818 2816 
C 1779 2816 1715 2829 1645 2861 
C 1504 2915 1363 2944 1197 2944 
C 691 2944 326 2616 326 2154 
C 326 1796 531 1539 1075 1231 
L 1446 1020 
C 1670 892 1779 737 1779 539 
C 1779 256 1574 77 1248 77 
C 1030 77 832 159 710 298 
C 576 455 518 600 435 960 
L 333 960 
L 333 -39 
L 416 -39 
C 461 33 486 48 563 48 
C 621 48 710 35 858 -2 
C 1037 -39 1210 -64 1325 -64 
C 1818 -64 2227 308 2227 757 
C 2227 1077 2074 1289 1690 1520 
L 998 1930 
C 819 2033 723 2194 723 2367 
C 723 2624 922 2803 1216 2803 
C 1581 2803 1773 2583 1920 2010 
L 2016 2010 
z
" transform="scale(0.015625)"/>
      <path id="NimbusRomNo9L-Regu-70" d="M 58 2516 
C 115 2522 160 2522 218 2522 
C 435 2522 480 2458 480 2155 
L 480 -855 
C 480 -1189 410 -1261 32 -1299 
L 32 -1408 
L 1581 -1408 
L 1581 -1293 
C 1101 -1293 1018 -1222 1018 -816 
L 1018 199 
C 1242 -13 1395 -77 1664 -77 
C 2419 -77 3008 643 3008 1575 
C 3008 2372 2560 2944 1939 2944 
C 1581 2944 1299 2784 1018 2438 
L 1018 2931 
L 979 2944 
C 634 2810 410 2726 58 2618 
L 58 2516 
z
M 1018 2136 
C 1018 2329 1376 2560 1670 2560 
C 2144 2560 2458 2071 2458 1324 
C 2458 611 2144 128 1683 128 
C 1382 128 1018 359 1018 552 
L 1018 2136 
z
" transform="scale(0.015625)"/>
      <path id="NimbusRomNo9L-Regu-63" d="M 2547 998 
C 2240 550 2010 397 1645 397 
C 1062 397 653 909 653 1645 
C 653 2304 1005 2758 1523 2758 
C 1754 2758 1837 2688 1901 2451 
L 1939 2310 
C 1990 2131 2106 2016 2240 2016 
C 2406 2016 2547 2138 2547 2285 
C 2547 2643 2099 2944 1562 2944 
C 1248 2944 922 2816 659 2586 
C 339 2304 160 1869 160 1363 
C 160 531 666 -64 1376 -64 
C 1664 -64 1920 38 2150 237 
C 2323 390 2445 563 2637 941 
L 2547 998 
z
" transform="scale(0.015625)"/>
      <path id="NimbusRomNo9L-Regu-75" d="M 3066 320 
L 3034 320 
C 2739 320 2669 390 2669 685 
L 2669 2880 
L 1658 2880 
L 1658 2758 
C 2054 2758 2131 2694 2131 2375 
L 2131 875 
C 2131 697 2099 607 2010 537 
C 1837 397 1638 320 1446 320 
C 1197 320 992 537 992 805 
L 992 2880 
L 58 2880 
L 58 2778 
C 365 2778 454 2682 454 2387 
L 454 770 
C 454 263 762 -64 1229 -64 
C 1466 -64 1715 38 1888 211 
L 2163 486 
L 2163 -45 
L 2189 -58 
C 2509 70 2739 141 3066 230 
L 3066 320 
z
" transform="scale(0.015625)"/>
     </defs>
     <use xlink:href="#NimbusRomNo9L-Regu-50" transform="scale(0.996264)"/>
     <use xlink:href="#NimbusRomNo9L-Regu-6f" transform="translate(55.391677 0) scale(0.996264)"/>
     <use xlink:href="#NimbusRomNo9L-Regu-6c" transform="translate(105.204877 0) scale(0.996264)"/>
     <use xlink:href="#NimbusRomNo9L-Regu-61" transform="translate(132.900047 0) scale(0.996264)"/>
     <use xlink:href="#NimbusRomNo9L-Regu-72" transform="translate(177.133616 0) scale(0.996264)"/>
     <use xlink:href="#NimbusRomNo9L-Regu-69" transform="translate(210.308845 0) scale(0.996264)"/>
     <use xlink:href="#NimbusRomNo9L-Regu-7a" transform="translate(238.004015 0) scale(0.996264)"/>
     <use xlink:href="#NimbusRomNo9L-Regu-61" transform="translate(282.237584 0) scale(0.996264)"/>
     <use xlink:href="#NimbusRomNo9L-Regu-74" transform="translate(326.471152 0) scale(0.996264)"/>
     <use xlink:href="#NimbusRomNo9L-Regu-69" transform="translate(354.166322 0) scale(0.996264)"/>
     <use xlink:href="#NimbusRomNo9L-Regu-6f" transform="translate(381.861492 0) scale(0.996264)"/>
     <use xlink:href="#NimbusRomNo9L-Regu-6e" transform="translate(431.674692 0) scale(0.996264)"/>
     <use xlink:href="#NimbusRomNo9L-Regu-50" transform="translate(506.394493 0) scale(0.996264)"/>
     <use xlink:href="#NimbusRomNo9L-Regu-61" transform="translate(560.292777 0) scale(0.996264)"/>
     <use xlink:href="#NimbusRomNo9L-Regu-74" transform="translate(604.526346 0) scale(0.996264)"/>
     <use xlink:href="#NimbusRomNo9L-Regu-74" transform="translate(632.221516 0) scale(0.996264)"/>
     <use xlink:href="#NimbusRomNo9L-Regu-65" transform="translate(659.916685 0) scale(0.996264)"/>
     <use xlink:href="#NimbusRomNo9L-Regu-72" transform="translate(704.150254 0) scale(0.996264)"/>
     <use xlink:href="#NimbusRomNo9L-Regu-6e" transform="translate(737.325484 0) scale(0.996264)"/>
     <use xlink:href="#NimbusRomNo9L-Regu-66" transform="translate(812.045284 0) scale(0.996264)"/>
     <use xlink:href="#NimbusRomNo9L-Regu-72" transform="translate(845.220514 0) scale(0.996264)"/>
     <use xlink:href="#NimbusRomNo9L-Regu-65" transform="translate(878.395744 0) scale(0.996264)"/>
     <use xlink:href="#NimbusRomNo9L-Regu-65" transform="translate(922.629312 0) scale(0.996264)"/>
     <use xlink:href="#NimbusRomNo9L-Regu-73" transform="translate(1002.728446 0) scale(0.996264)"/>
     <use xlink:href="#NimbusRomNo9L-Regu-70" transform="translate(1041.482152 0) scale(0.996264)"/>
     <use xlink:href="#NimbusRomNo9L-Regu-61" transform="translate(1091.295353 0) scale(0.996264)"/>
     <use xlink:href="#NimbusRomNo9L-Regu-63" transform="translate(1135.528922 0) scale(0.996264)"/>
     <use xlink:href="#NimbusRomNo9L-Regu-65" transform="translate(1179.76249 0) scale(0.996264)"/>
     <use xlink:href="#NimbusRomNo9L-Regu-63" transform="translate(1259.861624 0) scale(0.996264)"/>
     <use xlink:href="#NimbusRomNo9L-Regu-69" transform="translate(1304.095193 0) scale(0.996264)"/>
     <use xlink:href="#NimbusRomNo9L-Regu-72" transform="translate(1331.790363 0) scale(0.996264)"/>
     <use xlink:href="#NimbusRomNo9L-Regu-63" transform="translate(1364.965592 0) scale(0.996264)"/>
     <use xlink:href="#NimbusRomNo9L-Regu-75" transform="translate(1409.199161 0) scale(0.996264)"/>
     <use xlink:href="#NimbusRomNo9L-Regu-6c" transform="translate(1459.012361 0) scale(0.996264)"/>
     <use xlink:href="#NimbusRomNo9L-Regu-61" transform="translate(1486.707531 0) scale(0.996264)"/>
     <use xlink:href="#NimbusRomNo9L-Regu-72" transform="translate(1530.9411 0) scale(0.996264)"/>
     <path d="M 972.840222 0 
L 1002.728446 0 
L 1002.728446 0.3985 
L 972.840222 0.3985 
L 972.840222 0 
z
"/>
     <path d="M 1229.9734 0 
L 1259.861624 0 
L 1259.861624 0.3985 
L 1229.9734 0.3985 
L 1229.9734 0 
z
"/>
    </g>
   </g>
   <g id="legend_1">
    <g id="text_15">
     <!-- H -->
     <g transform="translate(88.094409 90.61745) scale(0.08 -0.08)">
      <defs>
       <path id="NimbusRomNo9L-Regu-48" d="M 1338 2304 
L 1338 3533 
C 1338 3990 1408 4059 1901 4104 
L 1901 4224 
L 122 4224 
L 122 4104 
C 614 4059 685 3989 685 3527 
L 685 749 
C 685 210 621 134 122 134 
L 122 0 
L 1901 0 
L 1901 121 
C 1421 159 1338 242 1338 699 
L 1338 2022 
L 3277 2022 
L 3277 757 
C 3277 211 3213 134 2714 134 
L 2714 0 
L 4493 0 
L 4493 121 
C 4013 159 3930 242 3930 696 
L 3930 3529 
C 3930 3989 4000 4059 4493 4104 
L 4493 4224 
L 2714 4224 
L 2714 4104 
C 3206 4059 3277 3990 3277 3533 
L 3277 2304 
L 1338 2304 
z
" transform="scale(0.015625)"/>
      </defs>
      <use xlink:href="#NimbusRomNo9L-Regu-48" transform="scale(0.996264)"/>
     </g>
    </g>
    <g id="line2d_17">
     <path d="M 77.341219 97.442913 
L 83.341219 97.442913 
L 89.341219 97.442913 
" style="fill: none; stroke: #000000; stroke-linecap: square"/>
    </g>
    <g id="text_16">
     <!-- 0.24 -->
     <g transform="translate(94.141219 99.542913) scale(0.06 -0.06)">
      <defs>
       <path id="NimbusRomNo9L-Regu-2e" d="M 800 646 
C 608 646 448 480 448 281 
C 448 96 608 -64 794 -64 
C 992 -64 1158 96 1158 281 
C 1158 480 992 646 800 646 
z
" transform="scale(0.015625)"/>
      </defs>
      <use xlink:href="#NimbusRomNo9L-Regu-30" transform="scale(0.996264)"/>
      <use xlink:href="#NimbusRomNo9L-Regu-2e" transform="translate(49.8132 0) scale(0.996264)"/>
      <use xlink:href="#NimbusRomNo9L-Regu-32" transform="translate(74.719801 0) scale(0.996264)"/>
      <use xlink:href="#NimbusRomNo9L-Regu-34" transform="translate(124.533001 0) scale(0.996264)"/>
     </g>
    </g>
    <g id="line2d_18">
     <path d="M 77.341219 105.93701 
L 83.341219 105.93701 
L 89.341219 105.93701 
" style="fill: none; stroke-dasharray: 3.7,1.6; stroke-dashoffset: 0; stroke: #ff0000"/>
    </g>
    <g id="text_17">
     <!-- 0.42 -->
     <g transform="translate(94.141219 108.03701) scale(0.06 -0.06)">
      <use xlink:href="#NimbusRomNo9L-Regu-30" transform="scale(0.996264)"/>
      <use xlink:href="#NimbusRomNo9L-Regu-2e" transform="translate(49.8132 0) scale(0.996264)"/>
      <use xlink:href="#NimbusRomNo9L-Regu-34" transform="translate(74.719801 0) scale(0.996264)"/>
      <use xlink:href="#NimbusRomNo9L-Regu-32" transform="translate(124.533001 0) scale(0.996264)"/>
     </g>
    </g>
    <g id="line2d_19">
     <path d="M 77.341219 114.431108 
L 83.341219 114.431108 
L 89.341219 114.431108 
" style="fill: none; stroke-dasharray: 1,1.65; stroke-dashoffset: 0; stroke: #0000ff"/>
    </g>
    <g id="text_18">
     <!-- 0.59 -->
     <g transform="translate(94.141219 116.531108) scale(0.06 -0.06)">
      <use xlink:href="#NimbusRomNo9L-Regu-30" transform="scale(0.996264)"/>
      <use xlink:href="#NimbusRomNo9L-Regu-2e" transform="translate(49.8132 0) scale(0.996264)"/>
      <use xlink:href="#NimbusRomNo9L-Regu-35" transform="translate(74.719801 0) scale(0.996264)"/>
      <use xlink:href="#NimbusRomNo9L-Regu-39" transform="translate(124.533001 0) scale(0.996264)"/>
     </g>
    </g>
   </g>
  </g>
 </g>
 <defs>
  <clipPath id="p30ea1f1e95">
   <path d="M 160.271605 101.519499 
C 160.271605 92.419107 158.479026 83.407204 154.996457 74.999538 
C 151.513887 66.591871 146.409054 58.951949 139.974105 52.516999 
C 133.539156 46.08205 125.899233 40.977217 117.491567 37.494648 
C 109.0839 34.012078 100.071998 32.219499 90.971605 32.219499 
C 81.871212 32.219499 72.85931 34.012078 64.451643 37.494648 
C 56.043977 40.977217 48.404054 46.08205 41.969105 52.516999 
C 35.534156 58.951949 30.429323 66.591871 26.946753 74.999538 
C 23.464184 83.407204 21.671605 92.419107 21.671605 101.519499 
C 21.671605 110.619892 23.464184 119.631795 26.946753 128.039461 
C 30.429323 136.447128 35.534156 144.08705 41.969105 150.521999 
C 48.404054 156.956949 56.043977 162.061782 64.451643 165.544351 
C 72.85931 169.02692 81.871212 170.819499 90.971605 170.819499 
C 100.071998 170.819499 109.0839 169.02692 117.491567 165.544351 
C 125.899233 162.061782 133.539156 156.956949 139.974105 150.521999 
C 146.409054 144.08705 151.513887 136.447128 154.996457 128.039461 
C 158.479026 119.631795 160.271605 110.619892 160.271605 101.519499 
M 90.971605 101.519499 
C 90.971605 101.519499 90.971605 101.519499 90.971605 101.519499 
C 90.971605 101.519499 90.971605 101.519499 90.971605 101.519499 
C 90.971605 101.519499 90.971605 101.519499 90.971605 101.519499 
C 90.971605 101.519499 90.971605 101.519499 90.971605 101.519499 
C 90.971605 101.519499 90.971605 101.519499 90.971605 101.519499 
C 90.971605 101.519499 90.971605 101.519499 90.971605 101.519499 
C 90.971605 101.519499 90.971605 101.519499 90.971605 101.519499 
C 90.971605 101.519499 90.971605 101.519499 90.971605 101.519499 
C 90.971605 101.519499 90.971605 101.519499 90.971605 101.519499 
C 90.971605 101.519499 90.971605 101.519499 90.971605 101.519499 
C 90.971605 101.519499 90.971605 101.519499 90.971605 101.519499 
C 90.971605 101.519499 90.971605 101.519499 90.971605 101.519499 
C 90.971605 101.519499 90.971605 101.519499 90.971605 101.519499 
C 90.971605 101.519499 90.971605 101.519499 90.971605 101.519499 
C 90.971605 101.519499 90.971605 101.519499 90.971605 101.519499 
C 90.971605 101.519499 90.971605 101.519499 90.971605 101.519499 
z
"/>
  </clipPath>
 </defs>
</svg>
