<?xml version="1.0" encoding="utf-8" standalone="no"?>
<!DOCTYPE svg PUBLIC "-//W3C//DTD SVG 1.1//EN"
  "http://www.w3.org/Graphics/SVG/1.1/DTD/svg11.dtd">
<svg xmlns:xlink="http://www.w3.org/1999/xlink" width="188.189153pt" height="188.484059pt" viewBox="0 0 188.189153 188.484059" xmlns="http://www.w3.org/2000/svg" version="1.1">
 <metadata>
  <rdf:RDF xmlns:dc="http://purl.org/dc/elements/1.1/" xmlns:cc="http://creativecommons.org/ns#" xmlns:rdf="http://www.w3.org/1999/02/22-rdf-syntax-ns#">
   <cc:Work>
    <dc:type rdf:resource="http://purl.org/dc/dcmitype/StillImage"/>
    <dc:date>2025-03-29T11:26:55.031165</dc:date>
    <dc:format>image/svg+xml</dc:format>
    <dc:creator>
     <cc:Agent>
      <dc:title>Matplotlib v3.9.2, https://matplotlib.org/</dc:title>
     </cc:Agent>
    </dc:creator>
   </cc:Work>
  </rdf:RDF>
 </metadata>
 <defs>
  <style type="text/css">*{stroke-linejoin: round; stroke-linecap: butt}</style>
 </defs>
 <g id="figure_1">
  <g id="patch_1">
   <path d="M 0 188.484059 
L 188.189153 188.484059 
L 188.189153 0 
L 0 0 
L 0 188.484059 
z
" style="fill: none"/>
  </g>
  <g id="axes_1">
   <g id="patch_2">
    <path d="M 163.394576 101.519499 
C 163.394576 92.419107 161.601997 83.407204 158.119428 74.999538 
C 154.636858 66.591871 149.532026 58.951949 143.097076 52.516999 
C 136.662127 46.08205 129.022205 40.977217 120.614538 37.494648 
C 112.206872 34.012078 103.194969 32.219499 94.094576 32.219499 
C 84.994184 32.219499 75.982281 34.012078 67.574614 37.494648 
C 59.166948 40.977217 51.527026 46.08205 45.092076 52.516999 
C 38.657127 58.951949 33.552294 66.591871 30.069725 74.999538 
C 26.587155 83.407204 24.794576 92.419107 24.794576 101.519499 
C 24.794576 110.619892 26.587155 119.631795 30.069725 128.039461 
C 33.552294 136.447128 38.657127 144.08705 45.092076 150.521999 
C 51.527026 156.956949 59.166948 162.061782 67.574614 165.544351 
C 75.982281 169.02692 84.994184 170.819499 94.094576 170.819499 
C 103.194969 170.819499 112.206872 169.02692 120.614538 165.544351 
C 129.022205 162.061782 136.662127 156.956949 143.097076 150.521999 
C 149.532026 144.08705 154.636858 136.447128 158.119428 128.039461 
C 161.601997 119.631795 163.394576 110.619892 163.394576 101.519499 
M 94.094576 101.519499 
C 94.094576 101.519499 94.094576 101.519499 94.094576 101.519499 
C 94.094576 101.519499 94.094576 101.519499 94.094576 101.519499 
C 94.094576 101.519499 94.094576 101.519499 94.094576 101.519499 
C 94.094576 101.519499 94.094576 101.519499 94.094576 101.519499 
C 94.094576 101.519499 94.094576 101.519499 94.094576 101.519499 
C 94.094576 101.519499 94.094576 101.519499 94.094576 101.519499 
C 94.094576 101.519499 94.094576 101.519499 94.094576 101.519499 
C 94.094576 101.519499 94.094576 101.519499 94.094576 101.519499 
C 94.094576 101.519499 94.094576 101.519499 94.094576 101.519499 
C 94.094576 101.519499 94.094576 101.519499 94.094576 101.519499 
C 94.094576 101.519499 94.094576 101.519499 94.094576 101.519499 
C 94.094576 101.519499 94.094576 101.519499 94.094576 101.519499 
C 94.094576 101.519499 94.094576 101.519499 94.094576 101.519499 
C 94.094576 101.519499 94.094576 101.519499 94.094576 101.519499 
C 94.094576 101.519499 94.094576 101.519499 94.094576 101.519499 
C 94.094576 101.519499 94.094576 101.519499 94.094576 101.519499 
L 94.094576 101.519499 
z
" style="fill: none"/>
   </g>
   <g id="matplotlib.axis_1">
    <g id="xtick_1">
     <g id="line2d_1">
      <path d="M 94.094576 101.519499 
L 163.394576 101.519499 
" clip-path="url(#pf01113dd19)" style="fill: none; stroke: #b0b0b0; stroke-width: 0.5; stroke-linecap: square"/>
     </g>
     <g id="text_1">
      <!-- 0° -->
      <g transform="translate(170.308027 103.358596) scale(0.08 -0.08)">
       <defs>
        <path id="NimbusRomNo9L-Regu-30" d="M 1626 4352 
C 1274 4352 1005 4244 768 4020 
C 397 3661 154 2925 154 2176 
C 154 1479 365 730 666 372 
C 902 90 1229 -64 1600 -64 
C 1926 -64 2202 45 2432 269 
C 2803 621 3046 1364 3046 2138 
C 3046 3450 2464 4352 1626 4352 
z
M 1606 4186 
C 2144 4186 2432 3463 2432 2125 
C 2432 788 2150 103 1600 103 
C 1050 103 768 788 768 2119 
C 768 3476 1056 4186 1606 4186 
z
" transform="scale(0.015625)"/>
        <path id="NimbusRomNo9L-Regu-b0" d="M 1280 4313 
C 768 4313 365 3913 365 3404 
C 365 2903 768 2496 1267 2496 
C 1786 2496 2195 2890 2195 3399 
C 2195 3913 1792 4313 1280 4313 
z
M 1280 4096 
C 1638 4096 1946 3779 1946 3405 
C 1946 3024 1645 2714 1274 2714 
C 915 2714 614 3031 614 3405 
C 614 3779 915 4096 1280 4096 
z
" transform="scale(0.015625)"/>
       </defs>
       <use xlink:href="#NimbusRomNo9L-Regu-30" transform="scale(0.996264)"/>
       <use xlink:href="#NimbusRomNo9L-Regu-b0" transform="translate(49.8132 0) scale(0.996264)"/>
      </g>
     </g>
    </g>
    <g id="xtick_2">
     <g id="line2d_2">
      <path d="M 94.094576 101.519499 
L 143.097076 52.516999 
" clip-path="url(#pf01113dd19)" style="fill: none; stroke: #b0b0b0; stroke-width: 0.5; stroke-linecap: square"/>
     </g>
     <g id="text_2">
      <!-- 45° -->
      <g transform="translate(144.942621 46.931475) scale(0.08 -0.08)">
       <defs>
        <path id="NimbusRomNo9L-Regu-34" d="M 3021 1497 
L 2368 1497 
L 2368 4352 
L 2086 4352 
L 77 1497 
L 77 1088 
L 1875 1088 
L 1875 32 
L 2368 32 
L 2368 1088 
L 3021 1088 
L 3021 1497 
z
M 1869 1497 
L 333 1497 
L 1869 3698 
L 1869 1497 
z
" transform="scale(0.015625)"/>
        <path id="NimbusRomNo9L-Regu-35" d="M 1158 3776 
L 2413 3776 
C 2515 3776 2541 3789 2560 3834 
L 2803 4403 
L 2746 4448 
C 2650 4314 2586 4282 2451 4282 
L 1114 4282 
L 416 2759 
C 410 2746 410 2740 410 2727 
C 410 2695 435 2676 486 2676 
C 691 2676 947 2631 1210 2547 
C 1946 2309 2285 1910 2285 1274 
C 2285 656 1894 173 1395 173 
C 1267 173 1158 218 966 360 
C 762 508 614 572 480 572 
C 294 572 205 495 205 334 
C 205 90 506 -64 986 -64 
C 1523 -64 1984 110 2304 438 
C 2598 728 2733 1094 2733 1583 
C 2733 2046 2611 2342 2291 2663 
C 2010 2947 1645 3094 890 3229 
L 1158 3776 
z
" transform="scale(0.015625)"/>
       </defs>
       <use xlink:href="#NimbusRomNo9L-Regu-34" transform="scale(0.996264)"/>
       <use xlink:href="#NimbusRomNo9L-Regu-35" transform="translate(49.8132 0) scale(0.996264)"/>
       <use xlink:href="#NimbusRomNo9L-Regu-b0" transform="translate(99.626401 0) scale(0.996264)"/>
      </g>
     </g>
    </g>
    <g id="xtick_3">
     <g id="line2d_3">
      <path d="M 94.094576 101.519499 
L 94.094576 32.219499 
" clip-path="url(#pf01113dd19)" style="fill: none; stroke: #b0b0b0; stroke-width: 0.5; stroke-linecap: square"/>
     </g>
     <g id="text_3">
      <!-- 90° -->
      <g transform="translate(88.515499 23.558596) scale(0.08 -0.08)">
       <defs>
        <path id="NimbusRomNo9L-Regu-39" d="M 378 -123 
C 1094 -40 1446 82 1882 396 
C 2547 882 2938 1676 2938 2539 
C 2938 3593 2349 4339 1523 4339 
C 762 4339 192 3694 192 2832 
C 192 2053 653 1536 1344 1536 
C 1696 1536 1965 1638 2304 1900 
C 2042 856 1331 172 358 5 
L 378 -123 
z
M 2317 2290 
C 2317 2162 2291 2104 2221 2047 
C 2042 1894 1805 1811 1574 1811 
C 1088 1811 781 2290 781 3050 
C 781 3413 883 3796 1018 3963 
C 1126 4090 1286 4160 1472 4160 
C 2029 4160 2317 3611 2317 2539 
L 2317 2290 
z
" transform="scale(0.015625)"/>
       </defs>
       <use xlink:href="#NimbusRomNo9L-Regu-39" transform="scale(0.996264)"/>
       <use xlink:href="#NimbusRomNo9L-Regu-30" transform="translate(49.8132 0) scale(0.996264)"/>
       <use xlink:href="#NimbusRomNo9L-Regu-b0" transform="translate(99.626401 0) scale(0.996264)"/>
      </g>
     </g>
    </g>
    <g id="xtick_4">
     <g id="line2d_4">
      <path d="M 94.094576 101.519499 
L 45.092076 52.516999 
" clip-path="url(#pf01113dd19)" style="fill: none; stroke: #b0b0b0; stroke-width: 0.5; stroke-linecap: square"/>
     </g>
     <g id="text_4">
      <!-- 135° -->
      <g transform="translate(30.09585 46.931475) scale(0.08 -0.08)">
       <defs>
        <path id="NimbusRomNo9L-Regu-31" d="M 1862 4339 
L 710 3757 
L 710 3667 
C 787 3699 858 3725 883 3738 
C 998 3783 1107 3808 1171 3808 
C 1306 3808 1363 3711 1363 3505 
L 1363 592 
C 1363 379 1312 232 1210 173 
C 1114 116 1024 96 755 96 
L 755 0 
L 2522 0 
L 2522 96 
C 2016 96 1914 160 1914 470 
L 1914 4327 
L 1862 4339 
z
" transform="scale(0.015625)"/>
        <path id="NimbusRomNo9L-Regu-33" d="M 979 2138 
C 1357 2138 1504 2125 1658 2068 
C 2054 1927 2304 1562 2304 1120 
C 2304 583 1939 167 1466 167 
C 1293 167 1165 212 928 365 
C 736 480 627 525 518 525 
C 371 525 275 436 275 301 
C 275 77 550 -64 998 -64 
C 1491 -64 1997 103 2298 365 
C 2598 628 2765 999 2765 1428 
C 2765 1754 2662 2055 2477 2253 
C 2349 2394 2227 2471 1946 2592 
C 2387 2893 2547 3130 2547 3476 
C 2547 3994 2138 4352 1549 4352 
C 1229 4352 947 4244 717 4039 
C 525 3866 429 3699 288 3315 
L 384 3290 
C 646 3757 934 3968 1338 3968 
C 1754 3968 2042 3687 2042 3284 
C 2042 3053 1946 2823 1786 2663 
C 1594 2471 1414 2375 979 2221 
L 979 2138 
z
" transform="scale(0.015625)"/>
       </defs>
       <use xlink:href="#NimbusRomNo9L-Regu-31" transform="scale(0.996264)"/>
       <use xlink:href="#NimbusRomNo9L-Regu-33" transform="translate(49.8132 0) scale(0.996264)"/>
       <use xlink:href="#NimbusRomNo9L-Regu-35" transform="translate(99.626401 0) scale(0.996264)"/>
       <use xlink:href="#NimbusRomNo9L-Regu-b0" transform="translate(149.439601 0) scale(0.996264)"/>
      </g>
     </g>
    </g>
    <g id="xtick_5">
     <g id="line2d_5">
      <path d="M 94.094576 101.519499 
L 24.794576 101.519499 
" clip-path="url(#pf01113dd19)" style="fill: none; stroke: #b0b0b0; stroke-width: 0.5; stroke-linecap: square"/>
     </g>
     <g id="text_5">
      <!-- 180° -->
      <g transform="translate(6.722971 103.358596) scale(0.08 -0.08)">
       <defs>
        <path id="NimbusRomNo9L-Regu-38" d="M 1856 2400 
C 2490 2740 2714 3008 2714 3444 
C 2714 3968 2253 4352 1613 4352 
C 915 4352 397 3924 397 3341 
C 397 2925 518 2740 1190 2151 
C 499 1626 358 1428 358 992 
C 358 372 864 -64 1587 -64 
C 2355 -64 2848 359 2848 1018 
C 2848 1511 2630 1824 1856 2400 
z
M 1741 1741 
C 2208 1408 2362 1178 2362 820 
C 2362 404 2074 116 1658 116 
C 1171 116 845 487 845 1044 
C 845 1453 986 1722 1357 2023 
L 1741 1741 
z
M 1670 2516 
C 1101 2887 870 3181 870 3540 
C 870 3911 1158 4173 1562 4173 
C 1997 4173 2272 3892 2272 3450 
C 2272 3085 2093 2797 1728 2554 
C 1696 2535 1696 2535 1670 2516 
z
" transform="scale(0.015625)"/>
       </defs>
       <use xlink:href="#NimbusRomNo9L-Regu-31" transform="scale(0.996264)"/>
       <use xlink:href="#NimbusRomNo9L-Regu-38" transform="translate(49.8132 0) scale(0.996264)"/>
       <use xlink:href="#NimbusRomNo9L-Regu-30" transform="translate(99.626401 0) scale(0.996264)"/>
       <use xlink:href="#NimbusRomNo9L-Regu-b0" transform="translate(149.439601 0) scale(0.996264)"/>
      </g>
     </g>
    </g>
    <g id="xtick_6">
     <g id="line2d_6">
      <path d="M 94.094576 101.519499 
L 45.092076 150.521999 
" clip-path="url(#pf01113dd19)" style="fill: none; stroke: #b0b0b0; stroke-width: 0.5; stroke-linecap: square"/>
     </g>
     <g id="text_6">
      <!-- 225° -->
      <g transform="translate(30.09585 159.785717) scale(0.08 -0.08)">
       <defs>
        <path id="NimbusRomNo9L-Regu-32" d="M 3040 875 
L 2957 907 
C 2720 544 2637 486 2349 486 
L 819 486 
L 1894 1609 
C 2464 2202 2714 2687 2714 3185 
C 2714 3823 2195 4313 1530 4313 
C 1178 4313 845 4173 608 3918 
C 403 3700 307 3496 198 3043 
L 333 3011 
C 589 3636 819 3840 1261 3840 
C 1798 3840 2163 3476 2163 2940 
C 2163 2443 1869 1850 1331 1282 
L 192 77 
L 192 0 
L 2688 0 
L 3040 875 
z
" transform="scale(0.015625)"/>
       </defs>
       <use xlink:href="#NimbusRomNo9L-Regu-32" transform="scale(0.996264)"/>
       <use xlink:href="#NimbusRomNo9L-Regu-32" transform="translate(49.8132 0) scale(0.996264)"/>
       <use xlink:href="#NimbusRomNo9L-Regu-35" transform="translate(99.626401 0) scale(0.996264)"/>
       <use xlink:href="#NimbusRomNo9L-Regu-b0" transform="translate(149.439601 0) scale(0.996264)"/>
      </g>
     </g>
    </g>
    <g id="xtick_7">
     <g id="line2d_7">
      <path d="M 94.094576 101.519499 
L 94.094576 170.819499 
" clip-path="url(#pf01113dd19)" style="fill: none; stroke: #b0b0b0; stroke-width: 0.5; stroke-linecap: square"/>
     </g>
     <g id="text_7">
      <!-- 270° -->
      <g transform="translate(86.522971 183.158596) scale(0.08 -0.08)">
       <defs>
        <path id="NimbusRomNo9L-Regu-37" d="M 2874 4250 
L 506 4250 
L 128 3310 
L 237 3258 
C 512 3693 627 3776 979 3776 
L 2368 3776 
L 1101 -32 
L 1517 -32 
L 2874 4148 
L 2874 4250 
z
" transform="scale(0.015625)"/>
       </defs>
       <use xlink:href="#NimbusRomNo9L-Regu-32" transform="scale(0.996264)"/>
       <use xlink:href="#NimbusRomNo9L-Regu-37" transform="translate(49.8132 0) scale(0.996264)"/>
       <use xlink:href="#NimbusRomNo9L-Regu-30" transform="translate(99.626401 0) scale(0.996264)"/>
       <use xlink:href="#NimbusRomNo9L-Regu-b0" transform="translate(149.439601 0) scale(0.996264)"/>
      </g>
     </g>
    </g>
    <g id="xtick_8">
     <g id="line2d_8">
      <path d="M 94.094576 101.519499 
L 143.097076 150.521999 
" clip-path="url(#pf01113dd19)" style="fill: none; stroke: #b0b0b0; stroke-width: 0.5; stroke-linecap: square"/>
     </g>
     <g id="text_8">
      <!-- 315° -->
      <g transform="translate(142.950092 159.785717) scale(0.08 -0.08)">
       <use xlink:href="#NimbusRomNo9L-Regu-33" transform="scale(0.996264)"/>
       <use xlink:href="#NimbusRomNo9L-Regu-31" transform="translate(49.8132 0) scale(0.996264)"/>
       <use xlink:href="#NimbusRomNo9L-Regu-35" transform="translate(99.626401 0) scale(0.996264)"/>
       <use xlink:href="#NimbusRomNo9L-Regu-b0" transform="translate(149.439601 0) scale(0.996264)"/>
      </g>
     </g>
    </g>
   </g>
   <g id="matplotlib.axis_2">
    <g id="ytick_1">
     <g id="line2d_9">
      <path d="M 107.951287 101.519499 
C 107.951287 99.699853 107.592856 97.8979 106.896508 96.216766 
C 106.200159 94.535632 105.179435 93.00801 103.89275 91.721325 
C 102.606066 90.434641 101.078444 89.413917 99.39731 88.717568 
C 97.716176 88.021219 95.914223 87.662789 94.094576 87.662789 
C 92.27493 87.662789 90.472977 88.021219 88.791843 88.717568 
C 87.110708 89.413917 85.583087 90.434641 84.296402 91.721325 
C 83.009718 93.00801 81.988993 94.535632 81.292645 96.216766 
C 80.596296 97.8979 80.237866 99.699853 80.237866 101.519499 
C 80.237866 103.339146 80.596296 105.141099 81.292645 106.822233 
C 81.988993 108.503367 83.009718 110.030989 84.296402 111.317674 
C 85.583087 112.604358 87.110708 113.625082 88.791843 114.321431 
C 90.472977 115.017779 92.27493 115.37621 94.094576 115.37621 
C 95.914223 115.37621 97.716176 115.017779 99.39731 114.321431 
C 101.078444 113.625082 102.606066 112.604358 103.89275 111.317674 
C 105.179435 110.030989 106.200159 108.503367 106.896508 106.822233 
C 107.592856 105.141099 107.951287 103.339146 107.951287 101.519499 
" clip-path="url(#pf01113dd19)" style="fill: none; stroke: #b0b0b0; stroke-width: 0.5; stroke-linecap: square"/>
     </g>
     <g id="text_9">
      <!-- $\mathdefault{0.2}$ -->
      <g transform="translate(106.896508 105.09677) scale(0.08 -0.08)">
       <defs>
        <path id="CMMI10-3a" d="M 1229 338 
C 1229 522 1075 675 890 675 
C 704 675 550 522 550 338 
C 550 153 704 0 890 0 
C 1075 0 1229 153 1229 338 
z
" transform="scale(0.015625)"/>
       </defs>
       <use xlink:href="#NimbusRomNo9L-Regu-30" transform="scale(0.996264)"/>
       <use xlink:href="#CMMI10-3a" transform="translate(49.8132 0) scale(0.996264)"/>
       <use xlink:href="#NimbusRomNo9L-Regu-32" transform="translate(77.408707 0) scale(0.996264)"/>
      </g>
     </g>
    </g>
    <g id="ytick_2">
     <g id="line2d_10">
      <path d="M 121.807998 101.519499 
C 121.807998 97.880206 121.091136 94.276301 119.698439 90.914032 
C 118.305742 87.551764 116.264293 84.49652 113.690925 81.923151 
C 111.117556 79.349782 108.062312 77.308334 104.700044 75.915636 
C 101.337775 74.522939 97.733869 73.806078 94.094576 73.806078 
C 90.455283 73.806078 86.851378 74.522939 83.489109 75.915636 
C 80.126841 77.308334 77.071597 79.349782 74.498228 81.923151 
C 71.924859 84.49652 69.883411 87.551764 68.490713 90.914032 
C 67.098016 94.276301 66.381155 97.880206 66.381155 101.519499 
C 66.381155 105.158793 67.098016 108.762698 68.490713 112.124967 
C 69.883411 115.487235 71.924859 118.542479 74.498228 121.115848 
C 77.071597 123.689217 80.126841 125.730665 83.489109 127.123362 
C 86.851378 128.51606 90.455283 129.232921 94.094576 129.232921 
C 97.733869 129.232921 101.337775 128.51606 104.700044 127.123362 
C 108.062312 125.730665 111.117556 123.689217 113.690925 121.115848 
C 116.264293 118.542479 118.305742 115.487235 119.698439 112.124967 
C 121.091136 108.762698 121.807998 105.158793 121.807998 101.519499 
" clip-path="url(#pf01113dd19)" style="fill: none; stroke: #b0b0b0; stroke-width: 0.5; stroke-linecap: square"/>
     </g>
     <g id="text_10">
      <!-- $\mathdefault{0.4}$ -->
      <g transform="translate(119.698439 110.399504) scale(0.08 -0.08)">
       <use xlink:href="#NimbusRomNo9L-Regu-30" transform="scale(0.996264)"/>
       <use xlink:href="#CMMI10-3a" transform="translate(49.8132 0) scale(0.996264)"/>
       <use xlink:href="#NimbusRomNo9L-Regu-34" transform="translate(77.408707 0) scale(0.996264)"/>
      </g>
     </g>
    </g>
    <g id="ytick_3">
     <g id="line2d_11">
      <path d="M 135.664709 101.519499 
C 135.664709 96.06056 134.589417 90.654701 132.500371 85.611298 
C 130.411325 80.567896 127.349152 75.98503 123.489099 72.124977 
C 119.629045 68.264924 115.04618 65.202751 110.002777 63.113705 
C 104.959375 61.024659 99.553516 59.949367 94.094576 59.949367 
C 88.635637 59.949367 83.229778 61.024659 78.186375 63.113705 
C 73.142973 65.202751 68.560107 68.264924 64.700054 72.124977 
C 60.840001 75.98503 57.777828 80.567896 55.688782 85.611298 
C 53.599736 90.654701 52.524444 96.06056 52.524444 101.519499 
C 52.524444 106.978439 53.599736 112.384298 55.688782 117.4277 
C 57.777828 122.471103 60.840001 127.053969 64.700054 130.914022 
C 68.560107 134.774075 73.142973 137.836248 78.186375 139.925294 
C 83.229778 142.01434 88.635637 143.089632 94.094576 143.089632 
C 99.553516 143.089632 104.959375 142.01434 110.002777 139.925294 
C 115.04618 137.836248 119.629045 134.774075 123.489099 130.914022 
C 127.349152 127.053969 130.411325 122.471103 132.500371 117.4277 
C 134.589417 112.384298 135.664709 106.978439 135.664709 101.519499 
" clip-path="url(#pf01113dd19)" style="fill: none; stroke: #b0b0b0; stroke-width: 0.5; stroke-linecap: square"/>
     </g>
     <g id="text_11">
      <!-- $\mathdefault{0.6}$ -->
      <g transform="translate(132.500371 115.702237) scale(0.08 -0.08)">
       <defs>
        <path id="NimbusRomNo9L-Regu-36" d="M 2854 4391 
C 2125 4327 1754 4205 1286 3879 
C 595 3386 218 2656 218 1802 
C 218 1248 390 688 666 370 
C 909 89 1254 -64 1651 -64 
C 2445 -64 2995 541 2995 1421 
C 2995 2236 2528 2752 1792 2752 
C 1510 2752 1376 2707 973 2464 
C 1146 3431 1862 4122 2867 4288 
L 2854 4391 
z
M 1549 2458 
C 2099 2458 2419 2000 2419 1204 
C 2419 504 2170 116 1722 116 
C 1158 116 813 714 813 1700 
C 813 2025 864 2203 992 2299 
C 1126 2400 1325 2458 1549 2458 
z
" transform="scale(0.015625)"/>
       </defs>
       <use xlink:href="#NimbusRomNo9L-Regu-30" transform="scale(0.996264)"/>
       <use xlink:href="#CMMI10-3a" transform="translate(49.8132 0) scale(0.996264)"/>
       <use xlink:href="#NimbusRomNo9L-Regu-36" transform="translate(77.408707 0) scale(0.996264)"/>
      </g>
     </g>
    </g>
    <g id="ytick_4">
     <g id="line2d_12">
      <path d="M 149.521419 101.519499 
C 149.521419 94.240913 148.087697 87.033102 145.302302 80.308565 
C 142.516908 73.584028 138.434011 67.473541 133.287273 62.326803 
C 128.140535 57.180065 122.030048 53.097168 115.305511 50.311774 
C 108.580974 47.526379 101.373163 46.092656 94.094576 46.092656 
C 86.81599 46.092656 79.608179 47.526379 72.883642 50.311774 
C 66.159105 53.097168 60.048617 57.180065 54.90188 62.326803 
C 49.755142 67.473541 45.672245 73.584028 42.88685 80.308565 
C 40.101456 87.033102 38.667733 94.240913 38.667733 101.519499 
C 38.667733 108.798086 40.101456 116.005897 42.88685 122.730434 
C 45.672245 129.454971 49.755142 135.565458 54.90188 140.712196 
C 60.048617 145.858934 66.159105 149.941831 72.883642 152.727225 
C 79.608179 155.51262 86.81599 156.946342 94.094576 156.946342 
C 101.373163 156.946342 108.580974 155.51262 115.305511 152.727225 
C 122.030048 149.941831 128.140535 145.858934 133.287273 140.712196 
C 138.434011 135.565458 142.516908 129.454971 145.302302 122.730434 
C 148.087697 116.005897 149.521419 108.798086 149.521419 101.519499 
" clip-path="url(#pf01113dd19)" style="fill: none; stroke: #b0b0b0; stroke-width: 0.5; stroke-linecap: square"/>
     </g>
     <g id="text_12">
      <!-- $\mathdefault{0.8}$ -->
      <g transform="translate(145.302302 121.004971) scale(0.08 -0.08)">
       <use xlink:href="#NimbusRomNo9L-Regu-30" transform="scale(0.996264)"/>
       <use xlink:href="#CMMI10-3a" transform="translate(49.8132 0) scale(0.996264)"/>
       <use xlink:href="#NimbusRomNo9L-Regu-38" transform="translate(77.408707 0) scale(0.996264)"/>
      </g>
     </g>
    </g>
    <g id="ytick_5">
     <g id="line2d_13">
      <path d="M 163.37813 101.519499 
C 163.37813 92.421266 161.585977 83.411502 158.104234 75.005831 
C 154.622491 66.60016 149.518869 58.962051 143.085447 52.528629 
C 136.652025 46.095206 129.013916 40.991585 120.608244 37.509842 
C 112.202573 34.028099 103.192809 32.235946 94.094576 32.235946 
C 84.996343 32.235946 75.986579 34.028099 67.580908 37.509842 
C 59.175237 40.991585 51.537128 46.095206 45.103706 52.528629 
C 38.670283 58.962051 33.566662 66.60016 30.084919 75.005831 
C 26.603176 83.411502 24.811022 92.421266 24.811022 101.519499 
C 24.811022 110.617732 26.603176 119.627496 30.084919 128.033168 
C 33.566662 136.438839 38.670283 144.076948 45.103706 150.51037 
C 51.537128 156.943792 59.175237 162.047414 67.580908 165.529157 
C 75.986579 169.0109 84.996343 170.803053 94.094576 170.803053 
C 103.192809 170.803053 112.202573 169.0109 120.608244 165.529157 
C 129.013916 162.047414 136.652025 156.943792 143.085447 150.51037 
C 149.518869 144.076948 154.622491 136.438839 158.104234 128.033168 
C 161.585977 119.627496 163.37813 110.617732 163.37813 101.519499 
" clip-path="url(#pf01113dd19)" style="fill: none; stroke: #b0b0b0; stroke-width: 0.5; stroke-linecap: square"/>
     </g>
     <g id="text_13">
      <!-- $\mathdefault{1.0}$ -->
      <g transform="translate(158.104234 126.307704) scale(0.08 -0.08)">
       <use xlink:href="#NimbusRomNo9L-Regu-31" transform="scale(0.996264)"/>
       <use xlink:href="#CMMI10-3a" transform="translate(49.8132 0) scale(0.996264)"/>
       <use xlink:href="#NimbusRomNo9L-Regu-30" transform="translate(77.408707 0) scale(0.996264)"/>
      </g>
     </g>
    </g>
   </g>
   <g id="line2d_14">
    <path d="M 163.222435 101.519499 
L 163.110504 97.902528 
L 162.80959 94.29726 
L 162.320795 90.713528 
L 161.645725 87.161059 
L 160.78648 83.649458 
L 159.74564 80.188176 
L 158.526252 76.786496 
L 157.131821 73.45351 
L 155.56629 70.198097 
L 153.834031 67.028909 
L 151.93983 63.954352 
L 149.888873 60.98257 
L 147.686728 58.12143 
L 145.339339 55.378508 
L 142.853004 52.761072 
L 140.234366 50.276071 
L 137.490397 47.930124 
L 134.628385 45.729499 
L 131.655918 43.680106 
L 128.580872 41.787483 
L 125.411395 40.056782 
L 122.155892 38.492753 
L 118.823007 37.099736 
L 115.421608 35.881644 
L 111.960771 34.841953 
L 108.449757 33.983684 
L 104.897995 33.309396 
L 101.315062 32.82117 
L 97.710655 32.520601 
L 94.094576 32.408784 
L 90.4767 32.486304 
L 86.86695 32.753232 
L 83.275274 33.209114 
L 79.711611 33.852966 
L 76.185863 34.683271 
L 72.707867 35.697975 
L 69.28736 36.894492 
L 65.933951 38.2697 
L 62.657086 39.819951 
L 59.466016 41.541074 
L 56.369768 43.428389 
L 53.37711 45.476715 
L 50.496521 47.680384 
L 47.736162 50.033264 
L 45.103846 52.528769 
L 42.607012 55.159888 
L 40.252698 57.919206 
L 38.047516 60.798926 
L 35.997631 63.790902 
L 34.108743 66.886663 
L 32.386067 70.077443 
L 30.834316 73.354217 
L 29.457694 76.707725 
L 28.25988 80.12851 
L 27.244024 83.606948 
L 26.412739 87.133281 
L 25.7681 90.697649 
L 25.311641 94.290122 
L 25.04436 97.900731 
L 24.966718 101.519499 
L 25.078648 105.136471 
L 25.379563 108.741738 
L 25.868358 112.325471 
L 26.543428 115.877939 
L 27.402673 119.389541 
L 28.443513 122.850823 
L 29.6629 126.252502 
L 31.057332 129.585489 
L 32.622863 132.840902 
L 34.355122 136.01009 
L 36.249322 139.084646 
L 38.30028 142.056428 
L 40.502424 144.917568 
L 42.849814 147.660491 
L 45.336148 150.277927 
L 47.954787 152.762927 
L 50.698756 155.108875 
L 53.560768 157.3095 
L 56.533235 159.358893 
L 59.608281 161.251516 
L 62.777757 162.982217 
L 66.033261 164.546246 
L 69.366146 165.939263 
L 72.767544 167.157354 
L 76.228382 168.197046 
L 79.739396 169.055315 
L 83.291157 169.729603 
L 86.874091 170.217828 
L 90.478497 170.518397 
L 94.094576 170.630215 
L 97.712453 170.552695 
L 101.322202 170.285766 
L 104.913878 169.829884 
L 108.477542 169.186032 
L 112.00329 168.355728 
L 115.481286 167.341024 
L 118.901792 166.144507 
L 122.255201 164.769299 
L 125.532067 163.219048 
L 128.723136 161.497925 
L 131.819384 159.61061 
L 134.812043 157.562284 
L 137.692632 155.358614 
L 140.452991 153.005735 
L 143.085307 150.51023 
L 145.58214 147.87911 
L 147.936455 145.119793 
L 150.141637 142.240073 
L 152.191522 139.248097 
L 154.080409 136.152336 
L 155.803086 132.961556 
L 157.354837 129.684782 
L 158.731459 126.331274 
L 159.929272 122.910489 
L 160.945128 119.432051 
L 161.776413 115.905718 
L 162.421053 112.34135 
L 162.877512 108.748877 
L 163.144793 105.138268 
L 163.222435 101.519499 
L 163.222435 101.519499 
" clip-path="url(#pf01113dd19)" style="fill: none; stroke: #000000; stroke-linecap: square"/>
   </g>
   <g id="line2d_15">
    <path d="M 163.355417 101.519499 
L 163.263331 97.894519 
L 162.981555 94.279186 
L 162.510819 90.683431 
L 161.852371 87.117136 
L 161.007981 83.590107 
L 159.979935 80.112049 
L 158.771025 76.692537 
L 157.384548 73.340989 
L 155.824295 70.066637 
L 154.09454 66.878504 
L 152.200029 63.785377 
L 150.145968 60.795779 
L 147.938007 57.917949 
L 145.582222 55.159815 
L 143.085105 52.528971 
L 140.453536 50.032659 
L 137.694769 47.677745 
L 134.816412 45.470701 
L 131.826401 43.417585 
L 128.732978 41.524027 
L 125.544671 39.795213 
L 122.270264 38.235869 
L 118.918776 36.850248 
L 115.499433 35.642123 
L 112.021644 34.614772 
L 108.49497 33.770975 
L 104.929101 33.113003 
L 101.333829 32.642613 
L 97.719017 32.36105 
L 94.094576 32.269035 
L 90.470436 32.366775 
L 86.856516 32.653955 
L 83.262703 33.129743 
L 79.698821 33.792797 
L 76.174607 34.641263 
L 72.699682 35.672784 
L 69.283529 36.884511 
L 65.935467 38.273105 
L 62.664627 39.83475 
L 59.479924 41.565163 
L 56.390041 43.459607 
L 53.403401 45.512901 
L 50.528145 47.719437 
L 47.772115 50.073194 
L 45.14283 52.567753 
L 42.647465 55.196312 
L 40.292837 57.95171 
L 38.085383 60.826438 
L 36.031143 63.812665 
L 34.135745 66.902252 
L 32.404391 70.08678 
L 30.841837 73.357566 
L 29.452387 76.705688 
L 28.239876 80.12201 
L 27.207658 83.597204 
L 26.358601 87.121773 
L 25.695072 90.686082 
L 25.218937 94.280378 
L 24.931546 97.894819 
L 24.833736 101.519499 
L 24.925822 105.14448 
L 25.207597 108.759813 
L 25.678334 112.355568 
L 26.336782 115.921863 
L 27.181171 119.448892 
L 28.209218 122.92695 
L 29.418128 126.346462 
L 30.804605 129.69801 
L 32.364858 132.972362 
L 34.094613 136.160495 
L 35.989123 139.253622 
L 38.043184 142.243219 
L 40.251146 145.12105 
L 42.60693 147.879184 
L 45.104048 150.510028 
L 47.735617 153.00634 
L 50.494383 155.361254 
L 53.37274 157.568298 
L 56.362752 159.621414 
L 59.456174 161.514972 
L 62.644482 163.243785 
L 65.918889 164.80313 
L 69.270377 166.188751 
L 72.689719 167.396876 
L 76.167509 168.424226 
L 79.694183 169.268023 
L 83.260052 169.925996 
L 86.855324 170.396385 
L 90.470136 170.677949 
L 94.094576 170.769964 
L 97.718717 170.672224 
L 101.332637 170.385044 
L 104.92645 169.909255 
L 108.490331 169.246202 
L 112.014546 168.397736 
L 115.489471 167.366214 
L 118.905624 166.154487 
L 122.253685 164.765894 
L 125.524526 163.204249 
L 128.709229 161.473836 
L 131.799112 159.579392 
L 134.785752 157.526098 
L 137.661008 155.319562 
L 140.417037 152.965804 
L 143.046323 150.471246 
L 145.541688 147.842687 
L 147.896316 145.087289 
L 150.10377 142.21256 
L 152.15801 139.226334 
L 154.053407 136.136747 
L 155.784762 132.952219 
L 157.347315 129.681433 
L 158.736765 126.333311 
L 159.949277 122.916989 
L 160.981495 119.441795 
L 161.830552 115.917225 
L 162.49408 112.352917 
L 162.970216 108.758621 
L 163.257606 105.14418 
L 163.355417 101.519499 
L 163.355417 101.519499 
" clip-path="url(#pf01113dd19)" style="fill: none; stroke-dasharray: 3.7,1.6; stroke-dashoffset: 0; stroke: #ff0000"/>
   </g>
   <g id="line2d_16">
    <path d="M 163.375077 101.519499 
L 163.280695 97.893609 
L 162.996631 94.277602 
L 162.523654 90.681398 
L 161.863055 87.114865 
L 161.016639 83.587787 
L 159.986723 80.109843 
L 158.776129 76.690578 
L 157.388174 73.339374 
L 155.826666 70.065429 
L 154.095888 66.877726 
L 152.200589 63.785014 
L 150.145971 60.795777 
L 147.937674 57.918218 
L 145.58176 55.160231 
L 143.084698 52.529378 
L 140.453341 50.032875 
L 137.694914 47.677567 
L 134.816988 45.469908 
L 131.827465 43.415947 
L 128.734547 41.521311 
L 125.546723 39.791186 
L 122.272739 38.23031 
L 118.921577 36.84295 
L 115.50243 35.632901 
L 112.024672 34.603469 
L 108.497841 33.757465 
L 104.931605 33.097196 
L 101.335737 32.62446 
L 97.720092 32.340543 
L 94.094576 32.24621 
L 90.469122 32.341712 
L 86.853659 32.626776 
L 83.258089 33.100614 
L 79.692258 33.76192 
L 76.165929 34.608878 
L 72.688757 35.639161 
L 69.27026 36.849946 
L 65.919798 38.237912 
L 62.646543 39.799258 
L 59.459455 41.529709 
L 56.36726 43.424526 
L 53.378424 45.478524 
L 50.501132 47.686079 
L 47.743264 50.041152 
L 45.112373 52.537296 
L 42.615668 55.167682 
L 40.259991 57.925111 
L 38.051797 60.802037 
L 35.997143 63.790585 
L 34.101663 66.882575 
L 32.370558 70.069541 
L 30.80858 73.342759 
L 29.420019 76.693263 
L 28.208689 80.111877 
L 27.177922 83.589236 
L 26.330553 87.115812 
L 25.668916 90.68194 
L 25.194837 94.277845 
L 24.909626 97.89367 
L 24.814075 101.519499 
L 24.908457 105.14539 
L 25.192522 108.761397 
L 25.665499 112.357601 
L 26.326098 115.924134 
L 27.172514 119.451212 
L 28.20243 122.929156 
L 29.413024 126.348421 
L 30.800978 129.699625 
L 32.362487 132.97357 
L 34.093265 136.161273 
L 35.988564 139.253985 
L 38.043182 142.243221 
L 40.251478 145.12078 
L 42.607392 147.878768 
L 45.104455 150.509621 
L 47.735812 153.006123 
L 50.494239 155.361432 
L 53.372164 157.569091 
L 56.361688 159.623052 
L 59.454606 161.517688 
L 62.64243 163.247812 
L 65.916414 164.808689 
L 69.267575 166.196049 
L 72.686723 167.406097 
L 76.16448 168.435529 
L 79.691311 169.281534 
L 83.257548 169.941803 
L 86.853416 170.414538 
L 90.469061 170.698456 
L 94.094576 170.792789 
L 97.720031 170.697287 
L 101.335493 170.412223 
L 104.931063 169.938385 
L 108.496894 169.277078 
L 112.023223 168.430121 
L 115.500396 167.399837 
L 118.918892 166.189053 
L 122.269354 164.801087 
L 125.54261 163.23974 
L 128.729698 161.50929 
L 131.821893 159.614472 
L 134.810729 157.560475 
L 137.688021 155.35292 
L 140.445889 152.997847 
L 143.076779 150.501703 
L 145.573484 147.871316 
L 147.929162 145.113887 
L 150.137355 142.236962 
L 152.19201 139.248414 
L 154.08749 136.156424 
L 155.818594 132.969457 
L 157.380572 129.69624 
L 158.769134 126.345736 
L 159.980463 122.927122 
L 161.011231 119.449763 
L 161.8586 115.923187 
L 162.520236 112.357059 
L 162.994315 108.761154 
L 163.279527 105.145329 
L 163.375077 101.519499 
L 163.375077 101.519499 
" clip-path="url(#pf01113dd19)" style="fill: none; stroke-dasharray: 1,1.65; stroke-dashoffset: 0; stroke: #0000ff"/>
   </g>
   <g id="patch_3">
    <path d="M 163.394576 101.519499 
C 163.394576 92.419107 161.601997 83.407204 158.119428 74.999538 
C 154.636858 66.591871 149.532026 58.951949 143.097076 52.516999 
C 136.662127 46.08205 129.022205 40.977217 120.614538 37.494648 
C 112.206872 34.012078 103.194969 32.219499 94.094576 32.219499 
C 84.994184 32.219499 75.982281 34.012078 67.574614 37.494648 
C 59.166948 40.977217 51.527026 46.08205 45.092076 52.516999 
C 38.657127 58.951949 33.552294 66.591871 30.069725 74.999538 
C 26.587155 83.407204 24.794576 92.419107 24.794576 101.519499 
C 24.794576 110.619892 26.587155 119.631795 30.069725 128.039461 
C 33.552294 136.447128 38.657127 144.08705 45.092076 150.521999 
C 51.527026 156.956949 59.166948 162.061782 67.574614 165.544351 
C 75.982281 169.02692 84.994184 170.819499 94.094576 170.819499 
C 103.194969 170.819499 112.206872 169.02692 120.614538 165.544351 
C 129.022205 162.061782 136.662127 156.956949 143.097076 150.521999 
C 149.532026 144.08705 154.636858 136.447128 158.119428 128.039461 
C 161.601997 119.631795 163.394576 110.619892 163.394576 101.519499 
" style="fill: none; stroke: #000000; stroke-width: 0.5; stroke-linejoin: miter; stroke-linecap: square"/>
   </g>
   <g id="text_14">
    <!-- Polarization Pattern metallic_reflection_circular -->
    <g transform="translate(3.6 10.084396) scale(0.096 -0.096)">
     <defs>
      <path id="NimbusRomNo9L-Regu-50" d="M 1293 1875 
C 1459 1856 1568 1856 1734 1856 
C 2234 1856 2579 1919 2854 2072 
C 3238 2274 3469 2660 3469 3078 
C 3469 3344 3379 3584 3206 3768 
C 2950 4047 2394 4224 1792 4224 
L 102 4224 
L 102 4102 
C 576 4051 640 3987 640 3528 
L 640 766 
C 640 230 589 166 102 122 
L 102 0 
L 1894 0 
L 1894 128 
C 1389 128 1293 218 1293 693 
L 1293 1875 
z
M 1293 3772 
C 1293 3943 1338 3987 1510 3987 
C 2374 3987 2771 3690 2771 3040 
C 2771 2428 2394 2112 1658 2112 
C 1530 2112 1440 2119 1293 2131 
L 1293 3772 
z
" transform="scale(0.015625)"/>
      <path id="NimbusRomNo9L-Regu-6f" d="M 1600 2944 
C 768 2944 186 2330 186 1446 
C 186 582 781 -64 1587 -64 
C 2394 -64 3008 614 3008 1498 
C 3008 2336 2419 2944 1600 2944 
z
M 1517 2765 
C 2054 2765 2432 2150 2432 1274 
C 2432 550 2144 115 1664 115 
C 1414 115 1178 269 1043 525 
C 864 858 762 1306 762 1760 
C 762 2368 1062 2765 1517 2765 
z
" transform="scale(0.015625)"/>
      <path id="NimbusRomNo9L-Regu-6c" d="M 122 4000 
L 160 4000 
C 230 4000 307 4000 358 4000 
C 563 4000 627 3910 627 3610 
L 627 557 
C 627 211 538 128 134 96 
L 134 0 
L 1645 0 
L 1645 109 
C 1242 109 1165 173 1165 528 
L 1165 4371 
L 1139 4384 
C 806 4275 563 4211 122 4103 
L 122 4000 
z
" transform="scale(0.015625)"/>
      <path id="NimbusRomNo9L-Regu-61" d="M 2829 423 
C 2720 333 2643 301 2547 301 
C 2400 301 2355 390 2355 672 
L 2355 1920 
C 2355 2253 2323 2438 2227 2592 
C 2086 2822 1811 2944 1434 2944 
C 832 2944 358 2630 358 2227 
C 358 2080 486 1952 634 1952 
C 787 1952 922 2080 922 2221 
C 922 2246 915 2278 909 2323 
C 896 2381 890 2432 890 2477 
C 890 2650 1094 2790 1350 2790 
C 1664 2790 1837 2605 1837 2259 
L 1837 1869 
C 851 1472 742 1421 467 1178 
C 326 1050 237 832 237 621 
C 237 218 518 -64 909 -64 
C 1190 -64 1453 70 1843 403 
C 1875 70 1990 -64 2253 -64 
C 2470 -64 2605 13 2829 256 
L 2829 423 
z
M 1837 783 
C 1837 584 1805 526 1670 449 
C 1517 359 1338 301 1203 301 
C 979 301 800 520 800 796 
L 800 822 
C 800 1201 1062 1433 1837 1715 
L 1837 783 
z
" transform="scale(0.015625)"/>
      <path id="NimbusRomNo9L-Regu-72" d="M 45 2496 
C 134 2515 192 2522 269 2522 
C 429 2522 486 2419 486 2138 
L 486 538 
C 486 218 442 173 32 96 
L 32 0 
L 1568 0 
L 1568 102 
C 1133 102 1024 199 1024 565 
L 1024 2013 
C 1024 2219 1299 2541 1472 2541 
C 1510 2541 1568 2509 1638 2445 
C 1741 2355 1811 2317 1894 2317 
C 2048 2317 2144 2426 2144 2605 
C 2144 2816 2010 2944 1792 2944 
C 1523 2944 1338 2797 1024 2343 
L 1024 2931 
L 992 2944 
C 653 2803 422 2721 45 2599 
L 45 2496 
z
" transform="scale(0.015625)"/>
      <path id="NimbusRomNo9L-Regu-69" d="M 1120 2929 
L 128 2579 
L 128 2484 
L 179 2490 
C 256 2502 339 2509 397 2509 
C 550 2509 608 2406 608 2125 
L 608 640 
C 608 179 544 109 102 109 
L 102 0 
L 1619 0 
L 1619 96 
C 1197 128 1146 191 1146 650 
L 1146 2910 
L 1120 2929 
z
M 819 4352 
C 646 4352 499 4205 499 4026 
C 499 3847 640 3699 819 3699 
C 1005 3699 1152 3840 1152 4026 
C 1152 4205 1005 4352 819 4352 
z
" transform="scale(0.015625)"/>
      <path id="NimbusRomNo9L-Regu-7a" d="M 2675 864 
L 2560 890 
C 2496 570 2458 467 2374 358 
C 2285 250 2067 192 1741 192 
L 858 192 
L 2579 2784 
L 2579 2880 
L 358 2880 
L 339 2125 
L 454 2125 
C 512 2592 608 2688 992 2688 
L 1875 2688 
L 173 96 
L 173 0 
L 2586 0 
L 2675 864 
z
" transform="scale(0.015625)"/>
      <path id="NimbusRomNo9L-Regu-74" d="M 1632 2880 
L 986 2880 
L 986 3622 
C 986 3686 979 3706 941 3706 
C 896 3648 858 3590 813 3526 
C 570 3174 294 2867 192 2841 
C 122 2794 83 2748 83 2715 
C 83 2695 90 2682 109 2682 
L 448 2682 
L 448 751 
C 448 212 640 -64 1018 -64 
C 1331 -64 1574 90 1786 423 
L 1702 493 
C 1568 333 1459 269 1318 269 
C 1082 269 986 443 986 847 
L 986 2682 
L 1632 2682 
L 1632 2880 
z
" transform="scale(0.015625)"/>
      <path id="NimbusRomNo9L-Regu-6e" d="M 102 2579 
C 141 2598 205 2605 275 2605 
C 454 2605 512 2509 512 2195 
L 512 608 
C 512 243 442 154 115 128 
L 115 32 
L 1472 32 
L 1472 128 
C 1146 154 1050 230 1050 461 
L 1050 2259 
C 1357 2547 1498 2624 1709 2624 
C 2022 2624 2176 2426 2176 2003 
L 2176 666 
C 2176 262 2093 154 1773 128 
L 1773 32 
L 3104 32 
L 3104 128 
C 2790 160 2714 237 2714 550 
L 2714 2016 
C 2714 2618 2432 2976 1958 2976 
C 1664 2976 1466 2867 1030 2458 
L 1030 2963 
L 986 2976 
C 672 2861 454 2790 102 2688 
L 102 2579 
z
" transform="scale(0.015625)"/>
      <path id="NimbusRomNo9L-Regu-65" d="M 2611 1053 
C 2304 564 2029 378 1619 378 
C 1254 378 979 564 794 930 
C 678 1174 634 1386 621 1779 
L 2592 1779 
C 2541 2193 2477 2377 2317 2581 
C 2125 2811 1830 2944 1498 2944 
C 1178 2944 877 2829 634 2611 
C 333 2349 160 1894 160 1370 
C 160 486 621 -64 1357 -64 
C 1965 -64 2445 315 2714 1008 
L 2611 1053 
z
M 634 1984 
C 704 2479 922 2714 1312 2714 
C 1702 2714 1856 2535 1939 1984 
L 634 1984 
z
" transform="scale(0.015625)"/>
      <path id="NimbusRomNo9L-Regu-6d" d="M 122 2547 
C 205 2566 256 2573 326 2573 
C 493 2573 550 2470 550 2162 
L 550 539 
C 550 192 461 96 102 96 
L 102 0 
L 1523 0 
L 1523 96 
C 1184 96 1088 166 1088 418 
L 1088 2234 
C 1088 2246 1139 2310 1184 2355 
C 1344 2502 1619 2611 1843 2611 
C 2125 2611 2266 2385 2266 1932 
L 2266 528 
C 2266 167 2195 96 1830 96 
L 1830 0 
L 3264 0 
L 3264 96 
C 2899 96 2803 205 2803 603 
L 2803 2221 
C 2995 2496 3206 2611 3501 2611 
C 3866 2611 3981 2438 3981 1907 
L 3981 557 
C 3981 192 3930 141 3558 96 
L 3558 0 
L 4960 0 
L 4960 96 
L 4794 115 
C 4602 115 4518 230 4518 480 
L 4518 1802 
C 4518 2559 4269 2944 3776 2944 
C 3405 2944 3078 2778 2733 2407 
C 2618 2771 2400 2944 2054 2944 
C 1773 2944 1594 2854 1062 2451 
L 1062 2931 
L 1018 2944 
C 691 2822 474 2752 122 2656 
L 122 2547 
z
" transform="scale(0.015625)"/>
      <path id="NimbusRomNo9L-Regu-63" d="M 2547 998 
C 2240 550 2010 397 1645 397 
C 1062 397 653 909 653 1645 
C 653 2304 1005 2758 1523 2758 
C 1754 2758 1837 2688 1901 2451 
L 1939 2310 
C 1990 2131 2106 2016 2240 2016 
C 2406 2016 2547 2138 2547 2285 
C 2547 2643 2099 2944 1562 2944 
C 1248 2944 922 2816 659 2586 
C 339 2304 160 1869 160 1363 
C 160 531 666 -64 1376 -64 
C 1664 -64 1920 38 2150 237 
C 2323 390 2445 563 2637 941 
L 2547 998 
z
" transform="scale(0.015625)"/>
      <path id="NimbusRomNo9L-Regu-3" d="M 205 2675 
L 646 2675 
L 646 637 
C 646 344 608 181 518 122 
C 454 77 390 64 205 64 
L 205 -38 
L 1638 -38 
L 1638 58 
C 1274 97 1184 175 1184 474 
L 1184 2675 
L 2387 2675 
L 2387 507 
C 2387 188 2291 84 1958 58 
L 1958 -38 
L 3334 -38 
L 3334 58 
C 2989 84 2925 148 2925 482 
L 2925 4339 
L 2893 4352 
C 2842 4346 2771 4320 2694 4282 
C 2573 4224 2483 4192 2426 4192 
C 2394 4192 2330 4211 2234 4243 
C 2054 4314 1869 4352 1715 4352 
C 1414 4352 1120 4201 941 3954 
C 749 3683 685 3436 659 2880 
L 205 2880 
L 205 2675 
z
M 2387 2880 
L 1184 2880 
L 1184 3208 
C 1184 3864 1318 4179 1600 4179 
C 1741 4179 1818 4129 1933 3958 
C 2054 3782 2138 3726 2285 3726 
C 2330 3726 2355 3738 2387 3770 
L 2387 2880 
z
" transform="scale(0.015625)"/>
      <path id="NimbusRomNo9L-Regu-75" d="M 3066 320 
L 3034 320 
C 2739 320 2669 390 2669 685 
L 2669 2880 
L 1658 2880 
L 1658 2758 
C 2054 2758 2131 2694 2131 2375 
L 2131 875 
C 2131 697 2099 607 2010 537 
C 1837 397 1638 320 1446 320 
C 1197 320 992 537 992 805 
L 992 2880 
L 58 2880 
L 58 2778 
C 365 2778 454 2682 454 2387 
L 454 770 
C 454 263 762 -64 1229 -64 
C 1466 -64 1715 38 1888 211 
L 2163 486 
L 2163 -45 
L 2189 -58 
C 2509 70 2739 141 3066 230 
L 3066 320 
z
" transform="scale(0.015625)"/>
     </defs>
     <use xlink:href="#NimbusRomNo9L-Regu-50" transform="scale(0.996264)"/>
     <use xlink:href="#NimbusRomNo9L-Regu-6f" transform="translate(55.391677 0) scale(0.996264)"/>
     <use xlink:href="#NimbusRomNo9L-Regu-6c" transform="translate(105.204877 0) scale(0.996264)"/>
     <use xlink:href="#NimbusRomNo9L-Regu-61" transform="translate(132.900047 0) scale(0.996264)"/>
     <use xlink:href="#NimbusRomNo9L-Regu-72" transform="translate(177.133616 0) scale(0.996264)"/>
     <use xlink:href="#NimbusRomNo9L-Regu-69" transform="translate(210.308845 0) scale(0.996264)"/>
     <use xlink:href="#NimbusRomNo9L-Regu-7a" transform="translate(238.004015 0) scale(0.996264)"/>
     <use xlink:href="#NimbusRomNo9L-Regu-61" transform="translate(282.237584 0) scale(0.996264)"/>
     <use xlink:href="#NimbusRomNo9L-Regu-74" transform="translate(326.471152 0) scale(0.996264)"/>
     <use xlink:href="#NimbusRomNo9L-Regu-69" transform="translate(354.166322 0) scale(0.996264)"/>
     <use xlink:href="#NimbusRomNo9L-Regu-6f" transform="translate(381.861492 0) scale(0.996264)"/>
     <use xlink:href="#NimbusRomNo9L-Regu-6e" transform="translate(431.674692 0) scale(0.996264)"/>
     <use xlink:href="#NimbusRomNo9L-Regu-50" transform="translate(506.394493 0) scale(0.996264)"/>
     <use xlink:href="#NimbusRomNo9L-Regu-61" transform="translate(560.292777 0) scale(0.996264)"/>
     <use xlink:href="#NimbusRomNo9L-Regu-74" transform="translate(604.526346 0) scale(0.996264)"/>
     <use xlink:href="#NimbusRomNo9L-Regu-74" transform="translate(632.221516 0) scale(0.996264)"/>
     <use xlink:href="#NimbusRomNo9L-Regu-65" transform="translate(659.916685 0) scale(0.996264)"/>
     <use xlink:href="#NimbusRomNo9L-Regu-72" transform="translate(704.150254 0) scale(0.996264)"/>
     <use xlink:href="#NimbusRomNo9L-Regu-6e" transform="translate(737.325484 0) scale(0.996264)"/>
     <use xlink:href="#NimbusRomNo9L-Regu-6d" transform="translate(812.045284 0) scale(0.996264)"/>
     <use xlink:href="#NimbusRomNo9L-Regu-65" transform="translate(889.553654 0) scale(0.996264)"/>
     <use xlink:href="#NimbusRomNo9L-Regu-74" transform="translate(933.787223 0) scale(0.996264)"/>
     <use xlink:href="#NimbusRomNo9L-Regu-61" transform="translate(961.482393 0) scale(0.996264)"/>
     <use xlink:href="#NimbusRomNo9L-Regu-6c" transform="translate(1005.715961 0) scale(0.996264)"/>
     <use xlink:href="#NimbusRomNo9L-Regu-6c" transform="translate(1033.411131 0) scale(0.996264)"/>
     <use xlink:href="#NimbusRomNo9L-Regu-69" transform="translate(1061.106301 0) scale(0.996264)"/>
     <use xlink:href="#NimbusRomNo9L-Regu-63" transform="translate(1088.80147 0) scale(0.996264)"/>
     <use xlink:href="#NimbusRomNo9L-Regu-72" transform="translate(1168.900604 0) scale(0.996264)"/>
     <use xlink:href="#NimbusRomNo9L-Regu-65" transform="translate(1202.075834 0) scale(0.996264)"/>
     <use xlink:href="#NimbusRomNo9L-Regu-3" transform="translate(1246.309402 0) scale(0.996264)"/>
     <use xlink:href="#NimbusRomNo9L-Regu-65" transform="translate(1301.701079 0) scale(0.996264)"/>
     <use xlink:href="#NimbusRomNo9L-Regu-63" transform="translate(1345.934648 0) scale(0.996264)"/>
     <use xlink:href="#NimbusRomNo9L-Regu-74" transform="translate(1390.168217 0) scale(0.996264)"/>
     <use xlink:href="#NimbusRomNo9L-Regu-69" transform="translate(1417.863386 0) scale(0.996264)"/>
     <use xlink:href="#NimbusRomNo9L-Regu-6f" transform="translate(1445.558556 0) scale(0.996264)"/>
     <use xlink:href="#NimbusRomNo9L-Regu-6e" transform="translate(1495.371757 0) scale(0.996264)"/>
     <use xlink:href="#NimbusRomNo9L-Regu-63" transform="translate(1581.050522 0) scale(0.996264)"/>
     <use xlink:href="#NimbusRomNo9L-Regu-69" transform="translate(1625.284091 0) scale(0.996264)"/>
     <use xlink:href="#NimbusRomNo9L-Regu-72" transform="translate(1652.979261 0) scale(0.996264)"/>
     <use xlink:href="#NimbusRomNo9L-Regu-63" transform="translate(1686.15449 0) scale(0.996264)"/>
     <use xlink:href="#NimbusRomNo9L-Regu-75" transform="translate(1730.388059 0) scale(0.996264)"/>
     <use xlink:href="#NimbusRomNo9L-Regu-6c" transform="translate(1780.201259 0) scale(0.996264)"/>
     <use xlink:href="#NimbusRomNo9L-Regu-61" transform="translate(1807.896429 0) scale(0.996264)"/>
     <use xlink:href="#NimbusRomNo9L-Regu-72" transform="translate(1852.129998 0) scale(0.996264)"/>
     <path d="M 1139.01238 0 
L 1168.900604 0 
L 1168.900604 0.3985 
L 1139.01238 0.3985 
L 1139.01238 0 
z
"/>
     <path d="M 1551.162298 0 
L 1581.050522 0 
L 1581.050522 0.3985 
L 1551.162298 0.3985 
L 1551.162298 0 
z
"/>
    </g>
   </g>
   <g id="legend_1">
    <g id="text_15">
     <!-- H -->
     <g transform="translate(141.486995 90.61745) scale(0.08 -0.08)">
      <defs>
       <path id="NimbusRomNo9L-Regu-48" d="M 1338 2304 
L 1338 3533 
C 1338 3990 1408 4059 1901 4104 
L 1901 4224 
L 122 4224 
L 122 4104 
C 614 4059 685 3989 685 3527 
L 685 749 
C 685 210 621 134 122 134 
L 122 0 
L 1901 0 
L 1901 121 
C 1421 159 1338 242 1338 699 
L 1338 2022 
L 3277 2022 
L 3277 757 
C 3277 211 3213 134 2714 134 
L 2714 0 
L 4493 0 
L 4493 121 
C 4013 159 3930 242 3930 696 
L 3930 3529 
C 3930 3989 4000 4059 4493 4104 
L 4493 4224 
L 2714 4224 
L 2714 4104 
C 3206 4059 3277 3990 3277 3533 
L 3277 2304 
L 1338 2304 
z
" transform="scale(0.015625)"/>
      </defs>
      <use xlink:href="#NimbusRomNo9L-Regu-48" transform="scale(0.996264)"/>
     </g>
    </g>
    <g id="line2d_17">
     <path d="M 130.733804 97.442913 
L 136.733804 97.442913 
L 142.733804 97.442913 
" style="fill: none; stroke: #000000; stroke-linecap: square"/>
    </g>
    <g id="text_16">
     <!-- 0.24 -->
     <g transform="translate(147.533804 99.542913) scale(0.06 -0.06)">
      <defs>
       <path id="NimbusRomNo9L-Regu-2e" d="M 800 646 
C 608 646 448 480 448 281 
C 448 96 608 -64 794 -64 
C 992 -64 1158 96 1158 281 
C 1158 480 992 646 800 646 
z
" transform="scale(0.015625)"/>
      </defs>
      <use xlink:href="#NimbusRomNo9L-Regu-30" transform="scale(0.996264)"/>
      <use xlink:href="#NimbusRomNo9L-Regu-2e" transform="translate(49.8132 0) scale(0.996264)"/>
      <use xlink:href="#NimbusRomNo9L-Regu-32" transform="translate(74.719801 0) scale(0.996264)"/>
      <use xlink:href="#NimbusRomNo9L-Regu-34" transform="translate(124.533001 0) scale(0.996264)"/>
     </g>
    </g>
    <g id="line2d_18">
     <path d="M 130.733804 105.93701 
L 136.733804 105.93701 
L 142.733804 105.93701 
" style="fill: none; stroke-dasharray: 3.7,1.6; stroke-dashoffset: 0; stroke: #ff0000"/>
    </g>
    <g id="text_17">
     <!-- 0.42 -->
     <g transform="translate(147.533804 108.03701) scale(0.06 -0.06)">
      <use xlink:href="#NimbusRomNo9L-Regu-30" transform="scale(0.996264)"/>
      <use xlink:href="#NimbusRomNo9L-Regu-2e" transform="translate(49.8132 0) scale(0.996264)"/>
      <use xlink:href="#NimbusRomNo9L-Regu-34" transform="translate(74.719801 0) scale(0.996264)"/>
      <use xlink:href="#NimbusRomNo9L-Regu-32" transform="translate(124.533001 0) scale(0.996264)"/>
     </g>
    </g>
    <g id="line2d_19">
     <path d="M 130.733804 114.431108 
L 136.733804 114.431108 
L 142.733804 114.431108 
" style="fill: none; stroke-dasharray: 1,1.65; stroke-dashoffset: 0; stroke: #0000ff"/>
    </g>
    <g id="text_18">
     <!-- 0.59 -->
     <g transform="translate(147.533804 116.531108) scale(0.06 -0.06)">
      <use xlink:href="#NimbusRomNo9L-Regu-30" transform="scale(0.996264)"/>
      <use xlink:href="#NimbusRomNo9L-Regu-2e" transform="translate(49.8132 0) scale(0.996264)"/>
      <use xlink:href="#NimbusRomNo9L-Regu-35" transform="translate(74.719801 0) scale(0.996264)"/>
      <use xlink:href="#NimbusRomNo9L-Regu-39" transform="translate(124.533001 0) scale(0.996264)"/>
     </g>
    </g>
   </g>
  </g>
 </g>
 <defs>
  <clipPath id="pf01113dd19">
   <path d="M 163.394576 101.519499 
C 163.394576 92.419107 161.601997 83.407204 158.119428 74.999538 
C 154.636858 66.591871 149.532026 58.951949 143.097076 52.516999 
C 136.662127 46.08205 129.022205 40.977217 120.614538 37.494648 
C 112.206872 34.012078 103.194969 32.219499 94.094576 32.219499 
C 84.994184 32.219499 75.982281 34.012078 67.574614 37.494648 
C 59.166948 40.977217 51.527026 46.08205 45.092076 52.516999 
C 38.657127 58.951949 33.552294 66.591871 30.069725 74.999538 
C 26.587155 83.407204 24.794576 92.419107 24.794576 101.519499 
C 24.794576 110.619892 26.587155 119.631795 30.069725 128.039461 
C 33.552294 136.447128 38.657127 144.08705 45.092076 150.521999 
C 51.527026 156.956949 59.166948 162.061782 67.574614 165.544351 
C 75.982281 169.02692 84.994184 170.819499 94.094576 170.819499 
C 103.194969 170.819499 112.206872 169.02692 120.614538 165.544351 
C 129.022205 162.061782 136.662127 156.956949 143.097076 150.521999 
C 149.532026 144.08705 154.636858 136.447128 158.119428 128.039461 
C 161.601997 119.631795 163.394576 110.619892 163.394576 101.519499 
M 94.094576 101.519499 
C 94.094576 101.519499 94.094576 101.519499 94.094576 101.519499 
C 94.094576 101.519499 94.094576 101.519499 94.094576 101.519499 
C 94.094576 101.519499 94.094576 101.519499 94.094576 101.519499 
C 94.094576 101.519499 94.094576 101.519499 94.094576 101.519499 
C 94.094576 101.519499 94.094576 101.519499 94.094576 101.519499 
C 94.094576 101.519499 94.094576 101.519499 94.094576 101.519499 
C 94.094576 101.519499 94.094576 101.519499 94.094576 101.519499 
C 94.094576 101.519499 94.094576 101.519499 94.094576 101.519499 
C 94.094576 101.519499 94.094576 101.519499 94.094576 101.519499 
C 94.094576 101.519499 94.094576 101.519499 94.094576 101.519499 
C 94.094576 101.519499 94.094576 101.519499 94.094576 101.519499 
C 94.094576 101.519499 94.094576 101.519499 94.094576 101.519499 
C 94.094576 101.519499 94.094576 101.519499 94.094576 101.519499 
C 94.094576 101.519499 94.094576 101.519499 94.094576 101.519499 
C 94.094576 101.519499 94.094576 101.519499 94.094576 101.519499 
C 94.094576 101.519499 94.094576 101.519499 94.094576 101.519499 
z
"/>
  </clipPath>
 </defs>
</svg>
